<svg version="1.1" xmlns="http://www.w3.org/2000/svg" xmlns:xlink="http://www.w3.org/1999/xlink" width="768" height="829.4375"><defs><clipPath id="clip-1"><rect x="0" y="19.99919" transform="scale(1.536,1.536)" width="500" height="500" id="clip-1" fill="none"/></clipPath></defs><g fill="none" fill-rule="nonzero" stroke="none" stroke-width="1" stroke-linecap="butt" stroke-linejoin="miter" stroke-miterlimit="10" stroke-dasharray="" stroke-dashoffset="0" font-family="none" font-weight="none" font-size="none" text-anchor="none" style="mix-blend-mode: normal"><g><g><g><g><g><g><g clip-path="url(#clip-1)"><g><path d="M274.944,66.81475c-8.7552,18.1248 -23.04,56.6784 -23.04,62.5152c0,1.536 -0.3072,2.7648 -0.768,2.7648c-0.4608,0 -8.9088,-2.7648 -18.7392,-6.144c-12.9024,-4.4544 -18.2784,-5.6832 -19.0464,-4.4544c-0.6144,1.0752 -1.8432,5.9904 -2.7648,11.2128c-5.0688,26.7264 -4.7616,25.8048 -8.2944,24.8832c-5.2224,-1.536 -37.9392,-8.2944 -44.8512,-9.216c-3.3792,-0.4608 -14.2848,-1.3824 -24.1152,-1.8432c-15.0528,-0.9216 -18.1248,-0.768 -18.2784,1.0752c-0.9216,15.2064 3.3792,51.7632 8.6016,73.1136c1.9968,8.2944 3.2256,15.5136 2.9184,16.128c-0.4608,0.768 -2.6112,1.2288 -4.9152,1.2288c-4.9152,0.1536 -30.8736,5.376 -31.9488,6.6048c-0.6144,0.6144 6.4512,23.5008 11.0592,35.4816c0.4608,1.3824 -3.072,2.9184 -11.9808,5.376c-23.6544,6.6048 -71.8848,27.8016 -71.8848,31.6416c0,4.7616 29.184,43.6224 45.9264,61.1328l9.984,10.4448l-7.5264,6.4512c-4.3008,3.5328 -10.752,9.3696 -14.592,12.9024l-6.912,6.6048l7.68,7.3728c4.3008,3.9936 10.752,9.8304 14.4384,12.9024l6.7584,5.6832l-11.2128,11.9808c-15.6672,16.7424 -44.544,55.7568 -44.544,60.0576c0,4.608 71.1168,34.0992 82.176,34.0992c1.2288,0 2.304,0.3072 2.304,0.768c0,0.4608 -2.7648,8.9088 -6.144,18.7392c-4.608,13.056 -5.6832,18.2784 -4.3008,19.0464c0.9216,0.6144 9.3696,2.6112 18.5856,4.3008c9.216,1.6896 17.0496,3.3792 17.3568,3.6864c0.3072,0.3072 -0.768,6.2976 -2.4576,13.056c-5.376,21.6576 -11.9808,76.4928 -9.216,77.7216c0.4608,0.3072 9.0624,-0.1536 19.2,-0.768c21.1968,-1.536 42.7008,-4.7616 58.8288,-9.216c6.144,-1.536 11.9808,-2.6112 12.7488,-2.1504c0.768,0.6144 1.3824,2.7648 1.3824,5.0688c0.1536,4.9152 5.376,30.8736 6.6048,31.9488c0.6144,0.6144 23.5008,-6.4512 35.4816,-11.0592c1.3824,-0.4608 2.9184,3.072 5.376,11.9808c6.2976,22.7328 27.648,71.8848 31.3344,71.8848c4.9152,0 44.3904,-29.6448 61.44,-45.9264l10.4448,-9.984l6.4512,7.5264c3.5328,4.3008 9.3696,10.752 12.9024,14.592l6.6048,6.912l7.3728,-7.68c3.9936,-4.3008 9.8304,-10.752 12.9024,-14.4384l5.6832,-6.7584l10.2912,9.6768c18.432,17.2032 57.2928,46.08 62.0544,46.08c4.1472,0 33.6384,-71.5776 33.792,-81.8688c0,-1.3824 0.3072,-2.6112 0.768,-2.6112c0.4608,0 8.9088,2.7648 18.7392,6.144c12.1344,4.3008 18.2784,5.6832 18.8928,4.4544c0.6144,-0.9216 2.304,-8.2944 3.84,-16.4352c3.6864,-21.0432 3.5328,-20.736 7.3728,-19.5072c18.432,5.5296 58.8288,11.52 77.568,11.52h10.4448l-0.4608,-10.4448c-0.9216,-18.432 -5.2224,-48.9984 -8.9088,-64.3584c-1.9968,-8.2944 -3.2256,-15.5136 -2.6112,-15.9744c0.6144,-0.4608 8.448,-2.1504 17.3568,-3.6864c9.0624,-1.3824 17.2032,-3.2256 18.2784,-3.84c1.536,-0.9216 -3.072,-17.3568 -10.1376,-35.9424c-0.4608,-1.3824 3.072,-2.9184 11.9808,-5.376c23.6544,-6.6048 71.8848,-27.8016 71.8848,-31.6416c0,-4.7616 -29.184,-43.6224 -45.9264,-61.1328l-9.984,-10.4448l7.5264,-6.4512c4.3008,-3.5328 10.752,-9.3696 14.592,-12.9024l6.912,-6.6048l-8.448,-8.1408c-4.608,-4.4544 -11.2128,-10.2912 -14.4384,-12.9024l-5.9904,-4.9152l11.2128,-11.9808c15.9744,-17.0496 44.544,-55.7568 44.544,-60.2112c0,-3.6864 -47.3088,-24.2688 -71.424,-31.0272c-6.7584,-1.9968 -12.4416,-3.6864 -12.7488,-3.84c-0.3072,-0.1536 2.304,-8.448 5.8368,-18.2784c3.3792,-9.984 5.8368,-18.432 5.5296,-18.7392c-1.0752,-1.0752 -25.9584,-6.4512 -30.1056,-6.6048c-7.68,-0.1536 -8.1408,-1.536 -4.7616,-14.7456c2.7648,-10.9056 4.1472,-18.432 7.0656,-35.9424c0.4608,-2.9184 1.2288,-13.6704 1.8432,-23.9616l0.9216,-18.432l-10.5984,0.4608c-18.7392,0.9216 -49.152,5.0688 -64.6656,8.9088c-8.2944,1.9968 -15.2064,3.3792 -15.5136,3.072c-0.3072,-0.3072 -2.1504,-8.448 -3.9936,-18.2784c-1.9968,-9.8304 -3.84,-18.2784 -4.4544,-18.7392c-0.6144,-0.6144 -23.04,6.2976 -35.4816,11.0592c-1.536,0.6144 -2.6112,-1.536 -3.9936,-7.3728c-5.0688,-21.504 -28.7232,-76.4928 -33.024,-76.4928c-2.304,0 -31.9488,20.5824 -43.776,30.4128c-4.608,3.84 -12.7488,11.2128 -18.1248,16.2816l-9.5232,9.3696l-6.6048,-7.68c-3.5328,-4.3008 -9.3696,-10.752 -12.9024,-14.592l-6.6048,-6.912l-8.1408,8.448c-4.4544,4.608 -10.2912,11.2128 -12.9024,14.4384l-4.9152,5.9904l-11.9808,-11.2128c-17.2032,-15.9744 -55.7568,-44.544 -60.3648,-44.544c-0.768,0 -5.6832,8.6016 -10.752,19.2z" fill="#000000"/><path d="M311.6544,75.72355c7.9872,5.8368 20.2752,16.2816 27.4944,23.1936l12.9024,12.4416l-7.8336,11.3664c-4.1472,6.144 -7.9872,11.9808 -8.1408,12.7488c-0.3072,0.9216 -4.7616,-2.4576 -9.6768,-7.2192c-5.0688,-4.9152 -12.5952,-11.6736 -16.896,-15.0528l-7.68,-5.9904l-3.3792,7.3728c-1.8432,4.1472 -5.0688,13.3632 -7.0656,20.5824c-2.1504,7.2192 -4.4544,13.056 -5.0688,13.056c-0.768,0 -7.0656,-2.7648 -13.9776,-5.9904c-11.8272,-5.5296 -12.5952,-6.2976 -11.8272,-9.984c2.6112,-11.3664 13.6704,-41.7792 20.4288,-56.2176l7.68,-16.2816l4.3008,2.7648c2.304,1.3824 10.752,7.3728 18.7392,13.2096z" fill="#ffffff"/><path d="M482.9184,67.27555c6.912,13.6704 16.2816,37.4784 20.8896,53.1456c2.4576,8.448 4.3008,15.5136 4.1472,15.6672c-0.1536,0.1536 -6.4512,3.072 -13.824,6.4512c-9.216,4.3008 -13.6704,5.6832 -14.1312,4.4544c-0.3072,-1.0752 -1.8432,-5.9904 -3.2256,-11.0592c-2.9184,-10.5984 -9.8304,-28.416 -10.9056,-28.416c-1.2288,0 -23.808,19.2 -28.7232,24.4224l-4.4544,4.608l-8.1408,-12.4416c-6.912,-10.4448 -7.8336,-12.7488 -6.2976,-15.0528c2.304,-3.072 19.2,-18.5856 29.4912,-27.0336c6.4512,-5.376 29.952,-21.9648 31.0272,-22.1184c0.3072,0 2.1504,3.3792 4.1472,7.3728z" fill="#ffffff"/><path d="M392.9088,97.84195c45.0048,52.3776 66.048,107.3664 60.3648,157.7472c-1.9968,17.2032 -4.1472,26.112 -10.5984,43.1616l-3.9936,10.752l-1.3824,-5.9904c-0.9216,-3.5328 -3.9936,-8.6016 -7.8336,-12.4416l-6.2976,-6.6048l3.6864,-10.5984c3.072,-8.7552 3.84,-13.3632 3.84,-28.1088c0,-19.8144 -1.8432,-28.416 -11.52,-52.992c-8.1408,-20.8896 -31.3344,-60.3648 -35.4816,-60.672c-2.1504,0 -21.3504,30.72 -28.7232,46.08c-18.7392,39.4752 -22.8864,68.8128 -13.6704,96.3072l3.5328,10.4448l-5.8368,5.2224c-3.6864,3.2256 -6.4512,7.68 -7.68,12.1344l-1.9968,6.912l-3.2256,-7.5264c-8.9088,-21.3504 -11.8272,-36.7104 -11.8272,-63.5904c0,-19.2 0.6144,-24.4224 4.1472,-38.0928c6.7584,-25.6512 16.128,-45.7728 33.024,-71.1168c11.0592,-16.4352 30.1056,-39.7824 32.4096,-39.7824c0.768,0 4.7616,3.9936 9.0624,8.7552z" fill="#ffffff"/><path d="M318.72,133.93795l11.52,11.2128l-5.2224,10.1376c-2.7648,5.6832 -5.5296,11.2128 -5.8368,12.288c-0.6144,1.536 -3.84,0.1536 -11.8272,-5.376c-10.5984,-7.2192 -11.2128,-7.8336 -10.2912,-12.288c1.9968,-9.8304 7.5264,-27.0336 8.9088,-27.0336c0.6144,0 6.4512,5.0688 12.7488,11.0592z" fill="#ee82ee"/><path d="M468.3264,140.54275c1.6896,7.0656 3.2256,13.2096 3.2256,13.5168c0,0.9216 -21.6576,15.36 -22.1184,14.7456c-0.3072,-0.3072 -3.072,-5.6832 -6.2976,-11.9808l-5.6832,-11.52l11.8272,-11.52c13.9776,-13.6704 13.9776,-13.6704 19.0464,6.7584z" fill="#ee82ee"/><path d="M247.296,141.46435c30.5664,11.9808 68.5056,34.7136 66.6624,39.7824c-0.4608,1.2288 -2.304,7.68 -3.9936,14.1312l-3.2256,11.8272l-5.8368,-4.4544c-13.5168,-10.752 -43.008,-27.648 -54.6816,-31.3344c-2.9184,-0.9216 -3.6864,-0.3072 -4.608,3.2256c-1.536,5.5296 -1.536,54.528 0,63.2832c1.0752,6.4512 1.0752,6.6048 -2.304,5.6832c-1.9968,-0.4608 -8.2944,-2.304 -14.2848,-3.84l-10.752,-2.7648l-1.2288,-9.8304c-1.8432,-14.8992 0,-55.1424 3.5328,-75.5712c1.6896,-9.984 3.072,-18.5856 3.072,-19.0464c0,-1.3824 7.9872,1.0752 27.648,8.9088z" fill="#ffffff"/><path d="M550.3488,146.22595c4.1472,23.5008 6.144,50.0736 5.0688,68.0448c-1.2288,23.808 -0.6144,22.5792 -14.4384,25.9584c-6.4512,1.3824 -12.7488,3.072 -13.9776,3.5328c-1.6896,0.768 -1.9968,-0.4608 -1.0752,-6.6048c2.9184,-21.6576 2.304,-62.6688 -1.2288,-66.2016c-2.304,-2.4576 -36.5568,15.8208 -53.76,28.7232c-6.2976,4.7616 -10.4448,6.912 -10.752,5.6832c-0.3072,-0.9216 -1.6896,-6.2976 -3.2256,-11.8272c-1.536,-5.5296 -2.9184,-11.0592 -3.3792,-12.4416c-0.9216,-3.3792 23.808,-19.968 45.6192,-30.4128c14.8992,-7.2192 43.008,-18.2784 47.0016,-18.5856c0.9216,0 2.7648,6.4512 4.1472,14.1312z" fill="#ffffff"/><path d="M391.2192,157.89955c8.7552,13.6704 21.3504,41.1648 25.9584,56.3712c5.6832,19.3536 5.9904,43.008 0.4608,57.4464c-3.5328,9.3696 -3.9936,9.8304 -11.6736,12.7488c-5.5296,1.9968 -10.1376,5.2224 -14.8992,10.5984l-6.912,7.68l-8.1408,-8.448c-6.144,-6.2976 -9.984,-8.9088 -15.36,-10.2912c-7.0656,-1.9968 -7.2192,-2.1504 -10.4448,-11.9808c-6.7584,-20.4288 -5.2224,-45.312 4.1472,-69.2736c9.0624,-22.8864 27.3408,-55.9104 29.952,-54.3744c0.768,0.4608 3.84,4.7616 6.912,9.5232z" fill="#008000"/><path d="M169.4208,159.89635c9.5232,1.6896 21.1968,4.1472 26.112,5.5296l9.0624,2.4576l-1.0752,14.7456c-0.6144,8.1408 -1.2288,14.8992 -1.536,15.2064c-0.1536,0.1536 -7.5264,-1.3824 -16.2816,-3.5328c-8.7552,-2.1504 -18.432,-3.84 -21.504,-3.84h-5.5296l1.3824,8.7552c0.768,4.9152 2.6112,14.4384 4.3008,21.0432c1.6896,6.7584 2.9184,12.4416 2.6112,12.5952c-0.3072,0.3072 -7.0656,0.9216 -15.2064,1.536l-14.7456,1.0752l-1.6896,-5.9904c-5.6832,-21.3504 -10.9056,-54.2208 -10.9056,-68.8128v-5.9904l13.824,1.0752c7.68,0.6144 21.6576,2.4576 31.1808,4.1472z" fill="#ffffff"/><path d="M642.816,169.26595c-1.2288,16.128 -5.8368,43.6224 -9.5232,56.9856l-2.4576,9.0624l-14.7456,-1.0752c-8.1408,-0.6144 -14.8992,-1.3824 -15.2064,-1.536c-0.3072,-0.1536 0.9216,-5.8368 2.6112,-12.5952c1.6896,-6.6048 3.5328,-16.128 4.1472,-21.0432l1.0752,-9.0624l-9.8304,1.0752c-5.376,0.4608 -15.0528,2.304 -21.3504,3.9936c-6.2976,1.536 -11.52,2.7648 -11.8272,2.4576c-0.1536,-0.1536 -0.9216,-7.0656 -1.3824,-15.0528l-1.0752,-14.8992l5.9904,-1.536c21.504,-5.6832 50.688,-10.4448 66.5088,-10.752l8.2944,-0.1536z" fill="#ffffff"/><path d="M282.0096,201.06115c7.5264,5.0688 15.6672,10.9056 18.1248,12.7488l4.3008,3.6864l0.4608,23.6544c0.3072,17.5104 1.2288,27.0336 3.3792,35.6352l3.072,11.8272l-10.1376,-8.9088c-12.5952,-11.0592 -27.1872,-21.0432 -39.4752,-26.88l-9.3696,-4.3008l-1.536,-13.3632c-1.8432,-15.9744 -2.6112,-46.08 -1.2288,-49.7664c0.9216,-2.304 1.9968,-1.9968 9.8304,1.9968c4.9152,2.304 15.0528,8.6016 22.5792,13.6704z" fill="#0000ff"/><path d="M518.8608,203.51875c-0.1536,14.7456 -1.8432,35.0208 -3.3792,41.472c-0.4608,1.8432 -3.84,4.608 -8.1408,6.7584c-12.288,5.9904 -31.3344,19.0464 -41.7792,28.7232c-5.6832,5.0688 -9.3696,7.68 -8.7552,5.9904c3.3792,-9.0624 5.9904,-28.2624 6.144,-47.616l0.3072,-21.504l13.3632,-10.1376c7.2192,-5.5296 19.3536,-13.2096 26.7264,-17.2032c16.128,-8.448 15.8208,-8.7552 15.5136,13.5168z" fill="#0000ff"/><path d="M594.432,218.26435c-1.8432,7.5264 -3.84,13.9776 -4.4544,14.2848c-0.4608,0.3072 -6.7584,1.0752 -13.824,1.6896l-12.9024,1.0752l1.0752,-13.5168c0.6144,-7.5264 1.2288,-13.6704 1.3824,-13.824c0.1536,-0.1536 7.2192,-1.9968 15.6672,-4.1472c13.056,-3.2256 15.36,-3.5328 15.8208,-1.536c0.3072,1.2288 -0.9216,8.448 -2.7648,15.9744z" fill="#ee82ee"/><path d="M192.768,205.51555l9.216,2.7648l1.3824,12.7488c0.6144,6.912 0.9216,13.056 0.4608,13.5168c-0.4608,0.4608 -6.6048,0.3072 -13.6704,-0.3072l-12.9024,-1.0752l-1.9968,-7.2192c-1.0752,-3.84 -2.9184,-11.0592 -3.9936,-16.128l-2.1504,-8.9088l7.2192,0.9216c3.9936,0.4608 11.3664,2.1504 16.4352,3.6864z" fill="#ee82ee"/><path d="M213.1968,246.52675c14.592,2.7648 35.6352,9.8304 47.9232,16.128c17.5104,8.9088 44.2368,31.6416 54.8352,47.0016l3.3792,4.608l-7.68,-1.536c-5.9904,-1.2288 -9.0624,-1.0752 -13.9776,0.6144l-6.2976,2.304l-10.9056,-10.9056c-5.9904,-5.9904 -15.36,-13.3632 -20.8896,-16.2816c-11.3664,-6.2976 -30.4128,-12.5952 -43.008,-14.2848c-4.608,-0.6144 -9.8304,-1.3824 -11.52,-1.6896c-13.9776,-2.9184 -61.5936,-1.6896 -64.8192,1.536c-1.3824,1.3824 6.7584,19.0464 15.8208,34.4064c26.4192,44.544 53.9136,66.9696 91.392,74.6496c3.3792,0.768 4.4544,2.1504 5.8368,7.8336c0.9216,3.6864 3.84,9.216 6.2976,12.1344c2.6112,2.7648 4.608,5.5296 4.608,5.8368c0,1.0752 -22.1184,-2.9184 -32.1024,-5.8368c-45.312,-13.056 -84.6336,-48.5376 -110.2848,-99.6864c-6.912,-13.5168 -20.4288,-47.3088 -20.4288,-50.8416c0,-1.6896 20.1216,-5.8368 40.704,-8.1408c16.4352,-1.9968 56.5248,-0.768 71.1168,2.1504z" fill="#ffffff"/><path d="M647.424,247.29475c10.1376,1.8432 18.5856,3.5328 19.0464,3.84c1.3824,1.3824 -11.6736,34.7136 -19.8144,50.8416c-29.952,58.9824 -70.1952,92.7744 -124.8768,104.2944c-5.8368,1.2288 -12.288,2.304 -14.592,2.304h-3.9936l4.1472,-4.3008c4.3008,-4.4544 8.7552,-13.824 8.7552,-18.432c0,-2.1504 1.9968,-3.072 10.2912,-4.4544c27.0336,-4.608 52.8384,-24.8832 76.9536,-60.0576c10.1376,-14.7456 23.1936,-39.4752 23.808,-45.1584c0.3072,-3.072 -0.4608,-3.6864 -7.3728,-4.608c-11.0592,-1.3824 -51.7632,-0.3072 -65.28,1.8432c-29.6448,4.608 -48.8448,13.5168 -66.3552,30.72c-11.3664,11.0592 -11.9808,11.52 -16.128,9.6768c-5.2224,-2.304 -14.2848,-2.4576 -19.5072,-0.4608c-2.1504,0.768 -3.9936,0.9216 -3.9936,0.1536c0,-3.072 29.7984,-32.5632 40.2432,-39.6288c21.0432,-14.592 45.6192,-24.576 68.8128,-27.9552c6.2976,-0.9216 13.2096,-1.9968 15.36,-2.304c9.6768,-1.6896 56.9856,0.6144 74.496,3.6864z" fill="#ffffff"/><path d="M214.272,283.23715c24.7296,4.1472 44.2368,12.7488 57.2928,25.344c11.52,11.0592 12.7488,13.5168 10.5984,21.3504c-1.3824,5.376 -1.2288,8.2944 0.6144,15.36c1.3824,4.7616 2.9184,9.984 3.6864,11.3664c0.768,1.9968 0.4608,2.7648 -1.2288,2.7648c-8.6016,0 -18.8928,3.84 -24.7296,9.216c-6.144,5.6832 -6.4512,5.8368 -13.9776,4.608c-16.4352,-2.7648 -32.4096,-10.752 -46.2336,-23.5008c-14.4384,-13.2096 -33.1776,-38.8608 -44.2368,-60.8256l-3.9936,-7.68l4.3008,-0.768c7.3728,-1.2288 43.6224,0.4608 57.9072,2.7648z" fill="#008000"/><path d="M613.9392,280.77955c2.4576,1.536 -7.2192,19.5072 -21.0432,39.0144c-18.7392,26.7264 -40.704,45.0048 -61.2864,50.9952c-13.056,3.84 -18.1248,3.2256 -24.7296,-2.7648c-5.376,-4.9152 -16.128,-8.6016 -24.576,-8.6016c-2.7648,0 -2.7648,-0.1536 0.1536,-6.144c3.9936,-8.2944 5.2224,-18.432 2.9184,-25.1904c-1.6896,-5.376 -1.536,-5.9904 3.9936,-12.5952c15.0528,-18.5856 41.0112,-30.1056 76.1856,-34.2528c14.4384,-1.6896 45.9264,-1.9968 48.384,-0.4608z" fill="#008000"/><path d="M117.9648,318.56515c-0.3072,0.1536 -4.3008,1.2288 -8.9088,2.304c-9.5232,2.304 -32.256,10.752 -32.256,11.9808c0,1.2288 19.0464,23.6544 24.4224,28.7232l4.7616,4.608l-12.4416,8.1408l-12.4416,8.1408l-3.6864,-2.9184c-6.2976,-4.9152 -21.9648,-23.04 -33.792,-38.8608c-17.0496,-22.8864 -16.896,-20.2752 -0.3072,-27.9552c19.2,-8.7552 34.7136,-14.7456 49.6128,-18.7392l12.288,-3.2256l6.6048,13.6704c3.6864,7.68 6.4512,13.9776 6.144,14.1312z" fill="#ffffff"/><path d="M688.4352,297.98275c9.8304,3.2256 25.1904,9.3696 34.2528,13.6704l16.2816,7.68l-6.4512,9.6768c-9.6768,14.592 -26.112,34.7136 -36.4032,44.6976l-9.0624,8.9088l-12.288,-8.448l-12.4416,-8.6016l8.448,-8.9088c4.7616,-4.7616 11.3664,-12.1344 14.7456,-16.4352l5.9904,-7.68l-7.3728,-3.3792c-4.1472,-1.8432 -13.3632,-5.0688 -20.5824,-7.0656c-7.2192,-2.1504 -13.056,-4.4544 -13.056,-5.0688c0,-0.768 2.7648,-7.0656 6.144,-13.9776c6.912,-14.7456 3.84,-14.1312 31.7952,-5.0688z" fill="#ffffff"/><path d="M361.728,294.29635c7.68,3.6864 19.5072,21.0432 17.0496,25.0368c-0.4608,0.768 -4.608,1.6896 -9.216,2.304c-4.7616,0.4608 -13.2096,2.6112 -18.8928,4.7616c-5.6832,1.9968 -10.5984,3.3792 -11.0592,2.9184c-0.4608,-0.4608 -0.768,-5.6832 -0.768,-11.8272c-0.1536,-13.2096 3.072,-20.2752 10.2912,-23.3472c6.2976,-2.7648 6.6048,-2.7648 12.5952,0.1536z" fill="#ffa500"/><path d="M418.4064,293.98915c7.0656,2.9184 10.9056,11.3664 10.752,23.6544c0,5.376 -0.768,10.2912 -1.536,11.0592c-0.9216,0.9216 -4.9152,0 -10.5984,-2.304c-5.0688,-1.9968 -13.2096,-4.1472 -18.1248,-4.7616c-4.7616,-0.6144 -9.216,-1.536 -9.6768,-2.304c-1.0752,-1.6896 3.3792,-11.8272 7.8336,-17.5104c3.2256,-4.3008 11.6736,-9.8304 15.0528,-9.984c0.6144,0 3.3792,0.9216 6.2976,2.1504z" fill="#ffa500"/><path d="M315.1872,323.32675c3.6864,1.3824 9.216,4.4544 12.1344,6.912l5.2224,4.4544l-6.144,5.0688c-7.8336,6.4512 -11.0592,9.6768 -17.2032,17.2032c-5.6832,6.912 -7.2192,6.4512 -13.5168,-4.3008c-7.5264,-13.056 -6.2976,-25.4976 2.9184,-29.4912c6.144,-2.6112 8.1408,-2.6112 16.5888,0.1536z" fill="#ffa500"/><path d="M470.016,323.32675c5.9904,3.072 8.6016,11.52 6.2976,20.1216c-1.6896,6.144 -9.8304,19.0464 -12.1344,19.0464c-0.6144,0 -3.84,-3.3792 -7.0656,-7.5264c-3.2256,-4.1472 -9.216,-10.1376 -13.3632,-13.3632c-4.1472,-3.2256 -7.5264,-6.4512 -7.5264,-7.0656c0,-1.9968 10.5984,-9.216 16.4352,-11.3664c7.68,-2.6112 11.9808,-2.6112 17.3568,0.1536z" fill="#ffa500"/><path d="M131.1744,338.07235c3.9936,5.9904 7.0656,11.0592 6.7584,11.3664c-0.3072,0.1536 -5.6832,2.9184 -11.9808,5.9904l-11.3664,5.8368l-11.52,-11.8272c-8.2944,-8.448 -10.9056,-12.1344 -9.6768,-13.3632c1.536,-1.536 24.4224,-8.448 28.8768,-8.7552c0.9216,-0.1536 4.9152,4.7616 8.9088,10.752z" fill="#ffffff"/><path d="M664.7808,332.08195c5.9904,1.6896 11.0592,3.6864 11.0592,4.4544c0,0.6144 -5.0688,6.2976 -11.0592,12.7488l-11.2128,11.6736l-11.8272,-5.8368c-6.6048,-3.072 -11.9808,-6.144 -11.9808,-6.7584c0,-0.6144 3.2256,-5.6832 7.3728,-11.2128c8.1408,-11.52 6.7584,-11.2128 27.648,-5.0688z" fill="#ee82ee"/><path d="M406.1184,332.69635c31.3344,7.8336 56.064,35.1744 61.7472,68.6592c1.9968,11.8272 1.9968,14.8992 0,26.7264c-3.2256,18.7392 -10.752,33.4848 -23.808,46.3872c-17.0496,17.0496 -36.096,25.0368 -59.7504,24.8832c-24.2688,0 -43.3152,-7.8336 -60.2112,-24.7296c-16.7424,-16.7424 -24.8832,-36.2496 -25.0368,-59.7504c0,-23.5008 8.1408,-43.1616 25.1904,-60.2112c21.504,-21.6576 51.456,-29.6448 81.8688,-21.9648z" fill="#d7da4e"/><path d="M146.688,386.30275c-19.968,9.984 -45.312,26.112 -45.312,28.8768c0,2.1504 31.6416,21.6576 47.3088,29.184l17.2032,8.1408l-10.4448,10.2912l-10.4448,10.2912l-15.2064,-7.3728c-8.448,-4.1472 -22.5792,-12.4416 -31.488,-18.432c-16.5888,-11.0592 -39.936,-30.1056 -39.936,-32.4096c0,-1.536 13.3632,-13.2096 27.1872,-23.6544c13.5168,-10.2912 33.024,-22.272 47.3088,-28.7232l12.1344,-5.6832l10.1376,10.1376l9.984,10.1376z" fill="#ffffff"/><path d="M641.5872,365.41315c22.1184,11.0592 68.0448,44.3904 68.0448,49.3056c0,1.8432 -18.2784,17.2032 -33.3312,27.9552c-13.9776,9.984 -33.024,21.0432 -45.0048,26.2656l-8.448,3.6864l-10.1376,-10.4448l-10.1376,-10.2912l12.4416,-5.6832c19.2,-8.6016 51.456,-28.416 51.6096,-31.7952c0,-2.304 -32.7168,-22.5792 -48.2304,-29.6448l-16.2816,-7.5264l10.1376,-10.2912c11.6736,-11.6736 9.3696,-11.6736 29.3376,-1.536z" fill="#ffffff"/><path d="M298.1376,371.09635c0.6144,0.3072 -0.4608,5.2224 -2.4576,10.5984c-2.1504,5.5296 -4.3008,13.824 -4.7616,18.432c-0.6144,4.7616 -1.6896,8.9088 -2.4576,9.3696c-2.4576,1.536 -17.9712,-7.0656 -21.8112,-12.1344c-9.5232,-12.4416 -5.9904,-20.736 11.3664,-27.8016c2.4576,-0.9216 17.9712,0.1536 20.1216,1.536z" fill="#ffa500"/><path d="M497.5104,372.32515c2.6112,1.3824 5.8368,4.608 7.2192,7.2192c2.1504,4.4544 2.1504,5.376 -0.1536,11.3664c-1.3824,3.84 -4.7616,8.448 -7.8336,10.752c-6.144,4.608 -15.5136,8.9088 -17.3568,7.8336c-0.768,-0.4608 -1.6896,-4.608 -2.304,-9.3696c-0.4608,-4.608 -2.6112,-12.9024 -4.7616,-18.432c-2.7648,-7.3728 -3.2256,-10.2912 -1.8432,-10.752c1.0752,-0.3072 2.9184,-0.9216 4.1472,-1.3824c3.9936,-1.536 17.8176,0.3072 22.8864,2.7648z" fill="#ffa500"/><path d="M200.9088,400.74115c5.2224,2.6112 15.5136,6.7584 22.7328,9.216c7.2192,2.4576 13.3632,4.7616 13.824,5.2224c0.4608,0.3072 -1.8432,1.2288 -5.0688,1.8432c-9.984,1.8432 -32.1024,11.52 -45.4656,19.8144l-12.9024,8.1408l-8.2944,-3.3792c-11.52,-4.608 -31.1808,-14.8992 -41.1648,-21.1968l-8.1408,-5.2224l5.0688,-3.84c7.68,-5.6832 21.6576,-13.3632 37.9392,-20.5824l14.592,-6.6048l8.6016,5.8368c4.7616,3.2256 12.9024,7.9872 18.2784,10.752z" fill="#0000ff"/><path d="M620.0832,395.67235c5.9904,3.072 15.6672,8.448 21.1968,11.9808l10.2912,6.6048l-5.0688,3.84c-7.5264,5.6832 -20.8896,12.9024 -37.7856,20.5824l-14.7456,6.6048l-9.216,-6.2976c-11.2128,-7.68 -30.8736,-16.896 -43.6224,-20.736c-5.376,-1.536 -9.6768,-3.2256 -9.6768,-3.6864c0,-0.6144 3.072,-1.8432 6.6048,-2.7648c11.3664,-2.7648 32.1024,-12.1344 44.0832,-19.968l11.52,-7.3728l7.68,2.9184c4.3008,1.6896 12.5952,5.376 18.7392,8.2944z" fill="#0000ff"/><path d="M290.6112,428.69635c0.6144,4.608 2.7648,13.056 4.7616,18.7392c4.4544,12.288 4.3008,12.5952 -10.4448,12.4416c-11.6736,0 -18.5856,-3.5328 -21.8112,-10.9056c-1.9968,-5.0688 -1.9968,-6.144 0.4608,-11.52c1.3824,-3.2256 4.9152,-7.5264 7.68,-9.6768c5.9904,-4.608 14.4384,-8.6016 16.7424,-7.8336c0.9216,0.1536 1.9968,4.1472 2.6112,8.7552z" fill="#ffa500"/><path d="M492.5952,424.85635c11.0592,6.4512 15.8208,15.5136 12.288,24.1152c-3.072,7.2192 -11.3664,10.9056 -23.808,10.9056c-5.2224,0 -10.2912,-0.768 -11.0592,-1.536c-0.9216,-0.9216 -0.1536,-4.7616 2.304,-10.5984c1.9968,-5.0688 4.1472,-13.056 4.7616,-17.664c0.4608,-4.608 1.3824,-9.0624 1.6896,-9.6768c0.9216,-1.6896 5.9904,0 13.824,4.4544z" fill="#ffa500"/><path d="M259.8912,426.23875c-4.1472,4.608 -7.9872,13.5168 -7.9872,18.5856c0,0.9216 -3.2256,2.1504 -7.3728,2.6112c-24.7296,2.9184 -52.8384,22.8864 -74.3424,52.8384c-18.5856,25.8048 -32.5632,52.6848 -29.0304,56.2176c1.3824,1.3824 10.5984,1.8432 32.8704,1.6896c25.1904,0 33.9456,-0.768 46.6944,-3.3792c27.648,-5.6832 45.1584,-14.592 60.9792,-31.0272c9.5232,-9.6768 9.8304,-9.984 14.1312,-8.1408c5.376,2.304 14.4384,2.4576 19.8144,0.4608c3.6864,-1.3824 3.84,-1.2288 2.1504,1.8432c-0.9216,1.8432 -7.5264,9.3696 -14.7456,16.7424c-20.1216,20.8896 -41.0112,34.0992 -67.7376,42.7008c-21.1968,6.912 -33.792,8.6016 -64.0512,8.6016c-25.4976,-0.1536 -37.1712,-1.2288 -61.1328,-5.6832c-10.752,-1.9968 -10.752,-0.3072 0.6144,-28.8768c21.8112,-54.8352 53.9136,-93.8496 93.3888,-113.5104c17.2032,-8.6016 43.3152,-16.5888 55.296,-16.896l5.0688,-0.1536z" fill="#ffffff"/><path d="M529.3056,424.70275c19.2,4.7616 45.9264,17.8176 60.8256,29.6448c23.3472,18.5856 43.4688,45.1584 58.6752,77.2608c7.8336,16.7424 17.8176,42.0864 17.8176,45.4656c0,1.536 -21.0432,5.6832 -41.472,8.1408c-16.896,1.9968 -55.4496,0.768 -70.3488,-2.1504c-25.9584,-5.2224 -49.6128,-15.5136 -69.4272,-30.1056c-10.2912,-7.5264 -27.4944,-24.7296 -33.3312,-33.1776l-3.3792,-4.608l7.68,1.536c5.9904,1.2288 9.0624,1.0752 14.1312,-0.768l6.4512,-2.1504l6.7584,7.3728c17.0496,18.7392 36.864,28.5696 68.5056,34.0992c22.5792,3.9936 71.5776,4.3008 75.4176,0.3072c3.2256,-3.2256 -18.432,-41.6256 -36.096,-63.744c-21.0432,-26.4192 -41.1648,-39.3216 -70.9632,-45.4656c-3.3792,-0.768 -4.4544,-2.1504 -5.8368,-7.8336c-0.9216,-3.6864 -3.84,-9.216 -6.4512,-12.288l-4.7616,-5.376h5.376c2.9184,0 12.1344,1.6896 20.4288,3.84z" fill="#ffffff"/><path d="M96.768,457.57315c4.608,2.9184 8.6016,5.5296 8.9088,5.6832c0.1536,0.1536 -3.5328,4.3008 -8.2944,9.216c-12.4416,12.9024 -20.8896,23.9616 -19.5072,25.344c1.536,1.536 33.1776,12.1344 36.2496,12.1344c4.4544,0 3.9936,2.4576 -2.304,15.8208c-5.9904,12.288 -6.7584,13.2096 -10.4448,12.4416c-11.2128,-2.6112 -41.6256,-13.6704 -56.064,-20.4288l-16.2816,-7.68l6.4512,-9.6768c10.9056,-16.2816 19.968,-27.4944 32.7168,-40.8576l12.1344,-12.5952l3.9936,2.6112c2.1504,1.3824 7.8336,4.9152 12.4416,7.9872z" fill="#ffffff"/><path d="M698.112,457.26595c9.3696,9.6768 35.1744,42.24 39.168,49.4592c1.3824,2.7648 0.9216,3.5328 -4.1472,6.144c-13.9776,7.0656 -37.7856,16.4352 -53.2992,21.0432l-16.896,4.9152l-6.7584,-13.824c-3.6864,-7.5264 -6.4512,-13.9776 -6.144,-14.1312c0.3072,-0.1536 4.3008,-1.2288 8.9088,-2.304c9.5232,-2.304 32.256,-10.752 32.256,-11.9808c0,-1.2288 -19.0464,-23.6544 -24.4224,-28.7232l-4.608,-4.4544l11.8272,-7.9872c6.4512,-4.4544 12.288,-8.1408 12.9024,-8.2944c0.4608,0 5.5296,4.4544 11.2128,10.1376z" fill="#ffffff"/><path d="M259.584,460.03075c5.376,5.5296 16.4352,9.984 24.8832,9.984h4.3008l-3.072,6.144c-4.1472,8.1408 -5.376,18.2784 -3.072,25.1904c1.8432,5.5296 1.6896,5.9904 -4.3008,12.9024c-12.9024,15.36 -35.7888,27.1872 -61.1328,31.6416c-15.5136,2.9184 -54.8352,4.9152 -61.1328,3.3792l-4.1472,-1.0752l5.5296,-10.2912c13.9776,-25.6512 33.6384,-51.1488 48.0768,-62.5152c13.3632,-10.5984 30.8736,-18.1248 48.0768,-20.5824c0.4608,-0.1536 3.072,2.304 5.9904,5.2224z" fill="#008000"/><path d="M533.76,459.41635c12.4416,3.9936 23.04,10.2912 33.6384,19.968c14.7456,13.5168 33.4848,39.0144 44.544,61.1328l3.9936,7.68l-7.2192,1.0752c-8.9088,1.3824 -37.4784,-0.3072 -55.296,-3.2256c-24.2688,-3.9936 -43.9296,-12.5952 -56.9856,-25.1904c-11.3664,-10.9056 -12.9024,-13.6704 -10.752,-20.4288c1.9968,-6.6048 0.6144,-17.2032 -3.2256,-24.7296l-2.7648,-5.5296l7.68,-0.9216c10.2912,-1.536 16.2816,-4.1472 21.6576,-9.8304c5.2224,-5.376 7.9872,-5.376 24.7296,0z" fill="#008000"/><path d="M310.8864,474.46915c3.3792,4.1472 9.3696,10.1376 13.5168,13.3632c4.1472,3.072 7.2192,6.4512 6.912,7.3728c-1.0752,3.3792 -15.2064,11.52 -21.6576,12.4416c-18.7392,2.9184 -25.0368,-15.8208 -11.6736,-34.2528c2.6112,-3.5328 5.2224,-6.4512 5.8368,-6.4512c0.6144,0 3.84,3.3792 7.0656,7.5264z" fill="#ffa500"/><path d="M471.0912,475.08355c16.896,25.0368 -3.6864,43.6224 -28.416,25.6512c-3.5328,-2.6112 -6.4512,-5.2224 -6.4512,-5.8368c0,-0.6144 3.3792,-3.84 7.5264,-7.0656c4.1472,-3.2256 10.1376,-9.3696 13.3632,-13.3632c3.2256,-4.1472 6.6048,-7.3728 7.5264,-7.0656c0.768,0.3072 3.6864,3.6864 6.4512,7.68z" fill="#ffa500"/><path d="M126.72,474.46915c5.9904,2.7648 11.0592,5.376 11.3664,5.6832c0.3072,0.3072 -2.7648,5.376 -6.7584,11.52c-6.912,10.4448 -7.3728,10.9056 -11.9808,9.984c-9.3696,-1.8432 -27.1872,-7.5264 -27.1872,-8.6016c0,-1.8432 21.8112,-24.7296 22.8864,-24.1152c0.4608,0.3072 5.8368,2.7648 11.6736,5.5296z" fill="#ffffff"/><path d="M665.088,480.15235c6.912,7.3728 10.4448,12.288 9.5232,13.2096c-1.2288,1.2288 -26.7264,8.9088 -29.6448,8.9088c-1.6896,0 -15.6672,-22.1184 -14.2848,-22.5792c0.768,-0.3072 5.8368,-2.9184 11.3664,-5.8368c5.5296,-2.7648 10.4448,-5.2224 10.9056,-5.2224c0.6144,-0.1536 5.9904,5.0688 12.1344,11.52z" fill="#ee82ee"/><path d="M369.408,507.80035c4.7616,0.6144 8.9088,1.6896 9.3696,2.4576c0.4608,0.768 -0.9216,5.2224 -3.2256,9.8304c-12.4416,25.344 -36.7104,20.736 -36.7104,-7.0656c0,-13.9776 0.3072,-14.2848 12.1344,-9.984c5.5296,2.1504 13.824,4.3008 18.432,4.7616z" fill="#ffa500"/><path d="M429.312,512.71555c-0.1536,12.1344 -3.2256,19.0464 -10.1376,22.5792c-6.2976,3.3792 -12.5952,1.6896 -19.3536,-5.0688c-5.8368,-5.8368 -11.9808,-17.8176 -10.4448,-20.2752c0.4608,-0.9216 3.5328,-1.536 6.6048,-1.536c3.072,0 11.2128,-1.9968 17.9712,-4.4544c7.3728,-2.6112 12.9024,-3.6864 13.824,-2.9184c0.9216,0.768 1.536,5.9904 1.536,11.6736z" fill="#ffa500"/><path d="M339.3024,539.59555l5.6832,5.0688l-3.3792,9.8304c-9.216,27.0336 -5.0688,56.832 12.7488,95.232c7.9872,17.2032 27.0336,47.4624 29.952,47.616c2.1504,0 21.3504,-30.72 28.7232,-46.08c18.7392,-39.4752 22.8864,-68.6592 13.824,-96l-3.6864,-10.752l5.8368,-5.2224c3.6864,-3.3792 6.4512,-7.68 7.8336,-12.288l1.9968,-7.0656l2.6112,6.144c9.0624,21.3504 14.1312,50.5344 12.5952,72.96c-2.4576,35.4816 -13.6704,65.8944 -37.4784,101.5296c-11.0592,16.4352 -30.1056,39.7824 -32.4096,39.7824c-1.536,0 -13.2096,-13.3632 -23.6544,-27.1872c-32.4096,-42.5472 -49.152,-90.1632 -46.3872,-131.4816c0.9216,-15.6672 5.6832,-36.7104 11.52,-52.3776l3.5328,-9.216l2.304,7.2192c1.3824,4.4544 4.4544,9.216 7.8336,12.288z" fill="#e1ff00"/><path d="M406.5792,545.27875c7.68,1.9968 9.984,5.5296 13.5168,20.2752c2.9184,12.5952 2.9184,24.576 -0.1536,39.3216c-3.9936,19.5072 -18.432,52.0704 -31.7952,71.7312l-3.84,5.6832l-4.9152,-6.6048c-7.0656,-9.6768 -23.6544,-44.3904 -28.416,-59.7504c-6.912,-21.3504 -5.8368,-50.8416 2.1504,-65.8944c0.9216,-1.6896 4.4544,-3.84 7.9872,-4.7616c6.6048,-1.8432 19.0464,-12.1344 20.5824,-17.0496c0.768,-2.4576 2.1504,-1.6896 9.6768,6.144c6.4512,6.6048 10.4448,9.5232 15.2064,10.9056z" fill="#008000"/><path d="M308.4288,553.72675c-2.1504,8.9088 -3.072,18.432 -3.3792,34.7136c-0.1536,12.288 -0.9216,23.1936 -1.536,24.1152c-1.9968,3.2256 -27.648,20.736 -40.3968,27.4944l-12.4416,6.7584l-1.2288,-8.9088c-1.0752,-8.448 1.536,-52.992 3.2256,-55.7568c0.4608,-0.768 4.608,-3.072 9.0624,-5.0688c11.3664,-5.2224 29.7984,-17.8176 40.3968,-27.8016c4.9152,-4.608 9.0624,-8.1408 9.216,-8.1408c0.1536,0.1536 -1.2288,5.8368 -2.9184,12.5952z" fill="#0000ff"/><path d="M491.52,568.31875c5.5296,3.072 13.056,7.3728 16.896,9.3696c5.8368,3.2256 7.0656,4.608 7.9872,9.8304c1.8432,9.984 3.3792,47.3088 2.1504,53.4528l-1.0752,5.6832l-8.7552,-4.4544c-9.216,-4.7616 -33.4848,-20.4288 -40.704,-26.5728l-4.4544,-3.6864l-0.4608,-23.6544c-0.3072,-17.3568 -1.2288,-27.0336 -3.3792,-35.4816l-3.072,-11.6736l12.4416,10.5984c6.7584,5.8368 16.896,13.3632 22.4256,16.5888z" fill="#0000ff"/><path d="M242.0736,592.43395c-2.9184,21.6576 -2.304,62.6688 1.2288,66.048c2.304,2.4576 37.7856,-16.5888 54.2208,-28.8768l9.6768,-7.3728l1.536,6.4512c0.9216,3.5328 2.7648,9.5232 3.84,13.2096c1.2288,3.84 2.304,7.3728 2.304,7.9872c0,2.1504 -27.9552,19.968 -43.008,27.4944c-13.6704,6.7584 -38.8608,16.896 -47.7696,19.2c-3.84,0.9216 -3.9936,0.768 -6.4512,-13.3632c-4.608,-27.0336 -6.144,-45.9264 -5.0688,-67.2768c0.4608,-11.3664 1.6896,-21.3504 2.4576,-22.1184c1.3824,-1.3824 21.504,-7.68 26.7264,-8.448c0.768,0 0.9216,3.072 0.3072,7.0656z" fill="#ffffff"/><path d="M542.6688,589.51555c8.7552,2.1504 10.5984,3.2256 11.52,6.4512c0.6144,2.1504 1.0752,16.896 0.9216,33.024c0,23.1936 -0.768,33.1776 -3.5328,48.384c-1.8432,10.4448 -3.6864,19.3536 -3.9936,19.8144c-0.4608,0.3072 -8.1408,-1.9968 -17.2032,-5.376c-19.5072,-6.912 -46.2336,-20.1216 -61.2864,-30.2592c-17.5104,-11.9808 -16.2816,-9.8304 -13.056,-21.1968c1.6896,-5.376 3.3792,-11.6736 3.84,-13.9776l0.9216,-4.1472l12.7488,9.216c6.912,4.9152 21.0432,13.3632 31.488,18.7392c15.36,7.68 19.0464,9.0624 20.1216,7.3728c3.5328,-5.5296 3.84,-55.4496 0.6144,-69.12c-0.768,-3.3792 -0.4608,-3.5328 2.7648,-2.6112c1.9968,0.6144 8.448,2.304 14.1312,3.6864z" fill="#e1ff00"/><path d="M167.1168,596.73475c0.3072,0.1536 -0.9216,5.8368 -2.7648,12.4416c-1.6896,6.7584 -3.5328,16.4352 -4.1472,21.504l-0.9216,9.5232l12.4416,-1.9968c6.7584,-1.0752 16.2816,-3.2256 21.0432,-4.608c4.9152,-1.3824 9.0624,-2.304 9.216,-1.9968c0.3072,0.3072 1.0752,7.2192 1.6896,15.36l0.9216,14.8992l-6.6048,1.6896c-22.1184,6.144 -70.5024,12.9024 -72.96,10.2912c-2.6112,-2.6112 4.7616,-54.8352 10.4448,-73.728l1.8432,-5.8368l14.592,0.9216c8.1408,0.6144 14.8992,1.2288 15.2064,1.536z" fill="#ffffff"/><path d="M204.288,598.88515c0,2.304 -0.4608,8.448 -0.9216,13.5168l-1.0752,9.3696l-15.5136,3.6864l-15.5136,3.84l-0.4608,-3.2256c-0.1536,-1.8432 1.2288,-9.0624 3.072,-16.2816l3.5328,-13.056l8.448,-0.9216c18.1248,-1.8432 18.432,-1.8432 18.432,3.072z" fill="#ffffff"/><path d="M581.6832,595.35235l9.216,0.9216l3.2256,12.7488c4.1472,15.6672 4.3008,19.2 0.6144,19.2c-3.6864,0 -26.88,-6.144 -28.2624,-7.3728c-0.4608,-0.6144 -1.3824,-6.7584 -1.9968,-13.824l-1.0752,-12.5952h4.608c2.4576,0 8.6016,0.4608 13.6704,0.9216z" fill="#ffffff"/><path d="M632.6784,600.11395c5.9904,22.1184 10.752,52.3776 10.9056,67.1232v7.5264l-13.3632,-1.0752c-16.2816,-1.3824 -45.4656,-6.144 -57.7536,-9.6768l-8.9088,-2.4576l1.0752,-14.7456c0.6144,-8.1408 1.2288,-14.8992 1.3824,-15.2064c0.1536,-0.1536 5.6832,1.0752 12.1344,2.7648c6.6048,1.6896 16.2816,3.5328 21.6576,3.9936l9.6768,1.0752l-2.1504,-12.9024c-1.0752,-7.0656 -3.072,-16.4352 -4.4544,-20.5824c-1.2288,-4.3008 -2.304,-8.1408 -2.304,-8.7552c0,-1.0752 4.4544,-1.536 21.8112,-2.4576l8.7552,-0.4608z" fill="#ffffff"/><path d="M324.7104,672.30595l5.8368,11.8272l-11.6736,11.52c-7.9872,7.68 -12.288,10.9056 -13.3632,9.8304c-1.6896,-1.6896 -9.3696,-28.1088 -8.7552,-29.952c0.4608,-1.2288 19.8144,-14.7456 21.1968,-14.8992c0.4608,-0.1536 3.5328,5.2224 6.7584,11.6736z" fill="#ffffff"/><path d="M461.1072,667.54435c10.1376,6.7584 10.752,7.3728 9.8304,11.9808c-1.8432,9.216 -7.5264,27.0336 -8.6016,27.0336c-0.768,0 -6.4512,-4.9152 -12.7488,-10.752l-11.52,-10.752l5.5296,-12.288c3.2256,-6.7584 5.9904,-12.288 6.2976,-12.288c0.3072,0 5.376,3.2256 11.2128,7.0656z" fill="#ffffff"/><path d="M290.1504,689.20195c2.1504,9.6768 10.5984,32.7168 11.9808,32.7168c1.2288,0 23.6544,-19.0464 28.5696,-24.2688l4.4544,-4.608l8.2944,12.288c8.1408,11.9808 8.2944,12.288 5.6832,15.5136c-5.376,6.7584 -23.5008,22.5792 -38.8608,33.9456c-21.8112,16.2816 -20.8896,15.9744 -24.4224,9.0624c-10.9056,-21.6576 -27.9552,-69.5808 -25.0368,-70.8096c0.6144,-0.1536 6.6048,-3.072 13.3632,-6.2976c6.7584,-3.3792 12.5952,-6.144 13.056,-6.144c0.4608,-0.1536 1.6896,3.84 2.9184,8.6016z" fill="#ffffff"/><path d="M495.8208,687.35875c11.52,5.5296 12.4416,6.2976 11.6736,9.984c-2.6112,11.2128 -13.6704,41.6256 -20.4288,56.064l-7.68,16.2816l-9.6768,-6.4512c-14.4384,-9.6768 -34.7136,-26.112 -44.544,-36.2496l-8.9088,-8.9088l8.448,-12.5952l8.448,-12.5952l8.7552,8.6016c4.9152,4.7616 12.288,11.3664 16.4352,14.592l7.68,6.144l2.6112,-5.2224c1.3824,-2.7648 4.4544,-11.3664 6.7584,-18.8928c2.304,-7.68 4.4544,-14.7456 4.7616,-15.8208c0.3072,-1.2288 1.2288,-1.8432 1.8432,-1.536c0.6144,0.3072 6.912,3.2256 13.824,6.6048z" fill="#ffffff"/></g></g></g></g></g></g></g></g></g></svg>