<?xml version="1.0" standalone="no"?>
<!DOCTYPE svg PUBLIC "-//W3C//DTD SVG 20010904//EN"
 "http://www.w3.org/TR/2001/REC-SVG-20010904/DTD/svg10.dtd">
<svg version="1.0" xmlns="http://www.w3.org/2000/svg"
 width="144000.000000pt" height="144000.000000pt" viewBox="0 0 144000.000000 144000.000000"
 preserveAspectRatio="xMidYMid meet">
<metadata>
Created by potrace 1.14, written by Peter Selinger 2001-2017
</metadata>
<g transform="translate(0.000000,144000.000000) scale(28.800000,-28.800000)"
fill="#000000" stroke="none">
<path fill="#000000" stroke="none" d="M1790 4765 c-57 -118 -150 -369 -150
-407 0 -10 -2 -18 -5 -18 -3 0 -58 18 -122 40 -84 29 -119 37 -124 29 -4 -7
-12 -39 -18 -73 -33 -174 -31 -168 -54 -162 -34 10 -247 54 -292 60 -22 3 -93
9 -157 12 -98 6 -118 5 -119 -7 -6 -99 22 -337 56 -476 13 -54 21 -101 19
-105 -3 -5 -17 -8 -32 -8 -32 -1 -201 -35 -208 -43 -4 -4 42 -153 72 -231 3
-9 -20 -19 -78 -35 -154 -43 -468 -181 -468 -206 0 -31 190 -284 299 -398 l65
-68 -49 -42 c-28 -23 -70 -61 -95 -84 l-45 -43 50 -48 c28 -26 70 -64 94 -84
l44 -37 -73 -78 c-102 -109 -290 -363 -290 -391 0 -30 463 -222 535 -222 8 0
15 -2 15 -5 0 -3 -18 -58 -40 -122 -30 -85 -37 -119 -28 -124 6 -4 61 -17 121
-28 60 -11 111 -22 113 -24 2 -2 -5 -41 -16 -85 -35 -141 -78 -498 -60 -506 3
-2 59 1 125 5 138 10 278 31 383 60 40 10 78 17 83 14 5 -4 9 -18 9 -33 1 -32
35 -201 43 -208 4 -4 153 42 231 72 9 3 19 -20 35 -78 41 -148 180 -468 204
-468 32 0 289 193 400 299 l68 65 42 -49 c23 -28 61 -70 84 -95 l43 -45 48 50
c26 28 64 70 84 94 l37 44 67 -63 c120 -112 373 -300 404 -300 27 0 219 466
220 533 0 9 2 17 5 17 3 0 58 -18 122 -40 79 -28 119 -37 123 -29 4 6 15 54
25 107 24 137 23 135 48 127 120 -36 383 -75 505 -75 l68 0 -3 68 c-6 120 -34
319 -58 419 -13 54 -21 101 -17 104 4 3 55 14 113 24 59 9 112 21 119 25 10 6
-20 113 -66 234 -3 9 20 19 78 35 154 43 468 181 468 206 0 31 -190 284 -299
398 l-65 68 49 42 c28 23 70 61 95 84 l45 43 -55 53 c-30 29 -73 67 -94 84
l-39 32 73 78 c104 111 290 363 290 392 0 24 -308 158 -465 202 -44 13 -81 24
-83 25 -2 1 15 55 38 119 22 65 38 120 36 122 -7 7 -169 42 -196 43 -50 1 -53
10 -31 96 18 71 27 120 46 234 3 19 8 89 12 156 l6 120 -69 -3 c-122 -6 -320
-33 -421 -58 -54 -13 -99 -22 -101 -20 -2 2 -14 55 -26 119 -13 64 -25 119
-29 122 -4 4 -150 -41 -231 -72 -10 -4 -17 10 -26 48 -33 140 -187 498 -215
498 -15 0 -208 -134 -285 -198 -30 -25 -83 -73 -118 -106 l-62 -61 -43 50
c-23 28 -61 70 -84 95 l-43 45 -53 -55 c-29 -30 -67 -73 -84 -94 l-32 -39 -78
73 c-112 104 -363 290 -393 290 -5 0 -37 -56 -70 -125z"/>
<path fill="#ffffff" stroke="none" d="M2029 4707 c52 -38 132 -106 179 -151
l84 -81 -51 -74 c-27 -40 -52 -78 -53 -83 -2 -6 -31 16 -63 47 -33 32 -82 76
-110 98 l-50 39 -22 -48 c-12 -27 -33 -87 -46 -134 -14 -47 -29 -85 -33 -85
-5 0 -46 18 -91 39 -77 36 -82 41 -77 65 17 74 89 272 133 366 l50 106 28 -18
c15 -9 70 -48 122 -86z"/>
<path fill="#ffffff" stroke="none" d="M3144 4762 c45 -89 106 -244 136 -346
16 -55 28 -101 27 -102 -1 -1 -42 -20 -90 -42 -60 -28 -89 -37 -92 -29 -2 7
-12 39 -21 72 -19 69 -64 185 -71 185 -8 0 -155 -125 -187 -159 l-29 -30 -53
81 c-45 68 -51 83 -41 98 15 20 125 121 192 176 42 35 195 143 202 144 2 0 14
-22 27 -48z"/>
<path fill="#ffffff" stroke="none" d="M2558 4563 c293 -341 430 -699 393
-1027 -13 -112 -27 -170 -69 -281 l-26 -70 -9 39 c-6 23 -26 56 -51 81 l-41
43 24 69 c20 57 25 87 25 183 0 129 -12 185 -75 345 -53 136 -204 393 -231
395 -14 0 -139 -200 -187 -300 -122 -257 -149 -448 -89 -627 l23 -68 -38 -34
c-24 -21 -42 -50 -50 -79 l-13 -45 -21 49 c-58 139 -77 239 -77 414 0 125 4
159 27 248 44 167 105 298 215 463 72 107 196 259 211 259 5 0 31 -26 59 -57z"/>
<path fill="#ffffff" stroke="none" d="M2075 4328 l75 -73 -34 -66 c-18 -37
-36 -73 -38 -80 -4 -10 -25 -1 -77 35 -69 47 -73 51 -67 80 13 64 49 176 58
176 4 0 42 -33 83 -72z"/>
<path fill="#ffffff" stroke="none" d="M3049 4285 c11 -46 21 -86 21 -88 0 -6
-141 -100 -144 -96 -2 2 -20 37 -41 78 l-37 75 77 75 c91 89 91 89 124 -44z"/>
<path fill="#ffffff" stroke="none" d="M1610 4279 c199 -78 446 -226 434 -259
-3 -8 -15 -50 -26 -92 l-21 -77 -38 29 c-88 70 -280 180 -356 204 -19 6 -24 2
-30 -21 -10 -36 -10 -355 0 -412 7 -42 7 -43 -15 -37 -13 3 -54 15 -93 25
l-70 18 -8 64 c-12 97 0 359 23 492 11 65 20 121 20 124 0 9 52 -7 180 -58z"/>
<path fill="#ffffff" stroke="none" d="M3583 4248 c27 -153 40 -326 33 -443
-8 -155 -4 -147 -94 -169 -42 -9 -83 -20 -91 -23 -11 -5 -13 3 -7 43 19 141
15 408 -8 431 -15 16 -238 -103 -350 -187 -41 -31 -68 -45 -70 -37 -2 6 -11
41 -21 77 -10 36 -19 72 -22 81 -6 22 155 130 297 198 97 47 280 119 306 121
6 0 18 -42 27 -92z"/>
<path fill="#ffffff" stroke="none" d="M2547 4172 c57 -89 139 -268 169 -367
37 -126 39 -280 3 -374 -23 -61 -26 -64 -76 -83 -36 -13 -66 -34 -97 -69 l-45
-50 -53 55 c-40 41 -65 58 -100 67 -46 13 -47 14 -68 78 -44 133 -34 295 27
451 59 149 178 364 195 354 5 -3 25 -31 45 -62z"/>
<path fill="#ffffff" stroke="none" d="M1103 4159 c62 -11 138 -27 170 -36
l59 -16 -7 -96 c-4 -53 -8 -97 -10 -99 -1 -1 -49 9 -106 23 -57 14 -120 25
-140 25 l-36 0 9 -57 c5 -32 17 -94 28 -137 11 -44 19 -81 17 -82 -2 -2 -46
-6 -99 -10 l-96 -7 -11 39 c-37 139 -71 353 -71 448 l0 39 90 -7 c50 -4 141
-16 203 -27z"/>
<path fill="#ffffff" stroke="none" d="M4185 4098 c-8 -105 -38 -284 -62 -371
l-16 -59 -96 7 c-53 4 -97 9 -99 10 -2 1 6 38 17 82 11 43 23 105 27 137 l7
59 -64 -7 c-35 -3 -98 -15 -139 -26 -41 -10 -75 -18 -77 -16 -1 1 -6 46 -9 98
l-7 97 39 10 c140 37 330 68 433 70 l54 1 -8 -92z"/>
<path fill="#ffffff" stroke="none" d="M1836 3891 c49 -33 102 -71 118 -83
l28 -24 3 -154 c2 -114 8 -176 22 -232 l20 -77 -66 58 c-82 72 -177 137 -257
175 l-61 28 -10 87 c-12 104 -17 300 -8 324 6 15 13 13 64 -13 32 -15 98 -56
147 -89z"/>
<path fill="#ffffff" stroke="none" d="M3378 3875 c-1 -96 -12 -228 -22 -270
-3 -12 -25 -30 -53 -44 -80 -39 -204 -124 -272 -187 -37 -33 -61 -50 -57 -39
22 59 39 184 40 310 l2 140 87 66 c47 36 126 86 174 112 105 55 103 57 101
-88z"/>
<path fill="#ffffff" stroke="none" d="M3870 3779 c-12 -49 -25 -91 -29 -93
-3 -2 -44 -7 -90 -11 l-84 -7 7 88 c4 49 8 89 9 90 1 1 47 13 102 27 85 21
100 23 103 10 2 -8 -6 -55 -18 -104z"/>
<path fill="#ffffff" stroke="none" d="M1255 3862 l60 -18 9 -83 c4 -45 6 -85
3 -88 -3 -3 -43 -2 -89 2 l-84 7 -13 47 c-7 25 -19 72 -26 105 l-14 58 47 -6
c26 -3 74 -14 107 -24z"/>
<path fill="#ffffff" stroke="none" d="M1388 3595 c95 -18 232 -64 312 -105
114 -58 288 -206 357 -306 l22 -30 -50 10 c-39 8 -59 7 -91 -4 l-41 -15 -71
71 c-39 39 -100 87 -136 106 -74 41 -198 82 -280 93 -30 4 -64 9 -75 11 -91
19 -401 11 -422 -10 -9 -9 44 -124 103 -224 172 -290 351 -436 595 -486 22 -5
29 -14 38 -51 6 -24 25 -60 41 -79 17 -18 30 -36 30 -38 0 -7 -144 19 -209 38
-295 85 -551 316 -718 649 -45 88 -133 308 -133 331 0 11 131 38 265 53 107
13 368 5 463 -14z"/>
<path fill="#ffffff" stroke="none" d="M4215 3590 c66 -12 121 -23 124 -25 9
-9 -76 -226 -129 -331 -195 -384 -457 -604 -813 -679 -38 -8 -80 -15 -95 -15
l-26 0 27 28 c28 29 57 90 57 120 0 14 13 20 67 29 176 30 344 162 501 391 66
96 151 257 155 294 2 20 -3 24 -48 30 -72 9 -337 2 -425 -12 -193 -30 -318
-88 -432 -200 -74 -72 -78 -75 -105 -63 -34 15 -93 16 -127 3 -14 -5 -26 -6
-26 -1 0 20 194 212 262 258 137 95 297 160 448 182 41 6 86 13 100 15 63 11
371 -4 485 -24z"/>
<path fill="#ffffff" stroke="none" d="M1395 3356 c161 -27 288 -83 373 -165
75 -72 83 -88 69 -139 -9 -35 -8 -54 4 -100 9 -31 19 -65 24 -74 5 -13 3 -18
-8 -18 -56 0 -123 -25 -161 -60 -40 -37 -42 -38 -91 -30 -107 18 -211 70 -301
153 -94 86 -216 253 -288 396 l-26 50 28 5 c48 8 284 -3 377 -18z"/>
<path fill="#ffffff" stroke="none" d="M3997 3372 c16 -10 -47 -127 -137 -254
-122 -174 -265 -293 -399 -332 -85 -25 -118 -21 -161 18 -35 32 -105 56 -160
56 -18 0 -18 1 1 40 26 54 34 120 19 164 -11 35 -10 39 26 82 98 121 267 196
496 223 94 11 299 13 315 3z"/>
<path fill="#ffffff" stroke="none" d="M768 3126 c-2 -1 -28 -8 -58 -15 -62
-15 -210 -70 -210 -78 0 -8 124 -154 159 -187 l31 -30 -81 -53 -81 -53 -24 19
c-41 32 -143 150 -220 253 -111 149 -110 132 -2 182 125 57 226 96 323 122
l80 21 43 -89 c24 -50 42 -91 40 -92z"/>
<path fill="#ffffff" stroke="none" d="M4482 3260 c64 -21 164 -61 223 -89
l106 -50 -42 -63 c-63 -95 -170 -226 -237 -291 l-59 -58 -80 55 -81 56 55 58
c31 31 74 79 96 107 l39 50 -48 22 c-27 12 -87 33 -134 46 -47 14 -85 29 -85
33 0 5 18 46 40 91 45 96 25 92 207 33z"/>
<path fill="#ffffff" stroke="none" d="M2355 3284 c50 -24 127 -137 111 -163
-3 -5 -30 -11 -60 -15 -31 -3 -86 -17 -123 -31 -37 -13 -69 -22 -72 -19 -3 3
-5 37 -5 77 -1 86 20 132 67 152 41 18 43 18 82 -1z"/>
<path fill="#ffffff" stroke="none" d="M2724 3286 c46 -19 71 -74 70 -154 0
-35 -5 -67 -10 -72 -6 -6 -32 0 -69 15 -33 13 -86 27 -118 31 -31 4 -60 10
-63 15 -7 11 22 77 51 114 21 28 76 64 98 65 4 0 22 -6 41 -14z"/>
<path fill="#ffffff" stroke="none" d="M2052 3095 c24 -9 60 -29 79 -45 l34
-29 -40 -33 c-51 -42 -72 -63 -112 -112 -37 -45 -47 -42 -88 28 -49 85 -41
166 19 192 40 17 53 17 108 -1z"/>
<path fill="#ffffff" stroke="none" d="M3060 3095 c39 -20 56 -75 41 -131 -11
-40 -64 -124 -79 -124 -4 0 -25 22 -46 49 -21 27 -60 66 -87 87 -27 21 -49 42
-49 46 0 13 69 60 107 74 50 17 78 17 113 -1z"/>
<path fill="#ffffff" stroke="none" d="M854 2999 c26 -39 46 -72 44 -74 -2 -1
-37 -19 -78 -39 l-74 -38 -75 77 c-54 55 -71 79 -63 87 10 10 159 55 188 57 6
1 32 -31 58 -70z"/>
<path fill="#ffffff" stroke="none" d="M4328 3038 c39 -11 72 -24 72 -29 0 -4
-33 -41 -72 -83 l-73 -76 -77 38 c-43 20 -78 40 -78 44 0 4 21 37 48 73 53 75
44 73 180 33z"/>
<path fill="#ffffff" stroke="none" d="M2644 3034 c204 -51 365 -229 402 -447
13 -77 13 -97 0 -174 -21 -122 -70 -218 -155 -302 -111 -111 -235 -163 -389
-162 -158 0 -282 51 -392 161 -109 109 -162 236 -163 389 0 153 53 281 164
392 140 141 335 193 533 143z"/>
<path fill="#ffffff" stroke="none" d="M955 2685 c-130 -65 -295 -170 -295
-188 0 -14 206 -141 308 -190 l112 -53 -68 -67 -68 -67 -99 48 c-55 27 -147
81 -205 120 -108 72 -260 196 -260 211 0 10 87 86 177 154 88 67 215 145 308
187 l79 37 66 -66 65 -66 -120 -60z"/>
<path fill="#ffffff" stroke="none" d="M4177 2821 c144 -72 443 -289 443 -321
0 -12 -119 -112 -217 -182 -91 -65 -215 -137 -293 -171 l-55 -24 -66 68 -66
67 81 37 c125 56 335 185 336 207 0 15 -213 147 -314 193 l-106 49 66 67 c76
76 61 76 191 10z"/>
<path fill="#ffffff" stroke="none" d="M1941 2784 c4 -2 -3 -34 -16 -69 -14
-36 -28 -90 -31 -120 -4 -31 -11 -58 -16 -61 -16 -10 -117 46 -142 79 -62 81
-39 135 74 181 16 6 117 -1 131 -10z"/>
<path fill="#ffffff" stroke="none" d="M3239 2776 c17 -9 38 -30 47 -47 14
-29 14 -35 -1 -74 -9 -25 -31 -55 -51 -70 -40 -30 -101 -58 -113 -51 -5 3 -11
30 -15 61 -3 30 -17 84 -31 120 -18 48 -21 67 -12 70 7 2 19 6 27 9 26 10 116
-2 149 -18z"/>
<path fill="#ffffff" stroke="none" d="M1308 2591 c34 -17 101 -44 148 -60 47
-16 87 -31 90 -34 3 -2 -12 -8 -33 -12 -65 -12 -209 -75 -296 -129 l-84 -53
-54 22 c-75 30 -203 97 -268 138 l-53 34 33 25 c50 37 141 87 247 134 l95 43
56 -38 c31 -21 84 -52 119 -70z"/>
<path fill="#ffffff" stroke="none" d="M4037 2624 c39 -20 102 -55 138 -78
l67 -43 -33 -25 c-49 -37 -136 -84 -246 -134 l-96 -43 -60 41 c-73 50 -201
110 -284 135 -35 10 -63 21 -63 24 0 4 20 12 43 18 74 18 209 79 287 130 l75
48 50 -19 c28 -11 82 -35 122 -54z"/>
<path fill="#ffffff" stroke="none" d="M1892 2409 c4 -30 18 -85 31 -122 29
-80 28 -82 -68 -81 -76 0 -121 23 -142 71 -13 33 -13 40 3 75 9 21 32 49 50
63 39 30 94 56 109 51 6 -1 13 -27 17 -57z"/>
<path fill="#ffffff" stroke="none" d="M3207 2434 c72 -42 103 -101 80 -157
-20 -47 -74 -71 -155 -71 -34 0 -67 5 -72 10 -6 6 -1 31 15 69 13 33 27 85 31
115 3 30 9 59 11 63 6 11 39 0 90 -29z"/>
<path fill="#ffffff" stroke="none" d="M1692 2425 c-27 -30 -52 -88 -52 -121
0 -6 -21 -14 -48 -17 -161 -19 -344 -149 -484 -344 -121 -168 -212 -343 -189
-366 9 -9 69 -12 214 -11 164 0 221 5 304 22 180 37 294 95 397 202 62 63 64
65 92 53 35 -15 94 -16 129 -3 24 9 25 8 14 -12 -6 -12 -49 -61 -96 -109 -131
-136 -267 -222 -441 -278 -138 -45 -220 -56 -417 -56 -166 1 -242 8 -398 37
-70 13 -70 2 4 188 142 357 351 611 608 739 112 56 282 108 360 110 l33 1 -30
-35z"/>
<path fill="#ffffff" stroke="none" d="M3446 2435 c125 -31 299 -116 396 -193
152 -121 283 -294 382 -503 51 -109 116 -274 116 -296 0 -10 -137 -37 -270
-53 -110 -13 -361 -5 -458 14 -169 34 -323 101 -452 196 -67 49 -179 161 -217
216 l-22 30 50 -10 c39 -8 59 -7 92 5 l42 14 44 -48 c111 -122 240 -186 446
-222 147 -26 466 -28 491 -2 21 21 -120 271 -235 415 -137 172 -268 256 -462
296 -22 5 -29 14 -38 51 -6 24 -25 60 -42 80 l-31 35 35 0 c19 0 79 -11 133
-25z"/>
<path fill="#ffffff" stroke="none" d="M630 2221 c30 -19 56 -36 58 -37 1 -1
-23 -28 -54 -60 -81 -84 -136 -156 -127 -165 10 -10 216 -79 236 -79 29 0 26
-16 -15 -103 -39 -80 -44 -86 -68 -81 -73 17 -271 89 -365 133 l-106 50 42 63
c71 106 130 179 213 266 l79 82 26 -17 c14 -9 51 -32 81 -52z"/>
<path fill="#ffffff" stroke="none" d="M4545 2223 c61 -63 229 -275 255 -322
9 -18 6 -23 -27 -40 -91 -46 -246 -107 -347 -137 l-110 -32 -44 90 c-24 49
-42 91 -40 92 2 1 28 8 58 15 62 15 210 70 210 78 0 8 -124 154 -159 187 l-30
29 77 52 c42 29 80 53 84 54 3 0 36 -29 73 -66z"/>
<path fill="#ffffff" stroke="none" d="M1690 2205 c35 -36 107 -65 162 -65
l28 0 -20 -40 c-27 -53 -35 -119 -20 -164 12 -36 11 -39 -28 -84 -84 -100
-233 -177 -398 -206 -101 -19 -357 -32 -398 -22 l-27 7 36 67 c91 167 219 333
313 407 87 69 201 118 313 134 3 1 20 -15 39 -34z"/>
<path fill="#ffffff" stroke="none" d="M3475 2209 c81 -26 150 -67 219 -130
96 -88 218 -254 290 -398 l26 -50 -47 -7 c-58 -9 -244 2 -360 21 -158 26 -286
82 -371 164 -74 71 -84 89 -70 133 13 43 4 112 -21 161 l-18 36 50 6 c67 10
106 27 141 64 34 35 52 35 161 0z"/>
<path fill="#ffffff" stroke="none" d="M2024 2111 c22 -27 61 -66 88 -87 27
-20 47 -42 45 -48 -7 -22 -99 -75 -141 -81 -122 -19 -163 103 -76 223 17 23
34 42 38 42 4 0 25 -22 46 -49z"/>
<path fill="#ffffff" stroke="none" d="M3067 2107 c110 -163 -24 -284 -185
-167 -23 17 -42 34 -42 38 0 4 22 25 49 46 27 21 66 61 87 87 21 27 43 48 49
46 5 -2 24 -24 42 -50z"/>
<path fill="#ffffff" stroke="none" d="M825 2111 c39 -18 72 -35 74 -37 2 -2
-18 -35 -44 -75 -45 -68 -48 -71 -78 -65 -61 12 -177 49 -177 56 0 12 142 161
149 157 3 -2 38 -18 76 -36z"/>
<path fill="#ffffff" stroke="none" d="M4330 2074 c45 -48 68 -80 62 -86 -8
-8 -174 -58 -193 -58 -11 0 -102 144 -93 147 5 2 38 19 74 38 36 18 68 34 71
34 4 1 39 -33 79 -75z"/>
<path fill="#ffffff" stroke="none" d="M2405 1894 c31 -4 58 -11 61 -16 3 -5
-6 -34 -21 -64 -81 -165 -239 -135 -239 46 0 91 2 93 79 65 36 -14 90 -28 120
-31z"/>
<path fill="#ffffff" stroke="none" d="M2795 1862 c-1 -79 -21 -124 -66 -147
-41 -22 -82 -11 -126 33 -38 38 -78 116 -68 132 3 6 23 10 43 10 20 0 73 13
117 29 48 17 84 24 90 19 6 -5 10 -39 10 -76z"/>
<path fill="#ffffff" stroke="none" d="M2209 1687 l37 -33 -22 -64 c-60 -176
-33 -370 83 -620 52 -112 176 -309 195 -310 14 0 139 200 187 300 122 257 149
447 90 625 l-24 70 38 34 c24 22 42 50 51 80 l13 46 17 -40 c59 -139 92 -329
82 -475 -16 -231 -89 -429 -244 -661 -72 -107 -196 -259 -211 -259 -10 0 -86
87 -154 177 -211 277 -320 587 -302 856 6 102 37 239 75 341 l23 60 15 -47 c9
-29 29 -60 51 -80z"/>
<path fill="#ffffff" stroke="none" d="M2647 1650 c50 -13 65 -36 88 -132 19
-82 19 -160 -1 -256 -26 -127 -120 -339 -207 -467 l-25 -37 -32 43 c-46 63
-154 289 -185 389 -45 139 -38 331 14 429 6 11 29 25 52 31 43 12 124 79 134
111 5 16 14 11 63 -40 42 -43 68 -62 99 -71z"/>
<path fill="#ffffff" stroke="none" d="M2008 1595 c-14 -58 -20 -120 -22 -226
-1 -80 -6 -151 -10 -157 -13 -21 -180 -135 -263 -179 l-81 -44 -8 58 c-7 55
10 345 21 363 3 5 30 20 59 33 74 34 194 116 263 181 32 30 59 53 60 53 1 -1
-8 -38 -19 -82z"/>
<path fill="#ffffff" stroke="none" d="M3200 1500 c36 -20 85 -48 110 -61 38
-21 46 -30 52 -64 12 -65 22 -308 14 -348 l-7 -37 -57 29 c-60 31 -218 133
-265 173 l-29 24 -3 154 c-2 113 -8 176 -22 231 l-20 76 81 -69 c44 -38 110
-87 146 -108z"/>
<path fill="#ffffff" stroke="none" d="M1576 1343 c-19 -141 -15 -408 8 -430
15 -16 246 108 353 188 l63 48 10 -42 c6 -23 18 -62 25 -86 8 -25 15 -48 15
-52 0 -14 -182 -130 -280 -179 -89 -44 -253 -110 -311 -125 -25 -6 -26 -5 -42
87 -30 176 -40 299 -33 438 3 74 11 139 16 144 9 9 140 50 174 55 5 0 6 -20 2
-46z"/>
<path fill="#ffffff" stroke="none" d="M3533 1362 c57 -14 69 -21 75 -42 4
-14 7 -110 6 -215 0 -151 -5 -216 -23 -315 -12 -68 -24 -126 -26 -129 -3 -2
-53 13 -112 35 -127 45 -301 131 -399 197 -114 78 -106 64 -85 138 11 35 22
76 25 91 l6 27 83 -60 c45 -32 137 -87 205 -122 100 -50 124 -59 131 -48 23
36 25 361 4 450 -5 22 -3 23 18 17 13 -4 55 -15 92 -24z"/>
<path fill="#ffffff" stroke="none" d="M1088 1315 c2 -1 -6 -38 -18 -81 -11
-44 -23 -107 -27 -140 l-6 -62 81 13 c44 7 106 21 137 30 32 9 59 15 60 13 2
-2 7 -47 11 -100 l6 -97 -43 -11 c-144 -40 -459 -84 -475 -67 -17 17 31 357
68 480 l12 38 95 -6 c53 -4 97 -8 99 -10z"/>
<path fill="#ffffff" stroke="none" d="M1330 1301 c0 -15 -3 -55 -6 -88 l-7
-61 -101 -24 -101 -25 -3 21 c-1 12 8 59 20 106 l23 85 55 6 c118 12 120 12
120 -20z"/>
<path fill="#ffffff" stroke="none" d="M3787 1324 l60 -6 21 -83 c27 -102 28
-125 4 -125 -24 0 -175 40 -184 48 -3 4 -9 44 -13 90 l-7 82 30 0 c16 0 56 -3
89 -6z"/>
<path fill="#ffffff" stroke="none" d="M4119 1293 c39 -144 70 -341 71 -437
l0 -49 -87 7 c-106 9 -296 40 -376 63 l-58 16 7 96 c4 53 8 97 9 99 1 1 37 -7
79 -18 43 -11 106 -23 141 -26 l63 -7 -14 84 c-7 46 -20 107 -29 134 -8 28
-15 53 -15 57 0 7 29 10 142 16 l57 3 10 -38z"/>
<path fill="#ffffff" stroke="none" d="M2114 823 l38 -77 -76 -75 c-52 -50
-80 -71 -87 -64 -11 11 -61 183 -57 195 3 8 129 96 138 97 3 1 23 -34 44 -76z"/>
<path fill="#ffffff" stroke="none" d="M3002 854 c66 -44 70 -48 64 -78 -12
-60 -49 -176 -56 -176 -5 0 -42 32 -83 70 l-75 70 36 80 c21 44 39 80 41 80 2
0 35 -21 73 -46z"/>
<path fill="#ffffff" stroke="none" d="M1889 713 c14 -63 69 -213 78 -213 8 0
154 124 186 158 l29 30 54 -80 c53 -78 54 -80 37 -101 -35 -44 -153 -147 -253
-221 -142 -106 -136 -104 -159 -59 -71 141 -182 453 -163 461 4 1 43 20 87 41
44 22 82 40 85 40 3 1 11 -25 19 -56z"/>
<path fill="#ffffff" stroke="none" d="M3228 725 c75 -36 81 -41 76 -65 -17
-73 -89 -271 -133 -365 l-50 -106 -63 42 c-94 63 -226 170 -290 236 l-58 58
55 82 55 82 57 -56 c32 -31 80 -74 107 -95 l50 -40 17 34 c9 18 29 74 44 123
15 50 29 96 31 103 2 8 8 12 12 10 4 -2 45 -21 90 -43z"/>
</g>
</svg>
