<svg version="1.1" xmlns="http://www.w3.org/2000/svg" xmlns:xlink="http://www.w3.org/1999/xlink" width="768" height="829.4375"><defs><clipPath id="clip-1"><rect x="0" y="19.99919" transform="scale(1.536,1.536)" width="500" height="500" id="clip-1" fill="none"/></clipPath></defs><g fill="none" fill-rule="nonzero" stroke="none" stroke-width="1" stroke-linecap="butt" stroke-linejoin="miter" stroke-miterlimit="10" stroke-dasharray="" stroke-dashoffset="0" font-family="none" font-weight="none" font-size="none" text-anchor="none" style="mix-blend-mode: normal"><g><g><g><g><g><g><g><g><g><g><g><g><g><g><g><g><g><g><g><g><g clip-path="url(#clip-1)"><g><path d="M274.94807,66.81494c-8.75526,18.12492 -23.04014,56.67878 -23.04014,62.51561c0,1.536 -0.3072,2.76482 -0.76802,2.76482c-0.4608,0 -8.90886,-2.76482 -18.73932,-6.14404c-12.90249,-4.45442 -18.27852,-5.68324 -19.04652,-4.45442c-0.6144,1.07521 -1.8432,5.99043 -2.76482,11.21287c-5.06884,26.72658 -4.76162,25.80496 -8.29445,24.88337c-5.22244,-1.536 -37.93946,-8.29445 -44.85149,-9.21607c-3.37923,-0.4608 -14.2849,-1.3824 -24.11536,-1.8432c-15.0529,-0.92161 -18.12492,-0.76802 -18.27852,1.07521c-0.92161,15.20651 3.37923,51.76354 8.60165,73.11408c1.9968,8.29445 3.22562,15.5137 2.91842,16.1281c-0.4608,0.76802 -2.61122,1.22881 -4.91523,1.22881c-4.91523,0.1536 -30.8738,5.37604 -31.94901,6.60485c-0.6144,0.6144 6.45125,23.50095 11.05927,35.48184c0.4608,1.3824 -3.07202,2.91842 -11.98089,5.37604c-23.65456,6.60485 -71.88527,27.80179 -71.88527,31.64181c0,4.76162 29.18419,43.62269 45.92671,61.1332l9.98407,10.44487l-7.52645,6.45125c-4.30082,3.53283 -10.75207,9.36967 -14.5921,12.90249l-6.91204,6.60485l7.68005,7.37285c4.30082,3.99363 10.75207,9.83046 14.4385,12.90249l6.75844,5.68324l-11.21287,11.98089c-15.6673,16.74252 -44.54428,55.75716 -44.54428,60.05799c0,4.60802 71.11727,34.09943 82.17654,34.09943c1.22881,0 2.30402,0.3072 2.30402,0.76802c0,0.4608 -2.76482,8.90886 -6.14404,18.73932c-4.60802,13.05608 -5.68324,18.27852 -4.30082,19.04652c0.92161,0.6144 9.36967,2.61122 18.58572,4.30082c9.21607,1.6896 17.04972,3.37923 17.35692,3.68643c0.3072,0.3072 -0.76802,6.29764 -2.45762,13.05608c-5.37604,21.65774 -11.98089,76.49331 -9.21607,77.72212c0.4608,0.3072 9.06246,-0.1536 19.20014,-0.76802c21.19694,-1.536 42.70108,-4.76162 58.82918,-9.21607c6.14404,-1.536 11.98089,-2.61122 12.74889,-2.1504c0.76802,0.6144 1.3824,2.76482 1.3824,5.06884c0.1536,4.91523 5.37604,30.8738 6.60485,31.94901c0.6144,0.6144 23.50095,-6.45125 35.48184,-11.05927c1.3824,-0.4608 2.91842,3.07202 5.37604,11.98089c6.29764,22.73295 27.64818,71.88527 31.33461,71.88527c4.91523,0 44.39068,-29.64499 61.4404,-45.92671l10.44487,-9.98407l6.45125,7.52645c3.53283,4.30082 9.36967,10.75207 12.90249,14.5921l6.60485,6.91204l7.37285,-7.68005c3.99363,-4.30082 9.83046,-10.75207 12.90249,-14.4385l5.68324,-6.75844l10.29127,9.67686c18.43212,17.20332 57.29318,46.0803 62.05482,46.0803c4.14722,0 33.63862,-71.57807 33.79223,-81.86933c0,-1.3824 0.3072,-2.61122 0.76802,-2.61122c0.4608,0 8.90886,2.76482 18.73932,6.14404c12.13447,4.30082 18.27852,5.68324 18.89292,4.45442c0.6144,-0.92161 2.30402,-8.29445 3.84003,-16.43531c3.68643,-21.04334 3.53283,-20.73614 7.37285,-19.50734c18.43212,5.52964 58.82918,11.52008 77.5685,11.52008h10.44487l-0.4608,-10.44487c-0.92161,-18.43212 -5.22244,-48.99872 -8.90886,-64.35883c-1.9968,-8.29445 -3.22562,-15.5137 -2.61122,-15.9745c0.6144,-0.4608 8.44805,-2.1504 17.35692,-3.68643c9.06246,-1.3824 17.20332,-3.22562 18.27852,-3.84003c1.536,-0.92161 -3.07202,-17.35692 -10.13767,-35.94264c-0.4608,-1.3824 3.07202,-2.91842 11.98089,-5.37604c23.65456,-6.60485 71.88527,-27.80179 71.88527,-31.64181c0,-4.76162 -29.18419,-43.62269 -45.92671,-61.1332l-9.98407,-10.44487l7.52645,-6.45125c4.30082,-3.53283 10.75207,-9.36967 14.5921,-12.90249l6.91204,-6.60485l-8.44805,-8.14085c-4.60802,-4.45442 -11.21287,-10.29127 -14.4385,-12.90249l-5.99043,-4.91523l11.21287,-11.98089c15.9745,-17.04972 44.54428,-55.75716 44.54428,-60.21159c0,-3.68643 -47.30911,-24.26896 -71.42447,-31.0274c-6.75844,-1.9968 -12.44168,-3.68643 -12.74889,-3.84003c-0.3072,-0.1536 2.30402,-8.44805 5.83685,-18.27852c3.37923,-9.98407 5.83685,-18.43212 5.52964,-18.73932c-1.07521,-1.07521 -25.95856,-6.45125 -30.1058,-6.60485c-7.68005,-0.1536 -8.14085,-1.536 -4.76162,-14.74569c2.76482,-10.90567 4.14722,-18.43212 7.06564,-35.94264c0.4608,-2.91842 1.22881,-13.67049 1.8432,-23.96176l0.92161,-18.43212l-10.59847,0.4608c-18.73932,0.92161 -49.15233,5.06884 -64.66603,8.90886c-8.29445,1.9968 -15.20651,3.37923 -15.5137,3.07202c-0.3072,-0.3072 -2.1504,-8.44805 -3.99363,-18.27852c-1.9968,-9.83046 -3.84003,-18.27852 -4.45442,-18.73932c-0.6144,-0.6144 -23.04014,6.29764 -35.48184,11.05927c-1.536,0.6144 -2.61122,-1.536 -3.99363,-7.37285c-5.06884,-21.50414 -28.72339,-76.49331 -33.02422,-76.49331c-2.30402,0 -31.94901,20.58252 -43.77629,30.413c-4.60802,3.84003 -12.74889,11.21287 -18.12492,16.2817l-9.52326,9.36967l-6.60485,-7.68005c-3.53283,-4.30082 -9.36967,-10.75207 -12.90249,-14.5921l-6.60485,-6.91204l-8.14085,8.44805c-4.45442,4.60802 -10.29127,11.21287 -12.90249,14.4385l-4.91523,5.99043l-11.98089,-11.21287c-17.20332,-15.9745 -55.75716,-44.54428 -60.36518,-44.54428c-0.76802,0 -5.68324,8.60165 -10.75207,19.20014z" fill="#000000"/><path d="M311.6587,75.72382c7.98726,5.83685 20.27532,16.2817 27.49458,23.19374l12.90249,12.44168l-7.83365,11.36648c-4.14722,6.14404 -7.98726,11.98089 -8.14085,12.74889c-0.3072,0.92161 -4.76162,-2.45762 -9.67686,-7.21924c-5.06884,-4.91523 -12.59529,-11.67368 -16.89612,-15.0529l-7.68005,-5.99043l-3.37923,7.37285c-1.8432,4.14722 -5.06884,13.36328 -7.06564,20.58252c-2.1504,7.21924 -4.45442,13.05608 -5.06884,13.05608c-0.76802,0 -7.06564,-2.76482 -13.9777,-5.99043c-11.82728,-5.52964 -12.59529,-6.29764 -11.82728,-9.98407c2.61122,-11.36648 13.67049,-41.77946 20.42892,-56.21796l7.68005,-16.2817l4.30082,2.76482c2.30402,1.3824 10.75207,7.37285 18.73932,13.20968z" fill="#ffffff"/><path d="M482.92383,67.27575c6.91204,13.67049 16.2817,37.47864 20.88974,53.14594c2.45762,8.44805 4.30082,15.5137 4.14722,15.6673c-0.1536,0.1536 -6.45125,3.07202 -13.82409,6.45125c-9.21607,4.30082 -13.67049,5.68324 -14.1313,4.45442c-0.3072,-1.07521 -1.8432,-5.99043 -3.22562,-11.05927c-2.91842,-10.59847 -9.83046,-28.41618 -10.90567,-28.41618c-1.22881,0 -23.80816,19.20014 -28.72339,24.42256l-4.45442,4.60802l-8.14085,-12.44168c-6.91204,-10.44487 -7.83365,-12.74889 -6.29764,-15.0529c2.30402,-3.07202 19.20014,-18.58572 29.49139,-27.03377c6.45125,-5.37604 29.9522,-21.96495 31.0274,-22.11855c0.3072,0 2.1504,3.37923 4.14722,7.37285z" fill="#ffffff"/><path d="M392.91365,97.84234c45.0051,52.37794 66.04843,107.3671 60.36518,157.74824c-1.9968,17.20332 -4.14722,26.11217 -10.59847,43.16189l-3.99363,10.75207l-1.3824,-5.99043c-0.92161,-3.53283 -3.99363,-8.60165 -7.83365,-12.44168l-6.29764,-6.60485l3.68643,-10.59847c3.07202,-8.75526 3.84003,-13.36328 3.84003,-28.10899c0,-19.81454 -1.8432,-28.41618 -11.52008,-52.99235c-8.14085,-20.88974 -31.33461,-60.36518 -35.48184,-60.6724c-2.1504,0 -21.35054,30.72021 -28.72339,46.0803c-18.73932,39.47546 -22.88654,68.81325 -13.67049,96.30784l3.53283,10.44487l-5.83685,5.22244c-3.68643,3.22562 -6.45125,7.68005 -7.68005,12.13447l-1.9968,6.91204l-3.22562,-7.52645c-8.90886,-21.35054 -11.82728,-36.71064 -11.82728,-63.59082c0,-19.20014 0.6144,-24.42256 4.14722,-38.09306c6.75844,-25.65136 16.1281,-45.77311 33.02422,-71.11727c11.05927,-16.43531 30.1058,-39.78266 32.40981,-39.78266c0.76802,0 4.76162,3.99363 9.06246,8.75526z" fill="#e1ff00"/><path d="M318.72436,133.93858l11.52008,11.21287l-5.22244,10.13767c-2.76482,5.68324 -5.52964,11.21287 -5.83685,12.28808c-0.6144,1.536 -3.84003,0.1536 -11.82728,-5.37604c-10.59847,-7.21924 -11.21287,-7.83365 -10.29127,-12.28808c1.9968,-9.83046 7.52645,-27.03377 8.90886,-27.03377c0.6144,0 6.45125,5.06884 12.74889,11.05927z" fill="#ed2ced"/><path d="M468.33175,140.54342c1.6896,7.06564 3.22562,13.20968 3.22562,13.51689c0,0.92161 -21.65774,15.36009 -22.11855,14.74569c-0.3072,-0.3072 -3.07202,-5.68324 -6.29764,-11.98089l-5.68324,-11.52008l11.82728,-11.52008c13.9777,-13.67049 13.9777,-13.67049 19.04652,6.75844z" fill="#ed2ced"/><path d="M247.29988,141.46504c30.56661,11.98089 68.50605,34.71382 66.66284,39.78266c-0.4608,1.22881 -2.30402,7.68005 -3.99363,14.1313l-3.22562,11.82728l-5.83685,-4.45442c-13.51689,-10.75207 -43.00828,-27.64818 -54.68196,-31.33461c-2.91842,-0.92161 -3.68643,-0.3072 -4.60802,3.22562c-1.536,5.52964 -1.536,54.52836 0,63.28361c1.07521,6.45125 1.07521,6.60485 -2.30402,5.68324c-1.9968,-0.4608 -8.29445,-2.30402 -14.2849,-3.84003l-10.75207,-2.76482l-1.22881,-9.83046c-1.8432,-14.89929 0,-55.14277 3.53283,-75.5717c1.6896,-9.98407 3.07202,-18.58572 3.07202,-19.04652c0,-1.3824 7.98726,1.07521 27.64818,8.90886z" fill="#ffffff"/><path d="M550.35467,146.22667c4.14722,23.50095 6.14404,50.07393 5.06884,68.04525c-1.22881,23.80816 -0.6144,22.57935 -14.4385,25.95856c-6.45125,1.3824 -12.74889,3.07202 -13.9777,3.53283c-1.6896,0.76802 -1.9968,-0.4608 -1.07521,-6.60485c2.91842,-21.65774 2.30402,-62.66921 -1.22881,-66.20203c-2.30402,-2.45762 -36.55703,15.8209 -53.76036,28.72339c-6.29764,4.76162 -10.44487,6.91204 -10.75207,5.68324c-0.3072,-0.92161 -1.6896,-6.29764 -3.22562,-11.82728c-1.536,-5.52964 -2.91842,-11.05927 -3.37923,-12.44168c-0.92161,-3.37923 23.80816,-19.96813 45.6195,-30.413c14.89929,-7.21924 43.00828,-18.27852 47.0019,-18.58572c0.92161,0 2.76482,6.45125 4.14722,14.1313z" fill="#ffffff"/><path d="M391.22403,157.90035c8.75526,13.67049 21.35054,41.16507 25.95856,56.37158c5.68324,19.35374 5.99043,43.00828 0.4608,57.44678c-3.53283,9.36967 -3.99363,9.83046 -11.67368,12.74889c-5.52964,1.9968 -10.13767,5.22244 -14.89929,10.59847l-6.91204,7.68005l-8.14085,-8.44805c-6.14404,-6.29764 -9.98407,-8.90886 -15.36009,-10.29127c-7.06564,-1.9968 -7.21924,-2.1504 -10.44487,-11.98089c-6.75844,-20.42892 -5.22244,-45.3123 4.14722,-69.27406c9.06246,-22.88654 27.34098,-55.91076 29.9522,-54.37476c0.76802,0.4608 3.84003,4.76162 6.91204,9.52326z" fill="#008000"/><path d="M169.42418,159.89716c9.52326,1.6896 21.19694,4.14722 26.11217,5.52964l9.06246,2.45762l-1.07521,14.74569c-0.6144,8.14085 -1.22881,14.89929 -1.536,15.20651c-0.1536,0.1536 -7.52645,-1.3824 -16.2817,-3.53283c-8.75526,-2.1504 -18.43212,-3.84003 -21.50414,-3.84003h-5.52964l1.3824,8.75526c0.76802,4.91523 2.61122,14.4385 4.30082,21.04334c1.6896,6.75844 2.91842,12.44168 2.61122,12.59529c-0.3072,0.3072 -7.06564,0.92161 -15.20651,1.536l-14.74569,1.07521l-1.6896,-5.99043c-5.68324,-21.35054 -10.90567,-54.22116 -10.90567,-68.81325v-5.99043l13.82409,1.07521c7.68005,0.6144 21.65774,2.45762 31.18101,4.14722z" fill="#ffffff"/><path d="M642.82249,169.26682c-1.22881,16.1281 -5.83685,43.62269 -9.52326,56.98598l-2.45762,9.06246l-14.74569,-1.07521c-8.14085,-0.6144 -14.89929,-1.3824 -15.20651,-1.536c-0.3072,-0.1536 0.92161,-5.83685 2.61122,-12.59529c1.6896,-6.60485 3.53283,-16.1281 4.14722,-21.04334l1.07521,-9.06246l-9.83046,1.07521c-5.37604,0.4608 -15.0529,2.30402 -21.35054,3.99363c-6.29764,1.536 -11.52008,2.76482 -11.82728,2.45762c-0.1536,-0.1536 -0.92161,-7.06564 -1.3824,-15.0529l-1.07521,-14.89929l5.99043,-1.536c21.50414,-5.68324 50.68833,-10.44487 66.50924,-10.75207l8.29445,-0.1536z" fill="#ffffff"/><path d="M282.01371,201.06223c7.52645,5.06884 15.6673,10.90567 18.12492,12.74889l4.30082,3.68643l0.4608,23.65456c0.3072,17.51051 1.22881,27.03377 3.37923,35.63544l3.07202,11.82728l-10.13767,-8.90886c-12.59529,-11.05927 -27.18737,-21.04334 -39.47546,-26.88018l-9.36967,-4.30082l-1.536,-13.36328c-1.8432,-15.9745 -2.61122,-46.0803 -1.22881,-49.76672c0.92161,-2.30402 1.9968,-1.9968 9.83046,1.9968c4.91523,2.30402 15.0529,8.60165 22.57935,13.67049z" fill="#0000ff"/><path d="M518.86646,203.51984c-0.1536,14.74569 -1.8432,35.02103 -3.37923,41.47227c-0.4608,1.8432 -3.84003,4.60802 -8.14085,6.75844c-12.28808,5.99043 -31.33461,19.04652 -41.77946,28.72339c-5.68324,5.06884 -9.36967,7.68005 -8.75526,5.99043c3.37923,-9.06246 5.99043,-28.26258 6.14404,-47.61631l0.3072,-21.50414l13.36328,-10.13767c7.21924,-5.52964 19.35374,-13.20968 26.72658,-17.20332c16.1281,-8.44805 15.8209,-8.75526 15.5137,13.51689z" fill="#0000ff"/><path d="M594.43816,218.26554c-1.8432,7.52645 -3.84003,13.9777 -4.45442,14.2849c-0.4608,0.3072 -6.75844,1.07521 -13.82409,1.6896l-12.90249,1.07521l1.07521,-13.51689c0.6144,-7.52645 1.22881,-13.67049 1.3824,-13.82409c0.1536,-0.1536 7.21924,-1.9968 15.6673,-4.14722c13.05608,-3.22562 15.36009,-3.53283 15.8209,-1.536c0.3072,1.22881 -0.92161,8.44805 -2.76482,15.9745z" fill="#ed2ced"/><path d="M192.77153,205.51665l9.21607,2.76482l1.3824,12.74889c0.6144,6.91204 0.92161,13.05608 0.4608,13.51689c-0.4608,0.4608 -6.60485,0.3072 -13.67049,-0.3072l-12.90249,-1.07521l-1.9968,-7.21924c-1.07521,-3.84003 -2.91842,-11.05927 -3.99363,-16.1281l-2.1504,-8.90886l7.21924,0.92161c3.99363,0.4608 11.36648,2.1504 16.43531,3.68643z" fill="#ed2ced"/><path d="M213.20046,246.52813c14.5921,2.76482 35.63544,9.83046 47.92352,16.1281c17.51051,8.90886 44.23708,31.64181 54.83558,47.0019l3.37923,4.60802l-7.68005,-1.536c-5.99043,-1.22881 -9.06246,-1.07521 -13.9777,0.6144l-6.29764,2.30402l-10.90567,-10.90567c-5.99043,-5.99043 -15.36009,-13.36328 -20.88974,-16.2817c-11.36648,-6.29764 -30.413,-12.59529 -43.00828,-14.2849c-4.60802,-0.6144 -9.83046,-1.3824 -11.52008,-1.6896c-13.9777,-2.91842 -61.594,-1.6896 -64.81963,1.536c-1.3824,1.3824 6.75844,19.04652 15.8209,34.40662c26.41938,44.54428 53.91396,66.97005 91.3926,74.65008c3.37923,0.76802 4.45442,2.1504 5.83685,7.83365c0.92161,3.68643 3.84003,9.21607 6.29764,12.13447c2.61122,2.76482 4.60802,5.52964 4.60802,5.83685c0,1.07521 -22.11855,-2.91842 -32.10261,-5.83685c-45.3123,-13.05608 -84.63415,-48.53792 -110.28553,-99.68706c-6.91204,-13.51689 -20.42892,-47.30911 -20.42892,-50.84193c0,-1.6896 20.12173,-5.83685 40.70428,-8.14085c16.43531,-1.9968 56.52518,-0.76802 71.11727,2.1504z" fill="#e1ff00"/><path d="M647.43053,247.29614c10.13767,1.8432 18.58572,3.53283 19.04652,3.84003c1.3824,1.3824 -11.67368,34.71382 -19.81454,50.84193c-29.9522,58.98278 -70.19566,92.77501 -124.87762,104.29509c-5.83685,1.22881 -12.28808,2.30402 -14.5921,2.30402h-3.99363l4.14722,-4.30082c4.30082,-4.45442 8.75526,-13.82409 8.75526,-18.43212c0,-2.1504 1.9968,-3.07202 10.29127,-4.45442c27.03377,-4.60802 52.83875,-24.88337 76.9541,-60.05799c10.13767,-14.74569 23.19374,-39.47546 23.80816,-45.1587c0.3072,-3.07202 -0.4608,-3.68643 -7.37285,-4.60802c-11.05927,-1.3824 -51.76354,-0.3072 -65.28043,1.8432c-29.64499,4.60802 -48.84512,13.51689 -66.35564,30.72021c-11.36648,11.05927 -11.98089,11.52008 -16.1281,9.67686c-5.22244,-2.30402 -14.2849,-2.45762 -19.50734,-0.4608c-2.1504,0.76802 -3.99363,0.92161 -3.99363,0.1536c0,-3.07202 29.79859,-32.56342 40.24346,-39.62906c21.04334,-14.5921 45.6195,-24.57617 68.81325,-27.95539c6.29764,-0.92161 13.20968,-1.9968 15.36009,-2.30402c9.67686,-1.6896 56.98598,0.6144 74.49648,3.68643z" fill="#e1ff00"/><path d="M214.27567,283.23877c24.72977,4.14722 44.23708,12.74889 57.29318,25.34417c11.52008,11.05927 12.74889,13.51689 10.59847,21.35054c-1.3824,5.37604 -1.22881,8.29445 0.6144,15.36009c1.3824,4.76162 2.91842,9.98407 3.68643,11.36648c0.76802,1.9968 0.4608,2.76482 -1.22881,2.76482c-8.60165,0 -18.89292,3.84003 -24.72977,9.21607c-6.14404,5.68324 -6.45125,5.83685 -13.9777,4.60802c-16.43531,-2.76482 -32.40981,-10.75207 -46.23391,-23.50095c-14.4385,-13.20968 -33.17782,-38.86105 -44.23708,-60.826l-3.99363,-7.68005l4.30082,-0.76802c7.37285,-1.22881 43.62269,0.4608 57.90758,2.76482z" fill="#008000"/><path d="M613.9455,280.78115c2.45762,1.536 -7.21924,19.50734 -21.04334,39.01465c-18.73932,26.72658 -40.70428,45.0051 -61.2868,50.99553c-13.05608,3.84003 -18.12492,3.22562 -24.72977,-2.76482c-5.37604,-4.91523 -16.1281,-8.60165 -24.57617,-8.60165c-2.76482,0 -2.76482,-0.1536 0.1536,-6.14404c3.99363,-8.29445 5.22244,-18.43212 2.91842,-25.19057c-1.6896,-5.37604 -1.536,-5.99043 3.99363,-12.59529c15.0529,-18.58572 41.01147,-30.1058 76.1861,-34.25302c14.4385,-1.6896 45.92671,-1.9968 48.38431,-0.4608z" fill="#008000"/><path d="M117.96783,318.567c-0.3072,0.1536 -4.30082,1.22881 -8.90886,2.30402c-9.52326,2.30402 -32.25621,10.75207 -32.25621,11.98089c0,1.22881 19.04652,23.65456 24.42256,28.72339l4.76162,4.60802l-12.44168,8.14085l-12.44168,8.14085l-3.68643,-2.91842c-6.29764,-4.91523 -21.96495,-23.04014 -33.79223,-38.86105c-17.04972,-22.88654 -16.89612,-20.27532 -0.3072,-27.95539c19.20014,-8.75526 34.71382,-14.74569 49.61312,-18.73932l12.28808,-3.22562l6.60485,13.67049c3.68643,7.68005 6.45125,13.9777 6.14404,14.1313z" fill="#ffffff"/><path d="M688.44198,297.98447c9.83046,3.22562 25.19057,9.36967 34.25302,13.67049l16.2817,7.68005l-6.45125,9.67686c-9.67686,14.5921 -26.11217,34.71382 -36.40343,44.69789l-9.06246,8.90886l-12.28808,-8.44805l-12.44168,-8.60165l8.44805,-8.90886c4.76162,-4.76162 11.36648,-12.13447 14.74569,-16.43531l5.99043,-7.68005l-7.37285,-3.37923c-4.14722,-1.8432 -13.36328,-5.06884 -20.58252,-7.06564c-7.21924,-2.1504 -13.05608,-4.45442 -13.05608,-5.06884c0,-0.76802 2.76482,-7.06564 6.14404,-13.9777c6.91204,-14.74569 3.84003,-14.1313 31.79541,-5.06884z" fill="#ffffff"/><path d="M361.73264,294.29804c7.68005,3.68643 19.50734,21.04334 17.04972,25.03697c-0.4608,0.76802 -4.60802,1.6896 -9.21607,2.30402c-4.76162,0.4608 -13.20968,2.61122 -18.89292,4.76162c-5.68324,1.9968 -10.59847,3.37923 -11.05927,2.91842c-0.4608,-0.4608 -0.76802,-5.68324 -0.76802,-11.82728c-0.1536,-13.20968 3.07202,-20.27532 10.29127,-23.34734c6.29764,-2.76482 6.60485,-2.76482 12.59529,0.1536z" fill="#ffa500"/><path d="M418.41142,293.99084c7.06564,2.91842 10.90567,11.36648 10.75207,23.65456c0,5.37604 -0.76802,10.29127 -1.536,11.05927c-0.92161,0.92161 -4.91523,0 -10.59847,-2.30402c-5.06884,-1.9968 -13.20968,-4.14722 -18.12492,-4.76162c-4.76162,-0.6144 -9.21607,-1.536 -9.67686,-2.30402c-1.07521,-1.6896 3.37923,-11.82728 7.83365,-17.51051c3.22562,-4.30082 11.67368,-9.83046 15.0529,-9.98407c0.6144,0 3.37923,0.92161 6.29764,2.1504z" fill="#ffa500"/><path d="M315.19153,323.32863c3.68643,1.3824 9.21607,4.45442 12.13447,6.91204l5.22244,4.45442l-6.14404,5.06884c-7.83365,6.45125 -11.05927,9.67686 -17.20332,17.20332c-5.68324,6.91204 -7.21924,6.45125 -13.51689,-4.30082c-7.52645,-13.05608 -6.29764,-25.49776 2.91842,-29.49139c6.14404,-2.61122 8.14085,-2.61122 16.58892,0.1536z" fill="#ffa500"/><path d="M470.02135,323.32863c5.99043,3.07202 8.60165,11.52008 6.29764,20.12173c-1.6896,6.14404 -9.83046,19.04652 -12.13447,19.04652c-0.6144,0 -3.84003,-3.37923 -7.06564,-7.52645c-3.22562,-4.14722 -9.21607,-10.13767 -13.36328,-13.36328c-4.14722,-3.22562 -7.52645,-6.45125 -7.52645,-7.06564c0,-1.9968 10.59847,-9.21607 16.43531,-11.36648c7.68005,-2.61122 11.98089,-2.61122 17.35692,0.1536z" fill="#ffa500"/><path d="M131.17752,338.07433c3.99363,5.99043 7.06564,11.05927 6.75844,11.36648c-0.3072,0.1536 -5.68324,2.91842 -11.98089,5.99043l-11.36648,5.83685l-11.52008,-11.82728c-8.29445,-8.44805 -10.90567,-12.13447 -9.67686,-13.36328c1.536,-1.536 24.42256,-8.44805 28.87699,-8.75526c0.92161,-0.1536 4.91523,4.76162 8.90886,10.75207z" fill="#ed2ced"/><path d="M664.78744,332.0839c5.99043,1.6896 11.05927,3.68643 11.05927,4.45442c0,0.6144 -5.06884,6.29764 -11.05927,12.74889l-11.21287,11.67368l-11.82728,-5.83685c-6.60485,-3.07202 -11.98089,-6.14404 -11.98089,-6.75844c0,-0.6144 3.22562,-5.68324 7.37285,-11.21287c8.14085,-11.52008 6.75844,-11.21287 27.64818,-5.06884z" fill="#ed2ced"/><path d="M406.12332,332.69829c31.33461,7.83365 56.06436,35.17464 61.74761,68.65965c1.9968,11.82728 1.9968,14.89929 0,26.72658c-3.22562,18.73932 -10.75207,33.48501 -23.80816,46.38751c-17.04972,17.04972 -36.09624,25.03697 -59.7508,24.88337c-24.26896,0 -43.31549,-7.83365 -60.21159,-24.72977c-16.74252,-16.74252 -24.88337,-36.24983 -25.03697,-59.7508c0,-23.50095 8.14085,-43.16189 25.19057,-60.21159c21.50414,-21.65774 51.45634,-29.64499 81.86933,-21.96495z" fill="#000000"/><path d="M146.69122,386.30506c-19.96813,9.98407 -45.3123,26.11217 -45.3123,28.87699c0,2.1504 31.64181,21.65774 47.30911,29.18419l17.20332,8.14085l-10.44487,10.29127l-10.44487,10.29127l-15.20651,-7.37285c-8.44805,-4.14722 -22.57935,-12.44168 -31.48821,-18.43212c-16.58892,-11.05927 -39.93626,-30.1058 -39.93626,-32.40981c0,-1.536 13.36328,-13.20968 27.18737,-23.65456c13.51689,-10.29127 33.02422,-22.27215 47.30911,-28.72339l12.13447,-5.68324l10.13767,10.13767l9.98407,10.13767z" fill="#ffffff"/><path d="M641.59367,365.41531c22.11855,11.05927 68.04525,44.39068 68.04525,49.30593c0,1.8432 -18.27852,17.20332 -33.33142,27.95539c-13.9777,9.98407 -33.02422,21.04334 -45.0051,26.26577l-8.44805,3.68643l-10.13767,-10.44487l-10.13767,-10.29127l12.44168,-5.68324c19.20014,-8.60165 51.45634,-28.41618 51.60994,-31.79541c0,-2.30402 -32.71702,-22.57935 -48.23071,-29.64499l-16.2817,-7.52645l10.13767,-10.29127c11.67368,-11.67368 9.36967,-11.67368 29.33779,-1.536z" fill="#ffffff"/><path d="M298.14181,371.09854c0.6144,0.3072 -0.4608,5.22244 -2.45762,10.59847c-2.1504,5.52964 -4.30082,13.82409 -4.76162,18.43212c-0.6144,4.76162 -1.6896,8.90886 -2.45762,9.36967c-2.45762,1.536 -17.97131,-7.06564 -21.81134,-12.13447c-9.52326,-12.44168 -5.99043,-20.73614 11.36648,-27.80179c2.45762,-0.92161 17.97131,0.1536 20.12173,1.536z" fill="#ffa500"/><path d="M497.51592,372.32736c2.61122,1.3824 5.83685,4.60802 7.21924,7.21924c2.1504,4.45442 2.1504,5.37604 -0.1536,11.36648c-1.3824,3.84003 -4.76162,8.44805 -7.83365,10.75207c-6.14404,4.60802 -15.5137,8.90886 -17.35692,7.83365c-0.76802,-0.4608 -1.6896,-4.60802 -2.30402,-9.36967c-0.4608,-4.60802 -2.61122,-12.90249 -4.76162,-18.43212c-2.76482,-7.37285 -3.22562,-10.29127 -1.8432,-10.75207c1.07521,-0.3072 2.91842,-0.92161 4.14722,-1.3824c3.99363,-1.536 17.81771,0.3072 22.88654,2.76482z" fill="#ffa500"/><path d="M200.91238,400.74355c5.22244,2.61122 15.5137,6.75844 22.73295,9.21607c7.21924,2.45762 13.36328,4.76162 13.82409,5.22244c0.4608,0.3072 -1.8432,1.22881 -5.06884,1.8432c-9.98407,1.8432 -32.10261,11.52008 -45.4659,19.81454l-12.90249,8.14085l-8.29445,-3.37923c-11.52008,-4.60802 -31.18101,-14.89929 -41.16507,-21.19694l-8.14085,-5.22244l5.06884,-3.84003c7.68005,-5.68324 21.65774,-13.36328 37.93946,-20.58252l14.5921,-6.60485l8.60165,5.83685c4.76162,3.22562 12.90249,7.98726 18.27852,10.75207z" fill="#0000ff"/><path d="M620.08953,395.67471c5.99043,3.07202 15.6673,8.44805 21.19694,11.98089l10.29127,6.60485l-5.06884,3.84003c-7.52645,5.68324 -20.88974,12.90249 -37.78586,20.58252l-14.74569,6.60485l-9.21607,-6.29764c-11.21287,-7.68005 -30.8738,-16.89612 -43.62269,-20.73614c-5.37604,-1.536 -9.67686,-3.22562 -9.67686,-3.68643c0,-0.6144 3.07202,-1.8432 6.60485,-2.76482c11.36648,-2.76482 32.10261,-12.13447 44.08349,-19.96813l11.52008,-7.37285l7.68005,2.91842c4.30082,1.6896 12.59529,5.37604 18.73932,8.29445z" fill="#0000ff"/><path d="M290.61536,428.69893c0.6144,4.60802 2.76482,13.05608 4.76162,18.73932c4.45442,12.28808 4.30082,12.59529 -10.44487,12.44168c-11.67368,0 -18.58572,-3.53283 -21.81134,-10.90567c-1.9968,-5.06884 -1.9968,-6.14404 0.4608,-11.52008c1.3824,-3.22562 4.91523,-7.52645 7.68005,-9.67686c5.99043,-4.60802 14.4385,-8.60165 16.74252,-7.83365c0.92161,0.1536 1.9968,4.14722 2.61122,8.75526z" fill="#ffa500"/><path d="M492.6007,424.8589c11.05927,6.45125 15.8209,15.5137 12.28808,24.11536c-3.07202,7.21924 -11.36648,10.90567 -23.80816,10.90567c-5.22244,0 -10.29127,-0.76802 -11.05927,-1.536c-0.92161,-0.92161 -0.1536,-4.76162 2.30402,-10.59847c1.9968,-5.06884 4.14722,-13.05608 4.76162,-17.66411c0.4608,-4.60802 1.3824,-9.06246 1.6896,-9.67686c0.92161,-1.6896 5.99043,0 13.82409,4.45442z" fill="#ffa500"/><path d="M259.89516,426.24132c-4.14722,4.60802 -7.98726,13.51689 -7.98726,18.58572c0,0.92161 -3.22562,2.1504 -7.37285,2.61122c-24.72977,2.91842 -52.83875,22.88654 -74.34288,52.83875c-18.58572,25.80496 -32.56342,52.68515 -29.03059,56.21796c1.3824,1.3824 10.59847,1.8432 32.87062,1.6896c25.19057,0 33.94583,-0.76802 46.69471,-3.37923c27.64818,-5.68324 45.1587,-14.5921 60.9796,-31.0274c9.52326,-9.67686 9.83046,-9.98407 14.1313,-8.14085c5.37604,2.30402 14.4385,2.45762 19.81454,0.4608c3.68643,-1.3824 3.84003,-1.22881 2.1504,1.8432c-0.92161,1.8432 -7.52645,9.36967 -14.74569,16.74252c-20.12173,20.88974 -41.01147,34.09943 -67.73805,42.70108c-21.19694,6.91204 -33.79223,8.60165 -64.05162,8.60165c-25.49776,-0.1536 -37.17144,-1.22881 -61.1332,-5.68324c-10.75207,-1.9968 -10.75207,-0.3072 0.6144,-28.87699c21.81134,-54.83558 53.91396,-93.85022 93.38941,-113.51116c17.20332,-8.60165 43.31549,-16.58892 55.29637,-16.89612l5.06884,-0.1536z" fill="#e1ff00"/><path d="M529.31134,424.7053c19.20014,4.76162 45.92671,17.81771 60.826,29.64499c23.34734,18.58572 43.46909,45.1587 58.67558,77.2613c7.83365,16.74252 17.81771,42.08668 17.81771,45.4659c0,1.536 -21.04334,5.68324 -41.47227,8.14085c-16.89612,1.9968 -55.44996,0.76802 -70.34926,-2.1504c-25.95856,-5.22244 -49.61312,-15.5137 -69.42765,-30.1058c-10.29127,-7.52645 -27.49458,-24.72977 -33.33142,-33.17782l-3.37923,-4.60802l7.68005,1.536c5.99043,1.22881 9.06246,1.07521 14.1313,-0.76802l6.45125,-2.1504l6.75844,7.37285c17.04972,18.73932 36.86424,28.56978 68.50605,34.09943c22.57935,3.99363 71.57807,4.30082 75.4181,0.3072c3.22562,-3.22562 -18.43212,-41.62586 -36.09624,-63.74442c-21.04334,-26.41938 -41.16507,-39.32186 -70.96366,-45.4659c-3.37923,-0.76802 -4.45442,-2.1504 -5.83685,-7.83365c-0.92161,-3.68643 -3.84003,-9.21607 -6.45125,-12.28808l-4.76162,-5.37604h5.37604c2.91842,0 12.13447,1.6896 20.42892,3.84003z" fill="#e1ff00"/><path d="M96.77091,457.57591c4.60802,2.91842 8.60165,5.52964 8.90886,5.68324c0.1536,0.1536 -3.53283,4.30082 -8.29445,9.21607c-12.44168,12.90249 -20.88974,23.96176 -19.50734,25.34417c1.536,1.536 33.17782,12.13447 36.24983,12.13447c4.45442,0 3.99363,2.45762 -2.30402,15.8209c-5.99043,12.28808 -6.75844,13.20968 -10.44487,12.44168c-11.21287,-2.61122 -41.62586,-13.67049 -56.06436,-20.42892l-16.2817,-7.68005l6.45125,-9.67686c10.90567,-16.2817 19.96813,-27.49458 32.71702,-40.85788l12.13447,-12.59529l3.99363,2.61122c2.1504,1.3824 7.83365,4.91523 12.44168,7.98726z" fill="#ffffff"/><path d="M698.11885,457.26871c9.36967,9.67686 35.17464,42.24028 39.16824,49.45953c1.3824,2.76482 0.92161,3.53283 -4.14722,6.14404c-13.9777,7.06564 -37.78586,16.43531 -53.29954,21.04334l-16.89612,4.91523l-6.75844,-13.82409c-3.68643,-7.52645 -6.45125,-13.9777 -6.14404,-14.1313c0.3072,-0.1536 4.30082,-1.22881 8.90886,-2.30402c9.52326,-2.30402 32.25621,-10.75207 32.25621,-11.98089c0,-1.22881 -19.04652,-23.65456 -24.42256,-28.72339l-4.60802,-4.45442l11.82728,-7.98726c6.45125,-4.45442 12.28808,-8.14085 12.90249,-8.29445c0.4608,0 5.52964,4.45442 11.21287,10.13767z" fill="#ffffff"/><path d="M259.58796,460.03352c5.37604,5.52964 16.43531,9.98407 24.88337,9.98407h4.30082l-3.07202,6.14404c-4.14722,8.14085 -5.37604,18.27852 -3.07202,25.19057c1.8432,5.52964 1.6896,5.99043 -4.30082,12.90249c-12.90249,15.36009 -35.78904,27.18737 -61.1332,31.64181c-15.5137,2.91842 -54.83558,4.91523 -61.1332,3.37923l-4.14722,-1.07521l5.52964,-10.29127c13.9777,-25.65136 33.63862,-51.14914 48.07712,-62.51561c13.36328,-10.59847 30.8738,-18.12492 48.07712,-20.58252c0.4608,-0.1536 3.07202,2.30402 5.99043,5.22244z" fill="#008000"/><path d="M533.76577,459.41913c12.44168,3.99363 23.04014,10.29127 33.63862,19.96813c14.74569,13.51689 33.48501,39.01465 44.54428,61.1332l3.99363,7.68005l-7.21924,1.07521c-8.90886,1.3824 -37.47864,-0.3072 -55.29637,-3.22562c-24.26896,-3.99363 -43.92989,-12.59529 -56.98598,-25.19057c-11.36648,-10.90567 -12.90249,-13.67049 -10.75207,-20.42892c1.9968,-6.60485 0.6144,-17.20332 -3.22562,-24.72977l-2.76482,-5.52964l7.68005,-0.92161c10.29127,-1.536 16.2817,-4.14722 21.65774,-9.83046c5.22244,-5.37604 7.98726,-5.37604 24.72977,0z" fill="#008000"/><path d="M310.89071,474.47203c3.37923,4.14722 9.36967,10.13767 13.51689,13.36328c4.14722,3.07202 7.21924,6.45125 6.91204,7.37285c-1.07521,3.37923 -15.20651,11.52008 -21.65774,12.44168c-18.73932,2.91842 -25.03697,-15.8209 -11.67368,-34.25302c2.61122,-3.53283 5.22244,-6.45125 5.83685,-6.45125c0.6144,0 3.84003,3.37923 7.06564,7.52645z" fill="#ffa500"/><path d="M471.09655,475.08644c16.89612,25.03697 -3.68643,43.62269 -28.41618,25.65136c-3.53283,-2.61122 -6.45125,-5.22244 -6.45125,-5.83685c0,-0.6144 3.37923,-3.84003 7.52645,-7.06564c4.14722,-3.22562 10.13767,-9.36967 13.36328,-13.36328c3.22562,-4.14722 6.60485,-7.37285 7.52645,-7.06564c0.76802,0.3072 3.68643,3.68643 6.45125,7.68005z" fill="#ffa500"/><path d="M126.72309,474.47203c5.99043,2.76482 11.05927,5.37604 11.36648,5.68324c0.3072,0.3072 -2.76482,5.37604 -6.75844,11.52008c-6.91204,10.44487 -7.37285,10.90567 -11.98089,9.98407c-9.36967,-1.8432 -27.18737,-7.52645 -27.18737,-8.60165c0,-1.8432 21.81134,-24.72977 22.88654,-24.11536c0.4608,0.3072 5.83685,2.76482 11.67368,5.52964z" fill="#ed2ced"/><path d="M665.09463,480.15528c6.91204,7.37285 10.44487,12.28808 9.52326,13.20968c-1.22881,1.22881 -26.72658,8.90886 -29.64499,8.90886c-1.6896,0 -15.6673,-22.11855 -14.2849,-22.57935c0.76802,-0.3072 5.83685,-2.91842 11.36648,-5.83685c5.52964,-2.76482 10.44487,-5.22244 10.90567,-5.22244c0.6144,-0.1536 5.99043,5.06884 12.13447,11.52008z" fill="#ed2ced"/><path d="M369.41269,507.80344c4.76162,0.6144 8.90886,1.6896 9.36967,2.45762c0.4608,0.76802 -0.92161,5.22244 -3.22562,9.83046c-12.44168,25.34417 -36.71064,20.73614 -36.71064,-7.06564c0,-13.9777 0.3072,-14.2849 12.13447,-9.98407c5.52964,2.1504 13.82409,4.30082 18.43212,4.76162z" fill="#ffa500"/><path d="M429.31707,512.71867c-0.1536,12.13447 -3.22562,19.04652 -10.13767,22.57935c-6.29764,3.37923 -12.59529,1.6896 -19.35374,-5.06884c-5.83685,-5.83685 -11.98089,-17.81771 -10.44487,-20.27532c0.4608,-0.92161 3.53283,-1.536 6.60485,-1.536c3.07202,0 11.21287,-1.9968 17.97131,-4.45442c7.37285,-2.61122 12.90249,-3.68643 13.82409,-2.91842c0.92161,0.76802 1.536,5.99043 1.536,11.67368z" fill="#ffa500"/><path d="M339.30689,539.59885l5.68324,5.06884l-3.37923,9.83046c-9.21607,27.03377 -5.06884,56.83238 12.74889,95.23263c7.98726,17.20332 27.03377,47.46271 29.9522,47.61631c2.1504,0 21.35054,-30.72021 28.72339,-46.0803c18.73932,-39.47546 22.88654,-68.65965 13.82409,-96.00062l-3.68643,-10.75207l5.83685,-5.22244c3.68643,-3.37923 6.45125,-7.68005 7.83365,-12.28808l1.9968,-7.06564l2.61122,6.14404c9.06246,21.35054 14.1313,50.53473 12.59529,72.96048c-2.45762,35.48184 -13.67049,65.89483 -37.47864,101.53026c-11.05927,16.43531 -30.1058,39.78266 -32.40981,39.78266c-1.536,0 -13.20968,-13.36328 -23.65456,-27.18737c-32.40981,-42.54748 -49.15233,-90.16379 -46.38751,-131.48246c0.92161,-15.6673 5.68324,-36.71064 11.52008,-52.37794l3.53283,-9.21607l2.30402,7.21924c1.3824,4.45442 4.45442,9.21607 7.83365,12.28808z" fill="#e1ff00"/><path d="M406.58413,545.28208c7.68005,1.9968 9.98407,5.52964 13.51689,20.27532c2.91842,12.59529 2.91842,24.57617 -0.1536,39.32186c-3.99363,19.50734 -18.43212,52.07075 -31.79541,71.73167l-3.84003,5.68324l-4.91523,-6.60485c-7.06564,-9.67686 -23.65456,-44.39068 -28.41618,-59.7508c-6.91204,-21.35054 -5.83685,-50.84193 2.1504,-65.89483c0.92161,-1.6896 4.45442,-3.84003 7.98726,-4.76162c6.60485,-1.8432 19.04652,-12.13447 20.58252,-17.04972c0.76802,-2.45762 2.1504,-1.6896 9.67686,6.14404c6.45125,6.60485 10.44487,9.52326 15.20651,10.90567z" fill="#008000"/><path d="M308.4331,553.73015c-2.1504,8.90886 -3.07202,18.43212 -3.37923,34.71382c-0.1536,12.28808 -0.92161,23.19374 -1.536,24.11536c-1.9968,3.22562 -27.64818,20.73614 -40.39706,27.49458l-12.44168,6.75844l-1.22881,-8.90886c-1.07521,-8.44805 1.536,-52.99235 3.22562,-55.75716c0.4608,-0.76802 4.60802,-3.07202 9.06246,-5.06884c11.36648,-5.22244 29.79859,-17.81771 40.39706,-27.80179c4.91523,-4.60802 9.06246,-8.14085 9.21607,-8.14085c0.1536,0.1536 -1.22881,5.83685 -2.91842,12.59529z" fill="#0000ff"/><path d="M491.52549,568.32225c5.52964,3.07202 13.05608,7.37285 16.89612,9.36967c5.83685,3.22562 7.06564,4.60802 7.98726,9.83046c1.8432,9.98407 3.37923,47.30911 2.1504,53.45315l-1.07521,5.68324l-8.75526,-4.45442c-9.21607,-4.76162 -33.48501,-20.42892 -40.70428,-26.57298l-4.45442,-3.68643l-0.4608,-23.65456c-0.3072,-17.35692 -1.22881,-27.03377 -3.37923,-35.48184l-3.07202,-11.67368l12.44168,10.59847c6.75844,5.83685 16.89612,13.36328 22.42575,16.58892z" fill="#0000ff"/><path d="M242.07745,592.43761c-2.91842,21.65774 -2.30402,62.66921 1.22881,66.04843c2.30402,2.45762 37.78586,-16.58892 54.22116,-28.87699l9.67686,-7.37285l1.536,6.45125c0.92161,3.53283 2.76482,9.52326 3.84003,13.20968c1.22881,3.84003 2.30402,7.37285 2.30402,7.98726c0,2.1504 -27.95539,19.96813 -43.00828,27.49458c-13.67049,6.75844 -38.86105,16.89612 -47.76992,19.20014c-3.84003,0.92161 -3.99363,0.76802 -6.45125,-13.36328c-4.60802,-27.03377 -6.14404,-45.92671 -5.06884,-67.27724c0.4608,-11.36648 1.6896,-21.35054 2.45762,-22.11855c1.3824,-1.3824 21.50414,-7.68005 26.72658,-8.44805c0.76802,0 0.92161,3.07202 0.3072,7.06564z" fill="#ffffff"/><path d="M542.67462,589.51918c8.75526,2.1504 10.59847,3.22562 11.52008,6.45125c0.6144,2.1504 1.07521,16.89612 0.92161,33.02422c0,23.19374 -0.76802,33.17782 -3.53283,48.38431c-1.8432,10.44487 -3.68643,19.35374 -3.99363,19.81454c-0.4608,0.3072 -8.14085,-1.9968 -17.20332,-5.37604c-19.50734,-6.91204 -46.23391,-20.12173 -61.2868,-30.2594c-17.51051,-11.98089 -16.2817,-9.83046 -13.05608,-21.19694c1.6896,-5.37604 3.37923,-11.67368 3.84003,-13.9777l0.92161,-4.14722l12.74889,9.21607c6.91204,4.91523 21.04334,13.36328 31.48821,18.73932c15.36009,7.68005 19.04652,9.06246 20.12173,7.37285c3.53283,-5.52964 3.84003,-55.44996 0.6144,-69.12046c-0.76802,-3.37923 -0.4608,-3.53283 2.76482,-2.61122c1.9968,0.6144 8.44805,2.30402 14.1313,3.68643z" fill="#ffffff"/><path d="M167.12015,596.73842c0.3072,0.1536 -0.92161,5.83685 -2.76482,12.44168c-1.6896,6.75844 -3.53283,16.43531 -4.14722,21.50414l-0.92161,9.52326l12.44168,-1.9968c6.75844,-1.07521 16.2817,-3.22562 21.04334,-4.60802c4.91523,-1.3824 9.06246,-2.30402 9.21607,-1.9968c0.3072,0.3072 1.07521,7.21924 1.6896,15.36009l0.92161,14.89929l-6.60485,1.6896c-22.11855,6.14404 -70.50287,12.90249 -72.96048,10.29127c-2.61122,-2.61122 4.76162,-54.83558 10.44487,-73.72849l1.8432,-5.83685l14.5921,0.92161c8.14085,0.6144 14.89929,1.22881 15.20651,1.536z" fill="#ffffff"/><path d="M204.2916,598.88884c0,2.30402 -0.4608,8.44805 -0.92161,13.51689l-1.07521,9.36967l-15.5137,3.68643l-15.5137,3.84003l-0.4608,-3.22562c-0.1536,-1.8432 1.22881,-9.06246 3.07202,-16.2817l3.53283,-13.05608l8.44805,-0.92161c18.12492,-1.8432 18.43212,-1.8432 18.43212,3.07202z" fill="#ed2ced"/><path d="M581.68929,595.35603l9.21607,0.92161l3.22562,12.74889c4.14722,15.6673 4.30082,19.20014 0.6144,19.20014c-3.68643,0 -26.88018,-6.14404 -28.26258,-7.37285c-0.4608,-0.6144 -1.3824,-6.75844 -1.9968,-13.82409l-1.07521,-12.59529h4.60802c2.45762,0 8.60165,0.4608 13.67049,0.92161z" fill="#ed2ced"/><path d="M632.68482,600.11766c5.99043,22.11855 10.75207,52.37794 10.90567,67.12363v7.52645l-13.36328,-1.07521c-16.2817,-1.3824 -45.4659,-6.14404 -57.75397,-9.67686l-8.90886,-2.45762l1.07521,-14.74569c0.6144,-8.14085 1.22881,-14.89929 1.3824,-15.20651c0.1536,-0.1536 5.68324,1.07521 12.13447,2.76482c6.60485,1.6896 16.2817,3.53283 21.65774,3.99363l9.67686,1.07521l-2.1504,-12.90249c-1.07521,-7.06564 -3.07202,-16.43531 -4.45442,-20.58252c-1.22881,-4.30082 -2.30402,-8.14085 -2.30402,-8.75526c0,-1.07521 4.45442,-1.536 21.81134,-2.45762l8.75526,-0.4608z" fill="#ffffff"/><path d="M324.7148,672.31013l5.83685,11.82728l-11.67368,11.52008c-7.98726,7.68005 -12.28808,10.90567 -13.36328,9.83046c-1.6896,-1.6896 -9.36967,-28.10899 -8.75526,-29.9522c0.4608,-1.22881 19.81454,-14.74569 21.19694,-14.89929c0.4608,-0.1536 3.53283,5.22244 6.75844,11.67368z" fill="#ed2ced"/><path d="M461.1125,667.5485c10.13767,6.75844 10.75207,7.37285 9.83046,11.98089c-1.8432,9.21607 -7.52645,27.03377 -8.60165,27.03377c-0.76802,0 -6.45125,-4.91523 -12.74889,-10.75207l-11.52008,-10.75207l5.52964,-12.28808c3.22562,-6.75844 5.99043,-12.28808 6.29764,-12.28808c0.3072,0 5.37604,3.22562 11.21287,7.06564z" fill="#ed2ced"/><path d="M290.15456,689.20625c2.1504,9.67686 10.59847,32.71702 11.98089,32.71702c1.22881,0 23.65456,-19.04652 28.56978,-24.26896l4.45442,-4.60802l8.29445,12.28808c8.14085,11.98089 8.29445,12.28808 5.68324,15.5137c-5.37604,6.75844 -23.50095,22.57935 -38.86105,33.94583c-21.81134,16.2817 -20.88974,15.9745 -24.42256,9.06246c-10.90567,-21.65774 -27.95539,-69.58125 -25.03697,-70.81008c0.6144,-0.1536 6.60485,-3.07202 13.36328,-6.29764c6.75844,-3.37923 12.59529,-6.14404 13.05608,-6.14404c0.4608,-0.1536 1.6896,3.84003 2.91842,8.60165z" fill="#ffffff"/><path d="M495.82632,687.36303c11.52008,5.52964 12.44168,6.29764 11.67368,9.98407c-2.61122,11.21287 -13.67049,41.62586 -20.42892,56.06436l-7.68005,16.2817l-9.67686,-6.45125c-14.4385,-9.67686 -34.71382,-26.11217 -44.54428,-36.24983l-8.90886,-8.90886l8.44805,-12.59529l8.44805,-12.59529l8.75526,8.60165c4.91523,4.76162 12.28808,11.36648 16.43531,14.5921l7.68005,6.14404l2.61122,-5.22244c1.3824,-2.76482 4.45442,-11.36648 6.75844,-18.89292c2.30402,-7.68005 4.45442,-14.74569 4.76162,-15.8209c0.3072,-1.22881 1.22881,-1.8432 1.8432,-1.536c0.6144,0.3072 6.91204,3.22562 13.82409,6.60485z" fill="#ffffff"/></g></g></g></g></g></g></g></g></g></g></g></g></g></g></g></g></g></g></g></g></g></g></g></svg>