<svg version="1.1" xmlns="http://www.w3.org/2000/svg" xmlns:xlink="http://www.w3.org/1999/xlink" width="768" height="819.1875"><defs><clipPath id="clip-1"><rect x="33.00732" y="0" transform="scale(0.79999,0.79999)" width="894" height="1024" fill="none"/></clipPath></defs><g fill="none" fill-rule="nonzero" stroke="none" stroke-width="1" stroke-linecap="butt" stroke-linejoin="miter" stroke-miterlimit="10" stroke-dasharray="" stroke-dashoffset="0" font-family="none" font-weight="none" font-size="none" text-anchor="none" style="mix-blend-mode: normal"><g clip-path="url(#clip-1)"><g><path d="M477.19858,1.19998c-27.11959,3.19995 -54.63917,9.91985 -75.59885,18.55972c-36.87944,15.27977 -75.43885,43.99933 -115.59824,86.31868c-28.39957,29.91954 -34.79947,36.07945 -38.79941,37.11943c-4.79993,1.27998 -28.39957,0.55999 -37.99942,-1.11998c-10.87983,-1.99997 -19.5197,-4.31993 -24.15963,-6.5599c-5.27992,-2.55996 -12.23981,-10.07985 -15.35977,-16.55975c-7.83988,-16.55975 -7.83988,-26.0796 0.16,-41.67936c4.31993,-8.47987 4.87993,-13.99979 1.91997,-19.03971c-3.51995,-6.07991 -9.27986,-9.03986 -18.87971,-9.91985c-13.1198,-1.19998 -28.39957,5.43992 -43.75933,19.03971c-12.31981,10.95983 -21.27968,25.59961 -25.67961,41.83936c-1.99997,7.51989 -2.15997,9.11986 -2.15997,25.59961c-0.08,19.9197 0.79999,25.59961 6.7199,43.19934c3.51995,10.55984 2.39996,11.03983 -2.63996,1.35998c-4.23994,-7.99988 -5.91991,-12.8798 -7.75988,-21.91967c-0.95999,-4.55993 -2.39996,-9.75985 -3.19995,-11.59982c-4.47993,-10.07985 -15.91976,-8.23987 -28.87956,4.55993c-5.11992,5.03992 -6.7199,7.27989 -10.15984,14.39978c-5.51992,11.43983 -8.15988,22.23966 -8.71987,35.59946c-0.71999,16.71974 2.55996,30.95953 11.03983,47.67927c11.99982,23.99963 28.71956,41.43937 49.67924,51.99921l7.75988,3.91994l3.43995,6.5599c7.67988,14.79977 20.87968,23.43964 40.87938,26.63959c13.3598,2.15997 24.63962,1.11998 36.39944,-3.27995c2.79996,-1.03998 5.27992,-1.91997 5.51992,-1.91997c0.16,0 -2.63996,3.35995 -6.3199,7.35989c-13.2798,14.79977 -16.07975,19.5197 -14.71978,24.95962c0.63999,2.63996 4.79993,7.35989 8.55987,9.67985c11.27983,7.19989 31.83951,5.27992 48.55926,-4.47993c6.15991,-3.67994 18.79971,-16.47975 24.15963,-24.47963c2.39996,-3.59995 4.71993,-6.4799 5.11992,-6.3999c0.87999,0.32 6.7999,16.23975 6.7999,18.63972c0.08,0.87999 -1.19998,4.15994 -2.71996,7.19989c-4.39993,9.03986 -6.3199,17.03974 -6.3199,26.71959c0,13.83979 2.63996,19.19971 9.51985,19.19971c1.99997,0 4.87993,-0.55999 6.3999,-1.11998c1.51998,-0.63999 2.79996,-0.95999 2.79996,-0.63999c-0.24,18.79971 2.31996,32.9595 7.83988,44.07933c10.55984,21.11968 24.39963,32.5595 33.59949,27.75958c4.07994,-2.15997 9.75985,-10.07985 9.75985,-13.67979c0,-0.63999 0.24,-1.19998 0.63999,-1.19998c0.47999,0 14.39978,11.35983 21.51967,17.59973c4.15994,3.67994 4.39993,4.79993 2.63996,10.55984c-2.95995,9.51985 -6.5599,12.7998 -18.31972,17.03974c-14.71978,5.35992 -21.75967,13.51979 -24.71962,28.71956c-0.63999,3.59995 -1.75997,7.11989 -2.47996,7.99988c-0.71999,0.79999 -4.79993,3.19995 -9.03986,5.35992c-13.1998,6.6399 -16.07975,10.15984 -16.15975,19.9197c-0.08,3.27995 -0.39999,6.3999 -0.71999,6.95989c-0.32,0.47999 -3.11995,1.83997 -6.15991,3.03995c-3.35995,1.27998 -7.03989,3.43995 -9.35986,5.59991c-5.75991,5.11992 -7.59988,9.51985 -9.43986,22.23966c-0.55999,3.75994 -2.31996,4.87993 -9.99985,6.4799c-30.71953,6.2399 -56.55914,1.67997 -79.59879,-13.91979c-9.43986,-6.3999 -18.47972,-14.87977 -22.79965,-21.27968c-5.91991,-8.95986 -8.63987,-18.63972 -10.07985,-36.71944c-0.71999,-9.03986 -1.51998,-9.99985 -7.91988,-9.99985c-7.59988,0 -16.79974,1.43998 -23.91964,3.83994c-31.43952,10.31984 -53.83918,55.91915 -42.95934,87.51866c1.83997,5.35992 4.39993,10.39984 9.59985,18.95971l4.07994,6.7199v7.35989c0,4.71993 0.55999,9.59985 1.59998,13.51979c4.47993,17.67973 20.55969,37.03943 38.71941,46.79929c8.79987,4.63993 16.07975,9.35986 20.39969,13.2798c7.11989,6.3199 18.23972,12.63981 28.47957,16.15975c12.71981,4.31993 30.55953,5.35992 47.51927,2.71996l9.03986,-1.35998l-0.63999,3.99994c-0.39999,2.23997 -0.71999,6.7999 -0.71999,10.07985c0,9.59985 3.75994,15.67976 14.87977,24.07963c2.07997,1.59998 3.03995,3.11995 3.75994,6.15991c1.35998,5.11992 5.27992,9.67985 12.39981,14.47978c3.03995,1.99997 7.59988,5.03992 10.07985,6.6399l4.47993,3.03995h17.75973h17.75973l7.43989,-4.31993c36.15945,-20.79968 43.59933,-24.47963 53.51918,-26.79959c10.23984,-2.39996 24.47963,-3.59995 37.27943,-3.03995c17.59973,0.71999 25.75961,-1.75997 33.51949,-9.99985c8.15988,-8.71987 10.87983,-21.03968 7.83988,-35.59946c-2.95995,-14.23978 -10.07985,-21.35967 -21.51967,-21.35967c-6.6399,0.08 -9.51985,1.11998 -18.55972,7.19989c-3.59995,2.47996 -6.95989,4.23994 -7.43989,3.91994c-1.51998,-0.95999 -0.87999,-7.83988 1.11998,-12.15981c2.23997,-4.71993 3.27995,-5.51992 12.23981,-9.35986c8.79987,-3.75994 14.15978,-7.27989 21.27968,-13.99979c3.19995,-3.11995 6.7999,-5.91991 7.83988,-6.3999c2.31996,-0.87999 21.83967,-2.47996 32.7195,-2.71996l7.59988,-0.16l8.23987,5.43992c4.55993,2.95995 10.39984,6.4799 12.9598,7.75988c6.15991,3.11995 7.19989,5.03992 7.43989,14.47978c0.16,7.11989 0.08,7.35989 -2.07997,8.95986l-2.15997,1.67997l-10.23984,-4.23994c-15.99976,-6.7199 -18.31972,-7.43989 -23.83964,-7.11989c-10.63984,0.63999 -16.23975,8.95986 -16.31975,23.99963c0,13.3598 4.95992,25.75961 13.91979,34.71947c9.91985,9.91985 16.39975,11.11983 39.67939,7.27989c21.43967,-3.59995 35.67946,-4.95992 40.31938,-3.99994c2.23997,0.47999 9.75985,3.19995 16.63975,6.07991c15.03977,6.3199 29.19955,10.95983 41.11937,13.43979c11.67982,2.47996 35.19946,2.71996 43.91933,0.47999c13.0398,-3.43995 27.11959,-12.47981 30.87953,-19.99969c0.95999,-1.75997 1.91997,-5.43992 2.15997,-7.99988c0.39999,-4.79993 0.47999,-4.87993 6.7199,-10.87983c7.43989,-7.11989 10.15984,-11.27983 10.79984,-16.71974c0.55999,-4.79993 -0.55999,-8.47987 -4.63993,-15.51976c-7.03989,-12.07982 -22.47966,-23.99963 -45.43931,-35.27946c-11.19983,-5.43992 -14.07979,-6.4799 -18.23972,-6.7999c-3.91994,-0.24 -5.67991,0 -8.39987,1.35998c-3.59995,1.67997 -22.39966,20.15969 -32.15951,31.43952c-8.95986,10.39984 -14.79977,11.75982 -27.03959,5.99991c-7.75988,-3.51995 -13.2798,-8.87986 -15.27977,-14.71978c-1.83997,-5.11992 -1.35998,-6.15991 4.63993,-10.71984c9.75985,-7.35989 15.11977,-17.67973 16.79974,-32.7195c0.55999,-4.23994 2.07997,-7.83988 3.91994,-8.95986c0.47999,-0.24 4.63993,-3.27995 9.27986,-6.7199c15.03977,-11.19983 30.55953,-28.55956 39.75939,-44.39932c1.99997,-3.51995 3.99994,-6.5599 4.31993,-6.7999c0.32,-0.16 1.59998,1.51998 2.71996,3.83994c7.67988,15.43976 22.63965,16.55975 35.99945,2.63996c8.31987,-8.55987 14.31978,-22.23966 15.35977,-34.79947c0.63999,-8.55987 1.59998,-10.47984 6.95989,-13.51979c7.43989,-4.15994 11.35983,-12.15981 13.3598,-27.03959c2.55996,-19.03971 -2.15997,-36.39944 -14.31978,-52.79919c-7.43989,-9.99985 -14.23978,-14.47978 -30.23954,-19.9197c-12.15981,-4.07994 -17.83973,-6.8799 -22.63965,-11.19983c-4.07994,-3.67994 -9.35986,-10.47984 -8.63987,-11.19983c0.16,-0.16 3.83994,-1.27998 8.07988,-2.39996c29.27955,-7.59988 50.71923,-25.19962 63.59903,-52.1592c2.79996,-5.83991 3.91994,-6.7199 5.59991,-4.63993c1.91997,2.23997 7.99988,4.47993 12.39981,4.47993c9.67985,0 24.23963,-11.11983 31.91951,-24.31963c14.79977,-25.51961 17.99973,-66.07899 8.23987,-104.7984c-10.23984,-40.47938 -31.35952,-71.59891 -62.47905,-92.07859c-6.6399,-4.31993 -12.39981,-8.47987 -12.8798,-9.11986c-0.63999,-0.79999 -1.11998,-7.67988 -1.35998,-19.27971c-0.39999,-18.71971 -1.27998,-24.39963 -5.27992,-36.79944c-2.79996,-8.39987 -10.07985,-22.31966 -15.59976,-29.67955c-21.27968,-28.23957 -62.31905,-50.07924 -107.67836,-57.11913c-11.59982,-1.83997 -40.63938,-2.23997 -53.19919,-0.79999z" fill="#000000"/><path d="M535.59769,15.91976c28.95956,5.51992 54.47917,17.19974 77.43882,35.51946c24.31963,19.4397 34.87947,41.99936 36.31945,77.67881l0.47999,11.91982l-1.91997,-0.55999c-1.03998,-0.32 -5.75991,-0.79999 -10.39984,-1.03998c-13.0398,-0.63999 -20.47969,2.07997 -28.87956,10.71984c-7.59988,7.83988 -19.8397,29.51955 -23.51964,41.43937c-1.19998,3.91994 -2.23997,6.7999 -2.39996,6.3999c-0.16,-0.47999 -1.19998,-5.11992 -2.31996,-10.39984c-7.11989,-32.31951 -20.71968,-52.7192 -47.27928,-70.63892c-24.31963,-16.31975 -51.75921,-27.43958 -80.71877,-32.6395c-11.51982,-2.07997 -45.11931,-2.15997 -57.59912,-0.08c-28.55956,4.79993 -51.51921,13.75979 -75.59885,29.75955c-11.99982,7.99988 -21.51967,15.83976 -39.5994,32.7195c-27.99957,26.2396 -31.83951,29.27955 -36.79944,29.27955c-1.67997,0 -1.99997,-0.39999 -1.99997,-2.23997c0,-1.19998 0.63999,-3.35995 1.43998,-4.71993c5.51992,-10.31984 49.03925,-54.63917 78.8788,-80.47877c35.99945,-31.27952 56.23914,-44.79932 81.67875,-54.55917c11.43983,-4.39993 16.31975,-5.83991 37.99942,-11.11983c34.71947,-8.47987 40.71938,-9.27986 66.39899,-8.95986c15.83976,0.24 21.27968,0.55999 28.39957,1.99997z" fill="#ffb3b3"/><path d="M156.80347,58.7991c5.43992,1.11998 7.99988,3.11995 7.99988,6.2399c0,0.95999 -1.99997,5.83991 -4.39993,10.95983c-5.43992,11.43983 -6.7199,17.91973 -5.43992,27.03959c2.47996,16.87974 11.51982,32.31951 22.95965,38.95941c9.59985,5.59991 17.67973,7.27989 47.59927,9.99985c9.91985,0.87999 18.07972,1.75997 18.23972,1.91997c0.16,0.16 -1.83997,3.51995 -4.55993,7.43989c-4.55993,6.7999 -4.79993,7.43989 -4.79993,11.91982c0,2.95995 0.47999,5.43992 1.19998,6.4799c1.67997,2.39996 7.03989,3.83994 10.15984,2.71996c5.75991,-1.99997 14.55978,-9.11986 29.03956,-23.51964c23.99963,-23.83964 43.03934,-38.31942 65.519,-49.75924c38.55941,-19.5997 79.43879,-25.43961 118.79819,-17.03974c39.5994,8.39987 81.91875,32.7195 98.63849,56.63914c10.31984,14.63978 16.79974,34.07948 18.95971,56.79913c1.19998,12.71981 1.59998,22.71965 2.15997,61.99905c0.55999,39.75939 0.47999,41.11937 -4.47993,51.19922c-7.91988,16.31975 -28.71956,29.43955 -44.63932,28.15957c-2.79996,-0.24 -5.27992,-0.55999 -5.51992,-0.79999c-0.24,-0.24 0.63999,-3.11995 1.99997,-6.3199c2.79996,-6.7999 3.75994,-12.15981 2.95995,-16.39975l-0.55999,-3.03995l-3.03995,6.3999c-5.91991,12.63981 -13.59979,20.47969 -23.91964,24.15963c-4.31993,1.59998 -6.7199,1.91997 -13.2798,1.91997c-4.39993,-0.08 -8.55987,-0.16 -9.19986,-0.24c-2.63996,-0.47999 -1.75997,1.35998 1.59998,3.43995c4.07994,2.55996 11.59982,4.71993 16.07975,4.71993c4.23994,0 11.59982,-2.47996 16.23975,-5.43992c4.79993,-3.03995 9.83985,-3.43995 13.83979,-0.95999c3.19995,1.91997 3.91994,3.35995 5.91991,11.03983c2.63996,10.07985 6.15991,18.15972 11.11983,25.59961c9.75985,14.71978 21.67967,24.23963 40.87938,32.6395c4.55993,1.99997 8.95986,4.23994 9.75985,4.95992c0.79999,0.71999 2.55996,3.59995 3.91994,6.4799c3.19995,6.8799 11.03983,14.63978 18.63972,18.63972c3.11995,1.59998 10.47984,4.55993 16.39975,6.6399c12.39981,4.31993 17.83973,7.35989 23.83964,13.3598c8.15988,8.07988 13.67979,20.63969 15.51976,35.35946c0.87999,7.03989 0.79999,8.55987 -0.79999,17.51973c-1.59998,8.71987 -2.15997,10.31984 -5.19992,14.71978c-2.07997,3.11995 -3.51995,4.63993 -3.83994,3.99994c-0.47999,-0.87999 -2.47996,-7.83988 -5.19992,-18.15972c-2.79996,-10.47984 -3.67994,-12.7998 -4.79993,-12.7998c-1.51998,0 -1.43998,0.55999 1.03998,11.19983c1.91997,8.07988 2.15997,10.79984 2.15997,22.39966c0,12.07982 -0.16,13.83979 -2.15997,20.23969c-4.15994,13.43979 -9.99985,22.39966 -18.95971,28.95956c-2.15997,1.59998 -5.11992,3.11995 -6.6399,3.35995c-3.51995,0.55999 -7.35989,-1.43998 -8.95986,-4.55993c-1.91997,-3.67994 -3.03995,-15.11977 -2.63996,-26.95959c0.16,-7.19989 0,-10.63984 -0.55999,-10.63984c-0.47999,0 -3.67994,5.99991 -7.19989,13.3598c-11.27983,23.75964 -21.51967,39.0394 -34.07948,51.03922c-28.31957,27.03959 -66.39899,42.79935 -117.11821,48.39926c-9.03986,1.03998 -32.4795,2.23997 -33.43949,1.75997c-0.32,-0.16 -0.39999,-2.07997 -0.08,-4.23994c0.79999,-5.75991 -0.71999,-4.95992 -4.39993,2.31996c-7.27989,14.47978 -17.99973,23.43964 -34.71947,29.11956c-8.55987,2.87996 -20.31969,3.83994 -27.83958,2.31996c-14.15978,-2.95995 -26.87959,-14.55978 -31.91951,-29.11956c-1.91997,-5.43992 -2.95995,-17.11974 -1.67997,-18.87971c0.55999,-0.95999 4.23994,-1.27998 16.47975,-1.75997c42.47935,-1.67997 83.59872,-9.67985 101.99844,-19.7597c21.11968,-11.51982 35.99945,-30.71953 48.71926,-62.71904c3.27995,-8.15988 4.07994,-11.11983 4.07994,-14.87977c0,-5.11992 0.87999,-6.5599 3.99994,-6.5599c3.51995,0 11.27983,-2.31996 16.31975,-4.87993c4.55993,-2.31996 12.8798,-8.55987 12.23981,-9.19986c-0.16,-0.16 -2.07997,0.55999 -4.23994,1.59998c-11.99982,5.75991 -26.2396,7.51989 -37.83942,4.55993c-16.87974,-4.23994 -32.9595,-14.39978 -43.11934,-27.19958c-4.07994,-5.19992 -5.75991,-6.3199 -5.75991,-3.83994c0,0.55999 2.55996,4.87993 5.59991,9.51985c8.63987,13.2798 19.5997,21.67967 34.71947,27.03959c3.99994,1.35998 7.67988,2.87996 8.31987,3.43995c0.87999,0.71999 1.03998,2.31996 0.71999,6.95989c-0.32,4.95992 -1.11998,7.75988 -4.71993,15.99976c-13.59979,31.59952 -33.67949,51.83921 -59.0391,59.43909c-12.39981,3.75994 -38.07942,8.47987 -59.59909,11.11983c-11.83982,1.35998 -50.31923,1.35998 -60.39908,0c-13.0398,-1.83997 -20.71968,-4.07994 -29.99954,-8.55987c-10.23984,-5.03992 -16.95974,-10.55984 -19.5997,-16.15975c-1.51998,-3.27995 -1.75997,-4.79993 -1.43998,-10.39984c0.47999,-9.03986 2.95995,-13.1998 10.23984,-16.79974c8.79987,-4.39993 8.71987,-4.39993 15.27977,2.07997c8.71987,8.63987 19.9197,13.59979 40.23939,17.75973c8.71987,1.75997 22.55966,2.15997 28.79956,0.71999c3.03995,-0.63999 4.79993,-0.55999 9.83985,0.79999c3.35995,0.87999 7.43989,1.59998 8.95986,1.59998c2.79996,-0.08 2.79996,-0.08 -1.67997,-1.91997c-18.55972,-7.75988 -29.43955,-24.63962 -29.67955,-46.47929c-0.08,-3.99994 0.39999,-9.19986 0.95999,-11.59982c2.23997,-9.11986 8.63987,-18.63972 16.87974,-24.95962l2.79996,-2.15997l-2.31996,-0.08c-3.75994,0 -12.07982,4.47993 -15.59976,8.55987c-4.47993,4.95992 -8.47987,13.3598 -10.23984,21.03968c-1.03998,4.47993 -1.75997,6.3999 -2.63996,6.3999c-2.23997,0 -9.75985,-4.31993 -12.9598,-7.43989c-3.99994,-3.83994 -5.43992,-7.27989 -5.43992,-12.7998c0,-6.7199 2.07997,-11.51982 7.11989,-16.63975c3.35995,-3.27995 5.75991,-4.87993 9.67985,-6.3199c7.83988,-2.79996 14.07979,-6.15991 17.51973,-9.19986c3.35995,-3.03995 7.11989,-9.67985 9.27986,-16.31975l1.35998,-4.23994l4.15994,0.55999c17.27974,2.23997 24.71962,2.47996 36.07945,1.11998c17.43973,-2.15997 35.99945,-10.63984 45.03931,-20.63969c3.19995,-3.51995 5.99991,-7.27989 5.43992,-7.27989c-0.24,0 -5.43992,2.47996 -11.43983,5.51992c-19.3597,9.75985 -30.07954,12.39981 -50.23923,12.39981c-11.91982,0 -14.71978,-0.24 -22.55966,-2.07997c-12.07982,-2.87996 -18.95971,-6.5599 -26.3996,-13.99979c-5.03992,-5.11992 -6.4799,-7.19989 -11.19983,-17.03974c-2.95995,-6.15991 -5.67991,-11.19983 -5.99991,-11.19983c-0.24,0 -0.71999,1.91997 -1.03998,4.15994c-1.99997,16.31975 -3.35995,20.87968 -8.55987,28.47957l-2.39996,3.43995l-4.47993,-2.55996c-5.91991,-3.27995 -9.03986,-6.2399 -13.67979,-13.1998c-8.07988,-12.07982 -11.51982,-23.91964 -11.51982,-39.91939c0,-10.95983 0.87999,-17.11974 5.11992,-34.39948c1.27998,-5.27992 2.31996,-9.91985 2.31996,-10.23984c0,-1.67997 -3.03995,2.07997 -9.67985,11.83982c-6.95989,10.39984 -12.55981,17.19974 -14.15978,17.19974c-1.19998,0 -2.07997,-11.11983 -1.43998,-18.87971c1.35998,-16.55975 8.07988,-30.79953 22.15966,-46.71929c3.51995,-3.91994 6.15991,-7.19989 5.91991,-7.19989c-1.83997,0 -6.6399,3.59995 -12.55981,9.43986l-7.03989,6.7999l-1.91997,-4.31993c-2.63996,-5.83991 -4.23994,-14.31978 -4.87993,-26.3196c-0.32,-5.51992 -0.63999,-10.07985 -0.71999,-10.23984c-0.16,-0.08 -1.27998,2.23997 -2.47996,5.19992c-8.31987,19.7597 -15.35977,31.75952 -24.07963,41.03937c-15.35977,16.23975 -34.31948,23.27964 -49.75924,18.47972c-7.19989,-2.23997 -9.75985,-4.31993 -9.75985,-7.91988c0,-3.59995 0.79999,-4.79993 12.8798,-18.71971c15.35977,-17.67973 31.27952,-36.95944 32.15951,-38.87941c0.47999,-0.95999 0.63999,-1.99997 0.39999,-2.23997c-0.24,-0.24 -6.7199,3.83994 -14.31978,8.95986c-19.19971,12.9598 -28.63956,17.03974 -42.87935,18.63972c-16.87974,1.83997 -32.31951,-3.27995 -43.59933,-14.39978c-3.03995,-2.95995 -5.43992,-5.91991 -5.43992,-6.7199c0,-1.19998 0.55999,-1.35998 3.99994,-0.95999c6.15991,0.71999 22.31966,-0.87999 30.95953,-3.03995c15.35977,-3.91994 33.91948,-15.03977 44.07933,-26.4796c5.91991,-6.6399 5.67991,-9.11986 -0.39999,-3.91994c-1.75997,1.51998 -6.07991,4.47993 -9.51985,6.6399c-19.19971,11.75982 -38.55941,17.75973 -57.51912,17.75973c-18.31972,0 -35.11946,-8.39987 -53.35919,-26.79959c-19.7597,-19.7597 -30.23954,-44.71932 -30.23954,-71.75891c0,-14.31978 3.19995,-25.9996 10.07985,-36.23945c7.83988,-11.83982 20.15969,-19.7597 22.23966,-14.23978c0.32,0.71999 1.35998,5.35992 2.39996,10.15984c4.79993,22.71965 14.23978,36.71944 33.27949,49.43925c20.47969,13.67979 40.47938,19.6797 61.99905,18.71971c12.63981,-0.55999 22.63965,-2.47996 21.11968,-4.07994c-0.24,-0.16 -2.71996,0 -5.51992,0.39999c-7.75988,1.11998 -22.63965,0.95999 -30.79953,-0.39999c-31.27952,-5.03992 -52.6392,-25.43961 -59.67909,-56.79913c-3.27995,-14.79977 -4.07994,-33.19949 -1.91997,-45.6793c5.11992,-29.59955 21.83967,-50.63923 48.63926,-61.19907c6.5599,-2.55996 11.67982,-2.87996 19.7597,-1.11998z" fill="#ffb3b3"/><path d="M646.87599,150.23771c13.1198,4.63993 29.35955,15.03977 40.71938,26.1596c22.39966,21.99966 37.19943,51.59921 42.79935,85.59869c5.11992,31.27952 2.71996,59.51909 -6.7199,78.8788c-6.3199,12.7998 -21.59967,27.11959 -29.03956,27.11959c-3.67994,0 -6.6399,-2.39996 -13.91979,-11.27983c-11.11983,-13.59979 -17.43973,-17.11974 -29.19955,-16.55975c-9.83985,0.47999 -14.95977,3.75994 -33.11949,21.03968c-9.11986,8.63987 -14.55978,11.91982 -22.07966,13.2798c-7.19989,1.35998 -20.15969,-1.35998 -27.11959,-5.67991c-5.91991,-3.67994 -13.59979,-14.63978 -13.0398,-18.63972c0.16,-0.95999 1.83997,-2.87996 3.83994,-4.39993c7.83988,-5.75991 10.15984,-7.83988 13.99979,-12.23981c4.79993,-5.59991 9.35986,-14.31978 11.27983,-21.51967c2.07997,-7.91988 2.39996,-24.07963 0.71999,-39.0394c-1.99997,-17.67973 -1.35998,-39.5194 1.51998,-54.79916c4.31993,-22.55966 14.55978,-47.75927 23.35964,-57.27913c11.75982,-12.71981 21.59967,-15.59976 35.99945,-10.63984z" fill="#ffb3b3"/><path d="M663.43574,349.83466c1.91997,1.11998 4.87993,3.59995 6.4799,5.43992c2.87996,3.11995 3.03995,3.59995 2.71996,7.43989c-0.87999,8.95986 -7.75988,21.19968 -17.75973,31.51952c-9.91985,10.31984 -21.67967,17.83973 -34.47947,22.23966c-5.51992,1.91997 -7.67988,2.23997 -15.59976,2.23997c-10.87983,0.08 -16.55975,-1.27998 -26.1596,-5.91991c-11.27983,-5.59991 -21.83967,-15.03977 -29.35955,-26.4796c-2.95995,-4.55993 -12.47981,-27.03959 -12.47981,-29.59955c0,-1.75997 1.35998,-2.79996 4.47993,-3.35995c1.43998,-0.24 3.43995,-0.71999 4.55993,-0.95999c1.83997,-0.47999 2.23997,0 5.35992,5.91991c9.75985,18.71971 32.4795,27.67958 52.79919,20.87968c7.27989,-2.39996 11.99982,-5.75991 21.59967,-15.27977c13.51979,-13.43979 19.6797,-16.95974 28.95956,-16.47975c3.91994,0.24 6.2399,0.87999 8.87986,2.39996z" fill="#ffb3b3"/><path d="M111.60416,543.51171c1.19998,0.79999 1.59998,2.63996 2.07997,9.75985c1.03998,13.91979 5.35992,25.27961 14.07979,36.87944c12.63981,16.87974 33.75948,29.27955 59.83909,35.19946c5.03992,1.11998 9.67985,1.43998 21.59967,1.43998c13.67979,-0.08 16.15975,-0.32 24.47963,-2.23997c5.11992,-1.19998 9.83985,-1.99997 10.39984,-1.75997c0.63999,0.24 3.19995,2.71996 5.75991,5.51992c11.11983,12.47981 26.1596,18.95971 53.83918,23.27964l8.87986,1.43998l0.39999,8.47987c0.47999,9.51985 3.03995,18.47972 7.03989,25.11962c1.35998,2.15997 2.39996,4.07994 2.39996,4.39993c0,0.55999 -3.83994,2.79996 -29.35955,17.11974c-13.99979,7.75988 -12.7998,7.59988 -22.47966,2.71996c-8.39987,-4.23994 -14.39978,-5.59991 -19.5197,-4.47993c-9.11986,1.91997 -19.99969,9.99985 -32.23951,23.83964c-3.99994,4.55993 -8.31987,8.87986 -9.59985,9.67985c-2.63996,1.67997 -17.11974,3.67994 -31.99951,4.55993c-14.55978,0.79999 -26.71959,-2.07997 -38.79941,-9.19986c-2.95995,-1.75997 -5.83991,-3.83994 -6.4799,-4.55993c-1.03998,-1.27998 -0.79999,-1.35998 3.03995,-0.87999c2.23997,0.24 8.23987,0.16 13.3598,-0.24c23.91964,-1.75997 49.27925,-10.15984 67.43897,-22.31966c6.2399,-4.15994 10.87983,-8.07988 9.67985,-8.07988c-0.24,0 -4.87993,2.15997 -10.31984,4.79993c-28.87956,13.83979 -65.759,19.99969 -90.15862,14.79977c-21.43967,-4.47993 -37.03943,-15.67976 -48.87925,-35.11946c-3.19995,-5.11992 -7.75988,-17.19974 -7.11989,-18.79971c0.08,-0.39999 3.75994,1.35998 8.07988,3.91994c14.39978,8.55987 30.23954,13.91979 47.19928,15.99976c10.87983,1.35998 36.23945,0.55999 50.15923,-1.51998c24.71962,-3.75994 47.75927,-11.59982 61.11907,-20.79968c6.07991,-4.23994 4.95992,-4.15994 -5.67991,0.24c-24.39963,10.07985 -44.63932,14.47978 -71.03892,15.43976c-19.5197,0.63999 -35.51946,-1.35998 -52.95919,-6.6399c-23.59964,-7.11989 -38.79941,-20.23969 -48.07927,-41.59937c-6.6399,-15.27977 -7.19989,-25.75961 -2.07997,-41.03937c8.15988,-24.39963 23.35964,-39.5194 45.11931,-44.87932c7.35989,-1.83997 8.87986,-1.91997 10.79984,-0.47999z" fill="#ffffff"/><path d="M302.96124,560.55145c2.07997,1.59998 6.8799,4.87993 10.63984,7.27989c10.47984,6.6399 11.51982,7.99988 18.47972,22.15966c3.43995,7.03989 6.3199,13.0398 6.3199,13.3598c0,1.03998 -11.19983,0.71999 -18.79971,-0.55999c-14.55978,-2.31996 -28.95956,-8.31987 -35.03947,-14.47978c-11.35983,-11.51982 -9.99985,-21.27968 3.83994,-28.23957c6.5599,-3.35995 9.67985,-3.27995 14.55978,0.47999z" fill="#ffffff"/><path d="M538.23765,666.30983c-0.79999,8.07988 -7.43989,17.83973 -14.95977,21.91967c-11.43983,6.2399 -30.63953,5.91991 -44.07933,-0.79999c-3.27995,-1.67997 -5.99991,-3.35995 -5.99991,-3.83994c0,-0.55999 61.75906,-20.71968 64.71901,-21.11968c0.39999,-0.08 0.47999,1.67997 0.32,3.83994z" fill="#ffffff"/><path d="M626.4763,694.5494c12.31981,6.07991 18.71971,10.07985 26.87959,16.87974c9.75985,7.99988 17.75973,19.03971 17.83973,24.47963c0,3.43995 -3.19995,8.79987 -7.03989,11.75982l-3.67994,2.79996l-13.1998,-13.51979c-12.39981,-12.55981 -13.75979,-13.75979 -20.39969,-17.03974c-6.5599,-3.19995 -7.59988,-3.51995 -13.1998,-3.43995c-7.75988,0 -10.95983,1.51998 -21.19968,10.07985c-5.59991,4.63993 -7.51989,6.7199 -6.8799,7.35989c0.55999,0.55999 1.19998,0.55999 2.23997,-0.08c20.87968,-13.3598 25.43961,-14.55978 36.15945,-9.27986c5.19992,2.63996 23.27964,20.15969 26.63959,25.83961c7.03989,12.07982 6.15991,19.9197 -3.11995,27.11959c-9.67985,7.51989 -21.19968,10.79984 -37.91942,10.79984c-19.27971,-0.08 -36.95944,-4.55993 -62.31905,-15.83976c-21.19968,-9.43986 -26.79959,-9.67985 -62.87904,-3.11995c-7.75988,1.35998 -12.8798,1.91997 -16.79974,1.67997c-15.51976,-1.03998 -23.91964,-12.63981 -25.67961,-35.11946c-0.63999,-8.07988 0.32,-11.75982 3.75994,-14.71978c1.99997,-1.67997 3.27995,-1.99997 7.19989,-1.99997c4.23994,0 5.75991,0.55999 15.59976,5.59991c8.87986,4.55993 11.67982,5.59991 14.63978,5.59991c4.79993,0 8.79987,-2.15997 11.11983,-6.07991c1.67997,-2.87996 1.83997,-3.91994 1.59998,-12.39981l-0.24,-9.35986l5.19992,-0.47999c2.87996,-0.24 7.91988,-0.47999 11.19983,-0.47999l5.99991,0.08l3.11995,6.5599c6.5599,13.91979 20.47969,22.95965 35.35946,22.95965c7.83988,0 11.75982,-2.47996 21.35967,-13.51979c11.67982,-13.2798 21.99966,-23.83964 26.1596,-26.63959c5.43992,-3.59995 9.03986,-3.03995 22.47966,3.51995z" fill="#ffffff"/><path d="M332.24079,700.62931c2.79996,2.47996 3.03995,3.75994 1.75997,9.67985c-0.63999,3.11995 -1.67997,6.8799 -2.31996,8.31987c-2.87996,6.95989 -10.23984,11.59982 -19.3597,12.39981c-6.15991,0.47999 -9.43986,-0.63999 -17.03974,-5.51992l-5.91991,-3.75994l5.91991,-3.83994c3.27995,-2.07997 9.91985,-6.2399 14.71978,-9.35986c4.87993,-3.03995 10.39984,-6.6399 12.39981,-7.91988c3.91994,-2.55996 7.03989,-2.55996 9.83985,0z" fill="#ffffff"/><path d="M358.0004,712.06913c6.15991,0.95999 11.35983,1.83997 11.51982,1.99997c0.16,0.16 -0.32,2.63996 -1.03998,5.51992c-1.99997,7.91988 -0.47999,14.71978 3.59995,16.39975c1.27998,0.55999 4.23994,0.87999 6.5599,0.63999c3.43995,-0.24 5.27992,-1.11998 10.15984,-4.47993c3.35995,-2.23997 7.03989,-4.47993 8.31987,-4.87993c3.59995,-1.43998 9.35986,-1.03998 12.31981,0.71999c7.51989,4.55993 10.71984,24.79962 5.51992,34.87947c-2.79996,5.51992 -9.19986,11.19983 -14.39978,12.71981c-2.87996,0.87999 -10.15984,1.51998 -22.95965,2.07997c-10.39984,0.39999 -23.03965,1.19998 -28.15957,1.83997c-10.55984,1.19998 -15.99976,3.27995 -26.63959,10.47984c-28.23957,18.87971 -54.95916,24.55963 -77.19882,16.39975c-18.39972,-6.6399 -21.27968,-14.79977 -11.99982,-34.23948c6.95989,-14.55978 17.67973,-25.9996 26.1596,-27.75958c3.51995,-0.71999 10.87983,1.27998 18.47972,5.11992c3.51995,1.75997 6.5599,2.95995 6.8799,2.71996c1.75997,-1.75997 -0.16,-3.43995 -9.67985,-8.23987c-16.63975,-8.31987 -21.43967,-7.59988 -33.51949,4.95992c-7.11989,7.51989 -10.79984,12.9598 -15.51976,23.35964c-1.99997,4.23994 -3.83994,7.67988 -4.23994,7.67988c-1.27998,0 -7.67988,-6.5599 -8.87986,-9.11986c-5.43992,-11.51982 6.3999,-33.75948 25.51961,-48.07927c7.75988,-5.83991 11.59982,-7.59988 16.31975,-7.59988c4.47993,0 7.03989,1.19998 26.0796,12.47981c17.75973,10.47984 20.31969,11.59982 27.51958,12.07982c16.47975,1.11998 28.55956,-7.99988 33.43949,-25.35961c1.11998,-4.23994 1.51998,-4.87993 2.95995,-4.47993c0.95999,0.16 6.7199,1.11998 12.8798,2.15997z" fill="#ffffff"/><path d="M387.99994,164.47749c-9.59985,1.67997 -12.23981,2.31996 -16.79974,4.23994c-10.47984,4.39993 -21.19968,13.2798 -27.99957,23.27964c-4.23994,6.2399 -7.83988,13.99979 -11.19983,24.31963c-2.71996,8.15988 -5.03992,11.67982 -7.83988,11.67982c-0.87999,0 -3.91994,-0.71999 -6.7199,-1.59998c-7.03989,-2.15997 -11.59982,-6.3199 -15.59976,-13.99979c-1.67997,-3.27995 -3.35995,-5.99991 -3.75994,-5.99991c-0.32,0 -0.39999,2.07997 -0.08,4.55993c1.43998,11.35983 7.03989,19.3597 16.15975,23.03965c11.11983,4.39993 13.2798,7.83988 12.8798,20.71968c-0.24,7.59988 -0.32,7.99988 -2.47996,9.59985c-1.91997,1.43998 -3.43995,1.67997 -9.59985,1.67997c-8.47987,0 -13.67979,-1.43998 -19.7597,-5.67991c-4.95992,-3.43995 -5.91991,-2.23997 -1.99997,2.47996c5.67991,7.03989 13.67979,11.19983 22.79965,11.99982c11.19983,1.03998 15.27977,4.63993 15.51976,13.67979c0.08,4.87993 -1.11998,6.5599 -6.5599,9.11986c-3.11995,1.51998 -4.63993,1.67997 -10.07985,1.35998c-3.59995,-0.24 -7.75988,-0.71999 -9.27986,-1.03998c-2.47996,-0.47999 -2.63996,-0.39999 -1.75997,0.63999c0.55999,0.71999 3.19995,2.23997 5.99991,3.43995c6.4799,2.95995 14.15978,3.43995 21.35967,1.43998l5.19992,-1.51998l5.27992,8.07988c6.95989,10.55984 13.99979,17.99973 24.47963,25.83961c11.03983,8.23987 16.87974,11.51982 24.71962,14.23978c5.99991,2.07997 7.03989,2.23997 21.91967,2.23997c16.63975,0 23.67964,-0.87999 38.31942,-4.79993c27.03959,-7.27989 40.39938,-17.11974 45.43931,-33.51949c2.15997,-7.11989 1.91997,-33.91948 -0.39999,-46.95928c-3.35995,-18.63972 -10.23984,-35.67946 -20.31969,-50.47923c-15.19977,-22.15966 -44.63932,-44.31932 -66.55898,-50.07924c-5.99991,-1.59998 -17.51973,-2.63996 -21.27968,-1.99997z" fill="#000000"/><path d="M409.9996,178.71727c14.07979,6.95989 29.03956,19.4397 38.63941,32.07951c8.87986,11.83982 16.39975,30.15954 18.95971,46.39929c4.95992,31.51952 0,48.87925 -16.95974,59.67909c-10.95983,6.8799 -22.15966,9.75985 -38.23942,9.83985c-11.75982,0 -16.63975,-0.71999 -27.11959,-3.99994c-17.03974,-5.43992 -32.15951,-17.19974 -39.1994,-30.71953c-3.43995,-6.4799 -3.43995,-8.07988 -0.08,-3.19995c10.71984,15.43976 35.43946,25.9996 57.51912,24.55963c15.03977,-1.03998 27.35958,-5.75991 34.95947,-13.3598c8.15988,-8.07988 11.19983,-17.35974 11.27983,-33.59949c0.08,-16.47975 -3.27995,-31.51952 -10.55984,-46.95928c-9.27986,-19.5997 -21.51967,-32.4795 -39.2794,-41.03937c-3.59995,-1.75997 -6.7999,-3.35995 -7.03989,-3.67994c-0.24,-0.32 1.83997,-0.32 4.63993,-0.08c3.91994,0.32 6.95989,1.27998 12.47981,4.07994z" fill="#ffb3b3"/><path d="M417.19949,202.71691c8.47987,4.95992 12.63981,18.55972 8.39987,27.35958c-1.91997,3.83994 -6.3199,6.2399 -10.31984,5.43992c-6.4799,-1.27998 -13.1998,-11.83982 -13.1998,-20.63969c0,-5.91991 1.99997,-10.47984 5.43992,-12.55981c3.27995,-1.99997 5.67991,-1.91997 9.67985,0.39999z" fill="#ffffff"/><path d="M458.79886,209.7568c9.75985,10.55984 16.79974,21.19968 21.51967,32.7195c6.2399,15.19977 9.75985,31.19952 10.63984,48.71926c1.35998,28.15957 -7.35989,39.3594 -37.51943,47.91927c-17.03974,4.87993 -34.39948,6.95989 -47.67927,5.67991c-14.87977,-1.35998 -32.6395,-11.35983 -44.95931,-25.19962l-1.99997,-2.23997l3.59995,2.15997c7.91988,4.79993 19.99969,9.67985 28.87956,11.59982c7.99988,1.75997 21.19968,2.47996 29.43955,1.67997c23.99963,-2.47996 42.23936,-12.8798 49.67924,-28.31957c1.67997,-3.59995 3.51995,-8.63987 4.07994,-11.27983c1.51998,-7.35989 1.27998,-29.59955 -0.47999,-38.79941c-3.27995,-17.43973 -11.19983,-35.03947 -21.91967,-48.55926c-1.75997,-2.31996 -3.27995,-4.39993 -3.27995,-4.63993c0,-1.11998 5.03992,3.19995 9.99985,8.55987z" fill="#ffffff"/></g></g></g></svg>