<svg version="1.1" xmlns="http://www.w3.org/2000/svg" xmlns:xlink="http://www.w3.org/1999/xlink" width="768" height="829.4375"><defs><clipPath id="clip-1"><rect x="0" y="6.37964" transform="scale(3.45946,3.45946)" width="222" height="227" fill="none"/></clipPath></defs><g fill="none" fill-rule="nonzero" stroke="none" stroke-width="1" stroke-linecap="butt" stroke-linejoin="miter" stroke-miterlimit="10" stroke-dasharray="" stroke-dashoffset="0" font-family="none" font-weight="none" font-size="none" text-anchor="none" style="mix-blend-mode: normal"><g clip-path="url(#clip-1)"><g><path d="M333.83784,34.52416c-3.80541,0.69189 -15.56757,3.11351 -25.94595,5.18919c-43.58919,8.3027 -95.82703,30.0973 -137.34054,57.08108c-26.29189,16.95135 -85.79459,77.14595 -103.09189,103.43784c-30.44324,46.7027 -52.23784,102.05405 -60.54054,154.98378c-6.91892,41.85946 -2.76757,117.27568 8.3027,157.75135c39.43784,141.83784 150.48649,245.27568 295.78378,275.37297c35.28649,7.26486 111.74054,7.26486 147.37297,0c137.68649,-28.36757 245.27568,-124.19459 288.86486,-257.38378c14.52973,-45.31892 18.33514,-75.76216 16.25946,-134.22703c-2.07568,-57.77297 -8.3027,-86.14054 -29.75135,-135.95676c-39.43784,-91.32973 -120.73514,-169.51351 -213.1027,-203.76216c-44.28108,-16.60541 -70.57297,-21.44865 -126.27027,-22.83243c-29.40541,-0.69189 -56.73514,-0.69189 -60.54054,0.34595z" fill="#000000"/><path d="M400.25946,82.2647l39.09189,42.8973l-11.07027,9.68649l-11.41622,9.34054l-24.21622,-25.94595c-13.14595,-14.18378 -33.9027,-36.67027 -46.01081,-50.16216c-20.06486,-22.83243 -21.1027,-24.90811 -13.83784,-26.29189c25.94595,-4.84324 26.63784,-4.84324 67.45946,40.47568z" fill="#ffffff"/><path d="M438.65946,68.08091l28.36757,28.71351l-11.41622,11.07027l-11.41622,11.07027l-35.28649,-37.70811c-19.37297,-20.75676 -35.28649,-38.74595 -35.28649,-39.78378c0,-1.03784 8.3027,-2.07568 18.33514,-2.07568h17.98919z" fill="#ffffff"/><path d="M474.63784,50.09172c16.95135,3.80541 30.44324,8.3027 29.75135,9.68649c-0.69189,1.38378 -8.3027,8.99459 -16.95135,16.60541l-15.56757,14.52973l-23.87027,-23.87027c-23.17838,-23.17838 -23.52432,-24.21622 -14.18378,-24.21622c5.53514,0 23.87027,3.11351 40.82162,7.26486z" fill="#ffffff"/><path d="M363.93514,97.83226l47.39459,51.2l-9.68649,9.34054l-9.68649,9.34054l-52.58378,-57.08108c-28.71351,-31.13514 -52.23784,-57.77297 -52.23784,-58.46486c0,-2.07568 11.07027,-4.4973 22.83243,-5.53514c4.84324,-0.34595 20.75676,14.52973 53.96757,51.2z" fill="#ffffff"/><path d="M273.2973,64.27551c-0.34595,8.99459 -5.53514,33.55676 -7.95676,35.97838c-1.38378,1.38378 -50.50811,-7.61081 -61.23243,-11.07027c-6.57297,-2.42162 -1.72973,-5.18919 34.59459,-21.1027c30.78919,-13.49189 34.59459,-13.83784 34.59459,-3.80541z" fill="#ffffff"/><path d="M540.71351,72.92416c5.18919,2.42162 9.34054,6.22703 9.34054,8.3027c0,2.07568 3.11351,31.82703 7.26486,65.72973c3.80541,34.24865 6.22703,64.34595 5.18919,67.11351c-1.03784,3.45946 -6.57297,5.18919 -15.22162,5.18919h-13.14595l-8.64865,-77.83784c-9.34054,-87.17838 -10.72432,-81.64324 15.22162,-68.4973z" fill="#ffffff"/><path d="M359.09189,142.45929l28.36757,31.13514l-26.63784,24.21622c-14.87568,13.49189 -27.32973,23.87027 -28.02162,23.52432c-0.34595,-0.69189 -10.72432,-35.97838 -22.83243,-78.52973l-22.14054,-77.49189l21.1027,22.83243c11.76216,12.45405 34.24865,37.01622 50.16216,54.31351z" fill="#0000ff"/><path d="M324.4973,224.44848c-1.38378,1.72973 -65.72973,-11.76216 -68.15135,-13.83784c-1.72973,-1.72973 19.71892,-126.61622 23.17838,-136.3027c1.03784,-2.76757 11.76216,29.75135 23.87027,72.3027c12.10811,42.20541 21.79459,77.49189 21.1027,77.83784z" fill="#0000ff"/><path d="M475.32973,151.45389c-14.52973,41.16757 -27.67568,74.72432 -28.71351,74.72432c-1.03784,0 -12.8,-12.10811 -25.94595,-26.29189l-24.21622,-26.29189l51.89189,-49.47027c28.36757,-27.32973 52.23784,-48.77838 52.58378,-48.43243c0.69189,0.69189 -10.72432,34.94054 -25.6,75.76216z" fill="#0000ff"/><path d="M518.91892,143.15118c3.80541,34.94054 6.91892,66.76757 6.91892,70.91892c0,7.26486 -2.42162,7.95676 -32.86486,12.10811c-18.33514,2.42162 -33.9027,3.45946 -35.28649,2.42162c-1.03784,-1.38378 10.03243,-35.63243 24.90811,-76.8c14.87568,-40.82162 27.67568,-74.03243 28.02162,-73.34054c0.69189,0.69189 4.4973,29.75135 8.3027,64.69189z" fill="#0000ff"/><path d="M588.10811,103.3674c2.76757,7.95676 14.87568,105.51351 13.14595,107.24324c-0.69189,0.69189 -7.26486,1.72973 -14.87568,2.42162l-13.83784,1.03784l-5.53514,-44.97297c-3.11351,-24.90811 -6.57297,-55.00541 -7.95676,-66.76757l-2.42162,-22.14054l14.52973,8.3027c7.95676,4.15135 15.56757,11.07027 16.95135,14.87568z" fill="#ffffff"/><path d="M230.05405,101.63767c18.33514,3.80541 34.24865,6.91892 35.28649,6.91892c0.69189,0 0.69189,2.76757 0,5.88108c-1.03784,3.45946 -2.76757,10.03243 -3.80541,15.22162l-1.72973,8.64865l-50.50811,-10.37838c-27.67568,-5.53514 -50.16216,-11.07027 -50.16216,-12.45405c0,-3.80541 25.25405,-20.41081 31.48108,-20.41081c3.11351,-0.34595 21.1027,2.76757 39.43784,6.57297z" fill="#ffffff"/><path d="M616.82162,119.9728c12.45405,10.72432 13.14595,12.10811 17.98919,47.04865c2.76757,20.06486 4.15135,37.36216 3.11351,39.09189c-2.07568,3.45946 -29.05946,3.80541 -29.05946,0c0,-1.38378 -2.42162,-21.1027 -5.18919,-43.93514c-7.61081,-61.57838 -7.95676,-60.54054 13.14595,-42.20541z" fill="#ffffff"/><path d="M213.1027,135.88632l44.62703,9.34054l-1.03784,12.10811c-0.69189,6.22703 -2.42162,12.8 -3.80541,14.52973c-2.07568,2.07568 -103.78378,-17.2973 -125.57838,-23.87027c-4.84324,-1.38378 -3.45946,-3.80541 6.91892,-13.49189c14.52973,-13.49189 7.95676,-13.49189 78.87568,1.38378z" fill="#ffffff"/><path d="M668.71351,170.82686c11.07027,12.45405 19.37297,23.87027 18.68108,25.94595c-1.03784,3.11351 -36.67027,10.03243 -39.09189,7.61081c-0.69189,-0.69189 -3.45946,-15.22162 -5.88108,-32.51892c-5.53514,-37.36216 -5.18919,-37.36216 26.29189,-1.03784z" fill="#ffffff"/><path d="M183.00541,167.3674c35.28649,7.61081 65.38378,13.83784 66.76757,13.83784c2.76757,0 0.34595,23.87027 -2.76757,27.32973c-1.03784,1.03784 -116.23784,-21.44865 -141.14595,-28.02162l-13.49189,-3.11351l11.76216,-12.10811c6.22703,-6.57297 12.10811,-11.76216 13.14595,-11.76216c1.38378,0 30.78919,6.22703 65.72973,13.83784z" fill="#ffffff"/><path d="M421.01622,210.61064l26.98378,29.40541l34.24865,-5.18919c50.85405,-7.61081 45.66486,-11.07027 50.50811,34.59459l4.15135,39.78378l35.97838,19.02703c19.71892,10.72432 35.97838,20.06486 35.97838,21.1027c0,1.03784 -8.64865,16.60541 -19.02703,34.59459c-10.37838,18.33514 -19.02703,34.24865 -19.02703,35.63243c0,1.72973 6.91892,17.64324 15.56757,35.63243c8.64865,18.33514 15.56757,34.24865 15.56757,35.97838c0,1.72973 -15.91351,10.03243 -34.94054,18.33514c-19.02703,8.64865 -35.28649,16.60541 -36.32432,17.98919c-0.69189,1.38378 -4.4973,19.37297 -8.3027,39.43784c-3.45946,20.41081 -7.26486,37.70811 -7.95676,38.74595c-1.03784,0.69189 -19.02703,-1.72973 -40.12973,-6.22703l-38.05405,-7.61081l-30.0973,27.67568l-29.75135,27.67568l-22.83243,-24.56216c-12.45405,-13.49189 -24.90811,-26.98378 -28.02162,-30.44324c-5.18919,-5.18919 -8.3027,-5.18919 -38.4,-0.69189c-52.23784,7.26486 -47.04865,11.07027 -51.89189,-34.94054l-4.15135,-39.43784l-33.55676,-17.98919c-18.33514,-9.68649 -34.59459,-18.68108 -35.97838,-20.06486c-1.38378,-1.72973 5.88108,-17.64324 16.60541,-35.97838c10.37838,-18.33514 19.02703,-34.59459 19.02703,-36.67027c0,-1.72973 -6.91892,-17.64324 -15.56757,-35.28649c-8.64865,-17.64324 -15.56757,-33.55676 -15.56757,-35.63243c0,-2.07568 16.25946,-10.72432 35.63243,-19.71892l35.28649,-15.56757l7.61081,-39.43784c4.4973,-21.44865 8.64865,-39.78378 9.34054,-40.47568c0.69189,-1.03784 18.68108,2.07568 39.78378,6.22703l38.4,7.61081l28.36757,-26.29189c15.91351,-14.52973 29.75135,-26.29189 31.13514,-26.63784c1.03784,0 14.52973,13.14595 29.40541,29.40541z" fill="#ffffff"/><path d="M95.13514,205.42145c4.84324,9.34054 8.64865,18.68108 8.64865,20.75676c0,3.80541 -55.00541,32.51892 -57.77297,30.0973c-2.76757,-2.76757 34.59459,-68.15135 39.09189,-68.15135c0.69189,0 5.18919,7.61081 10.03243,17.2973z" fill="#ffffff"/><path d="M175.39459,202.30794c37.70811,7.95676 68.84324,14.52973 69.53514,15.22162c1.72973,1.38378 -10.37838,65.38378 -12.8,68.4973c-1.38378,1.38378 -31.13514,-20.06486 -65.72973,-47.74054c-34.94054,-27.67568 -62.61622,-50.16216 -61.57838,-50.16216c1.38378,0 32.86486,6.22703 70.57297,14.18378z" fill="#0000ff"/><path d="M161.55676,243.82145c33.9027,26.63784 61.92432,49.81622 62.61622,51.2c1.03784,2.76757 -61.57838,32.86486 -63.30811,30.78919c-2.42162,-2.76757 -63.30811,-130.76757 -61.92432,-130.76757c0.69189,0 29.05946,21.79459 62.61622,48.77838z" fill="#0000ff"/><path d="M676.32432,211.64848c-9.68649,8.3027 -130.42162,87.52432 -131.45946,86.48649c-2.07568,-2.07568 -10.03243,-68.4973 -8.3027,-69.88108c1.38378,-1.38378 123.84865,-18.33514 136.3027,-19.02703c3.80541,-0.34595 5.18919,1.03784 3.45946,2.42162z" fill="#0000ff"/><path d="M711.26486,230.67551c1.03784,3.80541 -9.68649,25.94595 -31.48108,64c-18.33514,31.82703 -34.59459,58.81081 -35.63243,60.19459c-1.38378,1.03784 -7.26486,-0.34595 -13.49189,-3.45946l-11.07027,-5.88108l38.74595,-68.15135c38.4,-67.11351 38.74595,-67.80541 44.62703,-60.54054c3.45946,4.15135 6.91892,10.37838 8.3027,13.83784z" fill="#ffffff"/><path d="M678.74595,227.21605c-3.80541,6.57297 -19.37297,34.59459 -35.28649,62.27027c-15.56757,28.02162 -29.05946,50.85405 -30.0973,50.85405c-3.80541,0 -63.30811,-32.17297 -63.30811,-34.24865c0,-1.72973 131.45946,-90.29189 134.22703,-90.29189c0.69189,0 -1.72973,5.18919 -5.53514,11.41622z" fill="#0000ff"/><path d="M115.54595,249.01064c3.11351,7.26486 4.4973,13.83784 3.11351,15.56757c-3.45946,3.45946 -92.36757,44.28108 -93.75135,42.8973c-0.34595,-0.34595 2.07568,-9.34054 6.22703,-19.37297c6.91892,-18.68108 7.26486,-18.68108 40.82162,-34.94054c18.33514,-8.64865 34.59459,-16.25946 35.63243,-16.25946c1.03784,-0.34595 4.4973,5.18919 7.95676,12.10811z" fill="#ffffff"/><path d="M705.03784,324.7728c-15.56757,27.67568 -29.40541,50.16216 -30.44324,50.16216c-1.03784,0 -6.91892,-3.11351 -13.14595,-6.91892l-11.41622,-7.26486l7.95676,-14.52973c4.4973,-7.95676 20.06486,-34.24865 33.9027,-58.81081l25.94595,-43.93514l7.95676,15.56757l7.95676,15.91351z" fill="#ffffff"/><path d="M132.84324,283.60524c3.11351,6.91892 5.18919,13.14595 4.4973,13.83784c-1.03784,1.03784 -76.10811,35.63243 -108.97297,50.16216l-14.87568,6.57297l2.42162,-13.14595c1.38378,-6.91892 3.45946,-15.22162 5.18919,-17.98919c2.07568,-4.4973 96.86486,-51.54595 103.78378,-51.89189c1.03784,0 4.4973,5.53514 7.95676,12.45405z" fill="#ffffff"/><path d="M743.78378,309.20524c4.15135,15.22162 3.80541,15.91351 -13.14595,46.35676c-9.68649,16.95135 -19.02703,32.17297 -20.75676,33.9027c-3.45946,3.45946 -24.90811,-7.26486 -24.90811,-12.45405c0,-6.57297 49.81622,-88.56216 52.23784,-86.14054c1.38378,1.38378 4.4973,9.68649 6.57297,18.33514z" fill="#ffffff"/><path d="M148.06486,317.16199c5.18919,14.87568 5.18919,15.22162 -1.72973,17.2973c-3.45946,1.03784 -35.63243,14.87568 -71.26486,31.13514l-65.03784,29.75135l1.03784,-15.91351l1.03784,-16.25946l62.27027,-28.71351c34.24865,-15.56757 64,-28.71351 65.72973,-28.71351c2.07568,0 5.53514,5.18919 7.95676,11.41622z" fill="#ffffff"/><path d="M172.62703,367.6701c7.61081,16.95135 14.18378,32.17297 14.18378,33.21081c0,1.38378 -17.64324,1.72973 -38.74595,0.34595c-21.44865,-1.03784 -57.77297,-1.72973 -80.60541,-2.07568c-25.25405,0 -39.78378,-1.38378 -38.05405,-3.11351c3.11351,-3.11351 122.11892,-58.46486 126.61622,-58.81081c1.03784,-0.34595 8.64865,13.49189 16.60541,30.44324z" fill="#0000ff"/><path d="M756.92973,384.9674l1.72973,35.97838l-20.41081,-11.41622c-11.41622,-6.22703 -21.1027,-11.76216 -21.44865,-12.45405c-0.69189,-0.34595 6.22703,-14.18378 15.22162,-30.44324c20.06486,-36.32432 22.48649,-34.24865 24.90811,18.33514z" fill="#ffffff"/><path d="M721.2973,408.49172l20.75676,11.76216l-78.87568,-1.38378c-43.24324,-0.69189 -79.56757,-2.42162 -80.60541,-3.45946c-1.03784,-1.03784 6.22703,-15.56757 15.91351,-32.86486l17.64324,-31.13514l42.20541,22.83243c23.17838,12.45405 51.54595,27.67568 62.96216,34.24865z" fill="#0000ff"/><path d="M48.08649,429.59443c0,1.38378 -6.57297,15.56757 -14.87568,31.48108c-17.64324,34.59459 -19.02703,33.21081 -21.79459,-19.37297l-2.07568,-35.63243l19.71892,10.72432c10.72432,5.88108 19.37297,11.76216 19.02703,12.8z" fill="#ffffff"/><path d="M186.11892,411.25929c0.69189,0.34595 -6.91892,15.22162 -16.95135,32.51892l-17.64324,31.48108l-11.07027,-6.57297c-5.88108,-3.45946 -29.40541,-16.25946 -52.23784,-28.36757c-72.99459,-38.4 -74.72432,-35.28649 17.2973,-32.51892c43.58919,1.38378 79.91351,2.76757 80.60541,3.45946z" fill="#0000ff"/><path d="M698.11892,427.1728c25.25405,0.34595 44.97297,1.72973 43.24324,3.11351c-4.15135,3.45946 -129.38378,59.5027 -130.76757,58.11892c-3.11351,-3.45946 -29.40541,-58.81081 -29.40541,-61.92432c0,-3.11351 9.68649,-3.45946 35.63243,-1.72973c19.37297,1.03784 56.04324,2.42162 81.2973,2.42162z" fill="#0000ff"/><path d="M70.22703,439.28091c6.22703,3.11351 11.76216,6.22703 12.10811,6.91892c2.42162,2.07568 -48.43243,91.32973 -51.2,89.6c-1.38378,-0.69189 -4.4973,-8.64865 -6.91892,-17.2973c-3.80541,-14.18378 -3.80541,-17.64324 1.38378,-28.71351c9.34054,-20.06486 29.75135,-56.04324 31.82703,-56.04324c1.03784,0 6.57297,2.42162 12.8,5.53514z" fill="#ffffff"/><path d="M757.62162,447.58361c0,16.60541 4.4973,13.49189 -70.91892,48.43243l-58.81081,27.32973l-6.22703,-12.45405c-3.45946,-6.57297 -5.18919,-13.49189 -3.45946,-15.22162c3.11351,-3.11351 132.84324,-61.92432 136.99459,-61.92432c1.38378,0 2.42162,6.22703 2.42162,13.83784z" fill="#ffffff"/><path d="M106.20541,457.61605l11.07027,6.91892l-33.55676,59.15676l-33.21081,59.5027l-7.95676,-15.91351c-6.91892,-13.49189 -7.61081,-17.2973 -4.15135,-23.87027c16.60541,-31.48108 52.23784,-92.36757 54.31351,-92.36757c1.38378,0 7.26486,3.11351 13.49189,6.57297z" fill="#ffffff"/><path d="M137.34054,474.5674l11.07027,5.88108l-38.74595,68.15135c-40.12973,70.91892 -41.85946,72.64865 -50.85405,51.2c-3.80541,-9.34054 -2.07568,-13.49189 30.0973,-70.57297c18.68108,-33.55676 34.59459,-60.54054 35.63243,-60.54054c1.03784,0 6.57297,2.76757 12.8,5.88108z" fill="#ffffff"/><path d="M751.04865,491.51875l-4.15135,16.95135l-49.12432,23.17838c-26.98378,12.8 -50.85405,23.17838 -52.92973,23.17838c-2.07568,0 -6.22703,-5.53514 -9.34054,-12.10811l-5.88108,-12.45405l44.28108,-20.41081c24.21622,-11.41622 51.89189,-24.21622 61.23243,-29.05946c9.68649,-4.4973 17.98919,-7.61081 18.68108,-6.91892c0.69189,0.34595 -0.69189,8.64865 -2.76757,17.64324z" fill="#ffffff"/><path d="M187.15676,501.89713c16.95135,8.64865 30.78919,16.95135 30.78919,17.98919c0,1.72973 -81.98919,57.08108 -125.92432,85.1027l-10.72432,6.91892l8.3027,-13.83784c4.4973,-7.61081 19.02703,-33.21081 32.17297,-56.73514c27.67568,-49.12432 31.48108,-55.6973 33.55676,-55.6973c0.69189,0 15.22162,7.26486 31.82703,16.25946z" fill="#ffffff"/><path d="M613.01622,510.54578c37.36216,76.10811 57.08108,120.04324 53.27568,117.96757c-10.72432,-6.57297 -123.15676,-95.82703 -123.15676,-97.9027c0,-2.07568 56.73514,-30.0973 62.61622,-30.78919c1.03784,-0.34595 4.15135,4.84324 7.26486,10.72432z" fill="#ffffff"/><path d="M738.59459,537.52956c-5.88108,17.2973 -6.22703,17.64324 -40.12973,34.59459c-18.68108,9.68649 -35.28649,17.2973 -37.01622,17.2973c-4.15135,0 -15.56757,-25.6 -12.10811,-26.98378c1.38378,-0.69189 23.17838,-10.72432 47.74054,-22.83243c24.90811,-12.10811 45.66486,-21.44865 46.35676,-20.75676c0.34595,0.34595 -1.72973,8.99459 -4.84324,18.68108z" fill="#ffffff"/><path d="M230.05405,574.19983l2.42162,24.56216l-66.76757,9.34054c-37.01622,4.84324 -69.53514,8.99459 -72.3027,8.99459c-2.76757,0 25.25405,-20.41081 62.27027,-44.97297l67.45946,-44.97297l2.42162,11.07027c1.38378,6.22703 3.45946,22.48649 4.4973,35.97838z" fill="#ffffff"/><path d="M606.44324,591.15118c31.48108,24.56216 56.04324,45.31892 54.65946,46.01081c-3.11351,1.03784 -135.61081,-26.29189 -137.68649,-28.36757c-1.38378,-1.38378 8.3027,-58.11892 11.07027,-67.11351c2.07568,-5.53514 -1.72973,-8.3027 71.95676,49.47027z" fill="#ffffff"/><path d="M720.95135,579.73497c-7.26486,14.52973 -35.28649,58.11892 -37.36216,58.11892c-1.72973,0 -20.06486,-38.74595 -18.68108,-39.78378c2.76757,-2.42162 56.73514,-29.05946 59.15676,-29.40541c1.38378,0 0,5.18919 -3.11351,11.07027z" fill="#ffffff"/><path d="M311.35135,599.45389c0,3.80541 -51.2,145.98919 -53.62162,148.41081c-1.03784,1.03784 -1.72973,0.34595 -1.72973,-1.38378c0,-1.72973 -3.11351,-30.44324 -6.91892,-63.65405c-9.68649,-86.14054 -11.41622,-78.18378 16.60541,-81.98919c31.13514,-4.84324 45.66486,-5.18919 45.66486,-1.38378z" fill="#ffffff"/><path d="M347.32973,626.43767l23.52432,26.63784l-51.2,49.12432c-28.36757,26.98378 -51.89189,48.77838 -52.58378,48.08649c-1.72973,-1.38378 52.23784,-150.48649 54.31351,-150.48649c1.38378,0 13.14595,12.10811 25.94595,26.63784z" fill="#ffffff"/><path d="M482.59459,608.79443c15.22162,2.76757 28.36757,6.22703 29.05946,6.91892c2.07568,2.07568 -20.06486,129.38378 -23.52432,135.61081c-2.07568,3.45946 -45.31892,-139.41622 -45.31892,-149.44865c0,-1.38378 2.76757,-1.72973 6.22703,-0.69189c3.11351,1.03784 18.33514,4.4973 33.55676,7.61081z" fill="#ffffff"/><path d="M458.03243,683.1728l22.48649,77.49189l-21.44865,-22.48649c-11.76216,-12.45405 -34.24865,-37.01622 -50.16216,-54.31351l-28.36757,-31.48108l26.63784,-24.21622c14.87568,-13.49189 27.32973,-24.21622 27.67568,-23.52432c0.34595,0.34595 10.72432,35.63243 23.17838,78.52973z" fill="#ffffff"/><path d="M242.50811,684.55659c4.4973,42.8973 7.26486,77.83784 6.22703,77.83784c-5.88108,0 -27.67568,-11.07027 -29.05946,-14.87568c-0.69189,-2.42162 -4.84324,-33.55676 -8.99459,-69.53514c-7.95676,-71.61081 -7.95676,-71.26486 12.45405,-71.26486h10.72432z" fill="#ffffff"/><path d="M197.18919,613.63767c0,1.72973 3.11351,31.48108 7.26486,66.07568c3.80541,34.59459 6.22703,63.30811 5.53514,64.34595c-1.03784,0.69189 -7.95676,-2.42162 -15.91351,-7.26486c-15.22162,-9.68649 -14.87568,-8.64865 -21.1027,-64.34595c-2.07568,-17.98919 -4.4973,-38.74595 -5.53514,-45.66486c-1.72973,-12.10811 -1.38378,-12.8 9.68649,-14.18378c6.22703,-0.69189 13.49189,-1.72973 15.91351,-1.72973c2.07568,-0.34595 4.15135,0.69189 4.15135,2.76757z" fill="#ffffff"/><path d="M160.51892,624.70794c1.03784,4.4973 3.45946,24.90811 5.53514,46.01081c2.07568,20.75676 4.84324,40.82162 5.53514,43.93514c2.76757,9.34054 -2.42162,7.61081 -18.68108,-6.91892c-13.83784,-12.10811 -14.87568,-13.83784 -17.98919,-40.47568c-2.07568,-15.22162 -4.4973,-31.82703 -5.53514,-37.01622c-2.07568,-9.68649 1.38378,-12.10811 20.06486,-12.8c7.26486,-0.34595 10.03243,1.38378 11.07027,7.26486z" fill="#ffffff"/><path d="M597.79459,632.31875c40.47568,8.3027 74.37838,15.91351 75.41622,16.95135c3.11351,2.76757 -16.25946,23.17838 -22.14054,23.17838c-5.88108,0 -132.84324,-27.32973 -134.57297,-28.71351c-1.72973,-2.07568 3.45946,-26.63784 5.53514,-26.63784c1.03784,0 35.28649,6.91892 75.76216,15.22162z" fill="#ffffff"/><path d="M122.81081,631.62686c4.4973,26.98378 7.26486,54.65946 5.18919,54.65946c-2.76757,0 -23.17838,-21.79459 -39.43784,-42.20541l-12.8,-16.25946l13.14595,-2.07568c7.26486,-1.38378 15.56757,-2.76757 18.33514,-3.45946c11.76216,-2.42162 13.49189,-1.38378 15.56757,9.34054z" fill="#ffffff"/><path d="M587.76216,667.25929c30.78919,6.57297 57.08108,12.10811 58.11892,12.10811c3.45946,0 -13.83784,17.64324 -20.75676,21.44865c-4.4973,2.07568 -22.14054,0 -61.23243,-8.3027l-55.00541,-11.07027l2.07568,-10.72432c3.11351,-18.33514 4.15135,-19.71892 12.45405,-17.64324c4.4973,1.03784 33.21081,7.26486 64.34595,14.18378z" fill="#ffffff"/><path d="M428.97297,716.03767c55.00541,60.19459 55.00541,60.19459 32.86486,65.03784c-10.03243,2.07568 -12.8,-0.34595 -58.46486,-49.81622l-47.74054,-52.23784l9.68649,-10.37838c5.18919,-5.53514 10.03243,-10.03243 10.37838,-10.03243c0.34595,0 24.21622,25.94595 53.27568,57.42703z" fill="#ffffff"/><path d="M439.35135,783.84307c0,1.38378 -8.3027,2.76757 -17.98919,2.76757l-18.33514,-0.34595l-37.36216,-41.16757l-37.36216,-41.51351l11.07027,-9.68649l11.07027,-10.03243l44.62703,48.43243c24.21622,26.98378 44.28108,49.81622 44.28108,51.54595z" fill="#ffffff"/><path d="M559.04865,698.74037c24.56216,4.84324 46.7027,9.34054 49.47027,10.37838c3.45946,1.03784 -0.34595,5.53514 -11.07027,13.14595l-16.25946,11.76216l-26.98378,-5.18919c-55.00541,-10.37838 -50.85405,-8.64865 -49.81622,-21.79459c1.38378,-13.14595 3.11351,-17.2973 7.26486,-17.2973c1.38378,0 22.83243,3.80541 47.39459,8.99459z" fill="#ffffff"/><path d="M359.78378,748.55659c19.37297,21.1027 34.59459,39.09189 33.55676,40.47568c-1.03784,1.03784 -10.37838,0.69189 -20.75676,-0.34595c-17.2973,-2.42162 -20.06486,-4.15135 -45.66486,-29.75135l-27.32973,-27.67568l10.03243,-10.37838c5.53514,-5.53514 11.07027,-10.37838 12.45405,-10.37838c1.03784,0 17.98919,17.2973 37.70811,38.05405z" fill="#ffffff"/><path d="M551.43784,735.41064c15.56757,3.11351 16.60541,4.15135 10.72432,8.3027c-6.22703,4.4973 -48.08649,22.83243 -62.61622,26.98378c-6.91892,2.07568 -7.26486,1.72973 -4.15135,-15.91351c5.18919,-29.05946 4.4973,-28.02162 22.83243,-25.25405c8.99459,1.38378 23.87027,3.80541 33.21081,5.88108z" fill="#ffffff"/><path d="M340.75676,785.91875c-1.38378,1.72973 -37.01622,-5.53514 -60.19459,-11.76216l-18.68108,-5.18919l16.60541,-16.95135l16.60541,-16.95135l23.17838,24.90811c13.14595,13.83784 23.17838,25.6 22.48649,25.94595z" fill="#ffffff"/><path d="M363.58919,232.40524l-25.6,23.52432l-30.78919,-6.57297c-16.60541,-3.45946 -32.51892,-5.88108 -34.94054,-4.84324c-2.42162,1.03784 -7.26486,16.25946 -10.72432,35.28649l-6.22703,33.55676l-32.51892,14.87568c-17.98919,8.3027 -32.51892,15.91351 -32.51892,17.2973c0,1.03784 6.91892,15.56757 15.22162,32.17297l15.22162,30.44324l-16.95135,29.40541c-9.34054,15.91351 -16.95135,30.44324 -16.95135,32.51892c0,1.72973 13.49189,10.37838 30.44324,19.02703l30.0973,15.56757l4.4973,34.59459c2.42162,19.02703 4.84324,34.94054 5.53514,35.28649c0.69189,0.69189 16.25946,-1.03784 34.59459,-3.45946l33.55676,-4.4973l23.87027,25.94595c18.68108,20.41081 24.90811,25.6 29.05946,22.83243c2.76757,-2.07568 15.22162,-12.8 28.02162,-23.87027l22.83243,-20.41081l33.55676,7.26486c18.33514,4.15135 34.59459,7.61081 35.63243,7.61081c1.38378,0 5.18919,-15.56757 8.64865,-34.94054l5.88108,-34.59459l32.51892,-15.22162c17.64324,-8.3027 32.17297,-15.91351 32.17297,-17.2973c0,-1.03784 -6.91892,-15.56757 -15.22162,-32.17297l-15.22162,-30.44324l16.95135,-32.51892c8.99459,-17.98919 15.91351,-33.21081 15.22162,-34.24865c-1.03784,-0.69189 -15.22162,-8.64865 -31.82703,-17.64324l-30.44324,-16.25946l-3.45946,-31.48108c-1.72973,-17.2973 -4.4973,-32.51892 -5.88108,-33.55676c-1.03784,-1.38378 -16.60541,-0.34595 -34.59459,1.72973l-32.17297,3.80541l-24.21622,-25.94595c-13.14595,-14.52973 -24.90811,-26.29189 -25.94595,-26.29189c-1.03784,0.34595 -13.14595,10.72432 -27.32973,23.52432z" fill="#000000"/><path d="M415.48108,243.82145l21.79459,24.56216l19.02703,-2.07568c10.72432,-1.38378 25.94595,-3.11351 33.55676,-4.15135l14.52973,-2.07568l2.76757,32.51892l3.11351,32.17297l26.63784,13.83784c14.87568,7.95676 28.71351,15.91351 30.78919,17.98919c2.76757,2.76757 -0.34595,11.41622 -12.10811,33.21081l-16.25946,29.75135l15.56757,30.78919l15.56757,31.13514l-31.13514,14.87568c-21.44865,10.37838 -31.48108,16.95135 -32.51892,21.79459c-1.03784,4.15135 -4.15135,18.68108 -6.91892,32.86486c-3.11351,14.18378 -5.88108,26.29189 -6.22703,26.63784c-0.34595,0.69189 -15.91351,-2.42162 -33.9027,-6.91892l-33.21081,-7.61081l-25.6,23.17838l-25.6,23.52432l-24.21622,-25.6l-24.21622,-25.6l-31.13514,4.84324c-16.95135,2.42162 -31.48108,3.80541 -32.17297,3.45946c-0.69189,-0.69189 -2.76757,-13.49189 -4.4973,-28.36757c-4.4973,-35.28649 -6.22703,-42.55135 -9.68649,-42.55135c-1.72973,0 -14.87568,-6.22703 -29.05946,-13.83784l-25.94595,-14.18378l17.2973,-29.75135l17.64324,-29.75135l-15.22162,-30.44324c-7.95676,-16.95135 -14.18378,-31.13514 -13.14595,-31.48108c0.69189,-0.69189 13.14595,-6.57297 27.32973,-13.14595c14.18378,-6.57297 27.67568,-13.14595 29.75135,-14.52973c2.42162,-1.72973 6.57297,-17.64324 10.03243,-35.63243c3.11351,-17.98919 6.91892,-32.86486 8.3027,-32.86486c1.38378,0 16.25946,3.11351 33.55676,6.91892l30.78919,6.57297l22.48649,-22.14054c12.45405,-12.45405 24.21622,-22.48649 26.29189,-22.48649c2.42162,0 13.83784,11.07027 25.94595,24.56216z" fill="#ffc800"/><path d="M351.13514,289.48632c-37.36216,12.45405 -63.30811,34.24865 -79.91351,67.45946c-8.99459,17.98919 -10.03243,23.17838 -10.03243,54.31351c0,30.0973 1.03784,37.01622 9.34054,54.31351c44.28108,94.44324 177.81622,97.9027 227.97838,5.53514c11.41622,-20.75676 11.76216,-23.17838 11.76216,-58.11892c0,-32.86486 -1.03784,-38.4 -9.68649,-56.04324c-12.10811,-24.90811 -35.97838,-48.77838 -60.88649,-60.54054c-23.17838,-11.07027 -66.07568,-14.18378 -88.56216,-6.91892z" fill="#000000"/><path d="M433.12432,301.59443c21.79459,9.34054 49.81622,36.32432 60.88649,57.77297c12.8,24.90811 14.87568,68.15135 4.15135,95.82703c-35.97838,95.48108 -169.51351,103.09189 -217.94595,12.45405c-15.56757,-29.40541 -18.33514,-66.76757 -6.91892,-96.86486c12.45405,-32.86486 43.93514,-63.30811 77.14595,-74.03243c20.75676,-6.91892 62.27027,-4.4973 82.68108,4.84324z" fill="#e1ff00"/><path d="M363.24324,326.15659c-47.39459,15.56757 -73.68649,60.54054 -62.27027,107.24324c15.22162,63.30811 94.78919,87.87027 144.60541,43.93514c32.86486,-29.05946 37.70811,-84.41081 10.03243,-120.73514c-17.98919,-23.52432 -65.38378,-39.43784 -92.36757,-30.44324z" fill="#000000"/><path d="M427.24324,342.0701c41.51351,24.21622 47.39459,74.72432 12.45405,106.55135c-31.82703,28.71351 -70.22703,25.25405 -92.71351,-7.95676c-14.52973,-21.44865 -7.26486,-52.92973 15.91351,-68.15135c28.36757,-19.02703 62.61622,0 62.61622,34.94054c0,16.60541 -2.76757,22.48649 -14.18378,28.02162c-13.14595,6.91892 -21.44865,6.57297 -32.17297,-2.07568c-10.37838,-8.3027 -11.76216,-21.79459 -3.11351,-31.48108c6.91892,-7.61081 12.45405,-7.95676 18.68108,-0.69189c3.45946,4.15135 3.45946,6.91892 0.34595,12.10811c-5.88108,9.34054 -5.18919,10.72432 2.76757,6.57297c13.83784,-7.26486 4.15135,-31.13514 -12.45405,-31.13514c-10.03243,0 -22.14054,15.22162 -22.14054,28.36757c0,13.14595 16.60541,30.44324 29.40541,30.44324c13.83784,0 31.48108,-9.68649 35.97838,-19.37297c11.07027,-24.21622 -0.34595,-56.38919 -22.83243,-66.07568c-40.47568,-16.60541 -80.60541,20.75676 -71.95676,67.11351c3.11351,16.60541 23.17838,37.01622 42.20541,42.55135c29.40541,8.99459 57.77297,-2.07568 79.91351,-31.13514c8.99459,-11.76216 11.41622,-13.49189 9.68649,-6.91892c-4.4973,14.52973 -20.41081,35.63243 -35.97838,46.35676c-12.10811,8.64865 -19.02703,10.72432 -38.05405,11.76216c-20.06486,1.03784 -25.6,0 -42.20541,-8.64865c-34.59459,-17.98919 -50.50811,-53.27568 -41.51351,-91.67568c3.45946,-14.18378 8.3027,-21.79459 22.14054,-35.63243c9.68649,-9.68649 23.17838,-19.37297 29.75135,-21.79459c19.02703,-6.22703 49.47027,-2.76757 67.45946,7.95676z" fill="#008000"/></g></g></g></svg>