<?xml version="1.0" standalone="no"?>
<!DOCTYPE svg PUBLIC "-//W3C//DTD SVG 20010904//EN"
 "http://www.w3.org/TR/2001/REC-SVG-20010904/DTD/svg10.dtd">
<svg version="1.0" xmlns="http://www.w3.org/2000/svg"
 width="222.000000pt" height="227.000000pt" viewBox="0 0 222.000000 227.000000"
 preserveAspectRatio="xMidYMid meet">
<metadata>
Created by potrace 1.14, written by Peter Selinger 2001-2017
</metadata>
<g transform="translate(0.000000,227.000000) scale(0.100000,-0.100000)"
fill="#000000" stroke="none">
<path fill="#000000" stroke="none" d="M965 2234 c-11 -2 -45 -9 -75 -15 -126
-24 -277 -87 -397 -165 -76 -49 -248 -223 -298 -299 -88 -135 -151 -295 -175
-448 -20 -121 -8 -339 24 -456 114 -410 435 -709 855 -796 102 -21 323 -21
426 0 398 82 709 359 835 744 42 131 53 219 47 388 -6 167 -24 249 -86 393
-114 264 -349 490 -616 589 -128 48 -204 62 -365 66 -85 2 -164 2 -175 -1z"/>
<path fill="#ffffff" stroke="none" d="M1157 2096 l113 -124 -32 -28 -33 -27
-70 75 c-38 41 -98 106 -133 145 -58 66 -61 72 -40 76 75 14 77 14 195 -117z"/>
<path fill="#ffffff" stroke="none" d="M1268 2137 l82 -83 -33 -32 -33 -32
-102 109 c-56 60 -102 112 -102 115 0 3 24 6 53 6 l52 0 83 -83z"/>
<path fill="#ffffff" stroke="none" d="M1372 2189 c49 -11 88 -24 86 -28 -2
-4 -24 -26 -49 -48 l-45 -42 -69 69 c-67 67 -68 70 -41 70 16 0 69 -9 118 -21z"/>
<path fill="#ffffff" stroke="none" d="M1052 2051 l137 -148 -28 -27 -28 -27
-152 165 c-83 90 -151 167 -151 169 0 6 32 13 66 16 14 1 60 -42 156 -148z"/>
<path fill="#ffffff" stroke="none" d="M790 2148 c-1 -26 -16 -97 -23 -104 -4
-4 -146 22 -177 32 -19 7 -5 15 100 61 89 39 100 40 100 11z"/>
<path fill="#ffffff" stroke="none" d="M1563 2123 c15 -7 27 -18 27 -24 0 -6
9 -92 21 -190 11 -99 18 -186 15 -194 -3 -10 -19 -15 -44 -15 l-38 0 -25 225
c-27 252 -31 236 44 198z"/>
<path fill="#ffffff" stroke="none" d="M1038 1922 l82 -90 -77 -70 c-43 -39
-79 -69 -81 -68 -1 2 -31 104 -66 227 l-64 224 61 -66 c34 -36 99 -107 145
-157z"/>
<path fill="#ffffff" stroke="none" d="M938 1685 c-4 -5 -190 34 -197 40 -5 5
57 366 67 394 3 8 34 -86 69 -209 35 -122 63 -224 61 -225z"/>
<path fill="#ffffff" stroke="none" d="M1374 1896 c-42 -119 -80 -216 -83
-216 -3 0 -37 35 -75 76 l-70 76 150 143 c82 79 151 141 152 140 2 -2 -31
-101 -74 -219z"/>
<path fill="#ffffff" stroke="none" d="M1500 1920 c11 -101 20 -193 20 -205 0
-21 -7 -23 -95 -35 -53 -7 -98 -10 -102 -7 -3 4 29 103 72 222 43 118 80 214
81 212 2 -2 13 -86 24 -187z"/>
<path fill="#ffffff" stroke="none" d="M1700 2035 c8 -23 43 -305 38 -310 -2
-2 -21 -5 -43 -7 l-40 -3 -16 130 c-9 72 -19 159 -23 193 l-7 64 42 -24 c23
-12 45 -32 49 -43z"/>
<path fill="#ffffff" stroke="none" d="M665 2040 c53 -11 99 -20 102 -20 2 0
2 -8 0 -17 -3 -10 -8 -29 -11 -44 l-5 -25 -146 30 c-80 16 -145 32 -145 36 0
11 73 59 91 59 9 1 61 -8 114 -19z"/>
<path fill="#ffffff" stroke="none" d="M1783 1987 c36 -31 38 -35 52 -136 8
-58 12 -108 9 -113 -6 -10 -84 -11 -84 0 0 4 -7 61 -15 127 -22 178 -23 175
38 122z"/>
<path fill="#ffffff" stroke="none" d="M616 1941 l129 -27 -3 -35 c-2 -18 -7
-37 -11 -42 -6 -6 -300 50 -363 69 -14 4 -10 11 20 39 42 39 23 39 228 -4z"/>
<path fill="#ffffff" stroke="none" d="M1933 1840 c32 -36 56 -69 54 -75 -3
-9 -106 -29 -113 -22 -2 2 -10 44 -17 94 -16 108 -15 108 76 3z"/>
<path fill="#ffffff" stroke="none" d="M529 1850 c102 -22 189 -40 193 -40 8
0 1 -69 -8 -79 -3 -3 -336 62 -408 81 l-39 9 34 35 c18 19 35 34 38 34 4 0 89
-18 190 -40z"/>
<path fill="#ffffff" stroke="none" d="M1217 1725 l78 -85 99 15 c147 22 132
32 146 -100 l12 -115 104 -55 c57 -31 104 -58 104 -61 0 -3 -25 -48 -55 -100
-30 -53 -55 -99 -55 -103 0 -5 20 -51 45 -103 25 -53 45 -99 45 -104 0 -5 -46
-29 -101 -53 -55 -25 -102 -48 -105 -52 -2 -4 -13 -56 -24 -114 -10 -59 -21
-109 -23 -112 -3 -2 -55 5 -116 18 l-110 22 -87 -80 -86 -80 -66 71 c-36 39
-72 78 -81 88 -15 15 -24 15 -111 2 -151 -21 -136 -32 -150 101 l-12 114 -97
52 c-53 28 -100 54 -104 58 -4 5 17 51 48 104 30 53 55 100 55 106 0 5 -20 51
-45 102 -25 51 -45 97 -45 103 0 6 47 31 103 57 l102 45 22 114 c13 62 25 115
27 117 2 3 54 -6 115 -18 l111 -22 82 76 c46 42 86 76 90 77 3 0 42 -38 85
-85z"/>
<path fill="#ffffff" stroke="none" d="M275 1740 c14 -27 25 -54 25 -60 0 -11
-159 -94 -167 -87 -8 8 100 197 113 197 2 0 15 -22 29 -50z"/>
<path fill="#ffffff" stroke="none" d="M507 1749 c109 -23 199 -42 201 -44 5
-4 -30 -189 -37 -198 -4 -4 -90 58 -190 138 -101 80 -181 145 -178 145 4 0 95
-18 204 -41z"/>
<path fill="#ffffff" stroke="none" d="M467 1629 c98 -77 179 -144 181 -148 3
-8 -178 -95 -183 -89 -7 8 -183 378 -179 378 2 0 84 -63 181 -141z"/>
<path fill="#ffffff" stroke="none" d="M1955 1722 c-28 -24 -377 -253 -380
-250 -6 6 -29 198 -24 202 4 4 358 53 394 55 11 1 15 -3 10 -7z"/>
<path fill="#ffffff" stroke="none" d="M2056 1667 c3 -11 -28 -75 -91 -185
-53 -92 -100 -170 -103 -174 -4 -3 -21 1 -39 10 l-32 17 112 197 c111 194 112
196 129 175 10 -12 20 -30 24 -40z"/>
<path fill="#ffffff" stroke="none" d="M1962 1677 c-11 -19 -56 -100 -102
-180 -45 -81 -84 -147 -87 -147 -11 0 -183 93 -183 99 0 5 380 261 388 261 2
0 -5 -15 -16 -33z"/>
<path fill="#ffffff" stroke="none" d="M334 1614 c9 -21 13 -40 9 -45 -10 -10
-267 -128 -271 -124 -1 1 6 27 18 56 20 54 21 54 118 101 53 25 100 47 103 47
3 1 13 -15 23 -35z"/>
<path fill="#ffffff" stroke="none" d="M2038 1395 c-45 -80 -85 -145 -88 -145
-3 0 -20 9 -38 20 l-33 21 23 42 c13 23 58 99 98 170 l75 127 23 -45 23 -46
-83 -144z"/>
<path fill="#ffffff" stroke="none" d="M384 1514 c9 -20 15 -38 13 -40 -3 -3
-220 -103 -315 -145 l-43 -19 7 38 c4 20 10 44 15 52 6 13 280 149 300 150 3
0 13 -16 23 -36z"/>
<path fill="#ffffff" stroke="none" d="M2150 1440 c12 -44 11 -46 -38 -134
-28 -49 -55 -93 -60 -98 -10 -10 -72 21 -72 36 0 19 144 256 151 249 4 -4 13
-28 19 -53z"/>
<path fill="#ffffff" stroke="none" d="M428 1417 c15 -43 15 -44 -5 -50 -10
-3 -103 -43 -206 -90 l-188 -86 3 46 3 47 180 83 c99 45 185 83 190 83 6 0 16
-15 23 -33z"/>
<path fill="#ffffff" stroke="none" d="M499 1271 c22 -49 41 -93 41 -96 0 -4
-51 -5 -112 -1 -62 3 -167 5 -233 6 -73 0 -115 4 -110 9 9 9 353 169 366 170
3 1 25 -39 48 -88z"/>
<path fill="#ffffff" stroke="none" d="M2188 1221 l5 -104 -59 33 c-33 18 -61
34 -62 36 -2 1 18 41 44 88 58 105 65 99 72 -53z"/>
<path fill="#ffffff" stroke="none" d="M2085 1153 l60 -34 -228 4 c-125 2
-230 7 -233 10 -3 3 18 45 46 95 l51 90 122 -66 c67 -36 149 -80 182 -99z"/>
<path fill="#ffffff" stroke="none" d="M139 1092 c0 -4 -19 -45 -43 -91 -51
-100 -55 -96 -63 56 l-6 103 57 -31 c31 -17 56 -34 55 -37z"/>
<path fill="#ffffff" stroke="none" d="M538 1145 c2 -1 -20 -44 -49 -94 l-51
-91 -32 19 c-17 10 -85 47 -151 82 -211 111 -216 102 50 94 126 -4 231 -8 233
-10z"/>
<path fill="#ffffff" stroke="none" d="M2018 1099 c73 -1 130 -5 125 -9 -12
-10 -374 -172 -378 -168 -9 10 -85 170 -85 179 0 9 28 10 103 5 56 -3 162 -7
235 -7z"/>
<path fill="#ffffff" stroke="none" d="M203 1064 c18 -9 34 -18 35 -20 7 -6
-140 -264 -148 -259 -4 2 -13 25 -20 50 -11 41 -11 51 4 83 27 58 86 162 92
162 3 0 19 -7 37 -16z"/>
<path fill="#ffffff" stroke="none" d="M2190 1040 c0 -48 13 -39 -205 -140
l-170 -79 -18 36 c-10 19 -15 39 -10 44 9 9 384 179 396 179 4 0 7 -18 7 -40z"/>
<path fill="#ffffff" stroke="none" d="M307 1011 l32 -20 -97 -171 -96 -172
-23 46 c-20 39 -22 50 -12 69 48 91 151 267 157 267 4 0 21 -9 39 -19z"/>
<path fill="#ffffff" stroke="none" d="M397 962 l32 -17 -112 -197 c-116 -205
-121 -210 -147 -148 -11 27 -6 39 87 204 54 97 100 175 103 175 3 0 19 -8 37
-17z"/>
<path fill="#ffffff" stroke="none" d="M2171 913 l-12 -49 -142 -67 c-78 -37
-147 -67 -153 -67 -6 0 -18 16 -27 35 l-17 36 128 59 c70 33 150 70 177 84 28
13 52 22 54 20 2 -1 -2 -25 -8 -51z"/>
<path fill="#ffffff" stroke="none" d="M541 883 c49 -25 89 -49 89 -52 0 -5
-237 -165 -364 -246 l-31 -20 24 40 c13 22 55 96 93 164 80 142 91 161 97 161
2 0 44 -21 92 -47z"/>
<path fill="#ffffff" stroke="none" d="M1772 858 c108 -220 165 -347 154 -341
-31 19 -356 277 -356 283 0 6 164 87 181 89 3 1 12 -14 21 -31z"/>
<path fill="#ffffff" stroke="none" d="M2135 780 c-17 -50 -18 -51 -116 -100
-54 -28 -102 -50 -107 -50 -12 0 -45 74 -35 78 4 2 67 31 138 66 72 35 132 62
134 60 1 -1 -5 -26 -14 -54z"/>
<path fill="#ffffff" stroke="none" d="M665 674 l7 -71 -193 -27 c-107 -14
-201 -26 -209 -26 -8 0 73 59 180 130 l195 130 7 -32 c4 -18 10 -65 13 -104z"/>
<path fill="#ffffff" stroke="none" d="M1753 625 c91 -71 162 -131 158 -133
-9 -3 -392 76 -398 82 -4 4 24 168 32 194 6 16 -5 24 208 -143z"/>
<path fill="#ffffff" stroke="none" d="M2084 658 c-21 -42 -102 -168 -108
-168 -5 0 -58 112 -54 115 8 7 164 84 171 85 4 0 0 -15 -9 -32z"/>
<path fill="#ffffff" stroke="none" d="M900 601 c0 -11 -148 -422 -155 -429
-3 -3 -5 -1 -5 4 0 5 -9 88 -20 184 -28 249 -33 226 48 237 90 14 132 15 132
4z"/>
<path fill="#ffffff" stroke="none" d="M1004 523 l68 -77 -148 -142 c-82 -78
-150 -141 -152 -139 -5 4 151 435 157 435 4 0 38 -35 75 -77z"/>
<path fill="#ffffff" stroke="none" d="M1395 574 c44 -8 82 -18 84 -20 6 -6
-58 -374 -68 -392 -6 -10 -131 403 -131 432 0 4 8 5 18 2 9 -3 53 -13 97 -22z"/>
<path fill="#ffffff" stroke="none" d="M1324 359 l65 -224 -62 65 c-34 36 -99
107 -145 157 l-82 91 77 70 c43 39 79 70 80 68 1 -1 31 -103 67 -227z"/>
<path fill="#ffffff" stroke="none" d="M701 355 c13 -124 21 -225 18 -225 -17
0 -80 32 -84 43 -2 7 -14 97 -26 201 -23 207 -23 206 36 206 l31 0 25 -225z"/>
<path fill="#ffffff" stroke="none" d="M570 560 c0 -5 9 -91 21 -191 11 -100
18 -183 16 -186 -3 -2 -23 7 -46 21 -44 28 -43 25 -61 186 -6 52 -13 112 -16
132 -5 35 -4 37 28 41 18 2 39 5 46 5 6 1 12 -2 12 -8z"/>
<path fill="#ffffff" stroke="none" d="M464 528 c3 -13 10 -72 16 -133 6 -60
14 -118 16 -127 8 -27 -7 -22 -54 20 -40 35 -43 40 -52 117 -6 44 -13 92 -16
107 -6 28 4 35 58 37 21 1 29 -4 32 -21z"/>
<path fill="#ffffff" stroke="none" d="M1728 506 c117 -24 215 -46 218 -49 9
-8 -47 -67 -64 -67 -17 0 -384 79 -389 83 -5 6 10 77 16 77 3 0 102 -20 219
-44z"/>
<path fill="#ffffff" stroke="none" d="M355 508 c13 -78 21 -158 15 -158 -8 0
-67 63 -114 122 l-37 47 38 6 c21 4 45 8 53 10 34 7 39 4 45 -27z"/>
<path fill="#ffffff" stroke="none" d="M1699 405 c89 -19 165 -35 168 -35 10
0 -40 -51 -60 -62 -13 -6 -64 0 -177 24 l-159 32 6 31 c9 53 12 57 36 51 13
-3 96 -21 186 -41z"/>
<path fill="#ffffff" stroke="none" d="M1240 264 c159 -174 159 -174 95 -188
-29 -6 -37 1 -169 144 l-138 151 28 30 c15 16 29 29 30 29 1 0 70 -75 154
-166z"/>
<path fill="#ffffff" stroke="none" d="M1270 68 c0 -4 -24 -8 -52 -8 l-53 1
-108 119 -108 120 32 28 32 29 129 -140 c70 -78 128 -144 128 -149z"/>
<path fill="#ffffff" stroke="none" d="M1616 314 c71 -14 135 -27 143 -30 10
-3 -1 -16 -32 -38 l-47 -34 -78 15 c-159 30 -147 25 -144 63 4 38 9 50 21 50
4 0 66 -11 137 -26z"/>
<path fill="#ffffff" stroke="none" d="M1040 170 c56 -61 100 -113 97 -117 -3
-3 -30 -2 -60 1 -50 7 -58 12 -132 86 l-79 80 29 30 c16 16 32 30 36 30 3 0
52 -50 109 -110z"/>
<path fill="#ffffff" stroke="none" d="M1594 208 c45 -9 48 -12 31 -24 -18
-13 -139 -66 -181 -78 -20 -6 -21 -5 -12 46 15 84 13 81 66 73 26 -4 69 -11
96 -17z"/>
<path fill="#ffffff" stroke="none" d="M985 62 c-4 -5 -107 16 -174 34 l-54
15 48 49 48 49 67 -72 c38 -40 67 -74 65 -75z"/>
<path fill="#000000" stroke="none" d="M1051 1662 l-74 -68 -89 19 c-48 10
-94 17 -101 14 -7 -3 -21 -47 -31 -102 l-18 -97 -94 -43 c-52 -24 -94 -46 -94
-50 0 -3 20 -45 44 -93 l44 -88 -49 -85 c-27 -46 -49 -88 -49 -94 0 -5 39 -30
88 -55 l87 -45 13 -100 c7 -55 14 -101 16 -102 2 -2 47 3 100 10 l97 13 69
-75 c54 -59 72 -74 84 -66 8 6 44 37 81 69 l66 59 97 -21 c53 -12 100 -22 103
-22 4 0 15 45 25 101 l17 100 94 44 c51 24 93 46 93 50 0 3 -20 45 -44 93
l-44 88 49 94 c26 52 46 96 44 99 -3 2 -44 25 -92 51 l-88 47 -10 91 c-5 50
-13 94 -17 97 -3 4 -48 1 -100 -5 l-93 -11 -70 75 c-38 42 -72 76 -75 76 -3
-1 -38 -31 -79 -68z"/>
<path fill="#ffffff" stroke="none" d="M1201 1629 l63 -71 55 6 c31 4 75 9 97
12 l42 6 8 -94 9 -93 77 -40 c43 -23 83 -46 89 -52 8 -8 -1 -33 -35 -96 l-47
-86 45 -89 45 -90 -90 -43 c-62 -30 -91 -49 -94 -63 -3 -12 -12 -54 -20 -95
-9 -41 -17 -76 -18 -77 -1 -2 -46 7 -98 20 l-96 22 -74 -67 -74 -68 -70 74
-70 74 -90 -14 c-49 -7 -91 -11 -93 -10 -2 2 -8 39 -13 82 -13 102 -18 123
-28 123 -5 0 -43 18 -84 40 l-75 41 50 86 51 86 -44 88 c-23 49 -41 90 -38 91
2 2 38 19 79 38 41 19 80 38 86 42 7 5 19 51 29 103 9 52 20 95 24 95 4 0 47
-9 97 -20 l89 -19 65 64 c36 36 70 65 76 65 7 0 40 -32 75 -71z"/>
<path fill="#000000" stroke="none" d="M1015 1497 c-108 -36 -183 -99 -231
-195 -26 -52 -29 -67 -29 -157 0 -87 3 -107 27 -157 128 -273 514 -283 659
-16 33 60 34 67 34 168 0 95 -3 111 -28 162 -35 72 -104 141 -176 175 -67 32
-191 41 -256 20z"/>
<path fill="#ffffff" stroke="none" d="M1252 1462 c63 -27 144 -105 176 -167
37 -72 43 -197 12 -277 -104 -276 -490 -298 -630 -36 -45 85 -53 193 -20 280
36 95 127 183 223 214 60 20 180 13 239 -14z"/>
<path fill="#000000" stroke="none" d="M1050 1391 c-137 -45 -213 -175 -180
-310 44 -183 274 -254 418 -127 95 84 109 244 29 349 -52 68 -189 114 -267 88z"/>
<path fill="#ffffff" stroke="none" d="M1235 1345 c120 -70 137 -216 36 -308
-92 -83 -203 -73 -268 23 -42 62 -21 153 46 197 82 55 181 0 181 -101 0 -48
-8 -65 -41 -81 -38 -20 -62 -19 -93 6 -30 24 -34 63 -9 91 20 22 36 23 54 2
10 -12 10 -20 1 -35 -17 -27 -15 -31 8 -19 40 21 12 90 -36 90 -29 0 -64 -44
-64 -82 0 -38 48 -88 85 -88 40 0 91 28 104 56 32 70 -1 163 -66 191 -117 48
-233 -60 -208 -194 9 -48 67 -107 122 -123 85 -26 167 6 231 90 26 34 33 39
28 20 -13 -42 -59 -103 -104 -134 -35 -25 -55 -31 -110 -34 -58 -3 -74 0 -122
25 -100 52 -146 154 -120 265 10 41 24 63 64 103 28 28 67 56 86 63 55 18 143
8 195 -23z"/>
</g>
</svg>
