<?xml version="1.0" standalone="no"?>
<!DOCTYPE svg PUBLIC "-//W3C//DTD SVG 20010904//EN"
 "http://www.w3.org/TR/2001/REC-SVG-20010904/DTD/svg10.dtd">
<svg version="1.0" xmlns="http://www.w3.org/2000/svg"
 width="525.000000pt" height="525.000000pt" viewBox="0 0 525.000000 525.000000"
 preserveAspectRatio="xMidYMid meet">
<metadata>
Created by potrace 1.14, written by Peter Selinger 2001-2017
</metadata>
<g transform="translate(0.000000,525.000000) scale(0.100000,-0.100000)"
fill="#000000" stroke="none">
<path fill="#000000" stroke="none" d="M2472 5192 c-11 -15 -22 -38 -23 -52
-3 -21 -9 -25 -34 -22 -40 3 -75 -26 -84 -69 l-7 -34 -64 -1 c-46 0 -77 -7
-107 -22 -73 -38 -123 -125 -123 -214 0 -43 5 -55 33 -83 18 -18 56 -41 85
-51 29 -10 52 -22 52 -26 0 -3 -28 -31 -62 -62 -59 -54 -67 -67 -28 -46 15 8
23 4 41 -21 16 -23 20 -36 12 -47 -16 -26 -30 -24 -67 9 -34 30 -36 35 -30 74
8 56 -17 143 -50 174 -16 15 -41 25 -73 28 -35 4 -56 13 -80 36 -29 27 -36 29
-83 25 -30 -3 -63 -14 -81 -27 l-29 -21 -41 21 c-46 23 -90 21 -144 -8 -29
-15 -32 -14 -69 11 -57 39 -66 35 -66 -28 0 -50 -2 -54 -27 -61 -33 -8 -73
-42 -73 -62 0 -8 9 -4 23 12 12 15 34 27 51 28 27 2 29 -1 46 -65 18 -71 67
-172 108 -225 13 -18 22 -39 19 -48 -4 -8 -2 -17 3 -20 4 -3 10 0 12 5 2 6 23
-10 48 -35 l44 -45 -31 0 c-16 0 -47 11 -67 25 -21 14 -35 21 -31 15 10 -17
-28 -11 -61 9 -93 57 -163 169 -166 265 -1 50 -2 53 -5 19 -4 -38 -10 -47 -48
-73 -53 -36 -71 -83 -54 -143 7 -25 7 -43 -1 -56 -14 -28 -12 -97 4 -130 8
-15 35 -46 60 -69 25 -23 46 -46 46 -50 0 -14 -66 -51 -112 -63 -50 -14 -68
-8 -49 14 14 17 26 126 17 160 -9 37 -53 85 -99 109 -50 25 -119 21 -197 -13
-55 -24 -95 -72 -107 -129 -7 -39 -16 -44 -38 -20 -28 31 -77 26 -103 -10 -12
-16 -22 -34 -22 -39 0 -21 -22 -22 -36 -2 -22 31 -69 28 -91 -5 -14 -22 -15
-32 -5 -70 17 -61 17 -61 -26 -69 -53 -9 -62 -17 -69 -59 -7 -42 10 -66 57
-86 l29 -12 -34 -33 c-19 -18 -35 -40 -35 -50 0 -10 18 -35 40 -56 l41 -39
-22 -29 c-67 -91 -13 -273 98 -333 24 -13 43 -25 43 -28 0 -3 -14 -13 -30 -22
-17 -9 -35 -28 -41 -42 -7 -15 -26 -30 -45 -36 -46 -16 -71 -51 -86 -121 -8
-40 -18 -61 -29 -64 -10 -3 -32 -22 -48 -41 -26 -29 -31 -43 -31 -87 0 -48 -3
-55 -37 -84 l-38 -33 26 -22 c15 -13 30 -37 33 -54 9 -41 60 -107 108 -141 36
-24 38 -29 38 -80 0 -49 3 -58 33 -84 17 -16 48 -45 67 -63 19 -19 49 -41 67
-50 44 -22 120 -20 168 4 30 15 41 17 47 7 12 -18 10 -125 -3 -133 -6 -3 -23
2 -37 13 -32 23 -105 43 -158 43 -114 0 -223 -132 -199 -240 8 -37 63 -95 107
-113 l31 -13 -41 -27 c-47 -31 -59 -62 -43 -108 6 -18 11 -33 11 -34 0 -1 -13
-5 -30 -8 -16 -4 -37 -18 -46 -31 -15 -24 -15 -28 3 -58 10 -19 36 -42 60 -53
l41 -20 -5 -60 c-7 -74 7 -90 78 -90 35 0 53 -6 71 -22 29 -27 78 -30 113 -7
24 16 25 15 35 -12 19 -52 34 -75 66 -104 31 -27 129 -70 159 -70 22 0 128 41
146 56 21 19 29 18 29 -5 0 -11 12 -33 26 -51 25 -29 26 -33 15 -76 -10 -40
-9 -50 7 -77 10 -18 35 -41 55 -52 33 -18 37 -24 37 -61 0 -53 42 -113 98
-138 40 -18 42 -21 42 -61 0 -23 3 -44 6 -48 4 -3 21 5 38 18 l32 24 29 -19
c37 -24 95 -26 142 -4 32 16 37 16 69 0 46 -22 109 -21 142 3 15 10 41 21 57
25 75 16 145 92 162 176 9 45 9 45 48 43 38 -3 104 -44 113 -71 2 -6 -18 -22
-45 -36 -59 -30 -96 -67 -122 -126 -28 -62 -26 -87 12 -160 44 -88 90 -123
160 -123 30 0 69 7 87 17 18 9 37 16 42 16 4 0 8 -24 8 -53 0 -59 14 -80 63
-92 21 -6 26 -12 22 -25 -3 -10 1 -35 9 -55 15 -34 18 -36 58 -33 35 2 46 9
65 36 12 18 24 38 27 45 3 7 14 0 28 -18 60 -78 87 -90 129 -57 14 12 24 34
28 63 6 42 7 44 36 41 42 -4 85 36 85 78 0 30 1 30 53 30 65 0 139 34 196 92
47 46 56 80 48 175 -4 57 -3 63 12 57 9 -5 37 -8 64 -9 42 0 49 -3 66 -31 25
-42 71 -60 110 -44 16 6 39 22 51 35 l22 23 41 -19 c56 -25 117 -25 150 1 l26
20 37 -25 c54 -37 64 -33 64 23 1 42 4 49 33 67 45 29 77 81 77 126 0 34 5 42
40 64 60 38 74 65 67 133 -4 40 -2 65 8 82 33 58 1 133 -90 208 l-36 29 33 25
c34 26 72 48 82 48 3 0 6 -29 6 -64 0 -107 33 -171 108 -207 37 -19 56 -21
123 -16 49 3 89 12 105 22 35 23 84 103 84 138 0 27 2 29 28 22 70 -17 87 -17
110 5 12 11 22 27 22 35 0 19 9 19 31 -1 26 -24 92 -30 108 -10 13 16 11 60
-4 112 -6 18 -1 22 26 28 57 11 79 32 79 74 0 29 -6 42 -31 63 -28 23 -30 28
-19 48 16 31 5 83 -24 110 l-24 23 32 42 c67 89 70 179 7 270 -36 52 -58 72
-96 86 l-29 11 26 22 c14 12 34 34 43 49 10 16 26 28 37 28 11 0 35 15 54 34
30 30 34 40 34 84 0 46 3 52 33 71 43 27 59 55 63 114 2 27 4 50 6 51 2 2 24
15 51 30 62 36 65 66 7 89 -35 13 -40 19 -40 47 0 48 -24 93 -69 129 -32 26
-41 39 -41 64 -1 47 -31 100 -66 117 -17 8 -50 36 -75 61 -57 60 -104 69 -202
39 -37 -12 -72 -18 -77 -15 -11 7 -14 118 -4 128 3 3 31 -10 62 -29 50 -29 66
-34 123 -34 87 0 133 31 178 121 47 95 39 195 -22 252 l-31 29 21 16 c46 37
49 88 8 122 -15 12 -13 15 14 26 39 16 67 68 53 99 -11 23 -68 55 -99 55 -29
0 -32 7 -20 46 8 27 7 41 -5 68 -20 42 -47 49 -91 26 l-34 -19 -24 37 c-28 42
-55 50 -98 27 l-30 -15 -20 37 c-36 71 -99 111 -187 120 -57 6 -131 -14 -154
-43 -19 -22 -27 -17 -34 24 -3 22 -16 48 -30 61 -23 22 -24 25 -9 47 10 17 14
36 10 60 -7 42 -27 67 -67 84 -24 10 -29 19 -34 63 -9 61 -24 81 -83 107 l-43
19 0 60 c0 56 -2 61 -22 61 -12 0 -32 -9 -44 -21 l-22 -21 -31 23 c-38 28 -95
27 -151 -1 l-39 -20 -36 21 c-45 27 -111 19 -154 -17 -20 -17 -41 -24 -69 -24
-45 0 -92 -32 -117 -81 -27 -50 -16 -54 15 -5 20 31 43 52 66 62 43 18 69 12
60 -14 -4 -9 5 -2 20 16 31 39 73 62 113 62 33 0 81 -19 81 -31 0 -5 -16 -37
-35 -71 -40 -73 -65 -169 -65 -250 0 -69 -15 -75 -32 -13 -7 25 -18 45 -25 45
-7 0 -13 4 -13 8 0 5 -7 17 -15 28 -8 10 1 -17 20 -60 19 -44 33 -81 31 -84
-11 -10 -26 13 -61 94 -34 79 -37 94 -33 160 2 46 0 67 -6 57 -4 -8 -6 -52 -4
-97 4 -74 9 -90 51 -170 26 -49 46 -91 44 -93 -8 -8 -90 91 -108 130 -10 23
-19 36 -19 29 0 -22 29 -71 67 -113 50 -56 32 -62 -25 -8 -26 24 -41 37 -34
29 27 -31 10 -32 -22 -1 -41 39 -76 115 -86 186 l-8 50 -1 -42 c0 -24 -3 -43
-6 -43 -23 0 -135 76 -135 91 0 4 18 13 40 19 93 25 158 108 147 190 -8 61
-48 150 -82 184 -49 49 -127 67 -186 42 -13 -6 -21 2 -35 31 -14 27 -29 41
-54 49 -28 9 -36 18 -42 45 -7 38 -40 69 -73 69 -21 0 -71 -31 -87 -55 -4 -6
-20 3 -41 23 -44 43 -96 45 -125 4z"/>
<path fill="#ffffff" stroke="none" d="M2591 5146 c26 -42 24 -50 -17 -96 -42
-46 -51 -44 -83 25 -27 57 -27 90 0 109 29 20 75 3 100 -38z"/>
<path fill="#ffffff" stroke="none" d="M2750 5175 c16 -19 6 -59 -27 -101 -30
-40 -46 -42 -67 -12 -21 30 -20 56 4 96 15 24 27 32 49 32 16 0 34 -7 41 -15z"/>
<path fill="#ffffff" stroke="none" d="M2390 5080 c0 -7 7 -7 20 0 16 9 22 8
26 -5 3 -8 16 -15 28 -15 21 -1 21 -1 2 -15 -19 -15 -19 -15 2 -15 27 0 60
-46 44 -62 -15 -15 -4 -38 15 -31 12 5 12 7 1 14 -10 7 -10 9 0 9 7 0 17 -12
23 -26 7 -21 6 -33 -7 -53 -16 -26 -16 -26 11 2 15 16 30 26 33 22 3 -3 -9
-36 -27 -73 -22 -45 -44 -75 -67 -90 -18 -12 -36 -22 -39 -22 -12 0 -4 35 12
52 14 16 14 18 1 13 -19 -7 -30 25 -16 49 7 12 6 16 -4 14 -7 -2 -14 7 -16 20
-2 12 -6 22 -10 22 -4 0 -14 14 -21 32 -8 18 -26 42 -39 55 -20 18 -22 26 -13
37 9 11 9 15 -1 18 -9 3 -8 11 5 31 18 27 37 36 37 17z"/>
<path fill="#ffffff" stroke="none" d="M2867 5068 c8 -6 12 -17 9 -25 -3 -7
-1 -13 4 -13 19 0 10 -32 -10 -37 -11 -3 -20 -11 -20 -17 0 -6 -13 -23 -30
-38 -16 -14 -27 -28 -24 -31 3 -3 0 -15 -6 -27 -11 -21 -12 -21 -33 -3 -21 17
-21 17 1 -8 22 -25 30 -59 13 -59 -11 0 -75 71 -91 99 -14 27 -3 27 29 -1 21
-19 20 -17 -3 9 -36 40 -28 52 19 30 43 -20 47 -14 5 8 -35 18 -40 39 -7 30
19 -5 20 -4 5 5 -26 16 -22 30 10 30 19 0 23 3 13 9 -21 13 -4 31 27 27 15 -2
21 -1 15 1 -15 5 -17 16 -6 27 10 10 62 -1 80 -16z"/>
<path fill="#ffffff" stroke="none" d="M2648 5050 c25 -33 21 -52 -21 -98
l-21 -22 -28 27 c-15 15 -28 31 -28 35 0 11 61 88 70 88 3 0 16 -14 28 -30z"/>
<path fill="#ffffff" stroke="none" d="M2994 4969 c31 -36 33 -55 7 -68 -34
-19 -80 45 -60 82 14 24 24 21 53 -14z"/>
<path fill="#ffffff" stroke="none" d="M3074 4947 c7 -19 6 -31 -2 -39 -17
-17 -42 8 -42 44 0 38 30 35 44 -5z"/>
<path fill="#ffffff" stroke="none" d="M2257 4934 c8 -21 -5 -30 -49 -38 -36
-6 -38 -5 -38 18 0 33 36 59 62 45 11 -6 22 -17 25 -25z"/>
<path fill="#ffffff" stroke="none" d="M2936 4917 l36 -33 -16 -32 c-21 -41
-40 -40 -82 2 -38 38 -42 57 -18 80 23 23 40 20 80 -17z"/>
<path fill="#ffffff" stroke="none" d="M3140 4901 c0 -31 -22 -57 -40 -46 -11
7 -14 58 -3 68 3 4 15 7 25 7 13 0 18 -8 18 -29z"/>
<path fill="#ffffff" stroke="none" d="M2155 4867 l-1 -25 29 24 c33 28 63 30
95 8 30 -21 29 -83 -3 -151 l-24 -53 -33 14 c-46 19 -69 54 -70 104 0 24 -4
39 -10 36 -14 -9 -48 26 -48 51 0 11 5 26 12 33 18 18 53 -9 53 -41z"/>
<path fill="#ffffff" stroke="none" d="M2351 4910 c10 -6 19 -20 19 -32 0 -21
-26 -58 -41 -58 -10 0 -49 82 -43 92 7 11 41 10 65 -2z"/>
<path fill="#ffffff" stroke="none" d="M2780 4759 c0 -25 -12 -24 -37 4 -28
29 -83 118 -83 131 1 19 120 -116 120 -135z"/>
<path fill="#ffffff" stroke="none" d="M3075 4865 c18 -18 25 -35 25 -65 0
-32 4 -40 19 -40 24 0 45 -25 37 -46 -4 -10 -15 -14 -33 -12 -23 2 -28 7 -25
28 l2 25 -18 -28 c-24 -36 -49 -53 -89 -61 -30 -7 -32 -6 -38 28 -4 19 -5 60
-2 91 8 94 69 134 122 80z"/>
<path fill="#ffffff" stroke="none" d="M2606 4864 c-3 -9 -6 -31 -6 -49 0 -25
-5 -35 -21 -40 -11 -4 -23 -4 -26 -1 -8 8 38 106 50 106 5 0 6 -7 3 -16z"/>
<path fill="#ffffff" stroke="none" d="M2645 4823 c5 -35 4 -43 -9 -43 -22 0
-27 14 -20 60 8 49 19 42 29 -17z"/>
<path fill="#ffffff" stroke="none" d="M2693 4815 c20 -30 33 -56 29 -58 -9
-6 -48 9 -55 20 -7 12 -20 93 -14 93 2 0 20 -25 40 -55z"/>
<path fill="#ffffff" stroke="none" d="M3166 4814 c10 -41 -27 -57 -50 -22 -7
12 -6 21 3 32 20 24 40 19 47 -10z"/>
<path fill="#ffffff" stroke="none" d="M2914 4810 c39 -14 36 -64 -4 -85 -40
-21 -77 -19 -90 4 -16 31 -12 59 12 75 26 18 46 20 82 6z"/>
<path fill="#ffffff" stroke="none" d="M2125 4796 c16 -12 17 -16 6 -30 -20
-24 -71 -21 -71 4 0 10 8 24 18 29 22 14 25 13 47 -3z"/>
<path fill="#ffffff" stroke="none" d="M2401 4791 c20 -16 22 -23 13 -38 -12
-20 -53 -28 -91 -18 -21 5 -24 10 -18 33 11 46 55 56 96 23z"/>
<path fill="#ffffff" stroke="none" d="M1429 4736 c73 -61 127 -134 189 -254
59 -114 92 -204 92 -246 -1 -20 -2 -20 -14 -3 -19 24 -35 21 -29 -5 5 -20 1
-19 -32 12 -21 19 -35 29 -31 23 4 -7 3 -13 -2 -13 -19 0 -128 127 -159 186
-49 93 -81 228 -74 322 2 20 16 14 60 -22z"/>
<path fill="#ffffff" stroke="none" d="M1858 4734 c58 -70 68 -178 29 -312
-22 -75 -82 -192 -99 -192 -4 0 -5 30 -4 68 2 37 2 51 0 32 -7 -57 -14 -80
-24 -80 -6 0 -10 7 -10 15 0 9 -7 15 -15 13 -11 -2 -23 18 -41 70 -38 114
-107 235 -193 342 -27 33 -26 37 9 55 78 40 159 -1 224 -115 14 -25 26 -40 26
-34 0 5 -16 36 -35 68 -19 32 -35 62 -35 67 0 16 55 38 97 39 36 0 46 -5 71
-36z"/>
<path fill="#ffffff" stroke="none" d="M3718 4754 c12 -8 22 -20 22 -25 0 -6
-24 -37 -53 -69 -29 -32 -76 -98 -104 -147 -28 -48 -58 -95 -66 -104 -8 -9
-17 -38 -21 -65 -10 -67 -16 -85 -27 -79 -5 4 -9 30 -9 60 0 30 -5 57 -10 60
-10 6 -7 45 12 145 31 165 169 285 256 224z"/>
<path fill="#ffffff" stroke="none" d="M2700 4740 c27 -15 25 -49 -6 -91 -14
-19 -34 -51 -45 -71 -11 -21 -23 -38 -27 -38 -4 0 -13 15 -20 34 -7 18 -32 52
-57 74 -25 22 -45 48 -45 57 0 27 78 57 132 51 26 -3 57 -10 68 -16z"/>
<path fill="#ffffff" stroke="none" d="M2155 4719 c7 -22 -7 -39 -33 -39 -16
0 -26 25 -18 45 8 23 44 18 51 -6z"/>
<path fill="#ffffff" stroke="none" d="M3835 4720 c16 -51 -34 -215 -97 -320
-34 -56 -36 -62 -13 -40 31 29 87 141 110 223 9 31 22 57 28 57 27 -2 82 -37
95 -60 18 -35 9 -108 -22 -168 -29 -58 -86 -107 -171 -150 -63 -31 -126 -53
-93 -32 9 6 15 17 12 25 -5 12 -10 11 -32 -5 -14 -11 -28 -18 -31 -14 -3 3 1
11 9 18 8 6 29 27 45 46 17 19 2 9 -33 -23 -35 -31 -70 -57 -79 -57 -13 0 -14
3 -2 18 11 14 9 13 -9 -2 -26 -22 -41 -14 -21 11 12 14 12 16 0 8 -11 -6 -13
-3 -9 13 4 13 2 20 -3 16 -30 -18 45 166 112 274 34 57 69 97 112 132 68 55
83 60 92 30z"/>
<path fill="#ffffff" stroke="none" d="M2356 4699 c60 -37 69 -89 15 -89 -28
0 -101 44 -101 61 0 21 21 49 37 49 8 0 31 -9 49 -21z"/>
<path fill="#ffffff" stroke="none" d="M2945 4690 c21 -66 -65 -136 -96 -79
-16 30 3 66 44 84 42 19 45 18 52 -5z"/>
<path fill="#ffffff" stroke="none" d="M2001 4679 c55 -55 67 -186 25 -274
-24 -51 -100 -134 -112 -122 -4 3 10 28 30 55 20 27 36 55 36 62 0 6 -23 -22
-51 -64 -29 -42 -56 -76 -61 -76 -14 0 -5 20 37 85 19 31 35 61 35 68 0 6 -10
-5 -22 -25 -21 -37 -46 -53 -34 -23 30 80 38 135 33 232 l-5 103 34 0 c21 0
42 -8 55 -21z"/>
<path fill="#ffffff" stroke="none" d="M2794 4661 c18 -34 11 -69 -33 -145
-37 -67 -61 -147 -61 -206 0 -26 -3 -49 -6 -53 -10 -10 -64 14 -75 34 -18 34
7 204 39 263 25 47 101 136 115 136 4 0 13 -13 21 -29z"/>
<path fill="#ffffff" stroke="none" d="M3098 4662 c3 -16 -2 -22 -17 -22 -24
0 -35 15 -27 36 9 23 40 13 44 -14z"/>
<path fill="#ffffff" stroke="none" d="M2197 4654 c-9 -9 -28 6 -21 18 4 6 10
6 17 -1 6 -6 8 -13 4 -17z"/>
<path fill="#ffffff" stroke="none" d="M2528 4634 c17 -14 39 -38 47 -55 17
-33 36 -157 28 -192 -15 -76 -28 -109 -45 -118 -22 -12 -24 -7 -32 70 -3 35
-23 91 -56 160 -54 115 -56 122 -39 153 13 25 49 18 97 -18z"/>
<path fill="#ffffff" stroke="none" d="M2299 4613 c38 -46 39 -60 5 -75 -23
-11 -28 -8 -62 25 l-36 36 24 26 c13 14 27 25 31 25 4 0 21 -17 38 -37z"/>
<path fill="#ffffff" stroke="none" d="M3030 4634 c0 -9 -7 -14 -17 -12 -25 5
-28 28 -4 28 12 0 21 -6 21 -16z"/>
<path fill="#ffffff" stroke="none" d="M2988 4600 c28 -37 27 -41 -2 -70 -46
-42 -83 8 -52 69 20 38 27 39 54 1z"/>
<path fill="#ffffff" stroke="none" d="M2225 4549 c54 -65 3 -109 -56 -49
l-32 31 23 25 c13 13 27 24 31 24 4 0 19 -14 34 -31z"/>
<path fill="#ffffff" stroke="none" d="M2868 4541 c33 -41 39 -69 22 -100 -5
-10 -14 -49 -20 -87 -15 -92 -30 -114 -79 -114 -53 0 -65 18 -65 99 0 50 6 80
27 124 29 63 64 117 76 117 4 0 22 -18 39 -39z"/>
<path fill="#ffffff" stroke="none" d="M2408 4535 c16 -13 42 -52 58 -87 23
-51 29 -77 29 -138 l0 -74 -38 -9 c-23 -6 -42 -6 -48 0 -5 5 -11 38 -14 73 -3
35 -17 91 -31 124 -37 89 -38 95 -19 116 23 25 27 25 63 -5z"/>
<path fill="#ffffff" stroke="none" d="M3062 4529 c39 -29 36 -64 -7 -64 -28
0 -30 3 -33 43 -2 23 0 42 3 42 4 0 20 -9 37 -21z"/>
<path fill="#ffffff" stroke="none" d="M3148 4457 c2 -18 -2 -29 -13 -33 -24
-9 -39 10 -31 41 9 35 40 30 44 -8z"/>
<path fill="#ffffff" stroke="none" d="M1255 4430 c25 -76 92 -143 189 -189
44 -21 90 -42 101 -47 19 -7 18 -8 -5 -12 -20 -4 -16 -7 25 -17 46 -12 40 -13
-85 -10 -154 3 -192 14 -254 73 -65 62 -96 163 -63 204 14 17 58 48 68 48 4 0
15 -22 24 -50z"/>
<path fill="#ffffff" stroke="none" d="M2329 4425 c32 -50 47 -138 31 -181 -9
-24 -14 -26 -47 -21 -20 4 -39 11 -43 16 -3 6 -14 54 -24 108 -17 93 -17 97 0
110 32 23 53 15 83 -32z"/>
<path fill="#ffffff" stroke="none" d="M2999 4449 c33 -20 34 -21 28 -77 -10
-96 -22 -119 -67 -126 -56 -9 -67 -1 -75 54 -12 87 22 163 75 169 3 1 20 -8
39 -20z"/>
<path fill="#ffffff" stroke="none" d="M2098 4401 c-2 -18 -10 -27 -24 -29
-27 -4 -33 13 -22 57 9 32 10 33 29 15 12 -11 19 -28 17 -43z"/>
<path fill="#ffffff" stroke="none" d="M4025 4454 c25 -10 47 -62 40 -94 -17
-76 -225 -190 -347 -190 -35 0 -38 2 -28 19 5 11 37 30 69 42 42 15 58 25 54
35 -3 8 -1 14 5 14 19 0 113 92 138 136 26 44 37 50 69 38z"/>
<path fill="#ffffff" stroke="none" d="M2215 4379 c9 -16 19 -51 22 -77 7 -61
-5 -71 -72 -63 -46 6 -51 9 -62 41 -15 45 -8 68 31 102 41 36 62 35 81 -3z"/>
<path fill="#ffffff" stroke="none" d="M3114 4390 c15 -5 26 -17 26 -27 -1
-30 -38 -103 -56 -110 -36 -14 -57 61 -34 121 10 28 24 31 64 16z"/>
<path fill="#ffffff" stroke="none" d="M3214 4334 c20 -21 26 -37 26 -69 l0
-43 -37 11 c-52 15 -63 25 -63 56 0 27 24 71 39 71 5 0 20 -12 35 -26z"/>
<path fill="#ffffff" stroke="none" d="M2068 4305 c22 -47 15 -73 -21 -88 -18
-8 -41 -22 -51 -32 -24 -24 -36 -6 -36 56 0 50 8 60 55 77 42 15 40 15 53 -13z"/>
<path fill="#ffffff" stroke="none" d="M3383 4222 c136 -91 139 -93 235 -132
45 -18 82 -39 82 -47 0 -7 -13 -19 -29 -28 -17 -8 -49 -37 -73 -65 -45 -53
-58 -60 -58 -34 0 11 -5 14 -16 10 -13 -5 -15 -2 -10 14 21 68 22 67 -13 33
-41 -41 -55 -42 -49 -3 5 34 5 34 -22 18 -25 -16 -35 -5 -20 21 12 24 -1 28
-20 6 -18 -21 -32 -19 -25 5 7 24 -2 25 -29 5 -11 -8 -23 -15 -28 -15 -13 0
-9 35 7 56 31 40 14 47 -25 9 -22 -21 -42 -36 -46 -33 -3 4 0 24 7 45 7 21 13
75 13 120 1 46 5 83 9 83 5 0 54 -31 110 -68z"/>
<path fill="#ffffff" stroke="none" d="M4074 4258 c9 -12 16 -35 16 -50 0 -52
-21 -77 -94 -114 -97 -47 -177 -55 -274 -25 -71 21 -101 41 -63 41 12 0 21 5
21 10 0 6 -27 10 -60 10 -110 0 -62 17 63 22 109 4 130 8 199 37 43 18 97 46
120 62 52 35 53 35 72 7z"/>
<path fill="#ffffff" stroke="none" d="M1202 4234 c57 -65 144 -96 311 -110
89 -7 76 -24 -21 -26 -42 -1 -60 -3 -39 -5 42 -5 41 -22 -1 -24 -18 -1 -21 -3
-9 -6 10 -3 49 5 87 16 77 24 80 24 80 12 0 -5 -24 -19 -52 -31 -64 -27 -193
-38 -256 -21 -50 14 -113 67 -136 115 -18 38 -22 116 -6 116 6 0 25 -16 42
-36z"/>
<path fill="#ffffff" stroke="none" d="M2830 4216 c63 0 167 3 230 8 101 8
120 7 149 -9 33 -16 33 -18 28 -65 -3 -26 -13 -64 -21 -84 l-15 -36 -88 1
c-108 1 -217 -15 -248 -35 -34 -22 -38 -21 -90 24 -56 49 -115 80 -150 80 -36
0 -91 -30 -148 -80 l-48 -43 -88 27 c-69 21 -112 28 -194 29 l-107 3 -25 34
c-14 19 -25 40 -25 46 0 7 21 28 48 46 l47 33 215 5 c222 5 253 11 289 54 11
13 19 11 69 -12 51 -23 70 -26 172 -26z"/>
<path fill="#ffffff" stroke="none" d="M1944 4208 c4 -28 14 -67 22 -87 10
-23 11 -37 4 -39 -5 -2 -10 -12 -10 -23 0 -21 -15 -25 -26 -7 -5 7 -11 5 -21
-8 -14 -18 -15 -18 -34 9 -12 15 -25 27 -30 27 -4 0 -6 -12 -3 -27 4 -21 0
-31 -16 -41 -19 -11 -25 -11 -41 4 -18 17 -19 16 -19 -19 0 -35 -12 -48 -25
-27 -12 20 -21 9 -17 -20 6 -41 -12 -38 -39 7 -23 37 -40 32 -20 -6 6 -11 11
-29 11 -41 0 -18 -8 -14 -47 27 -27 27 -63 55 -80 62 -18 7 -33 16 -33 20 1 3
53 32 118 64 64 31 155 84 202 116 47 32 88 59 91 60 4 0 10 -22 13 -51z"/>
<path fill="#ffffff" stroke="none" d="M974 4234 c13 -34 7 -64 -14 -64 -23 0
-43 40 -34 65 8 20 40 19 48 -1z"/>
<path fill="#ffffff" stroke="none" d="M911 4199 c23 -44 -25 -47 -61 -5 -10
13 -10 19 0 31 15 18 44 5 61 -26z"/>
<path fill="#ffffff" stroke="none" d="M4300 4201 c14 -28 13 -38 -10 -61
l-20 -20 30 -7 c57 -11 82 -90 40 -128 -20 -18 -20 -18 -1 -31 28 -20 43 -70
25 -85 -19 -16 -40 -5 -59 31 -14 26 -14 34 -3 48 11 14 10 15 -7 8 -11 -5
-41 -11 -67 -13 -44 -5 -47 -4 -53 19 -10 40 12 104 46 132 17 14 26 26 20 26
-16 0 -13 52 5 78 19 27 40 28 54 3z"/>
<path fill="#ffffff" stroke="none" d="M1050 4171 c0 -37 -22 -57 -40 -36 -18
21 -4 65 20 65 15 0 20 -7 20 -29z"/>
<path fill="#ffffff" stroke="none" d="M849 4166 c26 -28 21 -46 -14 -46 -56
0 -95 37 -68 63 15 15 61 6 82 -17z"/>
<path fill="#ffffff" stroke="none" d="M4200 4161 c13 -25 13 -71 0 -71 -17 0
-50 39 -50 58 0 36 33 44 50 13z"/>
<path fill="#ffffff" stroke="none" d="M4390 4165 c10 -12 9 -20 -4 -40 -19
-29 -17 -29 -51 -13 -29 13 -31 25 -8 50 20 22 46 23 63 3z"/>
<path fill="#ffffff" stroke="none" d="M991 4140 c29 -16 49 -64 49 -119 0
-45 -3 -51 -24 -57 -88 -22 -186 105 -129 168 18 20 73 24 104 8z"/>
<path fill="#ffffff" stroke="none" d="M1090 4111 c0 -22 -25 -45 -40 -36 -13
8 -13 28 2 43 18 18 38 14 38 -7z"/>
<path fill="#ffffff" stroke="none" d="M857 4065 c7 -22 32 -58 53 -80 35 -36
40 -47 40 -87 0 -48 -17 -73 -43 -62 -24 9 -40 60 -34 109 6 61 -6 65 -28 10
-20 -54 -46 -72 -69 -49 -25 25 -19 45 30 91 25 25 43 47 40 50 -3 4 -16 -3
-29 -15 -26 -25 -82 -30 -90 -8 -16 42 32 88 87 83 24 -2 31 -9 43 -42z"/>
<path fill="#ffffff" stroke="none" d="M4084 4026 c2 -42 0 -76 -4 -76 -5 0
-38 13 -75 30 -58 26 -66 27 -60 11 7 -22 -27 -67 -43 -57 -7 4 -12 22 -12 40
0 31 3 35 58 54 31 12 73 35 92 51 19 16 36 28 38 26 2 -2 5 -37 6 -79z"/>
<path fill="#ffffff" stroke="none" d="M4450 4090 c35 -35 -1 -70 -54 -51 -33
13 -35 48 -3 61 32 13 35 12 57 -10z"/>
<path fill="#ffffff" stroke="none" d="M4170 4085 c10 -12 10 -21 2 -41 -10
-21 -15 -23 -33 -14 -24 13 -33 34 -25 55 7 19 40 19 56 0z"/>
<path fill="#ffffff" stroke="none" d="M610 4081 c0 -13 -29 -35 -37 -28 -7 8
15 37 28 37 5 0 9 -4 9 -9z"/>
<path fill="#ffffff" stroke="none" d="M658 4078 c18 -18 16 -20 -33 -61 -70
-59 -83 -25 -17 46 29 31 33 32 50 15z"/>
<path fill="#ffffff" stroke="none" d="M2706 4039 c96 -66 261 -274 227 -286
-21 -8 -76 -48 -80 -58 -1 -5 1 -17 7 -25 7 -12 18 -12 60 -4 51 11 51 11 68
-20 13 -24 17 -55 16 -131 -1 -95 -4 -109 -64 -290 -55 -166 -121 -324 -152
-362 -7 -9 -16 -10 -29 -3 -18 10 -18 13 6 67 14 31 24 61 22 66 -2 6 -15 -18
-31 -52 -20 -45 -32 -61 -47 -61 -22 0 -21 12 13 109 10 30 18 61 18 70 -1 9
-14 -26 -31 -76 -24 -75 -34 -93 -49 -93 -17 0 -20 8 -22 58 l-1 57 -6 -55
c-5 -47 -9 -55 -28 -58 -18 -3 -24 4 -32 35 -6 21 -11 43 -11 49 0 17 -31 116
-35 112 -2 -1 5 -39 16 -83 10 -44 19 -90 19 -102 0 -39 -26 -25 -61 32 -18
30 -37 55 -42 55 -5 0 -2 -10 7 -22 29 -41 55 -95 49 -102 -10 -10 -23 -7 -23
5 0 6 -15 37 -34 68 -52 85 -172 330 -189 386 -35 109 -45 342 -17 360 4 3 29
-4 54 -15 35 -16 50 -18 66 -10 24 13 24 13 5 49 -8 16 -28 34 -45 39 -16 6
-30 15 -30 20 0 33 228 264 292 295 38 19 57 15 114 -24z"/>
<path fill="#ffffff" stroke="none" d="M4604 4066 c12 3 15 1 8 -2 -10 -5 -9
-9 5 -21 12 -10 14 -16 6 -19 -7 -3 -9 -13 -6 -21 5 -13 2 -15 -13 -9 -15 6
-17 5 -6 -5 18 -19 15 -32 -5 -24 -15 5 -16 4 -5 -6 19 -20 14 -32 -9 -26 -17
4 -19 3 -10 -6 15 -15 14 -27 -4 -27 -9 0 -12 -6 -9 -15 4 -8 2 -15 -4 -15 -6
0 -8 -9 -5 -20 3 -12 0 -20 -6 -20 -7 0 -9 -4 -6 -10 4 -6 -6 -11 -22 -11 -17
-1 -21 -3 -10 -6 9 -2 15 -9 12 -14 -4 -5 -1 -9 4 -9 19 0 12 -17 -15 -35 -24
-16 -28 -16 -43 -1 -14 15 -14 18 -1 26 11 7 8 10 -15 10 -36 0 -60 14 -51 29
5 7 -1 11 -14 11 -28 0 -21 24 8 28 19 3 111 82 95 82 -3 0 -1 6 4 13 13 15
27 67 24 85 -4 21 39 53 57 43 8 -5 24 -7 36 -5z"/>
<path fill="#ffffff" stroke="none" d="M642 3988 c-27 -28 -56 -48 -63 -46 -9
3 5 23 40 56 69 66 90 56 23 -10z"/>
<path fill="#ffffff" stroke="none" d="M1084 4042 c2 -4 0 -14 -5 -22 -8 -13
-10 -13 -18 0 -10 15 -6 30 9 30 5 0 11 -4 14 -8z"/>
<path fill="#ffffff" stroke="none" d="M514 4001 c14 -21 32 -55 40 -75 16
-39 16 -39 -29 -49 -11 -3 -3 -5 17 -6 34 -1 41 -6 68 -48 l29 -48 -66 -8
c-37 -4 -70 -4 -74 0 -3 5 -14 30 -22 57 -16 47 -16 48 4 53 19 5 18 7 -10 19
-34 14 -51 47 -51 98 0 40 5 46 42 46 21 0 33 -9 52 -39z"/>
<path fill="#ffffff" stroke="none" d="M4766 4005 c3 -13 0 -43 -8 -67 l-15
-43 -58 -3 -57 -3 7 28 c3 15 22 47 41 70 42 51 80 58 90 18z"/>
<path fill="#ffffff" stroke="none" d="M710 3991 c0 -10 -10 -26 -22 -35 l-23
-17 23 11 c53 25 57 -22 5 -49 -46 -25 -37 -27 12 -4 50 24 69 4 23 -25 -18
-12 -28 -22 -23 -22 6 0 21 7 33 16 23 16 52 13 52 -4 0 -5 -15 -16 -32 -24
-18 -8 -26 -12 -18 -10 56 15 86 13 104 -7 18 -20 18 -21 -10 -31 -16 -6 -36
-18 -45 -26 -11 -10 -33 -14 -65 -12 -57 4 -61 20 -7 29 l38 6 -43 2 c-24 0
-41 5 -37 10 3 5 -5 11 -17 13 -22 3 -22 4 7 20 l30 17 -37 -6 c-41 -6 -51 8
-20 27 14 8 12 9 -10 4 -32 -7 -38 11 -11 31 15 11 14 12 -12 8 -29 -5 -28 -2
27 52 56 55 78 62 78 26z"/>
<path fill="#ffffff" stroke="none" d="M1306 3961 c-12 -19 -35 -12 -52 15
-15 22 -15 27 -3 35 17 10 65 -33 55 -50z"/>
<path fill="#ffffff" stroke="none" d="M1518 4000 c37 -23 38 -27 15 -52 -21
-24 -48 -23 -84 3 -69 49 -5 94 69 49z"/>
<path fill="#ffffff" stroke="none" d="M3230 3999 c129 -35 213 -82 266 -146
65 -81 134 -223 141 -291 l6 -55 -34 7 c-19 3 -73 9 -121 12 l-88 7 -11 41
c-26 102 -73 232 -88 244 -20 17 -88 9 -219 -24 l-95 -24 -28 32 c-16 18 -28
36 -29 39 0 3 -18 30 -40 59 -22 30 -37 57 -33 61 10 8 128 46 163 52 62 11
141 5 210 -14z"/>
<path fill="#ffffff" stroke="none" d="M4423 4008 c9 -7 20 -28 23 -45 8 -41
-16 -54 -55 -30 -41 25 -48 43 -27 66 22 24 35 26 59 9z"/>
<path fill="#ffffff" stroke="none" d="M2327 3987 c78 -22 79 -23 30 -80 -24
-29 -56 -71 -71 -95 -20 -33 -32 -42 -44 -37 -27 11 -254 55 -284 55 -20 0
-31 -8 -43 -30 -19 -38 -19 -54 1 -17 13 24 21 27 62 27 84 0 321 -55 370 -86
21 -14 31 -54 13 -54 -5 0 -51 15 -102 34 -214 77 -276 79 -305 10 -8 -20 -13
-38 -10 -41 3 -3 8 6 11 20 12 46 38 61 97 54 29 -3 77 -13 106 -22 48 -15 53
-19 47 -38 -16 -54 -16 -120 0 -194 14 -65 59 -201 90 -275 14 -35 -11 -17
-39 26 -33 52 -176 193 -226 223 -19 11 -52 26 -73 33 -22 7 -42 21 -47 34 -5
13 -9 15 -10 6 0 -8 -3 -25 -6 -37 -5 -18 -2 -23 12 -23 11 0 52 -19 92 -41
56 -31 105 -72 204 -172 129 -131 130 -133 201 -277 40 -80 72 -149 72 -154 0
-27 -28 -11 -66 39 -23 30 -44 54 -46 51 -2 -2 17 -32 43 -66 41 -54 45 -63
32 -76 -13 -13 -21 -11 -64 11 -27 14 -38 18 -25 8 14 -10 34 -26 45 -35 l21
-18 -23 -19 c-15 -13 -18 -21 -10 -24 52 -19 -142 -39 -367 -39 -124 0 -305
57 -422 133 -59 39 -62 42 -48 62 8 12 28 35 45 51 64 60 -3 93 -75 36 -48
-38 -53 -34 -89 72 -51 150 -55 340 -7 381 43 37 242 86 354 87 l47 0 0 -47
c0 -27 4 -54 9 -62 12 -18 41 -7 41 16 0 14 -2 15 -9 4 -5 -8 -14 -10 -21 -6
-12 7 -10 73 5 170 2 17 2 21 -1 10 -3 -11 -10 -24 -15 -30 -13 -14 -242 -54
-253 -45 -12 11 37 181 74 257 51 103 165 191 303 234 51 16 84 18 192 15 72
-3 153 -11 182 -19z"/>
<path fill="#ffffff" stroke="none" d="M3754 3976 l40 -33 -28 -28 -28 -28
-41 42 -42 42 24 20 c13 10 26 19 30 19 3 0 24 -15 45 -34z"/>
<path fill="#ffffff" stroke="none" d="M3870 3996 c0 -7 -7 -20 -16 -27 -14
-11 -18 -10 -30 6 -21 28 -17 35 16 35 19 0 30 -5 30 -14z"/>
<path fill="#ffffff" stroke="none" d="M4141 4000 c23 -13 26 -60 4 -60 -16 0
-35 30 -35 54 0 19 5 20 31 6z"/>
<path fill="#ffffff" stroke="none" d="M1238 3939 c3 -41 -16 -56 -48 -39 -18
10 -45 49 -38 54 18 15 47 25 63 23 15 -1 21 -11 23 -38z"/>
<path fill="#ffffff" stroke="none" d="M4030 3947 c0 -7 -9 -23 -20 -37 -16
-20 -22 -23 -37 -14 -22 13 -29 50 -13 69 9 10 18 11 41 3 16 -5 29 -15 29
-21z"/>
<path fill="#ffffff" stroke="none" d="M1399 3956 c53 -28 75 -83 47 -122 -14
-19 -15 -19 -52 1 -20 11 -48 37 -61 59 l-25 39 23 18 c29 23 33 23 68 5z"/>
<path fill="#ffffff" stroke="none" d="M1028 3938 c7 -7 12 -34 12 -60 0 -43
-3 -48 -25 -54 -14 -4 -29 -4 -32 0 -4 4 -9 33 -11 66 -4 58 -4 60 20 60 13 0
29 -5 36 -12z"/>
<path fill="#ffffff" stroke="none" d="M1140 3931 c23 -43 6 -91 -32 -91 -20
0 -58 54 -58 82 0 30 74 38 90 9z"/>
<path fill="#ffffff" stroke="none" d="M3678 3902 c24 -24 67 -97 120 -206 90
-181 139 -247 204 -273 37 -15 38 -17 38 -64 0 -68 13 -94 120 -244 101 -141
123 -183 118 -223 -2 -21 -10 -28 -38 -34 -44 -9 -151 1 -172 16 -9 7 -27 37
-41 67 -13 30 -45 79 -70 109 -43 53 -45 58 -37 94 5 22 12 82 15 135 7 94 7
96 -19 120 -14 13 -74 41 -133 61 l-108 37 -17 76 c-9 42 -36 113 -58 159 -28
56 -39 90 -35 106 7 29 55 102 66 102 5 0 26 -17 47 -38z"/>
<path fill="#ffffff" stroke="none" d="M4090 3930 c11 -7 12 -15 4 -37 -12
-35 -47 -39 -52 -5 -7 46 14 64 48 42z"/>
<path fill="#ffffff" stroke="none" d="M4280 3909 c0 -11 -7 -35 -14 -54 -26
-62 -86 -32 -71 36 5 22 14 31 38 37 38 11 47 7 47 -19z"/>
<path fill="#ffffff" stroke="none" d="M1646 3883 l32 -42 -50 -102 c-36 -73
-54 -124 -62 -177 l-11 -74 -85 -25 c-47 -13 -91 -32 -99 -41 -10 -13 -12 -46
-7 -148 l6 -132 -35 -23 c-47 -32 -135 -143 -182 -230 l-38 -71 -53 5 c-31 2
-58 10 -63 18 -6 8 -8 40 -6 71 5 57 9 65 110 248 38 67 71 157 82 222 5 30
15 44 50 68 66 46 130 131 195 260 70 140 132 223 163 218 12 -2 35 -22 53
-45z"/>
<path fill="#ffffff" stroke="none" d="M3875 3908 c38 -17 32 -50 -18 -103
-24 -25 -50 -45 -58 -45 -9 0 -25 19 -36 42 -25 49 -19 68 30 98 37 23 47 24
82 8z"/>
<path fill="#ffffff" stroke="none" d="M4180 3899 c0 -27 -18 -59 -33 -59 -22
0 -39 38 -27 60 15 28 60 27 60 -1z"/>
<path fill="#ffffff" stroke="none" d="M1353 3831 c53 -59 61 -112 21 -128
-33 -12 -151 63 -189 120 l-17 26 49 24 c57 30 77 23 136 -42z"/>
<path fill="#ffffff" stroke="none" d="M453 3853 c23 -47 29 -93 12 -99 -28
-11 -87 7 -111 33 -47 51 -24 91 53 92 26 1 35 -5 46 -26z"/>
<path fill="#ffffff" stroke="none" d="M4722 3874 c3 -3 -2 -29 -12 -57 -20
-57 -34 -64 -91 -49 -29 7 -34 13 -32 36 1 16 9 39 18 52 13 20 24 24 64 24
26 0 50 -3 53 -6z"/>
<path fill="#ffffff" stroke="none" d="M4871 3854 c27 -25 24 -60 -8 -81 -26
-17 -134 -26 -148 -12 -12 13 15 88 38 104 27 20 90 14 118 -11z"/>
<path fill="#ffffff" stroke="none" d="M4033 3841 c4 -4 2 -23 -5 -42 -27 -79
-90 -142 -155 -155 -28 -5 -33 -3 -48 26 -16 30 -15 33 9 74 13 23 45 61 69
84 44 39 47 40 84 30 21 -5 41 -13 46 -17z"/>
<path fill="#ffffff" stroke="none" d="M4138 3777 c6 -76 -68 -193 -155 -244
l-44 -26 -30 29 c-43 41 -38 66 24 115 28 23 67 62 84 87 52 72 65 83 92 80
22 -3 26 -9 29 -41z"/>
<path fill="#ffffff" stroke="none" d="M1189 3769 c25 -23 71 -55 101 -73 64
-36 74 -65 40 -109 -25 -31 -39 -33 -83 -11 -118 60 -237 206 -184 227 41 17
81 6 126 -34z"/>
<path fill="#ffffff" stroke="none" d="M3290 3800 c44 -24 135 -403 102 -424
-11 -7 -15 4 -45 139 -36 161 -86 245 -144 245 -15 0 -81 -18 -145 -39 -147
-49 -174 -55 -183 -41 -19 31 88 79 245 109 30 6 64 13 75 15 39 7 77 6 95 -4z"/>
<path fill="#ffffff" stroke="none" d="M4275 3771 c10 -45 -11 -138 -43 -190
-31 -49 -144 -139 -177 -140 -11 -1 -31 6 -43 15 -31 21 -22 47 38 109 27 28
68 84 91 125 53 96 66 110 100 110 22 0 29 -6 34 -29z"/>
<path fill="#ffffff" stroke="none" d="M1048 3726 c33 -56 78 -100 155 -153
63 -43 63 -67 0 -94 -58 -25 -73 -18 -142 57 -47 51 -131 197 -131 227 0 16
39 26 71 19 8 -2 29 -27 47 -56z"/>
<path fill="#ffffff" stroke="none" d="M4407 3765 c23 -14 49 -38 57 -53 17
-34 28 -103 18 -118 -14 -22 -49 -33 -88 -27 -21 3 -63 1 -91 -5 -29 -5 -53
-7 -53 -3 0 3 11 38 25 76 13 39 25 80 25 93 0 35 18 62 42 62 12 0 41 -11 65
-25z"/>
<path fill="#ffffff" stroke="none" d="M898 3748 c24 -26 134 -199 129 -204
-1 -2 -24 5 -50 14 -44 16 -51 16 -113 -1 -59 -15 -70 -16 -89 -3 -47 31 -37
126 20 183 39 39 73 42 103 11z"/>
<path fill="#ffffff" stroke="none" d="M4534 3719 c-20 -21 -31 -26 -38 -18
-8 7 -1 19 23 41 43 39 56 19 15 -23z"/>
<path fill="#ffffff" stroke="none" d="M3257 3715 c21 -24 59 -115 70 -165 4
-24 1 -27 -45 -39 -69 -17 -134 -60 -219 -144 -40 -39 -73 -68 -73 -63 0 4 8
33 17 64 13 42 18 93 18 194 l0 136 80 26 c89 28 120 27 152 -9z"/>
<path fill="#ffffff" stroke="none" d="M520 3723 c0 30 30 19 31 -10 2 -24 2
-25 6 -5 2 12 8 22 13 22 5 0 15 3 24 6 11 4 16 0 16 -12 0 -11 4 -15 8 -9 10
13 52 19 52 7 0 -6 8 -8 18 -6 9 3 25 -1 35 -8 16 -12 17 -18 6 -41 -6 -14
-16 -24 -20 -21 -9 5 3 -33 21 -65 16 -30 -1 -32 -37 -5 -18 14 -33 22 -33 18
0 -3 -6 -2 -12 3 -7 6 -26 13 -43 17 -16 4 -33 13 -37 19 -5 8 -8 5 -8 -7 0
-12 -5 -16 -15 -12 -8 3 -28 0 -43 -6 -15 -6 -29 -12 -32 -13 -3 0 -15 -4 -27
-9 -30 -10 -95 40 -91 69 2 11 9 19 16 18 6 -2 12 4 12 12 0 8 5 16 10 16 6 1
14 2 19 3 5 0 13 4 17 8 4 4 13 3 21 -3 10 -9 13 -8 13 4 0 21 32 27 48 8 11
-13 12 -13 12 2z"/>
<path fill="#ffffff" stroke="none" d="M755 3731 c10 -17 -11 -21 -31 -6 -18
14 -18 14 3 15 12 0 24 -4 28 -9z"/>
<path fill="#ffffff" stroke="none" d="M4625 3713 l-5 -28 11 27 c14 38 58 36
60 -2 1 -20 2 -21 6 -5 7 30 20 40 37 26 11 -9 15 -9 18 0 9 26 27 -3 23 -34
l-5 -32 10 32 c12 36 39 36 41 -1 0 -11 3 -15 6 -8 7 17 20 15 27 -4 7 -17
-10 -54 -24 -54 -6 0 -10 10 -11 23 -1 24 -4 18 -13 -25 -4 -16 -13 -28 -21
-28 -9 0 -16 10 -16 28 -2 23 -2 24 -6 5 -8 -40 -23 -25 -25 25 l-1 47 -6 -44
c-3 -25 -12 -46 -18 -49 -7 -2 -13 2 -13 9 0 10 -3 10 -12 1 -19 -19 -28 -14
-29 16 l-1 27 -7 -30 c-8 -37 -41 -48 -42 -13 -1 23 -1 23 -10 -2 -5 -14 -28
-38 -50 -53 -45 -31 -65 -29 -31 3 12 12 22 26 22 33 0 8 -4 7 -10 -3 -18 -29
-23 1 -6 37 15 31 15 35 2 24 -22 -18 -22 6 0 37 14 20 42 33 30 13 -3 -5 0
-11 8 -14 8 -3 18 5 25 19 15 35 43 32 36 -3z"/>
<path fill="#ffffff" stroke="none" d="M4718 3568 c14 -14 16 -57 3 -76 -5 -8
-21 -12 -37 -10 -25 3 -29 8 -32 36 -5 52 34 82 66 50z"/>
<path fill="#ffffff" stroke="none" d="M645 3551 c8 -27 -20 -91 -40 -91 -12
0 -3 -16 29 -51 26 -29 45 -57 43 -63 -7 -21 -70 -56 -102 -56 -18 0 -48 11
-68 24 -22 15 -34 19 -30 10 7 -18 -20 -28 -52 -20 -29 7 -33 37 -9 57 12 10
20 10 34 1 17 -11 19 -8 17 29 -2 51 30 81 80 76 29 -3 31 -1 18 13 -10 11
-11 20 -3 35 29 55 71 73 83 36z"/>
<path fill="#ffffff" stroke="none" d="M4410 3550 c10 0 28 -8 41 -19 l23 -19
-28 -41 c-31 -45 -39 -48 -136 -54 -49 -3 -83 -13 -137 -41 -85 -42 -103 -45
-103 -13 0 24 24 49 116 124 56 46 149 78 192 67 8 -2 22 -4 32 -4z"/>
<path fill="#ffffff" stroke="none" d="M4815 3550 c11 -18 -28 -85 -50 -85
-27 0 -33 50 -9 76 19 21 49 25 59 9z"/>
<path fill="#ffffff" stroke="none" d="M528 3518 c3 -21 -3 -30 -26 -42 -34
-18 -42 -13 -42 24 0 54 62 70 68 18z"/>
<path fill="#ffffff" stroke="none" d="M1020 3512 c48 -27 140 -109 140 -123
0 -18 -42 -8 -102 22 -53 27 -74 32 -144 33 -88 1 -114 13 -114 51 0 23 16 32
85 48 35 9 88 -4 135 -31z"/>
<path fill="#ffffff" stroke="none" d="M4614 3519 c32 -25 33 -52 4 -71 -20
-14 -27 -14 -56 0 -36 18 -51 54 -32 77 17 21 53 19 84 -6z"/>
<path fill="#ffffff" stroke="none" d="M745 3506 c16 -12 17 -18 8 -39 -6 -14
-28 -37 -48 -53 l-36 -27 -27 27 -27 27 42 39 c46 43 59 47 88 26z"/>
<path fill="#ffffff" stroke="none" d="M3669 3460 c150 -37 204 -59 227 -95
16 -25 17 -35 6 -110 -22 -149 -96 -365 -125 -365 -5 0 -26 14 -47 30 -48 38
-97 50 -106 25 -5 -11 7 -31 40 -64 25 -26 46 -51 46 -56 0 -6 -12 -18 -26
-29 -84 -61 -140 -90 -238 -122 -127 -43 -184 -46 -353 -20 -57 9 -125 16
-152 16 -72 0 -83 24 -19 41 l33 8 -39 -2 c-42 -2 -57 13 -36 38 9 11 7 12 -8
8 -37 -9 -38 33 -3 82 17 24 31 49 31 55 0 7 -15 -9 -32 -36 -18 -26 -38 -49
-44 -51 -27 -9 -19 32 26 130 26 59 60 139 76 179 64 167 172 287 307 339 44
16 87 29 96 27 11 -2 19 -21 26 -60 19 -107 55 -104 55 4 l0 71 68 -6 c37 -4
123 -20 191 -37z"/>
<path fill="#ffffff" stroke="none" d="M4870 3450 c0 -21 -57 -73 -74 -67 -15
5 -20 55 -6 72 24 28 80 25 80 -5z"/>
<path fill="#ffffff" stroke="none" d="M448 3458 c16 -20 3 -68 -19 -68 -22 0
-45 41 -36 64 8 19 40 21 55 4z"/>
<path fill="#ffffff" stroke="none" d="M4759 3420 c27 -79 -45 -142 -138 -121
-24 5 -51 17 -61 26 -19 17 -19 19 -2 47 55 94 174 123 201 48z"/>
<path fill="#ffffff" stroke="none" d="M4545 3438 c30 -13 31 -28 7 -59 -17
-20 -23 -22 -63 -13 -35 7 -45 14 -47 32 -7 47 44 67 103 40z"/>
<path fill="#ffffff" stroke="none" d="M1064 3386 c23 -13 51 -35 64 -49 19
-20 21 -28 13 -50 -13 -34 -41 -35 -105 -2 -32 16 -66 25 -97 25 -56 0 -82 20
-77 59 6 54 122 64 202 17z"/>
<path fill="#ffffff" stroke="none" d="M820 3390 c0 -24 -36 -49 -83 -57 -29
-4 -37 -1 -46 15 -16 30 27 62 85 62 37 0 44 -3 44 -20z"/>
<path fill="#ffffff" stroke="none" d="M4379 3391 c12 -8 13 -18 5 -47 -7 -30
-18 -43 -59 -66 -129 -73 -182 -85 -209 -46 -9 12 -16 32 -16 44 0 23 42 64
91 89 57 30 160 44 188 26z"/>
<path fill="#ffffff" stroke="none" d="M4844 3357 c30 -22 16 -52 -25 -55 -49
-4 -68 19 -40 47 24 24 40 26 65 8z"/>
<path fill="#ffffff" stroke="none" d="M4515 3340 c3 -5 -1 -25 -9 -45 -12
-29 -20 -35 -44 -35 -36 0 -60 25 -46 48 6 8 26 21 45 28 43 16 47 16 54 4z"/>
<path fill="#ffffff" stroke="none" d="M848 3293 c4 -26 -20 -41 -81 -49 -40
-6 -45 -4 -50 17 -14 52 -6 58 78 56 43 -2 50 -5 53 -24z"/>
<path fill="#ffffff" stroke="none" d="M4590 3280 c0 -6 -11 -10 -25 -10 -23
0 -34 18 -19 33 9 8 44 -11 44 -23z"/>
<path fill="#ffffff" stroke="none" d="M4764 3291 c34 -37 -1 -100 -41 -75
-25 16 -29 65 -7 81 23 17 28 17 48 -6z"/>
<path fill="#ffffff" stroke="none" d="M514 3294 c21 -8 21 -48 0 -69 -33 -33
-67 8 -41 49 19 29 19 29 41 20z"/>
<path fill="#ffffff" stroke="none" d="M660 3271 c0 -22 -25 -45 -40 -36 -14
9 -13 42 3 48 25 11 37 7 37 -12z"/>
<path fill="#ffffff" stroke="none" d="M723 3195 c9 -38 12 -73 8 -77 -5 -6
-74 22 -120 49 -2 2 7 11 20 22 14 11 34 35 44 55 11 20 22 32 26 28 4 -4 13
-38 22 -77z"/>
<path fill="#ffffff" stroke="none" d="M1038 3261 c20 -10 45 -27 54 -38 16
-18 16 -21 -3 -52 l-20 -34 -77 6 c-42 3 -84 8 -94 12 -24 10 -29 84 -6 107
24 24 98 24 146 -1z"/>
<path fill="#ffffff" stroke="none" d="M4680 3256 c0 -30 -13 -40 -40 -31 -13
4 -20 15 -20 31 0 20 5 24 30 24 25 0 30 -4 30 -24z"/>
<path fill="#ffffff" stroke="none" d="M590 3243 c0 -37 -14 -57 -34 -50 -18
7 -21 30 -6 58 16 29 40 24 40 -8z"/>
<path fill="#ffffff" stroke="none" d="M4373 3201 c4 -34 3 -58 -3 -66 -12
-15 -86 -35 -128 -35 -33 0 -76 39 -70 65 4 21 145 97 173 93 16 -2 21 -14 28
-57z"/>
<path fill="#ffffff" stroke="none" d="M4490 3206 c0 -22 -6 -36 -16 -40 -44
-17 -85 7 -61 36 14 18 47 37 65 38 7 0 12 -13 12 -34z"/>
<path fill="#ffffff" stroke="none" d="M834 3204 c21 -20 20 -42 -1 -47 -54
-15 -72 -16 -81 -4 -9 11 -16 41 -13 60 2 14 79 7 95 -9z"/>
<path fill="#ffffff" stroke="none" d="M669 3128 c81 -48 145 -129 167 -211
15 -56 12 -66 -11 -47 -18 15 -19 11 -1 -31 17 -42 27 -117 16 -124 -9 -6 -45
81 -59 140 -5 22 -9 34 -10 28 -2 -25 -18 -13 -65 47 -49 64 -116 113 -178
132 -45 13 -48 30 -12 63 35 33 102 34 153 3z"/>
<path fill="#ffffff" stroke="none" d="M4490 3121 c0 -38 -43 -55 -79 -32 -13
8 -13 12 -1 26 15 18 45 33 68 34 7 1 12 -11 12 -28z"/>
<path fill="#ffffff" stroke="none" d="M4743 3129 c28 -13 53 -52 43 -68 -4
-6 -18 -11 -31 -11 -13 0 -49 -9 -79 -20 -70 -27 -168 -129 -228 -237 -44 -80
-58 -83 -39 -6 7 25 9 48 6 51 -3 3 -5 -2 -5 -11 0 -9 -4 -17 -9 -17 -9 0 7
80 24 125 l8 20 -16 -20 c-16 -19 -16 -19 -17 -1 -1 51 105 165 180 195 34 13
134 13 163 0z"/>
<path fill="#ffffff" stroke="none" d="M841 3114 c33 -40 -50 -74 -85 -35 -15
17 -16 23 -6 36 16 20 74 19 91 -1z"/>
<path fill="#ffffff" stroke="none" d="M1018 3104 l23 -15 -22 -39 c-27 -47
-39 -52 -99 -42 l-45 8 2 44 c3 57 23 74 78 65 22 -3 50 -13 63 -21z"/>
<path fill="#ffffff" stroke="none" d="M1394 3043 c10 -38 24 -88 31 -112 l13
-45 -77 -82 c-91 -98 -117 -140 -107 -178 3 -14 39 -61 78 -104 40 -42 83 -89
97 -105 l25 -27 -19 -33 c-10 -17 -29 -70 -40 -116 -12 -47 -26 -86 -31 -88
-18 -6 -134 108 -184 179 -73 103 -94 176 -87 302 6 116 29 184 104 301 44 68
147 175 169 175 6 0 19 -30 28 -67z"/>
<path fill="#ffffff" stroke="none" d="M4384 3048 c8 -51 -8 -68 -66 -68 -34
0 -40 4 -58 40 l-20 39 27 15 c16 8 47 15 69 16 41 0 42 0 48 -42z"/>
<path fill="#ffffff" stroke="none" d="M3961 2999 c20 -30 57 -95 83 -144 85
-166 94 -301 28 -433 -27 -54 -148 -200 -167 -201 -5 0 -30 37 -54 84 l-44 85
46 49 c56 59 127 167 127 191 0 21 -76 128 -132 186 l-39 41 20 34 c17 29 39
80 64 152 10 28 28 16 68 -44z"/>
<path fill="#ffffff" stroke="none" d="M609 2997 c45 -32 141 -147 141 -169 0
-7 -15 1 -32 18 -18 16 -24 19 -14 6 23 -26 14 -42 -11 -20 -29 24 -47 33 -38
18 9 -15 11 -15 -105 26 -47 16 -98 27 -137 28 -59 1 -63 3 -63 24 0 27 22 73
44 92 46 37 145 27 215 -23z"/>
<path fill="#ffffff" stroke="none" d="M4859 3026 c32 -17 51 -54 51 -101 0
-26 -4 -35 -17 -36 -14 0 -15 -2 -3 -6 8 -3 17 -9 20 -12 3 -4 18 -11 35 -16
38 -13 75 -68 75 -113 0 -31 -2 -34 -22 -28 -124 36 -204 42 -308 25 -36 -6
-81 -13 -100 -15 -19 -2 -45 -5 -56 -7 -12 -1 -31 -11 -43 -21 -12 -11 -24
-17 -27 -13 -3 3 27 33 68 66 95 80 199 132 281 141 l62 7 -65 2 c-74 1 -128
-20 -229 -88 -63 -43 -76 -49 -66 -28 4 6 -2 2 -13 -10 -25 -28 -36 -30 -22
-3 6 11 8 20 6 20 -3 0 -13 -15 -22 -32 -10 -19 -19 -27 -21 -20 -6 15 31 78
90 158 47 62 110 113 162 132 44 15 132 14 164 -2z"/>
<path fill="#ffffff" stroke="none" d="M958 2982 c16 -11 5 -132 -13 -132 -7
0 -31 14 -54 30 -36 26 -40 34 -35 58 4 15 11 33 17 40 11 13 65 16 85 4z"/>
<path fill="#ffffff" stroke="none" d="M1598 2948 c2 -9 -54 -72 -133 -150
-89 -88 -135 -141 -135 -155 0 -29 34 -67 146 -165 53 -45 102 -95 110 -110
14 -27 14 -28 -14 -28 -38 0 -88 38 -193 146 -93 96 -124 143 -114 175 10 30
115 158 171 208 60 53 135 102 149 98 5 -2 11 -11 13 -19z"/>
<path fill="#ffffff" stroke="none" d="M4362 2933 c-9 -53 -44 -72 -56 -30 -4
16 1 28 20 45 31 27 43 22 36 -15z"/>
<path fill="#ffffff" stroke="none" d="M3718 2913 c46 -28 160 -144 200 -203
25 -36 42 -72 42 -89 0 -43 -106 -179 -186 -240 -62 -47 -114 -66 -114 -40 0
6 54 68 120 137 149 156 150 162 60 256 -33 35 -92 89 -130 122 -75 63 -89 89
-42 78 15 -4 37 -13 50 -21z"/>
<path fill="#ffffff" stroke="none" d="M521 2874 c80 -23 180 -79 224 -124 48
-49 31 -51 -52 -6 -35 19 -63 30 -63 25 0 -5 -8 -6 -17 -3 -10 3 6 -8 35 -23
28 -15 52 -33 52 -40 0 -7 4 -13 8 -13 5 0 17 -7 28 -15 21 -16 24 -17 -126
27 -60 18 -100 22 -200 22 -69 -1 -134 -3 -145 -5 -54 -11 -7 120 55 153 44
23 127 24 201 2z"/>
<path fill="#ffffff" stroke="none" d="M2679 2854 c70 -20 125 -71 151 -140
26 -72 25 -109 -5 -171 -29 -57 -74 -96 -136 -118 -57 -20 -94 -18 -159 8 -47
19 -58 29 -82 76 -63 120 -16 276 101 338 52 27 61 28 130 7z"/>
<path fill="#ffffff" stroke="none" d="M4354 2808 c8 -74 11 -367 3 -374 -3
-4 -23 1 -44 11 -21 10 -66 21 -100 25 -68 7 -87 16 -60 31 9 6 17 17 17 24 0
10 10 15 30 15 38 0 39 16 2 23 -27 5 -29 9 -29 52 0 44 2 46 24 42 13 -2 23
0 23 4 0 5 -10 9 -22 9 -25 0 -58 52 -38 58 17 6 11 19 -11 25 -21 6 -22 31
-1 33 7 1 24 3 40 4 26 2 25 3 -10 14 -58 18 -53 23 25 29 41 4 85 11 98 16
41 17 47 13 53 -41z"/>
<path fill="#ffffff" stroke="none" d="M927 2826 c27 -14 66 -28 86 -31 34 -7
53 -25 26 -25 -8 0 -8 -5 1 -15 11 -13 7 -15 -23 -15 -49 0 -53 -13 -11 -33
34 -17 38 -37 8 -37 -8 0 -14 -4 -14 -10 0 -5 5 -10 10 -10 6 0 10 -7 10 -15
0 -8 -7 -15 -15 -15 -8 0 -15 -4 -15 -9 0 -5 7 -11 15 -15 26 -10 16 -26 -15
-26 -45 0 -36 -16 15 -29 44 -11 56 -23 35 -36 -8 -5 -8 -11 0 -20 9 -10 4
-15 -22 -20 -18 -4 -59 -18 -92 -32 -32 -13 -59 -23 -61 -21 -8 10 -13 198 -5
203 6 3 10 57 10 121 0 63 1 114 3 114 2 0 26 -11 54 -24z"/>
<path fill="#ffffff" stroke="none" d="M1565 2769 c68 -45 182 -84 291 -100
41 -7 74 -15 74 -19 0 -4 -31 -12 -70 -19 -125 -20 -225 -58 -295 -111 l-65
-49 -70 60 c-70 60 -90 85 -90 112 0 13 148 167 160 167 3 0 32 -19 65 -41z"/>
<path fill="#ffffff" stroke="none" d="M3837 2722 c74 -75 72 -92 -15 -183
l-68 -72 -47 36 c-51 39 -123 69 -236 98 -80 21 -91 26 -70 34 8 2 55 18 104
36 89 30 177 74 224 110 28 22 28 22 108 -59z"/>
<path fill="#ffffff" stroke="none" d="M5008 2680 c45 -17 82 -35 82 -39 0
-16 -39 -43 -91 -64 -38 -15 -87 -23 -169 -28 l-115 -7 138 3 c136 2 137 2
143 -21 8 -33 -25 -94 -65 -121 -77 -52 -227 -18 -376 84 -104 70 -127 113
-29 53 l49 -31 -35 31 c-23 21 -28 30 -15 25 11 -3 54 -8 95 -10 85 -4 84 -3
-25 21 -69 16 -76 19 -50 25 27 6 25 7 -14 8 -44 1 -44 1 -26 21 10 11 37 23
59 27 31 5 36 8 21 13 -19 7 -18 8 5 15 65 21 163 33 245 30 73 -2 107 -10
173 -35z"/>
<path fill="#ffffff" stroke="none" d="M610 2685 c62 -15 71 -20 50 -26 l-25
-7 25 -1 c14 -1 32 -6 40 -11 11 -7 7 -10 -20 -11 -19 -1 -27 -3 -17 -6 38
-10 4 -33 -50 -33 -12 0 -25 -4 -28 -10 -8 -13 46 -3 110 21 66 25 92 23 35
-3 -105 -46 -257 -60 -381 -34 -82 18 -169 54 -169 71 0 11 88 56 135 69 39
10 221 -2 295 -19z"/>
<path fill="#ffffff" stroke="none" d="M2364 2654 c19 -7 21 -50 4 -58 -10 -5
-10 -7 0 -12 6 -3 12 -12 12 -20 0 -8 -6 -14 -12 -15 -7 0 -3 -5 10 -11 12 -6
22 -15 22 -19 0 -4 -29 -29 -65 -55 -36 -26 -65 -50 -65 -52 0 -5 19 7 73 46
29 21 54 32 64 28 14 -6 14 -9 -4 -29 -31 -34 -114 -167 -104 -167 5 0 27 30
49 68 44 74 75 107 91 97 17 -10 13 -28 -14 -65 -14 -19 -25 -39 -25 -44 0 -6
7 1 17 14 38 58 54 69 79 58 13 -6 24 -17 24 -23 0 -17 -144 -220 -215 -304
-90 -107 -341 -311 -382 -311 -5 0 -20 28 -34 63 -21 53 -28 62 -49 62 -24 0
-25 -3 -28 -72 -2 -43 -7 -73 -13 -73 -44 0 -283 57 -321 76 -77 39 -80 50
-76 221 4 128 8 159 32 231 15 45 31 82 35 82 5 0 29 -11 52 -25 88 -50 123
-13 54 57 -21 21 -33 41 -30 50 3 8 28 32 55 52 98 75 424 153 647 155 56 1
108 -2 117 -5z"/>
<path fill="#ffffff" stroke="none" d="M3110 2640 c290 -27 465 -80 579 -176
l31 -26 -35 -39 c-67 -74 -32 -119 49 -64 20 14 41 25 46 25 30 0 120 -253
120 -339 0 -53 -3 -60 -38 -94 -51 -50 -175 -101 -305 -126 -59 -12 -113 -21
-118 -21 -7 0 -9 17 -4 48 4 34 2 53 -8 67 -20 26 -38 11 -67 -56 -21 -49 -23
-51 -53 -45 -18 3 -66 22 -107 43 -136 67 -342 299 -445 502 -26 52 -26 55 -9
68 10 7 21 13 25 13 4 0 25 -28 46 -61 20 -34 39 -57 40 -52 2 6 -12 34 -32
63 -27 41 -33 56 -24 66 6 8 17 14 24 14 13 0 71 -60 139 -144 21 -26 40 -45
43 -42 5 4 -77 108 -111 141 -85 82 -68 98 42 39 103 -56 103 -48 0 10 -76 44
-90 65 -48 77 16 4 19 7 8 8 -13 1 -18 10 -18 32 l0 31 70 -4 c39 -2 70 0 70
4 0 4 -29 8 -65 8 -64 0 -65 1 -65 26 0 27 0 27 58 20 31 -4 104 -11 162 -16z"/>
<path fill="#ffffff" stroke="none" d="M460 2543 c92 -3 140 0 180 11 62 16
75 12 44 -13 -11 -9 -19 -21 -17 -27 2 -6 -10 -17 -27 -24 -22 -9 -28 -15 -18
-21 9 -6 -3 -15 -37 -31 -39 -18 -68 -23 -130 -23 -69 0 -86 4 -127 28 -48 28
-101 99 -92 122 4 10 16 9 52 -2 26 -8 103 -17 172 -20z"/>
<path fill="#ffffff" stroke="none" d="M4495 2516 c30 -25 103 -69 161 -98 98
-49 112 -53 175 -52 59 0 68 -2 73 -20 9 -35 -20 -85 -61 -102 -51 -22 -102
-13 -191 32 -95 49 -156 107 -159 153 -2 33 -2 33 17 16 11 -10 20 -14 20 -10
0 5 -22 30 -50 55 -43 40 -62 70 -45 70 3 0 30 -20 60 -44z"/>
<path fill="#ffffff" stroke="none" d="M738 2476 c2 -32 -113 -166 -173 -202
-39 -22 -54 -26 -97 -22 -66 7 -101 41 -96 97 l3 36 75 7 c90 7 138 24 211 71
64 43 74 44 77 13z"/>
<path fill="#ffffff" stroke="none" d="M801 2364 c-15 -34 -17 -43 -6 -34 28
23 15 -7 -25 -61 -83 -111 -208 -153 -279 -93 -17 14 -31 29 -31 34 0 4 17 11
38 15 66 12 116 41 199 113 44 39 83 69 86 65 4 -3 12 16 19 43 l13 49 3 -42
c2 -27 -4 -60 -17 -89z"/>
<path fill="#ffffff" stroke="none" d="M4466 2452 c-9 -8 -26 10 -26 26 1 15
2 15 15 -2 8 -11 13 -21 11 -24z"/>
<path fill="#ffffff" stroke="none" d="M4437 2391 c13 -30 26 -52 29 -49 3 4
-4 25 -16 48 -24 46 -19 68 7 29 26 -38 134 -139 178 -164 22 -13 59 -29 83
-36 46 -13 51 -25 24 -59 -42 -52 -211 -23 -283 49 -41 41 -71 117 -50 130 9
6 9 15 1 35 -5 15 -10 44 -9 64 0 20 3 30 6 22 3 -8 17 -39 30 -69z"/>
<path fill="#ffffff" stroke="none" d="M1077 2444 c13 -4 38 -33 62 -74 24
-40 80 -108 135 -162 l94 -93 -5 -120 -6 -121 40 -27 c22 -15 63 -36 92 -46
29 -10 56 -22 61 -27 4 -5 18 -48 29 -96 20 -84 62 -182 102 -240 27 -37 24
-60 -11 -93 -29 -28 -32 -29 -58 -15 -15 9 -72 83 -132 172 -117 175 -152 216
-225 263 -47 31 -51 36 -52 77 -3 61 -23 112 -87 222 -31 52 -74 139 -96 194
-33 82 -39 108 -34 141 5 30 12 41 28 44 35 7 40 7 63 1z"/>
<path fill="#ffffff" stroke="none" d="M4226 2436 c15 -12 19 -25 17 -66 -3
-67 -32 -128 -128 -269 l-77 -114 4 -70 4 -69 -42 -29 c-50 -34 -114 -105
-136 -151 -9 -18 -39 -80 -66 -138 -82 -173 -149 -225 -212 -165 -16 15 -34
40 -40 55 -10 24 -7 34 29 91 47 75 76 154 86 233 l7 56 92 43 c51 24 109 61
129 81 35 34 37 40 37 99 0 34 -5 80 -10 102 -9 39 -8 42 34 85 51 53 103 128
130 187 19 42 28 48 97 52 14 0 34 -5 45 -13z"/>
<path fill="#ffffff" stroke="none" d="M4331 2414 c27 -14 30 -19 27 -57 -3
-38 -6 -42 -31 -45 -42 -5 -57 13 -57 69 0 55 10 60 61 33z"/>
<path fill="#ffffff" stroke="none" d="M953 2328 c6 -42 4 -50 -16 -63 -12 -8
-32 -12 -45 -8 -19 5 -22 12 -22 53 0 42 4 52 32 75 37 31 40 27 51 -57z"/>
<path fill="#ffffff" stroke="none" d="M2614 2328 c3 -29 7 -92 7 -140 1 -53
5 -88 11 -88 10 0 4 190 -8 251 -4 19 0 28 11 33 23 8 32 1 56 -46 11 -22 22
-38 25 -35 2 2 -2 17 -11 33 -8 16 -15 35 -15 43 0 25 25 -6 80 -97 29 -48 74
-116 99 -152 70 -99 113 -230 132 -399 12 -108 7 -146 -19 -137 -88 28 -102
30 -118 14 -23 -23 -1 -53 59 -80 26 -12 47 -26 47 -31 0 -17 -134 -149 -190
-187 -94 -64 -159 -93 -196 -87 -59 10 -334 241 -334 281 0 8 14 17 33 21 44
10 103 41 110 58 3 8 2 20 -3 27 -6 10 -23 8 -80 -13 -39 -15 -75 -27 -81 -27
-29 0 3 243 51 395 25 76 40 102 95 170 36 44 89 113 118 153 51 72 74 84 42
22 -11 -22 -13 -31 -4 -28 7 2 18 24 25 48 12 41 30 63 45 54 4 -2 9 -27 13
-56z"/>
<path fill="#ffffff" stroke="none" d="M4348 2264 c26 -18 29 -56 6 -78 -21
-21 -107 -22 -124 -1 -15 18 2 70 29 85 24 14 64 12 89 -6z"/>
<path fill="#ffffff" stroke="none" d="M828 2249 c-3 -24 -33 -48 -44 -36 -8
8 23 57 37 57 6 0 9 -10 7 -21z"/>
<path fill="#ffffff" stroke="none" d="M994 2218 c27 -38 -25 -88 -92 -88 -25
0 -30 5 -35 30 -8 38 -1 55 26 68 38 19 84 14 101 -10z"/>
<path fill="#ffffff" stroke="none" d="M4449 2192 c39 -35 29 -57 -20 -45 -34
9 -46 30 -35 59 8 21 21 17 55 -14z"/>
<path fill="#ffffff" stroke="none" d="M828 2162 c5 -30 -14 -52 -45 -52 -24
0 -27 4 -37 52 -6 26 -5 27 36 25 37 -2 43 -5 46 -25z"/>
<path fill="#ffffff" stroke="none" d="M4561 2128 l56 -24 -64 -58 c-35 -32
-66 -56 -69 -53 -21 21 -13 173 9 163 7 -2 37 -15 68 -28z"/>
<path fill="#ffffff" stroke="none" d="M1064 2113 l26 -37 -28 -29 c-48 -52
-162 -89 -195 -65 -26 20 -10 98 23 115 14 6 43 21 65 32 60 30 80 27 109 -16z"/>
<path fill="#ffffff" stroke="none" d="M4321 2129 c44 -19 49 -25 49 -54 0
-40 -11 -45 -93 -45 -44 0 -71 6 -94 20 -36 22 -41 44 -17 78 20 29 87 30 155
1z"/>
<path fill="#ffffff" stroke="none" d="M4460 2085 c0 -43 -1 -45 -30 -45 -51
0 -64 55 -17 78 40 19 47 15 47 -33z"/>
<path fill="#ffffff" stroke="none" d="M824 2074 c9 -8 16 -21 16 -28 0 -20
-32 -44 -65 -48 -29 -3 -30 -2 -26 37 1 22 5 43 8 48 8 13 51 7 67 -9z"/>
<path fill="#ffffff" stroke="none" d="M4659 2072 c6 -10 7 -28 4 -40 -9 -36
12 -25 26 14 11 30 17 35 39 32 17 -2 28 -10 30 -21 5 -26 -36 -67 -67 -67
-24 0 -24 -1 9 -18 20 -10 42 -32 52 -52 10 -20 18 -28 18 -17 0 12 8 17 29
17 34 0 54 -20 49 -52 -4 -29 -57 -38 -81 -13 -15 14 -17 13 -31 -14 -9 -17
-29 -34 -48 -40 -26 -9 -30 -14 -18 -21 19 -12 4 -39 -30 -57 -28 -14 -46 -8
-53 18 -6 24 17 49 46 49 15 0 8 7 -23 23 -45 22 -110 102 -110 134 0 23 24 9
30 -16 l5 -23 14 26 c9 16 33 33 65 45 42 16 46 20 24 20 -25 1 -28 5 -28 34
0 50 30 74 49 39z"/>
<path fill="#ffffff" stroke="none" d="M615 2036 c24 -17 13 -46 -17 -46 -21
0 -20 -2 7 -16 39 -20 75 -54 75 -71 0 -7 -17 -26 -39 -41 l-39 -28 30 -17
c21 -12 29 -23 26 -39 -5 -34 -70 -38 -92 -6 -21 30 -20 37 7 48 19 7 16 9
-19 9 -42 1 -73 24 -88 65 -10 28 19 65 67 87 23 10 34 19 25 19 -18 0 -25 30
-11 43 11 12 48 8 68 -7z"/>
<path fill="#ffffff" stroke="none" d="M504 2018 c11 -16 13 -25 4 -35 -24
-29 -68 -7 -68 34 0 31 43 32 64 1z"/>
<path fill="#ffffff" stroke="none" d="M710 1990 c0 -10 -3 -25 -6 -34 -5 -14
-9 -14 -35 0 -33 16 -38 48 -12 63 23 12 53 -4 53 -29z"/>
<path fill="#ffffff" stroke="none" d="M1140 1989 c21 -40 21 -42 3 -61 -48
-54 -222 -103 -298 -84 -23 6 -26 10 -20 34 12 52 31 68 98 86 35 10 86 28
113 41 68 34 80 32 104 -16z"/>
<path fill="#ffffff" stroke="none" d="M4183 2018 c12 -6 58 -16 102 -22 79
-11 80 -12 99 -50 26 -54 14 -61 -97 -61 -72 1 -105 6 -149 24 -62 24 -66 32
-44 86 16 38 47 46 89 23z"/>
<path fill="#ffffff" stroke="none" d="M4581 2014 c11 -14 10 -19 -10 -35 -28
-23 -40 -24 -48 -4 -5 15 22 55 37 55 4 0 14 -7 21 -16z"/>
<path fill="#ffffff" stroke="none" d="M4471 1993 c15 -39 5 -55 -33 -51 -26
2 -34 8 -36 27 -3 15 3 30 14 38 27 20 43 16 55 -14z"/>
<path fill="#ffffff" stroke="none" d="M4824 1994 c36 -35 -25 -79 -69 -50
-29 19 -30 24 -8 48 20 22 56 23 77 2z"/>
<path fill="#ffffff" stroke="none" d="M798 1967 c19 -15 14 -55 -9 -67 -11
-6 -33 -8 -50 -5 -38 8 -37 0 2 -20 53 -28 22 -73 -42 -61 -64 12 -68 21 -27
63 20 21 44 54 52 75 13 30 19 35 38 31 13 -3 29 -10 36 -16z"/>
<path fill="#ffffff" stroke="none" d="M2265 1973 c-24 -55 -47 -164 -62 -285
l-17 -137 -48 -11 c-27 -5 -71 -10 -98 -10 -58 0 -66 11 -100 131 -15 57 -17
75 -7 81 6 5 37 23 67 40 64 37 170 120 219 172 37 39 58 47 46 19z"/>
<path fill="#ffffff" stroke="none" d="M3071 1896 c84 -80 188 -146 230 -146
29 0 30 -13 5 -100 -38 -131 -67 -145 -200 -100 l-67 23 7 42 c10 69 -24 236
-71 348 -13 32 7 18 96 -67z"/>
<path fill="#ffffff" stroke="none" d="M460 1951 c0 -5 -5 -22 -10 -36 -8 -21
-16 -26 -38 -23 -37 4 -44 44 -10 57 30 13 58 13 58 2z"/>
<path fill="#ffffff" stroke="none" d="M4509 1898 c19 -33 13 -40 -38 -45 -34
-3 -40 -1 -46 18 -6 17 -2 27 15 41 30 24 50 20 69 -14z"/>
<path fill="#ffffff" stroke="none" d="M1864 1878 c8 -13 31 -86 51 -163 40
-151 55 -189 80 -199 27 -10 159 13 251 44 95 32 128 37 122 18 -10 -31 -276
-92 -403 -93 -47 0 -50 2 -72 40 -28 49 -30 39 -3 -14 12 -24 28 -40 42 -43
13 -2 70 4 128 14 58 9 114 17 125 18 12 0 60 -39 119 -96 76 -74 96 -98 85
-105 -44 -29 -151 -52 -259 -56 -114 -5 -117 -5 -198 29 -153 63 -255 159
-302 284 -25 67 -54 193 -46 201 3 3 43 -2 88 -11 46 -9 96 -16 111 -16 20 0
30 -7 36 -22 5 -14 7 14 3 69 -5 93 -1 123 17 123 6 0 17 -10 25 -22z"/>
<path fill="#ffffff" stroke="none" d="M1188 1858 c5 -45 -16 -68 -102 -109
-74 -35 -92 -39 -157 -39 -78 0 -141 21 -169 54 -23 29 8 43 108 51 57 4 123
18 187 40 55 18 107 33 115 32 8 -1 16 -14 18 -29z"/>
<path fill="#ffffff" stroke="none" d="M3423 1870 c3 -11 -1 -51 -9 -88 -16
-75 -17 -87 -4 -56 6 16 18 21 52 22 23 1 74 11 112 22 38 11 71 19 72 17 2
-1 -1 -33 -6 -70 -10 -84 -60 -191 -125 -269 -55 -67 -192 -163 -262 -184 -69
-21 -178 -28 -252 -15 -68 11 -156 49 -156 67 0 6 25 31 55 55 30 25 66 62 79
82 13 20 31 37 39 37 8 0 66 -11 128 -26 153 -34 153 -34 211 115 24 63 42
116 40 118 -2 2 -21 -40 -41 -94 -48 -126 -59 -143 -95 -143 -54 0 -275 50
-328 75 -95 43 -84 90 13 55 150 -54 242 -80 274 -78 49 4 71 43 110 192 42
158 78 223 93 166z"/>
<path fill="#ffffff" stroke="none" d="M466 1865 c9 -22 -22 -64 -52 -71 -49
-12 -53 45 -5 71 34 19 50 19 57 0z"/>
<path fill="#ffffff" stroke="none" d="M4265 1863 c103 -6 165 -24 165 -50 0
-29 -31 -73 -56 -79 -53 -13 -215 48 -263 100 l-24 26 24 9 c13 5 31 7 39 4 8
-2 60 -7 115 -10z"/>
<path fill="#ffffff" stroke="none" d="M4569 1826 l23 -24 -26 -17 c-32 -22
-60 -16 -64 13 -8 55 28 70 67 28z"/>
<path fill="#ffffff" stroke="none" d="M521 1820 c23 -13 25 -47 2 -72 -42
-47 -94 4 -63 63 12 21 32 24 61 9z"/>
<path fill="#ffffff" stroke="none" d="M4778 1818 c7 -7 12 -24 12 -38 0 -53
-61 -71 -82 -25 -10 22 -8 29 12 50 26 28 40 31 58 13z"/>
<path fill="#ffffff" stroke="none" d="M4129 1790 c26 -17 60 -48 75 -69 36
-52 76 -166 76 -218 0 -39 -2 -43 -25 -43 -35 0 -59 28 -80 94 -15 48 -29 68
-85 119 -37 34 -73 73 -80 86 -11 22 -10 27 10 43 31 25 52 23 109 -12z"/>
<path fill="#ffffff" stroke="none" d="M1248 1746 c13 -12 9 -17 -28 -36 -72
-37 -142 -117 -170 -192 -8 -23 -15 -28 -45 -28 -35 0 -35 0 -35 44 0 84 31
130 135 198 49 32 66 38 94 34 19 -3 41 -12 49 -20z"/>
<path fill="#ffffff" stroke="none" d="M710 1711 c0 -22 -4 -51 -10 -65 -7
-20 -6 -24 5 -19 24 9 18 -28 -10 -62 -21 -26 -24 -27 -25 -10 0 17 -3 16 -18
-7 -30 -50 -41 -27 -17 37 6 17 5 17 -9 -3 -10 -12 -22 -20 -27 -17 -5 4 -9
-3 -9 -14 0 -29 -20 -27 -21 2 l0 22 -9 -22 c-5 -13 -14 -23 -20 -23 -5 0 -11
10 -11 23 -1 16 -2 18 -6 5 -2 -10 -9 -18 -14 -18 -6 0 -9 34 -7 83 3 76 5 82
26 85 18 3 22 -2 23 -25 l2 -28 4 28 c5 30 33 38 34 10 0 -15 2 -14 9 3 5 12
23 27 41 33 43 15 42 15 35 -16 -5 -21 -4 -24 4 -13 5 8 10 23 10 33 0 9 5 17
10 17 6 0 10 -18 10 -39z"/>
<path fill="#ffffff" stroke="none" d="M4308 1713 c39 -14 47 -14 85 1 24 9
51 16 60 16 26 0 40 -47 32 -110 -6 -47 -13 -61 -50 -97 -55 -56 -85 -57 -120
-6 -14 21 -25 47 -25 58 0 17 -15 56 -57 154 -5 11 -2 13 13 7 10 -5 38 -15
62 -23z"/>
<path fill="#ffffff" stroke="none" d="M813 1715 c20 -8 63 -15 96 -15 33 0
62 -4 65 -9 3 -4 -4 -25 -14 -47 -11 -21 -20 -49 -20 -63 0 -31 -27 -61 -53
-61 -34 0 -106 40 -128 72 -29 39 -43 106 -28 124 15 18 38 18 82 -1z"/>
<path fill="#ffffff" stroke="none" d="M4039 1696 c59 -43 107 -111 120 -166
9 -42 6 -70 -9 -70 -4 0 -21 -3 -38 -6 -27 -5 -33 -2 -63 42 -18 27 -59 73
-91 102 l-58 54 22 39 c28 50 54 51 117 5z"/>
<path fill="#ffffff" stroke="none" d="M1299 1710 c10 -5 26 -20 35 -34 16
-25 16 -25 -81 -121 -90 -90 -98 -96 -128 -91 -17 4 -40 13 -51 20 -18 14 -18
15 3 59 30 63 78 114 137 148 57 32 60 33 85 19z"/>
<path fill="#ffffff" stroke="none" d="M4550 1689 c0 16 18 13 38 -6 23 -24
134 -24 180 -1 28 15 34 15 39 2 3 -7 11 -14 18 -14 16 0 25 -22 25 -61 0 -23
-6 -32 -27 -40 -14 -5 -32 -8 -39 -5 -7 3 -15 -2 -18 -10 -4 -10 -13 -13 -26
-9 -11 3 -20 3 -20 -2 0 -4 -11 -9 -25 -9 -17 -1 -25 4 -26 15 -1 14 -2 14 -6
-1 -2 -10 -11 -18 -19 -18 -8 0 -14 8 -15 18 0 15 -1 15 -8 -2 -8 -20 -48 -29
-58 -13 -3 5 -8 4 -13 -2 -5 -9 -14 -9 -34 0 -23 11 -26 17 -21 38 4 14 11 28
16 29 5 2 6 8 3 13 -5 9 -8 76 -5 104 1 6 11 -1 21 -14 11 -13 20 -18 20 -12z"/>
<path fill="#ffffff" stroke="none" d="M490 1615 c0 -78 -5 -90 -20 -52 -7 18
-9 19 -9 4 -1 -25 -25 -16 -29 11 -2 13 -8 19 -18 15 -23 -9 -16 23 11 53 14
15 25 23 25 18 0 -5 5 -1 11 9 20 34 29 16 29 -58z"/>
<path fill="#ffffff" stroke="none" d="M1414 1561 c29 -55 29 -56 -32 -92 -18
-11 -41 -33 -50 -49 -9 -16 -23 -32 -30 -35 -17 -6 -91 31 -98 49 -13 34 57
126 121 159 47 25 60 21 89 -32z"/>
<path fill="#ffffff" stroke="none" d="M3958 1570 c46 -33 72 -75 72 -115 0
-20 -8 -29 -35 -40 -45 -19 -69 -9 -123 49 -45 49 -51 73 -26 111 22 34 61 32
112 -5z"/>
<path fill="#ffffff" stroke="none" d="M745 1581 c5 -10 -45 -55 -52 -47 -6 6
28 56 38 56 4 0 10 -4 14 -9z"/>
<path fill="#ffffff" stroke="none" d="M783 1536 c-2 -12 -83 -37 -83 -26 0 5
10 16 23 25 23 16 63 17 60 1z"/>
<path fill="#ffffff" stroke="none" d="M513 1511 c7 -7 1 -26 -19 -58 -26 -42
-35 -48 -67 -51 -29 -3 -42 2 -62 23 -35 34 -32 86 5 97 33 9 130 2 143 -11z"/>
<path fill="#ffffff" stroke="none" d="M4533 1513 l32 -17 -35 -7 c-22 -4 -27
-7 -12 -8 44 -2 21 -19 -50 -35 -39 -9 -77 -21 -84 -27 -10 -8 -19 -7 -35 5
-22 15 -22 16 -3 22 10 4 39 15 63 25 24 11 53 19 65 20 11 0 15 3 9 6 -18 7
-16 33 2 33 9 0 30 -8 48 -17z"/>
<path fill="#ffffff" stroke="none" d="M858 1505 c29 -9 50 -20 47 -25 -4 -6
-41 -11 -83 -12 -62 -1 -67 -2 -24 -5 28 -2 52 -8 52 -12 0 -18 -40 -43 -57
-37 -14 6 -15 4 -6 -5 9 -9 7 -19 -10 -43 -12 -17 -25 -32 -29 -34 -5 -2 -8
-12 -8 -23 0 -10 -5 -19 -11 -19 -6 0 -9 -6 -6 -14 6 -15 -16 -40 -25 -30 -3
3 -5 -3 -4 -13 0 -11 -5 -18 -16 -17 -10 1 -18 -2 -18 -6 0 -4 -15 -8 -34 -8
-34 0 -45 14 -46 57 0 11 3 11 17 0 15 -13 15 -12 5 8 -16 29 -15 33 5 33 13
0 14 3 6 11 -17 17 13 73 34 65 13 -5 13 -4 4 8 -14 17 -3 49 14 42 9 -3 11 2
7 16 -4 18 -2 20 20 15 29 -8 42 1 27 19 -11 14 -3 21 39 34 39 12 43 12 100
-5z"/>
<path fill="#ffffff" stroke="none" d="M4871 1494 c49 -44 1 -103 -78 -95 -11
1 -73 87 -73 102 0 24 123 18 151 -7z"/>
<path fill="#ffffff" stroke="none" d="M600 1499 c33 -7 50 -16 50 -26 0 -27
-43 -94 -57 -89 -7 3 -35 8 -63 12 -28 4 -49 9 -48 13 40 79 53 101 60 101 4
0 30 -5 58 -11z"/>
<path fill="#ffffff" stroke="none" d="M4720 1471 c11 -22 24 -42 30 -46 22
-14 8 -25 -32 -27 l-43 -1 41 -4 c51 -5 78 -32 78 -76 0 -86 -45 -92 -116 -15
-26 29 -48 56 -48 60 0 5 10 13 23 18 l22 9 -22 0 c-23 1 -39 23 -53 71 -11
37 4 50 57 50 40 0 44 -3 63 -39z"/>
<path fill="#ffffff" stroke="none" d="M1098 1437 c9 -19 11 -36 4 -55 -7 -23
-15 -27 -50 -30 -50 -4 -59 10 -42 63 20 60 65 71 88 22z"/>
<path fill="#ffffff" stroke="none" d="M1482 1445 c10 -22 8 -30 -19 -63 -38
-47 -73 -61 -108 -42 -19 10 -24 19 -19 34 9 30 44 66 79 81 44 19 54 18 67
-10z"/>
<path fill="#ffffff" stroke="none" d="M3864 1436 c43 -40 45 -58 9 -84 -31
-21 -47 -19 -80 11 -27 24 -29 49 -7 82 22 33 36 31 78 -9z"/>
<path fill="#ffffff" stroke="none" d="M970 1440 c22 -22 26 -60 8 -78 -9 -9
-7 -12 10 -12 45 0 68 -100 37 -160 -43 -83 -163 -61 -180 33 -8 42 15 92 47
102 19 7 19 8 5 17 -25 13 -21 52 9 87 30 36 37 38 64 11z"/>
<path fill="#ffffff" stroke="none" d="M4564 1440 c-14 -14 -155 -61 -165 -54
-25 15 -4 34 54 47 75 18 125 21 111 7z"/>
<path fill="#ffffff" stroke="none" d="M4178 1403 l17 -38 3 32 c7 71 92 45
92 -28 0 -16 5 -29 10 -29 6 0 10 4 10 9 0 12 29 41 40 41 31 0 52 -66 31 -98
-7 -11 -16 -9 -47 11 -22 14 -52 28 -69 31 -21 4 -17 1 12 -10 57 -21 93 -65
93 -113 0 -50 -28 -76 -82 -76 -35 0 -46 6 -73 38 -49 57 -52 130 -7 166 15
11 8 12 -51 7 -66 -6 -67 -6 -79 20 -11 24 -10 29 17 50 43 34 63 31 83 -13z"/>
<path fill="#ffffff" stroke="none" d="M1198 1408 c16 -16 15 -50 -2 -73 -11
-16 -19 -17 -46 -9 -42 12 -45 21 -20 62 20 33 47 41 68 20z"/>
<path fill="#ffffff" stroke="none" d="M4554 1402 c-12 -9 -30 -23 -40 -30
-11 -7 0 -3 23 8 58 27 71 25 42 -7 -13 -16 -17 -22 -9 -15 18 15 40 16 40 0
0 -7 -17 -30 -37 -53 l-38 -40 40 38 c23 20 44 37 48 37 17 0 4 -27 -30 -62
-37 -38 -81 -53 -70 -24 4 10 1 13 -8 9 -20 -7 -30 24 -15 42 11 13 10 14 -3
9 -28 -10 -40 6 -20 28 18 20 18 21 -3 10 -17 -9 -25 -8 -34 3 -16 20 -14 21
51 44 70 25 91 26 63 3z"/>
<path fill="#ffffff" stroke="none" d="M3691 1263 c43 -8 36 -25 -27 -57 -64
-34 -140 -83 -168 -108 -11 -10 -28 -18 -38 -18 -9 0 -41 -9 -69 -20 -28 -12
-53 -19 -55 -18 -1 2 -7 31 -13 65 -5 34 -17 75 -25 91 -15 29 -15 30 12 37
14 3 28 2 30 -3 1 -5 10 -18 18 -28 14 -18 15 -16 10 19 -4 31 -2 38 9 33 9
-3 15 1 15 9 0 24 17 17 45 -17 l26 -33 -6 35 c-4 19 -9 43 -12 53 -4 16 -1
18 17 12 17 -5 21 -3 18 12 -2 13 3 18 20 17 19 -1 22 3 18 21 -11 42 7 34 76
-31 40 -38 81 -67 99 -71z"/>
<path fill="#ffffff" stroke="none" d="M583 1371 c5 -5 0 -26 -12 -49 -57
-112 -162 -108 -131 4 7 25 20 49 29 55 18 11 100 4 114 -10z"/>
<path fill="#ffffff" stroke="none" d="M4047 1378 c25 -32 22 -47 -14 -69 -35
-22 -36 -22 -49 -4 -17 23 -18 57 -2 73 16 16 53 15 65 0z"/>
<path fill="#ffffff" stroke="none" d="M1559 1345 c18 -19 37 -35 42 -35 5 0
9 -4 9 -8 0 -12 -47 -32 -75 -32 -27 0 -95 29 -95 41 0 16 53 69 69 69 9 0 31
-16 50 -35z"/>
<path fill="#ffffff" stroke="none" d="M3774 1349 c35 -27 37 -79 4 -79 -33 0
-96 19 -104 31 -5 9 51 68 67 69 4 0 18 -9 33 -21z"/>
<path fill="#ffffff" stroke="none" d="M854 1354 c22 -8 20 -24 -9 -56 -30
-35 -43 -35 -51 -3 -4 18 -1 32 11 45 20 22 25 23 49 14z"/>
<path fill="#ffffff" stroke="none" d="M1308 1323 c2 -18 -2 -41 -7 -52 -11
-19 -12 -19 -51 6 -22 15 -40 31 -40 36 0 24 35 48 64 45 27 -3 31 -7 34 -35z"/>
<path fill="#ffffff" stroke="none" d="M1727 1330 c3 -11 12 -20 19 -20 8 0
17 -6 20 -14 3 -8 13 -12 25 -9 23 6 24 -8 3 -48 -21 -41 -15 -44 26 -14 43
31 50 31 50 -1 0 -26 1 -26 24 -10 27 17 40 9 25 -14 -18 -29 -8 -31 22 -6 45
39 62 35 43 -9 -8 -19 -17 -62 -21 -95 -3 -34 -10 -63 -14 -66 -10 -6 -205 91
-234 115 -11 10 -48 35 -82 55 -35 20 -65 41 -68 46 -3 5 16 20 42 34 26 13
59 36 72 50 29 31 41 33 48 6z"/>
<path fill="#ffffff" stroke="none" d="M1080 1330 c0 -5 -6 -10 -12 -11 -7 0
2 -5 20 -10 38 -11 44 -42 11 -60 -28 -14 -44 3 -52 54 -5 32 -3 37 14 37 10
0 19 -4 19 -10z"/>
<path fill="#ffffff" stroke="none" d="M3965 1300 c13 -24 13 -30 0 -40 -35
-29 -88 28 -58 62 19 21 40 13 58 -22z"/>
<path fill="#ffffff" stroke="none" d="M1223 1281 c26 -11 47 -25 47 -30 0 -5
-28 -31 -61 -56 l-62 -47 7 34 c4 21 0 51 -9 78 -24 68 -28 67 78 21z"/>
<path fill="#ffffff" stroke="none" d="M4163 1278 c-6 -32 -28 -37 -42 -10
-11 20 -4 36 19 44 22 8 29 -3 23 -34z"/>
<path fill="#ffffff" stroke="none" d="M2459 1271 c20 -15 63 -43 95 -61 54
-31 61 -32 81 -19 12 8 55 36 95 62 41 28 80 46 89 44 9 -3 45 -18 81 -33 59
-26 77 -28 205 -30 l140 -3 17 -28 c28 -44 23 -78 -14 -107 -63 -47 -100 -55
-303 -58 -172 -4 -195 -6 -242 -27 l-52 -23 -29 21 c-57 40 -132 51 -348 51
-207 0 -238 4 -273 39 -16 16 -18 26 -12 49 20 69 24 72 114 72 91 0 211 25
272 57 22 11 42 21 44 22 2 0 20 -12 40 -28z"/>
<path fill="#ffffff" stroke="none" d="M4630 1255 c-23 -24 -60 -34 -60 -16 0
5 14 21 31 36 41 34 65 18 29 -20z"/>
<path fill="#ffffff" stroke="none" d="M4478 1248 c4 -29 -28 -58 -64 -58 -17
0 -23 7 -26 31 -6 40 15 61 56 57 25 -2 32 -8 34 -30z"/>
<path fill="#ffffff" stroke="none" d="M1533 1235 c55 -27 85 -51 75 -60 -2
-2 -48 7 -102 21 -55 13 -101 22 -103 20 -3 -3 15 -10 38 -16 80 -20 89 -28
34 -31 l-50 -2 45 -7 c53 -7 41 -13 -60 -29 -84 -13 -142 -43 -188 -95 -34
-39 -53 -39 -71 0 -16 37 -14 55 14 96 26 39 118 107 170 126 49 19 133 9 198
-23z"/>
<path fill="#ffffff" stroke="none" d="M3964 1227 c97 -45 157 -157 114 -214
-7 -9 -24 2 -61 41 -62 62 -120 86 -216 87 -36 0 -84 4 -106 8 -37 7 -38 8
-15 15 13 5 58 12 100 16 71 7 72 7 21 9 -60 1 -59 11 2 31 21 7 37 14 34 16
-2 2 -29 -5 -60 -15 -67 -23 -76 -9 -14 20 53 25 126 20 201 -14z"/>
<path fill="#ffffff" stroke="none" d="M830 1221 c21 -40 13 -52 -32 -49 -32
2 -44 8 -46 21 -8 42 57 66 78 28z"/>
<path fill="#ffffff" stroke="none" d="M1104 1219 c33 -15 42 -40 20 -56 -24
-17 -38 -16 -64 5 -19 16 -21 22 -11 40 13 25 20 26 55 11z"/>
<path fill="#ffffff" stroke="none" d="M4180 1199 c11 -26 11 -33 -3 -46 -33
-34 -62 11 -37 58 15 27 26 24 40 -12z"/>
<path fill="#ffffff" stroke="none" d="M4424 1170 c29 -10 35 -40 12 -59 -9
-8 -21 -8 -39 -2 -35 14 -42 29 -21 52 20 22 16 22 48 9z"/>
<path fill="#ffffff" stroke="none" d="M883 1145 c25 -18 18 -46 -15 -65 -21
-11 -32 -12 -45 -4 -27 17 -28 50 -1 68 27 19 37 20 61 1z"/>
<path fill="#ffffff" stroke="none" d="M1052 1143 c10 -9 18 -29 18 -45 0 -23
-4 -28 -24 -28 -31 0 -56 51 -36 75 16 19 19 19 42 -2z"/>
<path fill="#ffffff" stroke="none" d="M4260 1111 c0 -8 -7 -23 -16 -32 -33
-36 -68 12 -48 65 5 14 9 14 35 -1 16 -10 29 -24 29 -32z"/>
<path fill="#ffffff" stroke="none" d="M985 1099 c13 -56 -57 -99 -71 -43 -9
37 10 74 40 74 19 0 26 -7 31 -31z"/>
<path fill="#ffffff" stroke="none" d="M1554 1119 c-5 -9 1 -10 20 -5 14 3 26
3 26 -2 0 -9 -66 -32 -93 -32 -10 0 -14 -6 -11 -13 3 -8 -12 -25 -36 -41 -68
-45 -119 -96 -157 -157 -40 -66 -60 -73 -92 -33 -24 30 -26 65 -10 115 27 78
95 140 180 163 67 18 183 21 173 5z"/>
<path fill="#ffffff" stroke="none" d="M3940 1100 c48 -25 95 -76 119 -130 25
-54 26 -88 5 -118 -13 -19 -63 -52 -78 -52 -3 0 -19 26 -35 58 -42 82 -93 137
-169 179 -61 34 -64 38 -42 44 24 7 24 7 3 8 -13 1 -23 5 -23 9 0 5 24 8 53 7
38 -2 41 -1 10 2 -24 2 -43 9 -43 15 0 17 158 -1 200 -22z"/>
<path fill="#ffffff" stroke="none" d="M4360 1089 c0 -23 -4 -29 -22 -29 -24
0 -58 27 -58 46 0 13 44 23 68 16 6 -2 12 -17 12 -33z"/>
<path fill="#ffffff" stroke="none" d="M3650 1110 c0 -5 -4 -10 -9 -10 -6 0
-13 5 -16 10 -3 6 1 10 9 10 9 0 16 -4 16 -10z"/>
<path fill="#ffffff" stroke="none" d="M3300 1066 c0 -27 -10 -45 -45 -83
l-45 -48 -25 28 c-35 39 -32 63 8 76 17 6 46 22 62 36 40 32 45 31 45 -9z"/>
<path fill="#ffffff" stroke="none" d="M1595 1048 c-1 -13 -3 -23 -4 -23 -2 0
-4 -7 -6 -15 -1 -9 -21 -42 -43 -74 -39 -55 -108 -203 -99 -212 2 -3 12 17 22
43 33 87 66 145 113 195 51 55 89 81 79 55 -11 -30 21 -26 33 4 14 32 30 39
30 12 -1 -38 -100 -276 -141 -340 -57 -87 -136 -170 -150 -156 -7 7 -7 35 0
88 13 89 9 107 -8 40 -10 -38 -15 -45 -36 -45 -33 0 -92 54 -104 95 -27 98 75
250 216 319 87 43 101 45 98 14z"/>
<path fill="#ffffff" stroke="none" d="M3744 1036 c64 -30 158 -114 192 -172
43 -73 33 -189 -20 -233 -26 -22 -49 -8 -69 44 -18 45 -102 175 -112 175 -3 0
15 -30 39 -67 57 -90 103 -241 78 -257 -15 -9 -98 51 -145 105 -67 76 -155
228 -173 298 -8 35 -12 66 -8 69 4 4 9 1 11 -5 3 -7 11 -13 19 -13 8 0 14 -5
14 -11 0 -5 5 -7 11 -4 7 5 5 13 -5 24 -9 10 -16 24 -16 32 0 7 32 -18 72 -56
l72 -70 -65 74 c-50 58 -59 73 -41 69 20 -6 21 -4 10 9 -11 14 -10 15 11 8 18
-5 22 -4 16 5 -12 19 46 6 109 -24z"/>
<path fill="#ffffff" stroke="none" d="M2044 1040 c27 -11 46 -26 46 -35 0
-27 -28 -85 -42 -85 -19 0 -54 58 -62 103 -8 43 -4 44 58 17z"/>
<path fill="#ffffff" stroke="none" d="M1905 1021 c55 -26 109 -85 141 -155
22 -48 26 -68 21 -111 -8 -82 -60 -164 -115 -186 -36 -14 -44 -1 -23 40 11 20
22 52 26 71 9 49 -19 174 -54 243 -34 66 -26 74 19 20 17 -21 28 -30 24 -20
-9 26 7 21 34 -10 24 -27 24 -27 -1 7 -13 19 -52 54 -86 78 -65 44 -57 56 14
23z"/>
<path fill="#ffffff" stroke="none" d="M2204 997 c3 -12 3 -32 1 -44 -16 -76
-14 -73 -48 -73 -40 0 -57 15 -57 51 0 32 17 81 31 90 20 12 67 -3 73 -24z"/>
<path fill="#ffffff" stroke="none" d="M2378 938 c3 -79 1 -88 -22 -115 l-25
-28 -37 20 c-21 11 -43 26 -51 33 -18 19 -16 107 3 148 16 34 18 35 73 32 l56
-3 3 -87z"/>
<path fill="#ffffff" stroke="none" d="M2500 1020 c28 -15 32 -57 16 -143 -11
-58 -23 -88 -47 -118 -35 -45 -53 -46 -82 -6 -20 26 -20 28 -4 75 9 26 17 75
17 109 0 43 5 66 16 77 18 18 56 21 84 6z"/>
<path fill="#ffffff" stroke="none" d="M3398 1020 c-1 -5 -30 -31 -62 -57 -33
-26 -61 -53 -63 -59 -2 -7 15 6 38 28 22 21 44 37 47 33 6 -6 -32 -80 -56
-108 -8 -9 -13 -20 -10 -23 3 -3 16 11 28 31 12 20 24 34 27 31 3 -2 0 -28 -6
-56 -6 -28 -10 -68 -10 -88 1 -29 3 -24 10 23 12 78 46 179 70 207 l20 23 -6
-35 c-6 -32 -4 -31 18 15 13 27 26 45 29 39 5 -8 -8 -102 -23 -159 -4 -16 12
-45 22 -39 5 3 9 27 9 55 0 27 3 49 6 49 13 0 33 -35 34 -58 0 -13 4 -21 10
-17 5 3 19 -14 31 -37 28 -56 92 -151 142 -211 43 -52 43 -71 0 -88 -36 -13
-104 5 -146 40 -16 14 -40 48 -53 76 -13 27 -24 43 -24 34 0 -8 12 -39 27 -68
29 -60 25 -79 -20 -95 -41 -15 -81 8 -113 67 -15 29 -31 68 -35 87 -6 29 -7
26 -6 -20 l2 -55 -34 -3 c-73 -7 -128 90 -118 208 8 98 45 160 125 211 44 28
97 39 90 19z"/>
<path fill="#ffffff" stroke="none" d="M1760 965 c18 11 34 -74 35 -181 0
-105 -1 -113 -28 -153 -30 -45 -100 -95 -156 -111 -35 -9 -91 6 -105 29 -4 5
14 38 40 73 25 35 56 83 69 108 31 61 95 221 95 237 0 7 7 13 15 13 8 0 16 10
17 23 1 13 3 9 5 -11 2 -18 8 -30 13 -27z"/>
<path fill="#ffffff" stroke="none" d="M1897 892 c30 -60 37 -87 41 -152 4
-72 2 -85 -23 -136 -41 -84 -116 -118 -173 -78 -30 20 -28 30 12 75 47 51 60
104 52 217 -4 63 -2 92 5 92 6 0 9 6 6 13 -19 47 -19 52 3 27 l21 -25 -20 42
c-28 57 -26 62 10 27 17 -16 47 -62 66 -102z"/>
<path fill="#ffffff" stroke="none" d="M2887 955 c6 -33 22 -90 35 -128 l23
-67 -38 -37 c-47 -48 -59 -42 -109 56 -31 60 -38 84 -38 132 0 32 5 70 12 84
10 23 16 26 57 23 l46 -3 12 -60z"/>
<path fill="#ffffff" stroke="none" d="M3007 998 c24 -28 53 -99 53 -132 0
-16 -13 -35 -38 -55 -36 -28 -40 -29 -60 -15 -39 27 -66 160 -42 205 15 26 61
25 87 -3z"/>
<path fill="#ffffff" stroke="none" d="M2619 974 c58 -73 -8 -271 -114 -344
l-43 -30 -11 30 c-11 32 -5 48 60 169 20 39 29 69 29 102 0 95 36 128 79 73z"/>
<path fill="#ffffff" stroke="none" d="M2741 915 c6 -65 14 -93 53 -170 25
-51 46 -98 46 -104 0 -6 -19 -11 -43 -11 -52 0 -65 12 -102 93 -24 52 -27 67
-23 153 2 81 6 98 23 110 10 8 24 13 30 11 5 -2 13 -39 16 -82z"/>
<path fill="#ffffff" stroke="none" d="M3149 953 c17 -48 5 -73 -35 -73 -39 0
-82 88 -57 114 4 4 23 6 43 4 31 -3 37 -7 49 -45z"/>
<path fill="#ffffff" stroke="none" d="M2104 864 c3 -9 6 -24 6 -35 0 -25 17
-24 25 1 4 13 15 20 31 20 27 0 44 -30 44 -77 0 -20 -3 -24 -17 -17 -10 4 -39
14 -64 23 -43 15 -48 20 -56 59 -9 37 -8 42 7 42 10 0 21 -7 24 -16z"/>
<path fill="#ffffff" stroke="none" d="M3146 819 c7 -12 -25 -60 -44 -67 -19
-6 -37 44 -22 63 14 17 56 20 66 4z"/>
<path fill="#ffffff" stroke="none" d="M2286 775 c11 -17 14 -36 10 -55 -6
-34 4 -39 22 -10 27 43 72 17 72 -41 0 -29 -6 -43 -26 -58 -35 -28 -41 -27
-60 12 -9 17 -34 52 -55 76 -37 42 -38 44 -23 72 18 36 38 37 60 4z"/>
<path fill="#ffffff" stroke="none" d="M2664 724 c13 -40 31 -69 62 -99 24
-24 44 -47 44 -53 0 -21 -63 -60 -119 -73 -37 -8 -90 8 -124 38 -25 23 -17 47
48 141 30 44 55 85 55 91 0 29 18 5 34 -45z"/>
<path fill="#ffffff" stroke="none" d="M3054 754 c21 -20 20 -27 -3 -48 -21
-19 -35 -15 -51 14 -7 14 -6 23 6 34 19 20 29 20 48 0z"/>
<path fill="#ffffff" stroke="none" d="M3170 737 c0 -19 6 -55 14 -80 8 -26
13 -47 11 -47 -1 0 -22 9 -46 20 -24 11 -53 20 -64 20 -11 0 -27 5 -35 10 -12
9 -6 19 38 60 64 60 82 63 82 17z"/>
<path fill="#ffffff" stroke="none" d="M2994 691 c19 -21 19 -22 -2 -59 -26
-47 -36 -49 -67 -18 -32 32 -34 79 -3 100 23 17 41 11 72 -23z"/>
<path fill="#ffffff" stroke="none" d="M2277 633 c3 -6 -10 -19 -28 -28 -25
-14 -33 -14 -40 -4 -13 22 10 51 38 47 15 -2 28 -8 30 -15z"/>
<path fill="#ffffff" stroke="none" d="M3086 619 c3 -6 1 -16 -5 -22 -13 -13
-65 8 -56 23 8 13 52 13 61 -1z"/>
<path fill="#ffffff" stroke="none" d="M2936 586 c19 -19 34 -28 34 -21 0 14
22 25 49 25 45 0 111 -89 111 -149 0 -41 -43 -75 -85 -67 -38 8 -76 36 -92 67
l-13 24 0 -27 c0 -21 -6 -29 -24 -34 -32 -8 -86 21 -86 46 0 26 34 60 60 60
11 0 25 -9 32 -20 7 -11 16 -20 20 -20 5 0 8 9 8 20 0 13 -7 20 -18 20 -20 0
-92 62 -92 79 0 11 32 29 54 30 4 1 23 -14 42 -33z"/>
<path fill="#ffffff" stroke="none" d="M2181 590 c24 -13 23 -19 -2 -49 -17
-21 -23 -22 -44 -13 -27 12 -33 40 -13 60 15 15 33 15 59 2z"/>
<path fill="#ffffff" stroke="none" d="M2316 574 l6 -25 22 20 c12 12 31 21
41 21 23 0 55 -28 55 -48 0 -26 -41 -62 -71 -62 -24 0 -28 5 -32 33 -3 23 -4
18 -5 -18 -3 -75 -42 -124 -99 -125 -67 0 -96 92 -50 161 23 34 78 69 109 69
11 0 20 -10 24 -26z"/>
<path fill="#ffffff" stroke="none" d="M3180 575 c24 -29 -20 -56 -64 -39 -16
6 -22 35 -9 47 12 13 60 7 73 -8z"/>
<path fill="#ffffff" stroke="none" d="M2497 550 c14 -17 41 -39 60 -49 27
-14 41 -31 59 -74 12 -32 19 -57 14 -57 -4 0 -40 34 -79 76 -39 42 -71 72 -71
68 0 -5 29 -40 65 -79 61 -66 78 -91 56 -83 -5 2 -39 29 -75 61 l-66 58 0 55
c0 30 3 54 6 54 3 0 17 -14 31 -30z"/>
<path fill="#ffffff" stroke="none" d="M2792 536 c-16 -26 -17 -33 -6 -29 12
4 15 -3 15 -33 -1 -60 3 -84 11 -84 4 0 8 -7 8 -16 0 -18 34 -69 66 -99 30
-28 31 -89 1 -110 -28 -20 -51 -20 -43 1 3 9 2 12 -5 9 -5 -4 -17 -4 -26 -1
-12 5 -13 9 -4 20 9 11 6 12 -15 8 -24 -4 -26 -2 -21 17 3 13 0 21 -8 21 -14
0 -35 22 -39 42 -2 7 -8 26 -15 41 -6 16 -9 38 -7 50 4 21 -16 50 -31 45 -10
-4 -24 55 -15 64 4 4 18 9 31 10 12 2 42 20 64 41 52 46 65 47 39 3z"/>
<path fill="#ffffff" stroke="none" d="M2145 499 c4 -5 4 -21 1 -34 -8 -31
-43 -42 -64 -21 -14 13 -14 19 -2 41 14 26 53 35 65 14z"/>
<path fill="#ffffff" stroke="none" d="M3194 497 c11 -8 17 -23 14 -38 -2 -18
-9 -24 -31 -25 -32 -1 -32 -1 -42 44 -6 29 -4 32 17 32 13 0 32 -6 42 -13z"/>
<path fill="#ffffff" stroke="none" d="M2649 443 c13 -46 13 -53 3 -53 -9 0
-42 64 -42 80 0 6 7 10 15 10 8 0 19 -16 24 -37z"/>
<path fill="#ffffff" stroke="none" d="M2390 460 c5 0 14 -9 20 -21 25 -46
-47 -94 -80 -54 -18 22 13 90 36 81 9 -3 20 -6 24 -6z"/>
<path fill="#ffffff" stroke="none" d="M2531 391 c35 -32 61 -62 57 -66 -8 -8
-113 43 -133 65 -14 15 -10 60 5 60 4 0 36 -27 71 -59z"/>
<path fill="#ffffff" stroke="none" d="M2160 406 c17 -21 9 -60 -14 -64 -30
-6 -41 13 -26 47 14 35 22 38 40 17z"/>
<path fill="#ffffff" stroke="none" d="M3170 405 c25 -30 -18 -71 -46 -44 -12
13 -12 18 2 37 18 26 27 27 44 7z"/>
<path fill="#ffffff" stroke="none" d="M3000 359 c0 -23 -42 -69 -64 -69 -67
0 -60 88 9 102 29 6 55 -9 55 -33z"/>
<path fill="#ffffff" stroke="none" d="M2348 352 c16 -22 12 -52 -10 -66 -13
-8 -23 -5 -43 14 -27 26 -32 49 -13 68 15 15 48 6 66 -16z"/>
<path fill="#ffffff" stroke="none" d="M2506 344 c36 -20 63 -39 60 -41 -9 -9
-136 51 -136 64 0 18 4 17 76 -23z"/>
<path fill="#ffffff" stroke="none" d="M2257 332 c28 -37 -8 -89 -44 -66 -23
14 -38 56 -29 79 8 21 53 13 73 -13z"/>
<path fill="#ffffff" stroke="none" d="M3100 337 c0 -43 -72 -59 -82 -19 -8
31 3 42 43 42 34 0 39 -3 39 -23z"/>
<path fill="#ffffff" stroke="none" d="M2689 316 c12 -18 21 -42 21 -52 0 -19
-57 -84 -74 -84 -9 0 -52 55 -64 82 -5 10 69 88 83 88 8 0 23 -15 34 -34z"/>
<path fill="#ffffff" stroke="none" d="M2485 321 c60 -28 76 -43 65 -61 -7
-10 -13 -11 -17 -5 -9 12 -114 57 -120 52 -2 -2 24 -16 57 -31 33 -15 60 -31
60 -36 0 -20 -22 -19 -79 6 -48 21 -61 31 -61 48 0 26 18 46 40 46 8 0 33 -9
55 -19z"/>
<path fill="#ffffff" stroke="none" d="M2454 233 c47 -23 53 -29 45 -45 -15
-28 -46 -40 -69 -28 -32 17 -24 32 13 25 29 -5 29 -4 -10 14 -30 14 -43 26
-43 41 0 25 -1 25 64 -7z"/>
<path fill="#ffffff" stroke="none" d="M2594 209 c36 -43 31 -99 -12 -151 -34
-40 -92 -6 -92 54 0 26 56 128 71 128 4 0 19 -14 33 -31z"/>
<path fill="#ffffff" stroke="none" d="M2764 178 c30 -60 33 -94 9 -120 -25
-28 -57 -22 -91 16 -49 56 -50 72 -6 117 21 21 43 39 50 39 7 0 24 -23 38 -52z"/>
<path fill="#000000" stroke="none" d="M1530 4395 c0 -5 5 -17 10 -25 5 -8 10
-10 10 -5 0 6 -5 17 -10 25 -5 8 -10 11 -10 5z"/>
<path fill="#000000" stroke="none" d="M1761 4575 c-1 -6 4 -26 9 -45 6 -19
11 -60 11 -90 1 -36 4 -48 9 -35 8 23 -3 117 -18 155 -6 14 -11 20 -11 15z"/>
<path fill="#000000" stroke="none" d="M3516 4443 c-6 -14 -5 -15 5 -6 7 7 10
15 7 18 -3 3 -9 -2 -12 -12z"/>
<path fill="#000000" stroke="none" d="M3735 4330 c-3 -5 -1 -10 4 -10 6 0 11
5 11 10 0 6 -2 10 -4 10 -3 0 -8 -4 -11 -10z"/>
<path fill="#000000" stroke="none" d="M1460 4190 c8 -5 22 -9 30 -9 10 0 8 3
-5 9 -27 12 -43 12 -25 0z"/>
<path fill="#000000" stroke="none" d="M3758 4203 c6 -2 18 -2 25 0 6 3 1 5
-13 5 -14 0 -19 -2 -12 -5z"/>
<path fill="#000000" stroke="none" d="M3718 4193 c7 -3 16 -2 19 1 4 3 -2 6
-13 5 -11 0 -14 -3 -6 -6z"/>
<path fill="#000000" stroke="none" d="M3698 4103 c7 -3 16 -2 19 1 4 3 -2 6
-13 5 -11 0 -14 -3 -6 -6z"/>
<path fill="#000000" stroke="none" d="M3758 4093 c6 -2 18 -2 25 0 6 3 1 5
-13 5 -14 0 -19 -2 -12 -5z"/>
<path fill="#000000" stroke="none" d="M2554 3941 c-72 -53 -165 -156 -158
-174 12 -32 45 -17 109 48 85 86 95 86 213 -7 69 -55 98 -59 82 -11 -15 41
-80 124 -119 150 -45 31 -80 29 -127 -6z"/>
<path fill="#ffffff" stroke="none" d="M2687 3926 c36 -23 106 -123 97 -138
-6 -10 -10 -8 -104 65 -34 26 -72 47 -84 47 -13 0 -47 -25 -88 -65 -60 -59
-98 -81 -98 -55 0 16 131 140 170 160 38 21 58 18 107 -14z"/>
<path fill="#000000" stroke="none" d="M2602 3275 c0 -22 3 -62 8 -90 6 -40 7
-43 8 -15 0 19 -3 60 -8 90 -6 48 -7 50 -8 15z"/>
<path fill="#000000" stroke="none" d="M2623 3065 c0 -33 2 -45 4 -27 2 18 2
45 0 60 -2 15 -4 0 -4 -33z"/>
<path fill="#000000" stroke="none" d="M775 3800 c-13 -5 -14 -9 -5 -9 8 0 24
4 35 9 13 5 14 9 5 9 -8 0 -24 -4 -35 -9z"/>
<path fill="#000000" stroke="none" d="M1851 3614 c0 -11 3 -14 6 -6 3 7 2 16
-1 19 -3 4 -6 -2 -5 -13z"/>
<path fill="#000000" stroke="none" d="M1911 3574 c0 -11 3 -14 6 -6 3 7 2 16
-1 19 -3 4 -6 -2 -5 -13z"/>
<path fill="#000000" stroke="none" d="M1602 3389 c-24 -4 -67 -19 -96 -32
l-53 -24 11 -49 11 -48 3 46 c2 26 9 51 16 57 19 16 171 53 203 49 14 -2 28
-8 30 -15 4 -11 -8 -16 -119 -44 -40 -10 -78 -50 -78 -81 0 -11 5 -16 10 -13
6 3 10 15 10 25 0 30 46 58 106 66 62 7 101 32 91 57 -7 19 -68 21 -145 6z"/>
<path fill="#000000" stroke="none" d="M1482 3210 c0 -14 2 -19 5 -12 2 6 2
18 0 25 -3 6 -5 1 -5 -13z"/>
<path fill="#000000" stroke="none" d="M1543 3185 c0 -22 2 -30 4 -17 2 12 2
30 0 40 -3 9 -5 -1 -4 -23z"/>
<path fill="#000000" stroke="none" d="M1492 3155 c0 -16 2 -22 5 -12 2 9 2
23 0 30 -3 6 -5 -1 -5 -18z"/>
<path fill="#000000" stroke="none" d="M1501 3100 c-1 -30 24 -70 45 -70 10 0
14 12 12 48 -1 44 -2 45 -5 9 -5 -46 -23 -45 -40 4 -11 30 -12 31 -12 9z"/>
<path fill="#000000" stroke="none" d="M2200 2881 c0 -5 7 -12 16 -15 24 -9
28 -7 14 9 -14 17 -30 20 -30 6z"/>
<path fill="#000000" stroke="none" d="M2298 2723 c7 -3 16 -2 19 1 4 3 -2 6
-13 5 -11 0 -14 -3 -6 -6z"/>
<path fill="#000000" stroke="none" d="M481 3694 c0 -11 3 -14 6 -6 3 7 2 16
-1 19 -3 4 -6 -2 -5 -13z"/>
<path fill="#000000" stroke="none" d="M4662 3700 c0 -14 2 -19 5 -12 2 6 2
18 0 25 -3 6 -5 1 -5 -13z"/>
<path fill="#000000" stroke="none" d="M4611 3664 c0 -11 3 -14 6 -6 3 7 2 16
-1 19 -3 4 -6 -2 -5 -13z"/>
<path fill="#000000" stroke="none" d="M4546 3645 c-9 -26 -7 -32 5 -12 6 10
9 21 6 23 -2 3 -7 -2 -11 -11z"/>
<path fill="#000000" stroke="none" d="M3503 3383 c-20 -8 -15 -51 7 -63 11
-6 48 -19 83 -30 101 -31 100 -29 85 -142 -10 -79 -9 -99 1 -112 29 -35 40
-16 71 127 25 114 25 133 0 155 -53 45 -201 84 -247 65z"/>
<path fill="#ffffff" stroke="none" d="M3652 3351 c31 -12 68 -31 83 -43 30
-23 30 -27 1 -163 -31 -141 -69 -138 -47 4 17 116 17 117 -31 135 -24 8 -61
20 -83 25 -22 6 -49 17 -60 25 -17 12 -18 16 -5 31 17 21 60 17 142 -14z"/>
<path fill="#000000" stroke="none" d="M3074 2885 c-18 -14 -18 -14 4 -8 12 3
22 9 22 14 0 12 -3 11 -26 -6z"/>
<path fill="#000000" stroke="none" d="M2978 2723 c12 -2 32 -2 45 0 12 2 2 4
-23 4 -25 0 -35 -2 -22 -4z"/>
<path fill="#000000" stroke="none" d="M4445 2919 c-4 -6 -5 -12 -2 -15 2 -3
7 2 10 11 7 17 1 20 -8 4z"/>
<path fill="#000000" stroke="none" d="M4426 2875 c-9 -26 -7 -32 5 -12 6 10
9 21 6 23 -2 3 -7 -2 -11 -11z"/>
<path fill="#000000" stroke="none" d="M4531 2867 c-13 -21 -12 -21 5 -5 10
10 16 20 13 22 -3 3 -11 -5 -18 -17z"/>
<path fill="#000000" stroke="none" d="M4579 2863 c-13 -16 -12 -17 4 -4 16
13 21 21 13 21 -2 0 -10 -8 -17 -17z"/>
<path fill="#000000" stroke="none" d="M4529 2813 c-13 -16 -12 -17 4 -4 16
13 21 21 13 21 -2 0 -10 -8 -17 -17z"/>
<path fill="#000000" stroke="none" d="M4635 2790 c-3 -6 1 -7 9 -4 18 7 21
14 7 14 -6 0 -13 -4 -16 -10z"/>
<path fill="#000000" stroke="none" d="M4668 2763 c7 -3 16 -2 19 1 4 3 -2 6
-13 5 -11 0 -14 -3 -6 -6z"/>
<path fill="#000000" stroke="none" d="M597 2729 c7 -7 15 -10 18 -7 3 3 -2 9
-12 12 -14 6 -15 5 -6 -5z"/>
<path fill="#000000" stroke="none" d="M4718 2663 c7 -3 16 -2 19 1 4 3 -2 6
-13 5 -11 0 -14 -3 -6 -6z"/>
<path fill="#000000" stroke="none" d="M4618 2593 c6 -2 18 -2 25 0 6 3 1 5
-13 5 -14 0 -19 -2 -12 -5z"/>
<path fill="#000000" stroke="none" d="M4698 2583 c7 -3 16 -2 19 1 4 3 -2 6
-13 5 -11 0 -14 -3 -6 -6z"/>
<path fill="#000000" stroke="none" d="M4585 2540 c3 -5 11 -10 16 -10 6 0 7
5 4 10 -3 6 -11 10 -16 10 -6 0 -7 -4 -4 -10z"/>
<path fill="#000000" stroke="none" d="M2248 2583 c7 -3 16 -2 19 1 4 3 -2 6
-13 5 -11 0 -14 -3 -6 -6z"/>
<path fill="#000000" stroke="none" d="M2158 2483 c7 -3 16 -2 19 1 4 3 -2 6
-13 5 -11 0 -14 -3 -6 -6z"/>
<path fill="#000000" stroke="none" d="M2234 2394 c-18 -14 -18 -15 4 -4 12 6
22 13 22 15 0 8 -5 6 -26 -11z"/>
<path fill="#000000" stroke="none" d="M2184 2364 c-18 -14 -18 -15 4 -4 12 6
22 13 22 15 0 8 -5 6 -26 -11z"/>
<path fill="#000000" stroke="none" d="M2128 2334 c-38 -20 -36 -28 2 -9 17 9
30 18 30 20 0 7 -1 6 -32 -11z"/>
<path fill="#000000" stroke="none" d="M2051 2291 c-19 -10 -30 -21 -25 -24 5
-3 23 6 39 19 36 28 32 30 -14 5z"/>
<path fill="#000000" stroke="none" d="M1521 2224 c-7 -19 -10 -38 -7 -41 3
-4 6 1 6 9 0 9 7 21 15 28 17 14 17 12 16 -50 l0 -35 10 34 c7 24 7 42 -2 62
-15 38 -22 36 -38 -7z"/>
<path fill="#000000" stroke="none" d="M1481 2100 c-7 -23 -15 -63 -18 -89 -5
-44 -3 -51 19 -65 70 -46 248 -76 248 -43 0 23 -32 43 -101 66 -100 33 -104
37 -89 100 7 29 10 54 8 57 -3 2 -11 -21 -18 -52 -10 -39 -11 -61 -3 -72 5 -9
44 -28 86 -42 42 -14 82 -31 89 -38 35 -35 -100 -20 -182 21 -53 26 -58 42
-35 128 17 70 15 91 -4 29z"/>
<path fill="#000000" stroke="none" d="M2940 2520 c14 -4 34 -8 45 -8 16 0 15
2 -5 8 -14 4 -34 8 -45 8 -16 0 -15 -2 5 -8z"/>
<path fill="#000000" stroke="none" d="M3069 2484 c18 -8 36 -13 39 -10 6 6
-43 26 -61 25 -7 0 3 -7 22 -15z"/>
<path fill="#000000" stroke="none" d="M3050 2384 c0 -2 41 -24 90 -49 50 -25
90 -42 90 -38 0 8 -180 95 -180 87z"/>
<path fill="#000000" stroke="none" d="M3672 2248 c-18 -18 -15 -74 9 -148 30
-91 18 -117 -66 -146 -84 -28 -105 -42 -105 -64 0 -30 57 -26 148 11 125 50
126 52 91 222 -24 118 -47 155 -77 125z"/>
<path fill="#ffffff" stroke="none" d="M3710 2225 c7 -8 21 -65 31 -126 23
-137 20 -145 -78 -183 -95 -36 -133 -43 -133 -23 0 15 66 47 99 47 30 0 70 38
76 73 4 20 -2 54 -15 91 -33 98 -22 171 20 121z"/>
<path fill="#000000" stroke="none" d="M588 2503 c7 -3 16 -2 19 1 4 3 -2 6
-13 5 -11 0 -14 -3 -6 -6z"/>
<path fill="#000000" stroke="none" d="M739 2333 c-13 -16 -12 -17 4 -4 9 7
17 15 17 17 0 8 -8 3 -21 -13z"/>
<path fill="#000000" stroke="none" d="M2410 1505 c-12 -14 -3 -27 71 -99 102
-101 131 -111 189 -71 44 30 160 144 160 157 0 21 -58 5 -104 -31 -99 -75
-102 -75 -209 1 -85 61 -90 63 -107 43z"/>
<path fill="#ffffff" stroke="none" d="M2518 1445 c48 -34 87 -55 104 -55 15
0 54 19 92 45 96 65 118 60 44 -11 -112 -107 -151 -117 -220 -56 -48 41 -118
116 -118 126 0 16 28 2 98 -49z"/>
<path fill="#000000" stroke="none" d="M1831 1674 c-1 -15 30 -106 35 -101 2
2 -5 28 -15 58 -11 30 -20 49 -20 43z"/>
<path fill="#000000" stroke="none" d="M623 1685 c-3 -9 -3 -18 -1 -21 3 -3 8
4 11 16 6 23 -1 27 -10 5z"/>
<path fill="#000000" stroke="none" d="M571 1594 c0 -11 3 -14 6 -6 3 7 2 16
-1 19 -3 4 -6 -2 -5 -13z"/>
<path fill="#000000" stroke="none" d="M601 1594 c0 -11 3 -14 6 -6 3 7 2 16
-1 19 -3 4 -6 -2 -5 -13z"/>
<path fill="#000000" stroke="none" d="M938 1343 c7 -3 16 -2 19 1 4 3 -2 6
-13 5 -11 0 -14 -3 -6 -6z"/>
<path fill="#000000" stroke="none" d="M4529 1333 c-13 -16 -12 -17 4 -4 9 7
17 15 17 17 0 8 -8 3 -21 -13z"/>
<path fill="#000000" stroke="none" d="M1498 1103 c6 -2 18 -2 25 0 6 3 1 5
-13 5 -14 0 -19 -2 -12 -5z"/>
<path fill="#000000" stroke="none" d="M3770 1076 c0 -2 7 -6 15 -10 8 -3 15
-1 15 4 0 6 -7 10 -15 10 -8 0 -15 -2 -15 -4z"/>
<path fill="#000000" stroke="none" d="M1510 1015 c-14 -8 -20 -14 -14 -15 5
0 19 7 30 15 24 18 16 19 -16 0z"/>
<path fill="#000000" stroke="none" d="M1499 953 c-13 -16 -12 -17 4 -4 16 13
21 21 13 21 -2 0 -10 -8 -17 -17z"/>
<path fill="#000000" stroke="none" d="M1579 903 c-13 -16 -12 -17 4 -4 16 13
21 21 13 21 -2 0 -10 -8 -17 -17z"/>
<path fill="#000000" stroke="none" d="M3700 886 c0 -2 8 -10 18 -17 15 -13
16 -12 3 4 -13 16 -21 21 -21 13z"/>
<path fill="#000000" stroke="none" d="M1956 887 c3 -10 9 -15 12 -12 3 3 0
11 -7 18 -10 9 -11 8 -5 -6z"/>
<path fill="#000000" stroke="none" d="M3472 710 c0 -14 2 -19 5 -12 2 6 2 18
0 25 -3 6 -5 1 -5 -13z"/>
<path fill="#000000" stroke="none" d="M1876 840 c3 -14 10 -29 15 -34 14 -16
10 6 -7 34 l-15 25 7 -25z"/>
<path fill="#000000" stroke="none" d="M1841 834 c0 -11 3 -14 6 -6 3 7 2 16
-1 19 -3 4 -6 -2 -5 -13z"/>
<path fill="#000000" stroke="none" d="M3230 4403 c0 -6 8 -17 18 -24 16 -13
16 -13 2 6 -8 11 -16 22 -17 24 -2 2 -3 0 -3 -6z"/>
<path fill="#000000" stroke="none" d="M3496 425 c-9 -26 -7 -32 5 -12 6 10 9
21 6 23 -2 3 -7 -2 -11 -11z"/>
<path fill="#000000" stroke="none" d="M3367 366 c-4 -10 0 -12 14 -9 22 6 26
23 5 23 -8 0 -16 -6 -19 -14z"/>
<path fill="#000000" stroke="none" d="M3216 311 c-4 -7 -5 -15 -2 -18 9 -9
19 4 14 18 -4 11 -6 11 -12 0z"/>
</g>
</svg>
