<?xml version="1.0" standalone="no"?>
<!DOCTYPE svg PUBLIC "-//W3C//DTD SVG 20010904//EN"
 "http://www.w3.org/TR/2001/REC-SVG-20010904/DTD/svg10.dtd">
<svg version="1.0" xmlns="http://www.w3.org/2000/svg"
 width="800.000000pt" height="1000.000000pt" viewBox="0 0 800.000000 1000.000000"
 preserveAspectRatio="xMidYMid meet">
<metadata>
Created by potrace 1.14, written by Peter Selinger 2001-2017
</metadata>
<g transform="translate(0.000000,1000.000000) scale(0.100000,-0.100000)"
fill="#000000" stroke="none">
<path fill="#000000" stroke="none" d="M2372 8573 c-156 -306 -292 -631 -405
-969 l-70 -211 -81 -7 c-45 -3 -107 -6 -138 -6 l-58 0 0 -57 c0 -32 -3 -94 -6
-139 l-7 -81 -211 -70 c-333 -111 -661 -248 -956 -399 -80 -41 -151 -78 -158
-82 -10 -7 1 -50 48 -196 116 -354 218 -603 387 -943 l105 -213 -94 -101 -95
-102 86 -89 c47 -50 90 -96 94 -104 6 -10 -10 -49 -46 -117 -149 -278 -320
-686 -431 -1026 -53 -161 -64 -206 -54 -213 41 -28 497 -247 631 -302 181 -75
434 -168 588 -216 l106 -32 7 -82 c3 -44 6 -106 6 -138 l0 -56 139 -7 139 -7
47 -147 c60 -186 141 -407 217 -586 74 -174 285 -605 297 -605 5 0 97 29 205
64 336 111 688 258 995 416 76 39 140 66 147 62 6 -4 54 -47 104 -96 l93 -88
86 84 c47 46 93 90 102 96 14 10 36 2 130 -47 283 -149 671 -312 994 -419 99
-33 192 -62 207 -66 26 -6 29 -2 122 183 162 320 291 632 398 957 l62 192 137
7 137 7 7 137 7 137 187 61 c332 108 624 229 954 395 193 97 197 100 191 126
-4 15 -33 108 -66 207 -107 323 -270 711 -419 994 -49 94 -57 116 -47 130 6 9
50 55 96 102 l84 86 -88 93 c-49 50 -92 98 -96 104 -4 7 23 71 62 147 158 307
305 659 416 995 35 108 64 200 64 205 0 12 -431 223 -605 297 -179 76 -400
157 -586 217 l-147 47 -7 139 -7 139 -56 0 c-32 0 -94 3 -138 6 l-82 7 -32
106 c-48 154 -141 407 -216 588 -55 134 -274 590 -302 631 -7 10 -52 -1 -213
-54 -340 -111 -748 -282 -1026 -431 -68 -36 -107 -52 -117 -46 -8 4 -54 47
-104 94 l-89 86 -102 -95 -101 -94 -213 105 c-340 169 -589 271 -941 386 -103
34 -188 61 -190 61 -1 0 -39 -71 -84 -157z"/>
<path fill="#ffffff" stroke="none" d="M2762 8545 l77 -26 5 -62 c3 -34 10
-138 16 -232 6 -93 12 -191 15 -218 l6 -47 -64 31 -64 32 -116 286 c-64 157
-119 293 -122 303 -7 17 41 4 247 -67z"/>
<path fill="#ffffff" stroke="none" d="M5369 8320 l-123 -300 -54 -25 c-30
-14 -57 -25 -61 -25 -3 0 1 114 11 253 9 138 17 262 17 274 1 19 21 28 164 76
89 30 164 53 166 51 2 -2 -52 -138 -120 -304z"/>
<path fill="#ffffff" stroke="none" d="M2517 8563 c13 -32 69 -168 126 -302
l103 -245 -21 -59 c-12 -32 -26 -57 -31 -55 -5 1 -88 93 -185 204 l-176 200
76 157 c42 86 78 157 81 157 3 0 15 -26 27 -57z"/>
<path fill="#ffffff" stroke="none" d="M5487 8099 l-182 -209 -17 38 c-39 84
-46 65 207 657 l17 40 79 -158 79 -159 -183 -209z"/>
<path fill="#ffffff" stroke="none" d="M3055 8435 c39 -16 72 -30 74 -31 4 -3
-69 -515 -74 -522 -1 -1 -38 14 -81 35 l-79 38 -11 175 c-7 96 -15 221 -19
278 l-6 102 63 -24 c35 -13 95 -36 133 -51z"/>
<path fill="#ffffff" stroke="none" d="M5125 8238 c-9 -145 -18 -269 -21 -276
-5 -16 -147 -83 -155 -74 -7 8 -83 512 -78 516 10 8 264 104 267 101 2 -2 -4
-122 -13 -267z"/>
<path fill="#ffffff" stroke="none" d="M3279 8339 c64 -28 120 -55 126 -60 6
-6 -32 -94 -105 -238 l-114 -229 -59 29 c-53 27 -58 32 -53 57 3 15 19 122 36
237 34 235 38 255 46 255 3 0 58 -23 123 -51z"/>
<path fill="#ffffff" stroke="none" d="M4891 8138 c20 -136 39 -250 42 -255 3
-5 -22 -23 -57 -40 l-62 -31 -114 229 c-63 125 -111 231 -107 235 13 13 242
114 252 111 5 -2 26 -114 46 -249z"/>
<path fill="#ffffff" stroke="none" d="M4206 8135 c72 -68 352 -282 449 -344
l48 -30 -189 -91 c-104 -50 -198 -93 -210 -96 -17 -4 -45 22 -158 153 -76 87
-141 158 -145 158 -4 0 -69 -71 -145 -157 -75 -87 -142 -158 -147 -158 -15 0
-399 183 -399 190 0 3 47 38 105 78 146 101 339 256 474 383 l114 107 85 -82
c47 -44 100 -94 118 -111z"/>
<path fill="#ffffff" stroke="none" d="M2500 8090 c84 -96 162 -185 173 -197
19 -21 19 -22 -8 -103 -18 -54 -31 -80 -40 -76 -9 3 -388 280 -414 302 -2 2
23 64 55 139 45 104 61 132 70 122 6 -6 80 -91 164 -187z"/>
<path fill="#ffffff" stroke="none" d="M5735 8156 c31 -71 55 -132 53 -137 -3
-9 -409 -309 -418 -309 -4 0 -19 36 -34 80 l-28 79 183 210 c101 115 185 209
186 208 1 -1 27 -60 58 -131z"/>
<path fill="#ffffff" stroke="none" d="M3720 8123 c12 -11 -216 -190 -377
-298 -68 -45 -74 -47 -103 -35 -16 7 -30 16 -30 20 0 5 49 110 110 234 l109
227 143 -72 c79 -39 145 -73 148 -76z"/>
<path fill="#ffffff" stroke="none" d="M4685 8039 c63 -127 115 -232 115 -234
0 -2 -16 -9 -36 -15 -33 -11 -39 -10 -92 26 -79 52 -233 166 -320 237 -50 41
-70 63 -63 70 8 8 269 145 279 147 1 0 54 -104 117 -231z"/>
<path fill="#ffffff" stroke="none" d="M2428 7836 l200 -148 -20 -59 c-11 -33
-25 -59 -31 -59 -16 0 -460 151 -470 160 -7 6 22 90 82 243 8 20 15 26 25 20
7 -4 103 -75 214 -157z"/>
<path fill="#ffffff" stroke="none" d="M5816 7963 c40 -95 84 -227 77 -233
-11 -10 -451 -160 -468 -160 -7 0 -22 26 -33 59 l-20 58 211 157 c117 86 213
156 214 156 2 0 10 -17 19 -37z"/>
<path fill="#ffffff" stroke="none" d="M3236 7744 c236 -113 432 -208 436
-212 10 -10 -222 -278 -236 -274 -6 2 -110 51 -230 108 -120 57 -222 104 -226
104 -4 0 -44 -105 -90 -232 -45 -128 -86 -237 -91 -242 -8 -9 -348 10 -358 19
-3 3 229 669 321 923 6 17 13 22 27 17 10 -3 212 -98 447 -211z"/>
<path fill="#ffffff" stroke="none" d="M5278 7829 c24 -68 70 -198 102 -289
32 -91 85 -242 119 -337 34 -95 61 -176 61 -182 0 -10 -147 -24 -279 -25 l-84
-1 -83 234 c-45 128 -85 236 -88 239 -3 3 -59 -20 -123 -51 -65 -31 -169 -80
-232 -110 l-114 -55 -118 137 c-65 75 -115 139 -111 143 14 13 887 428 896
425 5 -2 29 -59 54 -128z"/>
<path fill="#ffffff" stroke="none" d="M4240 7575 c128 -148 246 -284 263
-302 l30 -32 -168 -81 c-92 -44 -171 -80 -175 -80 -4 0 -48 49 -96 109 -49 60
-91 110 -94 110 -3 0 -29 -30 -58 -67 -29 -37 -69 -87 -90 -110 l-38 -44 -54
25 c-30 14 -108 50 -172 81 l-118 56 263 304 c144 167 265 304 268 303 3 -1
111 -123 239 -272z"/>
<path fill="#ffffff" stroke="none" d="M2341 7630 c128 -44 234 -82 236 -83 9
-10 -24 -67 -42 -71 -112 -28 -529 -86 -540 -74 -4 4 80 282 92 301 7 12 12
10 254 -73z"/>
<path fill="#ffffff" stroke="none" d="M5962 7560 c26 -79 48 -149 48 -154 0
-12 -130 0 -315 29 -245 39 -250 40 -262 80 l-11 33 232 81 c127 44 237 79
245 78 9 -1 33 -57 63 -147z"/>
<path fill="#ffffff" stroke="none" d="M2469 7231 l-74 -211 -55 1 c-30 0
-128 6 -218 12 -90 7 -164 11 -165 10 -2 -1 3 -78 10 -170 6 -92 13 -190 14
-217 l3 -48 -209 -74 c-115 -41 -212 -74 -215 -74 -4 0 2 42 12 93 30 151 57
385 69 595 5 108 11 198 12 199 1 1 91 7 199 12 206 11 454 40 598 70 47 9 87
16 89 15 1 -2 -30 -97 -70 -213z"/>
<path fill="#ffffff" stroke="none" d="M5720 7401 c148 -22 317 -37 511 -47
l125 -6 3 -141 c2 -163 32 -444 65 -624 12 -67 20 -123 18 -123 -23 0 -415
147 -419 157 -3 7 1 104 10 216 8 111 13 204 12 207 -2 3 -98 -1 -214 -9 -128
-9 -215 -11 -221 -5 -6 7 -150 406 -150 418 0 1 28 -3 63 -10 34 -8 123 -22
197 -33z"/>
<path fill="#ffffff" stroke="none" d="M3778 7039 c-2 -5 -59 -68 -127 -143
l-125 -134 -162 84 -163 85 -51 -163 c-29 -90 -53 -169 -56 -176 -3 -9 -38
-11 -151 -7 -197 8 -236 13 -229 30 3 8 64 182 137 387 72 205 135 383 140
395 8 21 24 14 399 -165 215 -102 389 -189 388 -193z"/>
<path fill="#ffffff" stroke="none" d="M5149 7006 c78 -219 139 -401 136 -404
-6 -6 -367 -24 -372 -18 -2 2 -26 77 -54 167 -28 90 -53 167 -55 171 -5 8
-148 -61 -261 -125 l-62 -35 -79 81 c-143 149 -187 200 -177 204 6 2 181 87
390 187 209 101 383 180 386 177 4 -3 71 -186 148 -405z"/>
<path fill="#ffffff" stroke="none" d="M4086 7153 c87 -106 155 -183 283 -315
47 -49 83 -89 80 -91 -46 -35 -283 -167 -288 -160 -5 4 -41 56 -81 116 -40 59
-76 107 -79 107 -4 0 -40 -50 -81 -111 -41 -61 -78 -113 -82 -115 -5 -3 -197
105 -286 161 -1 1 12 17 29 36 167 179 276 299 339 377 41 51 77 92 81 92 3 0
42 -44 85 -97z"/>
<path fill="#ffffff" stroke="none" d="M2787 6956 c2 -2 -116 -344 -122 -354
-1 -1 -66 3 -144 11 -78 7 -143 12 -144 10 -2 -1 3 -66 10 -144 8 -78 12 -143
11 -144 -10 -6 -352 -124 -354 -122 -3 3 -60 797 -57 800 3 3 797 -54 800 -57z"/>
<path fill="#ffffff" stroke="none" d="M5989 6611 c-16 -217 -30 -396 -32
-397 -4 -4 -340 115 -349 124 -4 4 -1 70 6 147 8 77 13 140 12 141 0 0 -64 -5
-140 -13 -77 -7 -143 -10 -147 -6 -7 8 -129 346 -126 349 6 6 793 59 798 55 4
-3 -6 -183 -22 -400z"/>
<path fill="#ffffff" stroke="none" d="M1600 6982 c0 -73 -70 -528 -82 -536
-14 -9 -61 -26 -64 -23 -10 9 -164 472 -161 481 3 9 270 102 300 105 4 1 7
-12 7 -27z"/>
<path fill="#ffffff" stroke="none" d="M6552 6964 c78 -25 147 -50 152 -54 7
-7 -137 -465 -153 -482 -4 -4 -21 -3 -38 4 -30 11 -32 16 -52 117 -35 179 -70
461 -58 461 3 0 70 -21 149 -46z"/>
<path fill="#ffffff" stroke="none" d="M1351 6666 c44 -126 79 -234 79 -241 0
-7 -26 -22 -59 -33 l-59 -20 -151 204 c-83 112 -152 209 -153 215 -3 11 239
111 256 106 5 -2 44 -106 87 -231z"/>
<path fill="#ffffff" stroke="none" d="M6863 6854 c67 -25 126 -50 130 -54 5
-4 -62 -102 -148 -218 l-156 -210 -59 20 c-33 11 -60 24 -60 29 0 5 34 109 75
232 91 269 83 247 90 247 3 0 61 -21 128 -46z"/>
<path fill="#ffffff" stroke="none" d="M3394 6783 c126 -68 394 -222 415 -239
6 -5 -132 -234 -142 -234 -5 0 -68 34 -139 75 -103 59 -130 71 -135 59 -3 -9
-23 -77 -44 -152 -20 -75 -41 -136 -46 -136 -4 1 -65 16 -134 34 l-126 32 24
97 c47 198 151 551 161 551 3 0 78 -39 166 -87z"/>
<path fill="#ffffff" stroke="none" d="M4789 6833 c65 -205 175 -603 168 -609
-1 -1 -61 -17 -134 -37 l-132 -34 -15 51 c-8 28 -27 96 -41 151 -15 55 -28
101 -29 102 -1 1 -64 -33 -139 -76 l-137 -79 -69 117 c-38 64 -67 119 -64 124
10 17 551 326 574 327 3 0 11 -17 18 -37z"/>
<path fill="#ffffff" stroke="none" d="M1134 6587 c83 -112 151 -208 153 -214
2 -6 -32 -23 -76 -38 l-81 -27 -33 29 c-19 15 -114 98 -211 183 -143 126 -173
156 -159 163 10 4 68 29 128 56 61 27 115 50 120 50 6 0 77 -91 159 -202z"/>
<path fill="#ffffff" stroke="none" d="M7157 6734 c70 -30 129 -57 130 -58 3
-2 -292 -262 -388 -343 l-29 -25 -80 27 c-45 15 -80 31 -78 36 6 17 303 418
310 419 4 0 65 -25 135 -56z"/>
<path fill="#ffffff" stroke="none" d="M4094 6633 c86 -132 206 -329 206 -341
0 -4 -28 -23 -62 -42 -34 -19 -74 -46 -90 -59 -16 -13 -30 -22 -32 -20 -1 2
-27 43 -57 91 -30 48 -56 87 -59 87 -4 0 -65 -94 -110 -169 -8 -12 -12 -11
-32 6 -13 12 -52 38 -88 59 -36 21 -67 40 -69 41 -11 9 283 474 300 474 5 0
46 -57 93 -127z"/>
<path fill="#ffffff" stroke="none" d="M899 6488 c108 -95 197 -177 197 -183
1 -5 -24 -19 -55 -31 l-57 -20 -245 103 c-134 57 -270 113 -301 126 -32 12
-58 24 -58 27 0 7 293 149 308 150 8 0 102 -78 211 -172z"/>
<path fill="#ffffff" stroke="none" d="M7472 6588 c81 -40 148 -75 148 -78 0
-3 -137 -62 -303 -131 l-302 -125 -50 18 c-27 10 -56 21 -63 23 -15 5 385 363
407 364 8 1 81 -31 163 -71z"/>
<path fill="#ffffff" stroke="none" d="M2555 6580 c61 -6 202 -13 315 -16 113
-4 207 -8 208 -9 2 -2 -14 -75 -36 -162 -28 -109 -44 -158 -53 -157 -8 1 -69
11 -137 24 -67 13 -125 20 -129 17 -3 -4 4 -62 17 -129 13 -68 23 -129 24
-137 1 -9 -48 -25 -157 -53 -87 -22 -160 -38 -162 -36 -1 1 -5 95 -9 208 -3
113 -10 252 -16 310 -16 166 -16 160 8 154 9 -2 67 -8 127 -14z"/>
<path fill="#ffffff" stroke="none" d="M5595 6563 c-11 -65 -26 -272 -32 -450
-3 -106 -9 -193 -12 -193 -3 0 -76 18 -161 39 -132 34 -155 42 -153 58 1 10
13 73 26 141 l24 122 -21 0 c-12 -1 -75 -12 -141 -24 -66 -13 -122 -22 -123
-21 -6 5 -83 317 -80 320 2 2 100 6 218 10 118 3 247 10 285 14 39 4 94 9 122
9 52 2 52 2 48 -25z"/>
<path fill="#ffffff" stroke="none" d="M1996 6463 c4 -54 8 -136 8 -182 l1
-84 -230 -83 c-126 -46 -234 -85 -240 -87 -5 -2 38 -104 97 -228 58 -123 108
-229 110 -235 4 -14 -264 -246 -274 -236 -13 13 -419 867 -421 885 -2 16 69
44 458 182 253 90 465 164 472 164 7 1 14 -33 19 -96z"/>
<path fill="#ffffff" stroke="none" d="M6252 6481 c347 -123 710 -251 714
-251 1 0 -31 -71 -73 -157 -165 -346 -231 -484 -293 -615 -36 -76 -67 -138
-70 -138 -10 0 -270 230 -270 239 0 5 47 109 105 231 58 121 105 225 105 229
0 5 -107 46 -237 93 l-238 84 1 65 c0 116 16 299 25 299 4 0 109 -36 231 -79z"/>
<path fill="#ffffff" stroke="none" d="M691 6363 l286 -116 32 -64 31 -64 -47
6 c-27 3 -124 9 -218 15 -93 6 -198 13 -232 16 l-62 5 -26 77 c-71 206 -84
254 -67 247 10 -3 146 -58 303 -122z"/>
<path fill="#ffffff" stroke="none" d="M7613 6438 c-20 -70 -90 -269 -96 -275
-6 -6 -540 -42 -546 -37 -3 3 8 30 23 62 l28 58 296 121 c164 67 300 122 304
122 4 1 0 -23 -9 -51z"/>
<path fill="#ffffff" stroke="none" d="M3609 6306 c101 -65 199 -125 220 -134
20 -9 37 -17 39 -18 2 -1 -27 -47 -63 -103 l-67 -101 -49 44 c-27 24 -71 60
-99 80 l-49 35 -5 -27 c-3 -15 -11 -70 -16 -121 -6 -52 -12 -97 -14 -99 -2 -2
-54 7 -115 20 -90 18 -110 26 -105 38 9 24 50 192 86 358 19 87 37 151 43 148
6 -2 93 -56 194 -120z"/>
<path fill="#ffffff" stroke="none" d="M4652 6188 c30 -134 59 -252 62 -263 7
-19 -2 -22 -104 -43 -62 -13 -113 -22 -115 -20 -2 2 -8 48 -14 102 -18 160
-13 154 -85 98 -33 -26 -77 -61 -97 -79 l-36 -33 -67 101 c-37 56 -66 102 -64
103 2 2 17 8 34 15 17 6 118 68 225 136 107 68 196 124 199 125 3 0 31 -109
62 -242z"/>
<path fill="#ffffff" stroke="none" d="M4121 6118 l117 -182 -92 -98 -91 -98
-25 55 c-13 30 -27 55 -30 55 -3 0 -14 -22 -25 -49 -11 -27 -23 -50 -27 -50
-4 0 -48 41 -97 92 l-89 92 114 175 c63 96 114 178 114 182 0 24 27 -11 131
-174z"/>
<path fill="#ffffff" stroke="none" d="M2404 6248 c3 -24 8 -110 11 -191 4
-113 2 -148 -7 -151 -7 -3 -86 -27 -175 -55 l-163 -52 49 -97 c27 -53 65 -126
85 -161 l37 -64 -93 -86 c-154 -144 -188 -174 -192 -170 -3 2 -88 179 -190
392 -117 247 -180 390 -173 393 52 19 794 282 799 283 4 1 9 -18 12 -41z"/>
<path fill="#ffffff" stroke="none" d="M6025 6141 c215 -76 389 -143 388 -149
-6 -29 -367 -772 -374 -770 -14 5 -269 249 -269 258 0 4 36 77 80 161 44 85
80 155 80 156 0 3 -301 100 -325 104 -18 4 -19 12 -17 134 4 198 11 257 31
250 9 -3 192 -68 406 -144z"/>
<path fill="#ffffff" stroke="none" d="M2945 6213 c129 -27 346 -81 354 -88 2
-3 -6 -42 -18 -87 -12 -46 -21 -93 -21 -106 0 -18 -4 -21 -22 -17 -218 48
-199 52 -178 -37 32 -138 32 -138 7 -138 -12 0 -59 -9 -105 -21 -45 -12 -84
-20 -87 -18 -11 12 -93 362 -119 512 l-7 38 38 -7 c21 -3 92 -17 158 -31z"/>
<path fill="#ffffff" stroke="none" d="M5250 6241 c0 -45 -111 -526 -125 -539
-3 -3 -40 5 -84 16 -43 12 -90 22 -105 22 -23 0 -26 3 -21 23 4 13 14 61 24
105 21 96 26 92 -86 67 -37 -9 -78 -18 -90 -20 -20 -5 -23 -1 -23 22 0 14 -10
62 -21 105 -12 44 -20 81 -17 83 10 11 491 122 536 124 6 1 12 -3 12 -8z"/>
<path fill="#ffffff" stroke="none" d="M870 6116 l175 -11 38 -79 c21 -43 36
-80 35 -81 -7 -5 -519 -78 -522 -74 -3 5 -47 114 -82 207 l-24 63 102 -6 c57
-4 182 -12 278 -19z"/>
<path fill="#ffffff" stroke="none" d="M7510 6137 c0 -7 -101 -262 -105 -266
-4 -3 -516 69 -523 75 -2 1 14 37 36 80 l40 79 233 16 c258 18 319 21 319 16z"/>
<path fill="#ffffff" stroke="none" d="M3623 6023 c71 -55 246 -221 287 -273
l28 -36 -35 -79 c-19 -44 -37 -82 -40 -85 -3 -3 -38 31 -79 75 l-73 80 -1
-112 0 -111 -82 33 c-49 20 -85 40 -89 51 -18 45 -1 504 18 504 3 0 32 -21 66
-47z"/>
<path fill="#ffffff" stroke="none" d="M4459 5970 c16 -142 15 -404 -2 -418
-7 -6 -48 -24 -90 -41 l-78 -30 3 110 c2 60 1 109 -2 109 -3 0 -36 -34 -73
-75 -38 -41 -72 -75 -77 -75 -4 0 -13 12 -18 28 -6 15 -21 52 -35 83 l-26 56
86 92 c75 81 278 261 294 261 3 0 11 -45 18 -100z"/>
<path fill="#ffffff" stroke="none" d="M2814 5816 c23 -87 30 -129 22 -131 -6
-2 -74 -21 -151 -41 -77 -21 -141 -38 -143 -39 -3 -2 135 -243 149 -261 6 -7
4 -15 -3 -21 -28 -21 -229 -135 -232 -132 -35 43 -332 576 -325 583 8 7 201
66 359 109 214 59 284 75 288 67 1 -4 18 -64 36 -134z"/>
<path fill="#ffffff" stroke="none" d="M5522 5881 c139 -38 339 -100 346 -106
10 -9 -288 -545 -324 -584 -5 -6 -234 131 -234 141 0 5 34 68 75 140 42 72 74
132 73 133 -2 1 -57 16 -123 34 -66 18 -134 37 -151 42 l-31 10 22 78 c13 43
28 103 34 133 l12 55 77 -18 c43 -10 144 -36 224 -58z"/>
<path fill="#ffffff" stroke="none" d="M1159 5872 l29 -58 -229 -114 c-144
-73 -232 -111 -238 -105 -15 17 -113 246 -107 252 5 5 452 77 503 82 7 1 26
-25 42 -57z"/>
<path fill="#ffffff" stroke="none" d="M7135 5890 c116 -17 222 -33 237 -36
l26 -5 -57 -127 c-32 -69 -62 -127 -68 -129 -11 -4 -453 213 -453 222 0 2 11
30 25 61 23 52 27 55 52 50 16 -3 123 -19 238 -36z"/>
<path fill="#ffffff" stroke="none" d="M3318 5869 c102 -21 187 -40 188 -42 1
-1 4 -62 6 -135 1 -72 3 -132 3 -132 0 4 -109 39 -112 37 -2 -3 33 -112 37
-112 0 0 -60 2 -132 3 -73 2 -134 5 -135 6 -2 1 -21 86 -42 188 -22 102 -43
197 -47 213 -7 27 -6 28 21 21 16 -4 111 -25 213 -47z"/>
<path fill="#ffffff" stroke="none" d="M4920 5917 c0 -11 -89 -419 -91 -422
-4 -4 -269 -11 -269 -8 0 1 11 27 24 58 14 30 21 55 16 55 -5 0 -32 -9 -60
-20 -28 -11 -52 -20 -53 -20 -1 0 -1 60 1 134 l3 134 72 16 c335 73 357 78
357 73z"/>
<path fill="#ffffff" stroke="none" d="M4066 5672 l60 -139 -50 -57 c-67 -74
-85 -74 -149 -1 -34 38 -47 61 -43 73 24 63 112 262 116 262 4 0 33 -62 66
-138z"/>
<path fill="#ffffff" stroke="none" d="M1210 5760 c12 -29 10 -35 -35 -103
-108 -161 -287 -389 -298 -377 -3 3 -37 69 -76 148 l-72 143 223 109 c123 60
228 109 234 109 6 1 17 -13 24 -29z"/>
<path fill="#ffffff" stroke="none" d="M7048 5680 l223 -109 -72 -143 c-39
-79 -73 -145 -76 -148 -10 -10 -185 212 -297 377 -46 68 -48 74 -36 102 7 17
18 31 24 31 6 0 111 -49 234 -110z"/>
<path fill="#ffffff" stroke="none" d="M3118 5609 c13 -61 22 -113 20 -115 -2
-2 -47 -8 -99 -14 -51 -5 -106 -13 -121 -16 l-27 -5 35 -49 c20 -28 56 -72 80
-99 l44 -49 -101 -67 c-56 -36 -102 -65 -103 -63 -1 2 -9 19 -18 39 -9 20 -71
123 -138 228 -68 106 -121 193 -119 195 2 1 103 24 224 51 121 27 236 54 255
61 19 7 37 13 40 13 3 1 16 -49 28 -110z"/>
<path fill="#ffffff" stroke="none" d="M5105 5669 c88 -22 197 -46 243 -55 58
-12 82 -21 78 -30 -3 -7 -59 -98 -125 -202 -66 -105 -126 -203 -133 -219 -7
-15 -13 -29 -14 -31 -3 -5 -194 122 -194 130 0 3 19 29 43 57 24 27 57 70 75
95 l32 44 -27 6 c-16 3 -71 11 -122 16 -52 6 -96 12 -98 14 -4 3 33 187 43
215 3 8 10 10 22 6 9 -5 89 -25 177 -46z"/>
<path fill="#ffffff" stroke="none" d="M1338 5495 c51 -107 92 -199 92 -204 0
-5 -71 -72 -157 -147 -87 -76 -158 -141 -158 -145 0 -4 73 -71 162 -148 l162
-141 -41 -82 c-22 -46 -67 -139 -99 -207 l-59 -124 -31 48 c-62 97 -276 377
-344 449 -16 18 -67 70 -111 117 l-81 85 45 50 c25 27 71 76 103 109 78 82
256 307 342 433 39 56 74 102 77 102 3 0 47 -88 98 -195z"/>
<path fill="#ffffff" stroke="none" d="M6850 5570 c87 -122 235 -311 285 -364
17 -18 67 -72 113 -120 l83 -88 -98 -101 c-107 -111 -101 -104 -176 -197 -105
-130 -156 -197 -225 -299 l-71 -103 -52 108 c-116 245 -139 296 -139 304 0 4
72 70 160 146 88 76 159 141 158 145 -2 5 -74 69 -161 144 -87 76 -157 143
-155 151 6 29 183 394 190 391 4 -1 43 -54 88 -117z"/>
<path fill="#ffffff" stroke="none" d="M3861 5392 c-47 -19 -92 -39 -99 -44
-7 -6 -14 -9 -16 -7 -3 2 -8 74 -12 159 l-7 155 110 -115 110 -115 -86 -33z"/>
<path fill="#ffffff" stroke="none" d="M4267 5499 c-3 -83 -8 -153 -11 -156
-3 -3 -11 -1 -18 5 -7 5 -50 24 -95 42 -58 23 -80 36 -75 45 8 14 195 213 201
214 2 1 1 -67 -2 -150z"/>
<path fill="#ffffff" stroke="none" d="M3605 5507 l110 -44 3 -72 c5 -95 -8
-111 -87 -111 -96 0 -93 -3 -152 148 -30 75 -55 141 -57 145 -2 4 13 1 35 -8
21 -8 88 -35 148 -58z"/>
<path fill="#ffffff" stroke="none" d="M4523 5433 c-62 -156 -58 -153 -154
-153 -81 0 -93 16 -84 112 l7 73 141 57 c78 31 143 55 144 54 2 -1 -23 -66
-54 -143z"/>
<path fill="#ffffff" stroke="none" d="M6575 5239 c149 -128 270 -236 270
-240 0 -8 -591 -520 -601 -521 -4 0 -43 76 -87 167 -65 138 -76 170 -65 180 7
7 56 47 108 90 52 43 96 81 97 84 1 3 -31 32 -70 64 -40 31 -89 72 -111 90
l-38 32 57 120 c31 66 68 144 82 174 l24 54 32 -30 c18 -17 154 -135 302 -264z"/>
<path fill="#ffffff" stroke="none" d="M1844 5353 l79 -166 -44 -38 c-24 -21
-74 -62 -111 -91 -37 -29 -67 -55 -67 -58 0 -3 50 -45 110 -94 60 -48 109 -92
109 -96 0 -4 -36 -83 -80 -175 l-81 -168 -32 30 c-18 17 -153 135 -302 263
-148 128 -271 236 -272 239 -2 8 590 519 602 520 6 1 46 -74 89 -166z"/>
<path fill="#ffffff" stroke="none" d="M3434 5461 c11 -4 31 -40 51 -89 l33
-82 -111 0 -112 -1 80 -73 c44 -41 78 -76 75 -79 -3 -3 -41 -21 -85 -40 l-79
-35 -36 28 c-82 65 -331 343 -319 355 20 17 462 32 503 16z"/>
<path fill="#ffffff" stroke="none" d="M4963 5458 c59 -6 107 -14 107 -18 0
-15 -164 -202 -253 -287 l-96 -93 -83 36 c-45 19 -85 37 -88 40 -2 3 31 38 75
79 l80 74 -112 1 -111 0 33 82 c20 49 40 85 51 89 30 12 279 10 397 -3z"/>
<path fill="#ffffff" stroke="none" d="M2335 5313 c44 -74 81 -139 83 -143 2
-5 -49 -44 -112 -87 -64 -42 -116 -80 -116 -84 0 -3 48 -39 108 -79 59 -40
111 -76 115 -81 7 -5 -125 -242 -160 -288 -2 -3 -42 33 -91 80 -132 128 -209
196 -315 283 -53 43 -97 82 -97 85 0 4 41 40 92 81 100 81 391 346 396 361 8
20 20 3 97 -128z"/>
<path fill="#ffffff" stroke="none" d="M5839 5368 c133 -128 220 -206 320
-288 50 -41 91 -77 91 -81 0 -4 -43 -42 -96 -85 -102 -83 -184 -157 -323 -289
-46 -44 -85 -75 -87 -70 -2 6 -40 70 -85 144 -44 74 -76 137 -72 141 4 4 56
40 116 79 59 40 107 76 107 80 0 4 -52 43 -115 86 -63 43 -115 80 -115 81 0 1
36 61 80 135 44 73 80 136 80 141 0 18 17 5 99 -74z"/>
<path fill="#ffffff" stroke="none" d="M4135 5325 c52 -22 163 -131 186 -183
25 -57 27 -221 3 -278 -22 -52 -129 -161 -182 -185 -61 -27 -222 -27 -284 0
-52 23 -161 134 -183 186 -23 57 -20 217 6 275 26 57 122 153 179 179 58 26
218 29 275 6z"/>
<path fill="#ffffff" stroke="none" d="M2750 5238 c19 -34 46 -75 59 -91 20
-23 22 -30 10 -37 -73 -44 -168 -106 -168 -110 0 -3 39 -29 87 -59 48 -30 89
-56 91 -58 3 -2 -5 -13 -16 -26 -11 -12 -38 -52 -59 -89 -21 -38 -42 -68 -46
-68 -26 0 -468 283 -468 300 0 14 448 300 470 300 3 0 21 -28 40 -62z"/>
<path fill="#ffffff" stroke="none" d="M5441 5214 c79 -48 186 -116 237 -151
l94 -65 -109 -73 c-123 -82 -358 -225 -370 -225 -5 0 -23 27 -41 60 -19 33
-45 74 -59 90 l-25 30 91 57 c50 32 91 60 90 63 0 3 -39 30 -87 60 l-88 55 53
84 c29 46 53 88 53 93 0 16 20 7 161 -78z"/>
<path fill="#ffffff" stroke="none" d="M3659 5254 c2 -2 -1 -9 -7 -16 -5 -7
-25 -52 -44 -99 l-33 -86 -115 110 -115 110 155 -7 c85 -4 157 -9 159 -12z"/>
<path fill="#ffffff" stroke="none" d="M4540 5161 l-115 -108 -13 36 c-6 20
-16 45 -22 56 -5 11 -17 38 -27 60 -9 22 -19 43 -21 47 -3 7 71 12 228 16 l84
2 -114 -109z"/>
<path fill="#ffffff" stroke="none" d="M3249 5052 c0 -4 -23 -16 -50 -27 -27
-11 -49 -22 -49 -25 0 -3 25 -17 55 -30 l55 -25 -98 -92 -98 -91 -175 114
c-96 62 -178 116 -184 119 -7 3 -7 7 0 10 6 3 89 56 185 119 l175 114 92 -89
c51 -49 92 -93 92 -97z"/>
<path fill="#ffffff" stroke="none" d="M5143 5105 c86 -55 156 -102 156 -105
0 -3 -81 -58 -181 -122 l-182 -116 -97 91 -97 92 54 24 c30 13 54 27 54 31 0
3 -24 16 -54 29 l-54 22 97 94 96 94 26 -17 c14 -9 96 -62 182 -117z"/>
<path fill="#ffffff" stroke="none" d="M3526 5073 c72 -64 72 -83 -2 -149
l-57 -50 -139 60 c-76 33 -138 62 -138 66 0 6 258 119 273 120 5 0 33 -21 63
-47z"/>
<path fill="#ffffff" stroke="none" d="M4645 5076 c55 -24 118 -51 140 -60
l39 -17 -144 -62 -145 -63 -57 51 c-33 28 -58 58 -58 70 0 20 96 125 115 125
6 0 55 -20 110 -44z"/>
<path fill="#ffffff" stroke="none" d="M3423 4878 c15 -5 27 -14 27 -18 0 -5
-35 -40 -77 -79 l-78 -71 112 0 111 0 -29 -77 c-17 -43 -35 -83 -41 -90 -20
-24 -518 -9 -518 16 0 16 180 219 261 294 l92 86 56 -26 c31 -14 68 -29 84
-35z"/>
<path fill="#ffffff" stroke="none" d="M3611 4855 c17 -44 36 -86 42 -93 5 -7
7 -15 4 -18 -3 -3 -74 -8 -159 -11 -94 -3 -149 -2 -143 4 6 5 56 53 113 107
56 54 105 97 107 95 2 -3 18 -40 36 -84z"/>
<path fill="#ffffff" stroke="none" d="M4545 4833 l108 -103 -80 0 c-44 0
-114 3 -156 6 l-75 7 18 41 c29 65 47 109 55 134 4 13 10 22 14 20 5 -2 57
-49 116 -105z"/>
<path fill="#ffffff" stroke="none" d="M4893 4771 c85 -90 182 -209 176 -216
-11 -10 -217 -25 -347 -25 -104 0 -153 4 -164 13 -8 6 -29 47 -46 90 l-31 77
112 0 112 1 -80 75 c-44 41 -75 77 -70 80 6 3 44 20 85 38 l75 33 46 -39 c26
-21 85 -78 132 -127z"/>
<path fill="#ffffff" stroke="none" d="M3017 4701 c-18 -20 -53 -64 -79 -97
-56 -72 -62 -67 98 -85 54 -6 100 -12 102 -14 2 -2 -7 -53 -20 -115 -21 -102
-24 -111 -43 -104 -11 3 -128 31 -260 62 -132 30 -242 56 -244 58 -1 1 51 87
117 191 65 103 129 207 141 230 l21 43 100 -66 100 -67 -33 -36z"/>
<path fill="#ffffff" stroke="none" d="M5181 4817 c14 -29 76 -132 138 -230
63 -98 112 -179 110 -181 -2 -2 -109 -27 -238 -56 -129 -29 -245 -57 -258 -63
-13 -6 -25 -8 -26 -6 -5 6 -47 222 -44 225 1 1 52 8 112 14 61 7 116 15 122
19 9 5 -8 33 -55 90 -92 115 -89 111 -72 121 8 5 51 34 95 64 44 30 82 54 85
54 3 1 17 -23 31 -51z"/>
<path fill="#ffffff" stroke="none" d="M2602 4727 l96 -57 -64 -111 c-35 -61
-71 -123 -79 -138 l-14 -28 142 -38 c78 -21 147 -40 153 -44 7 -4 -2 -51 -24
-138 -35 -132 -35 -133 -61 -126 -178 43 -607 166 -619 178 -8 7 206 393 295
533 32 51 35 53 56 39 12 -7 66 -39 119 -70z"/>
<path fill="#ffffff" stroke="none" d="M5561 4782 c191 -321 315 -549 306
-558 -9 -9 -262 -85 -437 -130 -96 -25 -182 -47 -192 -50 -13 -4 -19 9 -32 63
-8 37 -24 98 -34 135 l-19 67 51 15 c28 8 96 27 151 41 55 15 101 28 103 30 1
1 -31 61 -73 133 -41 72 -75 135 -75 139 0 7 217 141 230 142 3 1 12 -11 21
-27z"/>
<path fill="#ffffff" stroke="none" d="M2019 4728 c31 -28 93 -87 138 -130
l81 -79 -35 -62 c-64 -113 -133 -256 -125 -261 4 -2 81 -27 171 -55 90 -28
165 -52 167 -54 6 -5 -12 -366 -18 -372 -4 -4 -642 217 -790 274 l-26 10 186
390 c103 215 188 391 191 391 2 0 29 -23 60 -52z"/>
<path fill="#ffffff" stroke="none" d="M6230 4396 c100 -212 183 -388 184
-393 1 -10 -805 -296 -812 -288 -5 5 -21 365 -17 373 1 1 75 25 165 53 90 28
168 53 172 55 5 3 -29 78 -74 166 l-83 161 135 128 c74 71 138 129 141 129 3
0 88 -173 189 -384z"/>
<path fill="#ffffff" stroke="none" d="M1050 4515 c53 -71 114 -156 135 -187
35 -53 36 -59 25 -92 -6 -20 -13 -36 -15 -36 -2 0 -107 52 -234 115 l-231 115
61 122 c34 67 68 133 77 146 l16 25 34 -39 c19 -21 78 -97 132 -169z"/>
<path fill="#ffffff" stroke="none" d="M3704 4701 c14 -16 17 -34 14 -92 l-3
-73 -144 -58 c-80 -32 -146 -57 -147 -55 -1 1 23 66 55 144 l56 142 40 4 c95
9 112 7 129 -12z"/>
<path fill="#ffffff" stroke="none" d="M4467 4706 c5 -5 112 -280 110 -283 -2
-1 -67 23 -144 54 l-141 56 -7 74 c-6 64 -4 77 11 95 17 18 26 19 94 13 41 -4
76 -8 77 -9z"/>
<path fill="#ffffff" stroke="none" d="M7198 4575 l72 -145 -230 -115 -230
-115 -16 34 -17 34 82 118 c89 131 247 334 259 334 4 0 40 -65 80 -145z"/>
<path fill="#ffffff" stroke="none" d="M1630 4545 c63 -55 116 -100 117 -100
1 -1 -21 -50 -50 -111 -131 -269 -170 -354 -165 -360 4 -3 111 -43 240 -89
l233 -83 -1 -83 c-1 -132 -15 -279 -25 -279 -6 0 -87 28 -182 61 -95 34 -241
85 -325 115 -326 114 -417 147 -426 155 -6 6 269 599 401 863 l24 48 22 -19
c12 -11 74 -64 137 -118z"/>
<path fill="#ffffff" stroke="none" d="M6593 4557 c79 -168 194 -409 292 -614
l83 -171 -132 -48 c-72 -26 -198 -70 -281 -99 -82 -29 -234 -83 -337 -119
-103 -36 -191 -66 -196 -66 -10 0 -26 178 -26 298 l-1 64 235 84 c129 46 238
85 241 86 3 2 -43 104 -102 228 -59 124 -108 230 -108 237 -1 11 257 242 269
242 3 0 31 -55 63 -122z"/>
<path fill="#ffffff" stroke="none" d="M3795 4637 c22 -10 49 -22 60 -27 11
-6 36 -16 56 -22 l36 -13 -108 -115 -109 -114 0 50 c0 89 13 265 19 261 3 -2
24 -11 46 -20z"/>
<path fill="#ffffff" stroke="none" d="M4269 4446 l1 -98 -109 113 -109 114
37 13 c39 13 53 19 121 49 l45 20 6 -56 c4 -31 7 -100 8 -155z"/>
<path fill="#ffffff" stroke="none" d="M4075 4522 l51 -57 -63 -145 -62 -144
-17 39 c-9 22 -36 85 -60 140 -24 55 -44 104 -44 109 0 19 104 116 125 116 12
0 41 -24 70 -58z"/>
<path fill="#ffffff" stroke="none" d="M3420 4460 c-11 -29 -19 -55 -16 -58 3
-2 24 3 48 13 24 9 48 19 53 21 9 4 9 -255 0 -265 -5 -5 -418 -92 -421 -88 -1
1 17 96 42 211 24 115 44 210 44 212 0 3 261 11 268 8 1 -1 -7 -25 -18 -54z"/>
<path fill="#ffffff" stroke="none" d="M3787 4376 c39 43 74 76 77 74 3 -3 21
-43 40 -88 l36 -83 -93 -96 c-85 -89 -272 -253 -287 -253 -21 0 -40 455 -21
504 4 11 39 31 87 50 l79 32 5 -110 5 -110 72 80z"/>
<path fill="#ffffff" stroke="none" d="M4458 4447 c9 -7 12 -53 12 -171 0
-138 -14 -333 -25 -345 -9 -9 -142 105 -257 220 l-127 127 37 86 c20 47 39 86
43 86 4 0 37 -34 74 -75 37 -41 70 -75 74 -75 3 0 5 49 3 110 l-3 109 78 -31
c43 -17 84 -36 91 -41z"/>
<path fill="#ffffff" stroke="none" d="M4835 4488 c23 -99 84 -402 82 -405 -3
-2 -306 59 -404 82 -22 5 -23 9 -23 140 l0 134 50 -21 c28 -11 53 -18 57 -15
3 4 -4 29 -15 57 l-21 50 134 0 c131 0 135 -1 140 -22z"/>
<path fill="#ffffff" stroke="none" d="M964 4298 l224 -112 -30 -59 c-27 -54
-32 -59 -56 -54 -15 3 -128 20 -252 38 -124 18 -229 36 -233 40 -8 6 7 43 83
212 11 26 25 47 30 47 6 0 111 -50 234 -112z"/>
<path fill="#ffffff" stroke="none" d="M7337 4285 c29 -66 52 -124 49 -130 -2
-5 -109 -25 -237 -44 -129 -19 -244 -38 -255 -42 -19 -7 -25 -1 -48 50 -14 32
-26 62 -26 65 0 10 443 226 454 223 5 -2 34 -57 63 -122z"/>
<path fill="#ffffff" stroke="none" d="M2962 4280 c40 -11 85 -20 100 -20 24
0 28 -3 23 -22 -48 -219 -54 -199 47 -177 44 10 92 20 105 24 20 5 23 2 23
-21 0 -15 10 -62 22 -105 11 -44 18 -82 15 -85 -16 -17 -533 -132 -543 -121
-13 12 112 547 127 547 5 0 42 -9 81 -20z"/>
<path fill="#ffffff" stroke="none" d="M5134 4278 c48 -173 122 -516 113 -525
-10 -10 -528 105 -544 121 -3 2 24 129 43 202 1 8 34 4 103 -11 55 -12 102
-20 104 -18 2 2 -6 49 -18 104 -15 70 -19 102 -11 104 40 10 183 43 192 44 7
1 14 -9 18 -21z"/>
<path fill="#ffffff" stroke="none" d="M4001 4150 c3 0 17 24 30 54 l24 54 92
-97 91 -97 -116 -182 c-64 -100 -119 -181 -122 -181 -3 0 -58 82 -122 182
l-117 182 92 95 92 96 25 -53 c13 -29 27 -53 31 -53z"/>
<path fill="#ffffff" stroke="none" d="M3510 4133 c0 -20 21 -191 26 -216 l6
-27 44 32 c25 18 68 51 95 75 28 24 54 43 57 43 8 0 135 -191 130 -194 -2 -1
-16 -7 -31 -14 -16 -7 -114 -67 -219 -133 -104 -66 -195 -122 -202 -125 -9 -4
-18 20 -30 78 -9 46 -34 157 -56 248 -22 91 -42 171 -43 179 -1 11 25 21 98
37 115 25 125 27 125 17z"/>
<path fill="#ffffff" stroke="none" d="M4620 4114 c96 -19 106 -24 92 -50 -5
-11 -33 -125 -62 -254 -29 -129 -54 -237 -56 -239 -2 -2 -81 46 -176 106 -137
87 -259 159 -286 169 -2 1 114 182 125 194 5 5 7 3 114 -82 57 -47 85 -64 90
-55 4 6 13 63 19 125 12 108 14 113 34 109 11 -3 59 -13 106 -23z"/>
<path fill="#ffffff" stroke="none" d="M855 4094 c138 -20 253 -40 257 -43 9
-8 -58 -150 -74 -155 -19 -6 -538 -39 -543 -35 -5 5 98 269 105 269 3 0 118
-16 255 -36z"/>
<path fill="#ffffff" stroke="none" d="M7457 3998 c29 -72 51 -133 49 -136 -5
-4 -524 27 -542 33 -10 3 -71 121 -77 150 -2 8 430 81 498 84 17 1 29 -22 72
-131z"/>
<path fill="#ffffff" stroke="none" d="M2608 4041 c84 -22 155 -41 157 -43 1
-1 -9 -63 -22 -136 -14 -73 -23 -136 -19 -139 3 -4 61 4 129 16 67 13 128 24
135 25 9 1 26 -49 53 -154 21 -85 39 -158 39 -161 0 -3 -87 -9 -192 -12 -106
-4 -242 -11 -303 -17 -194 -18 -180 -18 -178 10 2 14 8 72 14 130 12 122 14
161 17 368 1 83 5 152 10 152 4 0 76 -18 160 -39z"/>
<path fill="#ffffff" stroke="none" d="M5564 3878 c4 -112 13 -264 20 -338 7
-74 12 -135 12 -136 -1 0 -62 5 -136 12 -74 7 -226 16 -337 20 -112 4 -203 10
-203 13 1 12 78 313 82 316 1 2 55 -7 118 -20 63 -13 127 -24 141 -25 l26 0
-28 138 c-15 75 -26 139 -24 141 4 4 294 79 311 80 7 1 13 -65 18 -201z"/>
<path fill="#ffffff" stroke="none" d="M1005 3808 l-25 -55 -298 -122 c-164
-66 -301 -121 -304 -121 -4 0 18 74 49 165 52 157 56 165 81 166 15 0 137 8
272 17 135 10 246 14 248 11 1 -3 -9 -30 -23 -61z"/>
<path fill="#ffffff" stroke="none" d="M7279 3855 c129 -9 237 -17 239 -20 8
-8 112 -319 108 -323 -3 -2 -139 51 -304 118 l-299 123 -27 54 c-14 29 -26 57
-26 61 0 4 17 6 38 5 20 -2 143 -10 271 -18z"/>
<path fill="#ffffff" stroke="none" d="M3355 3690 c21 -80 39 -146 40 -148 1
-1 61 31 133 73 72 41 135 75 140 75 10 0 147 -229 141 -234 -39 -36 -575
-333 -584 -324 -9 8 -102 323 -140 473 l-43 170 26 7 c15 4 74 20 132 36 58
16 108 26 111 23 3 -3 23 -71 44 -151z"/>
<path fill="#ffffff" stroke="none" d="M4893 3794 c54 -13 67 -19 63 -32 -3
-10 -25 -96 -50 -192 -42 -165 -120 -428 -130 -437 -10 -10 -510 266 -584 323
-6 4 133 234 141 234 4 0 67 -34 139 -75 72 -42 132 -74 133 -73 1 2 19 64 39
138 21 74 39 142 42 151 4 15 11 14 72 -3 37 -10 98 -26 135 -34z"/>
<path fill="#ffffff" stroke="none" d="M4000 3651 c3 -1 31 40 63 90 l57 91
30 -25 c16 -14 57 -40 90 -59 33 -18 60 -36 60 -41 0 -12 -143 -247 -225 -370
l-73 -109 -65 94 c-64 92 -237 374 -237 387 0 3 20 16 44 29 24 13 65 38 92
56 l48 33 56 -88 c30 -49 57 -88 60 -88z"/>
<path fill="#ffffff" stroke="none" d="M2230 3723 c85 -30 159 -58 163 -62 4
-4 1 -70 -6 -147 -8 -76 -13 -140 -13 -140 1 -1 64 4 141 12 77 7 143 10 147
6 8 -9 128 -345 125 -349 -5 -4 -791 -61 -797 -58 -3 2 7 171 22 377 15 205
27 386 27 402 1 23 4 27 19 21 9 -4 87 -32 172 -62z"/>
<path fill="#ffffff" stroke="none" d="M5989 3375 c16 -215 28 -391 28 -391
-3 -3 -801 57 -804 59 -3 4 118 341 126 349 3 4 69 1 146 -6 77 -8 141 -13
141 -12 1 0 -4 64 -12 141 -7 77 -10 143 -6 147 4 3 84 33 177 66 113 40 171
56 173 48 1 -6 16 -187 31 -401z"/>
<path fill="#ffffff" stroke="none" d="M1069 3713 l41 -18 -132 -115 c-73 -63
-167 -145 -209 -182 l-76 -67 -159 78 c-149 73 -157 79 -134 90 14 6 147 63
295 126 289 122 295 124 374 88z"/>
<path fill="#ffffff" stroke="none" d="M7292 3629 c144 -61 279 -117 298 -126
l35 -15 -158 -79 -158 -79 -202 176 c-111 98 -206 180 -210 184 -8 7 87 48
115 49 9 1 135 -49 280 -110z"/>
<path fill="#ffffff" stroke="none" d="M1213 3663 c51 -18 76 -31 73 -39 -4
-12 -276 -385 -297 -408 -5 -6 -63 14 -144 49 l-136 59 43 37 c24 20 117 102
208 182 91 80 167 146 170 147 3 0 40 -12 83 -27z"/>
<path fill="#ffffff" stroke="none" d="M7085 3505 l206 -180 -58 -27 c-89 -41
-213 -91 -217 -87 -25 31 -299 405 -302 413 -4 11 130 67 153 63 6 -1 104 -83
218 -182z"/>
<path fill="#ffffff" stroke="none" d="M1429 3572 c0 -10 -35 -118 -78 -242
-72 -206 -80 -225 -100 -222 -39 4 -246 90 -244 100 1 6 71 102 154 215 l152
205 58 -20 c41 -14 59 -25 58 -36z"/>
<path fill="#ffffff" stroke="none" d="M6849 3411 c83 -112 148 -207 146 -211
-9 -14 -257 -102 -264 -94 -9 10 -161 454 -161 470 0 12 112 54 122 45 4 -3
74 -98 157 -210z"/>
<path fill="#ffffff" stroke="none" d="M1530 3506 c35 -161 80 -516 66 -516
-15 0 -292 93 -300 100 -5 5 27 112 74 248 l82 240 33 -11 c30 -9 35 -16 45
-61z"/>
<path fill="#ffffff" stroke="none" d="M6641 3312 c39 -118 67 -217 63 -222
-9 -8 -282 -100 -298 -100 -15 0 13 230 55 456 20 110 21 112 52 121 40 12 34
23 128 -255z"/>
<path fill="#ffffff" stroke="none" d="M1770 3466 l205 -72 3 -45 c1 -24 -4
-122 -11 -217 -7 -96 -10 -175 -7 -176 3 -2 96 3 207 11 112 9 209 13 216 10
10 -4 157 -396 157 -419 0 -2 -56 6 -123 18 -181 34 -469 64 -604 64 -173 0
-160 -10 -167 128 -14 275 -43 536 -80 710 -7 34 -10 62 -7 62 3 -1 98 -34
211 -74z"/>
<path fill="#ffffff" stroke="none" d="M6424 3418 c-32 -170 -63 -476 -66
-638 l-3 -135 -135 -3 c-162 -3 -468 -34 -637 -66 -68 -12 -123 -21 -123 -19
0 11 144 410 151 417 5 5 96 3 221 -6 117 -9 214 -15 215 -14 0 0 -5 87 -13
191 -8 105 -13 203 -12 219 3 28 8 31 208 102 113 40 208 73 211 74 3 0 -5
-55 -17 -122z"/>
<path fill="#ffffff" stroke="none" d="M3127 3300 c35 -117 70 -220 76 -226 2
-2 72 32 156 76 84 44 157 80 161 80 9 0 253 -255 258 -269 2 -7 -742 -368
-771 -374 -10 -2 -300 803 -292 811 4 5 329 20 363 18 9 -1 27 -46 49 -116z"/>
<path fill="#ffffff" stroke="none" d="M3915 3305 c43 -63 82 -115 86 -115 4
0 40 48 80 108 39 59 75 111 79 115 4 4 67 -28 141 -72 74 -45 139 -83 144
-85 6 -2 -26 -41 -70 -87 -132 -139 -206 -221 -289 -323 -43 -53 -81 -96 -85
-96 -4 0 -40 41 -81 91 -80 99 -155 182 -290 323 -47 49 -80 90 -74 93 6 2 69
39 140 82 71 44 132 79 135 80 3 1 41 -51 84 -114z"/>
<path fill="#ffffff" stroke="none" d="M5228 3404 c34 -3 62 -9 62 -12 -2 -16
-286 -804 -291 -805 -9 -3 -779 365 -779 372 0 3 58 67 129 141 l128 135 161
-83 c88 -45 162 -79 165 -75 6 10 49 145 81 253 l26 85 127 -3 c71 -1 156 -5
191 -8z"/>
<path fill="#ffffff" stroke="none" d="M2888 2768 c47 -131 88 -238 93 -238 4
0 108 47 229 105 122 58 226 105 231 105 9 0 239 -260 239 -270 0 -3 -62 -34
-138 -70 -75 -35 -222 -105 -327 -155 -104 -50 -245 -118 -313 -150 -72 -35
-126 -55 -131 -49 -4 5 -45 115 -90 244 -46 129 -119 337 -163 463 -45 125
-79 229 -77 231 6 6 248 24 308 22 l55 -1 84 -237z"/>
<path fill="#ffffff" stroke="none" d="M5468 2994 c50 -4 92 -11 92 -16 0 -5
-30 -93 -66 -196 -37 -103 -77 -218 -91 -257 -87 -251 -167 -471 -174 -479 -5
-6 -64 17 -146 57 -207 99 -440 210 -608 290 -82 39 -152 72 -154 74 -6 4 229
273 239 273 8 0 367 -167 441 -206 l26 -13 78 222 c43 122 82 233 87 246 10
26 -21 26 276 5z"/>
<path fill="#ffffff" stroke="none" d="M3906 2811 c49 -60 92 -109 95 -108 3
1 41 45 84 97 43 52 83 101 90 108 10 11 42 0 178 -65 91 -43 166 -82 167 -86
2 -10 -509 -602 -520 -602 -10 0 -521 593 -519 602 2 7 315 161 330 162 4 1
47 -48 95 -108z"/>
<path fill="#ffffff" stroke="none" d="M2240 2574 c58 -8 153 -24 211 -35 101
-20 106 -22 117 -52 7 -17 8 -34 4 -38 -17 -16 -475 -160 -482 -153 -7 8 -100
287 -100 301 0 7 113 -4 250 -23z"/>
<path fill="#ffffff" stroke="none" d="M6010 2593 c0 -15 -93 -288 -100 -297
-8 -7 -201 52 -407 126 l-81 29 10 30 c13 39 24 42 210 73 245 41 368 54 368
39z"/>
<path fill="#ffffff" stroke="none" d="M2609 2368 c12 -35 17 -64 12 -66 -5
-2 -100 -71 -211 -153 -112 -83 -206 -147 -210 -142 -14 15 -101 255 -95 262
9 8 446 158 467 160 11 1 22 -17 37 -61z"/>
<path fill="#ffffff" stroke="none" d="M3855 2273 c75 -87 139 -159 144 -161
4 -1 69 70 145 158 76 88 142 160 146 160 5 0 58 -23 117 -51 59 -28 150 -71
202 -95 l94 -45 -104 -71 c-102 -69 -169 -120 -299 -225 -93 -75 -86 -69 -197
-176 l-102 -99 -87 84 c-48 45 -102 97 -120 113 -53 50 -242 198 -364 285 -63
45 -116 84 -117 88 -3 8 374 190 394 191 7 1 73 -70 148 -156z"/>
<path fill="#ffffff" stroke="none" d="M5660 2353 c124 -42 229 -80 234 -84 8
-7 -80 -255 -94 -264 -4 -2 -102 66 -218 151 l-211 155 22 60 c11 32 26 59 31
59 6 0 112 -34 236 -77z"/>
<path fill="#ffffff" stroke="none" d="M2665 2209 c27 -80 27 -81 8 -102 -11
-12 -84 -96 -163 -187 -79 -91 -153 -175 -165 -188 l-21 -23 -59 136 c-57 131
-58 136 -39 149 10 8 105 77 209 155 105 77 193 141 197 141 3 0 18 -36 33
-81z"/>
<path fill="#ffffff" stroke="none" d="M5586 2134 c109 -81 201 -148 203 -150
4 -4 -46 -128 -87 -217 l-27 -58 -120 138 c-66 76 -149 170 -184 210 l-63 73
28 80 c17 46 34 78 40 76 6 -2 101 -71 210 -152z"/>
<path fill="#ffffff" stroke="none" d="M3398 2136 c128 -90 322 -243 322 -254
0 -4 -65 -40 -145 -80 l-146 -72 -113 230 -113 231 26 14 c14 8 34 13 43 11 9
-2 66 -38 126 -80z"/>
<path fill="#ffffff" stroke="none" d="M4770 2205 l30 -15 -115 -230 -115
-230 -145 72 c-80 40 -145 76 -145 80 0 18 427 336 453 338 4 0 21 -7 37 -15z"/>
<path fill="#ffffff" stroke="none" d="M3301 1959 c60 -122 108 -226 106 -233
-6 -15 -245 -121 -254 -113 -3 4 -21 103 -38 220 -18 116 -35 231 -39 255 l-8
42 54 25 c29 13 56 24 60 24 5 1 58 -99 119 -220z"/>
<path fill="#ffffff" stroke="none" d="M4880 2154 c55 -25 58 -27 50 -52 -5
-15 -23 -128 -41 -252 -18 -124 -36 -229 -40 -234 -7 -8 -232 84 -253 104 -8
8 207 460 220 460 3 0 33 -12 64 -26z"/>
<path fill="#ffffff" stroke="none" d="M3088 1903 c17 -120 35 -239 38 -264
l6 -45 -133 -52 c-73 -29 -134 -50 -136 -48 -2 2 4 126 14 275 l17 273 76 38
c41 22 77 39 80 40 3 0 20 -98 38 -217z"/>
<path fill="#ffffff" stroke="none" d="M5101 2043 c7 -9 43 -542 37 -549 -4
-3 -254 93 -266 102 -4 3 66 489 73 511 3 9 26 2 76 -22 40 -19 76 -38 80 -42z"/>
<path fill="#ffffff" stroke="none" d="M2725 2040 l18 -61 -40 -97 c-22 -53
-78 -188 -124 -299 -46 -112 -86 -203 -89 -203 -8 0 -150 293 -150 309 0 14
352 419 361 415 3 -2 14 -30 24 -64z"/>
<path fill="#ffffff" stroke="none" d="M5494 1893 l176 -202 -79 -158 -79
-158 -15 35 c-97 227 -237 566 -237 576 0 24 43 125 50 117 4 -4 86 -99 184
-210z"/>
<path fill="#ffffff" stroke="none" d="M2874 1973 c-3 -32 -11 -154 -19 -272
-8 -117 -17 -216 -20 -219 -8 -8 -318 -112 -322 -108 -2 2 51 138 118 304
l123 300 50 25 c73 37 75 36 70 -30z"/>
<path fill="#ffffff" stroke="none" d="M5193 2004 l54 -27 123 -299 c67 -165
120 -301 118 -303 -4 -4 -315 99 -323 107 -2 2 -11 110 -20 239 -8 128 -16
251 -18 272 -1 20 1 37 5 37 4 0 32 -12 61 -26z"/>
<path fill="#000000" stroke="none" d="M3925 5242 c-95 -36 -121 -59 -155
-136 -33 -77 -35 -122 -10 -189 28 -73 60 -112 121 -143 107 -54 217 -37 299
46 83 82 100 192 46 297 -30 59 -58 86 -118 113 -68 30 -124 34 -183 12z"/>
<path fill="#ffffff" stroke="none" d="M4071 5209 c43 -14 117 -84 135 -126
18 -41 18 -124 1 -166 -18 -41 -83 -106 -124 -124 -39 -16 -121 -17 -160 -2
-38 14 -111 87 -129 128 -17 40 -18 100 -3 152 13 43 89 122 134 137 41 14
105 14 146 1z"/>
<path fill="#000000" stroke="none" d="M3954 5111 c-40 -17 -74 -70 -74 -113
0 -34 7 -47 39 -79 33 -34 45 -39 83 -39 38 0 49 5 81 38 31 32 37 45 37 80 0
80 -94 144 -166 113z"/>
<path fill="#ffffff" stroke="none" d="M4054 5059 c57 -45 21 -139 -55 -139
-71 0 -105 85 -54 135 30 31 73 32 109 4z"/>
</g>
</svg>
