<svg version="1.1" xmlns="http://www.w3.org/2000/svg" xmlns:xlink="http://www.w3.org/1999/xlink" width="701.81818" height="647.99713"><defs><clipPath id="clip-1"><rect x="20.76438" y="0" transform="scale(1.29599,1.29599)" width="500" height="500" id="clip-1" fill="none"/></clipPath></defs><g fill="none" fill-rule="nonzero" stroke="none" stroke-width="1" stroke-linecap="butt" stroke-linejoin="miter" stroke-miterlimit="10" stroke-dasharray="" stroke-dashoffset="0" font-family="none" font-weight="none" font-size="none" text-anchor="none" style="mix-blend-mode: normal"><g><g><g><g><g><g><g><g><g><g><g><g><g><g><g clip-path="url(#clip-1)"><g><path d="M258.89607,30.45594c-7.38719,15.29278 -19.43997,47.82235 -19.43997,52.74714c0,1.29599 -0.2592,2.3328 -0.64801,2.3328c-0.3888,0 -7.51679,-2.3328 -15.81118,-5.18399c-10.88639,-3.75839 -15.42238,-4.7952 -16.07038,-3.75839c-0.5184,0.9072 -1.55519,5.05439 -2.3328,9.46079c-4.2768,22.55038 -4.01759,21.77277 -6.99839,20.99518c-4.4064,-1.29599 -32.01117,-6.99839 -37.84315,-7.776c-2.8512,-0.3888 -12.05279,-1.16639 -20.34718,-1.55519c-12.70079,-0.7776 -15.29278,-0.64801 -15.42238,0.9072c-0.7776,12.83039 2.8512,43.67515 7.25759,61.68953c1.68479,6.99839 2.7216,13.08958 2.4624,13.60798c-0.3888,0.64801 -2.2032,1.0368 -4.14719,1.0368c-4.14719,0.1296 -26.04957,4.536 -26.95677,5.5728c-0.5184,0.5184 5.4432,19.82877 9.33119,29.93757c0.3888,1.16639 -2.592,2.4624 -10.1088,4.536c-19.95838,5.5728 -60.65273,23.45758 -60.65273,26.69757c0,4.01759 24.62397,36.80636 38.75036,51.58074l8.42399,8.81279l-6.35039,5.4432c-3.62879,2.9808 -9.07199,7.9056 -12.31199,10.88639l-5.83199,5.5728l6.47999,6.22079c3.62879,3.3696 9.07199,8.29439 12.18239,10.88639l5.70239,4.7952l-9.46079,10.1088c-13.21918,14.12639 -37.58395,47.04474 -37.58395,50.67354c0,3.88799 60.00473,28.77117 69.33592,28.77117c1.0368,0 1.944,0.2592 1.944,0.64801c0,0.3888 -2.3328,7.51679 -5.18399,15.81118c-3.88799,11.01598 -4.7952,15.42238 -3.62879,16.07038c0.7776,0.5184 7.9056,2.2032 15.68158,3.62879c7.776,1.42559 14.38559,2.8512 14.64479,3.1104c0.2592,0.2592 -0.64801,5.31359 -2.0736,11.01598c-4.536,18.27358 -10.1088,64.54073 -7.776,65.57753c0.3888,0.2592 7.64639,-0.1296 16.19999,-0.64801c17.88478,-1.29599 36.02876,-4.01759 49.63674,-7.776c5.18399,-1.29599 10.1088,-2.2032 10.75679,-1.81439c0.64801,0.5184 1.16639,2.3328 1.16639,4.2768c0.1296,4.14719 4.536,26.04957 5.5728,26.95677c0.5184,0.5184 19.82877,-5.4432 29.93757,-9.33119c1.16639,-0.3888 2.4624,2.592 4.536,10.1088c5.31359,19.18078 23.32797,60.65273 26.43837,60.65273c4.14719,0 37.45435,-25.01277 51.83994,-38.75036l8.81279,-8.42399l5.4432,6.35039c2.9808,3.62879 7.9056,9.07199 10.88639,12.31199l5.5728,5.83199l6.22079,-6.47999c3.3696,-3.62879 8.29439,-9.07199 10.88639,-12.18239l4.7952,-5.70239l8.68319,8.16479c15.55198,14.51519 48.34075,38.87995 52.35835,38.87995c3.49919,0 28.38237,-60.39353 28.51197,-69.07671c0,-1.16639 0.2592,-2.2032 0.64801,-2.2032c0.3888,0 7.51679,2.3328 15.81118,5.18399c10.23838,3.62879 15.42238,4.7952 15.94078,3.75839c0.5184,-0.7776 1.944,-6.99839 3.24,-13.86719c3.1104,-17.75518 2.9808,-17.49598 6.22079,-16.45919c15.55198,4.6656 49.63674,9.71999 65.44792,9.71999h8.81279l-0.3888,-8.81279c-0.7776,-15.55198 -4.4064,-41.34235 -7.51679,-54.30234c-1.68479,-6.99839 -2.7216,-13.08958 -2.2032,-13.47838c0.5184,-0.3888 7.12799,-1.81439 14.64479,-3.1104c7.64639,-1.16639 14.51519,-2.7216 15.42238,-3.24c1.29599,-0.7776 -2.592,-14.64479 -8.55359,-30.32637c-0.3888,-1.16639 2.592,-2.4624 10.1088,-4.536c19.95838,-5.5728 60.65273,-23.45758 60.65273,-26.69757c0,-4.01759 -24.62397,-36.80636 -38.75036,-51.58074l-8.42399,-8.81279l6.35039,-5.4432c3.62879,-2.9808 9.07199,-7.9056 12.31199,-10.88639l5.83199,-5.5728l-7.12799,-6.86879c-3.88799,-3.75839 -9.46079,-8.68319 -12.18239,-10.88639l-5.05439,-4.14719l9.46079,-10.1088c13.47838,-14.38559 37.58395,-47.04474 37.58395,-50.80314c0,-3.1104 -39.91675,-20.47678 -60.26393,-26.17917c-5.70239,-1.68479 -10.49759,-3.1104 -10.75679,-3.24c-0.2592,-0.1296 1.944,-7.12799 4.9248,-15.42238c2.8512,-8.42399 4.9248,-15.55198 4.6656,-15.81118c-0.9072,-0.9072 -21.90237,-5.4432 -25.40157,-5.5728c-6.47999,-0.1296 -6.86879,-1.29599 -4.01759,-12.44158c2.3328,-9.20159 3.49919,-15.55198 5.96159,-30.32637c0.3888,-2.4624 1.0368,-11.53439 1.55519,-20.21758l0.7776,-15.55198l-8.94239,0.3888c-15.81118,0.7776 -41.47196,4.2768 -54.56154,7.51679c-6.99839,1.68479 -12.83039,2.8512 -13.08958,2.592c-0.2592,-0.2592 -1.81439,-7.12799 -3.3696,-15.42238c-1.68479,-8.29439 -3.24,-15.42238 -3.75839,-15.81118c-0.5184,-0.5184 -19.43997,5.31359 -29.93757,9.33119c-1.29599,0.5184 -2.2032,-1.29599 -3.3696,-6.22079c-4.2768,-18.14398 -24.23517,-64.54073 -27.86397,-64.54073c-1.944,0 -26.95677,17.36637 -36.93596,25.66077c-3.88799,3.24 -10.75679,9.46079 -15.29278,13.73758l-8.03519,7.9056l-5.5728,-6.47999c-2.9808,-3.62879 -7.9056,-9.07199 -10.88639,-12.31199l-5.5728,-5.83199l-6.86879,7.12799c-3.75839,3.88799 -8.68319,9.46079 -10.88639,12.18239l-4.14719,5.05439l-10.1088,-9.46079c-14.51519,-13.47838 -47.04474,-37.58395 -50.93273,-37.58395c-0.64801,0 -4.7952,7.25759 -9.07199,16.19999z" fill="#000000"/><path d="M289.87043,37.97275c6.7392,4.9248 17.10717,13.73758 23.19837,19.56957l10.88639,10.49759l-6.60959,9.59039c-3.49919,5.18399 -6.7392,10.1088 -6.86879,10.75679c-0.2592,0.7776 -4.01759,-2.0736 -8.16479,-6.09119c-4.2768,-4.14719 -10.62719,-9.84959 -14.25599,-12.70079l-6.47999,-5.05439l-2.8512,6.22079c-1.55519,3.49919 -4.2768,11.27518 -5.96159,17.36637c-1.81439,6.09119 -3.75839,11.01598 -4.2768,11.01598c-0.64801,0 -5.96159,-2.3328 -11.79359,-5.05439c-9.97919,-4.6656 -10.62719,-5.31359 -9.97919,-8.42399c2.2032,-9.59039 11.53439,-35.25115 17.23677,-47.43354l6.47999,-13.73758l3.62879,2.3328c1.944,1.16639 9.07199,6.22079 15.81118,11.14558z" fill="#ffffff"/><path d="M434.37427,30.84475c5.83199,11.53439 13.73758,31.62236 17.62558,44.84154c2.0736,7.12799 3.62879,13.08958 3.49919,13.21918c-0.1296,0.1296 -5.4432,2.592 -11.66399,5.4432c-7.776,3.62879 -11.53439,4.7952 -11.92319,3.75839c-0.2592,-0.9072 -1.55519,-5.05439 -2.7216,-9.33119c-2.4624,-8.94239 -8.29439,-23.97597 -9.20159,-23.97597c-1.0368,0 -20.08798,16.19999 -24.23517,20.60638l-3.75839,3.88799l-6.86879,-10.49759c-5.83199,-8.81279 -6.60959,-10.75679 -5.31359,-12.70079c1.944,-2.592 16.19999,-15.68158 24.88317,-22.80957c5.4432,-4.536 25.27197,-18.53278 26.17917,-18.66238c0.2592,0 1.81439,2.8512 3.49919,6.22079z" fill="#ffffff"/><path d="M358.42876,56.63511c37.97276,44.19355 55.72793,90.59029 50.93273,133.09905c-1.68479,14.51519 -3.49919,22.03197 -8.94239,36.41756l-3.3696,9.07199l-1.16639,-5.05439c-0.7776,-2.9808 -3.3696,-7.25759 -6.60959,-10.49759l-5.31359,-5.5728l3.1104,-8.94239c2.592,-7.38719 3.24,-11.27518 3.24,-23.71678c0,-16.71839 -1.55519,-23.97597 -9.71999,-44.71195c-6.86879,-17.62558 -26.43837,-50.93273 -29.93757,-51.19194c-1.81439,0 -18.01438,25.91998 -24.23517,38.87995c-15.81118,33.30716 -19.31037,58.06073 -11.53439,81.25911l2.9808,8.81279l-4.9248,4.4064c-3.1104,2.7216 -5.4432,6.47999 -6.47999,10.23838l-1.68479,5.83199l-2.7216,-6.35039c-7.51679,-18.01438 -9.97919,-30.97436 -9.97919,-53.65434c0,-16.19999 0.5184,-20.60638 3.49919,-32.14077c5.70239,-21.64317 13.60798,-38.62076 27.86397,-60.00473c9.33119,-13.86719 25.40157,-33.56636 27.34557,-33.56636c0.64801,0 4.01759,3.3696 7.64639,7.38719z" fill="#ffffff"/><path d="M295.83203,87.09108l9.71999,9.46079l-4.4064,8.55359c-2.3328,4.7952 -4.6656,9.46079 -4.9248,10.36799c-0.5184,1.29599 -3.24,0.1296 -9.97919,-4.536c-8.94239,-6.09119 -9.46079,-6.60959 -8.68319,-10.36799c1.68479,-8.29439 6.35039,-22.80957 7.51679,-22.80957c0.5184,0 5.4432,4.2768 10.75679,9.33119z" fill="#ee82ee"/><path d="M422.06229,92.66387c1.42559,5.96159 2.7216,11.14558 2.7216,11.40479c0,0.7776 -18.27358,12.95998 -18.66238,12.44158c-0.2592,-0.2592 -2.592,-4.7952 -5.31359,-10.1088l-4.7952,-9.71999l9.97919,-9.71999c11.79359,-11.53439 11.79359,-11.53439 16.07038,5.70239z" fill="#ee82ee"/><path d="M235.56809,93.44148c25.79038,10.1088 57.80153,29.28956 56.24634,33.56636c-0.3888,1.0368 -1.944,6.47999 -3.3696,11.92319l-2.7216,9.97919l-4.9248,-3.75839c-11.40479,-9.07199 -36.28796,-23.32797 -46.13755,-26.43837c-2.4624,-0.7776 -3.1104,-0.2592 -3.88799,2.7216c-1.29599,4.6656 -1.29599,46.00795 0,53.39513c0.9072,5.4432 0.9072,5.5728 -1.944,4.7952c-1.68479,-0.3888 -6.99839,-1.944 -12.05279,-3.24l-9.07199,-2.3328l-1.0368,-8.29439c-1.55519,-12.57118 0,-46.52635 2.9808,-63.76313c1.42559,-8.42399 2.592,-15.68158 2.592,-16.07038c0,-1.16639 6.7392,0.9072 23.32797,7.51679z" fill="#ffffff"/><path d="M491.2686,97.45907c3.49919,19.82877 5.18399,42.24955 4.2768,57.41274c-1.0368,20.08798 -0.5184,19.05118 -12.18239,21.90237c-5.4432,1.16639 -10.75679,2.592 -11.79359,2.9808c-1.42559,0.64801 -1.68479,-0.3888 -0.9072,-5.5728c2.4624,-18.27358 1.944,-52.87674 -1.0368,-55.85753c-1.944,-2.0736 -30.84476,13.34878 -45.35995,24.23517c-5.31359,4.01759 -8.81279,5.83199 -9.07199,4.7952c-0.2592,-0.7776 -1.42559,-5.31359 -2.7216,-9.97919c-1.29599,-4.6656 -2.4624,-9.33119 -2.8512,-10.49759c-0.7776,-2.8512 20.08798,-16.84798 38.49116,-25.66077c12.57118,-6.09119 36.28796,-15.42238 39.65755,-15.68158c0.7776,0 2.3328,5.4432 3.49919,11.92319z" fill="#ffffff"/><path d="M357.00316,107.30866c7.38719,11.53439 18.01438,34.73276 21.90237,47.56315c4.7952,16.32959 5.05439,36.28796 0.3888,48.47035c-2.9808,7.9056 -3.3696,8.29439 -9.84959,10.75679c-4.6656,1.68479 -8.55359,4.4064 -12.57118,8.94239l-5.83199,6.47999l-6.86879,-7.12799c-5.18399,-5.31359 -8.42399,-7.51679 -12.95998,-8.68319c-5.96159,-1.68479 -6.09119,-1.81439 -8.81279,-10.1088c-5.70239,-17.23677 -4.4064,-38.23196 3.49919,-58.44954c7.64639,-19.31037 23.06877,-47.17434 25.27197,-45.87835c0.64801,0.3888 3.24,4.01759 5.83199,8.03519z" fill="#008000"/><path d="M169.86098,108.99346c8.03519,1.42559 17.88478,3.49919 22.03197,4.6656l7.64639,2.0736l-0.9072,12.44158c-0.5184,6.86879 -1.0368,12.57118 -1.29599,12.83039c-0.1296,0.1296 -6.35039,-1.16639 -13.73758,-2.9808c-7.38719,-1.81439 -15.55198,-3.24 -18.14398,-3.24h-4.6656l1.16639,7.38719c0.64801,4.14719 2.2032,12.18239 3.62879,17.75518c1.42559,5.70239 2.4624,10.49759 2.2032,10.62719c-0.2592,0.2592 -5.96159,0.7776 -12.83039,1.29599l-12.44158,0.9072l-1.42559,-5.05439c-4.7952,-18.01438 -9.20159,-45.74875 -9.20159,-58.06073v-5.05439l11.66399,0.9072c6.47999,0.5184 18.27358,2.0736 26.30877,3.49919z" fill="#ffffff"/><path d="M569.28772,116.89905c-1.0368,13.60798 -4.9248,36.80636 -8.03519,48.08155l-2.0736,7.64639l-12.44158,-0.9072c-6.86879,-0.5184 -12.57118,-1.16639 -12.83039,-1.29599c-0.2592,-0.1296 0.7776,-4.9248 2.2032,-10.62719c1.42559,-5.5728 2.9808,-13.60798 3.49919,-17.75518l0.9072,-7.64639l-8.29439,0.9072c-4.536,0.3888 -12.70079,1.944 -18.01438,3.3696c-5.31359,1.29599 -9.71999,2.3328 -9.97919,2.0736c-0.1296,-0.1296 -0.7776,-5.96159 -1.16639,-12.70079l-0.9072,-12.57118l5.05439,-1.29599c18.14398,-4.7952 42.76795,-8.81279 56.11674,-9.07199l6.99839,-0.1296z" fill="#ffffff"/><path d="M264.85766,143.72622c6.35039,4.2768 13.21918,9.20159 15.29278,10.75679l3.62879,3.1104l0.3888,19.95838c0.2592,14.77438 1.0368,22.80957 2.8512,30.06717l2.592,9.97919l-8.55359,-7.51679c-10.62719,-9.33119 -22.93917,-17.75518 -33.30716,-22.67998l-7.9056,-3.62879l-1.29599,-11.27518c-1.55519,-13.47838 -2.2032,-38.87995 -1.0368,-41.99035c0.7776,-1.944 1.68479,-1.68479 8.29439,1.68479c4.14719,1.944 12.70079,7.25759 19.05118,11.53439z" fill="#0000ff"/><path d="M464.70063,145.79981c-0.1296,12.44158 -1.55519,29.54877 -2.8512,34.99196c-0.3888,1.55519 -3.24,3.88799 -6.86879,5.70239c-10.36799,5.05439 -26.43837,16.07038 -35.25115,24.23517c-4.7952,4.2768 -7.9056,6.47999 -7.38719,5.05439c2.8512,-7.64639 5.05439,-23.84637 5.18399,-40.17595l0.2592,-18.14398l11.27518,-8.55359c6.09119,-4.6656 16.32959,-11.14558 22.55038,-14.51519c13.60798,-7.12799 13.34878,-7.38719 13.08958,11.40479z" fill="#0000ff"/><path d="M528.46376,158.2414c-1.55519,6.35039 -3.24,11.79359 -3.75839,12.05279c-0.3888,0.2592 -5.70239,0.9072 -11.66399,1.42559l-10.88639,0.9072l0.9072,-11.40479c0.5184,-6.35039 1.0368,-11.53439 1.16639,-11.66399c0.1296,-0.1296 6.09119,-1.68479 13.21918,-3.49919c11.01598,-2.7216 12.95998,-2.9808 13.34878,-1.29599c0.2592,1.0368 -0.7776,7.12799 -2.3328,13.47838z" fill="#ee82ee"/><path d="M189.56015,147.48461l7.776,2.3328l1.16639,10.75679c0.5184,5.83199 0.7776,11.01598 0.3888,11.40479c-0.3888,0.3888 -5.5728,0.2592 -11.53439,-0.2592l-10.88639,-0.9072l-1.68479,-6.09119c-0.9072,-3.24 -2.4624,-9.33119 -3.3696,-13.60798l-1.81439,-7.51679l6.09119,0.7776c3.3696,0.3888 9.59039,1.81439 13.86719,3.1104z" fill="#ee82ee"/><path d="M206.79693,182.08778c12.31199,2.3328 30.06717,8.29439 40.43516,13.60798c14.77438,7.51679 37.32475,26.69757 46.26716,39.65755l2.8512,3.88799l-6.47999,-1.29599c-5.05439,-1.0368 -7.64639,-0.9072 -11.79359,0.5184l-5.31359,1.944l-9.20159,-9.20159c-5.05439,-5.05439 -12.95998,-11.27518 -17.62558,-13.73758c-9.59039,-5.31359 -25.66077,-10.62719 -36.28796,-12.05279c-3.88799,-0.5184 -8.29439,-1.16639 -9.71999,-1.42559c-11.79359,-2.4624 -51.96954,-1.42559 -54.69114,1.29599c-1.16639,1.16639 5.70239,16.07038 13.34878,29.03036c22.29118,37.58395 45.48955,56.50554 77.11191,62.98552c2.8512,0.64801 3.75839,1.81439 4.9248,6.60959c0.7776,3.1104 3.24,7.776 5.31359,10.23838c2.2032,2.3328 3.88799,4.6656 3.88799,4.9248c0,0.9072 -18.66238,-2.4624 -27.08637,-4.9248c-38.23196,-11.01598 -71.40951,-40.95355 -93.0527,-84.11031c-5.83199,-11.40479 -17.23677,-39.91675 -17.23677,-42.89755c0,-1.42559 16.97758,-4.9248 34.34397,-6.86879c13.86719,-1.68479 47.69275,-0.64801 60.00473,1.81439z" fill="#ffffff"/><path d="M573.17572,182.73578c8.55359,1.55519 15.68158,2.9808 16.07038,3.24c1.16639,1.16639 -9.84959,29.28956 -16.71839,42.89755c-25.27197,49.76634 -59.22713,78.27831 -105.36468,87.9983c-4.9248,1.0368 -10.36799,1.944 -12.31199,1.944h-3.3696l3.49919,-3.62879c3.62879,-3.75839 7.38719,-11.66399 7.38719,-15.55198c0,-1.81439 1.68479,-2.592 8.68319,-3.75839c22.80957,-3.88799 44.58235,-20.99518 64.92952,-50.67354c8.55359,-12.44158 19.56957,-33.30716 20.08798,-38.10236c0.2592,-2.592 -0.3888,-3.1104 -6.22079,-3.88799c-9.33119,-1.16639 -43.67515,-0.2592 -55.07994,1.55519c-25.01277,3.88799 -41.21275,11.40479 -55.98714,25.91998c-9.59039,9.33119 -10.1088,9.71999 -13.60798,8.16479c-4.4064,-1.944 -12.05279,-2.0736 -16.45919,-0.3888c-1.81439,0.64801 -3.3696,0.7776 -3.3696,0.1296c0,-2.592 25.14237,-27.47517 33.95516,-33.43676c17.75518,-12.31199 38.49116,-20.73598 58.06073,-23.58718c5.31359,-0.7776 11.14558,-1.68479 12.95998,-1.944c8.16479,-1.42559 48.08155,0.5184 62.85592,3.1104z" fill="#ffffff"/><path d="M207.70413,213.06214c20.86558,3.49919 37.32475,10.75679 48.34075,21.38398c9.71999,9.33119 10.75679,11.40479 8.94239,18.01438c-1.16639,4.536 -1.0368,6.99839 0.5184,12.95998c1.16639,4.01759 2.4624,8.42399 3.1104,9.59039c0.64801,1.68479 0.3888,2.3328 -1.0368,2.3328c-7.25759,0 -15.94078,3.24 -20.86558,7.776c-5.18399,4.7952 -5.4432,4.9248 -11.79359,3.88799c-13.86719,-2.3328 -27.34557,-9.07199 -39.00956,-19.82877c-12.18239,-11.14558 -27.99357,-32.78876 -37.32475,-51.32154l-3.3696,-6.47999l3.62879,-0.64801c6.22079,-1.0368 36.80636,0.3888 48.85914,2.3328z" fill="#008000"/><path d="M544.92295,210.98854c2.0736,1.29599 -6.09119,16.45919 -17.75518,32.91836c-15.81118,22.55038 -34.34397,37.97276 -51.71034,43.02715c-11.01598,3.24 -15.29278,2.7216 -20.86558,-2.3328c-4.536,-4.14719 -13.60798,-7.25759 -20.73598,-7.25759c-2.3328,0 -2.3328,-0.1296 0.1296,-5.18399c3.3696,-6.99839 4.4064,-15.55198 2.4624,-21.25438c-1.42559,-4.536 -1.29599,-5.05439 3.3696,-10.62719c12.70079,-15.68158 34.60316,-25.40157 64.28153,-28.90076c12.18239,-1.42559 38.75036,-1.68479 40.82395,-0.3888z" fill="#008000"/><path d="M126.44502,242.8701c-0.2592,0.1296 -3.62879,1.0368 -7.51679,1.944c-8.03519,1.944 -27.21597,9.07199 -27.21597,10.1088c0,1.0368 16.07038,19.95838 20.60638,24.23517l4.01759,3.88799l-10.49759,6.86879l-10.49759,6.86879l-3.1104,-2.4624c-5.31359,-4.14719 -18.53278,-19.43997 -28.51197,-32.78876c-14.38559,-19.31037 -14.25599,-17.10717 -0.2592,-23.58718c16.19999,-7.38719 29.28956,-12.44158 41.86075,-15.81118l10.36799,-2.7216l5.5728,11.53439c3.1104,6.47999 5.4432,11.79359 5.18399,11.92319z" fill="#ffffff"/><path d="M607.77887,225.50373c8.29439,2.7216 21.25438,7.9056 28.90076,11.53439l13.73758,6.47999l-5.4432,8.16479c-8.16479,12.31199 -22.03197,29.28956 -30.71516,37.71355l-7.64639,7.51679l-10.36799,-7.12799l-10.49759,-7.25759l7.12799,-7.51679c4.01759,-4.01759 9.59039,-10.23838 12.44158,-13.86719l5.05439,-6.47999l-6.22079,-2.8512c-3.49919,-1.55519 -11.27518,-4.2768 -17.36637,-5.96159c-6.09119,-1.81439 -11.01598,-3.75839 -11.01598,-4.2768c0,-0.64801 2.3328,-5.96159 5.18399,-11.79359c5.83199,-12.44158 3.24,-11.92319 26.82717,-4.2768z" fill="#ffffff"/><path d="M332.11999,222.39333c6.47999,3.1104 16.45919,17.75518 14.38559,21.12478c-0.3888,0.64801 -3.88799,1.42559 -7.776,1.944c-4.01759,0.3888 -11.14558,2.2032 -15.94078,4.01759c-4.7952,1.68479 -8.94239,2.8512 -9.33119,2.4624c-0.3888,-0.3888 -0.64801,-4.7952 -0.64801,-9.97919c-0.1296,-11.14558 2.592,-17.10717 8.68319,-19.69917c5.31359,-2.3328 5.5728,-2.3328 10.62719,0.1296z" fill="#ffa500"/><path d="M379.94234,222.13413c5.96159,2.4624 9.20159,9.59039 9.07199,19.95838c0,4.536 -0.64801,8.68319 -1.29599,9.33119c-0.7776,0.7776 -4.14719,0 -8.94239,-1.944c-4.2768,-1.68479 -11.14558,-3.49919 -15.29278,-4.01759c-4.01759,-0.5184 -7.776,-1.29599 -8.16479,-1.944c-0.9072,-1.42559 2.8512,-9.97919 6.60959,-14.77438c2.7216,-3.62879 9.84959,-8.29439 12.70079,-8.42399c0.5184,0 2.8512,0.7776 5.31359,1.81439z" fill="#ffa500"/><path d="M292.85123,246.8877c3.1104,1.16639 7.776,3.75839 10.23838,5.83199l4.4064,3.75839l-5.18399,4.2768c-6.60959,5.4432 -9.33119,8.16479 -14.51519,14.51519c-4.7952,5.83199 -6.09119,5.4432 -11.40479,-3.62879c-6.35039,-11.01598 -5.31359,-21.51357 2.4624,-24.88317c5.18399,-2.2032 6.86879,-2.2032 13.99679,0.1296z" fill="#ffa500"/><path d="M423.48788,246.8877c5.05439,2.592 7.25759,9.71999 5.31359,16.97758c-1.42559,5.18399 -8.29439,16.07038 -10.23838,16.07038c-0.5184,0 -3.24,-2.8512 -5.96159,-6.35039c-2.7216,-3.49919 -7.776,-8.55359 -11.27518,-11.27518c-3.49919,-2.7216 -6.35039,-5.4432 -6.35039,-5.96159c0,-1.68479 8.94239,-7.776 13.86719,-9.59039c6.47999,-2.2032 10.1088,-2.2032 14.64479,0.1296z" fill="#ffa500"/><path d="M137.59061,259.32929c3.3696,5.05439 5.96159,9.33119 5.70239,9.59039c-0.2592,0.1296 -4.7952,2.4624 -10.1088,5.05439l-9.59039,4.9248l-9.71999,-9.97919c-6.99839,-7.12799 -9.20159,-10.23838 -8.16479,-11.27518c1.29599,-1.29599 20.60638,-7.12799 24.36477,-7.38719c0.7776,-0.1296 4.14719,4.01759 7.51679,9.07199z" fill="#ffffff"/><path d="M587.8205,254.2749c5.05439,1.42559 9.33119,3.1104 9.33119,3.75839c0,0.5184 -4.2768,5.31359 -9.33119,10.75679l-9.46079,9.84959l-9.97919,-4.9248c-5.5728,-2.592 -10.1088,-5.18399 -10.1088,-5.70239c0,-0.5184 2.7216,-4.7952 6.22079,-9.46079c6.86879,-9.71999 5.70239,-9.46079 23.32797,-4.2768z" fill="#ee82ee"/><path d="M369.57434,254.79329c26.43837,6.60959 47.30394,29.67837 52.09914,57.93113c1.68479,9.97919 1.68479,12.57118 0,22.55038c-2.7216,15.81118 -9.07199,28.25276 -20.08798,39.13916c-14.38559,14.38559 -30.45597,21.12478 -50.41435,20.99518c-20.47678,0 -36.54716,-6.60959 -50.80314,-20.86558c-14.12639,-14.12639 -20.99518,-30.58556 -21.12478,-50.41435c0,-19.82877 6.86879,-36.41756 21.25438,-50.80314c18.14398,-18.27358 43.41595,-25.01277 69.07671,-18.53278z" fill="#000000"/><path d="M150.68019,300.02365c-16.84798,8.42399 -38.23196,22.03197 -38.23196,24.36477c0,1.81439 26.69757,18.27358 39.91675,24.62397l14.51519,6.86879l-8.81279,8.68319l-8.81279,8.68319l-12.83039,-6.22079c-7.12799,-3.49919 -19.05118,-10.49759 -26.56797,-15.55198c-13.99679,-9.33119 -33.69596,-25.40157 -33.69596,-27.34557c0,-1.29599 11.27518,-11.14558 22.93917,-19.95838c11.40479,-8.68319 27.86397,-18.79198 39.91675,-24.23517l10.23838,-4.7952l8.55359,8.55359l8.42399,8.55359z" fill="#ffffff"/><path d="M568.25091,282.39806c18.66238,9.33119 57.41274,37.45435 57.41274,41.60156c0,1.55519 -15.42238,14.51519 -28.12317,23.58718c-11.79359,8.42399 -27.86397,17.75518 -37.97276,22.16157l-7.12799,3.1104l-8.55359,-8.81279l-8.55359,-8.68319l10.49759,-4.7952c16.19999,-7.25759 43.41595,-23.97597 43.54555,-26.82717c0,-1.944 -27.60477,-19.05118 -40.69435,-25.01277l-13.73758,-6.35039l8.55359,-8.68319c9.84959,-9.84959 7.9056,-9.84959 24.75357,-1.29599z" fill="#ffffff"/><path d="M278.46564,287.19325c0.5184,0.2592 -0.3888,4.4064 -2.0736,8.94239c-1.81439,4.6656 -3.62879,11.66399 -4.01759,15.55198c-0.5184,4.01759 -1.42559,7.51679 -2.0736,7.9056c-2.0736,1.29599 -15.16318,-5.96159 -18.40318,-10.23838c-8.03519,-10.49759 -5.05439,-17.49598 9.59039,-23.45758c2.0736,-0.7776 15.16318,0.1296 16.97758,1.29599z" fill="#ffa500"/><path d="M446.68625,288.23006c2.2032,1.16639 4.9248,3.88799 6.09119,6.09119c1.81439,3.75839 1.81439,4.536 -0.1296,9.59039c-1.16639,3.24 -4.01759,7.12799 -6.60959,9.07199c-5.18399,3.88799 -13.08958,7.51679 -14.64479,6.60959c-0.64801,-0.3888 -1.42559,-3.88799 -1.944,-7.9056c-0.3888,-3.88799 -2.2032,-10.88639 -4.01759,-15.55198c-2.3328,-6.22079 -2.7216,-8.68319 -1.55519,-9.07199c0.9072,-0.2592 2.4624,-0.7776 3.49919,-1.16639c3.3696,-1.29599 15.03358,0.2592 19.31037,2.3328z" fill="#ffa500"/><path d="M196.42894,312.20603c4.4064,2.2032 13.08958,5.70239 19.18078,7.776c6.09119,2.0736 11.27518,4.01759 11.66399,4.4064c0.3888,0.2592 -1.55519,1.0368 -4.2768,1.55519c-8.42399,1.55519 -27.08637,9.71999 -38.36156,16.71839l-10.88639,6.86879l-6.99839,-2.8512c-9.71999,-3.88799 -26.30877,-12.57118 -34.73276,-17.88478l-6.86879,-4.4064l4.2768,-3.24c6.47999,-4.7952 18.27358,-11.27518 32.01117,-17.36637l12.31199,-5.5728l7.25759,4.9248c4.01759,2.7216 10.88639,6.7392 15.42238,9.07199z" fill="#0000ff"/><path d="M550.10693,307.92923c5.05439,2.592 13.21918,7.12799 17.88478,10.1088l8.68319,5.5728l-4.2768,3.24c-6.35039,4.7952 -17.62558,10.88639 -31.88157,17.36637l-12.44158,5.5728l-7.776,-5.31359c-9.46079,-6.47999 -26.04957,-14.25599 -36.80636,-17.49598c-4.536,-1.29599 -8.16479,-2.7216 -8.16479,-3.1104c0,-0.5184 2.592,-1.55519 5.5728,-2.3328c9.59039,-2.3328 27.08637,-10.23838 37.19516,-16.84798l9.71999,-6.22079l6.47999,2.4624c3.62879,1.42559 10.62719,4.536 15.81118,6.99839z" fill="#000000"/><path d="M272.11525,335.7932c0.5184,3.88799 2.3328,11.01598 4.01759,15.81118c3.75839,10.36799 3.62879,10.62719 -8.81279,10.49759c-9.84959,0 -15.68158,-2.9808 -18.40318,-9.20159c-1.68479,-4.2768 -1.68479,-5.18399 0.3888,-9.71999c1.16639,-2.7216 4.14719,-6.35039 6.47999,-8.16479c5.05439,-3.88799 12.18239,-7.25759 14.12639,-6.60959c0.7776,0.1296 1.68479,3.49919 2.2032,7.38719z" fill="#ffa500"/><path d="M442.53906,332.5532c9.33119,5.4432 13.34878,13.08958 10.36799,20.34718c-2.592,6.09119 -9.59039,9.20159 -20.08798,9.20159c-4.4064,0 -8.68319,-0.64801 -9.33119,-1.29599c-0.7776,-0.7776 -0.1296,-4.01759 1.944,-8.94239c1.68479,-4.2768 3.49919,-11.01598 4.01759,-14.90398c0.3888,-3.88799 1.16639,-7.64639 1.42559,-8.16479c0.7776,-1.42559 5.05439,0 11.66399,3.75839z" fill="#ffa500"/><path d="M246.19528,333.71961c-3.49919,3.88799 -6.7392,11.40479 -6.7392,15.68158c0,0.7776 -2.7216,1.81439 -6.22079,2.2032c-20.86558,2.4624 -44.58235,19.31037 -62.72632,44.58235c-15.68158,21.77277 -27.47517,44.45275 -24.49437,47.43354c1.16639,1.16639 8.94239,1.55519 27.73437,1.42559c21.25438,0 28.64157,-0.64801 39.39836,-2.8512c23.32797,-4.7952 38.10236,-12.31199 51.45114,-26.17917c8.03519,-8.16479 8.29439,-8.42399 11.92319,-6.86879c4.536,1.944 12.18239,2.0736 16.71839,0.3888c3.1104,-1.16639 3.24,-1.0368 1.81439,1.55519c-0.7776,1.55519 -6.35039,7.9056 -12.44158,14.12639c-16.97758,17.62558 -34.60316,28.77117 -57.15354,36.02876c-17.88478,5.83199 -28.51197,7.25759 -54.04314,7.25759c-21.51357,-0.1296 -31.36316,-1.0368 -51.58074,-4.7952c-9.07199,-1.68479 -9.07199,-0.2592 0.5184,-24.36477c18.40318,-46.26716 45.48955,-79.18551 78.79671,-95.7743c14.51519,-7.25759 36.54716,-13.99679 46.65595,-14.25599l4.2768,-0.1296z" fill="#ffffff"/><path d="M473.51343,332.4236c16.19999,4.01759 38.75036,15.03358 51.32154,25.01277c19.69917,15.68158 36.67676,38.10236 49.50714,65.18872c6.60959,14.12639 15.03358,35.51036 15.03358,38.36156c0,1.29599 -17.75518,4.7952 -34.99196,6.86879c-14.25599,1.68479 -46.78554,0.64801 -59.35673,-1.81439c-21.90237,-4.4064 -41.86075,-13.08958 -58.57913,-25.40157c-8.68319,-6.35039 -23.19837,-20.86558 -28.12317,-27.99357l-2.8512,-3.88799l6.47999,1.29599c5.05439,1.0368 7.64639,0.9072 11.92319,-0.64801l5.4432,-1.81439l5.70239,6.22079c14.38559,15.81118 31.10396,24.10557 57.80153,28.77117c19.05118,3.3696 60.39353,3.62879 63.63353,0.2592c2.7216,-2.7216 -15.55198,-35.12155 -30.45597,-53.78394c-17.75518,-22.29118 -34.73276,-33.17756 -59.87513,-38.36156c-2.8512,-0.64801 -3.75839,-1.81439 -4.9248,-6.60959c-0.7776,-3.1104 -3.24,-7.776 -5.4432,-10.36799l-4.01759,-4.536h4.536c2.4624,0 10.23838,1.42559 17.23677,3.24z" fill="#ffffff"/><path d="M108.56025,360.15797c3.88799,2.4624 7.25759,4.6656 7.51679,4.7952c0.1296,0.1296 -2.9808,3.62879 -6.99839,7.776c-10.49759,10.88639 -17.62558,20.21758 -16.45919,21.38398c1.29599,1.29599 27.99357,10.23838 30.58556,10.23838c3.75839,0 3.3696,2.0736 -1.944,13.34878c-5.05439,10.36799 -5.70239,11.14558 -8.81279,10.49759c-9.46079,-2.2032 -35.12155,-11.53439 -47.30394,-17.23677l-13.73758,-6.47999l5.4432,-8.16479c9.20159,-13.73758 16.84798,-23.19837 27.60477,-34.47357l10.23838,-10.62719l3.3696,2.2032c1.81439,1.16639 6.60959,4.14719 10.49759,6.7392z" fill="#ffffff"/><path d="M615.94366,359.89877c7.9056,8.16479 29.67837,35.63996 33.04795,41.73116c1.16639,2.3328 0.7776,2.9808 -3.49919,5.18399c-11.79359,5.96159 -31.88157,13.86719 -44.97114,17.75518l-14.25599,4.14719l-5.70239,-11.66399c-3.1104,-6.35039 -5.4432,-11.79359 -5.18399,-11.92319c0.2592,-0.1296 3.62879,-1.0368 7.51679,-1.944c8.03519,-1.944 27.21597,-9.07199 27.21597,-10.1088c0,-1.0368 -16.07038,-19.95838 -20.60638,-24.23517l-3.88799,-3.75839l9.97919,-6.7392c5.4432,-3.75839 10.36799,-6.86879 10.88639,-6.99839c0.3888,0 4.6656,3.75839 9.46079,8.55359z" fill="#ffffff"/><path d="M245.93608,362.23156c4.536,4.6656 13.86719,8.42399 20.99518,8.42399h3.62879l-2.592,5.18399c-3.49919,6.86879 -4.536,15.42238 -2.592,21.25438c1.55519,4.6656 1.42559,5.05439 -3.62879,10.88639c-10.88639,12.95998 -30.19677,22.93917 -51.58074,26.69757c-13.08958,2.4624 -46.26716,4.14719 -51.58074,2.8512l-3.49919,-0.9072l4.6656,-8.68319c11.79359,-21.64317 28.38237,-43.15675 40.56476,-52.74714c11.27518,-8.94239 26.04957,-15.29278 40.56476,-17.36637c0.3888,-0.1296 2.592,1.944 5.05439,4.4064z" fill="#008000"/><path d="M477.27182,361.71317c10.49759,3.3696 19.43997,8.68319 28.38237,16.84798c12.44158,11.40479 28.25276,32.91836 37.58395,51.58074l3.3696,6.47999l-6.09119,0.9072c-7.51679,1.16639 -31.62236,-0.2592 -46.65595,-2.7216c-20.47678,-3.3696 -37.06556,-10.62719 -48.08155,-21.25438c-9.59039,-9.20159 -10.88639,-11.53439 -9.07199,-17.23677c1.68479,-5.5728 0.5184,-14.51519 -2.7216,-20.86558l-2.3328,-4.6656l6.47999,-0.7776c8.68319,-1.29599 13.73758,-3.49919 18.27358,-8.29439c4.4064,-4.536 6.7392,-4.536 20.86558,0z" fill="#008000"/><path d="M289.22244,374.41396c2.8512,3.49919 7.9056,8.55359 11.40479,11.27518c3.49919,2.592 6.09119,5.4432 5.83199,6.22079c-0.9072,2.8512 -12.83039,9.71999 -18.27358,10.49759c-15.81118,2.4624 -21.12478,-13.34878 -9.84959,-28.90076c2.2032,-2.9808 4.4064,-5.4432 4.9248,-5.4432c0.5184,0 3.24,2.8512 5.96159,6.35039z" fill="#ffa500"/><path d="M424.39508,374.93236c14.25599,21.12478 -3.1104,36.80636 -23.97597,21.64317c-2.9808,-2.2032 -5.4432,-4.4064 -5.4432,-4.9248c0,-0.5184 2.8512,-3.24 6.35039,-5.96159c3.49919,-2.7216 8.55359,-7.9056 11.27518,-11.27518c2.7216,-3.49919 5.5728,-6.22079 6.35039,-5.96159c0.64801,0.2592 3.1104,3.1104 5.4432,6.47999z" fill="#ffa500"/><path d="M133.83221,374.41396c5.05439,2.3328 9.33119,4.536 9.59039,4.7952c0.2592,0.2592 -2.3328,4.536 -5.70239,9.71999c-5.83199,8.81279 -6.22079,9.20159 -10.1088,8.42399c-7.9056,-1.55519 -22.93917,-6.35039 -22.93917,-7.25759c0,-1.55519 18.40318,-20.86558 19.31037,-20.34718c0.3888,0.2592 4.9248,2.3328 9.84959,4.6656z" fill="#ffffff"/><path d="M588.07969,379.20916c5.83199,6.22079 8.81279,10.36799 8.03519,11.14558c-1.0368,1.0368 -22.55038,7.51679 -25.01277,7.51679c-1.42559,0 -13.21918,-18.66238 -12.05279,-19.05118c0.64801,-0.2592 4.9248,-2.4624 9.59039,-4.9248c4.6656,-2.3328 8.81279,-4.4064 9.20159,-4.4064c0.5184,-0.1296 5.05439,4.2768 10.23838,9.71999z" fill="#ee82ee"/><path d="M338.59998,402.53712c4.01759,0.5184 7.51679,1.42559 7.9056,2.0736c0.3888,0.64801 -0.7776,4.4064 -2.7216,8.29439c-10.49759,21.38398 -30.97436,17.49598 -30.97436,-5.96159c0,-11.79359 0.2592,-12.05279 10.23838,-8.42399c4.6656,1.81439 11.66399,3.62879 15.55198,4.01759z" fill="#ffa500"/><path d="M389.14391,406.68431c-0.1296,10.23838 -2.7216,16.07038 -8.55359,19.05118c-5.31359,2.8512 -10.62719,1.42559 -16.32959,-4.2768c-4.9248,-4.9248 -10.1088,-15.03358 -8.81279,-17.10717c0.3888,-0.7776 2.9808,-1.29599 5.5728,-1.29599c2.592,0 9.46079,-1.68479 15.16318,-3.75839c6.22079,-2.2032 10.88639,-3.1104 11.66399,-2.4624c0.7776,0.64801 1.29599,5.05439 1.29599,9.84959z" fill="#ffa500"/><path d="M313.19841,429.36429l4.7952,4.2768l-2.8512,8.29439c-7.776,22.80957 -4.2768,47.95195 10.75679,80.35191c6.7392,14.51519 22.80957,40.04635 25.27197,40.17595c1.81439,0 18.01438,-25.91998 24.23517,-38.87995c15.81118,-33.30716 19.31037,-57.93113 11.66399,-80.9999l-3.1104,-9.07199l4.9248,-4.4064c3.1104,-2.8512 5.4432,-6.47999 6.60959,-10.36799l1.68479,-5.96159l2.2032,5.18399c7.64639,18.01438 11.92319,42.63835 10.62719,61.55993c-2.0736,29.93757 -11.53439,55.59833 -31.62236,85.6655c-9.33119,13.86719 -25.40157,33.56636 -27.34557,33.56636c-1.29599,0 -11.14558,-11.27518 -19.95838,-22.93917c-27.34557,-35.89916 -41.47196,-76.07511 -39.13916,-110.93747c0.7776,-13.21918 4.7952,-30.97436 9.71999,-44.19355l2.9808,-7.776l1.944,6.09119c1.16639,3.75839 3.75839,7.776 6.60959,10.36799z" fill="#e1ff00"/><path d="M369.96314,434.15948c6.47999,1.68479 8.42399,4.6656 11.40479,17.10717c2.4624,10.62719 2.4624,20.73598 -0.1296,33.17756c-3.3696,16.45919 -15.55198,43.93436 -26.82717,60.52313l-3.24,4.7952l-4.14719,-5.5728c-5.96159,-8.16479 -19.95838,-37.45435 -23.97597,-50.41435c-5.83199,-18.01438 -4.9248,-42.89755 1.81439,-55.59833c0.7776,-1.42559 3.75839,-3.24 6.7392,-4.01759c5.5728,-1.55519 16.07038,-10.23838 17.36637,-14.38559c0.64801,-2.0736 1.81439,-1.42559 8.16479,5.18399c5.4432,5.5728 8.81279,8.03519 12.83039,9.20159z" fill="#008000"/><path d="M287.14885,441.28748c-1.81439,7.51679 -2.592,15.55198 -2.8512,29.28956c-0.1296,10.36799 -0.7776,19.56957 -1.29599,20.34718c-1.68479,2.7216 -23.32797,17.49598 -34.08476,23.19837l-10.49759,5.70239l-1.0368,-7.51679c-0.9072,-7.12799 1.29599,-44.71195 2.7216,-47.04474c0.3888,-0.64801 3.88799,-2.592 7.64639,-4.2768c9.59039,-4.4064 25.14237,-15.03358 34.08476,-23.45758c4.14719,-3.88799 7.64639,-6.86879 7.776,-6.86879c0.1296,0.1296 -1.0368,4.9248 -2.4624,10.62719z" fill="#0000ff"/><path d="M441.63186,453.59947c4.6656,2.592 11.01598,6.22079 14.25599,7.9056c4.9248,2.7216 5.96159,3.88799 6.7392,8.29439c1.55519,8.42399 2.8512,39.91675 1.81439,45.10075l-0.9072,4.7952l-7.38719,-3.75839c-7.776,-4.01759 -28.25276,-17.23677 -34.34397,-22.42078l-3.75839,-3.1104l-0.3888,-19.95838c-0.2592,-14.64479 -1.0368,-22.80957 -2.8512,-29.93757l-2.592,-9.84959l10.49759,8.94239c5.70239,4.9248 14.25599,11.27518 18.92158,13.99679z" fill="#0000ff"/><path d="M231.1617,473.94665c-2.4624,18.27358 -1.944,52.87674 1.0368,55.72793c1.944,2.0736 31.88157,-13.99679 45.74875,-24.36477l8.16479,-6.22079l1.29599,5.4432c0.7776,2.9808 2.3328,8.03519 3.24,11.14558c1.0368,3.24 1.944,6.22079 1.944,6.7392c0,1.81439 -23.58718,16.84798 -36.28796,23.19837c-11.53439,5.70239 -32.78876,14.25599 -40.30556,16.19999c-3.24,0.7776 -3.3696,0.64801 -5.4432,-11.27518c-3.88799,-22.80957 -5.18399,-38.75036 -4.2768,-56.76473c0.3888,-9.59039 1.42559,-18.01438 2.0736,-18.66238c1.16639,-1.16639 18.14398,-6.47999 22.55038,-7.12799c0.64801,0 0.7776,2.592 0.2592,5.96159z" fill="#ffffff"/><path d="M484.78861,471.48424c7.38719,1.81439 8.94239,2.7216 9.71999,5.4432c0.5184,1.81439 0.9072,14.25599 0.7776,27.86397c0,19.56957 -0.64801,27.99357 -2.9808,40.82395c-1.55519,8.81279 -3.1104,16.32959 -3.3696,16.71839c-0.3888,0.2592 -6.86879,-1.68479 -14.51519,-4.536c-16.45919,-5.83199 -39.00956,-16.97758 -51.71034,-25.53117c-14.77438,-10.1088 -13.73758,-8.29439 -11.01598,-17.88478c1.42559,-4.536 2.8512,-9.84959 3.24,-11.79359l0.7776,-3.49919l10.75679,7.776c5.83199,4.14719 17.75518,11.27518 26.56797,15.81118c12.95998,6.47999 16.07038,7.64639 16.97758,6.22079c2.9808,-4.6656 3.24,-46.78554 0.5184,-58.31994c-0.64801,-2.8512 -0.3888,-2.9808 2.3328,-2.2032c1.68479,0.5184 7.12799,1.944 11.92319,3.1104z" fill="#e1ff00"/><path d="M167.91697,477.57543c0.2592,0.1296 -0.7776,4.9248 -2.3328,10.49759c-1.42559,5.70239 -2.9808,13.86719 -3.49919,18.14398l-0.7776,8.03519l10.49759,-1.68479c5.70239,-0.9072 13.73758,-2.7216 17.75518,-3.88799c4.14719,-1.16639 7.64639,-1.944 7.776,-1.68479c0.2592,0.2592 0.9072,6.09119 1.42559,12.95998l0.7776,12.57118l-5.5728,1.42559c-18.66238,5.18399 -59.48634,10.88639 -61.55993,8.68319c-2.2032,-2.2032 4.01759,-46.26716 8.81279,-62.20793l1.55519,-4.9248l12.31199,0.7776c6.86879,0.5184 12.57118,1.0368 12.83039,1.29599z" fill="#ffffff"/><path d="M199.28014,479.38983c0,1.944 -0.3888,7.12799 -0.7776,11.40479l-0.9072,7.9056l-13.08958,3.1104l-13.08958,3.24l-0.3888,-2.7216c-0.1296,-1.55519 1.0368,-7.64639 2.592,-13.73758l2.9808,-11.01598l7.12799,-0.7776c15.29278,-1.55519 15.55198,-1.55519 15.55198,2.592z" fill="#ffffff"/><path d="M517.70698,476.40905l7.776,0.7776l2.7216,10.75679c3.49919,13.21918 3.62879,16.19999 0.5184,16.19999c-3.1104,0 -22.67998,-5.18399 -23.84637,-6.22079c-0.3888,-0.5184 -1.16639,-5.70239 -1.68479,-11.66399l-0.9072,-10.62719h3.88799c2.0736,0 7.25759,0.3888 11.53439,0.7776z" fill="#ffffff"/><path d="M560.73413,480.42664c5.05439,18.66238 9.07199,44.19355 9.20159,56.63513v6.35039l-11.27518,-0.9072c-13.73758,-1.16639 -38.36156,-5.18399 -48.72954,-8.16479l-7.51679,-2.0736l0.9072,-12.44158c0.5184,-6.86879 1.0368,-12.57118 1.16639,-12.83039c0.1296,-0.1296 4.7952,0.9072 10.23838,2.3328c5.5728,1.42559 13.73758,2.9808 18.27358,3.3696l8.16479,0.9072l-1.81439,-10.88639c-0.9072,-5.96159 -2.592,-13.86719 -3.75839,-17.36637c-1.0368,-3.62879 -1.944,-6.86879 -1.944,-7.38719c0,-0.9072 3.75839,-1.29599 18.40318,-2.0736l7.38719,-0.3888z" fill="#ffffff"/><path d="M300.88643,541.33857l4.9248,9.97919l-9.84959,9.71999c-6.7392,6.47999 -10.36799,9.20159 -11.27518,8.29439c-1.42559,-1.42559 -7.9056,-23.71678 -7.38719,-25.27197c0.3888,-1.0368 16.71839,-12.44158 17.88478,-12.57118c0.3888,-0.1296 2.9808,4.4064 5.70239,9.84959z" fill="#ffffff"/><path d="M415.9711,537.32097c8.55359,5.70239 9.07199,6.22079 8.29439,10.1088c-1.55519,7.776 -6.35039,22.80957 -7.25759,22.80957c-0.64801,0 -5.4432,-4.14719 -10.75679,-9.07199l-9.71999,-9.07199l4.6656,-10.36799c2.7216,-5.70239 5.05439,-10.36799 5.31359,-10.36799c0.2592,0 4.536,2.7216 9.46079,5.96159z" fill="#ffffff"/><path d="M271.72645,555.59456c1.81439,8.16479 8.94239,27.60477 10.1088,27.60477c1.0368,0 19.95838,-16.07038 24.10557,-20.47678l3.75839,-3.88799l6.99839,10.36799c6.86879,10.1088 6.99839,10.36799 4.7952,13.08958c-4.536,5.70239 -19.82877,19.05118 -32.78876,28.64157c-18.40318,13.73758 -17.62558,13.47838 -20.60638,7.64639c-9.20159,-18.27358 -23.58718,-58.70873 -21.12478,-59.74554c0.5184,-0.1296 5.5728,-2.592 11.27518,-5.31359c5.70239,-2.8512 10.62719,-5.18399 11.01598,-5.18399c0.3888,-0.1296 1.42559,3.24 2.4624,7.25759z" fill="#ffffff"/><path d="M445.26066,554.03935c9.71999,4.6656 10.49759,5.31359 9.84959,8.42399c-2.2032,9.46079 -11.53439,35.12155 -17.23677,47.30394l-6.47999,13.73758l-8.16479,-5.4432c-12.18239,-8.16479 -29.28956,-22.03197 -37.58395,-30.58556l-7.51679,-7.51679l7.12799,-10.62719l7.12799,-10.62719l7.38719,7.25759c4.14719,4.01759 10.36799,9.59039 13.86719,12.31199l6.47999,5.18399l2.2032,-4.4064c1.16639,-2.3328 3.75839,-9.59039 5.70239,-15.94078c1.944,-6.47999 3.75839,-12.44158 4.01759,-13.34878c0.2592,-1.0368 1.0368,-1.55519 1.55519,-1.29599c0.5184,0.2592 5.83199,2.7216 11.66399,5.5728z" fill="#ffffff"/></g></g></g></g></g></g></g></g></g></g></g></g></g></g></g></g></g></svg>