<?xml version="1.0" standalone="no"?>
<!DOCTYPE svg PUBLIC "-//W3C//DTD SVG 20010904//EN"
 "http://www.w3.org/TR/2001/REC-SVG-20010904/DTD/svg10.dtd">
<svg version="1.0" xmlns="http://www.w3.org/2000/svg"
 width="1100.000000pt" height="1100.000000pt" viewBox="0 0 1100.000000 1100.000000"
 preserveAspectRatio="xMidYMid meet">
<metadata>
Created by potrace 1.14, written by Peter Selinger 2001-2017
</metadata>
<g transform="translate(0.000000,1100.000000) scale(0.100000,-0.100000)"
fill="#000000" stroke="none">
<path fill="#000000" stroke="none" d="M5959 10668 c-52 -62 -232 -238 -242
-238 -4 0 -7 17 -8 38 0 20 -3 55 -7 77 -6 34 -11 40 -32 40 -23 0 -28 -9 -60
-109 -20 -60 -40 -111 -46 -113 -15 -5 -166 164 -218 245 -26 40 -54 72 -62
72 -8 0 -58 -46 -112 -102 -132 -140 -232 -238 -242 -238 -12 0 -37 75 -51
153 -8 47 -17 71 -30 77 -26 15 -41 -15 -69 -137 -13 -57 -26 -103 -29 -103
-8 0 -90 110 -186 249 -85 123 -120 150 -150 120 -9 -8 -35 -72 -59 -141 -42
-119 -119 -266 -168 -317 l-22 -24 -23 29 c-13 16 -44 71 -68 122 -46 95 -64
114 -91 92 -15 -13 -14 -64 2 -199 6 -43 5 -43 -21 -37 -30 8 -119 67 -153
102 -35 37 -129 104 -146 104 -9 0 -20 -21 -30 -57 -9 -32 -23 -78 -32 -103
-9 -25 -30 -85 -48 -134 -17 -49 -36 -91 -42 -93 -6 -2 -19 14 -28 35 -27 59
-60 96 -79 89 -20 -8 -21 -37 -5 -158 6 -49 9 -92 5 -95 -11 -12 -198 64 -291
118 -103 59 -114 58 -131 -18 -20 -88 -129 -394 -140 -394 -12 0 -63 53 -119
123 -20 26 -43 47 -50 47 -32 0 -34 -25 -9 -138 14 -62 23 -115 21 -118 -6 -5
-193 91 -313 160 -109 63 -155 60 -155 -9 0 -17 7 -78 16 -136 9 -63 13 -129
9 -169 -10 -111 -26 -200 -36 -200 -21 0 -77 35 -148 92 -75 59 -112 71 -119
36 -2 -9 21 -59 51 -110 31 -51 53 -97 50 -102 -8 -12 -122 1 -207 24 -116 31
-154 37 -167 29 -9 -5 -9 -24 -1 -81 7 -40 16 -118 22 -173 5 -55 12 -115 16
-132 9 -43 -2 -42 -73 7 -88 61 -123 35 -65 -46 66 -93 95 -145 85 -155 -16
-16 -223 -28 -320 -18 -102 11 -121 2 -103 -46 9 -24 21 -110 49 -360 5 -38 6
-73 4 -77 -9 -16 -42 -7 -119 32 -76 39 -123 48 -131 24 -2 -6 30 -54 72 -107
41 -52 75 -98 75 -101 0 -10 -113 -7 -287 6 -177 13 -213 7 -213 -36 0 -12 34
-75 74 -140 70 -112 146 -287 146 -337 0 -26 -56 -25 -180 1 -51 12 -99 19
-107 16 -7 -3 -13 -16 -13 -28 0 -18 22 -37 96 -86 60 -40 93 -67 87 -73 -17
-17 -117 -50 -182 -60 -89 -13 -171 -38 -177 -54 -3 -8 12 -38 33 -67 52 -71
185 -289 180 -295 -3 -2 -34 1 -70 8 -73 14 -97 9 -97 -20 0 -14 28 -36 97
-78 53 -32 98 -62 100 -68 4 -15 -199 -127 -291 -161 -43 -16 -81 -35 -83 -42
-3 -7 2 -22 11 -35 31 -44 182 -273 214 -326 24 -39 30 -57 22 -65 -7 -7 -48
-10 -108 -9 -117 3 -134 -1 -130 -30 2 -17 28 -34 107 -72 56 -28 103 -54 102
-59 0 -11 -124 -69 -270 -127 -130 -52 -146 -60 -162 -91 -13 -24 16 -50 141
-127 101 -63 270 -214 270 -243 0 -20 -50 -40 -165 -67 -82 -20 -115 -34 -115
-50 1 -22 28 -32 125 -47 61 -9 114 -20 118 -24 11 -10 -76 -99 -144 -146 -79
-55 -129 -101 -129 -119 0 -8 24 -26 53 -41 28 -14 90 -51 137 -82 47 -31 102
-67 123 -81 21 -13 34 -27 30 -31 -4 -4 -30 -13 -58 -20 -69 -18 -85 -28 -85
-51 0 -25 4 -26 129 -38 57 -5 108 -14 113 -19 13 -13 -111 -193 -183 -267
-33 -33 -59 -68 -59 -77 0 -10 27 -31 68 -53 37 -21 93 -54 125 -74 92 -57
212 -133 216 -137 11 -10 -31 -39 -115 -79 -52 -24 -94 -50 -94 -58 0 -31 24
-37 142 -37 65 0 118 -3 118 -6 0 -8 -68 -88 -193 -226 -84 -95 -107 -126
-107 -149 0 -38 17 -44 158 -58 158 -16 372 -82 372 -114 0 -14 -54 -68 -142
-141 -57 -48 -73 -81 -44 -92 8 -3 64 10 123 29 105 34 108 35 111 15 4 -24
-11 -61 -85 -216 -30 -62 -53 -118 -50 -126 4 -9 33 -15 94 -19 107 -7 313
-33 320 -41 3 -2 -20 -29 -52 -58 -43 -41 -55 -57 -49 -71 9 -24 43 -19 149
22 44 17 86 31 93 31 7 0 12 -12 12 -28 0 -48 -37 -233 -59 -296 -34 -97 -24
-123 44 -114 54 7 407 -30 421 -44 9 -10 -22 -62 -76 -124 -52 -62 -65 -104
-31 -104 10 0 65 22 122 50 57 27 105 47 107 45 5 -5 -52 -229 -78 -303 -44
-130 -44 -192 1 -192 12 0 80 20 153 44 137 46 346 80 366 60 14 -14 -5 -75
-52 -167 -72 -143 -36 -165 84 -52 44 42 86 74 92 72 15 -5 28 -110 22 -177
-3 -31 -2 -88 1 -128 7 -80 15 -87 73 -57 24 12 153 59 297 107 18 6 36 8 39
5 4 -4 -5 -34 -20 -67 -31 -68 -31 -94 0 -98 15 -2 40 19 94 78 42 46 79 80
88 78 22 -4 79 -192 94 -306 7 -58 16 -96 24 -99 7 -3 44 8 81 23 163 65 382
138 391 130 5 -6 -3 -60 -30 -179 -11 -50 -10 -59 2 -67 8 -6 18 -10 22 -10 4
0 41 43 84 95 42 53 79 93 83 90 8 -9 27 -97 51 -245 45 -279 50 -282 209
-126 104 102 263 216 301 216 23 0 30 -38 30 -164 0 -111 6 -129 40 -124 18 2
29 22 62 111 22 59 44 107 48 107 13 0 82 -110 102 -163 34 -88 79 -167 97
-167 9 0 35 23 58 51 59 70 239 240 247 232 3 -3 6 -35 6 -69 0 -65 17 -98 45
-88 8 3 30 55 50 115 20 60 40 111 45 114 12 7 166 -167 221 -250 27 -41 55
-75 63 -75 7 0 25 15 39 33 14 17 89 97 166 177 101 104 143 142 151 134 6 -6
22 -59 37 -118 39 -162 67 -157 105 16 23 110 37 129 59 86 6 -13 22 -34 34
-48 13 -14 62 -81 110 -150 96 -137 108 -150 142 -150 19 0 29 10 47 53 13 28
31 79 40 112 28 96 153 315 180 315 18 0 48 -45 100 -149 40 -79 50 -92 69
-89 22 3 22 6 18 126 -2 67 1 122 5 122 18 0 138 -80 178 -118 57 -54 126
-101 140 -96 6 2 19 33 28 69 22 83 111 325 120 325 4 0 20 -26 36 -57 31 -63
50 -80 77 -69 14 5 16 14 11 49 -14 88 -27 200 -23 204 10 10 230 -82 305
-128 67 -42 85 -49 97 -39 8 7 15 19 15 26 0 36 139 434 151 434 7 0 44 -41
138 -150 28 -33 31 -34 47 -18 17 17 16 23 -9 129 -14 62 -24 116 -22 120 5 8
218 -98 265 -131 57 -41 151 -79 174 -71 28 11 31 35 16 184 -15 143 -3 338
22 363 11 11 22 7 70 -24 32 -20 82 -57 113 -81 54 -43 79 -48 91 -17 3 8 -18
53 -46 101 -70 115 -70 121 0 117 55 -4 79 -8 180 -35 137 -38 159 -32 140 34
-12 42 -44 358 -37 365 3 3 29 -13 58 -35 56 -43 93 -52 103 -26 3 10 -21 55
-61 115 -36 55 -64 103 -60 106 13 13 245 25 325 17 109 -12 118 -6 104 68
-15 73 -39 257 -48 352 -5 62 -4 77 7 77 8 0 58 -21 111 -46 150 -72 167 -47
58 86 -74 89 -85 113 -47 106 12 -3 117 -8 233 -11 188 -6 213 -5 227 10 10 9
17 19 17 21 0 11 -46 93 -80 144 -20 30 -49 79 -64 108 -35 69 -89 230 -81
242 10 16 73 12 163 -10 93 -22 128 -25 137 -10 14 22 -10 48 -96 103 -50 32
-88 64 -86 70 4 14 150 66 185 66 37 1 156 33 169 45 10 9 3 24 -30 71 -79
111 -185 291 -176 299 2 2 35 -3 72 -11 62 -14 70 -14 84 0 9 8 13 22 10 29
-3 8 -48 40 -100 71 -53 32 -99 61 -102 66 -8 14 209 135 288 160 37 13 74 30
83 38 13 14 13 18 -1 37 -18 26 -191 284 -228 343 -26 41 -26 43 -8 53 11 5
64 10 119 10 75 0 103 4 112 15 6 8 9 19 5 25 -4 6 -57 36 -118 67 -104 52
-110 57 -87 66 14 5 48 21 75 34 28 14 101 45 164 69 142 56 168 69 181 94 17
32 0 50 -121 125 -107 66 -289 226 -289 253 0 17 80 48 165 66 91 19 115 30
115 56 0 22 -9 25 -115 40 -103 15 -125 20 -125 31 0 19 75 91 149 143 86 61
136 110 127 124 -3 6 -34 24 -68 42 -35 18 -94 54 -133 80 -38 26 -87 57 -108
70 -21 12 -36 27 -34 33 2 6 32 18 66 28 68 18 85 33 71 60 -7 12 -31 18 -110
23 -108 7 -130 12 -130 28 0 22 126 197 188 260 43 44 63 72 59 82 -3 8 -30
27 -59 42 -29 15 -75 41 -103 59 -27 17 -96 60 -153 95 -99 60 -102 63 -86 81
9 10 55 37 103 60 47 22 89 46 93 52 17 28 -15 37 -122 37 -60 0 -115 3 -124
6 -18 7 6 38 159 206 136 151 154 180 121 207 -7 6 -76 18 -152 27 -164 19
-374 82 -374 113 0 8 74 79 164 157 46 40 53 65 22 77 -7 3 -61 -11 -119 -30
-59 -20 -110 -33 -114 -30 -9 9 35 135 61 177 33 52 76 148 76 169 0 25 -19
31 -98 31 -66 1 -308 32 -317 42 -3 2 20 26 50 52 55 47 70 81 40 92 -8 4 -57
-10 -107 -29 -123 -46 -127 -47 -131 -39 -10 16 31 242 57 320 15 45 25 89 22
97 -3 10 -19 15 -45 15 -68 0 -430 38 -444 47 -11 6 28 68 85 134 88 102 57
120 -90 50 -58 -28 -109 -48 -112 -46 -4 3 -2 24 5 47 7 24 20 72 29 108 9 36
29 110 46 165 34 113 36 133 16 160 -15 21 -28 18 -211 -45 -85 -30 -268 -63
-310 -56 -33 5 -23 63 28 170 26 53 44 102 41 110 -13 34 -37 23 -121 -54 -47
-44 -89 -77 -93 -75 -15 9 -22 84 -21 228 1 169 1 171 -76 137 -61 -28 -306
-110 -326 -110 -13 0 -12 9 9 55 28 65 31 103 8 112 -12 4 -41 -19 -102 -82
-79 -83 -85 -88 -98 -70 -8 11 -19 38 -25 60 -5 22 -19 67 -29 100 -10 33 -23
98 -29 145 -6 46 -16 89 -21 94 -6 6 -23 4 -47 -8 -36 -18 -132 -54 -308 -116
-44 -15 -88 -31 -97 -35 -16 -6 -18 -1 -18 36 0 24 9 77 19 118 11 40 17 79
14 87 -12 33 -45 11 -114 -76 -39 -49 -74 -90 -79 -90 -5 0 -12 17 -15 38 -4
20 -13 60 -20 87 -7 28 -18 91 -25 140 -22 167 -39 215 -78 215 -8 0 -63 -47
-121 -104 -97 -95 -245 -204 -297 -220 -31 -9 -36 10 -42 149 -2 66 -9 126
-15 133 -22 28 -41 5 -81 -97 -23 -57 -46 -106 -52 -108 -14 -5 -75 93 -107
169 -38 90 -77 158 -90 158 -7 0 -33 -24 -58 -52z"/>
<path fill="#ffffff" stroke="none" d="M4517 10559 c32 -50 77 -116 100 -145
24 -29 60 -79 82 -110 l39 -56 -15 -52 c-8 -28 -19 -55 -24 -61 -24 -25 -155
146 -183 240 -23 75 -57 99 -75 53 -46 -119 -101 -233 -134 -281 -44 -63 -52
-63 -89 0 -17 29 -16 29 28 94 69 98 115 185 145 273 40 118 47 136 58 136 5
0 36 -41 68 -91z"/>
<path fill="#ffffff" stroke="none" d="M6034 10605 c9 -19 23 -53 31 -75 17
-49 79 -157 108 -187 20 -22 20 -23 2 -65 -27 -62 -32 -65 -61 -37 -43 40 -95
139 -106 201 -15 83 -55 104 -79 42 -22 -60 -149 -214 -176 -214 -7 0 -15 12
-19 28 -3 15 -8 36 -11 46 -4 15 28 52 133 157 77 76 144 138 150 138 7 1 19
-15 28 -34z"/>
<path fill="#ffffff" stroke="none" d="M5317 10563 c21 -32 71 -96 112 -143
41 -47 83 -94 93 -106 18 -20 18 -22 -1 -67 -11 -26 -23 -47 -26 -47 -15 0
-124 91 -149 124 -15 20 -34 56 -42 80 -15 43 -36 62 -55 51 -5 -3 -36 -46
-70 -95 -52 -77 -119 -146 -166 -174 -9 -5 -22 11 -39 47 l-27 55 164 166 c90
91 165 165 166 166 2 0 20 -26 40 -57z"/>
<path fill="#ffffff" stroke="none" d="M6839 10503 c6 -43 16 -107 21 -143 5
-36 18 -109 29 -163 14 -65 18 -104 12 -115 -12 -22 -80 -87 -84 -81 -3 2 -15
31 -28 64 -20 51 -23 78 -24 184 0 167 -6 170 -112 71 -102 -96 -222 -174
-240 -157 -9 10 -22 79 -16 93 2 7 18 17 34 23 59 20 226 142 304 220 44 45
82 81 86 81 4 0 12 -35 18 -77z"/>
<path fill="#ffffff" stroke="none" d="M4854 10355 c16 -65 183 -430 239 -524
21 -35 36 -65 34 -67 -2 -2 -70 1 -150 6 -163 13 -262 4 -359 -32 -32 -11 -61
-18 -64 -15 -4 3 10 25 31 49 35 41 155 272 155 299 0 8 16 63 35 124 19 60
40 129 45 153 12 46 24 48 34 7z"/>
<path fill="#ffffff" stroke="none" d="M5670 10290 c26 -139 102 -434 127
-491 14 -33 23 -63 19 -66 -30 -30 -512 -27 -545 3 -3 3 9 19 26 37 36 38 200
290 235 362 14 28 45 94 68 149 28 64 46 93 51 85 4 -8 13 -43 19 -79z"/>
<path fill="#ffffff" stroke="none" d="M5987 10308 c21 -40 57 -93 81 -117 51
-50 53 -38 -30 -186 -60 -107 -137 -215 -154 -215 -18 0 -47 81 -90 246 l-38
151 72 68 c40 37 80 81 89 97 10 15 21 28 25 28 4 0 24 -33 45 -72z"/>
<path fill="#ffffff" stroke="none" d="M6315 10301 c8 -41 22 -144 30 -230 26
-274 33 -336 40 -352 3 -10 3 -19 -2 -22 -4 -2 -64 4 -133 14 -69 10 -171 18
-227 18 -64 1 -103 5 -103 11 0 6 24 39 53 73 64 75 109 148 204 332 74 141
81 156 102 209 7 16 14 27 16 24 3 -2 11 -37 20 -77z"/>
<path fill="#ffffff" stroke="none" d="M3757 10307 c70 -64 155 -124 200 -143
32 -14 33 -16 33 -75 0 -58 -1 -60 -22 -54 -68 20 -144 78 -217 165 -25 29
-33 33 -48 24 -14 -9 -19 -29 -25 -95 -5 -75 -38 -201 -58 -222 -7 -8 -70 63
-70 79 0 7 49 148 122 347 6 15 14 27 19 27 4 0 34 -24 66 -53z"/>
<path fill="#ffffff" stroke="none" d="M5319 10260 c21 -25 61 -61 89 -80 33
-22 52 -42 52 -55 0 -24 -195 -332 -219 -345 -24 -12 -32 -5 -83 75 -41 63
-138 252 -138 267 0 3 28 26 63 51 35 25 85 74 113 111 l49 66 18 -23 c10 -12
35 -42 56 -67z"/>
<path fill="#ffffff" stroke="none" d="M4508 10243 c22 -38 68 -95 101 -128
34 -33 61 -67 61 -75 0 -39 -99 -217 -160 -289 -26 -30 -37 -21 -97 78 -24 42
-62 105 -84 141 -21 36 -39 68 -39 71 0 3 21 32 46 65 26 32 63 92 82 132 20
39 39 72 43 72 4 0 25 -30 47 -67z"/>
<path fill="#ffffff" stroke="none" d="M6699 10163 c1 -18 15 -76 31 -128 19
-58 28 -101 23 -110 -16 -28 -149 -127 -217 -162 -66 -33 -70 -34 -83 -17 -7
10 -13 25 -13 33 0 9 -7 83 -15 166 -7 82 -13 150 -12 151 1 1 34 18 73 38 39
20 100 59 135 85 l64 49 7 -37 c4 -20 7 -51 7 -68z"/>
<path fill="#ffffff" stroke="none" d="M4128 10157 c33 -45 108 -163 167 -262
59 -99 117 -190 128 -202 11 -13 19 -25 16 -27 -2 -2 -56 -21 -121 -41 -64
-20 -162 -56 -219 -81 -56 -24 -104 -43 -105 -41 -2 2 5 36 17 77 30 110 39
207 41 448 1 121 6 218 10 216 4 -3 34 -42 66 -87z"/>
<path fill="#ffffff" stroke="none" d="M7564 10159 c3 -17 6 -44 6 -58 0 -15
9 -61 20 -102 12 -41 30 -107 40 -147 l20 -72 -32 -30 c-18 -16 -38 -30 -44
-30 -6 0 -28 37 -50 83 -33 69 -39 93 -40 152 -1 39 -2 76 -3 83 -2 23 -38 12
-122 -38 -80 -48 -165 -80 -219 -83 -24 -2 -25 0 -25 57 l0 58 125 44 c69 25
163 58 209 74 47 17 87 32 89 35 12 11 20 3 26 -26z"/>
<path fill="#ffffff" stroke="none" d="M7054 10088 c-4 -46 -8 -201 -8 -345
-1 -145 -4 -263 -7 -263 -3 0 -21 11 -40 25 -115 86 -333 175 -428 175 -68 0
-68 15 0 49 34 18 90 53 123 79 67 52 283 270 324 326 14 20 29 36 34 36 6 0
6 -34 2 -82z"/>
<path fill="#ffffff" stroke="none" d="M3890 9995 c19 -10 49 -21 65 -25 l30
-6 0 -139 c-1 -130 -16 -254 -35 -284 -12 -21 -61 21 -168 147 -139 163 -129
141 -94 230 16 42 33 93 37 112 14 74 11 73 73 26 31 -24 73 -51 92 -61z"/>
<path fill="#ffffff" stroke="none" d="M3140 9960 c14 -9 57 -29 95 -44 39
-15 95 -39 125 -54 51 -25 55 -30 58 -66 5 -64 2 -67 -70 -50 -95 22 -138 42
-186 85 -24 22 -51 39 -60 37 -18 -3 -20 -10 -47 -162 -17 -90 -60 -196 -80
-196 -7 0 -29 15 -50 34 -38 32 -39 34 -28 67 23 69 121 355 132 382 l11 29
38 -23 c20 -12 48 -30 62 -39z"/>
<path fill="#ffffff" stroke="none" d="M3535 9892 c93 -126 275 -341 327 -385
28 -24 48 -49 45 -54 -9 -14 -119 -79 -229 -136 -84 -43 -254 -104 -264 -94
-2 2 0 17 6 33 7 16 23 115 36 219 21 162 24 211 18 338 -4 84 -3 147 2 147 5
0 31 -31 59 -68z"/>
<path fill="#ffffff" stroke="none" d="M7427 9888 c7 -34 28 -94 48 -134 19
-39 35 -77 35 -82 0 -16 -49 -51 -199 -141 -136 -82 -173 -95 -186 -63 -4 9
-10 101 -13 204 l-5 186 49 7 c74 10 145 32 189 60 61 38 69 34 82 -37z"/>
<path fill="#ffffff" stroke="none" d="M8228 9738 c0 -91 4 -165 11 -182 13
-32 2 -49 -51 -87 -27 -19 -27 -19 -38 1 -6 11 -15 56 -21 100 -8 67 -7 91 7
140 29 103 8 113 -92 46 -62 -42 -209 -105 -219 -94 -3 3 0 28 7 56 l11 52
171 56 c94 31 178 60 186 64 8 5 18 6 21 4 4 -2 7 -73 7 -156z"/>
<path fill="#ffffff" stroke="none" d="M7751 9658 c-47 -186 -81 -373 -81
-438 0 -33 -4 -61 -8 -64 -15 -9 -245 83 -342 137 -70 39 -150 96 -150 108 0
5 8 9 17 9 17 0 173 88 308 176 44 28 125 90 180 138 68 60 101 82 103 72 2
-8 -10 -70 -27 -138z"/>
<path fill="#ffffff" stroke="none" d="M3194 9730 c33 -17 94 -37 135 -46 41
-8 78 -17 83 -20 13 -8 10 -71 -12 -239 -20 -159 -30 -195 -54 -195 -18 0
-179 108 -259 174 l-67 56 40 80 c25 49 44 105 51 149 7 39 14 71 17 71 2 0
32 -14 66 -30z"/>
<path fill="#ffffff" stroke="none" d="M5055 9719 c44 -6 132 -19 195 -29 186
-30 236 -32 425 -19 230 16 448 14 551 -6 43 -9 153 -20 244 -25 135 -7 178
-13 235 -33 110 -38 254 -122 441 -257 110 -80 247 -149 464 -235 173 -69 249
-109 437 -232 78 -51 149 -93 158 -93 23 0 141 -79 196 -132 79 -75 164 -200
284 -418 88 -158 136 -221 330 -430 106 -113 194 -234 285 -391 35 -61 80
-128 98 -148 119 -129 172 -309 192 -656 14 -237 23 -281 115 -580 47 -153 69
-274 85 -465 6 -69 15 -143 21 -165 52 -198 29 -358 -93 -659 -102 -251 -118
-309 -153 -551 -33 -217 -57 -313 -125 -490 -43 -112 -63 -177 -79 -250 -33
-150 -147 -301 -398 -528 -154 -138 -211 -206 -342 -402 -103 -153 -135 -191
-296 -350 -89 -88 -169 -174 -178 -191 -35 -67 -173 -167 -312 -225 -51 -21
-177 -64 -280 -95 -239 -72 -283 -91 -557 -252 -112 -65 -237 -118 -420 -176
-81 -26 -157 -55 -170 -65 -35 -27 -135 -59 -217 -71 -78 -11 -320 1 -404 19
-165 37 -251 44 -472 35 -314 -12 -493 -9 -625 11 -63 9 -167 19 -230 20 -78
3 -139 11 -190 25 -118 33 -281 127 -505 290 -97 70 -198 119 -470 226 -126
49 -226 104 -389 212 -70 47 -146 91 -167 99 -156 53 -307 228 -484 558 -73
136 -141 224 -316 410 -100 106 -194 230 -251 330 -71 123 -121 199 -154 232
-38 38 -118 199 -132 268 -27 121 -43 255 -52 416 -6 96 -13 188 -16 204 -9
47 -64 242 -94 335 -36 111 -67 256 -75 350 -16 200 -28 288 -42 320 -19 40
-22 229 -5 295 27 109 67 225 125 370 91 224 100 261 147 570 22 146 66 303
134 480 25 66 46 132 46 147 0 40 45 152 91 231 40 67 173 207 404 427 102 97
126 126 282 355 70 103 124 166 261 305 96 96 180 186 187 201 18 33 86 95
160 145 91 62 260 128 480 190 55 15 129 39 165 54 61 25 100 46 373 198 116
64 217 105 421 172 71 23 141 50 155 61 14 11 59 28 99 40 130 37 229 41 407
18z"/>
<path fill="#ffffff" stroke="none" d="M2379 9634 c51 -30 145 -82 209 -115
64 -33 119 -65 123 -71 10 -15 21 -107 14 -118 -7 -11 -105 22 -164 57 -25 15
-71 51 -102 80 -87 82 -99 71 -85 -78 9 -101 -3 -263 -21 -280 -5 -4 -28 4
-51 18 -38 23 -43 30 -38 52 27 121 31 305 10 464 -4 28 -3 47 3 47 6 0 51
-25 102 -56z"/>
<path fill="#ffffff" stroke="none" d="M8062 9583 c4 -67 11 -110 24 -137 l19
-38 -37 -33 c-93 -80 -310 -211 -330 -199 -4 3 -8 17 -8 32 0 35 59 352 69
372 4 8 46 26 92 40 46 15 98 34 114 43 17 9 35 16 41 17 7 0 13 -35 16 -97z"/>
<path fill="#ffffff" stroke="none" d="M3113 9303 c51 -40 107 -80 124 -90 44
-24 41 -37 -9 -53 -81 -24 -233 -93 -293 -133 -33 -23 -84 -63 -112 -90 -29
-28 -53 -45 -53 -39 0 6 7 41 16 79 26 112 15 261 -42 603 l-7 44 142 -124
c78 -69 183 -158 234 -197z"/>
<path fill="#ffffff" stroke="none" d="M8350 9449 c-19 -77 -114 -349 -160
-461 -11 -26 -20 -58 -20 -73 0 -46 -26 -40 -142 38 -62 41 -137 87 -166 101
-29 15 -67 35 -84 46 l-32 19 79 36 c95 44 207 116 337 218 53 42 107 81 119
87 12 7 35 27 51 46 17 19 33 33 35 30 2 -2 -5 -41 -17 -87z"/>
<path fill="#ffffff" stroke="none" d="M8930 9467 c0 -7 -16 -59 -35 -115 -19
-56 -46 -150 -61 -209 -14 -60 -31 -117 -39 -128 -13 -21 -101 -59 -116 -49
-13 8 0 109 24 179 10 33 35 83 53 112 54 81 40 109 -39 80 -78 -30 -202 -56
-270 -58 -37 -1 -69 0 -70 2 -2 2 3 25 10 52 l14 47 47 0 c99 1 258 30 352 64
103 38 130 43 130 23z"/>
<path fill="#ffffff" stroke="none" d="M2508 9346 c37 -25 102 -57 145 -72 49
-17 82 -34 89 -47 7 -13 9 -63 5 -141 -7 -142 -21 -206 -47 -206 -9 0 -55 25
-101 55 -46 30 -110 72 -141 93 -32 20 -58 42 -58 47 0 6 7 45 15 88 8 43 15
112 15 153 0 41 2 74 5 74 3 0 36 -20 73 -44z"/>
<path fill="#ffffff" stroke="none" d="M8650 9188 c-15 -40 -33 -113 -39 -163
-8 -59 -17 -94 -28 -102 -48 -37 -337 -70 -348 -41 -6 14 10 59 93 281 l25 67
86 0 c47 1 113 7 146 14 100 23 97 26 65 -56z"/>
<path fill="#ffffff" stroke="none" d="M2206 9102 c49 -27 168 -101 264 -164
96 -63 185 -118 198 -122 35 -11 27 -30 -43 -91 -36 -32 -107 -103 -158 -159
-50 -55 -94 -102 -98 -104 -4 -2 -12 28 -19 65 -17 91 -75 252 -144 397 -31
65 -56 126 -56 134 0 8 -11 27 -25 44 -26 30 -32 48 -17 48 5 0 49 -22 98 -48z"/>
<path fill="#ffffff" stroke="none" d="M1819 9074 c37 -15 215 -45 245 -41 14
1 27 -10 43 -38 29 -51 29 -63 -2 -71 -41 -10 -176 14 -227 41 -50 26 -83 32
-93 15 -4 -6 8 -47 25 -93 32 -82 54 -237 34 -237 -5 0 -27 11 -49 23 l-40 23
-12 134 c-7 74 -17 161 -23 193 -6 31 -8 62 -5 67 7 11 55 3 104 -16z"/>
<path fill="#ffffff" stroke="none" d="M8931 8943 c-116 -207 -153 -278 -194
-368 -24 -55 -50 -117 -56 -137 -7 -21 -16 -40 -21 -43 -4 -3 -20 16 -36 42
-86 150 -194 270 -302 340 -30 19 -52 37 -49 39 3 3 40 7 83 10 42 2 114 14
158 25 45 12 92 24 106 26 14 3 30 9 35 13 6 5 55 25 110 45 55 21 116 46 135
56 67 35 73 26 31 -48z"/>
<path fill="#ffffff" stroke="none" d="M2010 8860 c45 -5 91 -5 115 0 22 5 40
8 41 7 8 -10 48 -98 77 -167 39 -96 75 -226 64 -236 -3 -4 -26 -2 -50 4 -46
12 -313 127 -334 144 -8 7 -13 36 -13 77 0 37 -7 93 -15 124 -19 73 -20 70 13
63 15 -4 61 -10 102 -16z"/>
<path fill="#ffffff" stroke="none" d="M9160 8840 c85 -11 176 -20 202 -20 26
0 50 -5 53 -10 4 -6 -5 -45 -18 -88 -14 -42 -35 -132 -47 -198 l-22 -122 -44
-12 c-25 -7 -48 -10 -52 -6 -12 13 -6 169 8 211 7 22 22 52 33 66 10 15 17 35
15 45 -3 18 -13 19 -121 15 -118 -3 -241 12 -253 31 -4 6 4 32 16 59 28 58 15
56 230 29z"/>
<path fill="#ffffff" stroke="none" d="M8950 8685 c30 -8 97 -15 148 -15 50 0
92 -2 92 -5 0 -2 -7 -30 -15 -62 -8 -31 -15 -99 -15 -150 0 -66 -4 -95 -12
-98 -16 -6 -339 -45 -370 -45 -13 0 -33 6 -43 14 -18 13 -18 16 9 92 40 114
123 284 138 284 7 0 38 -7 68 -15z"/>
<path fill="#ffffff" stroke="none" d="M1800 8599 c131 -70 382 -180 448 -197
53 -13 63 -18 59 -33 -11 -42 -186 -274 -261 -347 l-79 -77 -18 70 c-49 196
-146 440 -228 575 -38 64 -25 65 79 9z"/>
<path fill="#ffffff" stroke="none" d="M1721 8469 c10 -19 18 -39 19 -45 0
-12 -94 -39 -165 -48 -25 -3 -60 2 -95 14 -38 13 -60 15 -72 9 -23 -13 -23
-20 8 -109 26 -77 49 -229 39 -260 -5 -16 -10 -17 -64 -3 l-58 15 -12 116 c-6
65 -18 162 -26 217 -8 55 -14 107 -15 115 0 13 30 15 211 14 l212 0 18 -35z"/>
<path fill="#ffffff" stroke="none" d="M9460 8362 c0 -4 -26 -36 -58 -72 -87
-97 -275 -348 -300 -402 -12 -25 -26 -49 -31 -52 -11 -7 -162 154 -238 254
-47 63 -103 158 -103 175 0 3 27 5 59 5 174 0 405 32 561 78 71 21 110 26 110
14z"/>
<path fill="#ffffff" stroke="none" d="M1795 8321 c29 -57 115 -324 115 -359
l0 -35 -82 7 c-45 4 -133 18 -196 31 -62 14 -115 25 -118 25 -2 0 -4 40 -4 88
0 55 -7 116 -19 160 -10 40 -18 72 -17 73 0 0 39 2 86 4 47 2 108 10 135 18
73 21 83 20 100 -12z"/>
<path fill="#ffffff" stroke="none" d="M9680 8286 c74 -9 152 -18 173 -20 21
-2 41 -6 43 -9 6 -6 -25 -77 -48 -110 -23 -32 -65 -132 -82 -196 -12 -46 -11
-45 -90 -65 l-29 -7 6 53 c7 69 49 164 93 209 48 49 43 75 -11 72 -188 -11
-295 -5 -295 15 0 4 14 25 31 45 24 29 37 37 53 33 11 -3 82 -12 156 -20z"/>
<path fill="#ffffff" stroke="none" d="M9509 8150 c41 -6 89 -8 107 -4 19 3
34 2 34 -3 0 -4 -14 -42 -32 -83 -17 -41 -34 -102 -37 -135 l-6 -60 -55 -12
c-79 -18 -263 -43 -316 -43 -82 0 -73 23 83 233 87 117 98 127 122 123 14 -3
59 -11 100 -16z"/>
<path fill="#ffffff" stroke="none" d="M1274 7996 c243 -72 386 -107 511 -126
38 -6 71 -13 73 -15 2 -2 -35 -42 -82 -90 -98 -99 -169 -200 -203 -289 -48
-122 -43 -119 -63 -41 -23 97 -62 186 -125 287 -41 65 -133 200 -159 233 -39
48 -49 65 -41 65 4 0 44 -11 89 -24z"/>
<path fill="#ffffff" stroke="none" d="M1058 7863 l174 -6 35 -54 c20 -29 33
-57 29 -61 -4 -4 -60 -7 -124 -7 -99 0 -127 4 -180 24 -50 19 -65 21 -77 11
-20 -16 -19 -26 4 -58 56 -81 141 -276 141 -324 0 -10 -95 -6 -105 4 -3 2 -14
38 -24 79 -23 91 -83 221 -145 314 -63 95 -62 99 27 91 39 -3 150 -9 245 -13z"/>
<path fill="#ffffff" stroke="none" d="M9859 7848 c-7 -13 -110 -121 -230
-240 -121 -119 -219 -222 -219 -228 0 -5 -6 -10 -13 -10 -7 0 -39 45 -71 100
-32 55 -89 143 -127 195 -38 52 -68 95 -67 95 2 0 57 2 123 4 109 4 324 36
434 66 23 6 56 12 74 13 17 2 41 8 52 15 11 6 28 12 38 12 15 0 16 -3 6 -22z"/>
<path fill="#ffffff" stroke="none" d="M9883 7694 c72 -38 208 -75 327 -90 69
-9 129 -20 134 -25 6 -5 -21 -41 -65 -86 -41 -43 -96 -105 -123 -138 -28 -33
-68 -79 -90 -102 -38 -41 -43 -43 -97 -43 -32 0 -61 5 -64 10 -9 15 57 118
102 161 21 20 64 53 96 73 82 52 75 79 -23 89 -111 11 -310 71 -310 93 0 13
56 74 68 74 7 0 27 -7 45 -16z"/>
<path fill="#ffffff" stroke="none" d="M1175 7665 c28 0 78 3 112 7 l63 8 27
-43 c40 -63 91 -195 99 -256 l7 -54 -59 6 c-101 9 -248 28 -279 36 -27 6 -32
14 -47 73 -9 36 -32 103 -52 149 -20 45 -36 84 -36 86 0 3 26 1 58 -4 31 -4
80 -8 107 -8z"/>
<path fill="#ffffff" stroke="none" d="M9935 7515 c39 -9 76 -18 84 -21 10 -3
-4 -21 -42 -55 -31 -27 -79 -86 -108 -129 -28 -44 -57 -80 -63 -81 -60 -6
-180 23 -274 67 -64 29 -72 35 -63 52 5 10 64 71 130 135 l121 116 72 -34 c40
-18 105 -41 143 -50z"/>
<path fill="#ffffff" stroke="none" d="M1133 7301 c233 -34 291 -41 330 -41
20 0 37 -5 37 -10 0 -6 -20 -61 -44 -123 -24 -61 -56 -157 -70 -211 -26 -96
-32 -114 -39 -105 -2 2 -24 31 -49 64 -56 74 -206 220 -312 303 -44 35 -86 72
-93 82 -8 11 -20 20 -27 20 -8 0 -24 9 -37 20 l-24 19 98 1 c54 0 157 -9 230
-19z"/>
<path fill="#ffffff" stroke="none" d="M9518 7251 c71 -36 243 -81 332 -86 19
-2 101 -6 183 -10 81 -5 147 -12 147 -16 0 -5 -10 -14 -22 -20 -22 -12 -181
-126 -295 -212 -29 -21 -91 -73 -139 -115 -93 -81 -104 -82 -104 -9 0 129 -55
320 -119 423 -45 70 -43 75 17 45z"/>
<path fill="#ffffff" stroke="none" d="M898 7172 c17 -13 32 -30 32 -37 0 -32
-180 -90 -250 -81 -37 5 -52 3 -64 -9 -9 -9 -16 -19 -16 -21 0 -3 30 -35 66
-71 63 -63 134 -160 134 -183 0 -6 -23 -10 -53 -10 l-54 0 -78 133 c-43 72
-90 147 -103 165 -31 41 -24 49 54 63 107 20 222 51 251 69 30 19 32 18 81
-18z"/>
<path fill="#ffffff" stroke="none" d="M1032 7063 c165 -135 284 -267 257
-283 -18 -12 -82 -18 -260 -25 l-146 -7 -47 81 c-25 44 -60 97 -77 116 -22 25
-27 36 -17 39 7 2 42 12 78 21 73 19 130 46 149 69 18 22 24 20 63 -11z"/>
<path fill="#ffffff" stroke="none" d="M10180 6963 c66 -44 172 -109 258 -158
34 -20 62 -40 62 -44 0 -4 -14 -20 -31 -37 -18 -16 -76 -88 -129 -160 l-98
-131 -50 9 c-49 10 -50 11 -41 36 15 39 67 134 87 158 10 12 37 33 60 48 42
26 55 57 30 73 -7 4 -54 24 -104 44 -90 36 -204 110 -204 133 1 14 70 65 90
66 9 0 40 -16 70 -37z"/>
<path fill="#ffffff" stroke="none" d="M10027 6851 c31 -28 89 -65 129 -83 41
-18 74 -37 74 -43 0 -5 -17 -26 -36 -45 -20 -19 -54 -74 -77 -122 -28 -60 -47
-88 -59 -88 -21 0 -337 113 -366 131 -12 8 -22 21 -22 29 0 26 265 270 293
270 5 0 34 -22 64 -49z"/>
<path fill="#ffffff" stroke="none" d="M1336 6663 c-14 -117 -38 -250 -57
-313 -25 -82 -61 -170 -70 -170 -4 0 -15 12 -25 28 -51 79 -257 280 -384 376
l-134 101 294 6 c167 3 308 11 325 17 56 19 58 18 51 -45z"/>
<path fill="#ffffff" stroke="none" d="M9689 6550 c39 -20 267 -105 356 -133
28 -9 104 -26 170 -37 66 -12 124 -25 128 -29 4 -4 -20 -21 -55 -37 -196 -90
-420 -207 -468 -243 -30 -22 -57 -37 -60 -33 -10 11 -36 89 -69 207 -34 123
-62 325 -46 325 3 0 23 -9 44 -20z"/>
<path fill="#ffffff" stroke="none" d="M773 6535 c20 -14 37 -29 37 -33 0 -13
-90 -84 -144 -113 -32 -18 -66 -29 -92 -29 -41 0 -64 -13 -64 -38 0 -8 31 -47
69 -88 62 -66 141 -185 141 -212 0 -13 -16 -19 -73 -27 l-46 -7 -38 63 c-21
34 -57 91 -80 126 -24 35 -43 65 -43 68 0 3 -20 34 -44 70 -25 35 -41 67 -37
69 4 3 34 15 67 27 49 18 176 82 269 136 30 17 37 15 78 -12z"/>
<path fill="#ffffff" stroke="none" d="M1020 6316 c135 -137 158 -167 136
-185 -23 -19 -139 -58 -255 -86 -130 -31 -125 -33 -160 56 -12 31 -47 87 -77
125 -54 68 -55 69 -32 78 78 33 112 53 169 100 44 37 69 51 79 46 8 -5 71 -65
140 -134z"/>
<path fill="#ffffff" stroke="none" d="M10510 6175 c201 -131 187 -119 171
-139 -7 -9 -39 -32 -71 -51 -31 -19 -89 -68 -127 -109 l-71 -74 -51 11 c-28 5
-51 15 -51 21 0 39 115 146 194 181 81 36 76 72 -13 89 -44 8 -167 68 -206
100 l-30 24 45 21 c25 11 50 21 55 21 6 0 75 -43 155 -95z"/>
<path fill="#ffffff" stroke="none" d="M10268 6146 c44 -29 95 -59 116 -66 20
-6 36 -14 36 -17 0 -3 -32 -35 -71 -71 -38 -35 -79 -82 -89 -103 -11 -21 -23
-40 -27 -42 -5 -3 -64 11 -133 29 -128 35 -270 95 -270 113 0 16 66 57 219
138 75 39 137 72 138 72 1 1 38 -23 81 -53z"/>
<path fill="#ffffff" stroke="none" d="M1157 6036 c-3 -8 -22 -66 -42 -128
-42 -133 -58 -252 -49 -363 l7 -80 -69 74 c-63 68 -206 185 -243 199 -9 3 -56
30 -106 60 -49 30 -109 63 -132 73 -24 10 -43 22 -43 27 0 5 28 12 63 16 34 3
105 15 157 25 52 11 135 27 184 37 50 9 128 30 175 45 103 33 105 33 98 15z"/>
<path fill="#ffffff" stroke="none" d="M9878 5901 c89 -45 219 -87 382 -126
63 -14 123 -31 132 -36 10 -5 38 -9 63 -9 25 0 45 -4 45 -9 0 -15 -201 -94
-405 -161 -104 -33 -201 -68 -213 -76 -13 -9 -27 -13 -30 -9 -3 3 -12 71 -19
151 -6 80 -16 159 -22 177 -14 42 -25 137 -17 137 4 0 41 -17 84 -39z"/>
<path fill="#ffffff" stroke="none" d="M646 5744 c24 -14 46 -30 49 -34 8 -13
-78 -69 -146 -95 -33 -13 -85 -27 -117 -30 -31 -4 -65 -9 -74 -11 -27 -8 -21
-41 10 -61 116 -73 271 -208 272 -236 0 -4 -20 -16 -45 -27 l-46 -20 -98 103
c-73 75 -124 118 -195 162 -96 59 -124 81 -114 91 3 3 66 28 139 55 74 28 139
55 145 60 14 11 145 67 162 68 7 1 33 -11 58 -25z"/>
<path fill="#ffffff" stroke="none" d="M838 5628 c59 -40 172 -154 192 -191
12 -25 12 -29 0 -37 -14 -9 -320 -110 -333 -110 -3 0 -26 26 -50 58 -25 31
-75 81 -111 111 -36 30 -63 58 -59 62 5 3 38 16 75 28 38 12 101 41 140 66 40
24 79 45 86 45 7 0 34 -14 60 -32z"/>
<path fill="#ffffff" stroke="none" d="M10490 5496 c87 -90 121 -117 257 -202
35 -21 61 -43 60 -48 -2 -5 -59 -30 -128 -56 -68 -25 -146 -58 -174 -72 -27
-14 -74 -33 -104 -44 l-53 -19 -46 26 c-25 14 -48 31 -50 37 -6 18 97 80 168
101 36 11 88 22 117 26 29 4 58 14 65 22 14 17 17 15 -117 112 -86 62 -175
147 -175 167 0 10 60 42 83 43 4 1 48 -41 97 -93z"/>
<path fill="#ffffff" stroke="none" d="M10286 5493 c42 -52 100 -110 152 -150
17 -14 32 -29 32 -33 0 -5 -30 -17 -67 -29 -38 -11 -106 -43 -152 -70 -84 -50
-85 -50 -114 -33 -93 55 -252 221 -230 243 7 7 307 112 335 118 4 0 24 -20 44
-46z"/>
<path fill="#ffffff" stroke="none" d="M1100 5333 c0 -52 23 -252 40 -343 10
-58 17 -106 16 -107 -1 -2 -32 13 -68 32 -80 43 -241 96 -408 136 -68 17 -130
35 -137 40 -6 6 -20 10 -30 9 -42 -5 -77 0 -67 9 19 20 187 85 389 152 116 38
217 73 225 79 23 15 40 12 40 -7z"/>
<path fill="#ffffff" stroke="none" d="M9967 5261 c48 -48 108 -101 132 -117
76 -50 233 -143 306 -181 l70 -37 -45 -7 c-258 -43 -475 -89 -574 -121 -32
-11 -61 -17 -64 -13 -3 3 2 27 12 53 44 116 77 265 78 356 1 50 -2 106 -6 124
-4 17 -5 32 -2 32 3 0 45 -40 93 -89z"/>
<path fill="#ffffff" stroke="none" d="M632 5004 c29 -18 -123 -172 -189 -192
-45 -13 -68 -35 -60 -55 3 -7 43 -26 89 -41 80 -26 208 -96 208 -114 0 -4 -20
-18 -45 -30 l-46 -22 -127 83 c-70 46 -146 94 -169 107 -24 13 -43 27 -43 31
0 8 57 53 115 90 22 14 67 56 100 92 l60 67 49 -6 c28 -3 53 -7 58 -10z"/>
<path fill="#ffffff" stroke="none" d="M862 4944 c130 -38 230 -78 249 -100
14 -17 -54 -61 -232 -153 l-124 -64 -83 56 c-46 31 -99 61 -117 67 l-34 11 84
82 c47 47 86 94 90 110 9 35 17 35 167 -9z"/>
<path fill="#ffffff" stroke="none" d="M10380 4778 c22 -35 78 -123 126 -197
47 -73 82 -137 77 -141 -4 -4 -33 -16 -63 -25 -30 -10 -111 -49 -179 -86 -133
-72 -130 -71 -185 -27 l-28 24 63 52 c65 53 148 92 197 92 27 0 52 15 52 32 0
4 -33 44 -73 88 -70 75 -137 180 -137 213 0 14 49 32 98 36 7 1 30 -27 52 -61z"/>
<path fill="#ffffff" stroke="none" d="M10205 4724 c19 -42 55 -101 80 -130
47 -55 55 -74 30 -74 -28 0 -112 -48 -174 -100 -33 -27 -64 -50 -69 -50 -15 0
-292 287 -292 303 0 9 10 23 23 31 43 27 277 93 334 95 31 1 34 -3 68 -75z"/>
<path fill="#ffffff" stroke="none" d="M1214 4713 c49 -150 78 -279 83 -373
l6 -94 -27 18 c-70 45 -412 162 -531 181 -88 13 -145 27 -145 34 0 4 37 25 83
45 164 75 388 192 435 228 26 20 52 37 59 37 6 1 23 -34 37 -76z"/>
<path fill="#ffffff" stroke="none" d="M9844 4520 c126 -136 214 -217 324
-297 56 -41 99 -79 96 -84 -3 -6 -63 -7 -152 -4 -130 6 -369 -5 -474 -21 l-38
-6 6 48 c20 168 65 359 106 450 l21 48 16 -24 c9 -14 51 -63 95 -110z"/>
<path fill="#ffffff" stroke="none" d="M799 4374 c2 -2 -8 -33 -23 -68 -32
-74 -82 -137 -138 -172 -65 -41 -53 -55 95 -115 72 -29 197 -109 197 -126 -1
-5 -21 -23 -47 -42 l-46 -34 -31 18 c-17 10 -59 37 -93 59 -34 23 -109 70
-167 105 -58 35 -106 67 -106 70 0 4 25 31 55 61 30 29 87 100 127 157 l73
103 50 -6 c28 -3 52 -8 54 -10z"/>
<path fill="#ffffff" stroke="none" d="M1058 4301 c174 -61 208 -76 217 -99 2
-7 -17 -36 -43 -64 -60 -65 -232 -208 -250 -208 -8 0 -37 21 -66 47 -28 25
-85 62 -126 80 -41 19 -77 37 -79 39 -2 2 15 24 39 50 23 25 60 84 82 130 21
46 43 84 48 84 5 0 85 -27 178 -59z"/>
<path fill="#ffffff" stroke="none" d="M1320 4061 c0 -67 33 -232 64 -315 13
-37 40 -94 60 -126 20 -32 36 -60 36 -63 0 -3 -35 10 -77 28 -43 18 -112 40
-153 49 -68 14 -322 42 -445 48 l-50 3 45 30 c43 29 179 127 288 208 29 22 89
73 135 113 45 40 85 73 90 74 4 0 7 -22 7 -49z"/>
<path fill="#ffffff" stroke="none" d="M10099 4012 c16 -32 48 -81 70 -110 44
-56 47 -62 29 -62 -34 0 -181 -54 -207 -76 -17 -14 -37 -24 -45 -22 -44 10
-296 260 -296 294 0 7 16 16 38 19 20 4 44 8 52 10 8 1 86 3 172 4 l158 1 29
-58z"/>
<path fill="#ffffff" stroke="none" d="M10330 3933 c46 -76 91 -149 101 -162
11 -13 19 -29 19 -37 0 -15 -45 -30 -115 -38 -57 -7 -160 -38 -206 -61 -30
-16 -32 -16 -70 11 -53 36 -56 44 -28 64 35 27 188 70 226 63 44 -7 83 4 83
23 0 9 -27 43 -60 75 -55 54 -140 170 -140 191 0 4 24 8 54 8 l54 0 82 -137z"/>
<path fill="#ffffff" stroke="none" d="M9625 3978 c44 -66 158 -181 290 -291
66 -54 127 -107 135 -117 8 -10 25 -21 36 -24 12 -4 29 -15 39 -26 18 -19 17
-20 -6 -20 -82 1 -299 23 -448 44 -95 14 -184 23 -196 20 -13 -3 -25 -2 -28 3
-3 5 15 60 39 123 24 63 56 160 70 215 26 97 32 115 38 115 2 0 16 -19 31 -42z"/>
<path fill="#ffffff" stroke="none" d="M1038 3605 c10 -9 -37 -91 -80 -140
-21 -24 -68 -62 -104 -85 -52 -33 -65 -46 -62 -63 3 -20 15 -24 128 -44 112
-20 260 -67 260 -82 0 -3 -16 -23 -36 -43 -35 -37 -36 -38 -65 -22 -81 42
-232 84 -347 98 -66 7 -125 17 -131 20 -7 5 21 42 75 99 48 51 103 112 122
137 20 25 56 67 81 93 46 49 46 49 100 44 29 -3 56 -9 59 -12z"/>
<path fill="#ffffff" stroke="none" d="M1273 3579 c90 -23 207 -75 207 -93 0
-10 -122 -134 -221 -225 l-37 -33 -78 35 c-44 18 -112 42 -151 52 -40 11 -73
21 -73 24 0 3 22 25 49 49 28 23 75 80 106 127 65 98 64 98 198 64z"/>
<path fill="#ffffff" stroke="none" d="M9605 3485 c61 -8 134 -18 163 -21 29
-4 55 -10 57 -15 3 -4 16 -46 30 -94 14 -47 36 -108 50 -135 37 -73 35 -79
-22 -68 -27 5 -104 8 -172 6 l-125 -3 -43 81 c-42 80 -88 226 -78 251 6 16 6
16 140 -2z"/>
<path fill="#ffffff" stroke="none" d="M1623 3351 c32 -57 88 -143 123 -190
35 -47 64 -89 64 -92 0 -3 -64 -9 -142 -12 -79 -3 -181 -12 -228 -21 -139 -27
-272 -57 -317 -71 -24 -8 -43 -10 -43 -5 0 5 26 40 59 77 55 65 97 107 309
311 50 49 92 95 92 102 0 29 27 -3 83 -99z"/>
<path fill="#ffffff" stroke="none" d="M9450 3340 c12 -41 41 -111 65 -155 43
-82 190 -302 228 -342 11 -13 17 -26 14 -30 -4 -3 -46 6 -94 20 -49 15 -110
32 -138 38 -27 7 -58 16 -67 21 -22 11 -299 68 -332 68 -44 0 -39 20 21 78
122 120 210 248 243 357 23 74 21 75 60 -55z"/>
<path fill="#ffffff" stroke="none" d="M10005 3385 c23 -95 75 -220 129 -305
77 -123 80 -129 61 -136 -8 -4 -52 -1 -97 6 -45 6 -150 13 -233 16 -149 4
-150 4 -172 30 -68 85 -58 98 80 98 82 0 115 -5 168 -23 103 -37 122 -18 70
66 -50 81 -110 216 -117 261 l-7 43 53 -3 54 -3 11 -50z"/>
<path fill="#ffffff" stroke="none" d="M1800 3003 c0 -18 -57 -106 -143 -221
-88 -118 -93 -123 -122 -118 -16 3 -78 9 -137 12 -60 4 -108 9 -108 11 0 2 6
14 14 26 23 35 66 172 66 211 0 40 -10 36 140 65 94 19 290 28 290 14z"/>
<path fill="#ffffff" stroke="none" d="M1982 2888 c105 -114 159 -185 208
-271 l32 -57 -55 0 c-68 0 -334 -27 -407 -41 -30 -6 -104 -25 -163 -41 -60
-16 -110 -28 -113 -25 -3 2 13 26 36 53 134 163 286 364 316 420 20 35 39 64
44 64 4 0 50 -46 102 -102z"/>
<path fill="#ffffff" stroke="none" d="M1300 2918 c0 -51 -54 -179 -96 -229
-58 -67 -45 -99 33 -77 39 11 257 7 269 -5 4 -3 -8 -25 -26 -47 l-33 -42 -71
7 c-39 4 -107 13 -151 21 -44 8 -99 14 -122 14 -23 0 -45 5 -49 11 -3 6 19 61
50 123 31 61 62 135 69 165 12 48 18 56 48 67 55 20 79 18 79 -8z"/>
<path fill="#ffffff" stroke="none" d="M9290 2865 c165 -34 153 -25 147 -109
-4 -50 0 -95 14 -154 10 -45 19 -85 19 -87 0 -3 -38 -5 -84 -5 -56 0 -106 -7
-148 -20 -50 -16 -65 -17 -75 -7 -17 16 -133 351 -133 381 0 12 3 26 8 30 10
11 116 -2 252 -29z"/>
<path fill="#ffffff" stroke="none" d="M8990 2842 c0 -60 119 -391 186 -517
36 -69 64 -129 62 -135 -1 -5 -56 17 -121 50 -159 81 -349 164 -422 185 -33
10 -62 19 -63 20 -5 5 57 100 124 192 64 88 202 233 221 233 8 0 13 -12 13
-28z"/>
<path fill="#ffffff" stroke="none" d="M9559 2798 c58 -13 55 -7 71 -168 6
-58 15 -141 20 -185 5 -44 9 -89 9 -100 1 -19 -6 -20 -208 -22 l-208 -1 -22
39 c-12 21 -20 43 -17 48 8 13 135 41 184 41 21 0 60 -7 85 -16 87 -29 93 -11
47 133 -22 69 -30 112 -30 168 0 41 4 75 9 75 5 0 32 -5 60 -12z"/>
<path fill="#ffffff" stroke="none" d="M2217 2493 c4 -9 -5 -51 -19 -92 -29
-83 -113 -267 -126 -275 -4 -2 -39 4 -77 15 -45 12 -101 19 -158 19 -81 0 -89
2 -82 18 23 60 36 153 31 215 -8 84 -9 83 169 101 193 20 254 20 262 -1z"/>
<path fill="#ffffff" stroke="none" d="M1718 2343 c-3 -84 -8 -116 -23 -142
-11 -18 -25 -43 -32 -54 -8 -14 -9 -27 -2 -38 8 -16 21 -17 127 -12 118 6 252
-9 252 -28 0 -5 -10 -29 -22 -54 -21 -43 -24 -45 -65 -45 -23 0 -75 4 -115 10
-40 5 -125 14 -188 21 -63 6 -118 13 -122 15 -4 3 2 29 13 60 11 30 33 120 47
201 l27 146 40 13 c70 21 68 25 63 -93z"/>
<path fill="#ffffff" stroke="none" d="M2316 2398 c33 -66 154 -226 205 -272
28 -25 76 -61 105 -79 29 -17 54 -35 54 -38 0 -3 -44 -9 -97 -12 -56 -3 -137
-16 -188 -30 -92 -25 -299 -103 -368 -139 -22 -11 -41 -17 -44 -14 -3 3 6 24
20 48 113 194 235 441 271 551 8 26 24 21 42 -15z"/>
<path fill="#ffffff" stroke="none" d="M8604 2262 c20 -92 74 -236 142 -381
30 -63 54 -118 54 -122 0 -4 11 -25 25 -45 14 -20 23 -39 21 -42 -9 -8 -171
85 -351 203 -98 65 -194 124 -212 131 -18 8 -33 18 -33 23 0 4 39 44 88 88 48
44 121 119 162 167 84 96 77 97 104 -22z"/>
<path fill="#ffffff" stroke="none" d="M8855 2292 c83 -36 155 -70 162 -76 6
-6 16 -56 22 -111 6 -55 14 -114 17 -131 l6 -31 -69 14 c-42 9 -97 13 -145 10
-52 -3 -78 -1 -81 6 -102 244 -145 375 -129 392 11 11 68 -8 217 -73z"/>
<path fill="#ffffff" stroke="none" d="M9147 2153 c21 -10 40 -18 42 -20 3 -2
40 -349 41 -386 0 -16 -5 -18 -42 -12 -23 4 -67 16 -97 26 -31 11 -95 22 -144
26 l-88 6 -25 48 c-13 27 -24 51 -24 55 0 4 44 4 98 1 86 -4 107 -9 160 -37
101 -52 109 -38 57 110 -29 84 -45 200 -27 200 6 0 28 -8 49 -17z"/>
<path fill="#ffffff" stroke="none" d="M2694 1954 c9 -3 16 -14 16 -23 0 -9
-26 -87 -58 -171 l-58 -155 -99 -7 c-55 -4 -128 -13 -163 -21 -58 -13 -63 -12
-59 2 3 9 17 48 31 88 15 39 29 105 33 147 3 42 11 80 17 85 44 34 290 74 340
55z"/>
<path fill="#ffffff" stroke="none" d="M2904 1882 c56 -38 143 -91 194 -118
50 -27 92 -52 92 -55 0 -4 -35 -23 -77 -44 -106 -50 -186 -101 -330 -211 -68
-52 -126 -94 -130 -94 -5 0 -21 -16 -36 -35 -32 -40 -47 -45 -40 -12 26 113
72 249 164 487 16 42 32 93 36 113 3 20 10 37 16 37 5 0 55 -31 111 -68z"/>
<path fill="#ffffff" stroke="none" d="M8401 1855 c73 -48 137 -90 141 -94 4
-3 1 -33 -6 -66 -8 -33 -16 -102 -20 -154 -3 -52 -8 -97 -11 -99 -3 -3 -24 8
-48 25 -54 39 -109 66 -177 88 -84 27 -85 28 -84 163 1 137 24 237 53 229 9
-2 78 -44 152 -92z"/>
<path fill="#ffffff" stroke="none" d="M8164 1868 c-26 -124 -11 -402 32 -587
8 -35 13 -66 10 -68 -4 -5 -198 159 -258 218 -35 35 -227 178 -256 192 -33 15
-22 29 39 48 153 48 318 140 399 224 19 19 37 35 40 35 4 0 1 -28 -6 -62z"/>
<path fill="#ffffff" stroke="none" d="M2267 1798 c-8 -80 -37 -164 -81 -235
-59 -94 -46 -98 149 -44 67 18 135 30 174 31 62 0 63 0 57 -25 -18 -73 -13
-70 -152 -84 -104 -10 -154 -21 -259 -56 -71 -24 -133 -41 -137 -37 -5 5 10
62 32 127 23 66 45 141 50 168 5 26 19 78 30 115 20 64 23 69 63 84 76 30 81
27 74 -44z"/>
<path fill="#ffffff" stroke="none" d="M8650 1695 c22 -14 40 -26 40 -28 0 -1
-7 -26 -15 -56 -23 -87 -28 -252 -12 -364 12 -83 12 -100 1 -104 -8 -3 -47 15
-87 40 -39 25 -128 75 -197 112 -69 36 -131 72 -138 79 -16 16 -29 126 -15
126 23 0 123 -40 164 -65 24 -15 67 -50 95 -77 33 -32 58 -49 70 -46 18 3 19
13 15 155 -3 148 9 253 30 253 5 0 27 -11 49 -25z"/>
<path fill="#ffffff" stroke="none" d="M3462 1608 c163 -69 308 -154 308 -179
0 -5 -16 -15 -35 -24 -42 -17 -201 -109 -295 -170 -36 -24 -110 -82 -164 -129
-55 -47 -104 -86 -108 -86 -11 0 -1 55 23 135 27 91 80 360 86 443 l6 74 28
-6 c15 -3 83 -29 151 -58z"/>
<path fill="#ffffff" stroke="none" d="M3210 1604 c0 -61 -59 -356 -74 -370
-6 -6 -35 -16 -64 -22 -29 -7 -80 -25 -114 -42 -33 -17 -62 -29 -63 -28 -1 2
-6 51 -12 109 -6 58 -18 120 -27 137 l-16 31 41 35 c87 74 282 195 317 196 8
0 12 -16 12 -46z"/>
<path fill="#ffffff" stroke="none" d="M7526 1588 c-3 -13 -17 -97 -31 -188
-19 -129 -25 -205 -25 -349 0 -212 5 -207 -89 -81 -89 122 -247 306 -301 351
-28 23 -50 45 -50 48 0 7 18 17 170 103 91 51 241 115 305 131 11 3 22 5 24 6
2 0 1 -9 -3 -21z"/>
<path fill="#ffffff" stroke="none" d="M7659 1563 c55 -32 230 -163 250 -187
13 -15 10 -25 -21 -84 -20 -37 -44 -103 -53 -147 -10 -44 -19 -82 -21 -84 -2
-2 -12 3 -21 11 -28 25 -135 66 -191 74 -89 12 -87 4 -63 211 11 99 25 192 31
207 12 33 32 33 89 -1z"/>
<path fill="#ffffff" stroke="none" d="M3814 1363 c14 -45 26 -168 26 -270 0
-128 1 -126 -87 -138 -29 -4 -90 -25 -134 -46 -45 -22 -83 -38 -85 -36 -2 2
-9 30 -15 62 -6 33 -29 94 -50 138 -49 97 -57 86 132 202 178 110 203 120 213
88z"/>
<path fill="#ffffff" stroke="none" d="M2801 1343 c19 -50 22 -184 5 -237 -10
-34 -12 -55 -5 -68 12 -22 32 -23 48 -4 34 41 249 141 267 124 3 -4 1 -29 -5
-55 l-12 -48 -172 -58 c-95 -32 -181 -59 -192 -60 -19 -2 -20 4 -21 143 0 80
-4 163 -8 186 -7 38 -5 43 29 72 44 39 53 40 66 5z"/>
<path fill="#ffffff" stroke="none" d="M4105 1227 c89 -44 187 -75 270 -83 35
-4 62 -10 60 -14 -3 -5 -33 -22 -68 -38 -60 -29 -233 -160 -251 -191 -5 -9
-46 -54 -91 -101 -44 -47 -93 -101 -107 -120 -15 -19 -29 -32 -31 -30 -3 3 0
75 4 160 5 85 9 238 8 340 -1 102 -1 188 0 192 0 4 31 -12 69 -36 37 -24 99
-59 137 -79z"/>
<path fill="#ffffff" stroke="none" d="M6946 1298 c-37 -133 -55 -302 -57
-540 -1 -98 -3 -178 -4 -178 -15 0 -173 242 -303 465 -19 33 -44 70 -54 82
-11 12 -17 26 -14 31 3 5 63 28 134 51 70 22 161 56 202 75 90 42 105 44 96
14z"/>
<path fill="#ffffff" stroke="none" d="M8019 1283 l42 -38 -22 -60 c-12 -33
-46 -130 -75 -215 -29 -85 -57 -156 -62 -158 -6 -2 -37 14 -69 35 -33 21 -114
61 -180 88 l-121 50 -4 45 c-3 25 -1 49 3 54 10 12 138 -18 189 -44 22 -11 52
-34 67 -51 19 -21 35 -29 52 -27 25 3 27 8 44 118 17 112 63 240 85 240 5 0
28 -17 51 -37z"/>
<path fill="#ffffff" stroke="none" d="M7036 1274 c20 -14 179 -194 242 -275
10 -14 7 -28 -17 -82 -17 -37 -35 -93 -42 -127 -11 -58 -21 -72 -34 -50 -13
21 -132 95 -180 112 l-50 17 2 133 c2 131 27 288 45 288 5 0 20 -7 34 -16z"/>
<path fill="#ffffff" stroke="none" d="M4715 1115 c61 -8 157 -18 214 -23
l104 -7 -47 -55 c-78 -91 -147 -202 -230 -375 -27 -55 -54 -106 -60 -114 -6
-8 -16 -30 -21 -49 -6 -20 -15 -37 -21 -39 -16 -5 -51 217 -69 440 -8 104 -20
197 -25 207 -6 10 -10 21 -10 24 0 10 49 7 165 -9z"/>
<path fill="#ffffff" stroke="none" d="M5628 1100 l54 -12 -30 -32 c-86 -90
-257 -382 -317 -538 -31 -82 -40 -79 -60 19 -34 172 -104 440 -129 493 -14 30
-22 58 -17 63 25 25 397 30 499 7z"/>
<path fill="#ffffff" stroke="none" d="M3418 1033 c32 -68 37 -88 39 -158 2
-99 0 -92 17 -98 14 -6 22 -2 131 61 72 40 159 72 202 72 21 0 23 -4 23 -60 0
-33 -1 -60 -2 -60 -6 0 -239 -81 -318 -110 -127 -47 -122 -48 -136 40 -6 41
-26 132 -44 201 l-34 126 35 31 c19 17 38 32 42 32 4 0 25 -35 45 -77z"/>
<path fill="#ffffff" stroke="none" d="M6394 1098 c-5 -7 -25 -35 -46 -62 -21
-27 -57 -88 -79 -135 -50 -106 -50 -106 -84 -216 -15 -49 -31 -101 -35 -115
-5 -14 -14 -49 -21 -77 -7 -29 -16 -53 -19 -53 -4 0 -21 35 -38 78 -93 234
-160 377 -238 509 -10 17 -16 34 -13 37 3 3 44 1 90 -5 128 -18 308 -7 394 24
83 29 99 31 89 15z"/>
<path fill="#ffffff" stroke="none" d="M4495 1079 c4 -6 11 -58 16 -117 4 -58
11 -135 14 -171 l6 -66 -68 -32 c-37 -18 -98 -55 -135 -83 -36 -27 -69 -50
-71 -50 -2 0 -8 37 -12 82 -3 45 -19 118 -35 163 -19 59 -25 87 -18 99 14 25
165 135 223 162 56 27 71 29 80 13z"/>
<path fill="#ffffff" stroke="none" d="M6496 1053 c46 -69 154 -254 154 -265
0 -6 -18 -36 -41 -66 -23 -29 -60 -90 -84 -134 l-43 -80 -37 63 c-20 35 -68
96 -106 135 l-69 72 15 41 c36 103 142 269 173 271 7 0 24 -17 38 -37z"/>
<path fill="#ffffff" stroke="none" d="M5778 987 c47 -75 142 -261 142 -279 0
-7 -28 -34 -63 -59 -35 -25 -83 -72 -108 -104 -24 -32 -47 -58 -52 -57 -4 1
-26 25 -50 54 -23 28 -70 72 -104 97 -34 25 -62 52 -62 58 -1 13 34 73 134
228 98 152 104 155 163 62z"/>
<path fill="#ffffff" stroke="none" d="M5092 986 c10 -25 36 -113 57 -195 l40
-148 -97 -99 -97 -99 -35 70 c-19 39 -56 91 -81 117 l-46 46 59 114 c66 125
154 251 172 245 6 -2 19 -25 28 -51z"/>
<path fill="#ffffff" stroke="none" d="M7370 880 l32 -40 -25 -63 c-42 -104
-85 -220 -98 -264 -7 -24 -18 -43 -25 -43 -7 0 -39 24 -71 53 -63 58 -167 131
-208 147 -23 9 -25 15 -25 65 0 64 7 67 72 34 66 -33 117 -74 154 -124 26 -34
42 -45 57 -43 20 3 23 11 29 82 4 43 12 95 18 115 23 75 42 121 50 121 5 0 23
-18 40 -40z"/>
<path fill="#ffffff" stroke="none" d="M4158 753 c26 -85 36 -174 24 -234 -10
-51 -1 -79 24 -79 9 0 53 35 99 77 80 74 194 153 221 153 6 0 14 -14 18 -31
13 -64 9 -74 -41 -98 -94 -45 -190 -115 -281 -204 -57 -56 -96 -87 -101 -81
-5 5 -14 52 -20 104 -6 52 -18 124 -26 160 -8 36 -20 100 -26 143 l-11 79 38
39 c21 21 43 39 49 39 6 0 21 -30 33 -67z"/>
<path fill="#ffffff" stroke="none" d="M6714 696 c14 -19 26 -39 26 -45 0 -6
-16 -31 -35 -57 -62 -81 -114 -179 -155 -295 -22 -62 -44 -117 -49 -122 -5 -5
-46 48 -95 120 -47 70 -110 160 -140 198 -30 39 -55 77 -55 86 -1 29 31 109
44 109 7 0 36 -25 64 -55 44 -49 90 -130 130 -228 8 -21 17 -27 32 -25 16 2
28 21 49 78 43 119 127 270 151 270 3 0 18 -15 33 -34z"/>
<path fill="#ffffff" stroke="none" d="M5970 600 c11 -21 20 -46 20 -54 0 -13
-311 -336 -324 -336 -3 0 -22 26 -42 58 -20 31 -77 103 -127 160 l-90 103 14
41 c7 22 19 42 26 45 17 7 114 -66 148 -111 15 -19 34 -57 44 -83 27 -76 48
-71 112 24 53 80 162 193 185 193 8 0 23 -18 34 -40z"/>
<path fill="#ffffff" stroke="none" d="M4891 500 c21 -36 41 -85 45 -110 15
-102 48 -108 95 -19 40 74 153 199 167 184 6 -5 13 -30 17 -55 l6 -45 -142
-139 c-160 -156 -150 -154 -190 -47 -26 70 -85 179 -115 211 l-23 25 25 54 24
54 26 -24 c14 -13 43 -53 65 -89z"/>
<path fill="#000000" stroke="none" d="M4700 9622 c-36 -10 -112 -31 -170 -47
-183 -48 -482 -184 -650 -294 -123 -80 -270 -150 -390 -185 -300 -87 -473
-166 -598 -275 -232 -202 -399 -399 -562 -661 -76 -121 -154 -211 -271 -315
-117 -103 -268 -266 -323 -349 -20 -31 -45 -80 -56 -109 -10 -28 -36 -90 -58
-137 -71 -152 -140 -432 -168 -683 -18 -169 -48 -288 -107 -434 -50 -123 -74
-190 -114 -318 -27 -88 -28 -95 -26 -310 1 -208 3 -229 37 -395 34 -173 61
-267 129 -467 40 -114 67 -256 67 -347 0 -68 21 -244 45 -379 19 -107 45 -184
83 -245 16 -26 49 -85 72 -132 24 -47 55 -101 70 -120 15 -19 40 -54 56 -76
81 -116 162 -212 290 -344 151 -156 202 -222 284 -370 77 -139 196 -314 259
-383 31 -33 81 -76 111 -95 30 -20 57 -38 60 -42 14 -18 125 -94 200 -137 135
-77 354 -177 490 -223 165 -57 232 -91 424 -220 255 -171 373 -231 491 -250
39 -7 114 -21 168 -31 145 -29 469 -36 649 -15 170 20 356 20 468 1 251 -44
496 -56 590 -29 30 8 102 28 160 43 188 49 479 182 660 300 130 85 252 142
400 186 156 46 337 113 426 158 156 79 495 423 642 652 149 233 180 273 281
370 293 281 401 406 437 502 9 26 34 85 55 130 39 85 92 246 115 348 7 33 22
101 33 151 11 50 25 144 31 210 13 149 47 284 110 439 61 153 117 326 135 422
40 209 -23 664 -136 986 -65 183 -86 287 -99 476 -20 285 -53 446 -116 558
-20 36 -54 100 -75 142 -72 144 -236 358 -414 541 -148 151 -199 217 -270 340
-167 293 -269 430 -370 500 -22 15 -83 60 -135 99 -117 88 -445 254 -605 306
-156 51 -306 128 -483 249 -191 130 -356 214 -449 228 -37 6 -104 19 -148 30
-57 14 -138 22 -280 27 -199 8 -287 5 -545 -19 -143 -14 -131 -15 -495 35
-188 26 -340 28 -415 7z"/>
<path fill="#ffffff" stroke="none" d="M5075 9575 c72 -7 168 -21 215 -29 111
-20 310 -20 452 0 157 22 501 14 638 -15 52 -11 114 -21 138 -21 97 0 275 -86
507 -244 173 -118 291 -179 465 -241 203 -71 511 -227 592 -299 18 -16 64 -47
102 -70 122 -73 215 -192 401 -516 71 -123 140 -212 246 -320 117 -119 187
-200 272 -315 116 -156 124 -168 161 -243 19 -40 44 -85 54 -100 78 -110 122
-302 142 -620 12 -184 24 -242 98 -467 36 -106 71 -237 86 -320 15 -77 31
-159 36 -182 6 -23 10 -79 11 -125 0 -46 4 -114 8 -153 14 -127 -18 -264 -132
-562 -85 -223 -95 -259 -118 -442 -22 -184 -40 -277 -81 -426 -17 -60 -34
-124 -38 -141 -4 -17 -26 -72 -49 -121 -22 -49 -41 -95 -41 -102 0 -30 -63
-143 -117 -211 -32 -41 -136 -149 -230 -239 -197 -188 -239 -238 -352 -415
-120 -188 -299 -404 -421 -506 -28 -24 -78 -70 -111 -102 -77 -77 -201 -137
-454 -218 -257 -83 -348 -122 -495 -215 -193 -121 -443 -237 -615 -286 -55
-15 -138 -40 -185 -54 -79 -25 -93 -26 -210 -20 -69 3 -154 10 -190 15 -36 6
-110 17 -165 25 -183 26 -270 28 -445 10 -132 -14 -212 -17 -400 -12 -129 4
-253 11 -275 17 -22 7 -86 18 -142 25 -153 21 -256 70 -541 262 -183 124 -245
156 -422 217 -121 43 -360 152 -480 220 -63 36 -140 90 -140 98 0 4 -37 28
-81 55 -89 53 -149 112 -231 230 -59 84 -162 253 -196 319 -37 73 -136 197
-260 324 -163 168 -374 444 -397 517 -3 13 -31 62 -60 109 -81 129 -103 219
-135 569 -24 259 -36 323 -98 500 -71 202 -129 479 -137 650 -2 44 -7 121 -10
170 -10 130 26 271 150 580 56 139 90 281 110 460 22 199 108 537 159 630 13
22 33 73 46 114 39 123 129 237 348 441 157 147 245 249 334 392 136 217 277
382 515 602 117 108 217 159 473 241 314 100 343 113 534 233 184 115 480 249
601 271 30 6 65 16 77 22 91 49 249 60 483 34z"/>
<path fill="#000000" stroke="none" d="M5260 9468 c-126 -7 -245 -25 -400 -60
-195 -44 -276 -58 -339 -58 -44 0 -100 -10 -166 -29 -315 -92 -280 -79 -590
-223 -236 -110 -392 -203 -550 -329 -172 -136 -244 -188 -295 -214 -201 -101
-665 -610 -854 -939 -16 -27 -71 -135 -123 -240 -52 -104 -110 -208 -128 -230
-29 -36 -115 -194 -115 -211 0 -4 -20 -58 -45 -121 -50 -127 -76 -216 -135
-471 -64 -277 -79 -404 -79 -693 -1 -127 -6 -217 -18 -287 -15 -89 -16 -118
-5 -240 7 -76 12 -155 12 -177 0 -69 102 -545 146 -681 37 -112 101 -266 179
-429 37 -76 76 -173 87 -215 30 -115 170 -368 297 -536 246 -325 396 -487 604
-652 67 -53 165 -140 217 -193 99 -100 118 -116 247 -203 43 -29 99 -68 126
-86 74 -51 490 -254 612 -299 125 -47 260 -85 455 -131 74 -18 165 -46 202
-62 66 -29 156 -50 378 -85 94 -14 176 -18 450 -18 364 0 400 4 740 80 63 14
174 31 245 39 96 10 165 24 265 55 200 62 254 83 493 196 283 135 420 218 607
369 126 102 183 143 246 176 32 17 79 48 104 67 96 77 284 262 364 357 272
324 351 440 496 730 58 115 124 235 147 265 73 96 184 373 241 602 105 415
110 451 122 818 6 162 14 313 20 335 20 84 7 402 -25 571 -9 49 -29 145 -45
214 -16 69 -31 143 -35 165 -10 60 -87 288 -133 390 -22 50 -67 150 -101 224
-34 74 -68 162 -77 195 -26 103 -181 382 -297 536 -236 314 -399 490 -607 654
-69 55 -165 141 -215 191 -104 106 -125 122 -300 240 -147 100 -540 298 -720
363 -60 22 -212 65 -337 96 -124 31 -252 68 -284 82 -75 33 -144 50 -279 69
-60 8 -135 20 -165 25 -71 12 -478 17 -640 8z"/>
<path fill="#ffffff" stroke="none" d="M5970 9399 c182 -25 300 -53 359 -85
25 -13 54 -24 65 -24 26 0 302 -66 406 -97 155 -46 289 -102 512 -214 238
-119 491 -281 577 -371 25 -27 55 -57 66 -69 11 -11 67 -59 125 -105 224 -182
439 -385 487 -462 9 -15 45 -61 78 -102 185 -226 376 -541 405 -666 7 -27 25
-76 40 -109 189 -395 239 -532 300 -818 23 -106 48 -219 56 -252 18 -81 37
-370 30 -475 -3 -47 -10 -218 -15 -380 -12 -378 -24 -456 -142 -915 -17 -66
-44 -151 -61 -189 -17 -39 -38 -93 -48 -120 -28 -81 -81 -183 -117 -225 -18
-22 -33 -42 -33 -46 0 -12 -154 -319 -205 -410 -63 -112 -150 -239 -225 -330
-207 -250 -270 -321 -367 -410 -150 -140 -201 -181 -252 -204 -24 -10 -60 -33
-80 -49 -201 -169 -486 -366 -622 -430 -24 -11 -102 -47 -172 -81 -70 -34
-130 -61 -132 -61 -2 0 -32 -13 -67 -29 -35 -16 -95 -38 -133 -49 -39 -11 -82
-25 -97 -31 -71 -27 -230 -64 -293 -67 -70 -3 -152 -18 -300 -54 -235 -57
-318 -64 -690 -65 -290 0 -365 3 -440 17 -49 10 -134 25 -188 34 -62 10 -119
27 -155 45 -31 16 -64 29 -72 29 -60 0 -495 120 -633 174 -127 51 -507 241
-576 289 -25 17 -80 54 -121 82 -114 76 -195 142 -224 183 -14 20 -42 48 -61
62 -91 66 -282 228 -384 326 -110 105 -165 171 -369 437 -132 173 -311 493
-312 556 0 13 -34 94 -76 180 -42 86 -92 194 -111 241 -47 114 -122 341 -129
393 -3 23 -14 76 -25 117 -65 264 -104 639 -80 762 6 35 14 167 16 293 5 289
25 489 65 645 11 41 36 143 56 225 53 215 176 529 237 601 14 16 78 135 143
264 118 233 230 416 322 522 26 31 92 111 147 178 161 197 456 460 517 460 10
0 18 4 18 9 0 20 370 295 500 373 160 95 574 286 682 313 35 9 86 24 113 34
68 25 204 52 257 51 24 0 70 6 103 14 384 94 552 114 915 109 195 -2 303 -9
410 -24z"/>
<path fill="#000000" stroke="none" d="M5359 9347 c-53 -35 -81 -83 -73 -126
20 -110 109 -158 210 -112 59 27 84 63 84 122 0 109 -130 177 -221 116z"/>
<path fill="#ffffff" stroke="none" d="M5499 9296 c51 -46 47 -101 -11 -136
-65 -40 -141 -12 -154 55 -7 37 24 81 70 101 36 15 62 10 95 -20z"/>
<path fill="#000000" stroke="none" d="M5957 9347 c-120 -38 -153 -148 -65
-222 23 -19 41 -25 78 -25 65 0 93 12 125 54 36 47 36 95 0 142 -22 29 -82 67
-97 63 -2 0 -20 -6 -41 -12z"/>
<path fill="#ffffff" stroke="none" d="M6045 9275 c77 -76 -53 -176 -133 -102
-36 33 -27 75 23 103 52 30 80 30 110 -1z"/>
<path fill="#000000" stroke="none" d="M4853 9275 c-73 -32 -98 -142 -44 -195
36 -37 67 -44 122 -30 51 14 119 77 119 110 0 32 -29 88 -58 110 -29 24 -92
26 -139 5z"/>
<path fill="#ffffff" stroke="none" d="M4983 9202 c20 -33 20 -34 0 -60 -10
-14 -38 -32 -61 -40 -38 -12 -45 -12 -67 2 -18 12 -25 25 -25 49 1 54 41 89
100 84 27 -1 38 -9 53 -35z"/>
<path fill="#000000" stroke="none" d="M4194 9155 c-86 -89 -60 -195 54 -220
43 -9 117 27 143 69 21 34 25 106 9 137 -15 27 -83 59 -126 59 -31 0 -45 -7
-80 -45z"/>
<path fill="#ffffff" stroke="none" d="M4329 9135 c55 -28 45 -98 -19 -134
-40 -22 -41 -22 -78 -4 -47 23 -51 49 -17 99 40 59 62 66 114 39z"/>
<path fill="#000000" stroke="none" d="M6499 9121 c-34 -34 -39 -45 -39 -84 0
-60 40 -103 104 -112 119 -18 188 51 157 156 -15 48 -68 79 -137 79 -41 0 -51
-5 -85 -39z"/>
<path fill="#ffffff" stroke="none" d="M6654 9089 c65 -51 5 -136 -81 -114
-94 23 -75 135 22 135 18 0 44 -9 59 -21z"/>
<path fill="#000000" stroke="none" d="M5129 9113 c-9 -10 -27 -38 -41 -63
-52 -91 -137 -170 -183 -170 -9 0 -28 9 -43 20 -15 11 -63 27 -107 36 -96 19
-191 13 -290 -16 -39 -11 -88 -26 -110 -32 -22 -6 -71 -27 -110 -46 -163 -80
-283 -178 -329 -270 -29 -57 -60 -72 -148 -72 -49 0 -88 24 -146 93 -26 30
-57 35 -66 11 -3 -9 -6 -37 -6 -63 0 -62 -25 -156 -56 -208 l-24 -42 -63 0
c-84 1 -206 -39 -283 -92 -236 -165 -424 -439 -424 -619 0 -39 -5 -51 -32 -77
-40 -37 -89 -63 -120 -63 -29 0 -109 24 -135 41 -24 15 -53 6 -53 -16 0 -8 11
-43 25 -77 36 -88 50 -181 36 -228 -9 -31 -17 -39 -44 -44 -38 -7 -145 -94
-190 -153 -62 -83 -143 -275 -168 -398 -8 -40 -14 -128 -14 -205 1 -120 3
-141 24 -188 22 -49 23 -58 11 -90 -15 -46 -54 -98 -82 -113 -12 -7 -56 -14
-97 -18 -100 -8 -104 -25 -26 -99 65 -62 122 -144 131 -190 6 -29 3 -37 -24
-60 -36 -32 -88 -147 -104 -229 -6 -36 -8 -115 -5 -203 6 -130 10 -157 43
-260 48 -154 94 -239 161 -300 l55 -51 -4 -76 c-4 -76 -4 -76 -47 -114 -25
-20 -62 -45 -83 -55 -64 -29 -50 -51 57 -88 149 -52 222 -116 197 -171 -16
-36 -15 -200 2 -255 81 -261 334 -557 515 -603 60 -15 81 -35 106 -102 26 -67
16 -98 -67 -218 -19 -26 13 -49 56 -39 17 4 76 7 131 7 130 0 159 -14 168 -80
10 -67 77 -181 149 -251 202 -197 539 -331 712 -283 36 10 42 8 80 -19 81 -58
105 -131 76 -231 -7 -24 -6 -39 1 -48 16 -19 21 -17 79 23 71 48 153 84 210
91 46 5 47 5 76 -38 40 -59 165 -143 251 -167 135 -39 197 -47 353 -46 145 0
161 2 255 32 64 20 113 42 138 63 35 29 42 31 91 25 74 -10 112 -36 141 -99
14 -28 25 -61 25 -72 0 -30 15 -47 35 -43 10 1 37 33 59 70 47 77 103 138 152
164 33 18 34 18 63 -4 36 -27 150 -52 232 -52 258 0 633 193 725 373 27 52 45
62 122 73 61 8 91 -7 160 -77 31 -31 56 -49 65 -46 16 6 27 51 27 112 0 53 33
161 59 195 18 22 28 25 88 26 138 2 271 70 424 216 84 80 190 228 232 325 31
69 51 164 42 193 -8 25 42 74 102 101 35 16 49 18 88 9 26 -6 60 -17 76 -25
15 -8 38 -15 50 -15 18 0 21 4 16 33 -3 17 -15 59 -27 91 -26 71 -36 180 -21
219 7 18 18 27 33 27 49 0 166 103 223 195 54 86 118 249 140 353 35 172 30
309 -16 407 l-22 46 23 49 c33 71 64 96 137 110 34 7 67 10 75 7 17 -6 48 10
48 26 0 7 -30 42 -66 77 -69 68 -109 126 -124 181 -9 30 -7 36 23 63 42 39 93
161 109 259 15 99 -2 291 -36 415 -41 144 -90 237 -163 310 -60 61 -63 66 -63
113 0 27 6 64 14 82 15 38 79 92 126 108 26 9 31 16 28 38 -3 22 -11 28 -63
42 -98 26 -190 79 -221 127 -14 22 -14 27 2 60 33 70 6 250 -58 377 -71 141
-115 202 -218 305 -108 108 -175 153 -259 174 -40 11 -49 18 -73 62 -16 28
-28 65 -28 87 0 39 37 124 64 146 21 17 21 50 0 58 -9 3 -51 1 -94 -5 -54 -8
-97 -8 -141 -1 -86 14 -109 30 -109 75 0 23 -15 65 -41 115 -125 240 -559 473
-801 429 -53 -10 -62 -9 -94 10 -19 12 -47 38 -62 58 -28 36 -30 55 -20 192 4
47 -22 51 -77 11 -73 -52 -165 -91 -217 -91 -42 0 -48 3 -66 34 -28 47 -143
130 -223 160 -258 96 -664 71 -791 -51 -23 -22 -32 -24 -65 -18 -80 14 -120
40 -148 94 -14 28 -29 68 -33 88 -9 42 -31 53 -53 26z"/>
<path fill="#ffffff" stroke="none" d="M5170 8952 c31 -58 79 -86 186 -108
100 -21 132 -37 149 -77 14 -31 13 -33 -27 -67 -57 -47 -150 -175 -176 -241
-39 -99 -74 -277 -81 -414 -6 -122 -7 -128 -19 -90 -6 22 -12 56 -12 75 0 80
-30 232 -59 293 -60 134 -165 252 -288 324 -39 23 -44 29 -38 52 18 79 35 96
131 132 62 23 125 75 169 139 15 22 31 38 34 35 3 -3 17 -27 31 -53z"/>
<path fill="#ffffff" stroke="none" d="M6064 8955 c133 -31 179 -51 256 -110
61 -47 76 -75 40 -75 -11 0 -41 -19 -65 -41 l-45 -42 -43 40 c-92 85 -195 123
-334 123 -89 0 -171 -18 -243 -55 -58 -29 -60 -30 -60 -11 0 22 -46 72 -80 86
-39 16 -38 26 8 49 142 72 356 86 566 36z"/>
<path fill="#ffffff" stroke="none" d="M4738 8876 c93 -17 104 -27 69 -62 -15
-15 -32 -45 -39 -68 -6 -22 -13 -42 -14 -44 -1 -2 -32 6 -69 17 -172 53 -365
-6 -504 -155 -38 -41 -72 -74 -76 -74 -4 0 -18 9 -32 20 -17 13 -41 20 -69 20
-23 0 -45 4 -48 8 -9 16 44 82 111 137 91 75 244 150 368 179 159 39 194 41
303 22z"/>
<path fill="#ffffff" stroke="none" d="M6021 8780 c33 -12 77 -31 97 -44 116
-73 240 -289 261 -453 15 -119 1 -195 -68 -381 -39 -104 -55 -234 -47 -377 7
-136 14 -161 76 -273 28 -50 50 -97 50 -104 0 -36 -269 -261 -402 -337 l-57
-32 -15 23 c-23 36 -101 225 -125 302 -35 115 -46 278 -28 436 12 98 13 155 7
207 -12 97 -74 348 -99 403 -25 54 -26 36 -6 -85 27 -163 18 -253 -50 -495
-29 -105 -42 -140 -53 -140 -14 0 -124 79 -165 118 -94 91 -116 169 -117 414
0 286 47 469 162 624 62 83 212 180 323 207 56 14 198 6 256 -13z"/>
<path fill="#ffffff" stroke="none" d="M6736 8737 c2 -75 28 -114 123 -186 83
-63 104 -93 99 -136 -3 -26 -10 -31 -73 -50 -76 -23 -175 -77 -242 -131 -59
-49 -202 -243 -259 -353 -60 -115 -70 -95 -20 36 19 50 43 128 52 173 34 157
-6 355 -102 500 -34 50 -27 82 26 118 32 22 42 24 112 18 84 -6 173 14 233 53
17 11 34 18 40 17 5 -1 10 -28 11 -59z"/>
<path fill="#ffffff" stroke="none" d="M4683 8669 c141 -48 297 -170 368 -290
56 -93 78 -170 95 -332 15 -145 42 -235 112 -372 61 -120 95 -157 225 -249 37
-26 67 -53 67 -60 0 -23 -47 -141 -108 -269 -64 -134 -135 -247 -156 -247 -22
0 -230 184 -283 252 -78 97 -147 225 -188 345 -52 152 -86 214 -173 316 -20
24 -61 73 -89 108 -29 35 -70 77 -90 94 l-37 29 24 -39 c13 -22 43 -67 66
-100 75 -108 110 -211 154 -464 11 -63 17 -117 15 -120 -3 -3 -54 3 -113 12
-210 34 -284 108 -416 419 -43 99 -92 275 -102 358 -9 79 12 224 42 289 116
256 368 394 587 320z"/>
<path fill="#ffffff" stroke="none" d="M7185 8535 c49 -14 120 -41 159 -59 83
-38 243 -154 303 -219 38 -42 113 -172 113 -197 0 -7 -12 -9 -33 -5 -19 4 -51
0 -80 -10 -48 -16 -67 -14 -67 8 0 7 -13 39 -29 72 -28 59 -100 137 -168 184
-62 42 -163 73 -263 80 l-95 6 -5 46 c-3 25 -15 58 -28 73 -12 16 -22 33 -22
37 0 19 129 9 215 -16z"/>
<path fill="#ffffff" stroke="none" d="M3768 8440 c37 0 92 7 122 15 85 23
132 20 160 -10 23 -25 23 -27 7 -54 -27 -45 -57 -195 -57 -281 0 -107 47 -300
105 -430 50 -113 49 -110 36 -110 -5 0 -39 50 -77 110 -37 61 -88 132 -111
159 -93 106 -259 188 -431 212 -36 5 -70 15 -74 22 -13 20 -9 96 6 125 8 15
33 45 55 67 43 41 73 106 86 185 4 25 9 48 12 52 2 4 24 -8 49 -27 42 -32 51
-35 112 -35z"/>
<path fill="#ffffff" stroke="none" d="M7213 8325 c80 -21 144 -55 205 -110
63 -57 93 -106 124 -205 19 -63 23 -95 21 -200 -1 -106 -5 -136 -27 -199 -39
-111 -69 -155 -196 -286 -124 -128 -171 -197 -242 -355 l-43 -95 0 -152 0
-153 -35 -14 c-49 -19 -256 -74 -348 -91 -42 -8 -105 -15 -140 -15 l-64 0 7
138 c13 276 58 424 189 625 69 106 86 146 115 262 12 50 26 106 31 125 13 51
33 207 27 222 -2 7 -19 -34 -37 -92 -40 -130 -89 -224 -170 -326 -93 -117
-181 -214 -195 -214 -14 0 -88 127 -109 187 -19 53 -22 165 -7 223 6 25 43
110 82 190 151 308 334 492 532 535 84 18 210 18 280 0z"/>
<path fill="#ffffff" stroke="none" d="M3404 8213 c-5 -10 -9 -48 -9 -85 l1
-68 -59 -6 c-87 -10 -187 -62 -262 -137 -70 -70 -108 -137 -141 -247 l-22 -75
-43 3 c-25 2 -57 -3 -81 -14 -21 -9 -41 -15 -43 -12 -11 11 19 116 52 182 19
38 60 104 91 146 62 84 216 223 297 267 55 30 154 61 199 62 23 1 27 -2 20
-16z"/>
<path fill="#ffffff" stroke="none" d="M3625 7981 c84 -22 151 -55 225 -110
67 -50 113 -108 187 -231 63 -106 148 -197 263 -282 100 -74 139 -93 240 -113
47 -9 101 -20 120 -24 33 -6 35 -10 43 -56 19 -127 8 -518 -17 -542 -2 -2 -65
12 -141 31 -231 60 -407 157 -547 304 -103 109 -136 133 -285 207 -128 63
-292 130 -300 121 -2 -2 40 -30 94 -61 127 -75 189 -128 277 -236 88 -110 171
-226 171 -242 0 -7 -36 -23 -80 -36 -110 -34 -238 -34 -310 -1 -180 82 -472
364 -546 526 -59 130 -73 247 -44 386 39 187 186 350 343 378 67 13 225 3 307
-19z"/>
<path fill="#ffffff" stroke="none" d="M7745 7997 c17 -7 52 -25 79 -41 42
-26 60 -30 148 -34 86 -4 99 -7 94 -21 -2 -9 -12 -36 -21 -59 -20 -56 -13 -97
35 -192 49 -98 56 -130 35 -170 -14 -27 -20 -31 -43 -25 -67 16 -190 17 -271
1 -136 -25 -332 -129 -508 -269 -9 -6 -13 -6 -13 2 0 6 44 55 98 109 114 115
150 166 194 276 32 79 33 86 34 241 l2 160 39 17 c44 20 57 21 98 5z"/>
<path fill="#ffffff" stroke="none" d="M5700 7573 c-7 -43 -12 -134 -12 -203
2 -188 31 -305 126 -518 25 -56 46 -106 46 -111 0 -5 -57 -42 -127 -82 -153
-89 -221 -143 -278 -220 -52 -71 -71 -139 -55 -198 14 -53 -6 -86 -69 -113
-74 -31 -129 -33 -180 -6 -132 69 -126 205 18 437 25 40 93 144 150 230 166
249 253 439 336 733 31 109 44 142 52 135 3 -4 0 -41 -7 -84z"/>
<path fill="#ffffff" stroke="none" d="M8279 7553 c54 -31 176 -146 229 -216
43 -57 131 -225 155 -298 19 -55 32 -209 19 -226 -6 -10 -17 -8 -47 7 -22 11
-56 20 -76 20 l-38 0 1 93 c1 80 -3 102 -30 170 -50 128 -140 227 -262 287
-69 34 -72 38 -53 66 12 19 14 39 10 80 l-6 56 27 -7 c15 -3 47 -18 71 -32z"/>
<path fill="#ffffff" stroke="none" d="M2893 7523 c14 -4 17 -17 17 -67 0 -73
30 -186 70 -266 40 -80 176 -241 270 -322 135 -115 120 -118 -53 -9 -134 84
-214 113 -347 126 -70 7 -231 -20 -304 -50 -30 -13 -41 -14 -53 -4 -43 36 -56
128 -28 196 21 51 17 158 -11 246 -5 16 1 17 64 11 81 -8 109 3 192 72 63 53
128 86 150 78 8 -4 23 -9 33 -11z"/>
<path fill="#ffffff" stroke="none" d="M4752 7424 c66 -196 197 -393 345 -517
43 -35 95 -80 116 -98 l39 -34 -76 -110 c-91 -132 -139 -226 -161 -320 -23
-98 -7 -186 39 -224 43 -36 -6 -138 -88 -186 -101 -59 -226 -8 -256 105 -15
58 -20 176 -10 260 5 41 14 113 19 160 6 47 18 130 27 185 30 179 21 517 -21
730 -37 194 -27 212 27 49z"/>
<path fill="#ffffff" stroke="none" d="M8065 7398 c149 -32 291 -139 361 -270
33 -64 38 -83 42 -158 5 -110 -13 -184 -78 -316 -41 -85 -61 -112 -124 -172
-87 -82 -129 -106 -292 -162 -158 -54 -231 -98 -377 -223 -73 -63 -105 -113
-152 -232 -37 -94 -38 -95 -72 -95 -51 0 -358 66 -438 93 -102 36 -105 38
-105 54 0 30 134 263 195 341 78 99 184 190 305 262 108 65 195 150 310 304
134 180 148 228 29 95 -41 -44 -101 -101 -134 -124 -76 -55 -353 -187 -410
-197 -17 -3 -21 4 -27 47 -26 198 21 326 164 446 166 139 381 267 499 299 105
29 198 31 304 8z"/>
<path fill="#ffffff" stroke="none" d="M6640 7303 c-11 -21 -39 -67 -62 -103
-106 -166 -154 -330 -169 -575 -5 -93 -12 -175 -14 -181 -2 -7 -66 -16 -161
-24 -87 -7 -185 -20 -218 -30 -135 -38 -223 -107 -247 -192 -18 -61 -42 -78
-114 -78 -175 0 -261 161 -157 293 33 41 134 127 172 147 14 7 61 36 105 65
44 29 99 63 122 76 22 13 72 42 110 63 171 99 331 238 588 514 32 34 60 62 62
62 2 0 -6 -17 -17 -37z"/>
<path fill="#ffffff" stroke="none" d="M2399 7007 c6 -24 20 -55 31 -69 11
-15 20 -31 20 -36 0 -6 -20 -22 -44 -36 -101 -59 -187 -200 -205 -336 -9 -70
-3 -174 15 -244 5 -22 2 -26 -33 -35 -21 -6 -52 -24 -68 -41 -16 -16 -32 -30
-36 -30 -17 0 -30 75 -31 167 0 107 14 207 38 281 25 72 111 251 140 289 27
35 139 133 153 133 5 0 14 -19 20 -43z"/>
<path fill="#ffffff" stroke="none" d="M4122 6766 c114 -80 235 -133 404 -178
l156 -42 -7 -56 c-3 -30 -13 -94 -21 -141 -18 -99 -14 -250 7 -321 20 -66 70
-132 116 -154 50 -24 64 -61 48 -125 -24 -92 -60 -132 -143 -160 -79 -26 -168
32 -231 151 -34 63 -40 79 -154 421 -102 305 -187 471 -384 748 -29 40 -53 78
-53 84 0 7 44 -32 98 -84 53 -53 127 -117 164 -143z"/>
<path fill="#ffffff" stroke="none" d="M3003 6909 c67 -23 115 -48 222 -119
91 -60 175 -94 307 -125 147 -34 224 -33 349 6 54 17 103 27 109 24 44 -27
250 -461 250 -526 0 -22 -269 -69 -394 -69 -129 0 -254 23 -381 70 -147 54
-214 63 -430 57 -195 -5 -272 -19 -174 -30 30 -4 74 -7 99 -7 68 0 215 -43
315 -93 99 -48 200 -103 236 -128 l24 -17 -65 -61 c-37 -34 -96 -77 -137 -97
-84 -43 -148 -49 -273 -29 -84 14 -301 70 -328 84 -9 6 -65 33 -124 60 -92 44
-119 62 -186 129 -95 93 -135 169 -164 310 -16 80 -17 106 -8 163 20 135 77
238 168 304 58 43 175 91 267 110 91 19 236 12 318 -16z"/>
<path fill="#ffffff" stroke="none" d="M8633 6762 c15 -15 40 -46 55 -70 28
-44 102 -101 169 -129 21 -8 40 -17 42 -19 2 -2 -16 -23 -41 -46 -56 -52 -68
-90 -68 -215 0 -105 -9 -135 -45 -159 -25 -16 -27 -16 -53 4 -54 43 -185 103
-270 123 -75 18 -105 20 -217 14 -71 -3 -161 -12 -200 -20 -143 -27 -152 -28
-130 -12 11 8 58 26 105 42 47 15 122 45 168 66 147 70 280 229 332 394 19 61
28 68 79 61 30 -4 55 -16 74 -34z"/>
<path fill="#ffffff" stroke="none" d="M7380 6635 c0 -3 -17 -15 -37 -28 -293
-186 -396 -294 -527 -556 l-57 -113 -32 6 c-18 3 -82 26 -142 51 -106 44 -238
75 -314 75 -71 0 -143 -29 -188 -76 -49 -51 -81 -56 -141 -25 -78 41 -122 104
-122 177 0 83 62 148 174 183 66 20 332 55 541 71 219 16 400 66 780 215 70
28 65 26 65 20z"/>
<path fill="#ffffff" stroke="none" d="M8410 6199 c145 -32 263 -104 350 -214
136 -171 158 -380 56 -537 -110 -170 -314 -300 -498 -315 -41 -4 -119 1 -201
12 -153 21 -225 15 -402 -31 -128 -33 -158 -49 -261 -141 l-86 -77 -32 18
c-120 65 -433 330 -423 360 2 6 53 48 113 93 186 141 365 213 574 234 58 6
132 17 165 25 69 17 385 171 430 209 l30 25 -75 -26 c-41 -15 -88 -33 -103
-41 -73 -37 -252 -50 -481 -36 l-108 6 6 29 c3 17 24 68 45 114 75 160 163
214 441 272 119 25 169 31 280 31 74 0 155 -4 180 -10z"/>
<path fill="#ffffff" stroke="none" d="M2275 6142 c31 -60 99 -143 161 -194
69 -58 274 -153 410 -190 63 -18 114 -35 114 -40 0 -11 -14 -10 -137 8 -253
38 -442 -19 -614 -183 -48 -46 -63 -54 -83 -49 -60 15 -106 85 -106 162 -1 41
-34 110 -86 176 l-45 57 28 7 c99 22 143 61 184 165 30 76 71 127 107 131 37
5 39 3 67 -50z"/>
<path fill="#ffffff" stroke="none" d="M8946 6094 c82 -147 120 -327 111 -525
-4 -105 -8 -124 -42 -202 -21 -48 -42 -87 -47 -87 -5 0 -26 17 -47 38 -21 20
-48 44 -62 53 l-23 16 26 40 c107 161 84 401 -54 580 l-40 53 30 25 c17 14 36
42 43 63 6 20 14 41 16 45 9 15 53 -36 89 -99z"/>
<path fill="#ffffff" stroke="none" d="M3398 6124 c226 -96 469 -116 737 -60
66 14 123 25 127 26 8 0 78 -211 78 -234 0 -26 85 -181 125 -231 46 -55 119
-95 182 -99 61 -3 89 -35 98 -111 11 -82 0 -120 -48 -169 -53 -56 -97 -66
-174 -42 -77 25 -157 89 -338 276 -225 231 -257 261 -375 353 -108 84 -244
170 -387 248 -76 40 -99 59 -73 59 6 0 27 -7 48 -16z"/>
<path fill="#ffffff" stroke="none" d="M5479 6116 c44 -47 161 -66 276 -45 14
3 21 -2 23 -17 8 -57 127 -149 212 -164 30 -5 35 -10 33 -30 -5 -76 76 -229
133 -250 23 -9 24 -11 9 -34 -27 -41 -36 -130 -21 -202 8 -36 22 -74 31 -84
17 -18 16 -20 -9 -31 -56 -26 -121 -166 -114 -246 3 -36 1 -38 -33 -43 -20 -4
-52 -16 -71 -28 -46 -29 -117 -106 -129 -141 -10 -28 -10 -28 -82 -23 -82 5
-172 -22 -214 -64 -29 -29 -29 -30 -65 1 -56 47 -185 67 -263 41 -17 -6 -23
-1 -33 28 -23 62 -153 156 -217 156 -23 0 -25 4 -25 40 0 60 -36 143 -83 193
-23 24 -49 46 -57 49 -12 4 -11 9 5 34 16 24 20 46 20 124 0 81 -3 101 -23
134 l-23 39 31 25 c17 13 42 42 56 63 28 45 54 145 47 183 -4 21 -1 26 14 26
64 0 207 118 220 180 5 26 9 29 27 23 11 -5 50 -8 86 -7 52 1 78 7 126 32 34
17 64 38 67 47 9 21 20 19 46 -9z"/>
<path fill="#ffffff" stroke="none" d="M6380 6004 c73 -17 285 -89 463 -158
193 -74 383 -115 632 -136 203 -17 247 -21 243 -25 -2 -3 -60 -11 -128 -19
-240 -28 -422 -102 -618 -251 -62 -47 -116 -85 -121 -85 -4 0 -55 50 -112 111
-113 122 -175 172 -261 213 -81 38 -143 44 -202 17 -61 -26 -87 -20 -131 32
-50 58 -69 122 -54 182 29 114 131 157 289 119z"/>
<path fill="#ffffff" stroke="none" d="M3658 5881 c178 -123 372 -292 372
-325 0 -20 -197 -165 -290 -215 -121 -64 -246 -100 -400 -116 -74 -8 -161 -23
-192 -34 -126 -43 -463 -222 -417 -221 7 0 59 19 114 41 149 59 253 74 456 65
91 -5 172 -12 179 -16 10 -6 3 -31 -29 -108 -81 -192 -172 -250 -491 -312
-133 -25 -365 -28 -455 -5 -225 58 -384 223 -431 444 -17 86 -6 179 31 256 60
123 221 267 361 322 62 24 82 27 199 27 72 1 175 -3 231 -8 118 -10 225 2 354
41 117 35 142 50 240 136 47 42 88 76 91 77 3 0 38 -22 77 -49z"/>
<path fill="#ffffff" stroke="none" d="M6447 5613 c87 -40 183 -127 463 -419
157 -163 333 -294 567 -423 157 -86 165 -107 20 -51 -90 36 -237 66 -357 75
-88 6 -149 0 -335 -34 -60 -12 -115 -21 -121 -21 -5 0 -32 69 -59 153 -26 83
-62 177 -79 207 -70 127 -162 200 -251 200 -53 0 -80 27 -95 95 -17 73 -6 125
37 175 20 23 46 46 57 50 36 15 114 11 153 -7z"/>
<path fill="#ffffff" stroke="none" d="M2016 5511 c18 -21 46 -44 63 -50 l29
-13 -41 -80 c-40 -76 -42 -83 -45 -187 -6 -153 21 -240 111 -359 l40 -53 -31
-30 c-18 -17 -37 -49 -42 -70 -6 -21 -15 -39 -20 -39 -16 0 -70 75 -102 140
-17 36 -44 112 -60 169 -25 90 -29 121 -30 250 -1 88 3 163 11 188 15 55 68
173 77 173 4 0 22 -17 40 -39z"/>
<path fill="#ffffff" stroke="none" d="M4449 5181 c93 -46 161 -54 228 -26 22
9 49 13 65 10 29 -7 85 -69 106 -118 33 -76 -4 -177 -78 -215 -40 -21 -55 -23
-131 -19 -49 3 -110 14 -145 27 -32 11 -86 29 -119 39 -33 10 -71 23 -85 29
-94 40 -326 123 -380 136 -232 54 -261 58 -582 82 -49 3 -90 9 -92 13 -3 4 46
12 108 18 229 23 417 99 625 251 l125 91 135 -138 c121 -123 145 -143 220
-180z"/>
<path fill="#ffffff" stroke="none" d="M8850 5319 c45 -26 58 -51 75 -146 14
-76 33 -115 91 -184 19 -23 34 -44 34 -49 0 -4 -20 -11 -45 -15 -67 -10 -109
-52 -162 -162 -68 -141 -123 -171 -164 -90 -31 62 -122 169 -182 216 -64 49
-270 147 -347 165 -93 22 -172 48 -166 53 3 3 63 0 134 -7 208 -21 324 -5 456
62 50 26 139 94 185 142 19 20 39 36 44 36 5 0 26 -10 47 -21z"/>
<path fill="#ffffff" stroke="none" d="M6378 5220 c49 -30 88 -78 126 -155 32
-65 186 -509 186 -537 0 -33 176 -366 251 -477 135 -198 149 -221 141 -221 -4
0 -41 34 -82 76 -167 170 -349 274 -585 334 -71 18 -135 37 -141 41 -7 6 -4
55 12 164 23 160 21 274 -6 366 -16 56 -66 117 -114 141 -36 17 -46 28 -51 54
-13 73 37 179 102 213 50 26 119 27 161 1z"/>
<path fill="#ffffff" stroke="none" d="M7847 5066 c153 -14 445 -113 578 -195
79 -48 173 -154 211 -236 78 -170 83 -326 15 -470 -43 -91 -97 -146 -193 -194
-158 -79 -326 -102 -474 -66 -82 21 -121 40 -232 111 -144 94 -237 130 -411
159 -118 20 -154 17 -290 -22 l-93 -27 -24 29 c-34 42 -176 327 -202 404 -19
56 -28 111 -19 111 1 0 56 11 122 25 235 49 427 41 609 -27 45 -16 101 -36
126 -45 78 -27 572 -30 555 -3 -3 4 -51 11 -107 15 -57 3 -136 15 -175 26
-112 29 -423 185 -423 212 0 14 96 101 155 141 48 33 150 65 190 60 17 -2 53
-5 82 -8z"/>
<path fill="#ffffff" stroke="none" d="M3760 5024 c69 -13 154 -32 190 -43 70
-20 170 -60 170 -69 0 -14 -129 -246 -168 -302 -71 -102 -203 -222 -320 -293
-120 -72 -178 -125 -287 -262 -78 -98 -160 -223 -152 -231 2 -2 39 35 83 82
43 47 106 106 140 129 84 61 348 184 402 188 l27 2 3 -120 c3 -139 -15 -205
-77 -280 -127 -153 -451 -360 -624 -398 -105 -23 -199 -22 -283 4 -182 56
-307 163 -365 312 -29 75 -31 89 -26 162 11 160 92 330 211 443 87 83 113 97
268 151 139 48 193 74 278 137 167 122 207 170 265 314 22 52 44 98 50 102 12
9 47 4 215 -28z"/>
<path fill="#ffffff" stroke="none" d="M6116 4909 c84 -21 134 -114 134 -251
0 -78 -33 -391 -55 -518 -30 -172 -19 -404 35 -760 19 -126 9 -118 -44 38 -72
213 -178 363 -373 528 -62 53 -113 100 -113 106 0 5 36 62 80 127 44 65 96
154 116 197 34 73 37 87 38 175 1 95 0 98 -31 137 -28 34 -32 46 -26 74 12 64
86 136 152 149 20 4 37 7 39 8 2 0 23 -4 48 -10z"/>
<path fill="#ffffff" stroke="none" d="M4232 4880 c209 -88 329 -120 446 -120
79 0 156 31 191 76 33 42 74 48 132 19 26 -13 60 -37 76 -53 36 -36 57 -114
44 -159 -33 -113 -139 -159 -426 -188 -440 -44 -462 -47 -610 -86 -82 -21
-195 -56 -250 -78 -55 -22 -135 -53 -179 -70 -43 -18 -81 -30 -83 -27 -3 2 15
17 39 32 144 91 187 123 259 191 106 101 164 180 250 341 39 72 74 132 79 132
5 0 19 -4 32 -10z"/>
<path fill="#ffffff" stroke="none" d="M5785 4709 c91 -43 120 -115 91 -228
-24 -95 -39 -121 -236 -422 -59 -91 -124 -194 -144 -230 -81 -147 -163 -361
-222 -577 -17 -63 -34 -90 -34 -53 0 11 5 66 11 122 14 129 -1 312 -36 431
-13 47 -49 142 -79 210 -64 143 -74 119 87 211 136 78 224 150 275 227 44 65
57 118 47 181 -9 54 8 85 60 112 79 40 120 44 180 16z"/>
<path fill="#ffffff" stroke="none" d="M2386 4620 c105 -47 172 -60 324 -59
101 0 164 6 250 23 165 34 165 20 0 -35 -52 -17 -126 -46 -165 -64 -137 -66
-259 -207 -325 -378 l-29 -72 -50 0 c-57 1 -93 27 -136 101 -24 41 -114 107
-183 134 l-33 13 45 41 c25 23 50 55 57 71 6 17 12 83 13 149 l2 118 33 30 32
29 48 -35 c26 -20 79 -49 117 -66z"/>
<path fill="#ffffff" stroke="none" d="M5368 4695 c88 -27 143 -116 121 -200
-28 -103 -107 -168 -464 -381 -71 -42 -154 -93 -183 -113 -91 -61 -253 -201
-352 -305 -52 -55 -119 -125 -147 -156 -29 -30 -53 -50 -53 -44 0 5 23 46 52
90 136 208 198 422 198 681 0 61 4 114 10 118 5 3 80 12 167 20 87 8 185 23
218 33 135 40 229 115 241 192 12 72 84 97 192 65z"/>
<path fill="#ffffff" stroke="none" d="M8881 4623 c20 -54 22 -184 4 -298 -22
-143 -93 -315 -173 -423 -31 -41 -141 -134 -152 -127 -4 2 -10 22 -14 44 -3
22 -17 53 -31 69 -14 17 -25 32 -25 35 0 3 22 19 49 37 162 104 246 335 197
542 -15 63 -16 62 32 73 20 4 43 20 60 41 33 41 39 42 53 7z"/>
<path fill="#ffffff" stroke="none" d="M4467 4223 c-3 -87 -13 -192 -22 -233
-26 -117 -89 -264 -160 -371 -67 -101 -103 -182 -124 -284 -7 -33 -21 -96 -31
-140 -10 -44 -21 -111 -24 -150 l-6 -70 20 50 c11 28 29 81 40 119 11 37 35
97 54 132 38 68 147 209 240 309 66 71 60 73 131 -67 81 -162 72 -256 -47
-493 -87 -174 -214 -347 -302 -412 -136 -101 -229 -128 -404 -121 -100 4 -115
7 -186 41 -92 44 -176 120 -210 191 -63 129 -73 360 -23 503 35 99 80 164 181
263 100 97 158 174 210 278 83 166 97 223 87 370 -3 57 -4 108 -1 113 9 14
113 47 269 83 163 39 183 42 260 45 l54 1 -6 -157z"/>
<path fill="#ffffff" stroke="none" d="M6424 4165 c227 -62 377 -149 531 -306
49 -50 108 -104 132 -121 86 -59 426 -209 440 -194 2 2 -35 26 -82 52 -112 63
-196 134 -277 231 -75 91 -178 237 -178 251 0 10 94 42 182 61 109 25 231 -17
366 -123 323 -256 468 -486 448 -711 -19 -209 -110 -361 -266 -445 -62 -33
-71 -35 -181 -38 -100 -4 -128 -1 -215 22 -183 49 -293 137 -404 322 -73 121
-161 218 -280 306 -117 87 -157 102 -328 123 -38 5 -55 12 -63 28 -18 32 -24
386 -9 490 15 104 3 101 184 52z"/>
<path fill="#ffffff" stroke="none" d="M7711 3989 c52 -33 114 -71 139 -84
144 -74 346 -83 519 -24 73 25 76 25 106 -18 31 -46 32 -87 4 -165 -20 -54
-21 -65 -10 -136 6 -42 14 -90 18 -106 5 -26 4 -28 -13 -22 -10 4 -41 10 -69
13 -55 5 -86 -10 -215 -109 -63 -48 -94 -57 -131 -38 -14 8 -19 21 -19 53 0
103 -60 280 -123 361 -87 112 -161 195 -210 234 -64 50 -115 102 -101 102 6 0
53 -27 105 -61z"/>
<path fill="#ffffff" stroke="none" d="M5081 3912 c97 -218 130 -417 102 -602
-21 -135 -13 -258 26 -415 36 -145 73 -255 79 -236 2 7 -2 56 -9 109 -7 54
-12 129 -10 167 2 72 29 225 54 305 8 25 22 71 31 103 9 31 21 57 25 57 4 0
34 -19 67 -41 182 -128 224 -221 224 -494 0 -176 -40 -397 -91 -497 -78 -156
-182 -254 -325 -308 -169 -63 -361 -36 -474 66 -97 88 -191 267 -211 404 -16
111 -7 192 36 313 76 212 93 325 76 495 -12 111 -26 150 -103 284 l-33 58 40
41 c118 122 379 317 425 318 10 1 35 -44 71 -127z"/>
<path fill="#ffffff" stroke="none" d="M2304 4005 c13 -9 47 -18 75 -22 l52
-6 -7 -66 c-18 -187 120 -406 306 -483 27 -11 50 -24 50 -28 0 -4 -7 -21 -16
-39 -12 -23 -14 -45 -9 -81 4 -28 4 -50 0 -50 -4 0 -35 14 -69 32 -41 22 -95
66 -166 138 -100 100 -109 112 -172 240 -75 153 -88 197 -88 304 0 80 5 87 44
61z"/>
<path fill="#ffffff" stroke="none" d="M5776 3887 c184 -157 284 -302 355
-514 44 -129 70 -179 138 -266 25 -32 58 -74 74 -94 30 -40 109 -124 152 -163
26 -23 25 -20 -10 35 -20 33 -48 75 -62 93 -69 92 -136 314 -160 535 l-6 49
49 -7 c97 -13 160 -28 199 -47 58 -30 125 -79 125 -93 0 -7 9 -20 20 -30 53
-48 170 -315 210 -477 64 -260 20 -455 -138 -615 -206 -210 -469 -203 -715 17
-64 58 -105 113 -146 198 -36 72 -38 82 -61 266 -22 169 -38 224 -106 358 -68
137 -98 173 -201 245 -51 35 -95 68 -98 72 -7 12 23 94 84 229 69 154 157 302
180 302 4 0 57 -42 117 -93z"/>
<path fill="#ffffff" stroke="none" d="M3670 3635 c0 -4 -44 -50 -98 -103
-116 -114 -159 -176 -204 -292 -31 -82 -32 -90 -33 -239 l-1 -155 -30 -13
c-51 -22 -91 -15 -169 28 -68 37 -82 41 -170 46 -52 3 -95 8 -95 10 0 2 10 22
21 45 30 60 22 124 -30 225 -45 87 -52 138 -23 172 15 19 21 20 52 11 51 -15
198 -12 279 5 93 19 290 118 399 201 79 59 102 73 102 59z"/>
<path fill="#ffffff" stroke="none" d="M6880 3146 c35 -58 84 -128 108 -157
52 -58 171 -140 247 -168 58 -22 190 -51 230 -51 18 0 28 -7 35 -26 23 -59 5
-109 -65 -185 -43 -46 -77 -121 -90 -196 -4 -24 -9 -43 -12 -43 -3 0 -23 14
-45 32 -54 43 -124 48 -229 19 -97 -27 -121 -26 -158 5 l-31 25 21 42 c26 50
59 204 59 272 -1 95 -54 307 -104 416 -38 82 -55 136 -39 126 5 -3 38 -53 73
-111z"/>
<path fill="#ffffff" stroke="none" d="M8185 3157 c-23 -70 -66 -147 -131
-233 -76 -103 -251 -253 -331 -285 -57 -23 -168 -48 -176 -40 -5 5 -4 24 1 44
5 19 6 53 2 77 -5 28 -4 43 4 45 6 1 40 8 75 14 89 15 164 55 236 126 74 72
117 145 144 242 25 93 25 93 62 83 23 -7 43 -4 77 9 l47 19 3 -24 c2 -14 -4
-48 -13 -77z"/>
<path fill="#ffffff" stroke="none" d="M4620 3021 c0 -5 -12 -40 -26 -77 -65
-170 -77 -224 -77 -334 1 -86 6 -120 27 -183 25 -74 66 -161 102 -218 16 -25
16 -27 -6 -57 -31 -42 -58 -50 -180 -54 -94 -4 -112 -7 -171 -36 -37 -18 -70
-32 -73 -32 -3 0 -6 23 -6 52 0 71 -33 123 -119 187 -83 62 -103 90 -99 139 3
33 6 37 41 44 60 12 176 70 243 121 78 60 204 221 275 355 48 91 69 119 69 93z"/>
<path fill="#ffffff" stroke="none" d="M5754 2775 c14 -173 46 -271 130 -398
39 -59 140 -151 212 -193 48 -28 55 -53 30 -102 -21 -41 -46 -60 -117 -87 -66
-26 -133 -82 -170 -142 -12 -18 -25 -33 -30 -33 -5 0 -16 17 -24 37 -31 73
-82 106 -193 124 -85 14 -142 44 -154 81 -9 25 -4 33 49 85 70 69 134 163 162
237 37 101 71 289 71 399 0 160 22 154 34 -8z"/>
<path fill="#ffffff" stroke="none" d="M3379 2729 c33 -88 140 -196 237 -240
78 -36 177 -59 252 -59 l52 0 0 -34 c0 -19 11 -49 25 -70 14 -20 25 -42 25
-48 0 -7 -29 -9 -92 -5 -149 8 -290 66 -445 181 -121 91 -151 122 -202 213
-53 93 -53 103 2 103 23 1 56 7 72 15 17 7 34 12 40 11 5 -1 21 -31 34 -67z"/>
<path fill="#ffffff" stroke="none" d="M6867 2319 c14 -14 40 -24 73 -27 29
-3 50 -9 50 -16 0 -7 -16 -31 -35 -53 -136 -160 -459 -293 -675 -280 -93 6
-160 22 -160 39 0 5 11 23 25 40 14 16 28 42 31 56 11 53 10 52 71 31 84 -30
198 -28 293 5 95 33 164 80 236 160 33 36 61 66 63 66 3 0 15 -10 28 -21z"/>
<path fill="#ffffff" stroke="none" d="M4843 2025 c156 -72 320 -70 465 4 55
28 64 26 82 -12 8 -18 31 -41 52 -52 21 -11 38 -25 38 -31 0 -5 -20 -20 -44
-32 -216 -104 -614 -69 -800 71 -38 29 -71 57 -73 64 -2 6 11 16 30 22 18 6
49 27 67 46 l33 35 49 -46 c27 -25 72 -56 101 -69z"/>
<path fill="#000000" stroke="none" d="M5412 5845 c-35 -31 -43 -34 -67 -25
-51 20 -84 13 -105 -22 -11 -18 -20 -40 -20 -49 0 -18 -20 -29 -50 -29 -11 0
-31 -5 -45 -12 -23 -10 -25 -17 -25 -69 0 -55 -2 -58 -35 -79 -47 -29 -55 -63
-26 -113 l22 -38 -21 -44 c-27 -55 -20 -78 30 -110 36 -23 38 -26 33 -64 -8
-60 14 -89 77 -97 37 -5 50 -11 50 -23 0 -9 9 -31 20 -48 22 -36 49 -42 106
-21 30 11 35 9 69 -20 45 -40 66 -40 112 1 35 33 37 33 76 20 62 -21 85 -5
110 78 3 10 21 18 47 22 62 8 83 32 77 87 -5 43 -4 46 41 87 l47 41 -27 52
-27 51 20 34 c29 49 22 85 -23 114 -36 23 -38 27 -38 76 0 62 -13 76 -73 84
-38 5 -44 10 -64 53 -26 55 -46 64 -104 44 -43 -15 -44 -15 -74 13 -48 46 -68
47 -113 6z"/>
<path fill="#ffffff" stroke="none" d="M5508 5799 c36 -31 39 -32 115 -13 24
6 29 3 43 -32 20 -47 40 -63 79 -64 48 -1 58 -12 50 -58 -7 -43 -1 -53 64
-105 l22 -18 -20 -35 c-27 -44 -26 -64 1 -110 l22 -37 -25 -18 c-57 -43 -62
-50 -56 -91 8 -56 1 -68 -40 -68 -38 0 -83 -37 -83 -68 0 -33 -24 -45 -64 -32
-43 14 -81 5 -101 -26 -19 -30 -46 -31 -71 -3 -29 33 -57 39 -100 24 -45 -15
-60 -8 -69 36 -6 28 -56 66 -73 56 -4 -3 -18 -1 -31 4 -20 8 -23 14 -19 47 6
49 -7 76 -48 95 -39 19 -43 40 -14 77 26 33 25 54 -5 98 -23 33 -23 37 -8 54
8 9 23 20 33 23 24 8 38 44 32 89 -5 44 6 56 54 56 34 0 58 21 68 60 12 50 20
55 63 38 46 -17 76 -10 105 27 25 32 33 31 76 -6z"/>
<path fill="#000000" stroke="none" d="M7025 8993 c-50 -26 -64 -43 -71 -90
-8 -57 9 -116 42 -142 56 -44 167 -36 215 15 34 36 34 124 0 173 -41 57 -124
77 -186 44z"/>
<path fill="#ffffff" stroke="none" d="M7155 8937 c20 -16 28 -35 32 -68 5
-41 2 -48 -22 -67 -30 -24 -92 -29 -127 -11 -26 14 -48 67 -41 102 12 60 108
87 158 44z"/>
<path fill="#000000" stroke="none" d="M3723 8965 c-39 -17 -80 -77 -89 -130
-5 -38 -3 -44 38 -89 37 -41 50 -49 90 -53 60 -7 108 21 144 83 47 80 14 166
-75 193 -49 14 -68 14 -108 -4z"/>
<path fill="#ffffff" stroke="none" d="M3828 8919 c35 -12 57 -56 48 -95 -11
-44 -59 -84 -100 -84 -37 0 -84 32 -87 60 -5 46 4 74 30 101 31 31 59 36 109
18z"/>
<path fill="#000000" stroke="none" d="M7514 8740 c-63 -25 -86 -129 -42 -185
38 -49 129 -71 181 -44 49 26 67 51 67 96 0 66 -31 120 -77 132 -45 13 -100
13 -129 1z"/>
<path fill="#ffffff" stroke="none" d="M7653 8668 c9 -11 17 -35 17 -54 0 -90
-155 -84 -175 7 -9 40 15 67 64 72 50 5 73 -1 94 -25z"/>
<path fill="#000000" stroke="none" d="M3299 8670 c-20 -11 -49 -34 -64 -52
-24 -28 -27 -38 -23 -87 4 -45 10 -59 37 -83 71 -63 192 -7 216 100 9 44 -7
82 -48 109 -47 32 -77 35 -118 13z"/>
<path fill="#ffffff" stroke="none" d="M3399 8606 c29 -31 23 -62 -21 -105
-40 -39 -81 -42 -104 -6 -52 79 61 179 125 111z"/>
<path fill="#000000" stroke="none" d="M2750 8307 c-29 -14 -60 -72 -67 -126
-19 -141 175 -180 243 -49 30 58 7 154 -42 177 -33 15 -103 14 -134 -2z"/>
<path fill="#ffffff" stroke="none" d="M2874 8248 c53 -75 -45 -188 -117 -135
-16 11 -18 49 -8 119 6 41 100 53 125 16z"/>
<path fill="#000000" stroke="none" d="M8000 8309 c-63 -26 -91 -82 -70 -145
26 -78 168 -125 217 -71 70 76 53 166 -41 211 -38 18 -69 19 -106 5z"/>
<path fill="#ffffff" stroke="none" d="M8097 8250 c39 -23 50 -58 31 -97 -20
-43 -75 -44 -122 -3 -40 35 -46 68 -18 92 37 32 66 35 109 8z"/>
<path fill="#000000" stroke="none" d="M8326 7918 c-31 -35 -36 -49 -36 -91 0
-59 25 -99 80 -127 106 -54 203 4 204 121 0 86 -59 139 -156 139 -54 0 -58 -2
-92 -42z"/>
<path fill="#ffffff" stroke="none" d="M8478 7900 c38 -24 56 -62 47 -107 -11
-61 -80 -81 -143 -43 -42 26 -56 62 -42 106 21 63 77 81 138 44z"/>
<path fill="#000000" stroke="none" d="M2429 7901 c-51 -16 -71 -34 -91 -78
-34 -78 -9 -161 57 -189 111 -46 205 19 205 142 0 97 -77 153 -171 125z"/>
<path fill="#ffffff" stroke="none" d="M2522 7846 c44 -33 42 -121 -3 -162
-27 -24 -91 -25 -118 0 -44 39 -34 133 17 161 34 18 82 19 104 1z"/>
<path fill="#000000" stroke="none" d="M8710 7516 c-44 -14 -73 -64 -73 -124
0 -40 4 -49 46 -88 40 -39 51 -44 92 -44 87 0 125 41 125 132 0 51 -12 71 -55
98 -50 31 -95 39 -135 26z"/>
<path fill="#ffffff" stroke="none" d="M8775 7460 c3 -5 13 -10 22 -10 47 0
69 -72 37 -118 -11 -16 -25 -22 -54 -22 -31 0 -44 6 -69 35 -35 40 -37 54 -16
95 12 23 22 30 45 30 16 0 32 -4 35 -10z"/>
<path fill="#000000" stroke="none" d="M2118 7421 c-69 -60 -72 -160 -7 -216
55 -46 142 -27 173 39 25 52 29 90 16 130 -14 45 -42 64 -102 72 -40 6 -48 3
-80 -25z"/>
<path fill="#ffffff" stroke="none" d="M2245 7379 c5 -5 10 -27 10 -49 0 -89
-88 -132 -128 -62 -16 27 -17 37 -8 64 19 54 40 70 81 63 19 -4 39 -11 45 -16z"/>
<path fill="#000000" stroke="none" d="M8932 6910 c-39 -24 -55 -62 -49 -113
9 -69 82 -137 147 -137 11 0 40 18 63 39 38 36 42 44 41 86 -1 52 -22 87 -74
123 -41 27 -85 28 -128 2z"/>
<path fill="#ffffff" stroke="none" d="M9053 6852 c9 -10 22 -33 28 -51 10
-30 9 -35 -17 -62 -35 -37 -58 -37 -94 0 -35 34 -46 74 -31 107 9 20 18 24 54
24 30 0 49 -6 60 -18z"/>
<path fill="#000000" stroke="none" d="M1818 6880 c-38 -21 -78 -64 -78 -86 0
-47 26 -121 50 -146 35 -35 98 -38 147 -8 39 23 49 41 58 101 8 55 -8 93 -55
133 -37 31 -71 32 -122 6z"/>
<path fill="#ffffff" stroke="none" d="M1924 6819 c14 -17 26 -42 26 -55 0
-63 -64 -119 -109 -95 -21 12 -41 66 -41 114 0 20 8 32 33 47 44 27 61 25 91
-11z"/>
<path fill="#000000" stroke="none" d="M9118 6429 c-48 -25 -82 -88 -74 -137
12 -76 83 -142 153 -142 45 0 92 35 115 87 34 78 6 153 -72 193 -49 25 -75 25
-122 -1z"/>
<path fill="#ffffff" stroke="none" d="M9253 6360 c32 -36 35 -72 7 -117 -35
-59 -106 -56 -147 6 -32 47 -30 86 7 123 27 26 36 30 68 25 24 -4 47 -17 65
-37z"/>
<path fill="#000000" stroke="none" d="M1662 6341 c-74 -54 -80 -149 -15 -222
31 -34 41 -39 80 -39 58 0 110 25 135 64 24 38 20 129 -7 170 -41 62 -127 74
-193 27z"/>
<path fill="#ffffff" stroke="none" d="M1808 6294 c16 -19 22 -37 22 -73 0
-55 -25 -87 -78 -97 -27 -6 -37 -1 -67 29 -54 54 -47 118 18 158 39 24 73 18
105 -17z"/>
<path fill="#000000" stroke="none" d="M9209 5861 c-32 -31 -39 -46 -39 -77 0
-61 34 -119 84 -143 59 -29 81 -26 127 17 69 65 69 132 -1 202 -35 35 -46 40
-86 40 -40 0 -51 -5 -85 -39z"/>
<path fill="#ffffff" stroke="none" d="M9334 5828 c52 -51 58 -69 36 -106 -27
-44 -49 -53 -87 -37 -33 14 -63 59 -63 95 0 22 50 80 69 80 6 0 26 -15 45 -32z"/>
<path fill="#000000" stroke="none" d="M1645 5825 c-49 -17 -71 -43 -80 -93
-14 -86 49 -165 132 -165 113 0 151 156 59 241 -40 36 -53 38 -111 17z"/>
<path fill="#ffffff" stroke="none" d="M1729 5764 c30 -38 29 -117 -1 -138
-31 -22 -41 -20 -77 10 -26 21 -31 33 -31 67 0 50 7 63 40 76 38 15 47 13 69
-15z"/>
<path fill="#000000" stroke="none" d="M9174 5226 c-29 -29 -34 -41 -34 -79 0
-124 75 -184 176 -142 83 35 85 184 2 235 -52 32 -103 27 -144 -14z"/>
<path fill="#ffffff" stroke="none" d="M9304 5179 c48 -57 29 -121 -41 -135
-41 -8 -73 31 -73 89 0 78 65 104 114 46z"/>
<path fill="#000000" stroke="none" d="M1573 5182 c-30 -24 -63 -83 -63 -113
0 -35 53 -115 89 -133 52 -27 89 -21 132 23 34 34 39 44 39 85 0 26 -8 63 -19
84 -32 63 -129 93 -178 54z"/>
<path fill="#ffffff" stroke="none" d="M1691 5121 c40 -40 42 -90 6 -128 -30
-33 -53 -28 -97 19 -47 48 -49 66 -14 107 33 40 66 40 105 2z"/>
<path fill="#000000" stroke="none" d="M9140 4731 c-54 -28 -75 -64 -75 -125
1 -87 59 -156 131 -156 39 0 111 46 130 82 33 63 14 141 -46 192 -38 31 -90
34 -140 7z"/>
<path fill="#ffffff" stroke="none" d="M9264 4669 c19 -23 26 -42 26 -74 0
-38 -5 -47 -33 -69 -59 -45 -117 -27 -137 42 -15 56 -13 71 19 103 41 41 90
40 125 -2z"/>
<path fill="#000000" stroke="none" d="M1703 4665 c-45 -19 -83 -80 -83 -133
0 -72 37 -123 107 -147 32 -11 43 -11 73 1 70 30 108 88 101 153 -5 44 -50
101 -94 122 -50 22 -62 23 -104 4z"/>
<path fill="#ffffff" stroke="none" d="M1796 4611 c17 -10 38 -35 48 -54 15
-32 15 -40 2 -71 -8 -20 -28 -42 -45 -51 -27 -14 -35 -14 -65 -1 -63 26 -87
97 -51 152 15 23 45 42 70 43 6 1 24 -8 41 -18z"/>
<path fill="#000000" stroke="none" d="M9009 4187 c-44 -30 -59 -60 -59 -124
0 -45 5 -58 32 -89 17 -20 42 -40 54 -44 33 -13 89 6 129 44 30 28 35 40 35
77 -1 125 -101 197 -191 136z"/>
<path fill="#ffffff" stroke="none" d="M9118 4148 c7 -7 12 -22 12 -34 0 -13
5 -26 10 -29 6 -3 10 -19 10 -36 0 -22 -8 -34 -32 -49 -45 -27 -73 -25 -97 6
-30 38 -28 98 4 129 26 27 73 33 93 13z"/>
<path fill="#000000" stroke="none" d="M1894 4160 c-11 -4 -35 -22 -52 -40
-51 -51 -42 -130 22 -189 36 -33 110 -39 153 -12 81 51 48 195 -54 237 -37 16
-40 16 -69 4z"/>
<path fill="#ffffff" stroke="none" d="M1966 4095 c33 -22 56 -79 45 -108 -26
-67 -132 -39 -147 39 -12 63 51 105 102 69z"/>
<path fill="#000000" stroke="none" d="M8713 3635 c-68 -29 -98 -164 -50 -221
19 -22 34 -28 81 -32 50 -4 60 -2 82 19 80 74 72 189 -16 234 -35 18 -56 18
-97 0z"/>
<path fill="#ffffff" stroke="none" d="M8809 3574 c26 -33 27 -70 1 -111 -20
-33 -40 -39 -88 -27 -63 17 -25 164 43 164 14 0 32 -11 44 -26z"/>
<path fill="#000000" stroke="none" d="M2098 3555 c-35 -19 -63 -92 -55 -142
7 -44 40 -75 106 -100 38 -15 48 -15 84 -2 47 17 77 64 77 122 0 31 -8 46 -43
84 -38 40 -49 46 -93 49 -32 3 -58 -1 -76 -11z"/>
<path fill="#ffffff" stroke="none" d="M2225 3489 c42 -37 48 -86 15 -119 -25
-25 -37 -25 -90 3 -57 30 -64 43 -51 94 17 61 70 71 126 22z"/>
<path fill="#000000" stroke="none" d="M8420 3192 c-50 -24 -83 -91 -77 -156
4 -42 10 -55 41 -83 29 -27 44 -33 81 -33 56 0 116 29 135 66 19 35 20 145 0
168 -20 25 -85 56 -117 56 -15 0 -44 -8 -63 -18z"/>
<path fill="#ffffff" stroke="none" d="M8545 3135 c19 -18 25 -35 25 -67 -1
-65 -36 -98 -104 -98 -45 0 -76 31 -76 77 0 40 22 88 47 102 33 19 82 13 108
-14z"/>
<path fill="#000000" stroke="none" d="M2443 3135 c-61 -26 -91 -117 -64 -188
17 -44 76 -80 139 -85 54 -4 59 -2 90 31 38 40 53 91 42 143 -10 45 -31 68
-84 94 -49 23 -79 25 -123 5z"/>
<path fill="#ffffff" stroke="none" d="M2544 3086 c100 -42 82 -176 -23 -176
-58 0 -101 39 -101 92 0 82 49 116 124 84z"/>
<path fill="#000000" stroke="none" d="M8106 2770 c-63 -19 -114 -101 -102
-164 15 -81 85 -121 168 -95 35 12 47 22 66 59 44 87 19 179 -55 199 -43 12
-38 12 -77 1z"/>
<path fill="#ffffff" stroke="none" d="M8198 2706 c17 -16 6 -111 -15 -132
-19 -19 -97 -18 -113 1 -31 37 -5 125 43 145 26 11 67 4 85 -14z"/>
<path fill="#000000" stroke="none" d="M2818 2749 c-17 -7 -34 -26 -47 -54
-26 -55 -26 -71 -1 -112 73 -120 250 -90 250 42 0 36 -6 49 -32 76 -54 53
-110 69 -170 48z"/>
<path fill="#ffffff" stroke="none" d="M2920 2689 c43 -26 50 -36 50 -71 0
-56 -81 -77 -134 -35 -33 27 -37 63 -12 102 20 31 50 32 96 4z"/>
<path fill="#000000" stroke="none" d="M7575 2394 c-64 -33 -95 -79 -95 -142
0 -33 6 -45 35 -71 62 -54 111 -53 171 2 40 36 54 83 43 136 -15 69 -93 107
-154 75z"/>
<path fill="#ffffff" stroke="none" d="M7662 2343 c22 -20 24 -80 3 -109 -8
-12 -28 -27 -45 -34 -28 -11 -34 -11 -58 7 -48 36 -37 98 23 135 37 22 53 23
77 1z"/>
<path fill="#000000" stroke="none" d="M3284 2311 c-67 -41 -80 -92 -43 -169
25 -51 48 -62 129 -62 51 0 64 4 91 28 43 39 51 102 17 152 -44 66 -132 89
-194 51z"/>
<path fill="#ffffff" stroke="none" d="M3395 2266 c37 -16 55 -42 55 -80 0
-34 -33 -53 -95 -52 -48 1 -51 3 -69 39 -22 45 -12 81 26 97 32 12 44 12 83
-4z"/>
<path fill="#000000" stroke="none" d="M7112 2124 c-75 -38 -117 -150 -78
-209 41 -62 139 -85 202 -46 35 21 74 93 74 136 0 86 -120 158 -198 119z"/>
<path fill="#ffffff" stroke="none" d="M7237 2058 c27 -25 30 -66 8 -108 -18
-35 -43 -50 -84 -50 -92 0 -126 83 -63 154 37 41 98 43 139 4z"/>
<path fill="#000000" stroke="none" d="M3802 2090 c-54 -13 -102 -70 -102
-122 1 -41 38 -107 72 -128 60 -36 169 -19 201 32 41 65 20 171 -40 201 -38
20 -91 26 -131 17z"/>
<path fill="#ffffff" stroke="none" d="M3895 2036 c59 -25 75 -97 30 -141 -19
-20 -34 -25 -74 -25 -42 0 -53 4 -70 27 -44 54 -35 113 19 140 32 16 53 16 95
-1z"/>
<path fill="#000000" stroke="none" d="M4305 1903 c-11 -3 -35 -16 -52 -30
-31 -22 -33 -28 -33 -82 0 -50 4 -62 26 -85 77 -76 207 -44 235 58 12 45 -10
100 -50 120 -31 16 -98 26 -126 19z"/>
<path fill="#ffffff" stroke="none" d="M4417 1828 c30 -28 29 -53 -2 -83 -29
-29 -88 -34 -123 -9 -28 20 -31 88 -4 103 32 19 104 13 129 -11z"/>
<path fill="#000000" stroke="none" d="M6605 1867 c-77 -43 -100 -145 -45
-197 42 -39 109 -56 146 -37 39 20 70 55 88 99 13 31 14 43 3 75 -25 76 -114
104 -192 60z"/>
<path fill="#ffffff" stroke="none" d="M6728 1824 c28 -20 28 -56 0 -97 -29
-40 -38 -47 -65 -47 -36 0 -73 22 -79 47 -19 75 80 142 144 97z"/>
<path fill="#000000" stroke="none" d="M5985 1766 c-71 -31 -102 -104 -71
-164 25 -48 53 -66 105 -66 92 0 157 66 147 149 -10 80 -96 118 -181 81z"/>
<path fill="#ffffff" stroke="none" d="M6105 1706 c30 -45 -8 -109 -72 -122
-26 -5 -37 -1 -57 19 -14 15 -26 37 -26 50 0 64 121 105 155 53z"/>
<path fill="#000000" stroke="none" d="M5450 1718 c-100 -51 -118 -148 -42
-219 54 -51 97 -58 159 -28 67 33 97 80 88 139 -9 55 -34 93 -79 114 -46 22
-73 20 -126 -6z"/>
<path fill="#ffffff" stroke="none" d="M5581 1661 c19 -20 29 -40 29 -60 0
-42 -45 -90 -91 -97 -30 -5 -41 -1 -72 26 -57 50 -45 114 27 146 48 20 75 17
107 -15z"/>
<path fill="#000000" stroke="none" d="M4892 1710 c-38 -24 -72 -75 -72 -111
0 -36 39 -90 82 -114 35 -19 38 -19 90 -2 121 38 150 140 62 217 -28 24 -44
30 -82 30 -29 0 -59 -8 -80 -20z"/>
<path fill="#ffffff" stroke="none" d="M5018 1664 c49 -34 48 -95 0 -110 -13
-4 -25 -10 -28 -15 -3 -4 -18 -11 -33 -14 -22 -6 -32 -2 -57 25 -34 36 -37 56
-14 88 29 42 92 54 132 26z"/>
</g>
</svg>
