<?xml version="1.0" standalone="no"?>
<!DOCTYPE svg PUBLIC "-//W3C//DTD SVG 20010904//EN"
 "http://www.w3.org/TR/2001/REC-SVG-20010904/DTD/svg10.dtd">
<svg version="1.0" xmlns="http://www.w3.org/2000/svg"
 width="1024.000000pt" height="790.000000pt" viewBox="0 0 1024.000000 790.000000"
 preserveAspectRatio="xMidYMid meet">
<metadata>
Created by potrace 1.14, written by Peter Selinger 2001-2017
</metadata>
<g transform="translate(0.000000,790.000000) scale(0.100000,-0.100000)"
fill="#000000" stroke="none">
<path fill="#000000" stroke="none" d="M895 7879 c25 -86 141 -222 226 -265
56 -28 185 -64 231 -64 15 0 28 -3 27 -7 0 -5 -22 -50 -48 -102 l-48 -95 -39
74 c-21 41 -61 97 -89 125 -80 79 -210 135 -317 135 -43 0 -48 -3 -54 -26 -16
-62 61 -210 150 -292 65 -59 175 -106 274 -115 18 -1 32 -7 32 -12 -1 -31 -68
-196 -79 -194 -3 0 -25 40 -48 88 -48 98 -98 156 -177 200 -89 50 -211 80
-247 60 -18 -9 -21 -18 -17 -57 5 -48 48 -149 89 -211 l22 -33 -29 15 c-59 30
-177 67 -195 62 -35 -11 -41 -40 -25 -105 46 -177 173 -309 339 -350 26 -7 47
-15 47 -19 0 -6 -65 -70 -121 -119 l-27 -24 -17 54 c-42 126 -99 206 -182 250
-64 35 -158 61 -190 53 -24 -6 -25 -9 -20 -57 8 -65 54 -164 102 -217 38 -42
180 -121 217 -121 26 0 19 -17 -14 -38 -26 -15 -27 -15 -79 32 -92 83 -130
100 -235 104 -97 5 -158 -8 -168 -34 -22 -58 145 -182 248 -185 17 0 40 -4 51
-9 13 -6 -19 -9 -90 -10 -133 -1 -169 -14 -249 -92 -62 -60 -70 -88 -31 -114
20 -13 43 -16 113 -12 106 5 147 24 238 109 66 61 101 79 65 33 -26 -33 -51
-115 -51 -168 -1 -23 -7 -52 -15 -66 -31 -55 -21 -79 68 -165 46 -45 111 -95
145 -113 34 -18 62 -35 62 -38 0 -7 -125 -211 -177 -289 -23 -35 -79 -111
-125 -168 -135 -171 -182 -261 -213 -412 -53 -254 94 -523 358 -656 66 -34
208 -83 287 -100 l53 -11 -6 -187 c-4 -102 -13 -260 -22 -351 -33 -348 -110
-910 -135 -984 -6 -16 -37 -71 -70 -122 -113 -175 -160 -338 -159 -554 0 -69
4 -151 8 -183 4 -31 4 -56 1 -55 -3 2 -52 54 -108 115 -68 74 -101 117 -96
125 5 7 32 44 62 83 61 79 143 241 167 330 25 92 30 271 11 390 -40 243 -86
296 -175 200 -93 -101 -193 -297 -218 -427 -18 -99 -13 -318 11 -413 8 -33 13
-61 12 -62 -1 -1 -30 20 -63 47 l-61 50 18 61 c31 103 43 201 37 316 -6 130
-24 201 -78 311 -65 134 -82 95 -19 -47 45 -104 60 -174 60 -286 0 -107 -12
-198 -36 -283 l-16 -54 -24 23 -24 22 0 -24 c0 -34 2 -35 129 -137 144 -117
156 -118 126 -17 -54 177 -59 424 -11 570 46 143 179 345 226 345 23 0 41 -55
65 -190 48 -273 -16 -519 -188 -721 -29 -34 -58 -70 -65 -80 -12 -16 0 -32
115 -161 70 -78 144 -159 165 -179 20 -20 44 -52 54 -70 9 -19 43 -72 74 -119
31 -47 84 -132 117 -190 34 -57 65 -106 70 -107 6 -2 14 86 20 214 9 194 14
228 38 303 54 167 124 279 253 402 96 91 151 124 177 104 15 -11 19 -33 22
-132 7 -182 -9 -323 -49 -442 -63 -182 -196 -358 -351 -462 -54 -37 -66 -50
-67 -72 0 -15 22 -83 49 -150 48 -123 87 -237 136 -400 14 -49 30 -88 35 -88
6 0 10 34 10 78 0 146 20 357 40 437 50 198 188 391 365 511 99 67 109 47 102
-201 -4 -152 -9 -195 -31 -280 -33 -127 -39 -133 -95 -95 -51 34 -100 39 -124
12 -24 -26 -37 -109 -37 -233 l0 -107 -47 -41 c-27 -23 -76 -56 -111 -73 -71
-35 -73 -42 -42 -133 25 -73 25 -85 0 -85 -21 0 -32 19 -65 113 -14 41 -20 47
-30 35 -22 -22 -104 -287 -92 -295 17 -10 43 31 68 111 13 42 27 76 31 76 16
0 29 -72 22 -130 -6 -57 -5 -62 12 -58 13 2 20 13 22 38 7 75 31 77 137 10
101 -64 111 -64 113 -2 2 56 22 156 29 148 3 -3 20 -40 39 -83 37 -85 64 -119
88 -110 14 5 12 11 -9 42 -34 50 -84 184 -102 274 -11 52 -16 136 -17 263 -1
160 1 190 15 203 15 15 20 15 58 -5 55 -28 192 -158 247 -236 24 -33 59 -94
79 -135 41 -86 85 -251 85 -318 0 -59 9 -91 25 -91 14 0 25 31 25 72 0 31 58
86 127 119 73 35 75 14 9 -87 -57 -88 -64 -104 -46 -104 13 0 44 34 97 105 72
96 75 81 -40 197 -220 224 -299 432 -284 748 10 189 28 270 62 270 44 0 211
-201 269 -325 69 -145 81 -206 80 -420 0 -133 -5 -213 -16 -265 -9 -41 -12
-79 -8 -84 5 -5 28 13 53 40 113 124 234 259 255 285 l24 29 -48 53 c-104 115
-190 278 -220 416 -32 151 0 474 53 526 14 15 18 14 45 -12 76 -71 159 -215
200 -343 20 -66 23 -95 23 -240 0 -149 -3 -175 -28 -268 -25 -95 -27 -122 -9
-122 4 0 32 21 62 46 30 25 63 50 73 55 49 28 -1 -34 -163 -198 -157 -159
-323 -360 -383 -462 -18 -30 -18 -31 2 -31 11 0 30 14 43 30 l22 30 12 -30
c13 -29 28 -38 38 -22 2 4 0 29 -5 57 -5 29 -5 53 0 58 13 13 110 -18 232 -74
93 -43 139 -58 139 -45 0 2 -14 33 -31 70 -17 36 -27 70 -24 77 17 27 76 39
193 39 180 0 259 -26 400 -134 41 -31 78 -56 83 -56 21 0 5 27 -56 91 -74 79
-83 105 -32 95 84 -18 148 -26 209 -26 l67 0 -6 -80 c-4 -56 -3 -80 5 -80 19
0 29 32 36 116 8 97 12 94 -113 94 -49 0 -112 5 -141 10 -117 22 -233 96 -316
202 -59 75 -154 260 -154 300 0 39 36 52 120 43 254 -25 401 -138 532 -412 32
-68 62 -123 67 -123 13 0 17 16 41 165 11 71 37 195 56 275 32 129 37 166 44
340 5 107 14 213 20 235 31 106 141 265 220 320 61 42 65 32 65 -148 0 -129
-3 -163 -22 -222 -29 -92 -87 -181 -183 -280 l-78 -80 -25 -110 c-59 -247
-120 -667 -104 -708 3 -9 13 -17 22 -17 12 0 15 13 15 64 0 36 4 67 8 70 5 3
44 -19 88 -48 122 -81 123 -81 339 -81 177 0 193 2 232 22 29 16 71 25 146 32
173 17 254 57 399 199 65 63 99 90 102 81 3 -8 17 -70 31 -139 38 -181 44
-200 60 -200 20 0 19 9 -15 173 -45 211 -106 412 -192 626 -77 195 -90 215
-167 258 -90 50 -199 161 -239 243 -51 103 -96 346 -69 368 22 19 129 -39 204
-110 108 -104 141 -176 177 -387 20 -115 32 -157 79 -262 48 -109 138 -340
164 -423 12 -40 31 -44 38 -9 26 118 73 262 108 333 85 174 259 308 444 343
43 8 64 -13 57 -56 -15 -83 -51 -191 -97 -287 -89 -188 -227 -298 -440 -352
-62 -16 -87 -27 -87 -38 0 -9 13 -69 29 -135 16 -66 35 -149 42 -185 6 -36 16
-73 21 -82 11 -23 57 -23 65 0 125 369 307 549 611 602 148 27 156 -14 48
-260 -64 -145 -163 -273 -266 -342 l-25 -17 40 0 c37 -1 45 5 124 84 46 47 85
84 86 83 2 -2 20 -37 40 -78 35 -70 50 -89 68 -90 14 0 6 25 -39 122 -25 55
-43 102 -39 106 4 4 15 -4 24 -17 21 -32 71 -92 132 -160 53 -57 72 -60 90
-15 5 15 37 86 71 158 54 116 63 143 75 236 25 200 75 312 180 410 71 67 156
120 192 120 24 0 24 0 17 -79 -21 -251 -119 -424 -298 -528 l-79 -45 -53 -112
c-94 -195 -100 -244 -18 -146 77 91 167 174 224 205 49 27 62 30 173 33 104 3
128 1 178 -18 32 -12 61 -28 63 -35 9 -24 -27 -77 -107 -157 -77 -77 -77 -78
-47 -78 25 0 43 12 88 57 31 32 64 69 73 82 l15 23 90 -31 c263 -91 416 -58
627 137 73 68 112 98 116 89 4 -6 22 -84 40 -172 31 -154 46 -194 67 -181 9 5
-39 263 -66 359 -6 17 -24 82 -42 142 -36 124 -134 377 -184 475 -30 59 -40
69 -102 104 -94 54 -183 145 -227 232 -47 93 -66 168 -74 286 l-6 98 25 0 c31
0 133 -65 187 -119 99 -99 153 -221 177 -402 11 -89 22 -126 53 -192 35 -73
91 -213 175 -434 15 -40 32 -73 37 -73 5 0 9 2 9 5 0 3 14 58 30 123 68 260
185 426 361 510 74 36 162 62 204 62 35 0 4 -158 -60 -311 -87 -206 -230 -329
-449 -384 -50 -13 -92 -27 -94 -33 -2 -6 9 -61 23 -124 14 -62 35 -158 46
-213 21 -107 27 -119 55 -113 13 2 27 26 45 78 61 176 167 346 261 420 109 87
293 154 402 148 47 -3 51 -5 54 -30 4 -34 -49 -190 -98 -288 -67 -133 -147
-224 -265 -303 l-40 -27 38 0 c21 0 47 5 57 10 13 7 21 7 25 0 12 -19 33 -10
38 18 3 15 31 59 62 97 31 39 77 105 102 148 25 42 49 77 53 77 24 0 119 -135
182 -259 47 -92 76 -119 65 -60 -10 53 -84 190 -149 276 -32 43 -58 81 -58 84
0 8 37 19 61 19 9 0 41 -30 71 -67 69 -86 136 -152 217 -216 62 -50 63 -51 57
-89 -6 -34 -4 -39 11 -36 17 3 51 59 53 85 0 7 -27 31 -60 53 -192 130 -335
327 -391 536 -18 67 -21 109 -23 286 -1 179 1 209 15 223 15 15 20 15 60 -5
64 -33 228 -201 277 -286 95 -160 134 -320 137 -554 1 -91 3 -169 3 -174 4
-18 33 19 73 92 23 43 79 135 125 205 46 70 84 130 84 133 0 5 54 66 242 273
48 53 88 101 88 107 0 5 -20 34 -45 63 -64 75 -96 124 -142 216 -74 147 -78
169 -77 370 0 156 3 191 23 262 32 115 42 120 103 54 68 -74 133 -188 170
-301 30 -89 32 -104 32 -245 1 -132 -2 -165 -28 -272 -16 -68 -26 -126 -23
-130 8 -8 43 17 144 101 40 34 130 99 200 146 120 80 132 92 210 194 83 109
96 136 68 136 -14 0 -122 -127 -147 -173 -11 -22 -12 -21 -25 11 -11 28 -11
42 7 110 10 42 24 115 30 161 12 90 23 116 77 195 37 54 40 68 18 86 -23 19
-54 2 -77 -43 -18 -37 -22 -40 -29 -22 -15 39 -10 53 26 65 47 15 44 30 -5 30
-35 0 -42 4 -51 26 -5 15 -8 29 -6 31 2 2 24 -8 48 -22 53 -30 75 -31 89 -6
13 25 -16 48 -198 161 -141 87 -245 175 -277 233 l-19 35 71 76 c39 41 92 107
119 146 l48 70 47 -46 c89 -87 122 -173 165 -418 25 -144 45 -216 60 -216 16
0 -6 184 -36 310 -28 112 -33 155 -34 257 l-1 122 58 110 c60 117 64 146 8 60
-65 -100 -85 -156 -89 -256 -3 -51 -8 -93 -12 -93 -4 0 -13 13 -20 29 -6 16
-38 60 -71 98 -32 37 -59 71 -59 74 0 3 11 39 25 79 69 202 51 418 -45 561
-16 24 -82 105 -146 179 -137 158 -227 291 -290 427 -25 54 -63 136 -85 182
l-39 83 67 72 c37 39 69 72 72 73 3 2 13 -12 21 -30 33 -70 115 -95 195 -58
72 33 80 49 79 165 -1 89 -6 115 -39 213 l-37 112 45 58 c25 32 57 81 71 110
l26 52 69 -1 c52 0 79 5 103 19 90 53 123 205 67 315 -27 54 -69 73 -155 71
l-71 -1 -33 56 c-45 76 -143 169 -221 213 -47 26 -63 40 -62 55 1 10 7 64 14
119 7 62 9 153 5 241 -5 131 -5 142 13 158 34 31 61 102 61 162 0 48 -4 60
-28 84 -56 55 -135 50 -232 -15 l-51 -34 28 34 c15 18 60 61 98 96 39 34 113
105 167 157 l96 95 64 -12 c86 -16 242 -31 303 -30 41 1 36 3 -30 10 -131 14
-314 39 -329 45 -12 5 -13 11 -5 32 12 31 15 147 5 180 -7 21 -5 22 61 22 77
0 326 17 391 26 88 13 29 15 -125 5 -87 -6 -195 -13 -240 -17 l-82 -5 -61 65
c-81 85 -135 109 -250 110 -77 1 -90 -2 -139 -29 -30 -16 -63 -42 -74 -57 -12
-17 -27 -26 -36 -23 -9 2 -72 9 -141 15 -115 9 -131 13 -205 50 -98 48 -195
123 -195 150 0 11 7 35 17 54 l16 35 31 -24 c44 -33 70 -38 108 -22 33 14 98
78 98 97 0 6 -19 23 -42 40 -31 23 -52 30 -86 30 -42 0 -49 -4 -123 -75 -43
-41 -87 -75 -96 -75 -14 0 -11 5 10 18 42 28 56 53 57 98 0 59 -18 104 -41
104 -26 0 -89 -27 -111 -47 -17 -15 -18 -14 -18 11 0 63 -61 137 -142 170 -33
14 -36 14 -56 -7 -33 -35 -62 -108 -62 -156 0 -41 4 -49 54 -97 34 -33 69 -57
93 -63 58 -16 125 -66 272 -205 74 -70 148 -134 165 -143 l31 -16 -52 -24
c-29 -13 -81 -29 -115 -34 -73 -12 -182 -3 -198 16 -17 21 4 93 39 129 43 45
43 105 1 164 -50 66 -87 65 -134 -4 l-24 -36 -12 36 c-16 49 -54 93 -101 117
-72 36 -251 46 -271 15 -4 -6 -8 -52 -8 -102 0 -83 3 -98 30 -149 l30 -57 -24
-31 c-35 -47 -78 -137 -72 -152 7 -20 131 -77 178 -82 61 -6 126 37 169 112
l32 56 31 -29 c39 -37 87 -65 151 -87 66 -24 69 -28 47 -55 l-19 -23 -47 28
c-58 34 -119 38 -160 12 -36 -24 -86 -104 -86 -139 0 -39 64 -72 142 -72 49
-1 61 3 86 27 16 16 37 46 47 67 15 33 29 45 94 75 42 21 117 47 166 60 50 13
131 35 180 50 72 21 101 25 145 20 64 -8 100 -27 100 -56 0 -27 33 -89 62
-115 89 -82 203 -81 287 2 42 42 61 53 61 37 0 -4 -81 -86 -179 -183 -181
-176 -232 -240 -266 -335 -24 -66 -35 -77 -35 -34 0 50 -54 152 -102 194 -92
78 -180 69 -227 -22 -16 -31 -14 -107 6 -176 16 -58 16 -60 -7 -105 -37 -76
-43 -268 -15 -462 l6 -45 -71 -70 c-39 -38 -80 -85 -92 -102 -11 -18 -21 -33
-23 -33 -2 0 -25 11 -51 25 -84 45 -146 26 -193 -57 -57 -100 -51 -189 19
-252 22 -19 54 -42 72 -49 41 -17 48 -26 82 -109 15 -37 50 -100 77 -139 l50
-72 -27 -76 c-43 -119 -42 -119 -65 -82 -22 36 -30 37 -84 12 -90 -41 -316
-237 -315 -274 1 -7 7 -23 15 -37 21 -36 19 -40 -15 -34 -36 8 -54 -6 -81 -58
l-19 -38 -75 0 c-63 0 -86 -5 -154 -35 -43 -19 -91 -35 -104 -35 -23 0 -27 6
-37 58 -62 306 -137 462 -304 627 -83 82 -116 108 -186 143 -118 58 -192 75
-311 70 -87 -3 -103 -7 -170 -41 -76 -38 -127 -80 -191 -157 l-36 -44 -74 69
c-126 120 -276 208 -461 270 -145 49 -267 68 -432 67 -157 0 -267 -17 -413
-63 -52 -17 -95 -29 -96 -27 -1 2 -19 39 -41 83 -171 354 -639 384 -989 64
-128 -117 -258 -333 -325 -539 -61 -190 -64 -205 -70 -414 l-6 -199 -45 -15
c-25 -8 -87 -30 -138 -49 l-93 -34 -56 50 c-70 63 -185 123 -289 152 -111 31
-269 32 -336 2 -78 -35 -86 -79 -28 -164 16 -24 30 -47 30 -51 0 -5 -19 -8
-42 -8 -62 0 -246 -26 -325 -45 -103 -25 -230 -89 -253 -128 -11 -18 -17 -41
-14 -52 9 -32 75 -85 121 -98 24 -6 43 -14 43 -17 -1 -3 -31 -23 -67 -45 -37
-22 -113 -85 -169 -140 -198 -194 -294 -403 -219 -477 30 -30 63 -38 156 -38
l68 0 -51 -87 c-29 -49 -53 -90 -55 -92 -9 -12 -96 43 -151 94 -184 170 -282
481 -314 993 l-12 186 30 20 c64 45 144 136 177 202 71 141 82 199 97 509 5
116 16 244 24 285 8 41 18 112 21 157 l7 81 65 -24 c89 -34 245 -51 297 -33
21 8 44 21 49 30 27 43 -111 217 -210 265 -59 29 -122 36 -199 20 -38 -7 -42
-6 -47 15 -10 38 -8 133 4 167 7 20 19 32 37 37 37 9 72 44 72 71 0 30 -56 93
-97 110 -47 20 -71 17 -100 -12 -21 -21 -25 -32 -20 -65 4 -33 0 -47 -26 -87
-45 -66 -73 -78 -140 -58 -68 21 -146 65 -169 96 -10 14 -21 48 -24 77 -6 46
-4 52 16 63 42 22 63 93 64 215 1 106 0 113 -33 180 -25 51 -56 92 -113 148
l-79 79 35 38 c19 21 42 50 51 64 24 36 35 32 35 -12 0 -48 25 -144 51 -199
28 -57 98 -134 162 -176 71 -47 98 -54 121 -28 15 17 17 35 14 138 -3 110 -5
123 -35 184 -38 76 -130 175 -201 216 l-48 28 47 99 46 99 12 -69 c6 -38 25
-96 41 -130 51 -104 195 -234 261 -234 47 0 53 19 46 146 -5 100 -9 123 -36
179 -37 80 -113 162 -200 216 -36 23 -67 43 -69 44 -2 2 16 41 40 89 l43 86
17 -81 c33 -155 90 -239 218 -324 64 -42 136 -75 166 -75 25 0 44 31 44 74 0
55 -33 186 -62 243 -44 87 -177 200 -276 232 -23 8 -42 18 -42 23 0 9 79 118
86 118 2 0 21 -37 43 -82 76 -157 174 -250 314 -298 88 -30 178 -37 196 -16
21 25 7 90 -39 183 -72 147 -189 240 -345 279 -39 9 -72 19 -75 21 -6 5 24 29
105 85 33 24 54 43 46 46 -7 2 -50 -21 -96 -52 -84 -57 -112 -82 -103 -92 3
-3 43 -14 88 -25 181 -43 288 -125 362 -277 22 -46 41 -97 42 -115 1 -30 -1
-32 -37 -35 -84 -7 -209 39 -296 108 -57 46 -116 135 -152 229 -17 45 -34 81
-38 81 -16 0 -141 -150 -141 -169 0 -5 21 -16 48 -26 132 -49 245 -142 291
-239 32 -65 68 -224 58 -250 -13 -34 -100 -4 -203 69 -103 74 -169 194 -189
345 -4 30 -11 61 -15 69 -10 18 -97 -146 -140 -264 -18 -49 -55 -138 -81 -198
-27 -60 -49 -113 -49 -117 0 -4 29 -27 64 -50 87 -56 151 -127 188 -207 28
-59 32 -80 36 -175 5 -126 -2 -137 -73 -99 -78 41 -142 107 -181 187 -34 67
-38 84 -44 184 -3 60 -8 112 -11 115 -7 6 -161 -193 -163 -210 0 -6 24 -31 54
-56 121 -99 173 -202 173 -342 0 -48 -2 -90 -5 -93 -4 -3 -21 2 -39 12 -18 9
-56 19 -83 23 -51 6 -51 6 -84 71 -46 91 -56 161 -41 271 6 49 10 92 7 94 -3
3 -48 -34 -101 -81 l-96 -87 56 -61 c70 -76 104 -148 111 -235 5 -74 -11 -168
-33 -197 -14 -18 -18 -16 -64 33 -27 29 -62 79 -78 110 -24 50 -28 69 -27 138
1 44 8 106 17 138 8 31 11 57 6 57 -5 0 -38 -17 -72 -39 -34 -21 -93 -57 -132
-79 -38 -22 -99 -66 -133 -97 -93 -81 -112 -89 -214 -90 -119 0 -127 10 -63
76 79 81 111 93 238 95 96 2 113 5 162 29 117 60 348 251 452 376 68 82 134
180 130 193 -1 4 -36 17 -77 27 -111 28 -191 71 -246 132 -50 55 -109 168
-119 228 -9 47 6 53 82 33 180 -46 288 -145 348 -318 11 -33 25 -61 31 -63 17
-6 126 259 112 272 -2 2 -45 13 -95 24 -149 32 -231 85 -302 194 -50 75 -80
162 -63 179 15 15 116 -3 200 -34 87 -32 177 -127 227 -240 22 -49 42 -88 45
-88 3 0 28 46 55 103 85 176 191 320 327 444 86 78 73 88 -19 14 l-61 -49 -7
44 c-11 76 -29 66 -23 -15 4 -56 2 -71 -9 -71 -26 0 -128 47 -203 93 -44 28
-86 47 -103 47 -29 0 -29 0 29 -63 58 -62 131 -189 136 -237 3 -24 1 -25 -52
-22 -170 9 -315 97 -402 244 -44 73 -65 96 -53 57z"/>
<path fill="#ffffff" stroke="none" d="M1417 7781 c34 -17 69 -31 78 -31 8 0
15 -6 15 -12 0 -15 -69 -118 -79 -118 -3 1 -22 35 -41 77 -19 42 -50 97 -69
122 l-35 45 34 -26 c19 -14 63 -40 97 -57z"/>
<path fill="#ffffff" stroke="none" d="M8299 7793 c19 -41 51 -183 51 -225 0
-26 -4 -38 -14 -38 -21 0 -115 89 -122 115 -10 42 39 175 65 175 4 0 13 -12
20 -27z"/>
<path fill="#ffffff" stroke="none" d="M8366 7789 c83 -66 96 -140 38 -216
l-29 -38 -8 45 c-7 39 -39 172 -54 223 -8 25 9 21 53 -14z"/>
<path fill="#ffffff" stroke="none" d="M8590 7672 c0 -4 -19 -39 -43 -77 -50
-82 -73 -93 -83 -40 -8 47 7 80 48 105 33 20 78 27 78 12z"/>
<path fill="#ffffff" stroke="none" d="M8610 7560 c-13 -32 -55 -60 -89 -60
-18 0 -16 6 18 55 21 30 45 69 52 87 l14 33 9 -42 c6 -30 5 -51 -4 -73z"/>
<path fill="#ffffff" stroke="none" d="M8854 7594 c32 -22 36 -28 23 -35 -20
-12 -161 -24 -182 -15 -15 5 -15 8 -1 28 37 53 101 62 160 22z"/>
<path fill="#ffffff" stroke="none" d="M8450 7555 c0 -35 -5 -40 -34 -29 -14
5 -14 9 1 35 23 38 33 37 33 -6z"/>
<path fill="#ffffff" stroke="none" d="M8854 7510 c-40 -40 -88 -48 -131 -21
-18 12 -33 25 -33 30 0 6 35 12 78 14 42 1 86 4 97 5 17 2 15 -2 -11 -28z"/>
<path fill="#ffffff" stroke="none" d="M8197 7505 c53 -21 100 -73 109 -121 8
-41 1 -165 -11 -184 -5 -8 -17 5 -35 37 -34 59 -131 166 -219 240 l-66 56 90
-5 c50 -3 109 -13 132 -23z"/>
<path fill="#ffffff" stroke="none" d="M8635 7470 l-26 -52 23 -25 c37 -41
140 -110 211 -143 49 -24 89 -34 164 -41 54 -6 204 -26 333 -45 178 -26 238
-39 247 -51 28 -37 29 -157 2 -174 -28 -17 -39 2 -39 66 0 58 -2 65 -31 89
-33 28 -59 32 -92 14 -31 -16 -46 -39 -47 -70 0 -15 -4 -29 -8 -32 -4 -2 -39
4 -77 15 -39 11 -121 28 -183 39 -113 20 -113 20 -170 0 -31 -12 -110 -34
-176 -51 -65 -16 -149 -45 -187 -64 -38 -19 -71 -35 -74 -35 -3 0 6 16 22 36
26 35 26 37 8 50 -10 8 -26 14 -35 14 -30 0 -155 68 -185 100 -23 26 -26 31
-10 25 54 -21 73 -18 90 14 20 39 38 31 30 -13 -10 -53 9 -61 149 -60 100 0
131 4 178 23 60 23 93 51 70 59 -29 9 -140 101 -228 188 -52 51 -113 109 -136
129 -24 21 -34 34 -23 30 11 -3 48 -16 82 -28 l63 -22 37 37 c20 21 39 36 41
34 2 -2 -9 -27 -23 -56z"/>
<path fill="#ffffff" stroke="none" d="M8037 7462 c75 -63 167 -163 203 -221
31 -48 31 -64 3 -39 -32 28 -81 48 -115 47 -31 0 -31 -1 12 -13 54 -14 131
-63 109 -69 -8 -3 -40 -9 -72 -15 -31 -6 -96 -27 -144 -46 -48 -20 -91 -36
-95 -36 -15 0 -8 18 32 78 28 41 54 67 83 82 l42 21 -48 -7 -47 -6 -21 48
c-33 73 -39 224 -9 224 5 0 35 -22 67 -48z"/>
<path fill="#ffffff" stroke="none" d="M8423 7317 c1 -52 -2 -99 -6 -104 -11
-11 -65 50 -73 82 -10 42 47 148 68 127 5 -5 10 -52 11 -105z"/>
<path fill="#ffffff" stroke="none" d="M8485 7377 c14 -24 25 -55 25 -70 0
-28 -46 -90 -61 -81 -10 6 -12 177 -2 187 10 11 10 10 38 -36z"/>
<path fill="#ffffff" stroke="none" d="M9576 7272 c124 -64 179 -198 140 -338
-17 -57 -25 -66 -206 -244 -262 -257 -289 -304 -281 -480 1 -31 3 -33 15 -18
7 10 20 56 30 104 27 138 70 205 162 250 44 21 64 26 105 22 62 -6 88 -30 96
-85 7 -50 -9 -99 -49 -154 l-31 -43 -1 -220 c-1 -122 -6 -236 -10 -253 -10
-41 -25 -41 -108 -8 -83 34 -151 84 -172 129 -9 20 -21 36 -27 36 -5 0 -19
-16 -31 -35 -19 -33 -22 -35 -38 -20 -24 22 -28 20 -41 -25 -11 -37 -15 -40
-58 -45 -132 -16 -186 -27 -237 -50 -31 -14 -60 -23 -64 -20 -15 9 -33 203
-28 311 4 92 9 119 33 172 24 53 26 66 16 88 -24 53 -31 113 -20 161 10 46 42
93 62 93 6 0 0 -12 -14 -26 -69 -73 22 -234 133 -234 100 0 103 139 5 221 -12
10 -17 18 -10 19 17 0 79 -76 104 -128 20 -40 21 -55 16 -167 -4 -98 -2 -128
10 -144 30 -44 38 -25 39 92 0 123 10 160 65 254 40 67 186 222 304 324 114
97 137 132 138 206 0 60 -16 105 -49 134 -45 39 -66 43 -206 41 -152 -3 -172
4 -122 46 62 51 102 63 199 59 67 -2 100 -9 131 -25z"/>
<path fill="#ffffff" stroke="none" d="M8388 7174 c-4 -40 -30 -52 -63 -30
-27 18 -28 39 -4 104 9 23 9 23 40 -12 21 -25 29 -43 27 -62z"/>
<path fill="#ffffff" stroke="none" d="M1420 7223 c155 -104 230 -247 218
-416 -6 -79 -15 -85 -77 -51 -154 83 -231 222 -231 416 0 105 6 108 90 51z"/>
<path fill="#ffffff" stroke="none" d="M9515 7170 c27 -11 -59 -11 -95 0 -20
6 -14 8 25 8 28 0 59 -3 70 -8z"/>
<path fill="#ffffff" stroke="none" d="M8265 7128 c-17 -58 -61 -113 -108
-137 -44 -21 -54 -23 -95 -13 -65 15 -146 52 -136 62 14 14 174 80 229 95 28
8 65 14 83 14 30 1 33 -1 27 -21z"/>
<path fill="#ffffff" stroke="none" d="M651 7120 c139 -47 233 -141 278 -277
25 -76 27 -123 6 -123 -26 0 -138 40 -181 65 -57 33 -121 101 -150 156 -30 60
-59 163 -51 183 8 21 25 20 98 -4z"/>
<path fill="#ffffff" stroke="none" d="M9519 7074 c42 -53 11 -166 -58 -211
-47 -31 -131 -31 -186 0 -65 37 -125 156 -83 165 17 3 79 -23 130 -56 38 -23
61 -7 70 48 10 55 32 80 74 80 23 0 38 -7 53 -26z"/>
<path fill="#ffffff" stroke="none" d="M1000 6965 c52 -18 96 -37 97 -42 4
-12 -105 -163 -118 -163 -5 0 -9 9 -9 20 0 30 -47 150 -77 194 -21 33 -22 38
-7 31 11 -4 62 -23 114 -40z"/>
<path fill="#ffffff" stroke="none" d="M9356 6984 c18 -14 18 -15 -6 -8 -31 8
-50 24 -29 24 8 0 24 -7 35 -16z"/>
<path fill="#ffffff" stroke="none" d="M8434 6946 l38 -23 -66 -17 c-36 -9
-91 -27 -122 -41 -31 -14 -61 -25 -66 -25 -15 0 34 80 65 106 38 32 99 32 151
0z"/>
<path fill="#ffffff" stroke="none" d="M8480 6892 c0 -17 -60 -101 -79 -111
-41 -23 -181 -2 -181 26 0 13 39 34 120 64 73 27 140 37 140 21z"/>
<path fill="#ffffff" stroke="none" d="M544 6838 c98 -50 182 -169 194 -276
l5 -43 -29 7 c-144 34 -237 101 -289 210 -32 67 -48 136 -33 145 13 8 98 -16
152 -43z"/>
<path fill="#ffffff" stroke="none" d="M946 6492 c1 -115 14 -166 60 -235 23
-35 24 -38 8 -62 -23 -36 -31 -31 -38 23 -8 63 -53 155 -109 224 l-47 56 58
51 c31 28 59 51 62 51 3 0 6 -48 6 -108z"/>
<path fill="#ffffff" stroke="none" d="M464 6565 c22 -10 64 -43 95 -72 65
-61 62 -68 -35 -78 -117 -13 -199 14 -273 89 -68 70 -50 86 94 82 55 -1 92 -8
119 -21z"/>
<path fill="#ffffff" stroke="none" d="M8933 6562 c102 -68 114 -202 18 -202
-72 0 -141 73 -141 149 0 66 62 93 123 53z"/>
<path fill="#ffffff" stroke="none" d="M731 6393 c-19 -67 -13 -156 15 -230
41 -109 40 -105 10 -93 -15 5 -38 10 -52 10 -13 0 -24 2 -24 4 0 3 7 35 15 71
15 63 15 71 -5 149 l-21 81 32 28 c17 16 33 26 36 24 2 -3 0 -22 -6 -44z"/>
<path fill="#ffffff" stroke="none" d="M9260 6310 c-18 -77 -20 -80 -15 -30 4
59 25 142 31 125 2 -6 -5 -48 -16 -95z"/>
<path fill="#ffffff" stroke="none" d="M660 6335 c14 -41 17 -155 6 -203 -9
-38 -26 -47 -111 -57 l-58 -8 5 64 c3 41 15 83 31 114 27 53 88 125 105 125 6
0 16 -16 22 -35z"/>
<path fill="#ffffff" stroke="none" d="M9094 6208 c4 -37 2 -58 -4 -58 -6 0
-10 27 -10 62 0 74 5 73 14 -4z"/>
<path fill="#ffffff" stroke="none" d="M1159 6185 c48 -25 50 -68 4 -86 -62
-23 -143 3 -143 46 0 49 79 72 139 40z"/>
<path fill="#ffffff" stroke="none" d="M1035 6072 c16 -8 16 -13 -3 -55 -23
-52 -63 -97 -86 -97 -24 0 -27 33 -6 74 10 21 22 59 26 85 9 63 13 67 34 33
10 -17 26 -34 35 -40z"/>
<path fill="#ffffff" stroke="none" d="M796 6029 c41 -19 79 -54 107 -99 16
-25 15 -26 -58 -93 l-74 -68 -37 16 c-117 49 -293 225 -251 252 40 26 251 20
313 -8z"/>
<path fill="#ffffff" stroke="none" d="M1128 6048 c7 -7 12 -25 12 -40 0 -45
25 -93 62 -121 57 -44 148 -81 201 -81 44 -1 52 3 86 39 21 22 42 49 49 60 10
20 11 20 39 -1 21 -16 27 -29 25 -50 -9 -96 -5 -177 12 -249 26 -111 25 -301
-2 -465 -11 -70 -23 -204 -27 -304 -9 -232 -10 -236 -62 -160 -52 75 -170 190
-247 239 -221 141 -508 223 -746 212 -63 -3 -130 -11 -148 -17 -18 -7 -35 -10
-37 -8 -6 5 64 102 165 229 42 52 108 150 146 218 105 185 165 253 317 358 31
22 55 49 73 85 34 68 55 83 82 56z"/>
<path fill="#ffffff" stroke="none" d="M1655 6028 c38 -17 69 -72 55 -98 -20
-38 -124 -18 -150 29 -33 63 21 103 95 69z"/>
<path fill="#ffffff" stroke="none" d="M9263 5916 c23 -50 69 -80 223 -146 76
-33 162 -76 190 -96 60 -41 137 -129 167 -191 l21 -43 66 6 c85 8 127 -10 160
-67 47 -85 20 -229 -53 -281 -27 -19 -45 -23 -108 -23 l-76 0 -36 -70 c-64
-124 -199 -236 -346 -287 -59 -21 -84 -23 -236 -23 -201 1 -264 14 -403 81
-154 74 -281 213 -334 362 -22 60 -26 66 -78 92 -86 44 -113 78 -118 150 -4
50 0 69 21 113 43 88 124 113 199 62 20 -14 39 -25 41 -25 2 0 31 35 65 79
101 130 205 187 391 215 56 8 106 18 111 21 6 3 10 19 10 36 0 29 13 39 25 19
12 -19 35 -10 50 20 20 38 28 38 48 -4z"/>
<path fill="#ffffff" stroke="none" d="M1862 5619 c22 -11 60 -39 84 -61 46
-43 128 -157 119 -166 -3 -3 -31 21 -63 54 -107 112 -182 149 -288 142 -63 -4
-88 8 -61 30 45 36 141 36 209 1z"/>
<path fill="#ffffff" stroke="none" d="M1865 5542 c57 -31 178 -147 172 -165
-13 -41 -282 0 -351 54 -23 18 -26 28 -26 79 0 56 1 59 28 63 51 9 127 -4 177
-31z"/>
<path fill="#ffffff" stroke="none" d="M4625 5526 c136 -36 262 -149 320 -289
l15 -37 -54 -35 c-30 -19 -57 -35 -59 -35 -3 0 -19 22 -37 49 -38 61 -104 122
-162 152 -36 19 -59 23 -134 23 -128 -1 -208 -34 -354 -147 -161 -125 -285
-356 -320 -595 -12 -82 -10 -322 4 -352 6 -14 -10 -18 -106 -27 -101 -9 -114
-9 -126 6 -11 12 -13 52 -9 176 4 133 9 177 32 260 74 274 176 475 314 618
107 112 197 170 336 218 67 24 97 28 185 28 58 1 128 -5 155 -13z"/>
<path fill="#ffffff" stroke="none" d="M4610 5313 c86 -30 151 -88 193 -170
l17 -31 -52 -37 c-319 -230 -492 -631 -448 -1040 9 -83 9 -120 2 -127 -32 -32
-219 19 -285 77 l-28 25 30 37 c64 78 23 144 -108 177 -69 17 -76 38 -76 221
1 166 17 253 76 405 59 155 179 299 324 392 145 92 240 111 355 71z"/>
<path fill="#ffffff" stroke="none" d="M5783 5246 c455 -104 791 -413 904
-831 25 -92 27 -115 27 -285 0 -168 -2 -194 -26 -282 -50 -184 -138 -339 -262
-464 -83 -82 -155 -133 -300 -210 -58 -31 -109 -61 -113 -67 -14 -24 -6 -112
15 -153 23 -45 104 -124 127 -124 23 0 18 -13 -16 -46 -38 -36 -72 -90 -67
-106 3 -7 22 12 45 42 63 86 62 86 151 71 109 -19 124 -25 113 -53 -14 -39
-22 -114 -15 -143 10 -41 24 -10 24 56 0 31 5 70 11 87 9 28 16 31 63 37 76
10 87 5 103 -39 13 -40 42 -80 51 -72 2 3 -7 25 -22 50 -14 24 -26 51 -26 59
0 9 20 23 46 33 30 12 57 32 81 63 67 85 105 105 158 85 20 -8 45 -56 45 -87
0 -24 25 -52 93 -101 30 -22 37 -33 37 -62 0 -40 -20 -93 -42 -112 -16 -13
-233 -98 -387 -152 -218 -77 -448 -80 -637 -9 -68 26 -185 103 -247 163 -70
69 -117 132 -188 252 -84 139 -141 193 -241 223 -329 101 -464 175 -629 348
-123 129 -212 282 -265 458 -27 85 -28 100 -28 290 0 186 2 207 27 300 51 189
145 343 299 491 163 156 359 256 585 299 101 19 406 13 506 -9z"/>
<path fill="#ffffff" stroke="none" d="M795 5084 c175 -36 348 -105 466 -185
76 -50 201 -174 250 -244 29 -43 34 -58 34 -110 0 -126 -123 -304 -254 -368
l-66 -32 -170 0 c-156 1 -178 3 -260 28 -115 35 -254 104 -328 162 -72 57
-148 159 -183 245 -49 121 -43 297 15 433 16 37 29 51 58 64 76 32 300 36 438
7z"/>
<path fill="#ffffff" stroke="none" d="M7033 5083 c210 -61 394 -243 497 -493
50 -121 78 -245 91 -406 21 -273 -3 -442 -87 -613 -38 -76 -61 -109 -132 -180
-70 -71 -103 -96 -172 -130 -137 -67 -282 -86 -425 -56 -99 21 -164 56 -246
133 l-71 67 37 48 36 47 53 -45 c80 -68 134 -88 248 -93 78 -3 110 0 166 17
133 40 240 143 318 306 105 220 123 507 47 750 -61 198 -198 379 -347 462 -47
26 -60 28 -151 28 -90 -1 -105 -3 -154 -29 -30 -15 -78 -51 -107 -78 -33 -31
-59 -48 -68 -45 -18 7 -76 85 -76 101 0 7 29 44 65 83 72 79 154 127 241 143
61 11 169 3 237 -17z"/>
<path fill="#ffffff" stroke="none" d="M7035 4870 c135 -65 271 -247 339 -452
79 -238 40 -603 -87 -800 -160 -251 -468 -313 -671 -135 l-39 34 45 94 c87
179 122 330 121 529 0 191 -36 348 -117 507 -20 40 -36 76 -36 81 0 18 83 103
124 127 104 61 217 66 321 15z"/>
<path fill="#ffffff" stroke="none" d="M8803 4770 c31 -18 57 -37 57 -44 0 -7
-6 -35 -14 -62 -8 -27 -22 -87 -31 -134 -19 -105 -40 -131 -112 -137 -60 -5
-108 18 -141 67 -22 31 -23 42 -18 105 6 69 23 140 66 262 l22 63 56 -44 c32
-24 83 -58 115 -76z"/>
<path fill="#ffffff" stroke="none" d="M9734 4744 c51 -137 65 -278 34 -337
-17 -33 -70 -57 -125 -57 -43 0 -58 5 -83 28 -26 23 -32 40 -45 117 -9 50 -23
114 -32 142 -9 29 -15 55 -12 57 2 2 42 23 89 46 47 24 96 51 109 61 13 11 27
19 30 19 4 0 19 -34 35 -76z"/>
<path fill="#ffffff" stroke="none" d="M8516 4715 c8 -21 14 -67 14 -117 l-1
-83 -82 -45 c-61 -33 -107 -69 -180 -142 l-98 -98 -47 27 c-75 43 -74 40 -52
83 11 21 24 42 30 45 6 3 35 -5 66 -19 31 -14 58 -26 61 -26 2 0 -12 29 -32
65 l-37 65 21 32 c37 61 134 142 247 208 38 22 70 40 72 40 2 0 10 -16 18 -35z"/>
<path fill="#ffffff" stroke="none" d="M9025 4696 c55 -12 100 -26 99 -30 -1
-4 -14 -34 -29 -67 -24 -48 -32 -58 -48 -53 -10 3 -59 14 -109 24 -50 11 -92
21 -95 24 -4 4 2 27 33 125 3 9 11 11 27 6 12 -4 67 -17 122 -29z"/>
<path fill="#ffffff" stroke="none" d="M9410 4676 c0 -2 -33 -10 -72 -16 -102
-17 -136 -33 -190 -93 -44 -46 -48 -49 -48 -27 0 14 14 48 30 77 l30 52 87 4
c49 1 105 4 126 5 20 1 37 0 37 -2z"/>
<path fill="#ffffff" stroke="none" d="M9474 4616 c9 -27 16 -58 16 -68 0 -42
-73 -148 -131 -189 -46 -32 -47 -15 -2 29 61 59 83 116 83 214 0 89 8 92 34
14z"/>
<path fill="#ffffff" stroke="none" d="M9420 4598 c-1 -84 -40 -169 -97 -212
l-25 -18 -41 40 c-23 22 -61 53 -84 69 l-42 30 35 42 c20 23 49 48 65 57 25
12 132 39 177 43 8 1 12 -15 12 -51z"/>
<path fill="#ffffff" stroke="none" d="M8960 4530 c7 -12 18 -86 40 -290 6
-52 13 -105 16 -117 10 -48 -15 -20 -49 55 -30 66 -117 337 -117 365 0 14 101
2 110 -13z"/>
<path fill="#ffffff" stroke="none" d="M9093 4493 c121 -64 267 -217 267 -280
0 -32 -27 -96 -64 -150 -50 -73 -30 -80 74 -28 39 19 70 33 70 31 0 -2 7 -19
15 -39 l14 -35 -59 -21 c-32 -12 -69 -30 -82 -40 l-23 -19 30 -12 c17 -6 65
-10 108 -9 76 3 78 3 97 -26 11 -17 20 -33 20 -36 0 -4 -21 -9 -46 -12 -25 -2
-50 -9 -56 -15 -16 -16 45 -50 115 -64 53 -11 62 -17 120 -83 127 -142 198
-227 195 -231 -3 -2 -45 3 -94 12 -68 12 -135 15 -289 11 -185 -4 -209 -7
-318 -36 -133 -35 -307 -103 -414 -162 -193 -106 -367 -269 -453 -422 -18 -32
-36 -55 -41 -50 -9 9 -55 232 -65 315 -6 51 -5 58 12 64 11 3 43 18 73 33 59
28 201 154 189 167 -4 4 -63 -9 -130 -29 -193 -56 -180 -55 -176 -6 l3 42 84
23 c110 30 191 71 270 136 l65 53 -46 3 c-43 3 -344 -39 -380 -53 -18 -7 -32
12 -42 60 l-7 31 95 12 c100 12 218 50 245 77 11 11 -1 8 -41 -9 -69 -31 -153
-53 -233 -61 -72 -8 -80 -2 -90 69 -7 42 -6 48 8 43 23 -9 393 -21 385 -13 -3
4 -91 11 -196 15 -104 5 -195 12 -202 16 -17 11 -6 190 16 265 30 103 94 210
172 290 l74 74 102 -199 c112 -221 134 -257 147 -249 25 15 -5 183 -55 315
-34 90 -58 188 -51 207 10 26 40 -12 105 -137 64 -122 151 -250 237 -348 42
-47 54 -56 64 -45 18 17 -7 166 -58 332 -37 123 -45 200 -26 235 7 11 23 -28
57 -137 47 -150 83 -236 114 -270 27 -31 35 -21 29 35 -16 144 -38 326 -43
360 -5 33 -4 37 16 37 12 0 54 -17 93 -37z"/>
<path fill="#ffffff" stroke="none" d="M8536 4280 c57 -174 78 -261 72 -301
-2 -20 -9 -14 -41 43 -55 99 -187 361 -187 374 0 13 71 55 88 51 8 -1 36 -71
68 -167z"/>
<path fill="#ffffff" stroke="none" d="M8834 4293 c30 -96 51 -184 71 -305 3
-22 2 -38 -4 -38 -32 0 -270 334 -295 416 -6 20 -4 21 67 16 45 -3 82 0 93 6
11 6 22 12 26 12 4 0 23 -48 42 -107z"/>
<path fill="#ffffff" stroke="none" d="M2906 4289 c101 -19 243 -93 334 -175
l35 -32 85 34 c154 63 212 75 375 81 161 6 213 -2 259 -38 14 -11 26 -28 26
-38 0 -10 -27 -49 -61 -87 -70 -79 -78 -67 81 -104 52 -12 127 -37 167 -56 91
-43 188 -138 232 -225 53 -106 43 -119 -82 -119 l-89 0 52 -57 c95 -107 168
-234 210 -368 47 -148 35 -414 -20 -469 -19 -20 -20 -19 -69 22 l-50 42 -5
-42 c-2 -24 -9 -95 -15 -158 -16 -171 -19 -177 -69 -141 -15 10 -55 33 -89 50
-56 28 -63 35 -63 61 l0 29 48 -20 c26 -11 64 -29 86 -40 21 -11 41 -18 44
-15 3 3 -33 24 -80 46 l-85 41 -11 102 c-7 56 -23 147 -36 202 -14 55 -30 132
-36 170 -18 107 -50 227 -67 254 -15 24 -15 26 22 55 58 46 85 114 85 211 0
142 -62 230 -172 244 -71 9 -169 -4 -216 -28 -38 -20 -112 -92 -112 -111 0 -5
-36 4 -79 20 -136 50 -219 63 -396 63 -171 0 -251 -12 -388 -58 -89 -31 -95
-31 -103 -1 -8 34 -71 92 -128 117 -56 24 -189 30 -241 9 -77 -30 -125 -117
-125 -225 0 -102 14 -139 75 -202 l53 -55 -24 -55 c-15 -34 -33 -108 -45 -191
-11 -74 -36 -185 -55 -246 -24 -76 -37 -139 -41 -203 l-6 -92 -58 -31 c-32
-17 -61 -36 -65 -42 -4 -6 18 3 48 20 63 36 83 39 92 15 9 -22 -14 -43 -88
-85 -47 -26 -67 -45 -95 -92 -48 -78 -72 -89 -111 -51 -56 53 -65 98 -65 310
l0 190 43 104 c23 57 63 137 87 178 25 41 45 76 45 79 0 3 -37 2 -82 -2 -97
-7 -162 6 -179 38 -60 112 187 445 439 592 34 20 62 39 62 41 0 3 -33 21 -72
41 -77 38 -118 69 -118 90 0 19 59 65 119 91 79 35 234 70 368 83 65 6 133 13
151 16 l33 5 -39 43 c-116 126 -86 175 109 176 58 0 132 -5 165 -11z"/>
<path fill="#ffffff" stroke="none" d="M8052 4270 c57 -21 117 -64 106 -75 -3
-3 -30 1 -59 9 -76 23 -103 20 -214 -21 -55 -20 -102 -38 -104 -40 -9 -6 52
-93 88 -126 52 -46 90 -66 146 -74 72 -9 68 -27 -5 -20 -124 11 -233 88 -304
215 -20 35 -36 66 -36 68 0 2 14 4 31 4 16 0 67 15 112 34 129 53 159 56 239
26z"/>
<path fill="#ffffff" stroke="none" d="M8118 4171 c20 -11 21 -14 8 -39 -8
-15 -23 -60 -35 -99 -24 -80 -26 -81 -95 -62 -59 16 -112 54 -150 106 l-34 47
66 29 c107 45 179 51 240 18z"/>
<path fill="#ffffff" stroke="none" d="M9413 4072 c-22 -18 -123 -65 -127 -61
-2 2 20 44 48 93 l51 89 23 -54 c23 -51 23 -54 5 -67z"/>
<path fill="#ffffff" stroke="none" d="M1300 4078 l0 -63 -49 -21 c-64 -28
-83 -58 -89 -143 l-5 -69 49 -36 c27 -20 64 -41 81 -48 26 -10 34 -19 39 -47
11 -69 13 -66 -36 -63 l-46 3 -38 -66 c-44 -76 -44 -107 -2 -179 l25 -43 87
-6 c47 -2 90 -9 94 -13 4 -5 11 -23 14 -39 6 -29 4 -31 -53 -56 -48 -22 -66
-36 -95 -81 -65 -98 -58 -143 34 -233 38 -37 44 -40 98 -39 68 1 147 33 179
72 19 23 25 25 40 15 10 -7 49 -31 86 -54 52 -32 66 -46 61 -58 -4 -9 -16 -49
-27 -90 l-21 -73 -19 26 c-23 31 -106 76 -141 76 -13 0 -51 -18 -85 -41 l-61
-41 0 -63 c0 -35 4 -75 10 -89 11 -29 103 -86 140 -86 14 0 51 16 83 35 32 19
60 35 63 35 2 0 4 -30 4 -66 0 -50 -5 -73 -20 -94 -20 -28 -20 -28 0 -85 25
-73 35 -85 71 -85 31 0 39 -17 13 -27 -9 -3 -48 11 -91 33 l-75 38 -172 6
c-157 5 -174 7 -203 28 -35 25 -68 73 -77 112 -4 16 2 42 19 74 14 27 25 55
25 62 0 7 21 20 46 30 39 15 50 25 66 62 23 52 20 72 -22 130 -23 30 -39 42
-57 42 -31 0 -89 -27 -106 -49 -10 -13 -36 -17 -132 -19 l-120 -3 -37 -36
c-21 -20 -40 -35 -42 -32 -4 4 11 115 20 138 3 11 12 7 33 -14 l29 -27 74 24
c73 24 73 25 90 74 9 27 19 68 23 92 8 49 4 57 -69 114 -45 36 -52 38 -92 32
-43 -6 -44 -6 -44 22 0 16 3 39 6 52 6 22 10 23 63 17 31 -4 64 -9 73 -11 12
-4 27 12 53 52 50 78 50 76 23 145 -25 68 -33 73 -122 84 l-59 7 7 71 c4 39 8
73 10 75 3 2 13 -1 24 -7 17 -9 29 -4 71 29 81 64 85 74 66 166 -9 43 -21 84
-26 91 -6 6 -33 19 -60 28 l-49 17 0 104 0 104 113 1 c81 0 127 5 167 19 30
10 58 18 63 19 4 1 7 -27 7 -61z"/>
<path fill="#ffffff" stroke="none" d="M7720 4043 c32 -47 111 -110 176 -140
60 -27 55 -9 79 -278 9 -99 21 -186 28 -193 8 -10 8 -15 -1 -20 -18 -12 -29
-52 -43 -164 -10 -85 -10 -110 0 -121 10 -13 9 -16 -7 -21 -23 -8 -42 -46 -42
-86 0 -22 -16 -45 -72 -102 -57 -57 -97 -86 -183 -132 -151 -81 -265 -158
-322 -216 -76 -79 -84 -70 -58 63 9 47 15 136 15 218 l0 140 37 -28 c33 -25
44 -28 118 -28 51 0 88 -5 97 -13 10 -8 47 -11 119 -10 57 2 114 -1 127 -6 19
-7 22 -5 22 18 0 15 -7 43 -15 63 -8 19 -15 44 -15 54 0 10 -13 33 -28 50 -24
27 -38 33 -83 37 -71 6 -122 -16 -150 -63 -43 -72 -119 -37 -194 89 -41 70
-42 79 -12 93 45 21 177 156 221 227 93 148 132 279 143 486 3 66 9 120 12
120 3 0 17 -17 31 -37z"/>
<path fill="#ffffff" stroke="none" d="M1308 3850 c6 -69 7 -128 3 -133 -4 -4
-36 11 -71 33 l-63 41 7 60 c3 33 10 69 16 79 12 23 82 62 91 52 4 -4 11 -63
17 -132z"/>
<path fill="#ffffff" stroke="none" d="M4009 3976 c9 -11 6 -12 -14 -8 -14 2
-22 8 -19 13 8 13 20 11 33 -5z"/>
<path fill="#ffffff" stroke="none" d="M9493 3942 l19 -32 -91 0 c-50 0 -91 2
-91 5 0 9 124 65 135 62 5 -2 18 -18 28 -35z"/>
<path fill="#ffffff" stroke="none" d="M4347 3868 c13 -17 23 -58 15 -58 -17
0 -65 48 -58 58 9 16 31 15 43 0z"/>
<path fill="#ffffff" stroke="none" d="M8061 3858 c3 -6 9 -40 12 -77 3 -37
19 -125 36 -197 41 -176 65 -346 56 -408 -7 -57 -69 -224 -91 -246 -12 -13
-18 -12 -48 4 -19 10 -49 30 -66 45 -29 24 -31 29 -23 61 9 32 13 35 44 34 19
0 48 -4 64 -9 28 -8 26 -5 -22 41 l-52 49 16 113 c16 109 17 112 42 113 14 1
37 4 50 8 24 6 23 8 -20 35 l-45 29 -13 156 c-7 86 -15 182 -18 213 l-5 57 38
-6 c22 -3 42 -10 45 -15z"/>
<path fill="#ffffff" stroke="none" d="M999 3854 c38 -8 51 -29 68 -114 l13
-65 -52 -47 c-29 -27 -57 -48 -64 -48 -30 0 -36 29 -29 137 7 116 12 143 24
143 5 0 23 -3 40 -6z"/>
<path fill="#ffffff" stroke="none" d="M9592 3780 c17 -17 28 -33 25 -36 -6
-6 -98 21 -132 39 -19 10 -19 11 5 18 49 14 71 9 102 -21z"/>
<path fill="#ffffff" stroke="none" d="M2535 3720 c44 -22 83 -62 120 -124 9
-15 18 -14 100 14 100 35 288 70 370 70 107 0 289 -30 392 -65 55 -19 105 -35
110 -35 4 0 15 15 23 32 8 17 41 50 72 72 57 40 59 40 150 41 107 0 141 -14
186 -79 22 -32 27 -52 31 -114 5 -99 -10 -144 -69 -206 l-48 -51 28 -70 c16
-38 36 -112 45 -165 9 -52 30 -156 45 -230 33 -159 48 -290 32 -290 -6 0 -37
7 -68 15 -80 21 -297 36 -369 26 -53 -7 -44 -9 70 -10 201 -2 360 -33 360 -71
0 -19 -14 -18 -135 8 -95 20 -280 39 -269 28 3 -3 55 -11 114 -16 128 -13 275
-47 275 -65 0 -26 -23 -75 -35 -75 -7 0 -42 11 -78 25 -85 32 -247 72 -317 79
-45 5 -40 2 30 -13 171 -37 343 -91 356 -112 8 -14 -71 -104 -145 -166 -123
-101 -319 -183 -520 -217 -124 -21 -367 -21 -492 0 -121 20 -284 74 -378 125
-121 65 -297 217 -275 239 32 32 309 119 433 136 28 4 54 10 56 14 15 24 -252
-40 -396 -94 -53 -20 -102 -36 -108 -36 -6 0 -20 18 -31 40 l-21 41 44 19 c66
29 170 48 329 61 79 6 145 13 148 16 9 10 -234 -6 -321 -22 -47 -8 -112 -24
-143 -36 -31 -12 -58 -20 -60 -18 -2 2 -6 15 -8 29 -2 21 3 27 34 37 72 24
248 43 404 44 155 2 157 2 74 11 -95 10 -298 -3 -413 -28 -111 -23 -107 -25
-107 59 0 51 9 103 30 177 17 58 40 164 50 237 17 112 33 173 74 274 5 11 -4
23 -31 41 -22 15 -51 48 -68 79 -25 46 -29 64 -29 129 0 105 30 161 109 204
47 25 176 18 240 -14z"/>
<path fill="#ffffff" stroke="none" d="M8549 3544 c-55 -59 -232 -142 -336
-158 l-41 -6 -7 61 c-4 33 -5 62 -2 65 9 9 314 60 376 63 l34 1 -24 -26z"/>
<path fill="#ffffff" stroke="none" d="M1364 3452 c14 -60 26 -114 26 -120 0
-8 -24 -12 -74 -12 l-74 0 -27 53 c-33 62 -30 83 15 145 26 37 35 42 69 42
l39 0 26 -108z"/>
<path fill="#ffffff" stroke="none" d="M4662 3344 l79 -80 -45 -115 c-24 -63
-53 -145 -62 -184 -10 -38 -20 -61 -22 -50 -38 234 -107 390 -235 531 l-46 51
55 0 c40 0 63 6 82 20 l26 20 45 -56 c24 -31 80 -92 123 -137z"/>
<path fill="#ffffff" stroke="none" d="M9765 3414 c144 -23 160 -31 180 -96
26 -82 31 -238 11 -339 -64 -318 -369 -597 -740 -675 -139 -29 -355 -16 -484
30 -69 25 -172 82 -234 131 -70 55 -155 155 -181 214 l-19 44 43 85 c124 245
466 480 839 576 212 55 371 63 585 30z"/>
<path fill="#ffffff" stroke="none" d="M1041 3369 c6 -8 19 -32 30 -55 l19
-41 -32 -58 -31 -58 -54 6 c-82 9 -87 16 -79 115 9 116 12 120 81 112 32 -3
61 -13 66 -21z"/>
<path fill="#ffffff" stroke="none" d="M6539 3301 c74 -77 170 -131 270 -152
75 -15 262 -7 325 15 40 15 50 15 57 4 13 -21 57 -216 64 -286 9 -88 -32 -382
-54 -389 -57 -19 -227 -97 -283 -129 -37 -22 -99 -66 -138 -98 -71 -60 -165
-109 -207 -108 -13 0 -21 -4 -18 -8 6 -10 -77 -119 -108 -141 -12 -9 -46 -24
-74 -32 l-53 -16 0 61 c0 71 -8 70 -25 -4 l-11 -52 -27 67 c-15 37 -27 73 -27
80 -1 41 -18 37 -96 -18 -174 -124 -246 -208 -284 -332 -24 -79 -26 -205 -5
-343 18 -118 18 -118 1 -100 -8 8 -22 56 -30 107 -28 164 -85 274 -191 372
-49 44 -55 54 -55 88 0 35 6 44 55 87 30 26 55 51 55 56 0 5 -28 -4 -62 -20
-55 -26 -75 -30 -148 -30 -102 0 -149 12 -213 52 -26 17 -50 28 -53 25 -3 -3
13 -26 36 -51 l43 -46 28 -168 c15 -93 30 -209 31 -258 l3 -89 -85 -8 c-160
-16 -144 -21 -152 51 -12 105 -38 162 -74 162 -25 0 -119 -96 -180 -185 -33
-47 -62 -85 -66 -85 -5 0 -8 9 -8 21 0 53 -57 94 -115 83 -43 -8 -42 -35 -10
301 31 322 32 507 4 720 -28 213 -22 347 20 498 29 101 83 237 95 237 3 0 22
-12 43 -26 54 -37 238 -128 299 -148 51 -17 52 -17 58 -65 17 -126 65 -209
142 -246 49 -23 102 -22 126 3 20 19 20 20 0 63 -24 55 -35 99 -24 99 5 0 37
-47 71 -105 88 -148 143 -218 228 -290 95 -81 207 -139 319 -166 78 -18 111
-20 264 -17 197 5 237 15 453 107 62 26 137 56 167 65 73 24 104 48 129 99 42
87 21 158 -59 208 -41 25 -51 37 -56 67 -10 58 -31 89 -65 101 -74 25 -126 3
-186 -80 -52 -72 -79 -82 -249 -87 -162 -5 -220 7 -300 60 -43 29 -100 95 -91
105 2 2 30 -12 62 -32 50 -30 68 -35 119 -35 72 0 124 22 146 62 20 36 8 56
-50 84 -53 26 -90 67 -90 99 0 19 18 38 78 81 42 31 94 72 115 91 20 18 40 33
43 33 4 0 37 -31 73 -69z"/>
<path fill="#ffffff" stroke="none" d="M8451 3321 c-12 -16 -43 -45 -69 -64
-58 -43 -169 -99 -175 -89 -3 4 -8 28 -11 54 -7 46 -6 48 21 54 72 16 171 44
203 58 50 22 54 20 31 -13z"/>
<path fill="#ffffff" stroke="none" d="M7304 3119 c57 -89 107 -129 159 -129
35 -1 39 -2 23 -11 -27 -16 -112 -5 -138 17 -31 28 -118 164 -118 185 0 31 31
5 74 -62z"/>
<path fill="#ffffff" stroke="none" d="M1504 3085 c31 -52 62 -97 67 -100 19
-12 8 -54 -21 -78 -33 -28 -73 -43 -142 -51 -46 -5 -47 -5 -94 47 -71 80 -73
85 -33 164 26 53 43 73 74 90 72 41 83 35 149 -72z"/>
<path fill="#ffffff" stroke="none" d="M6215 3118 c15 -33 32 -50 73 -71 28
-16 52 -35 52 -43 0 -39 -134 -58 -193 -28 -61 32 -108 75 -105 98 3 21 106
85 138 86 9 0 24 -19 35 -42z"/>
<path fill="#ffffff" stroke="none" d="M7723 3088 c10 -5 16 -16 13 -24 -3 -7
8 -39 25 -70 16 -31 28 -59 25 -61 -2 -3 -18 3 -34 11 -27 14 -36 14 -79 1
-100 -31 -143 -12 -143 60 0 52 22 80 70 94 37 10 92 5 123 -11z"/>
<path fill="#ffffff" stroke="none" d="M8214 2955 c53 -295 124 -434 283 -554
95 -72 194 -118 317 -146 58 -13 110 -27 117 -31 15 -9 5 -127 -21 -246 -23
-106 -44 -151 -68 -144 -9 3 -62 10 -117 16 -122 14 -258 57 -345 107 -68 40
-216 180 -231 220 -11 30 -33 31 -23 1 3 -13 18 -45 32 -73 117 -234 318 -397
531 -431 23 -4 43 -10 46 -13 2 -4 -22 -39 -53 -77 -31 -38 -64 -81 -73 -94
l-15 -24 -105 39 c-262 95 -377 186 -472 370 -25 48 -32 56 -35 37 -5 -34 25
-127 74 -229 35 -74 59 -108 121 -170 69 -70 95 -88 222 -153 79 -41 145 -79
145 -84 1 -6 -14 -14 -31 -18 -38 -10 -62 -49 -72 -117 -6 -43 -8 -46 -39 -49
-18 -2 -57 2 -87 8 -46 10 -56 15 -60 36 -3 13 -7 35 -10 48 -3 14 -12 32 -22
41 -20 21 -77 14 -172 -21 -36 -13 -69 -20 -73 -16 -4 4 -14 39 -22 78 -22
103 -51 173 -107 259 -27 42 -68 113 -90 157 -42 83 -58 90 -59 25 0 -21 -15
-45 -57 -88 -31 -33 -60 -56 -64 -52 -14 14 -67 234 -83 345 -28 185 -17 454
24 608 9 33 15 38 76 57 57 19 65 20 59 5 -3 -8 -9 -73 -12 -142 -8 -164 9
-246 82 -395 55 -113 140 -246 163 -253 16 -5 15 26 -3 163 -29 220 -16 517
31 675 17 58 50 120 64 120 5 0 14 -17 21 -37 20 -62 88 -194 134 -259 87
-122 179 -191 404 -304 57 -28 144 -74 192 -101 49 -27 94 -49 99 -49 39 0
-53 99 -215 230 -180 146 -255 231 -323 365 -78 156 -142 432 -115 501 8 22 6
29 37 -141z"/>
<path fill="#ffffff" stroke="none" d="M998 3000 c28 -21 53 -44 57 -50 9 -14
-23 -146 -38 -159 -7 -5 -37 -19 -67 -30 l-55 -21 -32 33 -33 32 16 100 c9 55
20 105 26 112 8 10 29 17 65 22 6 0 34 -17 61 -39z"/>
<path fill="#ffffff" stroke="none" d="M5313 3007 c59 -24 77 -49 77 -104 0
-23 7 -58 16 -77 23 -48 13 -70 -28 -62 -50 10 -104 51 -133 100 -25 42 -50
150 -39 167 7 11 44 3 107 -24z"/>
<path fill="#ffffff" stroke="none" d="M8221 2736 c41 -123 99 -230 168 -312
55 -66 91 -98 309 -279 81 -68 112 -100 112 -119 0 -3 -23 8 -52 25 -29 17
-111 60 -183 96 -320 160 -399 231 -510 457 -74 151 -74 150 -24 216 23 30 57
87 77 125 l35 70 19 -95 c11 -52 33 -135 49 -184z"/>
<path fill="#ffffff" stroke="none" d="M7981 2929 c35 -12 68 -25 72 -29 10
-9 -58 -89 -115 -137 -73 -61 -137 -88 -402 -168 -99 -30 -182 -52 -185 -49
-15 16 111 104 285 199 154 85 204 121 234 170 12 19 27 35 34 35 7 0 41 -10
77 -21z"/>
<path fill="#ffffff" stroke="none" d="M1265 2724 c8 -9 24 -33 34 -53 16 -31
17 -41 7 -66 -16 -38 -37 -55 -71 -58 -25 -2 -30 4 -56 65 -32 73 -30 91 10
113 34 19 56 19 76 -1z"/>
<path fill="#ffffff" stroke="none" d="M1630 2705 c55 -28 65 -41 74 -100 8
-54 -8 -81 -73 -127 l-54 -38 -68 36 -69 36 0 73 0 73 57 36 c32 20 63 36 71
36 7 0 35 -11 62 -25z"/>
<path fill="#ffffff" stroke="none" d="M7916 2683 c-53 -169 -71 -349 -57
-573 6 -88 16 -190 22 -225 6 -35 9 -70 7 -77 -5 -15 -109 152 -159 257 -59
124 -73 189 -72 346 1 180 3 183 116 225 48 18 98 39 110 48 29 20 40 20 33
-1z"/>
<path fill="#ffffff" stroke="none" d="M4631 2448 c22 -191 22 -194 5 -403
-21 -252 -44 -491 -51 -523 -5 -22 -11 -18 -71 47 -70 75 -166 144 -226 163
-75 22 -94 -37 -68 -213 33 -226 139 -390 318 -491 47 -27 102 -87 102 -111 0
-5 -24 12 -52 38 -29 25 -82 60 -118 78 -62 31 -70 32 -185 32 -110 -1 -127
-3 -200 -32 -44 -17 -111 -40 -150 -52 -90 -28 -166 -81 -235 -163 -30 -36
-56 -65 -57 -65 -1 1 1 15 4 32 4 17 29 51 62 85 116 116 173 204 211 325 18
59 22 96 23 231 1 138 -1 164 -16 187 -25 38 -63 35 -120 -8 -69 -52 -141
-147 -184 -242 -21 -45 -41 -83 -45 -83 -16 0 -53 178 -65 316 l-6 71 84 60
c46 34 116 89 154 122 l70 61 7 -42 c24 -134 140 -113 312 58 188 187 260 356
267 627 1 42 4 77 7 77 2 0 17 -11 34 -25 52 -44 99 -29 131 43 20 47 20 47
28 19 4 -15 17 -114 30 -219z"/>
<path fill="#ffffff" stroke="none" d="M1123 2653 c57 -60 78 -173 41 -214
-42 -47 -116 -65 -129 -31 -3 9 -13 58 -20 107 -8 50 -17 105 -21 124 -6 30
-5 34 10 28 47 -18 66 -19 66 -3 0 24 23 19 53 -11z"/>
<path fill="#ffffff" stroke="none" d="M950 2630 c18 -33 40 -210 40 -321 0
-182 -39 -334 -122 -473 -48 -81 -164 -215 -222 -257 l-40 -30 -19 123 c-24
163 -19 388 11 499 41 154 120 284 251 417 65 66 84 74 101 42z"/>
<path fill="#ffffff" stroke="none" d="M7506 2528 c-21 -76 -38 -242 -38 -383
0 -171 13 -272 59 -450 14 -55 28 -113 30 -130 4 -29 4 -29 -12 -10 -56 69
-160 344 -189 505 -18 96 -36 284 -36 376 l0 60 88 26 c108 33 106 33 98 6z"/>
<path fill="#ffffff" stroke="none" d="M7304 2448 c3 -18 8 -85 11 -148 13
-249 68 -456 176 -672 l60 -120 -38 -64 c-20 -35 -41 -64 -45 -64 -12 0 -55
82 -74 142 -9 31 -22 54 -27 51 -17 -10 0 -202 27 -303 26 -95 34 -214 17
-225 -17 -10 -31 32 -42 123 -25 202 -82 343 -177 439 -32 32 -86 82 -120 111
-73 63 -84 83 -146 261 -26 74 -61 164 -78 200 l-31 65 34 29 c35 30 149 100
154 95 2 -2 11 -66 20 -142 33 -274 102 -459 213 -574 68 -70 76 -58 37 58
-43 129 -55 227 -62 496 l-6 251 29 11 c51 18 63 15 68 -20z"/>
<path fill="#ffffff" stroke="none" d="M7190 2418 c2 -132 22 -500 30 -554 6
-38 22 -100 35 -139 13 -38 26 -79 30 -90 13 -40 -95 90 -130 156 -48 91 -71
160 -94 283 -16 80 -35 238 -36 300 0 9 130 65 153 66 6 0 12 -10 12 -22z"/>
<path fill="#ffffff" stroke="none" d="M9709 2382 c56 -73 120 -124 256 -208
145 -88 195 -123 195 -135 0 -13 -62 20 -190 99 -171 106 -203 117 -350 117
-96 0 -138 -5 -180 -19 -79 -27 -190 -77 -190 -86 0 -5 24 -30 54 -58 l55 -49
-24 -59 c-58 -145 -71 -453 -25 -599 32 -100 110 -249 174 -329 l55 -69 -62
-69 c-34 -38 -82 -92 -107 -119 l-45 -50 3 203 c4 232 -6 300 -62 429 -47 109
-88 174 -168 269 -82 96 -136 135 -173 126 -24 -6 -35 -22 -61 -91 -7 -17 -9
-15 -12 12 -2 21 9 58 33 110 48 104 74 207 82 324 l6 96 101 6 c56 3 145 17
199 31 98 25 270 100 343 150 21 14 41 26 44 25 3 0 25 -26 49 -57z"/>
<path fill="#ffffff" stroke="none" d="M4255 2371 c91 -48 92 -59 25 -190 -59
-115 -180 -252 -282 -320 -96 -65 -137 -54 -146 39 -2 28 -9 50 -14 50 -6 0
-51 -33 -102 -74 -239 -193 -415 -276 -588 -276 -98 0 -134 12 -184 61 -41 40
-42 40 -71 26 -34 -18 -52 -12 -191 67 -46 26 -86 46 -88 43 -2 -2 -7 -33 -10
-68 -4 -35 -11 -70 -17 -76 -47 -60 -295 114 -416 290 -46 67 -104 195 -136
300 -15 48 -26 89 -24 91 20 15 120 66 131 66 8 0 24 -20 36 -44 l21 -45 -48
-36 c-27 -19 -52 -42 -55 -51 -3 -9 10 -2 30 16 69 60 76 60 136 -5 135 -148
336 -253 583 -307 119 -25 361 -35 489 -19 308 39 581 174 711 351 21 28 45
50 55 50 10 0 40 -17 67 -38 60 -47 79 -59 69 -44 -4 7 -36 32 -71 58 -36 25
-65 48 -65 50 0 2 7 22 16 45 15 36 19 40 43 34 14 -3 58 -23 96 -44z"/>
<path fill="#ffffff" stroke="none" d="M1173 2295 c52 -80 73 -87 274 -97 164
-7 176 -9 232 -37 32 -17 61 -37 64 -44 3 -8 -5 -25 -18 -37 l-24 -23 -62 28
c-55 24 -71 27 -139 23 -75 -4 -77 -4 -93 23 -24 43 -62 47 -121 16 l-50 -27
-33 25 c-58 45 -117 175 -99 221 9 22 9 22 69 -71z"/>
<path fill="#ffffff" stroke="none" d="M1080 2305 c21 -79 50 -132 94 -174
l36 -35 -78 -80 c-153 -158 -225 -302 -262 -521 -18 -110 -21 -113 -87 -100
-57 10 -83 44 -83 108 0 52 2 56 66 128 174 197 247 371 261 627 5 95 8 112
22 110 10 -2 21 -25 31 -63z"/>
<path fill="#ffffff" stroke="none" d="M1767 2260 l31 -70 -23 0 c-29 0 -40
14 -55 69 -11 43 -8 71 8 71 4 0 22 -31 39 -70z"/>
<path fill="#ffffff" stroke="none" d="M9741 2224 c52 -16 169 -70 216 -101
l22 -15 -32 -32 c-18 -18 -50 -53 -73 -79 l-40 -47 -107 0 c-138 0 -194 13
-264 61 -32 21 -63 39 -68 39 -6 0 -32 22 -59 49 -55 56 -57 52 50 92 133 51
257 62 355 33z"/>
<path fill="#ffffff" stroke="none" d="M6844 2156 c13 -28 45 -112 71 -186 26
-74 56 -152 67 -172 l18 -38 -61 0 -62 0 -86 88 c-47 48 -98 110 -113 138
l-28 51 51 74 c70 102 89 121 105 108 8 -6 24 -34 38 -63z"/>
<path fill="#ffffff" stroke="none" d="M2024 2168 c40 -113 70 -176 122 -254
127 -192 368 -353 448 -300 29 19 50 77 42 117 -3 16 -4 29 -2 29 4 0 196
-109 204 -115 2 -2 -19 -37 -46 -78 -63 -96 -108 -205 -124 -295 l-12 -70 -22
55 c-24 57 -35 75 -135 213 -73 101 -115 147 -150 166 -24 12 -30 11 -52 -6
-16 -13 -29 -38 -37 -70 -10 -41 -16 -50 -33 -50 -77 -1 -217 -23 -252 -40
-22 -11 -68 -46 -101 -78 -77 -72 -82 -89 -98 -327 l-11 -180 -30 3 c-49 6
-67 20 -61 50 17 78 26 204 25 339 l-1 153 -31 26 c-20 17 -39 24 -54 21 -21
-4 -23 -1 -23 37 0 140 47 345 103 450 44 83 139 183 186 196 20 5 50 21 66
35 45 37 59 32 79 -27z"/>
<path fill="#ffffff" stroke="none" d="M6648 2098 c-17 -35 -69 -120 -115
-189 -65 -100 -92 -133 -130 -157 -26 -16 -58 -33 -70 -37 -38 -11 -28 19 15
48 45 29 92 98 123 180 26 67 93 147 158 189 25 15 46 28 48 28 2 0 -11 -28
-29 -62z"/>
<path fill="#ffffff" stroke="none" d="M8334 1971 c104 -72 211 -108 400 -136
61 -8 112 -17 114 -20 6 -6 -54 -98 -78 -120 -23 -21 -61 -17 -178 20 -169 53
-300 172 -416 380 l-28 50 69 -71 c38 -39 91 -85 117 -103z"/>
<path fill="#ffffff" stroke="none" d="M6265 1930 c21 -80 20 -199 -1 -270
-32 -106 -72 -168 -214 -330 -101 -116 -149 -190 -121 -190 15 0 135 134 238
266 114 147 170 202 242 238 131 67 422 86 421 28 -1 -33 -48 -131 -94 -197
-59 -82 -162 -169 -233 -195 -30 -11 -118 -31 -196 -45 -225 -39 -340 -84
-378 -150 -24 -40 -23 -62 2 -70 25 -8 189 -171 207 -207 13 -23 10 -35 -21
-119 -19 -52 -38 -109 -42 -126 -10 -48 -20 -48 -53 -1 -68 100 -87 155 -102
304 -11 111 -26 167 -43 161 -6 -2 -20 -39 -30 -83 -9 -43 -22 -83 -27 -88
-14 -14 -13 16 5 99 8 38 12 71 10 74 -7 7 -44 -29 -66 -66 -16 -26 -27 -33
-52 -33 -52 0 -69 -22 -82 -100 -15 -92 -27 -107 -119 -151 -85 -40 -146 -58
-146 -44 0 5 11 22 24 39 34 45 100 180 125 258 26 78 27 79 190 103 58 9 111
20 118 27 20 16 15 37 -11 50 -23 10 -95 -2 -233 -38 -22 -6 -23 -3 -23 43 0
67 -20 93 -71 93 -55 0 -181 -43 -251 -85 -31 -19 -64 -35 -73 -35 -29 0 -75
33 -71 50 13 43 26 140 26 191 l0 58 38 11 c153 43 280 9 448 -120 144 -111
205 -152 212 -145 4 4 -33 44 -83 89 -191 172 -280 268 -317 343 -43 85 -63
190 -54 281 3 36 7 67 10 69 6 7 104 -44 178 -94 164 -108 219 -220 262 -540
16 -123 27 -153 55 -153 36 0 35 51 -3 320 -20 134 -20 211 0 285 29 114 106
212 249 317 l80 59 27 -59 c15 -32 34 -87 43 -122z"/>
<path fill="#ffffff" stroke="none" d="M1638 2047 c17 -10 32 -23 32 -29 0 -6
-11 -34 -25 -62 -35 -73 -72 -229 -89 -381 -14 -128 -15 -130 -47 -155 -18
-14 -60 -49 -92 -77 -33 -29 -66 -53 -75 -53 -23 0 -11 96 26 212 42 129 51
192 59 397 l6 173 86 -4 c54 -3 98 -11 119 -21z"/>
<path fill="#ffffff" stroke="none" d="M10024 1975 c16 -49 20 -88 20 -215 1
-148 -1 -159 -30 -242 -31 -86 -118 -231 -167 -276 -24 -23 -26 -23 -35 -5
-14 26 -30 109 -42 213 -12 107 -1 230 29 315 39 112 156 279 189 273 10 -2
24 -27 36 -63z"/>
<path fill="#ffffff" stroke="none" d="M6733 1888 c26 -32 74 -79 106 -105
l58 -48 5 -105 c2 -58 3 -107 1 -109 -3 -5 -38 13 -66 33 -16 12 -16 17 -2 56
34 96 17 111 -129 118 l-99 5 6 86 c3 47 11 108 18 136 l12 49 21 -29 c12 -15
43 -55 69 -87z"/>
<path fill="#ffffff" stroke="none" d="M6440 1945 c0 -33 -99 -175 -122 -175
-12 0 -10 148 2 155 19 12 120 29 120 20z"/>
<path fill="#ffffff" stroke="none" d="M9675 1932 l120 -5 -50 -22 c-28 -12
-71 -38 -97 -58 l-47 -36 -40 65 c-46 73 -48 79 -23 69 9 -4 71 -10 137 -13z"/>
<path fill="#ffffff" stroke="none" d="M10180 1944 c0 -6 -63 -97 -82 -118 -5
-6 -8 -4 -8 5 0 24 60 119 75 119 8 0 15 -3 15 -6z"/>
<path fill="#ffffff" stroke="none" d="M5337 1868 c-2 -13 -4 -3 -4 22 0 25 2
35 4 23 2 -13 2 -33 0 -45z"/>
<path fill="#ffffff" stroke="none" d="M5540 1895 c0 -29 -11 -31 -45 -9 -30
20 -24 34 16 34 24 0 29 -4 29 -25z"/>
<path fill="#ffffff" stroke="none" d="M9794 1863 c-38 -87 -56 -163 -60 -248
-9 -174 -24 -202 -43 -82 -6 39 -26 114 -43 165 -31 92 -31 93 -12 112 22 23
143 89 162 90 9 0 8 -9 -4 -37z"/>
<path fill="#ffffff" stroke="none" d="M6551 1797 l-6 -78 -81 -28 c-45 -15
-96 -38 -113 -50 l-31 -22 0 30 c0 27 6 33 64 61 63 29 116 79 154 142 9 15
17 26 17 25 1 -1 -1 -37 -4 -80z"/>
<path fill="#ffffff" stroke="none" d="M8049 1796 c83 -130 218 -226 411 -294
47 -17 93 -33 103 -37 20 -8 21 -38 4 -113 l-13 -54 -143 72 c-159 81 -238
144 -302 243 -44 68 -121 247 -106 247 2 0 23 -29 46 -64z"/>
<path fill="#ffffff" stroke="none" d="M7736 1696 c5 -22 4 -28 -7 -24 -8 2
-15 20 -17 39 -4 40 13 30 24 -15z"/>
<path fill="#ffffff" stroke="none" d="M8997 1696 c145 -125 265 -347 294
-548 14 -98 6 -318 -16 -427 -8 -40 -12 -78 -9 -82 3 -5 0 -9 -6 -9 -22 0
-188 176 -235 249 -128 197 -160 352 -137 664 11 138 25 187 55 187 8 0 31
-15 54 -34z"/>
<path fill="#ffffff" stroke="none" d="M8834 1649 c3 -17 6 -54 6 -81 0 -55
-6 -63 -95 -122 -28 -19 -67 -52 -87 -74 -34 -38 -66 -107 -54 -119 3 -3 21 6
41 21 47 36 162 89 179 83 18 -7 28 -138 12 -150 -6 -4 -35 -22 -64 -38 -29
-16 -50 -34 -47 -39 4 -6 37 -10 75 -10 65 0 70 -2 76 -24 11 -45 2 -61 -38
-64 -31 -3 -40 2 -62 31 -14 19 -62 65 -107 102 l-81 69 7 69 c8 84 25 133 67
195 50 73 142 181 154 182 6 0 14 -14 18 -31z"/>
<path fill="#ffffff" stroke="none" d="M2957 1568 c21 -76 29 -292 13 -370
-21 -111 -115 -284 -193 -357 l-26 -23 -15 53 c-37 124 -48 310 -25 419 21 99
103 253 177 333 23 24 28 25 40 13 8 -8 21 -38 29 -68z"/>
<path fill="#ffffff" stroke="none" d="M3484 1628 c2 -13 14 -86 25 -163 12
-77 24 -150 27 -161 5 -21 2 -22 -113 -27 -111 -4 -120 -3 -155 19 -20 13 -49
45 -64 71 -60 106 -104 127 -153 74 l-28 -30 -12 81 c-7 44 -10 82 -8 84 2 3
28 -1 58 -7 101 -22 269 7 375 64 39 21 43 21 48 -5z"/>
<path fill="#ffffff" stroke="none" d="M7750 1568 c22 -100 24 -267 6 -352
-27 -118 -93 -241 -180 -333 l-74 -78 -12 40 c-6 22 -14 110 -17 195 -6 178 4
237 63 357 42 85 156 223 183 223 15 0 22 -12 31 -52z"/>
<path fill="#ffffff" stroke="none" d="M6280 1589 c-7 -11 -14 -19 -16 -16 -7
7 7 37 17 37 6 0 5 -9 -1 -21z"/>
<path fill="#ffffff" stroke="none" d="M5061 1537 c8 -30 13 -112 13 -192 0
-162 -17 -236 -81 -344 -45 -75 -165 -207 -180 -198 -17 11 -38 163 -37 272 1
155 44 279 146 418 56 75 93 108 113 101 7 -3 19 -29 26 -57z"/>
<path fill="#ffffff" stroke="none" d="M7841 1512 c20 -31 44 -72 53 -90 23
-45 56 -177 56 -221 -1 -32 -7 -41 -62 -81 -34 -25 -65 -46 -70 -48 -4 -2 -8
65 -9 150 -1 84 -4 197 -8 251 -3 53 -4 97 -1 97 3 0 21 -26 41 -58z"/>
<path fill="#ffffff" stroke="none" d="M6861 1523 c42 -28 77 -79 62 -94 -12
-12 -134 21 -140 38 -6 14 21 83 32 83 3 0 24 -12 46 -27z"/>
<path fill="#ffffff" stroke="none" d="M5462 1453 c12 -12 18 -29 14 -38 -5
-14 -9 -14 -43 0 -20 9 -39 17 -40 19 -2 2 -1 27 3 55 l7 52 19 -33 c11 -18
29 -43 40 -55z"/>
<path fill="#ffffff" stroke="none" d="M7390 1493 c7 -21 26 -60 42 -88 30
-49 30 -50 18 -117 -6 -37 -15 -70 -19 -73 -11 -6 -49 155 -57 243 -4 39 -4
72 -1 72 3 0 11 -17 17 -37z"/>
<path fill="#ffffff" stroke="none" d="M8838 1434 l-3 -56 -63 -23 c-34 -12
-81 -35 -103 -50 -48 -31 -56 -28 -35 12 20 39 73 91 116 113 19 10 44 27 54
39 30 33 37 25 34 -35z"/>
<path fill="#ffffff" stroke="none" d="M2208 1313 l-3 -168 -40 -3 c-40 -3
-42 -2 -123 95 -76 90 -82 101 -80 137 2 29 10 44 30 59 29 22 119 45 181 46
l37 1 -2 -167z"/>
<path fill="#ffffff" stroke="none" d="M4737 1438 c26 -24 31 -75 9 -84 -16
-6 -86 27 -106 50 -11 14 -10 20 5 36 24 26 63 25 92 -2z"/>
<path fill="#ffffff" stroke="none" d="M6980 1307 c32 -64 44 -97 35 -97 -18
0 -150 47 -195 70 -57 29 -80 33 -80 17 0 -19 82 -110 143 -158 l47 -38 -37
-11 c-21 -6 -56 -13 -79 -16 l-41 -6 -27 88 c-16 49 -38 115 -51 146 l-23 57
42 45 41 45 88 -22 88 -22 49 -98z"/>
<path fill="#ffffff" stroke="none" d="M9750 1325 c12 -55 24 -109 26 -120 3
-15 -11 -32 -52 -64 -30 -23 -57 -41 -59 -39 -3 2 -1 19 5 36 5 18 14 85 20
150 18 188 25 193 60 37z"/>
<path fill="#ffffff" stroke="none" d="M3139 1404 c28 -35 26 -42 -6 -46 -38
-4 -52 -48 -52 -165 -1 -88 -3 -94 -30 -125 -16 -18 -33 -30 -37 -26 -10 11
13 235 32 298 26 90 56 111 93 64z"/>
<path fill="#ffffff" stroke="none" d="M10038 1383 c2 -14 -7 -27 -30 -41 -18
-12 -34 -19 -36 -17 -2 2 6 22 19 45 24 42 42 47 47 13z"/>
<path fill="#ffffff" stroke="none" d="M848 1290 c2 -41 1 -72 -1 -70 -12 12
-87 141 -87 148 0 5 19 6 43 3 l42 -6 3 -75z"/>
<path fill="#ffffff" stroke="none" d="M4756 1315 c9 -2 9 -17 2 -52 -6 -26
-13 -102 -17 -168 l-6 -120 -23 42 c-14 28 -27 81 -37 155 -8 62 -19 129 -25
148 -5 19 -10 36 -10 36 0 1 24 -7 53 -17 28 -11 57 -22 63 -24z"/>
<path fill="#ffffff" stroke="none" d="M1300 1281 c0 -41 -11 -71 -63 -173
-74 -145 -107 -263 -115 -416 -3 -57 -8 -99 -12 -95 -4 4 -15 33 -25 63 -10
30 -42 117 -71 193 -30 77 -54 142 -54 146 0 4 24 24 54 45 62 42 222 205 251
254 11 17 23 32 27 32 4 0 8 -22 8 -49z"/>
<path fill="#ffffff" stroke="none" d="M6700 1171 c32 -95 33 -113 9 -183
l-13 -36 -54 49 c-29 27 -83 63 -120 81 l-67 33 -239 -2 c-147 -1 -234 2 -225
8 32 21 206 70 315 90 149 26 227 51 284 89 l45 30 16 -33 c9 -17 31 -74 49
-126z"/>
<path fill="#ffffff" stroke="none" d="M3211 1279 c58 -37 155 -139 192 -201
61 -104 102 -312 89 -451 -5 -56 -5 -56 -90 2 -109 73 -193 182 -238 306 -23
63 -53 327 -41 359 9 24 35 19 88 -15z"/>
<path fill="#ffffff" stroke="none" d="M6975 1206 c53 -17 97 -40 129 -66 26
-22 81 -60 122 -86 64 -40 96 -75 81 -90 -2 -2 -25 12 -51 32 -64 48 -142 83
-218 95 -86 14 -121 33 -201 108 -100 94 -103 107 -15 67 40 -19 109 -45 153
-60z"/>
<path fill="#ffffff" stroke="none" d="M5866 1263 c18 -23 17 -43 0 -43 -14 0
-26 21 -26 46 0 19 10 18 26 -3z"/>
<path fill="#ffffff" stroke="none" d="M6040 1276 c0 -2 -8 -10 -17 -17 -16
-13 -17 -12 -4 4 13 16 21 21 21 13z"/>
<path fill="#ffffff" stroke="none" d="M3562 1221 c4 -4 5 -37 1 -74 -5 -53
-13 -77 -35 -108 -15 -21 -32 -39 -37 -39 -5 0 -14 15 -22 33 -7 17 -34 66
-61 108 -26 42 -48 79 -48 82 0 16 185 15 202 -2z"/>
<path fill="#ffffff" stroke="none" d="M7795 1114 c-3 -30 -11 -56 -16 -59
-23 -15 -25 10 -5 74 23 76 32 70 21 -15z"/>
<path fill="#ffffff" stroke="none" d="M5880 1176 c0 -8 -4 -17 -9 -21 -12 -7
-24 12 -16 25 9 15 25 12 25 -4z"/>
<path fill="#ffffff" stroke="none" d="M8860 1166 c0 -28 -16 -36 -71 -36 -47
0 -44 12 9 40 49 25 62 25 62 -4z"/>
<path fill="#ffffff" stroke="none" d="M2220 1068 c44 -174 111 -309 216 -433
l42 -51 -112 -118 -111 -119 9 119 c11 149 -3 343 -33 431 -12 35 -36 94 -55
133 -18 38 -31 72 -28 75 3 3 18 5 33 5 25 0 30 -5 39 -42z"/>
<path fill="#ffffff" stroke="none" d="M6451 1084 c75 -22 127 -55 190 -119
48 -49 149 -189 149 -207 0 -21 -255 -74 -280 -58 -7 4 -5 43 5 116 22 150 10
204 -42 204 -37 0 -140 -58 -203 -115 -30 -28 -62 -56 -71 -63 -13 -10 -32 5
-122 103 -59 63 -107 119 -107 124 0 11 170 27 311 29 81 2 132 -3 170 -14z"/>
<path fill="#ffffff" stroke="none" d="M8364 1079 l76 -11 0 -65 c0 -73 7 -72
-104 -27 -77 31 -96 49 -96 92 0 31 2 34 24 28 13 -3 58 -11 100 -17z"/>
<path fill="#ffffff" stroke="none" d="M5123 1079 c12 -7 23 -13 24 -14 2 -1
-18 -23 -42 -50 -80 -85 -150 -221 -191 -366 -19 -68 -20 -68 -59 32 l-23 57
30 29 c59 56 145 171 184 246 21 42 43 77 47 77 5 0 18 -5 30 -11z"/>
<path fill="#ffffff" stroke="none" d="M5805 1081 c-6 -5 -54 -16 -108 -25
-154 -25 -171 -21 -47 13 77 20 172 28 155 12z"/>
<path fill="#ffffff" stroke="none" d="M2990 1047 c0 -13 4 -27 10 -33 14 -14
-13 -50 -52 -70 -16 -8 -32 -13 -34 -11 -7 6 59 137 68 137 4 0 8 -10 8 -23z"/>
<path fill="#ffffff" stroke="none" d="M2674 960 c8 -41 13 -77 11 -78 -10
-11 -26 47 -30 106 -6 81 0 72 19 -28z"/>
<path fill="#ffffff" stroke="none" d="M7142 1012 c34 -17 89 -54 120 -82 53
-47 148 -163 148 -180 0 -4 -38 -20 -84 -35 -74 -24 -96 -27 -178 -23 -81 3
-102 8 -162 38 -73 36 -173 126 -221 199 -24 35 -26 43 -14 57 30 37 142 64
246 61 67 -3 92 -9 145 -35z"/>
<path fill="#ffffff" stroke="none" d="M3105 997 c4 -17 14 -52 22 -75 8 -24
12 -46 10 -49 -3 -2 -30 2 -60 10 l-55 15 -68 -39 c-73 -41 -84 -45 -84 -29 0
5 33 31 73 58 46 32 85 68 107 100 19 28 37 49 41 46 4 -2 11 -19 14 -37z"/>
<path fill="#ffffff" stroke="none" d="M4467 981 c72 -38 197 -157 231 -218
l22 -41 -56 -21 c-159 -60 -338 -39 -445 52 l-27 22 29 70 c16 39 29 78 29 88
0 25 -45 67 -72 67 -19 0 -20 2 -8 11 9 6 61 9 125 7 103 -3 114 -6 172 -37z"/>
<path fill="#ffffff" stroke="none" d="M8351 956 l84 -32 8 -83 c5 -46 6 -85
4 -88 -3 -2 -49 1 -102 7 -54 6 -124 9 -156 5 -63 -7 -65 -6 -48 28 29 55 33
56 115 35 41 -10 100 -30 130 -43 30 -13 54 -20 54 -16 0 13 -84 46 -177 71
l-81 22 19 71 c25 89 27 92 49 72 10 -9 55 -31 101 -49z"/>
<path fill="#ffffff" stroke="none" d="M8937 947 c37 -75 39 -100 8 -105 -15
-2 -27 10 -47 45 -15 26 -37 63 -49 80 l-21 33 24 9 c39 17 51 8 85 -62z"/>
<path fill="#ffffff" stroke="none" d="M7740 978 c-43 -65 -107 -206 -130
-286 -13 -45 -26 -82 -30 -82 -5 0 -52 133 -47 134 35 9 64 39 82 83 25 66
110 183 131 183 13 0 13 -5 -6 -32z"/>
<path fill="#ffffff" stroke="none" d="M3555 843 c-9 -64 -22 -60 -34 10 -15
87 -14 97 12 125 l22 24 3 -59 c2 -32 1 -77 -3 -100z"/>
<path fill="#ffffff" stroke="none" d="M4176 950 c23 -9 26 -14 21 -45 -14
-85 -152 -267 -241 -319 -86 -49 -215 -74 -311 -58 -58 9 -59 17 -20 95 90
177 203 281 352 322 59 16 162 19 199 5z"/>
<path fill="#ffffff" stroke="none" d="M5790 916 c-5 -15 -14 -24 -20 -21 -6
4 -4 18 7 38 19 37 29 24 13 -17z"/>
<path fill="#ffffff" stroke="none" d="M5899 844 c7 -64 10 -118 8 -121 -8 -7
-57 81 -57 102 0 30 23 135 30 135 3 0 12 -52 19 -116z"/>
<path fill="#ffffff" stroke="none" d="M2670 754 c-24 -22 -52 -45 -63 -53
-17 -12 -19 -12 -13 5 14 46 26 112 26 144 l0 35 46 -47 47 -46 -43 -38z"/>
<path fill="#ffffff" stroke="none" d="M5768 826 c152 -160 206 -334 183 -588
-6 -64 -16 -129 -22 -145 l-11 -28 -60 65 c-33 36 -75 87 -94 114 l-33 49 21
51 c38 93 78 226 78 256 0 19 -9 40 -25 55 -21 22 -33 25 -90 25 l-67 0 6 28
c3 15 10 56 17 92 6 36 13 68 15 72 11 18 34 5 82 -46z"/>
<path fill="#ffffff" stroke="none" d="M1758 839 c29 -11 26 -16 -43 -69 -79
-61 -114 -41 -76 45 20 46 21 46 58 39 21 -4 48 -11 61 -15z"/>
<path fill="#ffffff" stroke="none" d="M9026 803 c15 -21 63 -75 106 -119 l79
-82 -58 -88 c-32 -49 -76 -120 -98 -157 l-40 -69 -6 144 c-7 141 -24 241 -56
327 -16 43 -16 43 8 62 13 10 27 19 30 19 4 0 19 -17 35 -37z"/>
<path fill="#ffffff" stroke="none" d="M3148 819 c47 -16 50 -38 4 -29 -20 4
-58 11 -85 15 -26 3 -45 10 -42 16 8 12 85 11 123 -2z"/>
<path fill="#ffffff" stroke="none" d="M6821 794 c13 -15 56 -49 94 -76 l70
-50 -40 6 c-108 19 -199 56 -135 56 26 0 25 9 -5 50 -14 19 -25 35 -25 37 0
11 20 -1 41 -23z"/>
<path fill="#ffffff" stroke="none" d="M7574 795 c-29 -22 -42 -17 -15 6 13
11 26 17 29 14 3 -3 -3 -12 -14 -20z"/>
<path fill="#ffffff" stroke="none" d="M1821 663 c19 -54 57 -136 85 -183 l51
-85 -14 -42 c-19 -57 -31 -62 -46 -21 -26 72 -108 226 -151 283 -25 33 -46 67
-46 76 0 14 65 69 81 69 4 0 22 -44 40 -97z"/>
<path fill="#ffffff" stroke="none" d="M8435 730 c29 -12 26 -13 -65 -27 -52
-8 -128 -25 -168 -39 -74 -24 -136 -31 -146 -15 -3 5 14 30 39 56 l44 48 133
-5 c73 -3 147 -11 163 -18z"/>
<path fill="#ffffff" stroke="none" d="M3258 685 c78 -59 187 -176 196 -210 7
-26 -6 -55 -25 -55 -5 0 -33 37 -63 83 -30 45 -85 115 -121 155 -37 39 -62 72
-57 72 6 0 37 -20 70 -45z"/>
<path fill="#ffffff" stroke="none" d="M4232 690 c123 -80 262 -95 416 -46 45
15 86 24 91 21 11 -6 55 -134 49 -141 -3 -2 -40 8 -84 22 -106 35 -255 44
-340 19 -64 -18 -155 -65 -191 -98 -21 -19 -27 -20 -87 -9 -153 28 -284 7
-401 -64 -33 -20 -75 -46 -94 -57 l-33 -20 7 64 c12 106 3 100 145 103 82 2
143 9 176 20 78 25 167 89 224 161 28 36 52 65 55 65 2 0 32 -18 67 -40z"/>
<path fill="#ffffff" stroke="none" d="M5614 685 c-4 -8 -7 -15 -8 -15 0 0
-17 -4 -36 -10 l-35 -9 30 24 c34 28 57 33 49 10z"/>
<path fill="#ffffff" stroke="none" d="M6703 616 c-7 -95 9 -136 59 -159 16
-6 28 -16 28 -21 0 -10 -86 -106 -106 -118 -7 -5 -30 -2 -52 6 -22 8 -74 20
-117 26 -134 20 -251 -13 -358 -102 -27 -22 -50 -38 -53 -36 -12 13 49 76 106
110 96 57 199 169 241 262 30 67 38 77 64 80 23 4 145 26 187 35 4 0 4 -37 1
-83z"/>
<path fill="#ffffff" stroke="none" d="M6870 668 c56 -15 120 -22 255 -27 148
-5 180 -9 183 -21 2 -13 -16 -15 -110 -15 -128 -1 -173 -14 -291 -85 -79 -48
-105 -50 -146 -11 -33 31 -36 49 -20 121 15 68 17 73 37 65 9 -4 51 -16 92
-27z"/>
<path fill="#ffffff" stroke="none" d="M7449 645 c11 -30 23 -66 27 -81 6 -24
5 -26 -17 -19 -77 25 -109 45 -110 70 -1 14 -2 31 -3 38 -1 10 57 47 76 47 4
0 16 -25 27 -55z"/>
<path fill="#ffffff" stroke="none" d="M2755 580 c14 -27 23 -50 20 -50 -19 0
-125 35 -125 41 0 9 61 59 72 59 4 0 19 -22 33 -50z"/>
<path fill="#ffffff" stroke="none" d="M5439 616 c-26 -26 -179 -116 -196
-116 -37 0 -73 -43 -73 -85 0 -22 -18 -71 -49 -133 -26 -53 -59 -125 -71 -160
-13 -34 -24 -61 -26 -60 -4 5 -74 319 -74 333 0 7 35 22 77 34 88 26 157 59
224 106 53 38 102 64 139 76 28 8 55 11 49 5z"/>
<path fill="#ffffff" stroke="none" d="M8070 611 c0 -11 -39 -41 -52 -41 -10
0 -11 34 -1 43 10 11 53 8 53 -2z"/>
<path fill="#ffffff" stroke="none" d="M6047 493 c13 -19 13 -33 4 -89 -7 -37
-22 -85 -34 -108 l-22 -41 -6 135 c-4 74 -11 151 -17 170 l-11 35 36 -40 c19
-22 42 -50 50 -62z"/>
<path fill="#ffffff" stroke="none" d="M7970 547 c0 -12 -20 -45 -45 -74 -65
-74 -129 -182 -171 -290 -21 -51 -39 -92 -40 -90 -2 2 -21 78 -42 170 l-39
167 41 10 c71 18 171 59 227 94 66 41 69 42 69 13z"/>
<path fill="#ffffff" stroke="none" d="M7313 545 c84 -22 192 -70 195 -86 1
-9 -26 -49 -61 -90 -196 -230 -415 -285 -679 -170 -43 18 -48 24 -48 51 0 41
33 84 133 170 81 71 154 113 224 129 60 14 174 12 236 -4z"/>
<path fill="#ffffff" stroke="none" d="M4678 504 c41 -13 91 -33 113 -44 36
-19 38 -23 28 -43 -6 -12 -55 -65 -109 -118 -75 -74 -115 -105 -171 -133 -66
-33 -193 -66 -205 -54 -2 3 12 22 31 42 65 69 42 122 -90 212 l-86 59 23 19
c38 31 139 75 198 85 77 14 182 4 268 -25z"/>
<path fill="#ffffff" stroke="none" d="M8531 503 c10 -32 10 -38 -7 -50 -10
-7 -26 -13 -35 -13 -17 0 -17 3 -4 48 8 26 15 48 15 50 0 1 4 2 9 2 5 0 15
-16 22 -37z"/>
<path fill="#ffffff" stroke="none" d="M2663 514 c96 -25 136 -50 227 -143 47
-47 108 -105 135 -127 28 -23 47 -45 44 -48 -3 -3 -37 6 -75 20 -60 23 -88 28
-211 32 l-141 4 -17 62 c-23 87 -43 204 -37 211 7 7 6 7 75 -11z"/>
<path fill="#ffffff" stroke="none" d="M2569 379 c28 -120 27 -142 -4 -159
-29 -16 -39 -44 -33 -95 4 -38 -6 -44 -37 -22 -16 13 -17 20 -7 90 13 85 10
100 -26 139 l-25 27 48 55 c26 31 51 56 55 56 5 0 18 -41 29 -91z"/>
<path fill="#ffffff" stroke="none" d="M5230 446 c0 -3 -4 -8 -10 -11 -5 -3
-10 -1 -10 4 0 6 5 11 10 11 6 0 10 -2 10 -4z"/>
<path fill="#ffffff" stroke="none" d="M1386 359 c3 -35 -3 -98 -18 -177 l-24
-123 -46 40 c-33 30 -53 59 -72 106 -14 36 -26 72 -26 79 0 25 159 150 173
137 5 -5 10 -32 13 -62z"/>
<path fill="#ffffff" stroke="none" d="M4118 393 c122 -48 242 -131 242 -166
0 -21 -56 -73 -120 -112 -118 -72 -235 -101 -342 -84 -82 12 -246 93 -316 155
l-53 46 53 40 c109 82 215 134 308 152 53 10 164 -5 228 -31z"/>
<path fill="#ffffff" stroke="none" d="M2034 308 c20 -23 36 -45 36 -49 0 -10
-111 -79 -127 -79 -7 0 -13 9 -13 20 0 25 51 150 61 150 4 0 24 -19 43 -42z"/>
<path fill="#ffffff" stroke="none" d="M2451 277 c8 -14 8 -36 -1 -79 -12 -57
-14 -59 -39 -53 -14 4 -45 15 -69 25 -38 17 -42 22 -32 40 6 11 28 38 48 59
42 44 73 47 93 8z"/>
<path fill="#000000" stroke="none" d="M9465 6548 c-47 -17 -91 -54 -109 -91
-23 -49 -20 -64 14 -99 28 -28 36 -30 80 -26 88 9 160 77 160 152 0 26 -6 40
-24 51 -32 21 -84 27 -121 13z"/>
<path fill="#ffffff" stroke="none" d="M9555 6536 c99 -42 9 -186 -115 -186
-72 0 -99 44 -66 109 19 36 80 74 144 90 1 1 18 -5 37 -13z"/>
<path fill="#000000" stroke="none" d="M656 6001 c84 -14 125 -31 171 -74 24
-22 46 -38 49 -35 8 8 -73 74 -115 94 -20 10 -63 19 -96 20 l-60 3 51 -8z"/>
<path fill="#000000" stroke="none" d="M713 5310 c-17 -10 -37 -28 -42 -39
-15 -27 -14 -94 1 -109 33 -33 120 6 144 63 19 46 18 61 -6 85 -25 25 -56 25
-97 0z"/>
<path fill="#ffffff" stroke="none" d="M776 5285 c4 -8 3 -22 0 -31 -5 -13 -9
-14 -21 -4 -8 7 -15 21 -15 31 0 23 28 25 36 4z"/>
<path fill="#000000" stroke="none" d="M1319 5132 c-35 -23 -39 -32 -39 -85 0
-42 5 -54 34 -83 19 -19 39 -34 44 -34 6 0 22 14 36 31 62 74 -2 221 -75 171z"/>
<path fill="#ffffff" stroke="none" d="M1370 5100 c18 -11 3 -43 -24 -48 -21
-4 -32 24 -16 43 14 17 20 18 40 5z"/>
<path fill="#000000" stroke="none" d="M8892 5604 c-29 -14 -68 -44 -88 -67
-37 -44 -99 -161 -110 -210 l-7 -29 49 7 49 6 -40 -22 c-96 -51 -143 -129
-132 -220 16 -132 159 -258 348 -304 35 -9 127 -19 205 -22 213 -9 329 18 442
101 94 70 152 176 137 253 -7 41 -63 106 -105 123 -17 7 -30 16 -30 21 0 5 -7
9 -15 9 -28 0 -15 -20 22 -35 51 -21 82 -52 105 -102 31 -70 0 -142 -101 -236
-101 -93 -252 -134 -461 -124 -206 10 -345 60 -447 162 -50 50 -65 73 -78 118
-19 65 -14 103 20 162 24 42 77 78 133 90 49 10 33 30 -26 33 -33 2 -52 8 -52
15 0 31 73 161 112 199 59 59 110 82 183 83 69 0 136 -32 179 -87 19 -25 29
-30 39 -23 88 63 101 69 164 73 152 10 264 -91 291 -261 5 -31 7 -59 4 -62 -3
-2 -17 -2 -31 1 -17 5 -23 3 -16 -3 6 -6 23 -14 39 -17 l29 -7 -6 59 c-17 163
-114 282 -249 307 -52 10 -140 -12 -188 -46 l-41 -30 -45 40 c-84 74 -190 91
-282 45z"/>
<path fill="#000000" stroke="none" d="M8393 5535 c-17 -7 -39 -28 -49 -47
-21 -40 -21 -110 -1 -141 19 -30 123 -101 135 -93 5 3 12 25 16 48 4 24 16 73
28 111 22 74 20 89 -14 110 -36 23 -80 28 -115 12z"/>
<path fill="#ffffff" stroke="none" d="M8485 5520 c14 -5 28 -17 32 -26 6 -16
-35 -202 -48 -218 -10 -12 -98 53 -115 86 -27 51 -9 132 33 157 23 13 65 14
98 1z"/>
<path fill="#000000" stroke="none" d="M8975 5390 c-24 -27 -24 -79 0 -96 26
-19 42 -17 65 6 24 24 26 57 4 88 -19 27 -45 28 -69 2z"/>
<path fill="#ffffff" stroke="none" d="M9038 5368 c-3 -7 -11 -13 -18 -13 -7
0 -15 6 -17 13 -3 7 4 12 17 12 13 0 20 -5 18 -12z"/>
<path fill="#000000" stroke="none" d="M9918 5399 c-25 -10 -27 -14 -32 -97
-4 -48 -8 -115 -11 -149 l-4 -63 47 6 c97 12 153 62 166 148 19 123 -58 194
-166 155z"/>
<path fill="#ffffff" stroke="none" d="M10049 5364 c27 -34 29 -124 3 -174
-19 -39 -88 -80 -133 -80 l-26 0 5 123 c2 67 9 130 14 140 7 13 21 17 63 17
46 0 56 -4 74 -26z"/>
<path fill="#000000" stroke="none" d="M9376 5348 c-9 -12 -16 -32 -16 -43 0
-29 28 -65 50 -65 40 0 68 88 38 118 -19 19 -55 14 -72 -10z"/>
<path fill="#ffffff" stroke="none" d="M9440 5336 c0 -8 -4 -17 -9 -21 -12 -7
-24 12 -16 25 9 15 25 12 25 -4z"/>
<path fill="#000000" stroke="none" d="M9092 5254 c-34 -24 -25 -54 26 -82 39
-22 42 -26 42 -67 0 -47 -19 -195 -26 -207 -3 -5 -22 3 -42 17 -44 30 -56 32
-43 6 26 -48 148 -68 192 -32 33 27 19 35 -25 15 -19 -10 -39 -15 -42 -11 -11
11 7 248 20 252 6 1 30 8 52 14 48 13 61 34 39 67 -27 41 -149 59 -193 28z"/>
<path fill="#ffffff" stroke="none" d="M9271 5224 l21 -19 -22 -17 c-38 -31
-161 -16 -185 21 -29 48 135 61 186 15z"/>
<path fill="#000000" stroke="none" d="M5185 3783 c-48 -12 -105 -96 -105
-156 0 -20 9 -46 22 -62 19 -24 26 -27 62 -22 50 7 89 49 106 114 22 89 -15
142 -85 126z"/>
<path fill="#ffffff" stroke="none" d="M5228 3707 c-2 -17 -10 -22 -33 -22
-35 0 -47 31 -20 51 25 18 57 0 53 -29z"/>
<path fill="#000000" stroke="none" d="M6012 3754 c-20 -9 -42 -60 -42 -96 1
-72 66 -158 122 -158 27 0 68 57 68 96 0 87 -89 182 -148 158z"/>
<path fill="#ffffff" stroke="none" d="M6084 3694 c8 -21 -11 -44 -36 -44 -21
0 -33 22 -24 45 7 20 52 19 60 -1z"/>
<path fill="#000000" stroke="none" d="M540 4968 c-25 -27 -25 -33 0 -58 36
-36 80 -20 80 30 0 51 -44 66 -80 28z"/>
<path fill="#000000" stroke="none" d="M1212 4714 c-24 -17 -29 -53 -10 -72
20 -20 56 -14 74 13 16 25 16 27 -6 50 -28 29 -29 30 -58 9z"/>
<path fill="#000000" stroke="none" d="M652 4445 c-40 -92 101 -188 180 -122
28 22 66 97 49 97 -5 0 -14 -14 -21 -31 -15 -36 -63 -69 -101 -69 -41 0 -87
56 -91 110 l-4 45 -12 -30z"/>
<path fill="#000000" stroke="none" d="M9375 3685 c-14 -13 -25 -36 -25 -51 0
-81 115 -154 175 -111 14 11 17 23 13 61 -6 53 -35 91 -85 112 -44 19 -50 18
-78 -11z"/>
<path fill="#ffffff" stroke="none" d="M9454 3661 c9 -14 -3 -39 -22 -46 -20
-7 -47 19 -39 39 7 17 52 22 61 7z"/>
<path fill="#000000" stroke="none" d="M8722 3523 c-20 -8 -40 -55 -48 -111
-6 -46 -4 -53 19 -76 61 -61 137 -6 137 97 0 73 -49 114 -108 90z"/>
<path fill="#ffffff" stroke="none" d="M8764 3494 c21 -8 20 -50 -1 -58 -23
-9 -47 17 -38 43 7 22 14 25 39 15z"/>
<path fill="#000000" stroke="none" d="M1426 2368 c-20 -28 -20 -51 -1 -87 15
-31 33 -41 70 -41 37 0 55 10 70 41 20 38 19 61 -5 87 -30 32 -112 31 -134 0z"/>
<path fill="#ffffff" stroke="none" d="M1548 2328 c3 -30 -1 -40 -22 -53 -36
-24 -71 -13 -85 26 -17 50 0 71 57 67 46 -3 47 -4 50 -40z"/>
<path fill="#000000" stroke="none" d="M2348 3627 c-34 -32 -52 -89 -45 -148
7 -57 37 -119 66 -137 19 -11 27 -7 84 46 34 32 88 77 120 100 31 24 57 47 57
52 0 4 -12 23 -27 41 -38 45 -96 69 -169 69 -50 0 -66 -4 -86 -23z"/>
<path fill="#ffffff" stroke="none" d="M2525 3611 c22 -10 49 -28 60 -41 l20
-22 -49 -42 c-28 -22 -76 -65 -108 -93 -32 -29 -62 -53 -68 -53 -30 0 -65 112
-55 178 10 66 41 92 107 92 30 0 71 -8 93 -19z"/>
<path fill="#000000" stroke="none" d="M3765 3621 c-42 -19 -95 -72 -95 -95 0
-7 24 -29 53 -48 28 -20 82 -63 119 -97 41 -38 75 -61 85 -59 10 2 33 28 50
58 27 44 33 65 33 110 0 64 -24 119 -60 137 -37 19 -138 16 -185 -6z"/>
<path fill="#ffffff" stroke="none" d="M3935 3614 c25 -10 55 -79 55 -126 0
-46 -27 -115 -53 -136 -14 -12 -27 -4 -100 61 -46 41 -96 82 -110 92 -15 9
-27 23 -27 29 0 18 40 53 80 70 36 15 125 21 155 10z"/>
<path fill="#000000" stroke="none" d="M2812 2804 c-71 -49 -67 -174 5 -174
43 0 103 71 103 122 0 59 -59 87 -108 52z"/>
<path fill="#ffffff" stroke="none" d="M2868 2766 c4 -21 -14 -37 -35 -29 -14
5 -18 35 -6 47 12 12 38 1 41 -18z"/>
<path fill="#000000" stroke="none" d="M3427 2782 c-63 -69 52 -222 117 -156
33 33 11 140 -33 164 -30 15 -66 12 -84 -8z"/>
<path fill="#ffffff" stroke="none" d="M3499 2756 c9 -11 8 -18 -5 -31 -15
-15 -19 -15 -32 -1 -17 17 -10 46 11 46 8 0 20 -6 26 -14z"/>
<path fill="#000000" stroke="none" d="M3065 2673 c-31 -8 -45 -23 -45 -47 0
-31 50 -106 95 -143 l38 -31 -22 -36 c-51 -82 -179 -63 -197 30 -8 44 -24 44
-24 1 0 -23 11 -48 34 -78 18 -24 41 -68 51 -98 22 -67 79 -127 131 -137 54
-10 116 23 154 83 17 26 30 55 30 66 0 26 14 49 55 90 25 25 35 44 35 66 0 40
-16 40 -25 1 -9 -39 -49 -70 -92 -70 -62 0 -123 89 -73 105 22 7 89 92 107
137 9 20 9 30 -1 44 -11 14 -32 18 -122 20 -60 2 -118 0 -129 -3z"/>
<path fill="#ffffff" stroke="none" d="M3226 2649 c10 -17 -11 -31 -50 -31
-38 0 -70 18 -60 33 8 13 102 11 110 -2z"/>
<path fill="#ffffff" stroke="none" d="M3258 2249 c4 -21 -43 -66 -84 -79 -29
-10 -40 -9 -72 8 -44 22 -74 68 -54 81 7 4 57 7 110 7 80 -1 97 -4 100 -17z"/>
<path fill="#000000" stroke="none" d="M9760 3310 c-35 -35 -25 -82 23 -106
28 -15 32 -15 56 4 35 25 39 67 10 98 -27 29 -62 31 -89 4z"/>
<path fill="#ffffff" stroke="none" d="M9854 3277 c19 -53 -50 -90 -89 -47
-22 24 -14 63 17 77 31 14 61 1 72 -30z"/>
<path fill="#000000" stroke="none" d="M8836 3039 c-32 -25 -35 -70 -6 -99 27
-27 62 -25 88 3 29 30 28 62 -3 92 -29 30 -45 31 -79 4z"/>
<path fill="#ffffff" stroke="none" d="M8915 3016 c23 -34 5 -76 -31 -76 -30
0 -64 25 -64 47 0 20 37 53 60 53 11 0 27 -11 35 -24z"/>
<path fill="#000000" stroke="none" d="M9580 2678 c0 -88 -64 -158 -145 -158
-57 0 -104 33 -135 95 -17 35 -26 45 -28 32 -10 -51 69 -141 133 -153 71 -13
155 30 181 92 16 39 19 120 4 129 -6 4 -10 -11 -10 -37z"/>
<path fill="#000000" stroke="none" d="M10231 2084 c0 -11 3 -14 6 -6 3 7 2
16 -1 19 -3 4 -6 -2 -5 -13z"/>
<path fill="#000000" stroke="none" d="M0 2008 c0 -40 3 -49 12 -40 7 7 18 12
24 12 13 0 106 -76 112 -90 1 -4 -11 -10 -29 -14 -61 -12 -119 -44 -119 -65 0
-12 2 -21 4 -21 3 0 45 14 94 30 50 17 96 30 102 30 31 0 -19 -235 -76 -360
-14 -30 -47 -89 -74 -131 -28 -41 -50 -86 -50 -100 1 -22 3 -21 39 19 94 107
161 262 201 465 6 31 15 55 20 52 25 -15 250 -287 245 -295 -4 -6 -15 -10 -26
-10 -11 0 -54 -14 -95 -31 -197 -82 -392 -265 -382 -360 3 -31 4 -31 52 40 62
92 168 189 253 234 55 28 216 87 240 87 12 0 -7 -147 -31 -240 -70 -271 -193
-440 -399 -545 -50 -26 -98 -51 -104 -57 -17 -14 -17 -38 0 -38 25 0 182 82
236 122 30 23 50 35 45 27 -4 -8 -25 -40 -45 -72 -78 -121 -159 -359 -159
-468 0 -45 4 -60 23 -77 32 -30 71 -28 181 9 153 51 237 102 330 200 103 109
159 206 217 383 25 76 48 135 51 130 15 -25 128 -393 128 -414 0 -5 -26 -14
-57 -20 -84 -16 -230 -67 -291 -102 -29 -17 -80 -55 -113 -86 -60 -55 -149
-169 -149 -191 0 -28 34 -5 85 60 71 88 147 149 250 199 77 38 222 80 276 80
62 0 56 41 -46 350 -57 170 -90 240 -105 224 -4 -5 -22 -61 -38 -124 -78 -298
-204 -478 -408 -582 -109 -56 -212 -90 -256 -86 -32 3 -33 5 -36 51 -6 88 66
295 152 441 50 83 161 191 247 239 74 41 233 97 277 97 58 0 58 18 -5 142
-129 250 -281 463 -472 661 -117 121 -304 287 -323 287 -4 0 -8 -23 -8 -52z"/>
<path fill="#ffffff" stroke="none" d="M673 1262 c81 -134 132 -231 125 -237
-3 -3 -36 -14 -74 -25 -92 -25 -194 -72 -266 -120 -32 -22 -60 -40 -63 -40 -3
0 11 24 30 53 63 94 125 275 161 465 3 13 9 20 14 17 5 -3 38 -54 73 -113z"/>
<path fill="#000000" stroke="none" d="M10220 1908 c0 -18 5 -40 10 -48 7 -11
10 -4 10 27 0 23 -4 45 -10 48 -6 4 -10 -7 -10 -27z"/>
<path fill="#000000" stroke="none" d="M10033 1269 c-67 -36 -238 -167 -353
-271 -210 -190 -393 -414 -535 -654 -70 -118 -137 -255 -132 -269 9 -21 307
-81 307 -61 0 10 -80 42 -166 66 -44 12 -82 25 -86 29 -8 7 105 214 160 294
37 52 50 58 56 24 32 -166 96 -358 132 -399 15 -15 44 -25 44 -14 0 2 -16 37
-35 78 -41 90 -79 216 -100 335 -8 49 -15 94 -15 101 0 18 28 15 108 -12 130
-45 210 -94 303 -186 75 -75 92 -99 144 -202 53 -108 85 -145 85 -100 0 10
-26 70 -57 133 -50 101 -67 124 -147 205 -74 73 -108 99 -181 136 -49 25 -114
53 -142 63 -29 9 -53 21 -53 27 0 23 194 249 230 268 17 9 20 4 30 -48 20
-102 61 -225 103 -307 61 -117 174 -230 287 -285 96 -46 184 -74 206 -66 7 3
14 14 14 24 0 14 -13 21 -56 30 -31 6 -95 30 -143 53 -118 57 -221 160 -280
280 -49 100 -91 240 -98 328 l-6 64 39 -7 c21 -4 71 -21 111 -38 204 -84 308
-203 390 -447 39 -117 42 -123 43 -80 0 80 -18 149 -68 248 -77 157 -211 276
-379 337 l-76 28 44 39 c73 65 73 65 119 -3 89 -131 255 -259 338 -260 47 0
22 31 -54 65 -87 40 -191 133 -255 229 l-40 60 23 12 c41 22 152 37 251 32 88
-4 97 -2 97 14 0 29 -40 42 -133 42 -87 0 -88 0 -65 19 19 15 34 17 83 12 33
-3 71 -7 85 -8 39 -3 38 28 -1 42 -68 24 -131 23 -176 0z"/>
<path fill="#000000" stroke="none" d="M7170 54 c-66 -13 -100 -26 -95 -34 7
-12 375 -13 393 -2 30 20 -225 50 -298 36z"/>
<path fill="#000000" stroke="none" d="M4445 20 c-4 -6 40 -10 125 -10 85 0
129 4 125 10 -8 13 -242 13 -250 0z"/>
</g>
</svg>
