<?xml version="1.0" standalone="no"?>
<!DOCTYPE svg PUBLIC "-//W3C//DTD SVG 20010904//EN"
 "http://www.w3.org/TR/2001/REC-SVG-20010904/DTD/svg10.dtd">
<svg version="1.0" xmlns="http://www.w3.org/2000/svg"
 width="350.000000pt" height="448.000000pt" viewBox="0 0 350.000000 448.000000"
 preserveAspectRatio="xMidYMid meet">
<metadata>
Created by potrace 1.14, written by Peter Selinger 2001-2017
</metadata>
<g transform="translate(0.000000,448.000000) scale(0.100000,-0.100000)"
fill="#000000" stroke="none">
<path fill="#000000" stroke="none" d="M2493 4153 c9 -2 23 -2 30 0 6 3 -1 5
-18 5 -16 0 -22 -2 -12 -5z"/>
<path fill="#000000" stroke="none" d="M2553 4153 c9 -2 23 -2 30 0 6 3 -1 5
-18 5 -16 0 -22 -2 -12 -5z"/>
<path fill="#000000" stroke="none" d="M2633 4143 c9 -2 25 -2 35 0 9 3 1 5
-18 5 -19 0 -27 -2 -17 -5z"/>
<path fill="#000000" stroke="none" d="M2838 4143 c6 -2 18 -2 25 0 6 3 1 5
-13 5 -14 0 -19 -2 -12 -5z"/>
<path fill="#000000" stroke="none" d="M2268 4123 c7 -3 16 -2 19 1 4 3 -2 6
-13 5 -11 0 -14 -3 -6 -6z"/>
<path fill="#000000" stroke="none" d="M3060 4083 c12 -18 12 -24 -1 -40 -13
-16 -13 -17 4 -4 21 17 22 35 0 52 -15 13 -15 12 -3 -8z"/>
<path fill="#000000" stroke="none" d="M2120 4075 c-7 -9 -11 -17 -9 -20 3 -2
10 5 17 15 14 24 10 26 -8 5z"/>
<path fill="#000000" stroke="none" d="M1345 4019 c-94 -22 -179 -110 -223
-231 -22 -60 -26 -92 -27 -181 l-2 -107 -53 -33 c-61 -36 -107 -100 -117 -162
l-6 -39 29 19 c64 42 120 74 141 80 39 11 38 -27 -2 -82 -40 -53 -111 -177
-98 -171 45 22 84 37 116 43 33 6 37 5 37 -14 0 -11 -9 -25 -21 -31 -43 -24
-99 -82 -98 -104 1 -17 2 -17 6 -3 3 13 15 17 47 17 l42 0 -10 -75 -11 -75
-75 -56 c-41 -31 -111 -91 -155 -134 -44 -43 -92 -80 -107 -84 -14 -3 -33 -9
-42 -12 -13 -5 -15 -1 -10 27 10 51 30 85 68 116 40 31 38 43 -9 43 -26 0 -45
-11 -89 -50 l-55 -51 -4 43 c-3 42 -4 41 -5 -9 -1 -29 2 -53 7 -53 6 0 22 16
37 35 32 42 83 75 115 75 l24 -1 -28 -20 c-34 -26 -64 -83 -73 -139 l-7 -41
38 15 c21 9 39 16 41 16 2 0 -28 -42 -66 -92 -80 -105 -129 -197 -137 -256 -8
-60 22 -179 71 -275 34 -67 40 -90 33 -108 -13 -36 -2 -107 23 -141 20 -27 21
-33 10 -101 -6 -40 -17 -78 -24 -85 -11 -12 -15 -7 -20 30 -7 47 -48 143 -73
170 -15 17 -53 25 -53 13 0 -4 7 -19 15 -35 8 -16 22 -53 29 -82 9 -31 15 -43
15 -28 0 14 -10 51 -23 83 -13 31 -20 57 -16 57 27 0 85 -107 96 -178 4 -31 9
-58 13 -82 1 -3 5 1 10 9 5 8 9 -53 9 -150 0 -136 3 -177 21 -244 28 -105 65
-177 124 -242 l49 -53 -26 -31 c-14 -17 -29 -41 -32 -55 -4 -17 -15 -25 -38
-29 -306 -49 -444 -89 -485 -139 -19 -23 -6 -59 27 -78 35 -21 184 -58 227
-57 17 0 -1 7 -40 14 -135 25 -215 58 -215 89 0 26 60 65 141 91 68 21 136 35
342 70 25 4 27 2 27 -33 1 -80 65 -164 134 -178 32 -6 73 7 87 28 3 4 24 -10
47 -31 51 -49 100 -61 138 -36 15 9 29 26 31 36 6 23 5 23 53 -1 70 -36 127
-22 144 35 3 11 -1 47 -8 80 -8 33 -13 61 -12 62 1 2 66 -2 143 -8 98 -8 179
-8 265 -1 67 6 124 10 124 9 1 -1 -4 -31 -11 -66 -8 -35 -11 -71 -8 -80 19
-54 74 -66 143 -31 47 24 50 24 50 6 0 -20 48 -56 74 -56 12 0 39 9 60 21 l39
21 30 -31 c17 -17 27 -34 23 -38 -4 -4 -319 -8 -699 -8 -410 0 -631 -3 -542
-7 83 -4 401 -7 707 -6 543 2 558 1 573 -17 12 -17 14 -17 15 -4 0 24 -114
143 -187 196 -35 25 -89 53 -120 63 l-56 17 49 19 c95 37 224 23 378 -41 17
-7 18 -4 11 36 -19 124 -77 229 -146 265 -35 18 -29 34 12 34 50 0 103 -35
182 -121 75 -80 76 -81 83 -54 19 77 -20 294 -72 397 -14 27 -23 53 -20 56 3
3 18 -1 33 -9 62 -33 140 -205 165 -364 l12 -75 27 50 c42 77 125 175 176 209
50 33 88 39 117 18 17 -13 15 -15 -25 -36 -92 -47 -165 -142 -182 -238 -8 -42
4 -42 63 -2 120 81 243 125 285 101 16 -8 12 -12 -26 -30 -24 -11 -58 -35 -76
-53 -33 -35 -167 -259 -159 -266 2 -2 28 8 56 22 56 28 140 42 185 31 26 -7
24 -9 -46 -50 -96 -56 -149 -108 -149 -144 l1 -27 13 30 c17 40 31 50 96 68
58 17 100 47 100 73 0 9 10 24 22 34 l22 18 -39 11 c-22 6 -49 11 -61 11 -34
0 -114 31 -114 44 0 23 77 133 111 158 19 14 47 30 63 35 42 13 43 31 3 48
-31 13 -42 13 -93 -1 -54 -14 -130 -52 -212 -105 l-33 -22 7 29 c22 91 90 173
179 216 25 12 44 27 42 33 -2 5 -20 18 -40 28 l-38 19 -54 -27 c-57 -28 -123
-93 -177 -177 l-32 -49 -22 88 c-12 48 -26 99 -31 112 -13 34 4 87 40 130 78
91 165 378 211 691 28 194 39 418 26 530 -11 95 -10 103 7 116 23 17 78 28 99
20 15 -6 15 -9 -3 -29 -30 -33 -55 -85 -51 -110 5 -33 35 -32 76 0 58 46 81
56 97 43 17 -14 35 -73 35 -113 l0 -29 -36 22 c-29 19 -40 21 -59 12 -26 -12
-69 -85 -62 -105 2 -7 9 5 16 25 11 34 52 78 72 78 5 0 24 -14 44 -31 l35 -31
0 42 c0 62 -20 129 -42 141 -15 8 -29 5 -62 -15 -23 -14 -48 -32 -56 -40 -16
-20 -50 -21 -50 -1 0 26 25 78 54 112 l27 32 -36 7 c-24 4 -50 1 -76 -9 -47
-19 -40 -41 -74 228 -13 110 -29 216 -35 235 -5 19 -10 38 -10 42 0 4 89 9
198 11 l197 2 -201 3 -201 2 -33 88 c-41 109 -100 227 -157 316 -35 54 -48 67
-63 63 -18 -5 -20 0 -20 44 0 60 -30 142 -70 190 -19 24 -66 55 -132 89 l-103
53 -130 8 c-190 11 -336 45 -460 105 -65 31 -78 34 -190 38 -66 2 -138 -1
-160 -5z"/>
<path fill="#ffffff" stroke="none" d="M1440 4003 c0 -3 -7 -15 -17 -25 -16
-17 -15 -17 18 -1 81 40 209 22 293 -42 25 -19 43 -28 40 -20 -5 11 6 11 58
-4 36 -10 98 -24 139 -31 114 -18 114 -18 93 -41 -17 -19 -16 -19 17 -2 24 13
56 18 109 17 83 -1 142 -22 198 -69 22 -18 30 -22 26 -10 -13 34 70 -30 103
-79 40 -59 53 -103 53 -186 0 -165 -75 -304 -225 -420 -64 -50 -115 -115 -185
-238 -50 -88 -54 -92 -86 -92 -37 0 -41 -8 -23 -59 10 -28 8 -36 -17 -72 -46
-66 -121 -127 -177 -144 -64 -19 -124 -19 -224 0 -196 37 -303 112 -342 241
-29 93 -30 138 -2 168 l24 25 -27 12 c-14 7 -26 20 -26 29 0 9 -5 66 -11 126
-12 126 -30 201 -66 264 -80 143 -92 297 -33 452 23 61 94 149 141 174 48 24
149 43 149 27z"/>
<path fill="#ffffff" stroke="none" d="M1107 3432 c2 -46 1 -49 -30 -60 -18
-6 -57 -27 -87 -46 -30 -19 -56 -33 -58 -31 -8 7 20 74 40 100 27 35 96 85
117 85 12 0 16 -12 18 -48z"/>
<path fill="#ffffff" stroke="none" d="M2667 3403 c70 -115 123 -231 169 -370
l44 -133 0 -253 c0 -273 -14 -436 -55 -647 -26 -134 -82 -340 -111 -405 l-18
-40 -9 59 c-8 48 -7 64 7 86 17 30 22 125 7 149 -7 10 0 28 20 58 74 107 117
236 105 317 -9 61 -91 223 -161 321 l-56 77 16 106 c19 124 18 352 -1 552 -15
163 -16 190 -6 190 4 0 26 -30 49 -67z"/>
<path fill="#ffffff" stroke="none" d="M2599 3343 c1 -17 -3 -20 -20 -16 -14
4 -18 11 -14 22 4 9 9 30 13 46 l6 30 7 -30 c4 -16 7 -40 8 -52z"/>
<path fill="#ffffff" stroke="none" d="M1206 3233 c16 -61 36 -257 28 -278 -3
-6 -20 -19 -39 -28 -18 -9 -36 -25 -40 -37 -9 -27 2 -70 17 -70 9 0 9 3 0 12
-20 20 -13 55 14 77 28 22 88 28 100 10 7 -13 -51 -76 -79 -85 -12 -4 -15 -9
-9 -13 8 -5 7 -21 -3 -55 -8 -27 -15 -61 -14 -75 1 -16 4 -9 10 19 10 51 38
120 49 120 4 0 11 -21 15 -47 3 -27 17 -71 29 -99 18 -38 21 -56 13 -70 -15
-30 -70 -84 -84 -84 -7 0 -17 15 -22 33 -8 28 -9 29 -10 7 -1 -43 14 -56 49
-43 33 12 37 8 15 -21 -20 -26 -19 -75 2 -98 18 -20 53 -24 70 -7 7 7 18 1 37
-21 14 -17 26 -37 26 -44 0 -8 9 -25 21 -40 20 -25 23 -26 44 -12 20 13 27 13
66 -1 24 -8 67 -17 96 -20 39 -4 53 -10 56 -24 8 -29 43 -23 84 15 65 57 80
62 108 32 25 -27 44 -27 78 2 12 11 17 30 17 74 0 62 9 72 32 36 26 -38 72 2
83 73 4 27 3 25 -10 -12 -16 -50 -38 -75 -55 -64 -13 8 -50 80 -50 97 1 7 28
42 60 77 l60 64 2 -64 2 -64 3 57 c4 57 4 57 32 52 49 -10 68 36 39 95 l-20
41 46 84 c56 103 124 195 170 230 46 34 52 33 27 -6 -47 -72 -91 -169 -111
-248 -134 -524 -499 -783 -852 -604 -69 35 -165 134 -205 209 -60 115 -78 200
-78 380 0 114 6 191 19 267 16 92 18 119 8 185 -6 43 -14 96 -17 118 l-6 40
31 -57 c16 -32 37 -84 46 -115z"/>
<path fill="#ffffff" stroke="none" d="M2601 3286 c11 -39 8 -41 -24 -15 -33
25 -36 52 -5 47 14 -2 24 -13 29 -32z"/>
<path fill="#ffffff" stroke="none" d="M1135 3230 l7 -55 -49 -12 c-26 -6 -57
-15 -67 -19 -16 -6 -14 2 14 52 74 130 83 133 95 34z"/>
<path fill="#ffffff" stroke="none" d="M2610 3203 c0 -27 -4 -28 -59 -8 -37
13 -41 13 -41 -2 0 -9 25 -41 55 -70 82 -80 72 -112 -25 -78 -23 8 -44 15 -46
15 -2 0 -4 -7 -4 -15 0 -11 -13 -15 -54 -15 l-55 0 42 68 c23 38 60 96 82 129
l40 61 33 -31 c18 -17 32 -41 32 -54z"/>
<path fill="#ffffff" stroke="none" d="M2581 3173 c20 -4 28 -13 33 -36 3 -16
4 -32 1 -35 -8 -8 -52 26 -76 59 -21 30 -21 32 -3 25 10 -4 31 -10 45 -13z"/>
<path fill="#ffffff" stroke="none" d="M1124 3062 c-6 -29 -10 -32 -45 -32
-22 0 -39 2 -39 5 0 7 83 66 87 62 2 -2 0 -18 -3 -35z"/>
<path fill="#ffffff" stroke="none" d="M2573 3024 c47 -16 47 -16 47 -60 l0
-45 -31 23 c-29 21 -79 80 -79 92 0 9 13 7 63 -10z"/>
<path fill="#ffffff" stroke="none" d="M2558 2960 c34 -34 62 -69 62 -80 0
-25 -2 -25 -86 4 -38 14 -70 23 -72 21 -10 -9 38 -77 88 -125 60 -59 66 -80
20 -80 -21 0 -36 10 -60 40 -30 39 -166 154 -191 162 -9 3 -3 21 20 61 l32 57
63 0 62 0 62 -60z"/>
<path fill="#ffffff" stroke="none" d="M2563 2865 l58 -19 -7 -45 c-4 -25 -9
-48 -11 -51 -6 -7 -123 118 -123 131 0 12 2 11 83 -16z"/>
<path fill="#ffffff" stroke="none" d="M2358 2850 c97 -70 245 -243 341 -398
78 -126 76 -119 33 -118 -29 1 -37 -3 -40 -19 -4 -20 -4 -20 11 0 13 17 18 18
41 7 30 -14 33 -31 8 -62 -20 -25 -52 -18 -52 11 0 10 -4 19 -10 19 -14 0 -12
-12 6 -38 21 -31 55 -25 73 13 l15 30 13 -45 c25 -81 0 -179 -76 -302 -33 -54
-51 -71 -51 -49 0 15 -70 54 -120 67 -39 10 -45 15 -42 35 2 13 4 65 5 114 2
79 -1 97 -25 148 -35 75 -120 158 -225 220 l-82 48 24 54 c25 55 65 175 85
253 6 23 14 42 19 42 4 0 27 -13 49 -30z"/>
<path fill="#ffffff" stroke="none" d="M1124 2563 c9 -34 19 -69 22 -76 3 -10
-15 -26 -58 -50 -96 -54 -153 -109 -190 -185 -30 -61 -33 -75 -33 -159 l0 -92
-35 -6 c-41 -8 -101 -38 -119 -59 -8 -9 -18 -16 -23 -16 -17 0 -79 147 -95
226 -13 65 -14 87 -4 123 l13 44 19 -32 c30 -50 72 -38 85 25 5 25 2 32 -21
42 -14 7 -33 12 -42 12 -13 0 -13 3 2 28 75 117 250 304 370 395 l80 60 6
-109 c4 -60 14 -137 23 -171z"/>
<path fill="#ffffff" stroke="none" d="M2125 2725 c38 -37 30 -105 -12 -105
-14 0 -46 58 -57 103 -6 24 -4 27 19 27 14 0 37 -11 50 -25z"/>
<path fill="#ffffff" stroke="none" d="M2600 2683 c0 -5 -4 -14 -9 -22 -7 -11
-11 -9 -20 8 -10 18 -9 21 9 21 11 0 20 -3 20 -7z"/>
<path fill="#ffffff" stroke="none" d="M1362 2486 c-3 -73 -5 -77 -19 -56
l-15 22 -12 -24 c-24 -49 -76 -29 -76 29 0 40 45 93 79 93 19 0 20 -5 16 -47
-3 -38 -3 -42 4 -18 5 17 9 41 10 54 1 22 -2 23 -34 18 -39 -6 -43 2 -18 39
l16 25 26 -28 c25 -26 27 -33 23 -107z"/>
<path fill="#ffffff" stroke="none" d="M2944 2318 c-3 -5 -16 -8 -29 -8 l-24
0 5 98 c3 53 7 108 9 122 2 14 4 36 5 50 2 14 11 -38 20 -115 10 -77 16 -143
14 -147z"/>
<path fill="#ffffff" stroke="none" d="M1457 2518 c57 -26 73 -38 73 -54 0
-31 -68 -162 -90 -174 -36 -20 -69 71 -70 193 0 37 3 67 8 67 4 0 40 -15 79
-32z"/>
<path fill="#ffffff" stroke="none" d="M2336 2407 c135 -99 186 -224 153 -376
-8 -38 -18 -56 -45 -76 -45 -34 -84 -97 -84 -133 0 -33 24 -59 60 -64 17 -2
26 -10 28 -26 5 -35 45 -56 81 -44 26 9 32 8 46 -15 14 -20 23 -24 51 -21 19
2 34 4 34 3 14 -86 30 -264 30 -335 0 -89 -14 -212 -27 -233 -3 -5 -18 14 -34
41 -36 63 -72 92 -116 92 l-35 0 20 -32 c29 -49 71 -160 82 -219 9 -49 8 -53
-20 -89 l-31 -39 -65 50 c-36 27 -74 49 -85 49 -23 0 -23 -6 -3 94 26 128 15
419 -25 651 -38 217 -93 440 -156 633 -40 121 -46 147 -36 168 l11 25 50 -28
c28 -15 80 -49 116 -76z"/>
<path fill="#ffffff" stroke="none" d="M1944 2468 c7 -30 -7 -42 -34 -28 -27
14 -31 10 -51 -47 -8 -26 -25 -53 -37 -61 -20 -13 -19 -10 8 55 19 45 38 74
57 85 37 24 49 23 57 -4z"/>
<path fill="#ffffff" stroke="none" d="M1632 2463 c20 -4 27 -10 24 -20 -4 -8
-6 -48 -6 -90 l0 -75 -52 7 c-29 4 -68 13 -85 20 l-33 14 29 63 c16 35 32 71
35 82 5 14 12 17 32 12 15 -4 40 -10 56 -13z"/>
<path fill="#ffffff" stroke="none" d="M1835 2430 c-17 -71 -109 -200 -142
-200 -8 0 -18 12 -23 26 -10 26 -14 162 -5 186 4 9 29 13 91 13 l85 0 -6 -25z"/>
<path fill="#ffffff" stroke="none" d="M1185 2400 l18 -40 -36 -118 c-95 -309
-160 -654 -173 -927 -10 -187 9 -303 71 -448 6 -15 1 -17 -39 -17 -25 0 -66
-7 -92 -16 l-46 -16 -35 34 c-145 141 -190 400 -132 766 10 59 15 72 30 72 11
0 28 9 39 20 16 16 25 18 40 10 10 -5 27 -10 36 -10 23 0 54 29 54 51 0 13 8
17 34 16 44 -1 66 18 66 57 0 63 -62 148 -123 169 -8 2 -12 32 -11 93 0 111
22 164 97 237 49 48 164 120 177 112 4 -2 15 -22 25 -45z"/>
<path fill="#ffffff" stroke="none" d="M1917 2418 c25 -23 32 -83 13 -119 -13
-24 -65 -26 -74 -3 -6 16 22 144 32 144 3 0 16 -10 29 -22z"/>
<path fill="#ffffff" stroke="none" d="M2203 2218 c-5 -10 -170 -62 -268 -84
-62 -15 -118 -19 -250 -18 -196 0 -270 16 -414 84 -90 43 -89 41 -61 114 l9
26 53 -56 c154 -163 398 -200 602 -91 69 37 169 126 223 200 l37 50 37 -109
c20 -60 34 -112 32 -116z"/>
<path fill="#ffffff" stroke="none" d="M685 2336 c16 -12 17 -17 6 -45 -16
-37 -47 -41 -62 -7 -8 17 -8 29 0 45 14 24 30 27 56 7z"/>
<path fill="#ffffff" stroke="none" d="M2949 2211 c-2 -44 -6 -81 -9 -84 -3
-2 -20 -7 -38 -11 l-34 -6 7 63 c11 113 13 117 47 117 l30 0 -3 -79z"/>
<path fill="#ffffff" stroke="none" d="M1250 2190 c244 -123 558 -131 875 -22
47 17 87 26 90 23 8 -15 75 -276 75 -297 0 -18 -13 -24 -97 -43 -326 -75 -655
-81 -893 -15 -87 24 -200 68 -200 78 0 14 70 288 76 298 7 11 8 11 74 -22z"/>
<path fill="#ffffff" stroke="none" d="M2936 2013 c-3 -48 -9 -105 -13 -126
l-6 -39 -46 7 c-25 4 -47 8 -49 10 -7 6 42 221 52 227 6 4 24 8 40 8 l29 0 -7
-87z"/>
<path fill="#ffffff" stroke="none" d="M938 1955 c54 -45 79 -128 47 -155 -22
-18 -62 -4 -79 28 -18 32 -19 28 -7 -16 27 -93 -59 -116 -100 -28 l-19 41 6
-42 c7 -49 -6 -73 -41 -73 -52 0 -81 86 -54 157 36 95 178 146 247 88z"/>
<path fill="#ffffff" stroke="none" d="M2601 1929 c72 -36 111 -118 88 -187
-15 -48 -37 -72 -64 -72 -32 0 -49 24 -42 63 l5 33 -33 -33 c-36 -36 -56 -41
-75 -18 -12 15 -10 63 5 100 6 14 1 11 -14 -7 -28 -35 -75 -38 -91 -7 -9 16
-6 29 18 71 49 88 110 105 203 57z"/>
<path fill="#ffffff" stroke="none" d="M1247 1831 c164 -48 229 -56 448 -55
218 0 336 14 525 63 41 10 76 18 78 16 5 -4 51 -259 48 -262 -1 -2 -95 -19
-209 -38 -253 -44 -439 -56 -648 -44 -141 8 -421 43 -441 55 -13 8 -9 46 18
188 l26 134 44 -18 c23 -10 74 -28 111 -39z"/>
<path fill="#ffffff" stroke="none" d="M2888 1834 c26 -7 28 -29 8 -119 -9
-43 -17 -59 -27 -56 -8 2 -33 8 -56 14 -24 6 -43 15 -43 20 0 5 9 40 21 78 22
74 32 80 97 63z"/>
<path fill="#ffffff" stroke="none" d="M2846 1645 c26 -11 34 -19 30 -32 -3
-10 -12 -47 -21 -83 -9 -36 -21 -80 -26 -97 l-10 -33 -39 20 c-22 11 -46 20
-54 20 -37 0 -30 64 21 188 15 37 41 41 99 17z"/>
<path fill="#ffffff" stroke="none" d="M2354 1533 c13 -76 24 -228 18 -234
-12 -11 -194 -70 -278 -89 -123 -29 -301 -50 -419 -50 -195 0 -430 45 -594
112 l-73 31 6 76 c4 42 9 98 13 124 5 46 7 48 32 42 103 -26 309 -47 502 -52
242 -6 362 3 594 47 202 37 192 38 199 -7z"/>
<path fill="#ffffff" stroke="none" d="M2778 1400 c17 -11 32 -22 32 -25 0
-21 -66 -167 -86 -191 -25 -29 -25 -29 -20 -4 3 14 6 73 6 133 0 120 4 126 68
87z"/>
<path fill="#ffffff" stroke="none" d="M1098 1246 c254 -106 628 -132 948 -66
74 15 256 70 323 97 12 5 13 -10 8 -90 -4 -52 -14 -127 -22 -165 l-16 -71
-127 -40 c-373 -119 -751 -132 -1064 -38 -65 20 -75 27 -90 58 -38 82 -67 359
-35 346 6 -3 40 -17 75 -31z"/>
<path fill="#ffffff" stroke="none" d="M2293 897 c14 -5 16 -11 8 -25 -7 -13
-31 -22 -77 -31 -119 -22 -196 -71 -255 -160 -14 -23 -24 -25 -144 -34 -91 -7
-172 -7 -275 1 -133 10 -146 13 -160 34 -55 83 -129 132 -238 158 -28 6 -55
17 -58 22 -4 6 1 8 12 5 201 -59 286 -71 504 -70 220 0 339 17 540 76 63 18
117 32 120 32 3 -1 13 -5 23 -8z"/>
<path fill="#ffffff" stroke="none" d="M2360 855 c0 -3 -9 -5 -20 -5 -11 0
-20 7 -20 15 0 13 4 14 20 5 11 -6 20 -13 20 -15z"/>
<path fill="#ffffff" stroke="none" d="M2592 783 c-4 -21 -5 -21 -29 7 l-24
29 23 32 23 31 5 -39 c3 -21 4 -48 2 -60z"/>
<path fill="#ffffff" stroke="none" d="M1215 800 c109 -41 192 -155 197 -270
2 -54 -17 -73 -63 -67 -51 7 -89 34 -111 82 l-19 40 7 -46 c10 -78 -28 -120
-90 -99 -44 14 -85 59 -101 111 -13 43 -14 43 -14 11 -1 -37 -39 -82 -68 -82
-29 0 -82 37 -103 72 -57 94 -19 211 85 260 55 26 195 20 280 -12z"/>
<path fill="#ffffff" stroke="none" d="M2409 789 c23 -40 51 -128 51 -161 0
-14 -8 -13 -62 10 -56 23 -77 26 -178 27 -104 0 -120 -2 -164 -25 -68 -35 -70
-50 -9 -50 27 0 57 -6 67 -13 17 -12 17 -16 3 -44 -22 -41 -64 -66 -111 -67
-56 -1 -69 25 -50 105 17 72 34 107 76 154 56 65 161 103 284 104 l70 1 23
-41z"/>
<path fill="#ffffff" stroke="none" d="M3047 599 l28 -11 -35 -13 c-86 -30
-83 -31 -65 4 17 34 29 37 72 20z"/>
<path fill="#ffffff" stroke="none" d="M2211 520 c30 -22 54 -46 54 -52 0 -7
-17 -19 -37 -26 -33 -13 -40 -13 -62 1 -26 18 -41 64 -31 97 9 28 15 26 76
-20z"/>
<path fill="#ffffff" stroke="none" d="M3168 508 c-6 -16 -57 -46 -97 -58 -17
-5 -31 -7 -31 -5 0 6 114 75 123 75 5 0 7 -6 5 -12z"/>
<path fill="#000000" stroke="none" d="M1484 3891 c-78 -35 -134 -136 -121
-217 22 -137 186 -187 301 -92 38 31 76 95 76 125 -1 10 -7 2 -14 -18 -21 -59
-53 -96 -108 -123 -61 -31 -98 -32 -154 -7 -74 34 -110 118 -84 197 13 38 84
124 103 124 5 0 3 -8 -5 -17 -30 -35 -31 -47 -4 -25 32 25 52 28 59 9 8 -22
-21 -76 -48 -89 -34 -15 -32 -30 10 -66 69 -61 172 -49 221 26 14 21 24 28 28
20 3 -7 3 5 0 27 -14 93 -73 145 -163 145 -33 0 -73 -8 -97 -19z"/>
<path fill="#000000" stroke="none" d="M1224 3767 c-32 -28 -28 -53 12 -63 21
-6 31 -2 46 16 16 20 17 26 5 43 -20 30 -31 31 -63 4z"/>
<path fill="#ffffff" stroke="none" d="M1283 3734 c-11 -28 -73 -28 -73 2 0 7
10 20 22 28 20 14 24 14 39 0 10 -9 15 -22 12 -30z"/>
<path fill="#000000" stroke="none" d="M2100 3759 c-108 -66 -120 -217 -25
-315 119 -124 300 -48 299 126 -1 151 -158 259 -274 189z"/>
<path fill="#ffffff" stroke="none" d="M2126 3715 c10 -25 -17 -75 -48 -91
l-29 -15 21 -28 c21 -31 84 -61 126 -61 75 0 138 64 132 133 -3 34 -2 36 9 20
55 -75 31 -197 -50 -257 -41 -30 -120 -28 -169 5 -105 69 -131 233 -45 288 39
25 46 26 53 6z"/>
<path fill="#000000" stroke="none" d="M1196 3556 c-43 -40 -45 -58 -10 -85
36 -29 68 -26 105 7 35 31 34 52 -2 90 -28 31 -52 27 -93 -12z"/>
<path fill="#ffffff" stroke="none" d="M1293 3548 c19 -25 19 -28 4 -52 -29
-43 -95 -47 -117 -7 -13 26 -6 41 33 69 39 27 54 25 80 -10z"/>
<path fill="#000000" stroke="none" d="M1352 3408 c-21 -21 -7 -88 19 -88 6 0
3 7 -5 16 -28 28 -16 74 19 74 34 0 49 -23 34 -52 -7 -13 -17 -26 -23 -30 -8
-5 -7 -8 1 -8 11 0 43 48 43 64 0 2 -7 12 -16 20 -18 19 -55 21 -72 4z"/>
<path fill="#000000" stroke="none" d="M2226 3329 c3 -5 18 -9 35 -9 16 0 38
-9 50 -21 17 -17 19 -28 14 -62 -9 -51 -31 -96 -51 -104 -22 -8 -80 22 -100
52 -22 34 -13 103 16 127 12 10 18 18 12 18 -20 0 -52 -53 -52 -87 0 -49 24
-88 65 -108 68 -32 102 -3 119 101 9 53 -14 83 -72 94 -23 4 -39 3 -36 -1z"/>
<path fill="#000000" stroke="none" d="M1285 3144 c-14 -14 -14 -19 -2 -38 17
-25 56 -28 70 -4 9 13 7 22 -7 37 -23 25 -39 26 -61 5z"/>
<path fill="#ffffff" stroke="none" d="M1340 3130 c20 -37 -14 -55 -45 -24
-12 12 -13 19 -4 30 16 20 37 17 49 -6z"/>
<path fill="#000000" stroke="none" d="M2103 3063 c-8 -3 -13 -23 -13 -48 0
-49 22 -65 60 -45 33 18 40 91 8 89 -10 0 -10 -2 0 -6 19 -7 14 -48 -8 -68
-28 -25 -50 -13 -50 30 0 28 5 38 23 45 12 5 15 9 7 9 -8 -1 -21 -3 -27 -6z"/>
<path fill="#000000" stroke="none" d="M1351 3011 c-16 -10 -8 -41 11 -41 10
0 10 2 -1 9 -16 10 -6 31 14 31 20 0 30 -21 14 -31 -9 -6 -10 -9 -2 -9 17 0
24 15 17 34 -7 18 -31 21 -53 7z"/>
<path fill="#000000" stroke="none" d="M2045 2884 c-19 -19 -4 -44 26 -44 23
0 32 15 24 40 -8 24 -28 26 -50 4z"/>
<path fill="#ffffff" stroke="none" d="M2088 2867 c2 -11 -3 -17 -16 -17 -26
0 -34 11 -20 27 14 17 32 12 36 -10z"/>
<path fill="#000000" stroke="none" d="M1420 2674 c-12 -16 -12 -17 0 -6 35
31 116 5 129 -42 7 -23 9 -26 10 -10 2 37 -30 65 -80 71 -36 4 -48 1 -59 -13z"/>
<path fill="#000000" stroke="none" d="M1729 2603 c-11 -15 -11 -16 1 -5 17
15 74 16 101 1 11 -6 24 -20 29 -32 6 -16 9 -18 9 -5 2 46 -111 79 -140 41z"/>
<path fill="#000000" stroke="none" d="M1172 2630 c0 -19 2 -27 5 -17 2 9 2
25 0 35 -3 9 -5 1 -5 -18z"/>
<path fill="#000000" stroke="none" d="M2643 2413 c-15 -6 -17 -39 -3 -48 20
-12 51 6 48 28 -3 22 -22 30 -45 20z"/>
<path fill="#ffffff" stroke="none" d="M2675 2389 c0 -7 -8 -15 -17 -17 -18
-3 -25 18 -11 32 10 10 28 1 28 -15z"/>
<path fill="#000000" stroke="none" d="M2728 2183 c-20 -24 -12 -43 18 -43 29
0 41 24 24 45 -16 19 -24 19 -42 -2z"/>
<path fill="#ffffff" stroke="none" d="M2765 2169 c0 -7 -8 -15 -17 -17 -18
-3 -25 18 -11 32 10 10 28 1 28 -15z"/>
<path fill="#000000" stroke="none" d="M690 2435 c-16 -19 -6 -45 18 -45 28 0
43 20 31 42 -12 22 -32 23 -49 3z"/>
<path fill="#ffffff" stroke="none" d="M734 2409 c-7 -11 -44 -12 -44 -1 0 4
5 13 12 20 13 13 42 -4 32 -19z"/>
<path fill="#000000" stroke="none" d="M627 2219 c-22 -13 -22 -45 -1 -53 19
-7 44 10 44 29 0 21 -23 34 -43 24z"/>
<path fill="#ffffff" stroke="none" d="M660 2195 c0 -19 -20 -29 -32 -17 -8 8
-7 16 2 26 14 17 30 12 30 -9z"/>
<path fill="#000000" stroke="none" d="M778 4013 c18 -2 45 -2 60 0 15 2 0 4
-33 4 -33 0 -45 -2 -27 -4z"/>
<path fill="#000000" stroke="none" d="M2248 3993 c6 -2 18 -2 25 0 6 3 1 5
-13 5 -14 0 -19 -2 -12 -5z"/>
<path fill="#000000" stroke="none" d="M2380 3986 c0 -2 8 -10 18 -17 15 -13
16 -12 3 4 -13 16 -21 21 -21 13z"/>
<path fill="#000000" stroke="none" d="M1016 3967 c3 -10 9 -15 12 -12 3 3 0
11 -7 18 -10 9 -11 8 -5 -6z"/>
<path fill="#000000" stroke="none" d="M2928 3963 c12 -2 30 -2 40 0 9 3 -1 5
-23 4 -22 0 -30 -2 -17 -4z"/>
<path fill="#000000" stroke="none" d="M2488 3933 c7 -3 16 -2 19 1 4 3 -2 6
-13 5 -11 0 -14 -3 -6 -6z"/>
<path fill="#000000" stroke="none" d="M2553 3923 c9 -2 25 -2 35 0 9 3 1 5
-18 5 -19 0 -27 -2 -17 -5z"/>
<path fill="#000000" stroke="none" d="M2653 3923 c9 -2 25 -2 35 0 9 3 1 5
-18 5 -19 0 -27 -2 -17 -5z"/>
<path fill="#000000" stroke="none" d="M510 3903 c19 -3 42 -10 50 -16 13 -10
13 -10 1 6 -9 11 -26 16 -50 15 l-36 -1 35 -4z"/>
<path fill="#000000" stroke="none" d="M661 3639 c-1 -4 10 -31 24 -62 29 -64
55 -172 55 -236 l0 -43 -69 64 c-73 70 -107 84 -155 64 l-30 -12 45 -26 c25
-15 53 -42 66 -65 21 -38 48 -122 41 -129 -2 -2 -32 6 -67 16 -80 25 -173 26
-227 1 -57 -26 -64 -41 -19 -41 47 0 106 -31 168 -88 l49 -47 -153 -5 -154 -6
161 -2 c155 -2 162 -3 177 -24 9 -13 16 -18 16 -12 1 18 -75 99 -131 140 -28
21 -72 43 -97 50 l-46 12 37 16 c68 29 171 19 282 -29 18 -8 19 -5 12 36 -12
73 -50 144 -95 177 -38 28 -39 30 -18 36 35 9 103 -31 154 -90 25 -29 50 -51
55 -48 13 8 9 91 -7 168 -12 57 -72 205 -74 185z"/>
<path fill="#000000" stroke="none" d="M707 3621 c35 -22 84 -113 107 -201 8
-30 15 -46 15 -34 1 24 -29 115 -54 165 -23 45 -65 89 -84 89 -9 0 -2 -9 16
-19z"/>
<path fill="#000000" stroke="none" d="M1023 3522 c-42 -6 -188 -160 -170
-179 3 -2 11 6 18 19 47 90 148 166 196 147 13 -5 22 -5 19 0 -7 11 -36 17
-63 13z"/>
<path fill="#000000" stroke="none" d="M831 3330 c0 -29 1 -32 10 -17 7 11 7
23 0 35 -9 14 -10 11 -10 -18z"/>
<path fill="#000000" stroke="none" d="M969 3223 c-13 -16 -12 -17 4 -4 9 7
17 15 17 17 0 8 -8 3 -21 -13z"/>
<path fill="#000000" stroke="none" d="M630 2920 c-42 -42 -107 -219 -91 -248
5 -9 10 3 14 35 8 70 46 163 79 197 16 15 31 27 33 24 2 -2 -7 -31 -20 -64
-14 -32 -24 -70 -24 -84 0 -15 6 -3 14 27 8 29 24 71 35 93 l20 40 -20 0 c-11
0 -29 -9 -40 -20z"/>
<path fill="#000000" stroke="none" d="M341 2826 c-9 -11 -5 -16 19 -26 30
-12 100 -82 100 -99 0 -5 3 -16 6 -25 4 -10 -20 -2 -71 24 -82 43 -95 46 -127
29 -20 -11 -19 -12 18 -33 25 -14 52 -43 76 -81 20 -33 37 -63 37 -66 1 -3
-21 -1 -47 4 -26 6 -61 7 -78 3 -27 -8 -28 -9 -10 -20 74 -44 112 -74 123 -96
9 -18 13 -20 13 -8 0 20 -40 59 -87 85 -18 9 -33 21 -33 25 0 15 65 8 108 -12
23 -10 42 -17 42 -15 0 2 -18 35 -41 74 -39 68 -88 121 -112 121 -8 0 -8 3 0
11 17 17 61 3 133 -41 75 -45 85 -37 49 37 -15 31 -36 54 -65 72 -51 31 -55
41 -14 41 34 0 88 -43 121 -96 12 -19 24 -33 27 -30 6 7 -44 73 -83 109 -32
30 -85 37 -104 13z"/>
<path fill="#000000" stroke="none" d="M571 2704 c0 -11 3 -14 6 -6 3 7 2 16
-1 19 -3 4 -6 -2 -5 -13z"/>
<path fill="#000000" stroke="none" d="M410 2626 c0 -2 8 -10 18 -17 15 -13
16 -12 3 4 -13 16 -21 21 -21 13z"/>
<path fill="#000000" stroke="none" d="M455 1580 c4 -6 12 -10 20 -10 7 0 36
-25 63 -55 28 -30 53 -55 56 -55 3 0 5 26 4 58 l-2 57 -3 -48 -4 -49 -40 45
c-21 25 -53 50 -69 56 -18 6 -28 6 -25 1z"/>
<path fill="#000000" stroke="none" d="M416 1572 c-3 -5 9 -16 26 -26 30 -18
67 -83 69 -121 0 -12 3 -15 6 -7 9 22 -27 100 -57 126 -16 13 -26 27 -23 30 4
3 1 6 -5 6 -6 0 -13 -4 -16 -8z"/>
<path fill="#000000" stroke="none" d="M289 1400 c-23 -19 -23 -19 -3 -20 31
0 104 -51 152 -105 23 -26 42 -43 42 -38 0 19 -105 118 -143 137 -20 9 -37 19
-37 21 0 3 15 9 33 14 30 9 30 9 6 10 -15 1 -37 -8 -50 -19z"/>
<path fill="#000000" stroke="none" d="M427 1410 c23 -5 51 -14 62 -19 25 -14
41 -14 41 0 0 5 -4 8 -9 5 -5 -3 -25 1 -45 9 -19 8 -48 15 -63 14 -21 -1 -18
-3 14 -9z"/>
<path fill="#000000" stroke="none" d="M490 1316 c0 -2 8 -10 18 -17 15 -13
16 -12 3 4 -13 16 -21 21 -21 13z"/>
<path fill="#000000" stroke="none" d="M2899 653 c-13 -16 -12 -17 4 -4 9 7
17 15 17 17 0 8 -8 3 -21 -13z"/>
<path fill="#000000" stroke="none" d="M2879 433 c-13 -16 -12 -17 4 -4 16 13
21 21 13 21 -2 0 -10 -8 -17 -17z"/>
<path fill="#000000" stroke="none" d="M625 400 c52 -9 152 -13 144 -6 -2 2
-47 6 -99 9 -68 4 -81 3 -45 -3z"/>
<path fill="#000000" stroke="none" d="M818 383 c23 -2 61 -2 85 0 23 2 4 4
-43 4 -47 0 -66 -2 -42 -4z"/>
</g>
</svg>
