<svg version="1.1" xmlns="http://www.w3.org/2000/svg" xmlns:xlink="http://www.w3.org/1999/xlink" width="768" height="829.4375"><defs><clipPath id="clip-1"><rect x="0" y="122.99756" transform="scale(0.512,0.512)" width="1500" height="1374" fill="none"/></clipPath></defs><g fill="none" fill-rule="nonzero" stroke="none" stroke-width="1" stroke-linecap="butt" stroke-linejoin="miter" stroke-miterlimit="10" stroke-dasharray="" stroke-dashoffset="0" font-family="none" font-weight="none" font-size="none" text-anchor="none" style="mix-blend-mode: normal"><g clip-path="url(#clip-1)"><g><path d="M366.848,97.84195c-51.968,3.9424 -106.9568,27.8528 -142.9504,62.1056c-2.56,2.4064 -5.1712,5.1712 -5.8368,6.1952c-1.1776,1.6896 -1.3824,1.792 -4.3008,1.792c-20.6336,0.0512 -46.336,11.6736 -72.5504,32.8192c-5.632,4.5568 -25.4976,24.1152 -29.0304,28.5696l-1.792,2.2528l7.936,-0.3072c4.3008,-0.1536 12.032,-0.8704 17.1008,-1.5872c10.496,-1.4848 18.8928,-1.6896 23.7056,-0.5632c3.6864,0.8704 6.2464,2.048 6.2464,2.9184c0,0.3072 -1.4848,3.1232 -3.2768,6.2464c-12.1344,21.0432 -19.3536,40.9088 -24.3712,67.072c-2.3552,12.4928 -3.2256,22.6816 -3.2256,38.9632c0,12.9024 0.1536,16.7424 1.1264,24.064c2.816,22.1696 7.936,39.8336 16.9472,58.5216c8.3456,17.2544 16.0256,28.3136 28.672,41.2672c9.3696,9.6256 15.0016,14.4384 23.1936,19.8144c11.3664,7.5264 21.9648,12.4928 39.0144,18.176c18.3296,6.0928 28.2624,7.3728 49.9712,6.3488c24.4736,-1.1776 32.256,-0.1536 38.2976,4.864c2.2528,1.9456 7.7312,10.3424 11.008,16.9472c1.536,3.072 5.5296,12.032 8.9088,19.9168c6.7072,15.8208 9.5232,21.6576 13.824,28.928c6.144,10.2912 14.8992,20.3264 21.8112,24.9344c4.096,2.7648 5.2736,2.6624 7.5776,-0.6144c2.9696,-4.2496 2.816,-9.2672 -0.6144,-21.76c-1.1264,-3.9936 -2.304,-9.0624 -2.6112,-11.2128c-0.7168,-4.7616 -0.1024,-7.5776 3.584,-16.384c3.4304,-8.0896 4.3008,-11.4176 4.352,-15.9232c0.0512,-5.7856 -1.4848,-9.8816 -7.5264,-19.6096c-7.1168,-11.52 -8.5504,-14.6432 -8.5504,-18.5344c0,-7.0656 3.2256,-12.6976 13.0048,-22.784c7.936,-8.192 9.8304,-11.2128 9.4208,-15.36c-0.1536,-1.6384 -0.768,-3.2768 -1.6896,-4.608c-1.2288,-1.792 -1.6896,-2.048 -3.328,-2.048c-4.5056,0 -18.1248,5.12 -27.2896,10.2912c-2.6112,1.4848 -9.216,5.5808 -14.6944,9.1648c-16.9984,11.1104 -22.9376,13.6704 -35.9936,15.36c-5.2736,0.7168 -7.4752,0.4096 -19.5584,-2.6624c-25.1904,-6.4 -44.4928,-15.3088 -59.904,-27.8016c-25.9072,-20.9408 -37.0688,-51.3536 -30.464,-83.0976c2.9184,-13.9264 9.6256,-28.7232 18.2272,-40.192c3.4304,-4.5568 12.3904,-13.568 14.6944,-14.7456c2.7136,-1.4336 11.4176,-2.5088 20.1216,-2.5088c8.0384,0 17.2032,0.8704 30.208,2.816c28.0576,4.2496 36.608,5.1712 42.1888,4.608c7.3728,-0.768 10.1888,-3.9424 9.0624,-10.1888c-0.8192,-4.7616 -4.9664,-11.3152 -13.312,-21.1968c-2.4576,-2.9184 -3.4304,-4.4032 -3.072,-4.7616c0.8704,-0.8704 16.0256,-1.1776 24.6784,-0.512c8.192,0.6144 16.6912,2.1504 24.1152,4.352c8.0384,2.304 8.7552,2.7648 12.8512,7.4752c11.52,13.3632 22.0672,21.2992 30.5152,23.04c6.4512,1.3824 13.0048,-0.3072 17.5616,-4.4032c4.5056,-4.0448 9.8304,-12.5952 12.9024,-20.5824c0.9728,-2.4576 1.1264,-2.5088 6.0416,-1.3312c2.048,0.4608 7.2192,0.8704 13.312,1.0752c14.8992,0.4096 21.1456,-0.9216 29.0816,-6.1952c4.864,-3.2256 8.0384,-6.5024 9.8304,-10.2912c4.352,-8.9088 4.0448,-18.432 -0.9728,-28.4672c-3.6352,-7.2192 -7.0144,-11.776 -18.688,-25.0368l-4.5568,-5.1712l1.6384,-2.9184c4.8128,-8.704 7.9872,-17.0496 9.6256,-25.1392c1.3312,-6.4512 1.28,-23.7056 -0.0512,-29.7472c-2.2016,-10.1376 -6.5024,-20.4288 -11.9296,-28.5696c-5.6832,-8.6016 -16.9472,-18.944 -27.0848,-24.9856c-15.104,-9.0112 -36.8128,-15.7696 -59.0848,-18.3808c-8.5504,-0.9728 -25.856,-1.3824 -34.048,-0.7168z" fill="#000000"/><path d="M404.736,105.36835c20.48,3.1744 38.8096,9.1648 51.9168,16.9472c7.4752,4.4544 12.1344,8.0896 17.664,13.9264c9.4208,9.9328 15.6672,21.6576 18.5344,34.7648c1.4336,6.5536 1.3312,22.528 -0.2048,28.928c-2.2016,9.3184 -6.144,18.7904 -10.7008,25.6512c-0.9728,1.4848 -1.6896,2.9184 -1.6384,3.2256c0.1024,0.256 4.352,5.2736 9.4208,11.0592c9.3696,10.752 12.3392,14.7968 15.3088,20.736c2.8672,5.632 3.584,8.448 3.6352,13.8752c0,6.7584 -0.0512,6.8096 -6.656,6.4512c-10.7008,-0.6656 -16.8448,-3.328 -38.7584,-16.896c-18.8928,-11.6736 -30.0544,-17.1008 -45.9264,-22.3744l-8.9088,-2.9184l2.304,-1.5872c8.6528,-5.9392 19.8144,-25.9584 21.9648,-39.424c1.536,-9.3696 -2.2528,-20.0192 -9.984,-28.1088c-12.3904,-13.1072 -29.4912,-16.4352 -41.9328,-8.192c-11.8272,7.8848 -20.0192,22.1184 -22.3232,38.9632c-1.3824,9.8304 -0.256,22.3744 2.4576,28.2624l1.4848,3.1232l-16.2304,0.3072c-16.7424,0.3584 -25.2416,1.1264 -36.9152,3.4304c-7.424,1.4848 -20.1728,4.8128 -26.5728,6.9632c-10.24,3.3792 -25.0368,10.1376 -33.536,15.3088c-1.9968,1.1776 -4.096,2.4064 -4.6592,2.7136c-0.5632,0.256 -8.1408,2.048 -16.896,3.9424c-18.9952,4.096 -24.576,5.376 -33.024,7.7312c-21.6064,6.0416 -34.7136,12.544 -44.544,22.016c-2.56,2.4576 -4.608,4.2496 -4.608,4.0448c0,-1.024 2.8672,-11.4688 5.2224,-18.944c4.352,-13.8752 12.4928,-31.488 20.1728,-43.52l3.2768,-5.12l-2.1504,-1.9456c-2.6112,-2.4064 -8.3456,-5.1712 -12.4416,-6.0416c-4.9152,-1.024 -14.7968,-0.7168 -24.7808,0.768c-4.9152,0.7168 -9.0624,1.1776 -9.216,1.024c-0.4608,-0.4096 11.5712,-11.9808 18.3808,-17.7152c24.9856,-20.8896 54.016,-34.048 71.4752,-32.4096c3.6352,0.3072 3.7376,0.3072 4.9152,-1.1264c2.8672,-3.5328 12.3392,-12.9024 16.7936,-16.64c20.3776,-17.1008 48.1792,-32.1024 77.824,-42.0352c10.8544,-3.584 31.744,-8.192 43.52,-9.5232c2.6624,-0.3072 5.6832,-0.6656 6.656,-0.768c0.9728,-0.1024 8.8064,-0.1536 17.408,-0.0512c12.4416,0.1536 16.9472,0.3584 22.272,1.1776z" fill="#565252"/><path d="M401.664,164.09475c10.2912,2.7136 20.1216,11.3152 23.3472,20.48c1.6384,4.7616 1.8432,11.3152 0.512,16.64c-1.9968,7.9872 -10.0864,22.6816 -15.4112,28.16c-3.2768,3.3792 -4.3008,3.2768 -1.3312,-0.1024c6.4512,-7.3728 9.728,-21.5552 7.2192,-31.3856c-3.2768,-12.8512 -11.9296,-19.712 -24.832,-19.712c-7.8336,0 -13.9264,1.8944 -19.6608,6.0416c-2.3552,1.6896 -2.4576,1.7408 -2.0992,0.6144c1.536,-4.8128 9.6256,-14.7456 14.6944,-17.9712c5.376,-3.4816 11.264,-4.4032 17.5616,-2.7648z" fill="#ffffff"/><path d="M386.3552,194.25155c2.9696,1.3824 4.608,3.1744 5.3248,5.9904c1.4848,5.4272 -2.7648,10.3936 -9.472,11.0592c-6.1952,0.6656 -11.52,-3.6864 -11.52,-9.4208c0,-6.6048 8.7552,-10.8544 15.6672,-7.6288z" fill="#057d7f"/><path d="M411.136,207.97315c-0.0512,11.0592 -4.9152,19.456 -13.6704,23.6032c-2.8672,1.3312 -4.096,1.6384 -6.8096,1.5872c-5.1712,0 -12.8512,-1.024 -15.2576,-1.9968c-2.816,-1.1264 -5.8368,-4.608 -6.912,-7.9872c-1.024,-3.1232 -1.1264,-10.24 -0.2048,-12.4416l0.6656,-1.4848l1.9968,2.6624c2.56,3.3792 7.8336,7.424 11.52,8.8064c4.2496,1.6384 9.8816,1.2288 14.2848,-1.024c4.352,-2.2016 8.6016,-6.5536 11.264,-11.4688c1.2288,-2.1504 2.4064,-3.9424 2.6624,-3.9424c0.256,0 0.4608,1.6896 0.4608,3.6864z" fill="#ffffff"/><path d="M369.664,239.15395c20.1216,1.5872 41.9328,6.4 55.808,12.2368c13.568,5.7344 18.5344,8.3456 36.864,19.5584c19.0976,11.6736 25.7024,14.6432 35.5328,16.0256c2.7648,0.4096 5.1712,0.8704 5.376,1.024c0.512,0.5632 -3.072,3.328 -6.3488,4.9152c-6.4512,3.072 -18.1248,4.9152 -27.136,4.3008c-24.1152,-1.7408 -41.472,-13.1584 -63.488,-41.7792l-4.096,-5.3248l-0.1536,13.056c-0.2048,18.688 1.1776,27.0848 6.0928,37.12c6.2976,12.9024 16.7424,18.7904 28.2624,15.872c1.9456,-0.4608 3.6352,-0.768 3.7376,-0.6144c0.512,0.512 -3.8912,4.4544 -6.4,5.7344c-8.5504,4.3008 -20.0192,-1.8432 -35.328,-18.8928c-3.1744,-3.584 -6.4,-6.8096 -7.168,-7.168c-4.864,-2.5088 -20.5312,-6.4 -30.9248,-7.7312c-16.8448,-2.1504 -43.8272,0.7168 -63.7952,6.7584c-14.7456,4.4544 -26.112,8.7552 -34.8672,13.2608c-24.6272,12.5952 -43.008,33.5872 -51.1488,58.3168c-10.0352,30.72 -6.656,59.904 9.5744,82.6368c13.7728,19.3024 37.3248,35.072 67.6352,45.4144c0.4096,0.1024 0.6144,0.3072 0.512,0.4096c-0.3072,0.3584 -10.4448,-1.5872 -17.3568,-3.328c-16.7424,-4.1472 -35.072,-13.3632 -49.408,-24.8832c-9.6768,-7.7824 -19.8144,-19.1488 -26.2144,-29.3888c-7.0656,-11.3152 -12.9024,-26.7776 -15.2064,-40.448c-1.8432,-10.8032 -1.9968,-32.3072 -0.256,-40.3968c0.6144,-3.0208 4.864,-14.2336 7.7312,-20.48c2.4576,-5.3248 8.0896,-15.5648 11.3664,-20.6336c6.4,-9.9328 23.9616,-28.8768 36.9664,-39.8848c12.3904,-10.496 32.2048,-20.9408 51.0976,-26.9824c25.9072,-8.2944 52.7872,-11.1104 82.7392,-8.704z" fill="#565252"/><path d="M412.3136,272.84355c7.8848,9.2672 19.8144,18.688 29.952,23.6544c6.7584,3.328 6.5024,2.9696 5.2224,6.3488c-0.6144,1.6384 -2.048,2.6112 -6.912,4.9664c-4.4032,2.0992 -4.8128,2.2016 -9.472,2.2016c-4.0448,0 -5.2736,-0.2048 -7.2192,-1.1776c-6.8096,-3.328 -11.9808,-12.544 -14.5408,-25.7024c-0.8192,-4.4032 -1.6384,-14.848 -1.1776,-14.848c0.1536,0 1.9968,2.048 4.1472,4.5568z" fill="#ff0000"/><path d="M226.56,273.56035c-10.9568,9.728 -18.5856,17.92 -26.88,28.7744c-2.3552,3.072 -5.4272,6.9632 -6.8608,8.6528l-2.56,3.0208l-5.1712,-0.3072c-18.0224,-1.1264 -34.56,-5.9392 -34.56,-10.0352c0,-1.3312 4.352,-5.9392 8.8064,-9.3184c5.4272,-4.0448 16.5376,-9.4208 26.2656,-12.6976c7.424,-2.5088 24.064,-6.8608 36.096,-9.472c3.2256,-0.6656 6.3488,-1.3824 6.912,-1.4848c0.5632,-0.1536 1.1264,-0.256 1.28,-0.256c0.1536,-0.0512 -1.3312,1.3824 -3.328,3.1232z" fill="#ffffff"/><path d="M327.8336,301.15715c11.4176,13.568 15.2576,20.1216 13.056,22.3232c-1.5872,1.5872 -14.0288,0.5632 -40.9088,-3.4304c-13.056,-1.9456 -25.856,-3.1232 -34.3552,-3.1232c-3.6864,0 -6.5536,-0.2048 -6.5536,-0.4608c0,-0.768 10.752,-6.0416 18.3296,-9.0112c11.3664,-4.4032 23.6032,-8.0384 35.3792,-10.496c10.4448,-2.2016 9.3696,-2.5088 15.0528,4.1984z" fill="#ffffff"/><path d="M146.1248,308.88835c1.8432,2.5088 5.376,4.5056 12.1344,6.7072c6.656,2.2528 15.5648,3.84 23.6544,4.2496c3.2768,0.1536 5.9904,0.4096 5.9904,0.4608c0,0.1024 -1.1264,2.304 -2.5088,4.9152c-5.9904,11.264 -10.8032,23.7568 -12.1856,31.5904c-1.28,7.2192 -1.28,29.8496 0,37.7856c2.1504,13.4656 5.7344,24.6272 11.3664,35.7376c6.1952,12.2368 12.032,20.4288 22.272,31.1808c10.2912,10.8544 26.6752,22.016 41.8304,28.5696c18.3808,7.8848 36.5568,11.6736 56.2176,11.6736c16.0768,0 30.8224,-2.6624 39.7824,-7.2192c4.864,-2.4576 7.936,-4.3008 25.4976,-15.4112c7.5264,-4.8128 17.0496,-9.5744 22.7328,-11.4176c3.7376,-1.1776 6.9632,-1.6384 6.9632,-1.024c0,1.28 -2.7136,4.6592 -8.6528,10.8032c-7.424,7.7312 -10.2912,11.8784 -12.4928,17.92c-1.7408,4.9664 -2.048,8.192 -1.1776,12.3904c0.9216,4.3008 2.2016,7.0144 7.5776,15.3088c2.2528,3.4816 4.9152,8.1408 5.9392,10.2912c1.792,3.7376 1.8944,4.1984 1.8944,9.0624c0,4.9152 -0.1024,5.3248 -2.2016,10.24c-5.0688,11.6736 -5.4272,12.9024 -5.4272,18.176c0,4.0448 0.3584,6.2976 2.0992,13.312c2.9696,11.7248 3.9424,17.92 2.9184,17.92c-2.304,0 -10.9056,-9.1648 -16.384,-17.408c-4.1984,-6.4 -11.1616,-19.712 -14.9504,-28.7232c-1.1264,-2.6624 -3.3792,-7.936 -4.9664,-11.7248c-6.656,-15.6672 -11.9808,-25.088 -17.408,-30.5152c-4.3008,-4.352 -6.8608,-5.6832 -13.1072,-6.912c-6.0928,-1.2288 -16.64,-1.3824 -32.5632,-0.512c-20.1216,1.1264 -34.6624,-1.4336 -56.1664,-9.984c-19.0976,-7.5776 -28.1088,-13.1072 -43.52,-26.8288c-12.9536,-11.4688 -25.3952,-28.7232 -33.9968,-47.104c-12.0832,-25.9072 -16.9472,-50.7904 -16.3328,-84.0192c0.1536,-10.24 0.512,-16.0768 1.3312,-21.7088c1.28,-9.216 1.5872,-10.752 2.048,-10.1376c0.2048,0.2048 1.024,1.28 1.792,2.3552z" fill="#000000"/><path d="M523.4688,364.28675c-19.0464,2.9184 -33.1776,11.1104 -44.1344,25.6512c-4.864,6.4512 -8.0384,12.6464 -10.5472,20.6848c-2.7648,8.7552 -3.5328,14.2336 -3.1744,22.784c0.1536,3.9424 0.4608,8.448 0.6144,9.984l0.3072,2.816l-4.7616,3.2768c-10.9568,7.5264 -17.408,13.1584 -21.1456,18.6368c-4.608,6.7584 -5.9904,15.2064 -3.5328,22.1184c1.1264,3.328 5.1712,8.704 8.1408,10.9056c4.9664,3.6864 14.3872,6.912 22.1696,7.68l3.7376,0.3584l0.1536,3.328c0.3072,6.5024 1.6896,12.8512 3.7376,16.896c1.6384,3.328 2.2528,4.0448 4.608,5.4784c3.5328,2.0992 6.5536,2.4576 11.3664,1.4848c5.8368,-1.2288 14.5408,-5.7856 22.9376,-12.0832c1.6896,-1.2288 1.9968,-1.28 9.984,-1.28c4.5568,0 9.8304,0.3072 11.7248,0.6656c6.7072,1.2288 20.8896,5.7856 20.8896,6.7072c0,0.2048 -1.4336,1.3824 -3.1744,2.6112c-5.4784,3.84 -11.5712,9.1136 -13.1584,11.4688c-2.2016,3.1744 -2.9696,6.2976 -2.048,8.2432c1.8944,3.9936 7.9872,5.7344 30.4128,8.704c16.7936,2.304 23.9104,3.9936 31.7952,7.68c3.3792,1.536 5.0688,2.6624 6.0928,4.0448c2.2016,2.8672 5.2736,11.008 7.0656,18.7392c1.536,6.6048 1.5872,7.3728 1.5872,18.176c0.0512,12.4416 -0.512,16.5376 -3.328,25.344c-7.424,22.9888 -23.7568,39.3216 -47.0528,47.0016c-10.7008,3.5328 -19.6608,4.7616 -34.5088,4.7616c-5.888,0 -11.52,-0.2048 -12.544,-0.3584c-2.1504,-0.4096 -7.8336,-3.1744 -11.52,-5.632c-3.2256,-2.1504 -8.2944,-8.0384 -14.9504,-17.3568c-5.7856,-8.192 -14.592,-17.4592 -19.6096,-20.6848l-3.2256,-2.0992l-1.4848,1.024c-0.768,0.5632 -1.8944,1.8432 -2.5088,2.8672c-1.4848,2.3552 -1.2288,6.4 0.7168,10.9568c5.0176,11.7248 5.1712,12.1344 5.1712,18.176c0,7.168 -0.0512,7.2704 -10.24,17.664c-8.0384,8.1408 -9.2672,9.8816 -10.8032,15.104c-0.7168,2.56 -0.8192,4.2496 -0.5632,9.984c0.512,11.0592 -0.3584,14.4896 -6.1952,23.8592c-5.5296,8.9088 -6.7584,13.1584 -5.0176,17.3056c0.7168,1.7408 0.9728,1.9456 2.2016,1.6384c0.8192,-0.2048 3.1232,-1.1264 5.1712,-2.0992c10.5472,-4.9664 20.2752,-14.2848 35.9424,-34.56c9.4208,-12.1856 16.64,-19.6608 21.0944,-21.9136c4.5568,-2.2528 11.4176,-1.28 23.296,3.2768c10.3424,3.9936 12.544,4.7104 17.8176,5.888c8.704,1.9456 22.8864,1.8432 36.096,-0.3584c23.4496,-3.8912 47.5648,-18.6368 65.792,-40.3456c13.2096,-15.8208 23.552,-34.3552 30.6176,-55.0912c3.2768,-9.5232 5.6832,-19.4048 7.7824,-31.488c3.7888,-22.3232 3.7888,-39.7824 -0.0512,-63.0784c-0.3072,-2.048 -0.256,-2.1504 1.0752,-2.5088c1.9456,-0.512 7.2704,0.0512 10.24,1.0752c1.4336,0.4608 6.6048,2.7648 11.52,5.12c10.5472,5.0176 13.824,6.1952 13.824,5.0688c0,-1.28 -5.632,-15.0528 -8.7552,-21.4528c-6.7584,-13.8752 -14.4896,-25.0368 -23.7568,-34.3552c-7.7312,-7.7824 -14.08,-12.0832 -20.6848,-14.08c-1.3824,-0.4096 -2.3552,-1.024 -2.5088,-1.5872c-0.4608,-1.8432 -5.6832,-12.7488 -8.0384,-16.896c-8.96,-15.616 -22.272,-31.6928 -36.096,-43.4688c-19.7632,-16.896 -41.7792,-27.8016 -64.256,-31.744c-7.9872,-1.3824 -25.344,-1.792 -32.3072,-0.7168z" fill="#000000"/><path d="M550.7584,369.40675c14.848,1.9456 30.72,7.6288 44.4928,15.872c13.056,7.8848 20.1728,13.4656 31.4368,24.7808c9.8816,9.8816 16.5888,18.432 24.4736,31.0272c2.0992,3.4304 7.7312,15.2576 8.6016,18.2272c0.8192,2.7648 1.3312,3.2768 3.7888,3.7376c1.024,0.1536 3.4816,1.1264 5.5296,2.0992c12.1856,5.8368 25.6,20.9408 35.84,40.3456c3.7376,7.0144 7.3728,15.2064 6.7584,15.2064c-0.2048,0 -3.0208,-1.3312 -6.2976,-3.0208c-8.7552,-4.4544 -11.9296,-5.4272 -17.7664,-5.376c-3.84,0 -5.376,0.256 -7.3728,1.1264c-2.816,1.28 -2.7136,0.1024 -1.1264,9.8304c1.8944,11.6736 2.4576,20.3264 2.1504,33.28c-0.1536,6.912 -0.4608,13.4144 -0.6144,14.4896l-0.3072,1.9968l-2.2016,-4.5568c-6.144,-12.8 -16.6912,-21.9648 -45.0048,-39.1168c-9.4208,-5.6832 -9.7792,-5.9392 -13.4144,-10.4448c-4.0448,-5.0176 -11.776,-12.8 -17.152,-17.2544c-4.7104,-3.9424 -15.5648,-11.0592 -21.9648,-14.4384c-6.2464,-3.2768 -14.5408,-6.6048 -23.3984,-9.3184c-3.4816,-1.0752 -6.2976,-2.1504 -6.2976,-2.3552c0,-0.2048 0.768,-1.4336 1.7408,-2.6624c2.2016,-2.8672 3.9424,-6.6048 5.888,-12.4416c5.5296,-16.384 3.7376,-34.048 -4.4032,-44.0832c-9.984,-12.288 -33.1776,-5.3248 -41.0112,12.3392c-1.6384,3.7376 -2.3552,7.8336 -2.3552,14.1824c0,9.728 2.56,21.8112 5.5808,26.2144l1.3312,1.9456h-1.4336c-3.8912,0.0512 -14.7456,1.0752 -18.8416,1.792c-7.6288,1.3312 -19.6096,4.5568 -28.672,7.7312c-3.4304,1.1776 -9.728,2.6624 -13.9264,3.2768c-6.912,1.024 -14.9504,-0.6656 -14.2848,-2.9696c0.1024,-0.4608 0.4096,-1.6896 0.6144,-2.6624c0.1536,-0.9728 1.1264,-3.3792 2.0992,-5.3248c2.048,-4.0448 8.1408,-10.496 13.4144,-14.1824c1.792,-1.2288 5.6832,-3.9424 8.6528,-5.9904c2.9696,-2.048 5.6832,-3.9424 5.9904,-4.1984c0.512,-0.4096 0.4608,-1.2288 -0.0512,-3.7376c-0.4096,-1.7408 -0.8704,-6.7584 -1.024,-11.1104c-0.3072,-7.3216 -0.2048,-8.448 1.024,-14.592c2.0992,-10.24 5.7856,-18.7392 11.008,-25.6512c5.632,-7.4752 10.752,-12.0832 18.2784,-16.4864c7.0656,-4.096 15.9232,-6.8096 26.0608,-7.9872c4.5056,-0.512 18.7904,-0.2048 24.1664,0.4608z" fill="#565252"/><path d="M544.5632,415.99875c3.4816,1.024 6.3488,3.6352 8.5504,7.7824c1.9456,3.7376 3.9424,10.496 3.9424,13.4144v1.7408l-1.5872,-2.3552c-2.0992,-3.1744 -4.6592,-5.3248 -8.3968,-7.0656c-7.7824,-3.6352 -13.9264,-2.816 -19.9168,2.6624c-4.4032,4.0448 -7.3728,10.496 -8.5504,18.7904c-0.5632,3.9936 -0.512,5.1712 0.1536,8.6528c0.4608,2.2016 0.9728,4.4544 1.2288,4.9664c0.256,0.6656 0.2048,0.8704 -0.2048,0.6656c-0.3072,-0.2048 -0.9728,-1.792 -1.5872,-3.584c-2.9696,-9.3184 -3.7888,-22.3232 -1.7408,-28.7744c2.6624,-8.3456 9.2672,-14.4896 18.0736,-16.8448c3.6864,-0.9728 6.8608,-1.024 10.0352,-0.0512z" fill="#ffffff"/><path d="M548.864,442.77635c3.4304,2.56 4.5056,6.5536 2.56,9.728c-2.816,4.608 -8.8064,4.9152 -12.4416,0.6144c-1.8944,-2.2528 -2.2016,-4.5056 -0.9728,-7.3216c1.8432,-4.1472 7.2704,-5.632 10.8544,-3.0208z" fill="#057d7f"/><path d="M525.312,447.74275c1.0752,7.0144 4.8128,12.5952 9.5232,14.3872c4.096,1.536 9.8304,0.1024 15.0016,-3.7888l1.7408,-1.28l-0.3072,2.6624c-0.6656,5.6832 -4.5056,11.264 -8.5504,12.3392c-2.7648,0.7168 -11.52,-0.9216 -14.1312,-2.6624c-1.6384,-1.1264 -4.6592,-5.12 -5.5296,-7.3216c-0.8704,-2.2016 -1.2288,-7.1168 -0.8192,-9.8304c0.5632,-3.2768 1.9968,-8.5504 2.304,-8.2432c0.1024,0.1024 0.4608,1.792 0.768,3.7376z" fill="#ffffff"/><path d="M522.752,476.67075c33.2288,2.5088 63.3344,15.36 84.3776,36.0448c12.5952,12.288 18.6368,21.76 26.2656,40.8064c6.0416,15.1552 7.5264,20.5824 8.9088,32.9216c1.28,11.6224 1.4848,20.5824 0.512,25.6512c-1.7408,9.2672 -6.5024,22.8352 -10.8544,30.976c-15.3088,28.4672 -40.3968,46.1824 -71.2192,50.2272c-5.5808,0.7168 -22.9376,0.3584 -23.808,-0.512c-0.4096,-0.4096 0.3584,-0.5632 2.5088,-0.5632c3.4816,0 14.592,-1.6384 19.3024,-2.816c20.0192,-5.12 36.2496,-15.616 46.7456,-30.208c5.5296,-7.7824 11.008,-21.2992 12.6976,-31.488c0.4608,-2.6624 1.0752,-6.0928 1.3312,-7.6288c0.3072,-1.536 0.512,-6.7584 0.512,-11.6224c0,-7.7824 -0.1536,-9.6768 -1.4848,-15.9232c-4.4032,-20.8896 -13.568,-34.8672 -33.0752,-50.4832c-9.2672,-7.424 -17.4592,-12.3904 -28.7232,-17.5104c-11.6224,-5.2224 -21.0944,-7.1168 -34.2528,-6.8096l-7.68,0.1536l-5.888,3.9936c-8.2944,5.6832 -15.5648,9.1648 -20.0192,9.472c-1.8944,0.1024 -4.0448,0.1024 -4.7104,-0.1024c-1.9456,-0.4608 -4.5056,-2.816 -5.5296,-5.1712c-1.3824,-3.072 -1.2288,-3.584 0.7168,-2.0992c3.6352,2.7648 8.8064,3.584 13.2096,2.0992c3.6864,-1.28 9.0624,-5.7344 12.3904,-10.2912c3.5328,-4.8128 7.424,-12.544 9.5232,-18.8928c1.4848,-4.4544 4.6592,-15.0016 4.6592,-15.4624c0,-0.3584 -2.9184,1.792 -6.912,5.0176c-7.3728,5.9904 -18.432,12.4928 -25.2416,14.848c-14.1824,4.864 -30.6176,2.3552 -40.704,-6.2464c-2.304,-1.9968 -4.864,-5.8368 -4.2496,-6.4512c0.1536,-0.1536 1.792,0 3.6352,0.3584c5.9904,1.1264 13.5168,-0.1536 28.416,-4.9152c13.8752,-4.352 23.3472,-6.5536 32.256,-7.3216c7.0144,-0.6144 8.704,-0.6144 16.384,-0.0512z" fill="#565252"/><path d="M508.9792,499.04515c-3.6864,9.472 -10.3424,18.5344 -15.5648,21.1456c-5.2736,2.6624 -9.3696,1.7408 -14.1824,-3.0208c-3.2256,-3.2256 -4.3008,-5.7856 -3.1744,-7.6288c0.256,-0.3584 1.8944,-0.8704 3.7376,-1.1776c1.792,-0.256 4.7616,-0.9728 6.6048,-1.536c4.608,-1.4848 14.336,-6.4 19.5072,-9.8816c2.3552,-1.5872 4.352,-2.6624 4.4544,-2.4064c0.1024,0.256 -0.5632,2.2528 -1.3824,4.5056z" fill="#ff0000"/><path d="M565.7088,534.88515c4.9664,2.7136 12.9024,8.192 18.9952,13.1072c5.1712,4.1472 15.1552,14.0288 14.6944,14.5408c-0.1536,0.1024 -2.2016,-0.3584 -4.5056,-1.0752c-6.8608,-2.0992 -15.1552,-3.6864 -29.1328,-5.6832c-17.152,-2.4064 -23.04,-3.9424 -23.4496,-5.9904c-0.3584,-1.792 7.936,-9.1648 17.8176,-15.9232c1.6896,-1.1776 1.6896,-1.1776 5.5808,1.024z" fill="#ffffff"/><path d="M640.2048,539.74915c20.736,13.2608 29.8496,21.8624 34.2528,32.3072c0.8192,1.9456 1.3312,3.84 1.1776,4.1984c-0.1536,0.4096 -1.5872,1.1264 -3.2256,1.5872c-2.3552,0.6656 -4.096,0.768 -8.6016,0.512c-5.9904,-0.3584 -14.1312,-1.792 -16.384,-2.9696c-1.3824,-0.6656 -2.1504,-2.6112 -5.632,-14.4896c-1.792,-6.1952 -5.4272,-15.2064 -8.3968,-20.992c-1.6896,-3.2256 -2.9184,-5.888 -2.6624,-5.888c0.256,0 4.5056,2.6112 9.472,5.7344z" fill="#ffffff"/><path d="M679.424,579.78755c0,0.1024 -0.5632,3.2256 -1.28,7.0144c-3.4816,18.3296 -8.9088,34.048 -17.9712,51.6608c-6.2464,12.0832 -12.544,21.0944 -21.8624,31.3344c-11.1104,12.1344 -20.1728,19.2512 -32.3584,25.4976c-15.4624,7.936 -25.2416,10.3936 -44.0832,11.1104c-12.8,0.4608 -18.3808,-0.6144 -34.4576,-6.6048c-10.6496,-3.9936 -14.1312,-4.9152 -19.2512,-5.12c-4.352,-0.1536 -7.8336,1.28 -12.8512,5.2224c-3.5328,2.8672 -10.8544,10.9568 -16.3328,18.176c-8.0896,10.5984 -15.5648,19.2 -21.9136,25.1392c-5.2736,4.9664 -14.6944,11.1104 -15.616,10.24c-0.512,-0.512 1.4848,-4.8128 5.12,-11.1104c1.9968,-3.4816 4.352,-7.8336 5.2224,-9.6768l1.5872,-3.328v-10.752c0,-14.1824 -0.2048,-13.6704 10.9056,-24.6784c10.1376,-10.0864 10.5984,-10.9568 10.5472,-20.3776c-0.0512,-6.7072 -0.4096,-8.0896 -4.7104,-18.176c-1.1776,-2.6624 -2.1504,-5.632 -2.1504,-6.5536c0,-1.6384 0,-1.6384 1.4336,-0.9216c4.5056,2.4064 10.6496,9.0624 19.2512,20.7872c6.8096,9.3184 11.7248,14.7968 15.36,17.1008c15.36,9.7792 31.6928,13.9776 50.7392,13.056c19.2,-0.9728 36.7104,-7.424 52.8896,-19.6096c8.192,-6.1952 19.712,-18.7392 23.7568,-25.9072c0.7168,-1.28 2.3552,-4.1984 3.6864,-6.5024c6.8608,-11.9808 12.1856,-28.928 12.9024,-40.8576c0.3072,-4.5056 -0.1536,-13.1072 -1.1264,-22.3744l-0.3072,-2.9184l2.304,0.7168c4.9152,1.4848 13.2608,2.4576 18.5344,2.1504c5.888,-0.3584 8.448,-1.024 10.0864,-2.7648c0.9728,-1.024 1.9456,-1.536 1.9456,-0.9728z" fill="#000000"/><path d="M77.2096,379.44195c-6.9632,1.1264 -9.9328,8.192 -6.2464,14.7968c2.2016,3.8912 3.84,4.9152 8.7552,5.3248c6.0928,0.5632 10.496,1.7408 13.6704,3.6352c3.072,1.8432 8.4992,6.2464 8.4992,6.912c0,0.2048 -2.1504,0.4608 -4.8128,0.6144c-4.3008,0.1536 -5.2736,0.4096 -8.2944,1.9456c-4.1472,2.0992 -6.4512,4.864 -7.68,9.1136c-1.5872,5.3248 -0.1024,12.0832 3.84,17.6128c3.2256,4.5056 5.1712,5.5296 11.4176,6.0928c22.4768,2.048 30.6688,5.2736 44.544,17.5616c5.632,4.9664 5.2736,5.0176 5.7856,-1.7408c0.6144,-7.68 -1.0752,-15.4624 -4.864,-23.04c-2.4576,-4.864 -4.3008,-7.424 -9.216,-12.4928c-8.2944,-8.6016 -14.0288,-11.8272 -26.7264,-14.848l-1.3312,-0.3072l0.0512,-5.7344c0.0512,-6.5536 -0.6144,-8.9088 -4.1984,-14.1312c-5.632,-8.192 -14.848,-12.6976 -23.1936,-11.3152z" fill="#000000"/><path d="M87.1424,387.22435c1.5872,0.768 4.0448,2.4576 5.376,3.6864c2.4576,2.2016 4.7616,5.5808 4.1472,6.144c-0.1536,0.1536 -1.6384,-0.256 -3.2768,-0.9216c-3.2768,-1.3824 -6.8096,-2.2016 -11.9296,-2.7136c-2.4576,-0.256 -3.6352,-0.6656 -4.5056,-1.536c-1.4336,-1.4336 -1.5872,-4.0448 -0.3072,-5.4784c1.3824,-1.4848 6.656,-1.0752 10.496,0.8192z" fill="#0000ff"/><path d="M106.0864,417.48355c2.048,0.4096 5.0688,1.2288 6.7072,1.8432c7.3216,2.7648 17.4592,11.4688 21.76,18.7392c2.6112,4.4032 5.0176,10.4448 5.5296,13.7728l0.3584,2.5088l-2.5088,-1.8944c-10.24,-7.8336 -20.224,-11.3152 -36.8128,-12.8512l-8.192,-0.768l-2.1504,-2.3552c-1.536,-1.6896 -2.5088,-3.3792 -3.2256,-5.7344c-1.1776,-3.84 -1.2288,-4.3008 -0.4608,-6.9632c1.6384,-6.0416 8.5504,-8.2944 18.9952,-6.2976z" fill="#0000ff"/><path d="M697.2928,648.65155c-3.6352,0.768 -7.4752,3.072 -10.496,6.3488c-3.1232,3.3792 -4.4544,5.8368 -5.3248,9.9328l-0.5632,2.56l-5.4784,0.256c-9.4208,0.512 -17.664,4.352 -24.9344,11.6736c-4.4544,4.4544 -6.8608,7.8848 -8.6016,12.0832c-1.3312,3.3792 -3.2256,10.2912 -2.8672,10.6496c0.1024,0.1024 2.9696,-1.1264 6.3488,-2.816c3.3792,-1.6384 7.6288,-3.3792 9.472,-3.8912c4.864,-1.28 12.2368,-1.1264 19.8144,0.3584c7.7824,1.4848 9.2672,1.1776 13.2096,-2.7136c3.7888,-3.84 5.632,-7.8848 5.632,-12.3904c-0.0512,-5.376 -2.56,-9.216 -7.2704,-11.0592c-0.768,-0.3072 -1.9968,-0.768 -2.6624,-1.024l-1.28,-0.512l1.536,-0.9216c4.7104,-2.8672 9.9328,-3.6864 15.7184,-2.56c3.4304,0.7168 4.864,0.4096 7.0656,-1.4336c3.3792,-2.8672 4.4544,-7.8336 2.3552,-10.9568c-1.9968,-3.0208 -7.0144,-4.5568 -11.6736,-3.584z" fill="#000000"/><path d="M703.4368,653.87395c2.0992,0.7168 2.6112,2.6112 1.2288,4.4544c-0.8704,1.1264 -1.3824,1.3824 -3.0208,1.2288c-1.1264,-0.0512 -4.352,-0.1536 -7.2192,-0.256c-2.9184,-0.0512 -5.2736,-0.256 -5.2736,-0.4096c0,-0.1536 0.512,-0.7168 1.1776,-1.28c3.9936,-3.584 9.2672,-5.0688 13.1072,-3.7376z" fill="#0000ff"/><path d="M681.728,673.58595c3.7376,0.9216 5.12,1.792 6.4,3.9424c1.3312,2.1504 1.28,4.9152 -0.0512,7.7824c-1.28,2.6624 -5.2224,6.4 -6.8096,6.4c-0.6144,0 -3.328,-0.4608 -6.0416,-1.024c-10.5472,-2.1504 -16.5888,-1.8432 -24.6784,1.0752c-2.2528,0.8192 -4.1472,1.3824 -4.3008,1.28c-0.5632,-0.6144 4.1472,-7.168 7.6288,-10.5472c8.0896,-7.936 18.6368,-11.3152 27.8528,-8.9088z" fill="#0000ff"/></g></g></g></svg>