<?xml version="1.0" standalone="no"?>
<!DOCTYPE svg PUBLIC "-//W3C//DTD SVG 20010904//EN"
 "http://www.w3.org/TR/2001/REC-SVG-20010904/DTD/svg10.dtd">
<svg version="1.0" xmlns="http://www.w3.org/2000/svg"
 width="1500.000000pt" height="1374.000000pt" viewBox="0 0 1500.000000 1374.000000"
 preserveAspectRatio="xMidYMid meet">
<metadata>
Created by potrace 1.14, written by Peter Selinger 2001-2017
</metadata>
<g transform="translate(0.000000,1374.000000) scale(0.100000,-0.100000)"
fill="#000000" stroke="none">
<path fill="#000000" stroke="none" d="M7165 13059 c-1015 -77 -2089 -544
-2792 -1213 -50 -47 -101 -101 -114 -121 -23 -33 -27 -35 -84 -35 -403 -1
-905 -228 -1417 -641 -110 -89 -498 -471 -567 -558 l-35 -44 155 6 c84 3 235
17 334 31 205 29 369 33 463 11 72 -17 122 -40 122 -57 0 -6 -29 -61 -64 -122
-237 -411 -378 -799 -476 -1310 -46 -244 -63 -443 -63 -761 0 -252 3 -327 22
-470 55 -433 155 -778 331 -1143 163 -337 313 -553 560 -806 183 -188 293
-282 453 -387 222 -147 429 -244 762 -355 358 -119 552 -144 976 -124 478 23
630 3 748 -95 44 -38 151 -202 215 -331 30 -60 108 -235 174 -389 131 -309
186 -423 270 -565 120 -201 291 -397 426 -487 80 -54 103 -52 148 12 58 83 55
181 -12 425 -22 78 -45 177 -51 219 -14 93 -2 148 70 320 67 158 84 223 85
311 1 113 -29 193 -147 383 -139 225 -167 286 -167 362 0 138 63 248 254 445
155 160 192 219 184 300 -3 32 -15 64 -33 90 -24 35 -33 40 -65 40 -88 0 -354
-100 -533 -201 -51 -29 -180 -109 -287 -179 -332 -217 -448 -267 -703 -300
-103 -14 -146 -8 -382 52 -492 125 -869 299 -1170 543 -506 409 -724 1003
-595 1623 57 272 188 561 356 785 67 89 242 265 287 288 53 28 223 49 393 49
157 0 336 -17 590 -55 548 -83 715 -101 824 -90 144 15 199 77 177 199 -16 93
-97 221 -260 414 -48 57 -67 86 -60 93 17 17 313 23 482 10 160 -12 326 -42
471 -85 157 -45 171 -54 251 -146 225 -261 431 -416 596 -450 126 -27 254 6
343 86 88 79 192 246 252 402 19 48 22 49 118 26 40 -9 141 -17 260 -21 291
-8 413 18 568 121 95 63 157 127 192 201 85 174 79 360 -19 556 -71 141 -137
230 -365 489 l-89 101 32 57 c94 170 156 333 188 491 26 126 25 463 -1 581
-43 198 -127 399 -233 558 -111 168 -331 370 -529 488 -295 176 -719 308
-1154 359 -167 19 -505 27 -665 14z"/>
<path fill="#ffffff" stroke="none" d="M7905 12912 c400 -62 758 -179 1014
-331 146 -87 237 -158 345 -272 184 -194 306 -423 362 -679 28 -128 26 -440
-4 -565 -43 -182 -120 -367 -209 -501 -19 -29 -33 -57 -32 -63 2 -5 85 -103
184 -216 183 -210 241 -289 299 -405 56 -110 70 -165 71 -271 0 -132 -1 -133
-130 -126 -209 13 -329 65 -757 330 -369 228 -587 334 -897 437 l-174 57 45
31 c169 116 387 507 429 770 30 183 -44 391 -195 549 -242 256 -576 321 -819
160 -231 -154 -391 -432 -436 -761 -27 -192 -5 -437 48 -552 l29 -61 -317 -6
c-327 -7 -493 -22 -721 -67 -145 -29 -394 -94 -519 -136 -200 -66 -489 -198
-655 -299 -39 -23 -80 -47 -91 -53 -11 -5 -159 -40 -330 -77 -371 -80 -480
-105 -645 -151 -422 -118 -678 -245 -870 -430 -50 -48 -90 -83 -90 -79 0 20
56 224 102 370 85 271 244 615 394 850 l64 100 -42 38 c-51 47 -163 101 -243
118 -96 20 -289 14 -484 -15 -96 -14 -177 -23 -180 -20 -9 8 226 234 359 346
488 408 1055 665 1396 633 71 -6 73 -6 96 22 56 69 241 252 328 325 398 334
941 627 1520 821 212 70 620 160 850 186 52 6 111 13 130 15 19 2 172 3 340 1
243 -3 331 -7 435 -23z"/>
<path fill="#ffffff" stroke="none" d="M7845 11765 c201 -53 393 -221 456
-400 32 -93 36 -221 10 -325 -39 -156 -197 -443 -301 -550 -64 -66 -84 -64
-26 2 126 144 190 421 141 613 -64 251 -233 385 -485 385 -153 0 -272 -37
-384 -118 -46 -33 -48 -34 -41 -12 30 94 188 288 287 351 105 68 220 86 343
54z"/>
<path fill="#ffffff" stroke="none" d="M7546 11176 c58 -27 90 -62 104 -117
29 -106 -54 -203 -185 -216 -121 -13 -225 72 -225 184 0 129 171 212 306 149z"/>
<path fill="#ffffff" stroke="none" d="M8030 10908 c-1 -216 -96 -380 -267
-461 -56 -26 -80 -32 -133 -31 -101 0 -251 20 -298 39 -55 22 -114 90 -135
156 -20 61 -22 200 -4 243 l13 29 39 -52 c50 -66 153 -145 225 -172 83 -32
193 -24 279 20 85 43 168 128 220 224 24 42 47 77 52 77 5 0 9 -33 9 -72z"/>
<path fill="#ffffff" stroke="none" d="M7220 10299 c393 -31 819 -125 1090
-239 265 -112 362 -163 720 -382 373 -228 502 -286 694 -313 54 -8 101 -17
105 -20 10 -11 -60 -65 -124 -96 -126 -60 -354 -96 -530 -84 -471 34 -810 257
-1240 816 l-80 104 -3 -255 c-4 -365 23 -529 119 -725 123 -252 327 -367 552
-310 38 9 71 15 73 12 10 -10 -76 -87 -125 -112 -167 -84 -391 36 -690 369
-62 70 -125 133 -140 140 -95 49 -401 125 -604 151 -329 42 -856 -14 -1246
-132 -288 -87 -510 -171 -681 -259 -481 -246 -840 -656 -999 -1139 -196 -600
-130 -1170 187 -1614 269 -377 729 -685 1321 -887 8 -2 12 -6 10 -8 -6 -7
-204 31 -339 65 -327 81 -685 261 -965 486 -189 152 -387 374 -512 574 -138
221 -252 523 -297 790 -36 211 -39 631 -5 789 12 59 95 278 151 400 48 104
158 304 222 403 125 194 468 564 722 779 242 205 629 409 998 527 506 162
1031 217 1616 170z"/>
<path fill="#ffffff" stroke="none" d="M8053 9641 c154 -181 387 -365 585
-462 132 -65 127 -58 102 -124 -12 -32 -40 -51 -135 -97 -86 -41 -94 -43 -185
-43 -79 0 -103 4 -141 23 -133 65 -234 245 -284 502 -16 86 -32 290 -23 290 3
0 39 -40 81 -89z"/>
<path fill="#ffffff" stroke="none" d="M4425 9627 c-214 -190 -363 -350 -525
-562 -46 -60 -106 -136 -134 -169 l-50 -59 -101 6 c-352 22 -675 116 -675 196
0 26 85 116 172 182 106 79 323 184 513 248 145 49 470 134 705 185 63 13 124
27 135 29 11 3 22 5 25 5 3 1 -26 -27 -65 -61z"/>
<path fill="#ffffff" stroke="none" d="M6403 9088 c223 -265 298 -393 255
-436 -31 -31 -274 -11 -799 67 -255 38 -505 61 -671 61 -72 0 -128 4 -128 9 0
15 210 118 358 176 222 86 461 157 691 205 204 43 183 49 294 -82z"/>
<path fill="#ffffff" stroke="none" d="M2854 8937 c36 -49 105 -88 237 -131
130 -44 304 -75 462 -83 64 -3 117 -8 117 -9 0 -2 -22 -45 -49 -96 -117 -220
-211 -464 -238 -617 -25 -141 -25 -583 0 -738 42 -263 112 -481 222 -698 121
-239 235 -399 435 -609 201 -212 521 -430 817 -558 359 -154 714 -228 1098
-228 314 0 602 52 777 141 95 48 155 84 498 301 147 94 333 187 444 223 73 23
136 32 136 20 0 -25 -53 -91 -169 -211 -145 -151 -201 -232 -244 -350 -34 -97
-40 -160 -23 -242 18 -84 43 -137 148 -299 44 -68 96 -159 116 -201 35 -73 37
-82 37 -177 0 -96 -2 -104 -43 -200 -99 -228 -106 -252 -106 -355 0 -79 7
-123 41 -260 58 -229 77 -350 57 -350 -45 0 -213 179 -320 340 -82 125 -218
385 -292 561 -22 52 -66 155 -97 229 -130 306 -234 490 -340 596 -84 85 -134
111 -256 135 -119 24 -325 27 -636 10 -393 -22 -677 28 -1097 195 -373 148
-549 256 -850 524 -253 224 -496 561 -664 920 -236 506 -331 992 -319 1641 3
200 10 314 26 424 25 180 31 210 40 198 4 -4 20 -25 35 -46z"/>
<path fill="#000000" stroke="none" d="M10224 7855 c-372 -57 -648 -217 -862
-501 -95 -126 -157 -247 -206 -404 -54 -171 -69 -278 -62 -445 3 -77 9 -165
12 -195 l6 -55 -93 -64 c-214 -147 -340 -257 -413 -364 -90 -132 -117 -297
-69 -432 22 -65 101 -170 159 -213 97 -72 281 -135 433 -150 l73 -7 3 -65 c6
-127 33 -251 73 -330 32 -65 44 -79 90 -107 69 -41 128 -48 222 -29 114 24
284 113 448 236 33 24 39 25 195 25 89 0 192 -6 229 -13 131 -24 408 -113 408
-131 0 -4 -28 -27 -62 -51 -107 -75 -226 -178 -257 -224 -43 -62 -58 -123 -40
-161 37 -78 156 -112 594 -170 328 -45 467 -78 621 -150 66 -30 99 -52 119
-79 43 -56 103 -215 138 -366 30 -129 31 -144 31 -355 1 -243 -10 -323 -65
-495 -145 -449 -464 -768 -919 -918 -209 -69 -384 -93 -674 -93 -115 0 -225 4
-245 7 -42 8 -153 62 -225 110 -63 42 -162 157 -292 339 -113 160 -285 341
-383 404 l-63 41 -29 -20 c-15 -11 -37 -36 -49 -56 -29 -46 -24 -125 14 -214
98 -229 101 -237 101 -355 0 -140 -1 -142 -200 -345 -157 -159 -181 -193 -211
-295 -14 -50 -16 -83 -11 -195 10 -216 -7 -283 -121 -466 -108 -174 -132 -257
-98 -338 14 -34 19 -38 43 -32 16 4 61 22 101 41 206 97 396 279 702 675 184
238 325 384 412 428 89 44 223 25 455 -64 202 -78 245 -92 348 -115 170 -38
447 -36 705 7 458 76 929 364 1285 788 258 309 460 671 598 1076 64 186 111
379 152 615 74 436 74 777 -1 1232 -6 40 -5 42 21 49 38 10 142 -1 200 -21 28
-9 129 -54 225 -100 206 -98 270 -121 270 -99 0 25 -110 294 -171 419 -132
271 -283 489 -464 671 -151 152 -275 236 -404 275 -27 8 -46 20 -49 31 -9 36
-111 249 -157 330 -175 305 -435 619 -705 849 -386 330 -816 543 -1255 620
-156 27 -495 35 -631 14z"/>
<path fill="#ffffff" stroke="none" d="M10757 7755 c290 -38 600 -149 869
-310 255 -154 394 -263 614 -484 193 -193 324 -360 478 -606 41 -67 151 -298
168 -356 16 -54 26 -64 74 -73 20 -3 68 -22 108 -41 238 -114 500 -409 700
-788 73 -137 144 -297 132 -297 -4 0 -59 26 -123 59 -171 87 -233 106 -347
105 -75 0 -105 -5 -144 -22 -55 -25 -53 -2 -22 -192 37 -228 48 -397 42 -650
-3 -135 -9 -262 -12 -283 l-6 -39 -43 89 c-120 250 -326 429 -879 764 -184
111 -191 116 -262 204 -79 98 -230 250 -335 337 -92 77 -304 216 -429 282
-122 64 -284 129 -457 182 -68 21 -123 42 -123 46 0 4 15 28 34 52 43 56 77
129 115 243 108 320 73 665 -86 861 -195 240 -648 104 -801 -241 -32 -73 -46
-153 -46 -277 0 -190 50 -426 109 -512 l26 -38 -28 0 c-76 -1 -288 -21 -368
-35 -149 -26 -383 -89 -560 -151 -67 -23 -190 -52 -272 -64 -135 -20 -292 13
-279 58 2 9 8 33 12 52 3 19 22 66 41 104 40 79 159 205 262 277 35 24 111 77
169 117 58 40 111 77 117 82 10 8 9 24 -1 73 -8 34 -17 132 -20 217 -6 143 -4
165 20 285 41 200 113 366 215 501 110 146 210 236 357 322 138 80 311 133
509 156 88 10 367 4 472 -9z"/>
<path fill="#ffffff" stroke="none" d="M10636 6845 c68 -20 124 -71 167 -152
38 -73 77 -205 77 -262 l0 -34 -31 46 c-41 62 -91 104 -164 138 -152 71 -272
55 -389 -52 -86 -79 -144 -205 -167 -367 -11 -78 -10 -101 3 -169 9 -43 19
-87 24 -97 5 -13 4 -17 -4 -13 -6 4 -19 35 -31 70 -58 182 -74 436 -34 562 52
163 181 283 353 329 72 19 134 20 196 1z"/>
<path fill="#ffffff" stroke="none" d="M10720 6322 c67 -50 88 -128 50 -190
-55 -90 -172 -96 -243 -12 -37 44 -43 88 -19 143 36 81 142 110 212 59z"/>
<path fill="#ffffff" stroke="none" d="M10260 6225 c21 -137 94 -246 186 -281
80 -30 192 -2 293 74 l34 25 -6 -52 c-13 -111 -88 -220 -167 -241 -54 -14
-225 18 -276 52 -32 22 -91 100 -108 143 -17 43 -24 139 -16 192 11 64 39 167
45 161 2 -2 9 -35 15 -73z"/>
<path fill="#ffffff" stroke="none" d="M10210 5660 c649 -49 1237 -300 1648
-704 246 -240 364 -425 513 -797 118 -296 147 -402 174 -643 25 -227 29 -402
10 -501 -34 -181 -127 -446 -212 -605 -299 -556 -789 -902 -1391 -981 -109
-14 -448 -7 -465 10 -8 8 7 11 49 11 68 0 285 32 377 55 391 100 708 305 913
590 108 152 215 416 248 615 9 52 21 119 26 149 6 30 10 132 10 227 0 152 -3
189 -29 311 -86 408 -265 681 -646 986 -181 145 -341 242 -561 342 -227 102
-412 139 -669 133 l-150 -3 -115 -78 c-162 -111 -304 -179 -391 -185 -37 -2
-79 -2 -92 2 -38 9 -88 55 -108 101 -27 60 -24 70 14 41 71 -54 172 -70 258
-41 72 25 177 112 242 201 69 94 145 245 186 369 29 87 91 293 91 302 0 7 -57
-35 -135 -98 -144 -117 -360 -244 -493 -290 -277 -95 -598 -46 -795 122 -45
39 -95 114 -83 126 3 3 35 0 71 -7 117 -22 264 3 555 96 271 85 456 128 630
143 137 12 170 12 320 1z"/>
<path fill="#ffffff" stroke="none" d="M9941 5223 c-72 -185 -202 -362 -304
-413 -103 -52 -183 -34 -277 59 -63 63 -84 113 -62 149 5 7 37 17 73 23 35 5
93 19 129 30 90 29 280 125 381 193 46 31 85 52 87 47 2 -5 -11 -44 -27 -88z"/>
<path fill="#ffffff" stroke="none" d="M11049 4523 c97 -53 252 -160 371 -256
101 -81 296 -274 287 -284 -3 -2 -43 7 -88 21 -134 41 -296 72 -569 111 -335
47 -450 77 -458 117 -7 35 155 179 348 311 33 23 33 23 109 -20z"/>
<path fill="#ffffff" stroke="none" d="M12504 4428 c405 -259 583 -427 669
-631 16 -38 26 -75 23 -82 -3 -8 -31 -22 -63 -31 -46 -13 -80 -15 -168 -10
-117 7 -276 35 -320 58 -27 13 -42 51 -110 283 -35 121 -106 297 -164 410 -33
63 -57 115 -52 115 5 0 88 -51 185 -112z"/>
<path fill="#ffffff" stroke="none" d="M13270 3646 c0 -2 -11 -63 -25 -137
-68 -358 -174 -665 -351 -1009 -122 -236 -245 -412 -427 -612 -217 -237 -394
-376 -632 -498 -302 -155 -493 -203 -861 -217 -250 -9 -359 12 -673 129 -208
78 -276 96 -376 100 -85 3 -153 -25 -251 -102 -69 -56 -212 -214 -319 -355
-158 -207 -304 -375 -428 -491 -103 -97 -287 -217 -305 -200 -10 10 29 94 100
217 39 68 85 153 102 189 l31 65 0 210 c0 277 -4 267 213 482 198 197 207 214
206 398 -1 131 -8 158 -92 355 -23 52 -42 110 -42 128 0 32 0 32 28 18 88 -47
208 -177 376 -406 133 -182 229 -289 300 -334 300 -191 619 -273 991 -255 375
19 717 145 1033 383 160 121 385 366 464 506 14 25 46 82 72 127 134 234 238
565 252 798 6 88 -3 256 -22 437 l-6 57 45 -14 c96 -29 259 -48 362 -42 115 7
165 20 197 54 19 20 38 30 38 19z"/>
<path fill="#000000" stroke="none" d="M1508 7559 c-136 -22 -194 -160 -122
-289 43 -76 75 -96 171 -104 119 -11 205 -34 267 -71 60 -36 166 -122 166
-135 0 -4 -42 -9 -94 -12 -84 -3 -103 -8 -162 -38 -81 -41 -126 -95 -150 -178
-31 -104 -2 -236 75 -344 63 -88 101 -108 223 -119 439 -40 599 -103 870 -343
110 -97 103 -98 113 34 12 150 -21 302 -95 450 -48 95 -84 145 -180 244 -162
168 -274 231 -522 290 l-26 6 1 112 c1 128 -12 174 -82 276 -110 160 -290 248
-453 221z"/>
<path fill="#ffffff" stroke="none" d="M1702 7407 c31 -15 79 -48 105 -72 48
-43 93 -109 81 -120 -3 -3 -32 5 -64 18 -64 27 -133 43 -233 53 -48 5 -71 13
-88 30 -28 28 -31 79 -6 107 27 29 130 21 205 -16z"/>
<path fill="#ffffff" stroke="none" d="M2072 6816 c40 -8 99 -24 131 -36 143
-54 341 -224 425 -366 51 -86 98 -204 108 -269 l7 -49 -49 37 c-200 153 -395
221 -719 251 l-160 15 -42 46 c-30 33 -49 66 -63 112 -23 75 -24 84 -9 136 32
118 167 162 371 123z"/>
<path fill="#000000" stroke="none" d="M13619 2301 c-71 -15 -146 -60 -205
-124 -61 -66 -87 -114 -104 -194 l-11 -50 -107 -5 c-184 -10 -345 -85 -487
-228 -87 -87 -134 -154 -168 -236 -26 -66 -63 -201 -56 -208 2 -2 58 22 124
55 66 32 149 66 185 76 95 25 239 22 387 -7 152 -29 181 -23 258 53 74 75 110
154 110 242 -1 105 -50 180 -142 216 -15 6 -39 15 -52 20 l-25 10 30 18 c92
56 194 72 307 50 67 -14 95 -8 138 28 66 56 87 153 46 214 -39 59 -137 89
-228 70z"/>
<path fill="#ffffff" stroke="none" d="M13739 2199 c41 -14 51 -51 24 -87 -17
-22 -27 -27 -59 -24 -22 1 -85 3 -141 5 -57 1 -103 5 -103 8 0 3 10 14 23 25
78 70 181 99 256 73z"/>
<path fill="#ffffff" stroke="none" d="M13315 1814 c73 -18 100 -35 125 -77
26 -42 25 -96 -1 -152 -25 -52 -102 -125 -133 -125 -12 0 -65 9 -118 20 -206
42 -324 36 -482 -21 -44 -16 -81 -27 -84 -25 -11 12 81 140 149 206 158 155
364 221 544 174z"/>
</g>
</svg>
