<?xml version="1.0" standalone="no"?>
<!DOCTYPE svg PUBLIC "-//W3C//DTD SVG 20010904//EN"
 "http://www.w3.org/TR/2001/REC-SVG-20010904/DTD/svg10.dtd">
<svg version="1.0" xmlns="http://www.w3.org/2000/svg"
 width="2079.000000pt" height="1483.000000pt" viewBox="0 0 2079.000000 1483.000000"
 preserveAspectRatio="xMidYMid meet">
<metadata>
Created by potrace 1.14, written by Peter Selinger 2001-2017
</metadata>
<g transform="translate(0.000000,1483.000000) scale(0.100000,-0.100000)"
fill="#000000" stroke="none">
<path fill="#000000" stroke="none" d="M7765 13843 c-125 -15 -334 -78 -440
-130 -271 -136 -435 -369 -462 -658 -3 -36 -9 -64 -12 -62 -93 51 -242 114
-318 134 -85 23 -118 26 -248 26 -129 0 -163 -3 -246 -25 -243 -66 -463 -201
-666 -411 -267 -276 -363 -589 -283 -924 10 -44 28 -105 40 -134 11 -30 20
-55 20 -56 0 -2 -24 -3 -52 -3 -88 0 -242 -28 -343 -61 -365 -121 -608 -428
-680 -858 -25 -149 -17 -370 19 -500 46 -164 124 -309 236 -437 28 -31 49 -58
48 -60 -2 -1 -44 -16 -95 -33 -200 -66 -353 -158 -483 -290 -142 -143 -218
-286 -260 -491 -19 -91 -21 -127 -17 -265 6 -192 27 -288 92 -420 103 -212
274 -348 514 -409 50 -12 93 -25 96 -28 3 -2 -13 -29 -36 -59 -63 -84 -136
-242 -165 -354 -62 -249 -33 -510 91 -802 89 -212 263 -419 441 -526 91 -54
233 -108 350 -132 98 -20 284 -29 384 -18 l75 8 17 -85 c35 -172 145 -340 293
-446 189 -134 505 -221 770 -212 l80 3 45 -690 46 -690 -46 -8 c-225 -40 -331
-72 -490 -148 -411 -196 -745 -564 -854 -941 -80 -278 -54 -449 106 -686 322
-477 930 -631 1726 -437 57 14 107 25 111 25 5 0 24 -24 44 -54 135 -204 355
-318 747 -390 253 -46 350 -51 915 -51 567 0 628 4 795 52 294 84 518 320 595
625 32 130 48 317 44 532 -2 97 -4 176 -3 176 1 0 35 -16 76 -35 141 -65 333
-101 469 -89 l66 7 28 -49 c67 -116 178 -248 278 -334 l65 -54 -74 -43 c-150
-88 -242 -217 -266 -375 -29 -193 59 -371 246 -496 123 -82 310 -149 495 -177
176 -27 679 -38 1132 -26 661 18 1454 66 1596 95 240 51 394 151 466 303 30
64 32 74 32 183 0 94 -5 127 -23 182 -64 186 -211 311 -421 356 l-80 17 92 70
c50 38 166 143 256 233 l165 164 71 -6 c143 -13 290 -57 557 -169 192 -80 320
-122 434 -142 275 -48 549 25 845 224 366 246 575 566 635 975 21 141 14 405
-15 546 -88 433 -479 1441 -824 2120 -60 118 -156 306 -212 416 -193 381 -347
824 -396 1137 -23 151 4 422 65 637 60 214 147 361 266 451 65 49 239 135 291
144 l37 7 -9 -44 c-14 -73 -10 -245 7 -311 81 -313 399 -453 991 -433 223 7
202 17 228 -109 19 -96 42 -125 95 -125 20 0 45 6 55 14 17 12 21 12 33 -5 20
-29 86 -59 130 -59 28 0 54 9 88 33 59 40 103 115 144 247 86 276 80 549 -17
810 -159 425 -434 714 -796 835 -138 47 -271 58 -377 31 -151 -38 -299 -144
-394 -284 l-47 -68 -90 -12 c-184 -25 -460 -139 -609 -251 -98 -74 -238 -224
-312 -336 -79 -119 -185 -334 -227 -460 -46 -140 -62 -250 -68 -465 -11 -383
36 -594 230 -1060 102 -245 570 -1289 730 -1631 260 -555 394 -923 469 -1284
79 -381 17 -658 -196 -882 -122 -129 -246 -203 -431 -259 -80 -25 -107 -28
-240 -28 -178 -1 -225 10 -390 89 -116 56 -242 141 -338 228 l-58 52 40 90
c55 129 125 352 155 496 44 216 51 322 37 546 -51 829 -240 1402 -634 1926
-99 131 -231 285 -486 568 -101 112 -220 245 -264 294 -375 424 -994 765
-1706 940 -78 19 -146 37 -151 40 -5 3 33 47 84 98 165 164 264 339 317 563
122 516 -98 951 -623 1234 l-78 42 60 45 c257 193 369 550 294 944 -80 421
-371 670 -862 734 -62 8 -160 15 -218 15 -57 0 -104 3 -104 6 0 3 13 24 29 47
229 334 168 776 -150 1096 -212 213 -496 326 -866 348 l-113 6 0 74 c0 135
-40 280 -111 400 -42 71 -146 177 -221 226 -151 99 -569 153 -770 99 -141 -38
-249 -107 -323 -204 -24 -32 -45 -62 -47 -68 -1 -5 -38 23 -80 64 -125 121
-263 191 -434 221 -80 14 -196 17 -269 8z"/>
<path fill="#ffffff" stroke="none" d="M8090 13641 c144 -46 291 -165 360
-290 50 -92 80 -121 125 -121 49 0 80 33 90 95 17 114 79 216 166 271 133 84
350 94 621 28 82 -20 113 -33 163 -68 159 -114 232 -288 222 -531 -5 -129 0
-158 33 -175 13 -7 95 -13 208 -15 141 -2 209 -8 277 -23 321 -71 548 -237
678 -497 141 -281 84 -555 -167 -798 -69 -68 -80 -83 -80 -113 0 -38 35 -82
69 -86 11 -1 74 4 139 11 158 18 418 9 536 -18 221 -51 370 -137 471 -271 173
-228 195 -662 47 -907 -70 -116 -211 -228 -336 -269 -61 -19 -82 -44 -82 -94
0 -49 25 -69 135 -109 305 -112 550 -310 661 -536 59 -121 77 -216 71 -379 -5
-154 -23 -241 -77 -369 -66 -159 -198 -319 -341 -413 -121 -80 -120 -120 3
-217 133 -104 229 -216 291 -342 64 -130 72 -166 72 -320 0 -127 -3 -147 -28
-220 -60 -171 -187 -354 -318 -458 -88 -70 -201 -129 -306 -159 -106 -30 -328
-32 -451 -4 -77 18 -85 18 -117 3 -27 -13 -36 -25 -45 -59 -83 -315 -274 -609
-509 -786 -95 -72 -249 -152 -367 -191 -238 -79 -511 -82 -730 -7 -180 61
-332 161 -491 322 -100 102 -116 114 -146 114 -53 0 -76 -25 -92 -103 -47
-226 -245 -373 -580 -433 -141 -25 -447 -26 -565 -1 -185 38 -345 148 -410
280 -32 66 -60 176 -60 242 0 73 -52 116 -115 95 -23 -7 -44 -28 -70 -67 -52
-78 -152 -173 -237 -227 -199 -124 -434 -155 -694 -91 -362 88 -564 297 -564
583 0 129 -30 155 -155 133 -38 -7 -128 -15 -200 -18 -276 -11 -503 65 -676
225 -126 117 -217 266 -284 465 -130 389 -52 744 220 995 60 55 77 77 82 105
5 31 1 40 -23 65 -28 28 -33 29 -154 35 -282 13 -477 123 -579 327 -60 120
-76 204 -76 400 0 141 4 176 23 243 27 93 69 180 128 263 131 185 391 328 689
379 73 12 94 20 113 41 36 41 30 81 -20 123 -234 202 -337 359 -384 591 -24
119 -15 329 19 461 51 197 126 329 256 452 92 86 219 155 346 188 89 24 287
31 407 15 66 -8 68 -8 98 22 35 36 38 64 10 112 -104 180 -142 304 -143 470
-1 139 15 209 78 337 145 295 514 573 828 623 101 17 260 8 357 -20 96 -27
249 -107 324 -167 32 -27 69 -57 82 -67 35 -29 89 -26 121 7 l27 26 -12 98
c-16 127 -15 174 3 268 35 182 154 337 330 427 102 52 187 81 313 109 116 25
297 21 392 -10z"/>
<path fill="#ffffff" stroke="none" d="M17550 9397 c117 -40 206 -89 304 -167
177 -140 329 -383 412 -655 26 -84 28 -103 28 -265 0 -158 -3 -185 -27 -273
-34 -127 -74 -217 -87 -197 -6 8 -7 27 -4 42 7 36 -19 82 -55 98 -29 12 -45
11 -82 -4 -11 -5 -24 7 -47 44 -53 85 -75 91 -327 83 -480 -14 -724 57 -812
235 -26 53 -28 66 -28 177 0 66 3 136 8 156 9 46 28 43 92 -13 55 -49 86 -58
156 -47 80 13 157 56 200 113 72 95 94 243 52 337 -43 95 -158 177 -265 187
-26 2 -48 8 -48 11 0 9 56 61 102 95 115 85 263 100 428 43z"/>
<path fill="#ffffff" stroke="none" d="M17096 9057 c54 -28 76 -60 76 -113 0
-64 -26 -118 -68 -140 -33 -18 -36 -18 -62 -2 -158 99 -278 119 -452 77 -102
-24 -258 -98 -356 -167 -232 -165 -375 -500 -423 -992 -33 -337 160 -968 484
-1585 436 -827 866 -1892 961 -2380 25 -126 25 -425 1 -548 -75 -374 -329
-686 -718 -881 -171 -86 -236 -101 -419 -100 -173 1 -221 13 -509 131 -230 94
-355 136 -479 163 -53 12 -98 22 -99 24 -2 2 19 36 45 77 27 41 60 93 72 115
l24 41 80 -65 c318 -259 637 -361 952 -307 104 19 268 71 351 114 212 107 412
324 492 530 107 277 106 498 -5 920 -90 341 -215 662 -477 1221 -107 229 -357
784 -567 1260 -283 642 -327 791 -337 1150 -9 313 24 482 142 728 104 216 239
393 383 503 79 59 229 137 343 177 179 63 487 90 565 49z"/>
<path fill="#ffffff" stroke="none" d="M12635 7554 c512 -165 949 -415 1240
-708 150 -151 632 -690 760 -851 433 -542 619 -1071 676 -1920 16 -242 2 -381
-66 -641 -143 -548 -496 -1058 -955 -1380 -126 -88 -159 -148 -127 -227 26
-61 86 -89 232 -107 173 -22 286 -111 329 -259 60 -206 -38 -345 -290 -411
-154 -40 -1035 -93 -1779 -106 -399 -7 -849 8 -979 32 -263 50 -468 167 -528
301 -31 67 -30 179 1 248 41 93 139 171 266 213 50 16 99 21 290 25 l230 6 28
31 c34 38 34 70 1 109 l-26 31 -210 0 -210 0 -67 47 c-244 173 -420 433 -481
713 -64 291 -10 653 145 975 294 610 935 1029 1662 1085 299 24 576 -25 861
-151 l53 -23 37 19 c47 26 65 79 38 119 -42 65 -333 166 -577 201 -132 19
-412 19 -549 0 -669 -90 -1258 -459 -1592 -998 -206 -331 -318 -779 -279
-1116 11 -93 46 -253 67 -305 7 -18 3 -19 -82 -13 -49 4 -118 14 -154 22 -69
17 -227 89 -272 125 -28 21 -28 23 -28 133 0 214 31 747 70 1227 26 306 26
321 -2 347 -33 30 -62 36 -102 19 -47 -20 -52 -41 -76 -341 -59 -745 -72
-1045 -68 -1608 3 -513 -1 -572 -56 -721 -65 -181 -216 -335 -390 -401 -151
-57 -194 -60 -786 -60 -300 0 -584 4 -632 8 l-88 9 0 37 c0 120 122 342 264
481 50 48 56 68 27 94 -29 26 -52 14 -126 -67 -150 -163 -255 -367 -255 -495
l0 -34 -56 7 c-92 11 -290 63 -370 96 l-74 31 0 97 c0 181 63 344 186 481 61
67 64 73 51 93 -24 36 -55 33 -99 -10 -133 -128 -224 -334 -230 -524 l-3 -78
-48 47 c-61 59 -129 167 -158 252 -20 54 -23 86 -24 190 0 144 16 210 85 345
207 402 599 643 1075 661 161 6 193 15 210 58 9 24 10 243 2 1021 -5 598 -6
990 0 992 86 29 277 197 328 290 l29 51 63 -58 c177 -162 434 -286 673 -325
327 -53 698 33 999 233 101 67 263 219 341 322 106 140 195 302 245 449 22 65
23 66 56 63 19 -1 108 -3 199 -4 150 -1 174 1 265 25 221 59 409 181 547 356
306 384 344 791 109 1150 -15 24 -15 24 14 17 17 -4 80 -23 140 -42z"/>
<path fill="#ffffff" stroke="none" d="M7103 5360 c25 -69 110 -193 168 -243
181 -156 444 -229 771 -213 124 6 336 35 381 52 16 6 17 -18 17 -380 0 -440
10 -402 -98 -360 -167 66 -408 207 -591 347 -76 58 -104 67 -144 45 -33 -17
-46 -39 -47 -77 0 -42 34 -76 175 -177 246 -174 489 -299 673 -344 l42 -11 0
-428 0 -428 -87 -7 c-278 -22 -571 -128 -777 -279 -213 -157 -390 -398 -471
-639 -33 -99 -38 -128 -42 -233 -4 -89 -1 -138 11 -189 9 -38 13 -73 9 -77
-16 -15 -393 -89 -454 -89 -13 0 -62 109 -78 172 -34 143 -18 312 44 469 41
101 42 114 15 129 -36 19 -56 3 -90 -73 -57 -127 -73 -206 -74 -357 -1 -140 7
-185 53 -299 l22 -54 -153 6 c-84 3 -193 13 -241 22 l-88 17 -24 49 c-43 83
-66 190 -67 297 0 118 21 206 73 308 31 61 37 79 28 95 -8 15 -19 19 -41 17
-28 -3 -36 -12 -69 -73 -60 -111 -83 -208 -83 -350 1 -99 6 -135 27 -205 14
-47 24 -86 22 -88 -5 -6 -128 59 -185 98 -185 126 -349 358 -365 517 -13 132
34 318 121 480 158 292 487 568 822 687 104 37 258 66 350 66 72 0 84 3 111
26 27 22 31 33 31 73 0 44 -84 1352 -94 1466 l-4 51 76 34 c85 38 197 109 257
163 22 20 42 36 45 37 3 0 13 -22 23 -50z"/>
<path fill="#000000" stroke="none" d="M6620 12499 c-162 -42 -354 -165 -530
-339 -161 -159 -256 -306 -315 -490 -39 -122 -46 -292 -16 -410 58 -231 153
-316 442 -393 116 -31 120 -33 116 -57 -3 -14 -23 -97 -45 -185 -23 -88 -51
-214 -62 -280 -17 -94 -223 -1058 -246 -1150 -5 -20 -7 -20 -107 -7 -142 18
-504 13 -517 -8 -5 -8 -5 -21 0 -30 7 -13 34 -15 187 -12 153 3 353 -8 404
-24 13 -4 9 -33 -30 -219 l-46 -215 -55 8 c-30 4 -165 7 -300 6 -294 0 -414
-17 -663 -89 -58 -17 -77 -39 -54 -62 11 -12 27 -10 101 11 188 55 422 86 636
86 105 0 309 -15 316 -23 2 -2 -20 -114 -48 -250 l-53 -246 -90 -31 c-240 -84
-613 -328 -603 -395 5 -36 35 -27 99 30 128 112 336 237 504 299 37 15 69 25
71 23 2 -1 -16 -90 -38 -197 -36 -171 -41 -212 -42 -330 -1 -140 8 -189 54
-312 51 -137 193 -305 341 -405 160 -108 285 -157 639 -247 528 -134 870 -183
1210 -173 310 10 519 50 1130 216 420 114 506 143 650 217 314 161 510 404
577 714 26 125 24 336 -5 453 -12 49 -22 90 -22 93 0 2 47 4 104 4 279 0 522
-96 731 -288 47 -44 59 -50 76 -42 31 17 23 34 -46 98 -176 165 -405 266 -666
293 -58 6 -131 9 -163 8 l-57 -4 -9 35 c-5 19 -32 122 -60 229 -28 106 -50
195 -48 196 10 8 208 49 297 61 141 18 421 18 563 -1 62 -9 121 -17 132 -18
27 -3 45 29 26 47 -27 27 -237 50 -445 49 -196 0 -312 -13 -493 -54 -51 -11
-95 -19 -97 -17 -7 7 -95 341 -95 360 0 29 265 80 504 98 148 10 173 19 155
52 -10 19 -17 20 -113 14 -152 -10 -258 -24 -396 -53 -69 -14 -136 -28 -150
-30 -26 -5 -26 -3 -69 174 -169 694 -246 982 -371 1386 -38 125 -70 231 -70
235 0 5 32 24 72 43 117 56 218 126 298 209 86 88 130 157 168 262 25 66 27
85 26 213 0 128 -3 146 -28 215 -136 361 -355 561 -691 631 -111 23 -308 28
-385 10 -172 -42 -299 -162 -367 -348 -27 -76 -53 -189 -53 -235 0 -28 -2 -30
-27 -24 -210 46 -266 51 -553 50 -215 0 -309 -4 -385 -16 -55 -9 -103 -14
-106 -10 -3 4 -16 36 -29 72 -53 150 -146 297 -248 391 -146 134 -329 179
-522 128z"/>
<path fill="#ffffff" stroke="none" d="M6930 12305 c69 -35 157 -124 209 -212
39 -67 108 -221 100 -226 -2 -2 -67 -24 -144 -49 l-139 -46 -57 45 c-150 117
-307 111 -423 -18 -71 -79 -100 -149 -101 -239 0 -87 21 -141 86 -228 l41 -54
-41 -88 c-23 -49 -41 -91 -41 -93 0 -3 -9 -26 -19 -51 l-20 -45 -110 29 c-142
37 -251 87 -280 129 -63 89 -88 265 -56 407 34 153 121 306 252 441 142 145
306 261 440 309 58 21 82 24 158 21 75 -3 99 -8 145 -32z"/>
<path fill="#ffffff" stroke="none" d="M9272 12305 c155 -33 302 -120 393
-233 54 -67 147 -254 165 -331 8 -32 11 -89 8 -142 -4 -71 -11 -100 -37 -156
-44 -94 -100 -163 -184 -227 -65 -49 -201 -126 -223 -126 -5 0 -23 38 -40 85
l-32 86 39 47 c22 26 52 72 67 102 23 48 27 67 27 145 0 81 -3 95 -29 143 -46
83 -120 146 -201 171 -75 23 -145 27 -196 9 -51 -17 -112 -62 -140 -103 -27
-40 -21 -41 -140 11 l-86 38 4 45 c13 142 60 278 123 354 38 45 103 85 161 97
56 12 232 3 321 -15z"/>
<path fill="#ffffff" stroke="none" d="M6753 11769 c12 -6 37 -23 55 -36 l33
-25 -73 -68 c-40 -37 -102 -106 -137 -154 -70 -94 -76 -96 -110 -27 -28 55
-33 102 -17 154 16 54 66 121 110 148 35 21 106 25 139 8z"/>
<path fill="#ffffff" stroke="none" d="M8230 11744 c463 -60 796 -265 934
-577 42 -95 192 -562 281 -872 110 -386 321 -1227 311 -1243 -3 -5 -34 -19
-68 -32 -101 -36 -309 -143 -418 -215 l-101 -67 -162 41 c-89 22 -181 44 -205
48 -41 8 -44 11 -67 67 -64 158 -262 267 -567 312 -153 22 -453 15 -580 -15
-231 -53 -373 -157 -416 -302 -12 -44 -22 -61 -37 -64 -11 -2 -92 -19 -180
-38 l-160 -34 -69 64 c-130 120 -318 228 -503 289 -46 15 -83 32 -83 38 0 6
51 247 114 536 63 289 124 579 136 645 71 403 205 783 356 1011 105 160 194
236 343 293 307 118 759 164 1141 115z"/>
<path fill="#ffffff" stroke="none" d="M9191 11755 c93 -33 156 -129 147 -225
-5 -51 -53 -145 -74 -145 -6 0 -39 35 -73 77 -54 67 -138 147 -204 193 -19 13
-19 17 -6 41 35 67 120 90 210 59z"/>
<path fill="#ffffff" stroke="none" d="M8174 9084 c111 -16 256 -61 321 -100
60 -34 122 -104 134 -151 50 -184 -274 -342 -704 -343 -274 0 -481 57 -582
162 -49 51 -63 83 -63 145 0 166 200 283 515 301 152 9 254 5 379 -14z"/>
<path fill="#ffffff" stroke="none" d="M6227 9039 c167 -59 334 -156 444 -257
l54 -50 -45 -11 c-25 -7 -123 -37 -218 -67 l-173 -55 -128 28 -128 28 32 150
c18 83 38 176 45 208 6 31 15 57 20 57 5 0 48 -14 97 -31z"/>
<path fill="#ffffff" stroke="none" d="M9829 8810 c23 -91 43 -173 44 -183 2
-14 -18 -26 -78 -52 -44 -19 -87 -34 -95 -35 -9 0 -60 20 -115 44 -55 24 -147
60 -205 81 -58 20 -111 41 -118 45 -28 14 242 169 428 245 47 19 88 31 91 27
3 -4 25 -81 48 -172z"/>
<path fill="#ffffff" stroke="none" d="M7190 8660 c71 -151 269 -251 560 -281
58 -5 105 -11 106 -12 1 -1 -2 -191 -7 -422 -4 -231 -8 -464 -8 -519 l-1 -98
-92 7 c-400 29 -698 136 -894 318 -84 79 -157 181 -186 264 -25 73 -34 83 -70
83 -28 0 -151 -74 -205 -123 -30 -27 -30 -71 -1 -91 33 -23 47 -20 112 23 l58
39 29 -56 c42 -80 88 -138 166 -213 187 -180 443 -290 803 -346 162 -25 594
-25 727 0 202 38 378 106 508 195 145 100 278 265 336 417 17 44 32 81 33 82
2 2 42 -10 90 -27 89 -30 116 -29 138 4 13 18 9 54 -7 69 -15 16 -248 97 -276
97 -26 0 -46 -31 -64 -100 -52 -203 -223 -404 -430 -508 -148 -74 -332 -118
-537 -129 l-119 -6 5 199 c3 109 8 343 11 519 4 176 7 320 8 322 2 1 52 7 112
13 252 25 460 102 565 210 31 31 62 71 69 88 9 22 20 32 35 32 35 0 332 -75
456 -116 96 -30 328 -119 337 -128 2 -1 -30 -24 -71 -49 -85 -54 -99 -68 -90
-91 10 -26 36 -19 106 27 35 23 80 50 99 61 l35 19 120 -62 c215 -110 220
-113 233 -168 7 -26 14 -56 17 -65 4 -13 -7 -19 -53 -28 -92 -19 -239 -69
-265 -90 -21 -17 -22 -20 -6 -36 15 -15 22 -14 105 14 78 27 209 62 233 62 12
0 48 -161 56 -250 3 -41 1 -118 -5 -170 -36 -295 -206 -522 -501 -670 -137
-68 -203 -90 -610 -201 -607 -165 -776 -197 -1082 -206 -365 -11 -708 42
-1293 198 -148 39 -217 64 -310 109 -257 126 -405 296 -451 519 -23 116 -16
198 42 478 l48 232 66 12 c36 7 143 13 238 14 184 1 213 8 179 43 -23 22 -214
29 -358 12 -56 -6 -102 -10 -104 -8 -2 2 4 39 13 83 16 75 19 81 52 97 61 30
336 138 366 144 17 3 53 -3 88 -15 71 -25 92 -26 100 -5 8 21 -8 40 -42 49
-38 9 -20 17 148 66 102 29 146 37 153 30 17 -17 48 -13 54 8 5 18 9 19 268
74 11 3 23 5 26 6 3 0 16 -22 29 -49z"/>
<path fill="#ffffff" stroke="none" d="M6090 8580 c25 -6 56 -13 69 -16 20 -4
10 -11 -60 -39 -46 -19 -88 -35 -92 -35 -8 0 -3 37 9 83 6 20 12 20 74 7z"/>
<path fill="#ffffff" stroke="none" d="M9928 8424 c-2 -2 -38 14 -79 36 l-74
39 45 19 c77 33 73 34 93 -30 10 -33 17 -62 15 -64z"/>
<path fill="#000000" stroke="none" d="M7010 10748 c-157 -55 -261 -179 -291
-348 -32 -182 71 -374 246 -461 67 -33 74 -34 185 -34 109 0 119 2 182 32 286
135 346 503 119 716 -29 27 -82 62 -119 80 -58 27 -80 32 -162 34 -79 3 -106
0 -160 -19z"/>
<path fill="#ffffff" stroke="none" d="M7130 10605 c35 -18 65 -59 78 -107 38
-137 -110 -252 -238 -186 -104 53 -120 189 -33 271 52 48 126 57 193 22z"/>
<path fill="#ffffff" stroke="none" d="M7402 10573 c134 -139 125 -364 -20
-495 -76 -69 -114 -83 -227 -83 -86 0 -107 3 -150 25 -90 44 -170 143 -190
235 -6 26 -4 24 15 -12 32 -61 106 -126 176 -153 203 -76 428 81 428 300 0 73
-27 148 -71 200 -44 52 -15 39 39 -17z"/>
<path fill="#000000" stroke="none" d="M8465 10747 c-200 -76 -321 -277 -287
-475 25 -149 117 -272 252 -336 61 -29 72 -31 181 -31 113 0 116 1 191 38 82
40 162 116 199 188 112 220 23 487 -199 597 -70 34 -83 37 -176 39 -85 3 -110
0 -161 -20z"/>
<path fill="#ffffff" stroke="none" d="M8791 10632 c149 -95 206 -283 135
-440 -96 -210 -374 -271 -543 -118 -26 24 -57 59 -67 77 l-19 34 34 -32 c81
-76 217 -102 324 -63 91 34 167 115 196 209 36 119 7 231 -81 319 -49 49 -42
54 21 14z"/>
<path fill="#ffffff" stroke="none" d="M8515 10611 c48 -22 69 -44 90 -96 26
-61 13 -120 -39 -171 -46 -46 -91 -61 -153 -49 -56 10 -119 78 -128 136 -7 48
10 105 43 143 22 24 90 56 122 56 14 0 43 -9 65 -19z"/>
<path fill="#000000" stroke="none" d="M19833 13455 c-17 -7 -34 -23 -38 -34
-8 -27 2 -76 20 -91 11 -9 10 -15 -6 -31 -25 -25 -24 -60 2 -93 l20 -26 -20 0
c-12 0 -21 -6 -21 -15 0 -12 19 -15 115 -15 108 0 115 1 115 20 0 18 -7 20
-84 20 -76 0 -86 2 -100 22 -20 29 -20 34 4 58 17 17 33 20 100 20 73 0 80 2
80 20 0 18 -7 20 -85 20 -78 0 -86 2 -100 24 -33 50 6 76 116 76 62 0 69 2 69
20 0 18 -7 20 -77 20 -43 -1 -92 -7 -110 -15z"/>
<path fill="#000000" stroke="none" d="M19862 13089 c-84 -25 -96 -157 -17
-199 94 -50 204 31 172 126 -20 62 -86 93 -155 73z"/>
<path fill="#ffffff" stroke="none" d="M19968 13034 c15 -10 22 -25 22 -49 0
-43 -29 -65 -87 -65 -50 0 -83 26 -83 65 0 39 33 65 83 65 23 0 53 -7 65 -16z"/>
<path fill="#000000" stroke="none" d="M19797 12833 c-12 -12 -7 -73 8 -103
44 -84 189 -76 213 12 13 47 4 98 -17 98 -13 0 -16 -8 -13 -39 8 -81 -87 -123
-145 -65 -21 21 -25 32 -20 65 5 37 -7 52 -26 32z"/>
<path fill="#000000" stroke="none" d="M19974 12626 c-9 -24 4 -48 23 -44 12
2 18 12 18 28 0 29 -32 41 -41 16z"/>
<path fill="#000000" stroke="none" d="M19910 12518 c-11 -12 -20 -27 -20 -33
0 -7 -9 -20 -20 -30 -29 -26 -54 -3 -47 42 7 40 -19 47 -29 8 -9 -37 3 -73 32
-91 34 -23 67 -7 94 46 16 32 26 41 43 38 19 -3 22 -9 21 -50 0 -46 15 -64 32
-37 13 21 5 91 -12 110 -23 26 -68 24 -94 -3z"/>
<path fill="#000000" stroke="none" d="M19690 12325 c0 -24 3 -25 59 -25 l59
0 -11 -29 c-25 -67 27 -134 105 -134 95 0 145 62 109 135 -14 30 -16 38 -5 38
8 0 14 9 14 20 0 19 -7 20 -165 20 l-165 0 0 -25z"/>
<path fill="#ffffff" stroke="none" d="M19972 12283 c25 -23 23 -68 -4 -87
-33 -23 -103 -21 -128 4 -24 24 -26 57 -3 82 22 24 109 25 135 1z"/>
<path fill="#000000" stroke="none" d="M19714 12075 c-7 -18 3 -35 21 -35 21
0 28 19 15 35 -16 19 -29 19 -36 0z"/>
<path fill="#000000" stroke="none" d="M19792 12063 c3 -16 18 -18 116 -21
107 -3 112 -2 112 18 0 19 -6 20 -116 20 -105 0 -115 -2 -112 -17z"/>
<path fill="#000000" stroke="none" d="M19952 11954 l-62 -46 -47 42 c-41 36
-49 39 -52 24 -2 -12 14 -35 49 -66 l51 -48 -100 0 c-94 0 -101 -1 -101 -20 0
-19 7 -20 165 -20 157 0 165 1 165 19 0 17 -8 20 -47 23 -25 2 -48 8 -50 13
-1 6 20 25 47 44 36 25 50 41 50 58 0 12 -1 23 -3 23 -2 0 -31 -21 -65 -46z"/>
<path fill="#000000" stroke="none" d="M19900 11750 c0 -19 -7 -20 -90 -20
-88 0 -90 -1 -90 -23 0 -18 22 -38 99 -91 55 -38 104 -65 110 -62 6 4 11 36
11 72 l0 64 40 0 c33 0 40 3 40 20 0 17 -7 20 -40 20 -33 0 -40 3 -40 20 0 13
-7 20 -20 20 -13 0 -20 -7 -20 -20z"/>
<path fill="#ffffff" stroke="none" d="M19900 11645 c0 -52 3 -52 -84 10 l-48
35 66 0 66 0 0 -45z"/>
<path fill="#000000" stroke="none" d="M19880 11470 c0 -47 3 -60 15 -60 12 0
15 13 15 60 0 47 -3 60 -15 60 -12 0 -15 -13 -15 -60z"/>
<path fill="#000000" stroke="none" d="M19790 11355 c0 -8 7 -18 15 -21 13 -5
13 -8 0 -27 -23 -33 -18 -73 13 -107 50 -57 156 -50 187 11 19 36 19 53 -1 91
l-16 31 33 -7 c19 -3 40 -13 49 -21 13 -14 18 -68 9 -104 -8 -27 21 -22 32 6
17 44 0 112 -34 137 -25 18 -45 21 -158 24 -113 3 -129 2 -129 -13z"/>
<path fill="#ffffff" stroke="none" d="M19965 11305 c14 -13 25 -31 25 -40 0
-29 -46 -65 -83 -65 -43 0 -87 33 -87 66 0 62 97 88 145 39z"/>
<path fill="#000000" stroke="none" d="M19833 11100 c-42 -17 -56 -77 -28
-117 13 -19 13 -22 0 -27 -8 -3 -15 -12 -15 -21 0 -13 18 -15 115 -15 108 0
115 1 115 20 0 18 -7 20 -79 20 -89 0 -111 12 -111 60 0 40 23 50 114 50 69 0
76 2 76 20 0 18 -6 20 -82 19 -46 0 -93 -4 -105 -9z"/>
<path fill="#000000" stroke="none" d="M19714 10845 c-7 -18 3 -35 21 -35 21
0 28 19 15 35 -16 19 -29 19 -36 0z"/>
<path fill="#000000" stroke="none" d="M19792 10833 c3 -16 18 -18 116 -21
107 -3 112 -2 112 18 0 19 -6 20 -116 20 -105 0 -115 -2 -112 -17z"/>
<path fill="#000000" stroke="none" d="M19790 10753 c0 -9 10 -27 22 -40 l21
-23 -21 0 c-13 0 -22 -6 -22 -15 0 -12 19 -15 115 -15 108 0 115 1 115 20 0
18 -7 20 -78 20 -83 0 -112 14 -112 53 0 10 -8 17 -20 17 -12 0 -20 -7 -20
-17z"/>
<path fill="#000000" stroke="none" d="M19862 10599 c-84 -25 -96 -157 -17
-199 94 -50 204 31 172 126 -20 62 -86 93 -155 73z"/>
<path fill="#ffffff" stroke="none" d="M19968 10544 c15 -10 22 -25 22 -49 0
-43 -29 -65 -87 -65 -50 0 -83 26 -83 65 0 39 33 65 83 65 23 0 53 -7 65 -16z"/>
<path fill="#000000" stroke="none" d="M19690 10310 c0 -19 7 -20 165 -20 158
0 165 1 165 20 0 19 -7 20 -165 20 -158 0 -165 -1 -165 -20z"/>
<path fill="#000000" stroke="none" d="M19854 10230 c-12 -4 -31 -21 -44 -37
-17 -22 -21 -37 -17 -72 7 -60 41 -93 104 -98 103 -9 156 70 110 165 -21 44
-97 65 -153 42z"/>
<path fill="#ffffff" stroke="none" d="M19955 10188 c28 -13 40 -45 31 -81 -6
-27 -44 -47 -87 -47 -35 0 -79 39 -79 70 0 53 75 86 135 58z"/>
<path fill="#000000" stroke="none" d="M19794 9966 c-36 -145 179 -213 225
-72 13 37 1 91 -20 91 -10 0 -13 -11 -11 -42 5 -57 -22 -83 -82 -83 -56 0 -89
35 -84 89 3 41 -18 54 -28 17z"/>
<path fill="#000000" stroke="none" d="M19791 9663 c-67 -33 -92 -124 -51
-190 40 -67 109 -87 184 -54 81 35 108 137 55 205 -44 55 -122 71 -188 39z"/>
<path fill="#ffffff" stroke="none" d="M19928 9640 c18 -11 40 -35 49 -55 14
-29 15 -40 4 -75 -16 -53 -58 -80 -124 -80 -42 0 -54 5 -83 34 -99 99 33 250
154 176z"/>
<path fill="#000000" stroke="none" d="M19929 9605 c-1 -5 0 -24 1 -42 3 -60
-58 -92 -109 -57 -19 13 -22 24 -19 55 2 27 0 39 -9 39 -23 0 -16 -76 10 -105
50 -58 147 -20 147 58 0 30 -18 75 -21 52z"/>
</g>
</svg>
