<svg version="1.1" xmlns="http://www.w3.org/2000/svg" xmlns:xlink="http://www.w3.org/1999/xlink" width="768" height="829.4375"><defs><clipPath id="clip-1"><rect x="84.44578" y="0" transform="scale(0.864,0.864)" width="720" height="960" fill="none"/></clipPath></defs><g fill="none" fill-rule="nonzero" stroke="none" stroke-width="1" stroke-linecap="butt" stroke-linejoin="miter" stroke-miterlimit="10" stroke-dasharray="" stroke-dashoffset="0" font-family="none" font-weight="none" font-size="none" text-anchor="none" style="mix-blend-mode: normal"><g clip-path="url(#clip-1)"><g><path d="M161.17507,61.51661c-4.57919,2.33279 -5.70238,6.04798 -5.87518,19.26714c-0.1728,15.29275 -2.15999,24.88312 -10.62717,50.97585c-9.93597,30.67191 -12.44156,42.85427 -12.44156,60.47982c0,10.71357 0.2592,14.25596 1.90079,20.30394c2.24639,8.55357 6.73918,17.97115 11.66396,24.45113c1.81439,2.41919 4.75199,7.17118 6.39358,10.54077c2.41919,5.01118 2.85119,6.73918 2.50559,9.93597c-0.7776,7.86238 -12.35516,39.39828 -21.25434,58.31982c-6.82558,14.68796 -13.99676,20.64954 -27.56152,23.24153c-3.54239,0.6912 -6.73918,1.72799 -7.17118,2.41919c-2.07359,3.11039 1.72799,10.02237 12.26876,22.29113c10.62717,12.44156 63.84941,64.7134 73.78538,72.57578c20.82234,16.41595 45.70546,32.0543 72.05738,45.27346c4.40639,2.15999 7.94878,4.23359 7.94878,4.49279c0,0.2592 -0.5184,1.4688 -1.2096,2.76479c-1.6416,3.19679 -6.22078,17.45275 -7.77598,24.27833c-0.9504,4.06079 -2.07359,6.39358 -4.23359,8.63997c-11.66396,12.35516 -13.82396,27.38872 -10.45437,72.31658c0.7776,10.62717 1.2096,19.61274 1.0368,19.87194c-0.2592,0.2592 -2.07359,-0.432 -3.97439,-1.3824c-22.29113,-11.66396 -50.28465,0.864 -62.81261,27.99352c-5.78878,12.35516 -6.91198,18.23035 -6.82558,34.6463c0,12.95996 0.3456,15.63835 2.33279,23.06873c6.99838,26.35192 26.00632,50.02545 46.82866,58.49262c12.26876,4.92479 24.79673,6.39358 34.1279,4.06079c6.04798,-1.5552 13.65116,-6.22078 15.98395,-9.67677l1.3824,-2.15999l2.24639,4.31999c4.06079,8.20798 12.26876,12.95996 25.48792,14.86076c12.35516,1.81439 27.73432,-1.90079 36.28789,-8.72637l3.19679,-2.59199h14.94715h14.94715l3.71519,2.59199c11.49117,7.77598 31.36311,9.59037 45.79186,4.14719c5.70238,-2.15999 12.35516,-8.29437 14.08316,-13.04636c0.6048,-1.72799 1.3824,-3.19679 1.72799,-3.19679c0.2592,0 1.3824,1.1232 2.50559,2.59199c1.0368,1.3824 3.80159,3.71519 5.96158,5.09758c15.46555,9.93597 41.99027,5.01118 61.77581,-11.49117c18.31674,-15.20635 31.5359,-43.97747 31.6223,-68.60139v-4.92479l7.94878,-2.50559c19.09434,-6.13438 40.17588,-19.09434 57.54223,-35.42389c28.25271,-26.69752 50.63025,-67.3054 59.35662,-107.74048c1.296,-5.87518 3.11039,-12.78716 3.97439,-15.29275c2.41919,-6.73918 4.06079,-17.27995 4.66559,-29.98071c0.6912,-16.32955 3.11039,-124.15643 2.76479,-124.58842c-0.1728,-0.1728 -1.2096,2.15999 -2.33279,5.09758c-3.28319,9.24477 -11.57757,25.91992 -16.84795,33.8687c-18.74874,28.51191 -41.55827,47.60626 -69.55179,58.23342c-10.10877,3.88799 -24.45113,6.73918 -50.45745,10.10877c-26.52472,3.45599 -37.75669,5.96158 -49.24785,11.05917c-13.04636,5.70238 -26.95672,16.50235 -33.0047,25.66072l-2.41919,3.54239l-2.33279,-6.73918c-1.296,-3.62879 -2.33279,-6.73918 -2.24639,-6.82558c0.0864,0 5.61598,-2.93759 12.26876,-6.39358c28.85751,-15.11995 53.82704,-31.7087 79.05576,-52.53104c12.44156,-10.36797 36.63349,-34.4735 40.78068,-40.78068c7.08478,-10.88637 24.53753,-48.29745 23.67353,-50.71665c-0.3456,-0.7776 -2.50559,-1.1232 -7.34398,-1.1232c-11.23197,0 -23.50073,-5.09758 -30.49911,-12.61436c-7.60318,-8.20798 -15.46555,-36.28789 -15.55195,-55.29583v-7.86238l6.47998,-13.30556c22.37753,-45.70546 28.59831,-100.0509 17.36635,-151.11314c-6.30718,-28.33911 -12.87356,-34.3871 -30.41271,-28.16632c-6.39358,2.33279 -60.22062,22.20473 -76.63657,28.42551c-20.21754,7.60318 -29.28951,12.95996 -38.27508,22.72313c-6.99838,7.51678 -10.62717,14.42876 -13.04636,24.88313c-1.81439,7.68958 -4.66559,15.20635 -5.78878,15.20635c-0.2592,0 -4.92479,-2.33279 -10.19517,-5.09758c-13.39196,-7.17118 -21.25434,-9.59037 -32.6591,-10.19517c-14.34236,-0.7776 -26.00632,1.6416 -44.66867,9.15837c-4.83839,1.98719 -9.07197,3.54239 -9.50397,3.54239c-0.432,0 -1.0368,-1.296 -1.3824,-2.85119c-1.0368,-5.09758 -4.14719,-13.91036 -6.73918,-19.18074c-8.12158,-16.50235 -24.96952,-32.0543 -46.13746,-42.68147c-10.62717,-5.27038 -19.52634,-8.81277 -46.31026,-18.31674c-13.39196,-4.75199 -26.87032,-9.50397 -29.98071,-10.62717c-7.60318,-2.76479 -12.00956,-3.36959 -14.60156,-2.07359z" fill="#000000"/><path d="M187.95899,73.09418c43.54547,15.29275 55.98703,20.21754 68.60139,27.21592c11.49117,6.39358 17.53915,10.97277 25.05592,19.09434c10.88637,11.75036 16.58875,22.37753 19.18074,36.11509c1.0368,5.44318 1.81439,7.77598 2.67839,7.77598c0.6912,0 6.73918,-2.07359 13.47836,-4.66559c25.22872,-9.76317 38.62068,-11.66396 54.17264,-7.77598c6.04798,1.4688 15.63835,5.52958 21.68633,9.07197c9.33117,5.52958 13.21916,5.78878 15.81115,0.864c0.6912,-1.4688 2.59199,-7.51678 4.14719,-13.39196c3.36959,-12.52796 6.47998,-18.31674 14.08316,-25.91992c10.02237,-10.19517 15.37915,-12.70076 66.6142,-31.5359c18.14395,-6.65278 36.37429,-13.47836 40.60788,-15.11995c10.79997,-4.23359 14.60156,-4.66559 18.40314,-2.07359c5.61598,3.80159 8.46717,11.23197 12.52796,33.0911c3.02399,16.41595 4.23359,32.3135 3.62879,48.81585c-1.2096,34.1279 -8.29438,62.72621 -22.46393,91.58372l-6.22078,12.52796l-0.3456,8.63997c-0.0864,4.75199 0.1728,11.49117 0.7776,15.11995c2.41919,15.72475 8.12158,33.9551 12.87356,41.21268c5.96158,9.07197 17.71195,15.98395 30.41271,17.71195c3.97439,0.5184 7.34398,1.0368 7.51678,1.1232c0.9504,0.6048 -19.35354,41.73107 -22.63673,45.70546l-2.07359,2.50559l-3.45599,-2.76479c-6.56638,-5.35678 -17.97115,-7.43038 -26.35192,-4.92479l-3.97439,1.2096l0.5184,-13.13276c1.81439,-46.65586 -11.14557,-76.72297 -39.13908,-90.71973c-8.72637,-4.31999 -14.34236,-5.78878 -24.62393,-6.30718c-18.05755,-0.9504 -32.9183,3.80159 -49.24785,15.81115c-24.36473,17.97115 -42.59507,47.43346 -52.87664,85.88134c-2.50559,9.33117 -10.97277,46.39666 -10.97277,48.03826c0,0.2592 -0.3456,0.2592 -0.7776,0c-0.432,-0.2592 -1.0368,-1.98719 -1.296,-3.71519c-1.1232,-6.22078 -8.46717,-31.8815 -13.21916,-46.05106c-12.61436,-37.49749 -26.00632,-61.51661 -44.49587,-79.14216c-15.63835,-15.03355 -30.93111,-22.29113 -49.07505,-23.41433c-21.51354,-1.296 -42.50867,8.81277 -54.51824,26.17912c-11.23197,16.32955 -16.32955,40.08948 -15.11995,70.07019l0.5184,14.08316h-4.06079c-7.51678,0 -18.23035,6.73918 -21.77273,13.56476l-1.4688,2.93759l-18.57594,-18.83514c-16.32955,-16.58875 -29.28951,-31.6223 -29.28951,-33.9551c0,-0.432 1.0368,-1.0368 2.33279,-1.3824c13.65116,-2.93759 20.90874,-7.77598 27.56152,-18.14395c7.68958,-12.00956 26.26552,-61.86221 26.26552,-70.50219c0,-3.62879 -3.62879,-11.49117 -9.15837,-19.87194c-7.60318,-11.40477 -11.14557,-19.78554 -12.87356,-30.06711c-3.11039,-19.18074 -0.7776,-34.4735 10.36797,-69.11979c9.15837,-28.59831 10.97277,-36.46069 11.40477,-50.54385c0.5184,-17.88475 1.2096,-20.30394 5.87518,-20.30394c1.0368,0 11.40477,3.36959 22.98233,7.43038z" fill="#e1ff00"/><path d="M257.16518,277.77516c3.97439,0.7776 9.84957,3.02399 15.81115,6.04798c32.5727,16.24315 54.86383,53.74064 73.87178,124.41562c3.11039,11.75036 4.23359,17.97115 2.93759,16.67515c-0.6912,-0.6912 -10.19517,1.5552 -16.15675,3.88799c-6.04798,2.24639 -12.35516,6.91198 -15.11995,10.97277c-1.72799,2.50559 -1.98719,3.80159 -1.72799,8.03518c0.2592,3.36959 0.9504,5.70238 2.24639,7.34398c0.9504,1.296 4.92479,6.65278 8.72637,12.00956c3.88799,5.27038 8.72637,11.14557 10.79997,12.95996c9.24477,8.12158 24.27833,8.29437 33.7823,0.432c1.81439,-1.3824 5.78878,-6.30718 8.89917,-10.88637c3.19679,-4.49279 7.25758,-10.36797 9.07197,-12.87356c4.31999,-6.04798 4.92479,-10.36797 2.33279,-15.63835c-3.36959,-6.99838 -14.25596,-13.30556 -26.52472,-15.46555c-3.02399,-0.5184 -5.44318,-1.296 -5.44318,-1.6416c0,-2.76479 9.93597,-45.10066 12.87356,-55.12303c7.94878,-26.35192 19.35354,-46.13746 37.06549,-64.19501c17.36635,-17.71195 34.2143,-25.74712 54.17264,-25.91992c10.62717,-0.0864 17.36635,1.296 26.09272,5.44318c28.07992,13.04636 39.65748,40.78068 37.92949,90.54693c-0.432,12.26876 -0.2592,15.89755 0.5184,16.15675c0.6048,0.2592 3.02399,-0.5184 5.35678,-1.72799c4.75199,-2.41919 12.09596,-2.85119 18.14395,-1.2096c3.71519,1.0368 10.02237,4.66559 10.02237,5.78878c0,1.1232 -21.94553,22.55033 -30.67191,29.98071c-18.23035,15.55195 -42.68147,32.5727 -66.4414,46.22386c-44.84146,25.74712 -94.78051,42.07667 -118.62684,38.79348c-29.98071,-4.06079 -83.80775,-26.43832 -124.84762,-51.92624c-21.94553,-13.56476 -37.75669,-25.74712 -54.34544,-41.90387c-13.47836,-13.21916 -13.73756,-13.56476 -10.79997,-18.31674c4.66559,-7.25758 16.24315,-11.83676 22.11833,-8.72637c1.72799,0.9504 2.15999,0.864 3.19679,-0.5184c0.6048,-0.864 0.9504,-2.15999 0.6048,-2.93759c-0.2592,-0.6912 -0.6912,-8.72637 -0.9504,-17.71195c-0.7776,-26.52472 1.6416,-41.29908 9.33117,-57.02383c8.03518,-16.67515 21.59993,-27.82072 38.62068,-31.9679c6.65278,-1.5552 19.35354,-1.5552 27.12952,0z" fill="#e1ff00"/><path d="M664.19436,424.39552c-1.4688,67.8238 -2.15999,75.59977 -8.12158,87.78214c-2.93759,5.96158 -6.56638,9.41757 -15.89755,14.94715c-7.60318,4.57919 -13.47836,9.50397 -17.79835,14.94715c-1.90079,2.33279 -3.36959,3.62879 -3.36959,2.93759c0,-1.2096 5.70238,-34.0415 6.56638,-37.75669l0.432,-2.07359l-7.34398,0.5184c-11.14557,0.7776 -22.80953,5.27038 -32.3135,12.44156c-1.5552,1.2096 -3.02399,1.98719 -3.28319,1.81439c-0.6912,-0.6912 6.13438,-10.45437 10.88637,-15.63835c2.50559,-2.76479 7.17118,-6.82558 10.28157,-8.98557c8.29437,-5.87518 8.38077,-5.70238 -0.6048,-5.09758c-10.19517,0.7776 -22.20473,3.80159 -32.0543,8.12158l-7.68958,3.45599l1.98719,-4.57919c3.28319,-7.43038 3.97439,-11.31837 3.97439,-22.55033c0,-13.13276 0.2592,-13.47836 12.00956,-17.97115c32.5727,-12.44156 62.29421,-39.57108 78.79656,-71.97098c2.07359,-3.88799 3.88799,-7.17118 4.14719,-7.17118c0.2592,0 0,21.08154 -0.6048,46.82866z" fill="#ffffff"/><path d="M370.08964,440.63867c8.20798,0.9504 11.23197,2.67839 8.46717,4.75199c-2.50559,1.81439 -10.62717,2.33279 -29.54871,1.98719c-17.62555,-0.2592 -21.16794,-0.9504 -21.16794,-3.80159c0,-0.6912 0.5184,-1.4688 1.2096,-1.72799c4.75199,-1.81439 29.37591,-2.59199 41.03988,-1.2096z" fill="#ffffff"/><path d="M565.78505,472.77938c-0.0864,10.19517 -0.432,13.30556 -2.07359,17.97115c-2.15999,6.47998 -5.09758,11.75036 -8.81277,16.07035c-2.24639,2.59199 -2.50559,3.19679 -1.4688,4.49279c0.6048,0.7776 1.2096,1.5552 1.296,1.72799c0.0864,0.1728 2.24639,-1.0368 4.75199,-2.67839c9.41757,-5.96158 20.64954,-10.79997 30.32631,-13.13276l5.01118,-1.1232l-3.62879,4.31999c-5.27038,6.13438 -9.07197,11.57757 -12.09596,17.53915c-2.67839,5.27038 -7.86238,19.43994 -7.25758,20.04474c0.1728,0.1728 2.41919,-2.07359 4.92479,-4.92479c5.35678,-6.13438 14.77436,-13.56476 21.25434,-16.76155c5.35678,-2.67839 15.98395,-5.70238 19.87194,-5.70238c2.50559,0 2.85119,0.2592 2.41919,1.90079c-0.2592,1.1232 -2.41919,13.04636 -4.75199,26.61112c-2.41919,13.56476 -4.57919,25.57432 -4.83839,26.78392c-0.3456,1.2096 1.98719,-1.90079 4.92479,-6.91198c6.91198,-11.23197 17.53915,-22.37753 26.43832,-27.47512c3.36959,-1.98719 7.34398,-4.66559 8.89917,-5.87518c1.4688,-1.296 2.85119,-2.15999 3.02399,-1.98719c0.7776,0.864 -5.52958,21.59993 -10.02237,33.0047c-19.95834,50.02545 -57.54223,89.16453 -101.26049,105.49408c-4.66559,1.72799 -8.81277,2.93759 -9.15837,2.76479c-0.432,-0.2592 -0.9504,-2.67839 -1.296,-5.44318c-0.3456,-2.67839 -1.72799,-8.38077 -3.11039,-12.61436c-10.88637,-32.3135 -39.48468,-48.21105 -65.2318,-36.11509c-3.45599,1.5552 -5.61598,2.15999 -5.61598,1.5552c0,-0.6048 0.6048,-8.81277 1.296,-18.31674c2.93759,-37.23829 1.3824,-54.17264 -5.87518,-65.1454c-1.1232,-1.72799 -2.93759,-6.99838 -4.06079,-12.00956c-1.98719,-8.89917 -1.98719,-8.98557 -0.3456,-12.09596c0.864,-1.81439 5.35678,-6.91198 9.84957,-11.49117c7.43038,-7.43038 9.24477,-8.72637 18.14395,-13.04636c15.03355,-7.34398 25.48792,-9.93597 57.45583,-14.08316c13.65116,-1.81439 31.01751,-4.83839 31.10391,-5.52958c0,0 0,5.44318 -0.0864,12.18236z" fill="#ffc800"/><path d="M275.39553,490.57772c2.93759,1.3824 8.12158,3.54239 11.57757,4.92479l6.13438,2.50559l-2.07359,4.23359c-2.59199,5.01118 -7.25758,19.00794 -7.25758,21.59993c0,1.6416 -0.3456,1.4688 -3.19679,-1.4688c-4.83839,-5.01118 -9.24477,-6.91198 -15.55195,-6.91198c-3.02399,0 -5.44318,0 -5.44318,0c0,-0.0864 0.9504,-3.45599 2.07359,-7.60318c2.67839,-9.84957 6.47998,-19.69914 7.60318,-19.69914c0.432,0 3.19679,1.1232 6.13438,2.41919z" fill="#ffffff"/><path d="M439.12303,495.67531c1.4688,4.06079 7.08478,23.15513 7.08478,24.10553c0,0.1728 -1.81439,-0.5184 -4.06079,-1.5552c-5.01118,-2.15999 -12.09596,-1.81439 -16.76155,0.9504l-3.11039,1.81439l-0.6048,-3.62879c-0.2592,-2.07359 -1.3824,-6.91198 -2.41919,-10.88637c-0.9504,-3.88799 -1.6416,-7.25758 -1.3824,-7.51678c0.6048,-0.6912 17.45275,-8.03518 18.48954,-8.12158c0.5184,-0.0864 1.81439,2.15999 2.76479,4.83839z" fill="#ffffff"/><path d="M313.67061,505.35208c19.35354,6.47998 30.32631,8.72637 41.64467,8.72637c11.23197,0 26.52472,-3.02399 43.54547,-8.63997c7.25758,-2.41919 13.39196,-4.31999 13.73756,-4.31999c0.9504,0 2.93759,6.82558 4.75199,15.89755l1.3824,7.25758l-3.45599,5.87518c-9.07197,15.46555 -16.50235,47.60626 -18.31674,79.14216c-0.9504,16.93435 -4.75199,59.18382 -6.04798,67.5646c-0.5184,3.19679 -1.4688,5.87518 -2.67839,7.08478c-1.0368,1.1232 -6.22078,4.23359 -11.49117,6.99838c-16.93435,8.89917 -23.84633,17.88475 -24.53753,32.3135c-0.432,8.38077 1.0368,14.68796 5.01118,22.11833l2.41919,4.57919l-2.76479,0.432c-3.36959,0.5184 -7.77598,0.6912 -11.92316,0.5184l-3.19679,-0.0864l2.50559,-5.35678c3.36959,-7.08478 4.57919,-13.47836 4.14719,-21.42714c-0.864,-14.42876 -9.15837,-24.45113 -27.21592,-32.7455c-8.63997,-3.97439 -10.36797,-6.04798 -11.40477,-13.47836c-2.07359,-14.94715 -5.09758,-48.21105 -5.78878,-64.28141c-1.2096,-28.85751 -6.47998,-56.76463 -13.91036,-74.30378c-1.6416,-4.06079 -3.02399,-8.63997 -3.02399,-10.02237c0.1728,-5.87518 8.46717,-28.94391 10.45437,-28.94391c0.3456,0 7.60318,2.33279 16.15675,5.09758z" fill="#ffc800"/><path d="M272.19874,521.76803c8.98557,4.06079 16.07035,19.09434 22.29113,47.26066c2.85119,13.04636 6.65278,47.26066 5.27038,48.55665c-0.1728,0.2592 -0.9504,0 -1.5552,-0.5184c-0.6048,-0.5184 -3.62879,-1.6416 -6.73918,-2.41919c-10.62717,-2.76479 -28.85751,0.0864 -38.96628,6.13438c-2.76479,1.6416 -5.01118,2.59199 -5.01118,2.24639c0,-0.432 -0.864,-11.57757 -1.81439,-24.88313c-3.62879,-47.34706 -1.98719,-61.77581 8.29438,-72.31658c5.52958,-5.70238 11.57757,-7.08478 18.23035,-4.06079z" fill="#ffffff"/><path d="M441.80143,523.49602c6.56638,3.36959 10.88637,10.10877 13.56476,21.34074c2.41919,9.59037 1.6416,36.20149 -1.90079,74.73577l-0.5184,5.78878l-3.62879,-2.50559c-2.07359,-1.296 -6.73918,-3.45599 -10.54077,-4.75199c-5.96158,-2.07359 -8.20798,-2.33279 -18.05755,-2.41919c-8.98557,-0.0864 -12.09596,0.2592 -15.37915,1.5552c-2.33279,0.864 -4.31999,1.3824 -4.49279,1.2096c-0.864,-0.864 1.4688,-25.40152 3.45599,-37.58389c5.52958,-32.7455 14.51516,-53.99984 24.62393,-58.06063c3.54239,-1.3824 9.33117,-1.0368 12.87356,0.6912z" fill="#ffffff"/><path d="M495.62846,614.21575c13.91036,5.35678 25.74712,20.21754 31.10391,38.70708c1.6416,5.70238 1.98719,8.81277 1.98719,20.56314c0,12.26876 -0.2592,14.68796 -2.33279,22.03193c-10.19517,36.63349 -38.44788,60.91182 -69.20619,59.44302c-9.33117,-0.432 -14.77436,-2.76479 -19.87194,-8.38077c-4.06079,-4.49279 -4.40639,-6.22078 -3.71519,-17.10715c0.6048,-10.28157 0.9504,-11.75036 10.10877,-44.49587c3.71519,-13.21916 6.99838,-25.31512 7.34398,-27.04312c0.2592,-1.6416 0.7776,-3.02399 1.1232,-3.02399c0.2592,0 1.2096,1.4688 1.98719,3.28319c1.81439,3.88799 5.44318,6.22078 9.67677,6.22078c6.99838,0 13.30556,-10.28157 12.26876,-20.13114c-0.6912,-6.91198 -3.19679,-12.26876 -6.73918,-14.42876c-3.36959,-1.98719 -5.70238,-2.15999 -9.67677,-0.5184l-2.76479,1.1232l0.3456,-4.83839c0.1728,-2.76479 0.9504,-5.52958 1.81439,-6.47998c1.6416,-1.81439 6.91198,-4.66559 11.75036,-6.30718c5.27038,-1.72799 18.66234,-0.9504 24.79673,1.3824z" fill="#ffffff"/><path d="M233.66445,615.85734c7.43038,2.93759 9.24477,4.92479 9.93597,10.88637c0.5184,4.75199 0.5184,5.01118 -1.0368,4.31999c-0.864,-0.432 -3.45599,-0.7776 -5.78878,-0.7776c-3.71519,0 -4.49279,0.3456 -6.73918,3.02399c-7.34398,8.81277 -5.96158,25.05592 2.67839,30.84471c5.27038,3.54239 10.97277,1.98719 14.77436,-4.23359l1.4688,-2.41919l1.90079,7.08478c1.0368,3.97439 3.45599,12.52796 5.35678,19.18074c3.28319,11.40477 3.97439,15.72475 1.6416,10.02237c-1.4688,-3.45599 -6.73918,-8.20798 -10.88637,-9.59037c-10.36797,-3.54239 -26.17912,1.1232 -35.68309,10.54077c-5.96158,5.96158 -8.29438,11.75036 -8.29438,20.64954c0,6.39358 0.3456,8.03518 2.50559,12.35516c5.87518,11.57757 19.95834,19.61274 34.3007,19.61274c6.99838,0 11.14557,-1.6416 14.16956,-5.52958c4.57919,-5.96158 8.12158,-19.18074 8.29438,-30.15351l0.0864,-6.22078l2.07359,7.77598c1.1232,4.31999 2.41919,12.52796 2.85119,18.57594c0.7776,10.62717 0.7776,10.88637 -1.2096,13.99676c-8.20798,12.61436 -28.77111,14.68796 -49.42065,5.01118c-20.90874,-9.67677 -38.10229,-33.8687 -43.11347,-60.22062c-1.0368,-5.70238 -1.296,-10.54077 -0.9504,-19.26714c0.3456,-10.10877 0.7776,-12.78716 3.11039,-19.87194c6.22078,-18.66234 17.71195,-31.44951 32.7455,-36.37429c6.65278,-2.24639 18.48954,-1.81439 25.22872,0.7776z" fill="#ffffff"/><path d="M292.15708,619.91813c8.29438,2.50559 7.86238,1.296 10.19517,27.64792c2.50559,26.95672 3.62879,35.42389 5.27038,38.53428c1.72799,3.45599 5.52958,6.22078 15.11995,11.31837c10.88637,5.61598 17.19355,11.57757 19.78554,18.66234c1.5552,4.06079 1.81439,6.30718 1.5552,12.78716c-0.2592,6.73918 -0.6912,8.63997 -3.19679,13.65116c-3.28319,6.82558 -9.41757,13.13276 -15.81115,16.32955c-14.68796,7.43038 -36.80629,5.96158 -46.39666,-3.11039c-4.66559,-4.49279 -6.13438,-8.98557 -7.08478,-22.11833c-0.864,-12.52796 -2.93759,-22.20473 -8.89917,-42.85427c-10.02237,-34.1279 -14.94715,-55.46863 -13.91036,-60.13422c0.432,-1.90079 1.72799,-3.19679 5.01118,-5.09758c4.14719,-2.41919 12.70076,-5.44318 17.88475,-6.30718c5.18398,-0.864 16.41595,-0.5184 20.47674,0.6912z" fill="#ffffff"/><path d="M431.95186,621.38693c6.47998,1.1232 17.27995,6.13438 19.00794,8.72637c2.15999,3.28319 -0.2592,14.34236 -11.57757,54.17264c-8.20798,28.85751 -9.33117,33.9551 -10.36797,47.95186c-0.7776,10.02237 -1.296,12.87356 -3.19679,16.67515c-3.80159,7.68958 -12.61436,12.09596 -25.91992,12.87356c-18.92154,1.1232 -33.0047,-6.30718 -40.34868,-21.25434c-2.59199,-5.35678 -2.76479,-6.30718 -2.76479,-14.77436c0,-10.79997 1.0368,-13.39196 8.20798,-20.90874c3.62879,-3.80159 7.25758,-6.30718 15.11995,-10.45437c15.29275,-8.03518 14.34236,-5.44318 18.48954,-51.66704c0.9504,-10.88637 1.81439,-16.58875 2.59199,-17.53915c4.14719,-5.01118 16.07035,-6.47998 30.75831,-3.80159z" fill="#ffffff"/><path d="M468.15335,634.95169c6.13438,6.73918 4.57919,20.39034 -2.67839,23.84633c-2.93759,1.3824 -3.19679,1.3824 -5.35678,-0.1728c-2.67839,-2.07359 -5.18398,-8.03518 -5.18398,-12.61436c-0.0864,-4.06079 1.98719,-9.24477 4.49279,-11.14557c2.59199,-2.07359 6.91198,-1.98719 8.72637,0.0864z" fill="#ffffff"/><path d="M240.83563,635.98848c6.22078,2.85119 7.43038,15.29275 2.15999,22.46393c-6.56638,8.81277 -16.76155,-4.40639 -12.70076,-16.58875c2.07359,-6.04798 5.70238,-8.03518 10.54077,-5.87518z" fill="#ffffff"/><path d="M248.26601,689.98832c8.29438,4.92479 11.57757,18.48954 8.29438,34.1279c-1.72799,8.12158 -3.88799,12.87356 -7.17118,15.63835c-7.60318,6.39358 -26.78392,1.72799 -36.28789,-8.72637c-4.66559,-5.18398 -5.78878,-8.38077 -5.78878,-16.07035c0,-5.96158 0.3456,-7.43038 2.33279,-10.97277c5.78878,-9.67677 19.26714,-16.67515 31.10391,-15.89755c2.67839,0.1728 6.04798,1.0368 7.51678,1.90079z" fill="#ffffff"/><path d="M171.62944,102.55649c-9.50397,38.18868 -13.47836,68.16939 -11.40477,86.31334c1.6416,14.34236 4.40639,21.16794 11.92316,29.03031c17.02075,17.88475 39.13908,14.94715 49.42065,-6.56638c2.67839,-5.70238 5.18398,-14.51516 5.18398,-18.14395c0,-2.67839 -0.3456,-2.59199 7.34398,-0.9504c7.86238,1.6416 13.65116,1.6416 19.43994,-0.0864c8.89917,-2.67839 14.86076,-8.72637 18.14395,-18.48954c1.6416,-4.83839 1.81439,-6.91198 1.4688,-15.11995c-0.864,-21.42714 -9.76317,-34.2143 -31.6223,-45.61906c-9.84957,-5.09758 -19.78554,-8.98557 -43.71827,-17.10715c-10.88637,-3.62879 -20.47674,-6.91198 -21.25434,-7.17118c-1.0368,-0.5184 -1.90079,1.98719 -4.92479,13.91036z" fill="#000000"/><path d="M229.86286,112.66526c28.51191,12.26876 39.22548,25.40152 39.22548,48.21105c0,12.26876 -4.23359,20.73594 -12.44156,25.14232c-4.92479,2.67839 -20.04474,2.67839 -27.56152,0c-3.45599,-1.2096 -5.09758,-1.4688 -5.35678,-0.7776c-0.0864,0.5184 -0.6912,4.06079 -1.296,7.86238c-3.88799,25.31512 -18.83514,37.15189 -36.80629,28.94391c-10.19517,-4.57919 -17.62555,-14.16956 -20.30394,-26.35192c-1.6416,-7.25758 -1.3824,-30.32631 0.432,-42.76787c2.59199,-17.27995 9.41757,-49.59345 12.09596,-57.54223c0.432,-1.1232 38.53428,11.49117 52.01264,17.27995z" fill="#ffffff"/><path d="M531.74355,94.60771c-3.54239,1.1232 -14.42876,4.23359 -24.10553,6.91198c-28.51191,8.03518 -44.40947,15.11995 -54.69104,24.53753c-10.88637,9.93597 -16.76155,29.72151 -13.30556,44.58227c3.28319,13.99676 11.75036,21.77273 25.40152,23.15513c4.06079,0.432 13.99676,-0.5184 17.71195,-1.6416c1.1232,-0.3456 1.4688,0.0864 1.4688,1.98719c0.0864,4.83839 2.67839,14.60156 5.52958,20.64954c3.54239,7.51678 8.55357,12.70076 14.94715,15.63835c6.47998,2.93759 15.81115,2.59199 23.06873,-0.9504c10.02237,-4.92479 18.23035,-14.94715 21.42714,-26.26552c3.36959,-12.09596 3.36959,-37.41109 -0.0864,-61.51661c-2.50559,-17.88475 -8.89917,-49.24785 -10.02237,-49.16145c-0.432,0.0864 -3.80159,0.9504 -7.34398,2.07359z" fill="#000000"/><path d="M538.22354,104.88928c5.87518,26.69752 9.24477,52.70384 9.24477,71.79818c0,22.37753 -2.76479,32.3135 -11.49117,41.03988c-11.92316,11.92316 -27.99352,13.04636 -37.41109,2.59199c-5.61598,-6.22078 -9.15837,-15.89755 -10.45437,-28.33911c-0.5184,-4.92479 -0.864,-6.22078 -1.81439,-5.87518c-0.6912,0.2592 -4.40639,1.1232 -8.29438,1.90079c-16.32955,3.28319 -28.85751,-2.07359 -33.0911,-14.25596c-3.36959,-9.67677 -2.15999,-22.89593 3.11039,-33.5231c6.39358,-13.13276 22.55033,-22.80953 53.04944,-31.7087c11.75036,-3.45599 34.3007,-9.84957 35.07829,-9.93597c0.3456,-0.0864 1.2096,2.76479 2.07359,6.30718z" fill="#ffffff"/><path d="M248.78441,323.39423c-14.08316,4.75199 -24.36473,17.45275 -26.61112,32.8319c-2.50559,17.36635 6.65278,35.25109 21.68633,42.33587c5.27038,2.50559 6.56638,2.76479 13.99676,2.76479c7.43038,0 8.72637,-0.2592 13.82396,-2.67839c10.88637,-5.18398 19.43994,-16.93435 21.59993,-29.54871c2.93759,-17.53915 -6.13438,-36.02869 -21.34074,-43.54547c-4.31999,-2.07359 -6.65278,-2.67839 -12.52796,-2.93759c-4.57919,-0.2592 -8.46717,0.0864 -10.62717,0.7776z" fill="#000000"/><path d="M258.37478,330.2198c7.77598,5.35678 7.34398,18.23035 -0.6912,23.15513c-8.38077,5.09758 -17.97115,-1.296 -17.97115,-11.83676c0,-7.86238 4.92479,-13.21916 12.00956,-13.21916c2.59199,0 4.83839,0.6048 6.65278,1.90079z" fill="#ffffff"/><path d="M236.17005,356.31253c2.59199,1.3824 4.40639,4.57919 4.40639,7.94878c0,2.50559 -4.23359,7.25758 -6.47998,7.25758c-4.31999,0 -8.89917,-5.44318 -7.68958,-9.33117c1.4688,-4.40639 2.93759,-5.96158 7.08478,-6.99838c0.1728,-0.0864 1.296,0.432 2.67839,1.1232z" fill="#ffffff"/><path d="M441.28303,324.43102c-14.94715,4.57919 -26.17912,20.90874 -26.17912,37.75669c0,11.14557 4.66559,22.55033 12.44156,30.23991c17.10715,16.84795 43.71827,11.66396 55.03663,-10.62717c3.11039,-6.30718 4.31999,-11.66396 4.31999,-19.43994c0,-13.82396 -5.61598,-25.14232 -16.58875,-33.3503c-7.17118,-5.35678 -20.04474,-7.43038 -29.03031,-4.57919z" fill="#000000"/><path d="M453.29259,330.5654c3.54239,1.81439 5.87518,6.30718 5.87518,11.49117c0,7.86238 -4.14719,13.04636 -10.97277,13.65116c-7.51678,0.6048 -13.21916,-5.01118 -13.21916,-12.95996c0,-11.05917 8.81277,-16.93435 18.31674,-12.18236z" fill="#ffffff"/><path d="M430.05106,353.46133c2.24639,1.0368 4.06079,4.06079 4.06079,6.91198c0,2.41919 -2.24639,6.47998 -3.88799,7.17118c-6.56638,2.50559 -12.26876,-3.71519 -9.50397,-10.36797c1.81439,-4.31999 5.09758,-5.61598 9.33117,-3.71519z" fill="#ffffff"/><path d="M491.99967,626.83011c-8.98557,6.65278 -11.40477,18.66234 -5.70238,28.33911c5.61598,9.67677 15.98395,8.63997 20.56314,-1.90079c1.98719,-4.57919 2.24639,-15.29275 0.6048,-20.82234c-2.24639,-7.43038 -9.50397,-10.02237 -15.46555,-5.61598z" fill="#000000"/><path d="M500.72605,629.8541c1.81439,0 3.62879,5.78878 3.62879,12.09596c0.0864,7.86238 -1.90079,12.61436 -5.70238,14.25596c-3.36959,1.3824 -5.27038,0.7776 -7.94878,-2.33279c-3.02399,-3.62879 -3.97439,-7.86238 -2.93759,-12.95996c1.3824,-6.30718 7.43038,-12.61436 10.97277,-11.40477c0.6912,0.1728 1.5552,0.3456 1.98719,0.3456z" fill="#ffffff"/><path d="M505.39163,663.4636c-4.14719,2.50559 -9.41757,8.81277 -11.92316,14.16956c-2.24639,4.57919 -2.33279,5.09758 -1.1232,7.94878c3.11039,7.34398 15.37915,9.41757 22.98233,3.71519c7.60318,-5.52958 8.81277,-18.48954 2.41919,-24.96952c-3.02399,-3.02399 -8.29438,-3.36959 -12.35516,-0.864z" fill="#000000"/><path d="M515.0684,668.04279c1.72799,1.3824 3.02399,6.65278 2.50559,9.76317c-0.6912,3.45599 -3.28319,6.91198 -6.56638,8.63997c-5.52958,2.85119 -14.68796,0.6048 -14.68796,-3.62879c0,-4.23359 8.03518,-14.25596 12.95996,-16.07035c1.4688,-0.5184 4.23359,0.0864 5.78878,1.296z" fill="#ffffff"/><path d="M457.00778,681.60755c-6.82558,1.72799 -11.31837,5.87518 -14.94715,13.82396c-3.11039,6.82558 -3.62879,18.48954 -1.1232,28.85751c3.88799,16.41595 8.72637,21.34074 20.99514,21.34074c14.86076,0 28.51191,-8.20798 34.2143,-20.56314c3.02399,-6.56638 3.28319,-16.76155 0.432,-22.80953c-3.71519,-8.12158 -12.95996,-15.89755 -22.55033,-18.83514c-6.04798,-1.90079 -13.56476,-2.67839 -17.02075,-1.81439z" fill="#000000"/><path d="M470.14054,687.22353c10.02237,2.67839 17.36635,7.77598 21.68633,15.11995c1.98719,3.45599 2.33279,4.92479 2.33279,10.88637c0,5.44318 -0.432,7.68958 -1.90079,10.45437c-4.49279,8.38077 -14.51516,14.94715 -25.83352,16.84795c-10.54077,1.72799 -15.98395,-1.1232 -19.26714,-10.02237c-2.41919,-6.65278 -3.80159,-15.98395 -3.36959,-23.06873c1.0368,-16.84795 10.88637,-24.36473 26.35192,-20.21754z" fill="#ffffff"/><path d="M197.46296,628.55811c-3.28319,2.85119 -4.49279,6.65278 -4.57919,14.42876c-0.0864,8.46717 1.296,12.95996 5.27038,17.10715c2.76479,2.93759 3.80159,3.45599 6.82558,3.45599c6.82558,0 13.04636,-8.12158 13.13276,-16.93435c0,-14.25596 -12.26876,-25.05592 -20.64954,-18.05755z" fill="#000000"/><path d="M206.96693,632.70529c4.75199,3.19679 6.91198,7.86238 6.65278,13.99676c-0.5184,8.81277 -5.70238,13.99676 -11.14557,11.14557c-3.62879,-1.81439 -5.35678,-6.39358 -5.44318,-13.73756c-0.0864,-6.82558 1.4688,-11.49117 4.14719,-12.52796c2.59199,-1.0368 2.59199,-1.0368 5.78878,1.1232z" fill="#ffffff"/><path d="M183.5526,665.96919c-4.66559,4.66559 -5.35678,12.95996 -1.6416,20.13114c5.18398,10.28157 23.24153,11.05917 27.21592,1.1232c1.0368,-2.41919 0.864,-3.19679 -1.3824,-7.94878c-2.67839,-5.70238 -8.46717,-12.52796 -12.18236,-14.51516c-4.14719,-2.07359 -9.15837,-1.5552 -12.00956,1.2096z" fill="#000000"/><path d="M193.57497,669.25238c4.75199,2.24639 11.57757,11.57757 11.57757,15.89755c0,1.296 -0.9504,2.15999 -3.02399,3.11039c-6.47998,2.67839 -13.30556,0.6912 -16.93435,-5.01118c-2.50559,-4.06079 -1.90079,-10.62717 1.296,-13.39196c2.76479,-2.33279 3.28319,-2.41919 7.08478,-0.6048z" fill="#ffffff"/><path d="M353.58729,806.71437c0.6048,0.2592 1.3824,0.1728 1.6416,-0.0864c0.3456,-0.2592 -0.1728,-0.5184 -1.1232,-0.432c-0.9504,0 -1.2096,0.2592 -0.5184,0.5184z" fill="#000000"/></g></g></g></svg>