<?xml version="1.0" standalone="no"?>
<!DOCTYPE svg PUBLIC "-//W3C//DTD SVG 20010904//EN"
 "http://www.w3.org/TR/2001/REC-SVG-20010904/DTD/svg10.dtd">
<svg version="1.0" xmlns="http://www.w3.org/2000/svg"
 width="720.000000pt" height="960.000000pt" viewBox="0 0 720.000000 960.000000"
 preserveAspectRatio="xMidYMid meet">
<metadata>
Created by potrace 1.14, written by Peter Selinger 2001-2017
</metadata>
<g transform="translate(0.000000,960.000000) scale(0.100000,-0.100000)"
fill="#000000" stroke="none">
<path fill="#000000" stroke="none" d="M1021 8888 c-53 -27 -66 -70 -68 -223
-2 -177 -25 -288 -123 -590 -115 -355 -144 -496 -144 -700 0 -124 3 -165 22
-235 26 -99 78 -208 135 -283 21 -28 55 -83 74 -122 28 -58 33 -78 29 -115 -9
-91 -143 -456 -246 -675 -79 -170 -162 -239 -319 -269 -41 -8 -78 -20 -83 -28
-24 -36 20 -116 142 -258 123 -144 739 -749 854 -840 241 -190 529 -371 834
-524 51 -25 92 -49 92 -52 0 -3 -6 -17 -14 -32 -19 -37 -72 -202 -90 -281 -11
-47 -24 -74 -49 -100 -135 -143 -160 -317 -121 -837 9 -123 14 -227 12 -230
-3 -3 -24 5 -46 16 -258 135 -582 -10 -727 -324 -67 -143 -80 -211 -79 -401 0
-150 4 -181 27 -267 81 -305 301 -579 542 -677 142 -57 287 -74 395 -47 70 18
158 72 185 112 l16 25 26 -50 c47 -95 142 -150 295 -172 143 -21 321 22 420
101 l37 30 173 0 173 0 43 -30 c133 -90 363 -111 530 -48 66 25 143 96 163
151 7 20 16 37 20 37 3 0 16 -13 29 -30 12 -16 44 -43 69 -59 179 -115 486
-58 715 133 212 176 365 509 366 794 l0 57 92 29 c221 71 465 221 666 410 327
309 586 779 687 1247 15 68 36 148 46 177 28 78 47 200 54 347 8 189 36 1437
32 1442 -2 2 -14 -25 -27 -59 -38 -107 -134 -300 -195 -392 -217 -330 -481
-551 -805 -674 -117 -45 -283 -78 -584 -117 -307 -40 -437 -69 -570 -128 -151
-66 -312 -191 -382 -297 l-28 -41 -27 78 c-15 42 -27 78 -26 79 1 0 65 34 142
74 334 175 623 367 915 608 144 120 424 399 472 472 82 126 284 559 274 587
-4 9 -29 13 -85 13 -130 0 -272 59 -353 146 -88 95 -179 420 -180 640 l0 91
75 154 c259 529 331 1158 201 1749 -73 328 -149 398 -352 326 -74 -27 -697
-257 -887 -329 -234 -88 -339 -150 -443 -263 -81 -87 -123 -167 -151 -288 -21
-89 -54 -176 -67 -176 -3 0 -57 27 -118 59 -155 83 -246 111 -378 118 -166 9
-301 -19 -517 -106 -56 -23 -105 -41 -110 -41 -5 0 -12 15 -16 33 -12 59 -48
161 -78 222 -94 191 -289 371 -534 494 -123 61 -226 102 -536 212 -155 55
-311 110 -347 123 -88 32 -139 39 -169 24z"/>
<path fill="#ffffff" stroke="none" d="M1331 8754 c504 -177 648 -234 794
-315 133 -74 203 -127 290 -221 126 -136 192 -259 222 -418 12 -63 21 -90 31
-90 8 0 78 24 156 54 292 113 447 135 627 90 70 -17 181 -64 251 -105 108 -64
153 -67 183 -10 8 17 30 87 48 155 39 145 75 212 163 300 116 118 178 147 771
365 210 77 421 156 470 175 125 49 169 54 213 24 65 -44 98 -130 145 -383 35
-190 49 -374 42 -565 -14 -395 -96 -726 -260 -1060 l-72 -145 -4 -100 c-1 -55
2 -133 9 -175 28 -182 94 -393 149 -477 69 -105 205 -185 352 -205 46 -6 85
-12 87 -13 11 -7 -224 -483 -262 -529 l-24 -29 -40 32 c-76 62 -208 86 -305
57 l-46 -14 6 152 c21 540 -129 888 -453 1050 -101 50 -166 67 -285 73 -209
11 -381 -44 -570 -183 -282 -208 -493 -549 -612 -994 -29 -108 -127 -537 -127
-556 0 -3 -4 -3 -9 0 -5 3 -12 23 -15 43 -13 72 -98 369 -153 533 -146 434
-301 712 -515 916 -181 174 -358 258 -568 271 -249 15 -492 -102 -631 -303
-130 -189 -189 -464 -175 -811 l6 -163 -47 0 c-87 0 -211 -78 -252 -157 l-17
-34 -215 218 c-189 192 -339 366 -339 393 0 5 12 12 27 16 158 34 242 90 319
210 89 139 304 716 304 816 0 42 -42 133 -106 230 -88 132 -129 229 -149 348
-36 222 -9 399 120 800 106 331 127 422 132 585 6 207 14 235 68 235 12 0 132
-39 266 -86z"/>
<path fill="#ffffff" stroke="none" d="M2132 6385 c46 -9 114 -35 183 -70 377
-188 635 -622 855 -1440 36 -136 49 -208 34 -193 -8 8 -118 -18 -187 -45 -70
-26 -143 -80 -175 -127 -20 -29 -23 -44 -20 -93 3 -39 11 -66 26 -85 11 -15
57 -77 101 -139 45 -61 101 -129 125 -150 107 -94 281 -96 391 -5 21 16 67 73
103 126 37 52 84 120 105 149 50 70 57 120 27 181 -39 81 -165 154 -307 179
-35 6 -63 15 -63 19 0 32 115 522 149 638 92 305 224 534 429 743 201 205 396
298 627 300 123 1 201 -15 302 -63 325 -151 459 -472 439 -1048 -5 -142 -3
-184 6 -187 7 -3 35 6 62 20 55 28 140 33 210 14 43 -12 116 -54 116 -67 0
-13 -254 -261 -355 -347 -211 -180 -494 -377 -769 -535 -519 -298 -1097 -487
-1373 -449 -347 47 -970 306 -1445 601 -254 157 -437 298 -629 485 -156 153
-159 157 -125 212 54 84 188 137 256 101 20 -11 25 -10 37 6 7 10 11 25 7 34
-3 8 -8 101 -11 205 -9 307 19 478 108 660 93 193 250 322 447 370 77 18 224
18 314 0z"/>
<path fill="#ffffff" stroke="none" d="M6843 4688 c-17 -785 -25 -875 -94
-1016 -34 -69 -76 -109 -184 -173 -88 -53 -156 -110 -206 -173 -22 -27 -39
-42 -39 -34 0 14 66 394 76 437 l5 24 -85 -6 c-129 -9 -264 -61 -374 -144 -18
-14 -35 -23 -38 -21 -8 8 71 121 126 181 29 32 83 79 119 104 96 68 97 66 -7
59 -118 -9 -257 -44 -371 -94 l-89 -40 23 53 c38 86 46 131 46 261 0 152 3
156 139 208 377 144 721 458 912 833 24 45 45 83 48 83 3 0 0 -244 -7 -542z"/>
<path fill="#ffffff" stroke="none" d="M3439 4500 c95 -11 130 -31 98 -55 -29
-21 -123 -27 -342 -23 -204 3 -245 11 -245 44 0 8 6 17 14 20 55 21 340 30
475 14z"/>
<path fill="#ffffff" stroke="none" d="M5704 4128 c-1 -118 -5 -154 -24 -208
-25 -75 -59 -136 -102 -186 -26 -30 -29 -37 -17 -52 7 -9 14 -18 15 -20 1 -2
26 12 55 31 109 69 239 125 351 152 l58 13 -42 -50 c-61 -71 -105 -134 -140
-203 -31 -61 -91 -225 -84 -232 2 -2 28 24 57 57 62 71 171 157 246 194 62 31
185 66 230 66 29 0 33 -3 28 -22 -3 -13 -28 -151 -55 -308 -28 -157 -53 -296
-56 -310 -4 -14 23 22 57 80 80 130 203 259 306 318 39 23 85 54 103 68 17 15
33 25 35 23 9 -10 -64 -250 -116 -382 -231 -579 -666 -1032 -1172 -1221 -54
-20 -102 -34 -106 -32 -5 3 -11 31 -15 63 -4 31 -20 97 -36 146 -126 374 -457
558 -755 418 -40 -18 -65 -25 -65 -18 0 7 7 102 15 212 34 431 16 627 -68 754
-13 20 -34 81 -47 139 -23 103 -23 104 -4 140 10 21 62 80 114 133 86 86 107
101 210 151 174 85 295 115 665 163 158 21 359 56 360 64 0 0 0 -63 -1 -141z"/>
<path fill="#ffffff" stroke="none" d="M2343 3922 c34 -16 94 -41 134 -57 l71
-29 -24 -49 c-30 -58 -84 -220 -84 -250 0 -19 -4 -17 -37 17 -56 58 -107 80
-180 80 -35 0 -63 0 -63 0 0 1 11 40 24 88 31 114 75 228 88 228 5 0 37 -13
71 -28z"/>
<path fill="#ffffff" stroke="none" d="M4238 3863 c17 -47 82 -268 82 -279 0
-2 -21 6 -47 18 -58 25 -140 21 -194 -11 l-36 -21 -7 42 c-3 24 -16 80 -28
126 -11 45 -19 84 -16 87 7 8 202 93 214 94 6 1 21 -25 32 -56z"/>
<path fill="#ffffff" stroke="none" d="M2786 3751 c224 -75 351 -101 482 -101
130 0 307 35 504 100 84 28 155 50 159 50 11 0 34 -79 55 -184 l16 -84 -40
-68 c-105 -179 -191 -551 -212 -916 -11 -196 -55 -685 -70 -782 -6 -37 -17
-68 -31 -82 -12 -13 -72 -49 -133 -81 -196 -103 -276 -207 -284 -374 -5 -97
12 -170 58 -256 l28 -53 -32 -5 c-39 -6 -90 -8 -138 -6 l-37 1 29 62 c39 82
53 156 48 248 -10 167 -106 283 -315 379 -100 46 -120 70 -132 156 -24 173
-59 558 -67 744 -14 334 -75 657 -161 860 -19 47 -35 100 -35 116 2 68 98 335
121 335 4 0 88 -27 187 -59z"/>
<path fill="#ffffff" stroke="none" d="M2306 3561 c104 -47 186 -221 258 -547
33 -151 77 -547 61 -562 -2 -3 -11 0 -18 6 -7 6 -42 19 -78 28 -123 32 -334
-1 -451 -71 -32 -19 -58 -30 -58 -26 0 5 -10 134 -21 288 -42 548 -23 715 96
837 64 66 134 82 211 47z"/>
<path fill="#ffffff" stroke="none" d="M4269 3541 c76 -39 126 -117 157 -247
28 -111 19 -419 -22 -865 l-6 -67 -42 29 c-24 15 -78 40 -122 55 -69 24 -95
27 -209 28 -104 1 -140 -3 -178 -18 -27 -10 -50 -16 -52 -14 -10 10 17 294 40
435 64 379 168 625 285 672 41 16 108 12 149 -8z"/>
<path fill="#ffffff" stroke="none" d="M4892 2491 c161 -62 298 -234 360 -448
19 -66 23 -102 23 -238 0 -142 -3 -170 -27 -255 -118 -424 -445 -705 -801
-688 -108 5 -171 32 -230 97 -47 52 -51 72 -43 198 7 119 11 136 117 515 43
153 81 293 85 313 3 19 9 35 13 35 3 0 14 -17 23 -38 21 -45 63 -72 112 -72
81 0 154 119 142 233 -8 80 -37 142 -78 167 -39 23 -66 25 -112 6 l-32 -13 4
56 c2 32 11 64 21 75 19 21 80 54 136 73 61 20 216 11 287 -16z"/>
<path fill="#ffffff" stroke="none" d="M1860 2472 c86 -34 107 -57 115 -126 6
-55 6 -58 -12 -50 -10 5 -40 9 -67 9 -43 0 -52 -4 -78 -35 -85 -102 -69 -290
31 -357 61 -41 127 -23 171 49 l17 28 22 -82 c12 -46 40 -145 62 -222 38 -132
46 -182 19 -116 -17 40 -78 95 -126 111 -120 41 -303 -13 -413 -122 -69 -69
-96 -136 -96 -239 0 -74 4 -93 29 -143 68 -134 231 -227 397 -227 81 0 129 19
164 64 53 69 94 222 96 349 l1 72 24 -90 c13 -50 28 -145 33 -215 9 -123 9
-126 -14 -162 -95 -146 -333 -170 -572 -58 -242 112 -441 392 -499 697 -12 66
-15 122 -11 223 4 117 9 148 36 230 72 216 205 364 379 421 77 26 214 21 292
-9z"/>
<path fill="#ffffff" stroke="none" d="M2537 2425 c96 -29 91 -15 118 -320 29
-312 42 -410 61 -446 20 -40 64 -72 175 -131 126 -65 199 -134 229 -216 18
-47 21 -73 18 -148 -3 -78 -8 -100 -37 -158 -38 -79 -109 -152 -183 -189 -170
-86 -426 -69 -537 36 -54 52 -71 104 -82 256 -10 145 -34 257 -103 496 -116
395 -173 642 -161 696 5 22 20 37 58 59 48 28 147 63 207 73 60 10 190 6 237
-8z"/>
<path fill="#ffffff" stroke="none" d="M4155 2408 c75 -13 200 -71 220 -101
25 -38 -3 -166 -134 -627 -95 -334 -108 -393 -120 -555 -9 -116 -15 -149 -37
-193 -44 -89 -146 -140 -300 -149 -219 -13 -382 73 -467 246 -30 62 -32 73
-32 171 0 125 12 155 95 242 42 44 84 73 175 121 177 93 166 63 214 598 11
126 21 192 30 203 48 58 186 75 356 44z"/>
<path fill="#ffffff" stroke="none" d="M4574 2251 c71 -78 53 -236 -31 -276
-34 -16 -37 -16 -62 2 -31 24 -60 93 -60 146 -1 47 23 107 52 129 30 24 80 23
101 -1z"/>
<path fill="#ffffff" stroke="none" d="M1943 2239 c72 -33 86 -177 25 -260
-76 -102 -194 51 -147 192 24 70 66 93 122 68z"/>
<path fill="#ffffff" stroke="none" d="M2029 1614 c96 -57 134 -214 96 -395
-20 -94 -45 -149 -83 -181 -88 -74 -310 -20 -420 101 -54 60 -67 97 -67 186 0
69 4 86 27 127 67 112 223 193 360 184 31 -2 70 -12 87 -22z"/>
<path fill="#000000" stroke="none" d="M1142 8413 c-110 -442 -156 -789 -132
-999 19 -166 51 -245 138 -336 197 -207 453 -173 572 76 31 66 60 168 60 210
0 31 -4 30 85 11 91 -19 158 -19 225 1 103 31 172 101 210 214 19 56 21 80 17
175 -10 248 -113 396 -366 528 -114 59 -229 104 -506 198 -126 42 -237 80
-246 83 -12 6 -22 -23 -57 -161z"/>
<path fill="#ffffff" stroke="none" d="M1816 8296 c330 -142 454 -294 454
-558 0 -142 -49 -240 -144 -291 -57 -31 -232 -31 -319 0 -40 14 -59 17 -62 9
-1 -6 -8 -47 -15 -91 -45 -293 -218 -430 -426 -335 -118 53 -204 164 -235 305
-19 84 -16 351 5 495 30 200 109 574 140 666 5 13 446 -133 602 -200z"/>
<path fill="#000000" stroke="none" d="M5310 8505 c-41 -13 -167 -49 -279 -80
-330 -93 -514 -175 -633 -284 -126 -115 -194 -344 -154 -516 38 -162 136 -252
294 -268 47 -5 162 6 205 19 13 4 17 -1 17 -23 1 -56 31 -169 64 -239 41 -87
99 -147 173 -181 75 -34 183 -30 267 11 116 57 211 173 248 304 39 140 39 433
-1 712 -29 207 -103 570 -116 569 -5 -1 -44 -11 -85 -24z"/>
<path fill="#ffffff" stroke="none" d="M5385 8386 c68 -309 107 -610 107 -831
0 -259 -32 -374 -133 -475 -138 -138 -324 -151 -433 -30 -65 72 -106 184 -121
328 -6 57 -10 72 -21 68 -8 -3 -51 -13 -96 -22 -189 -38 -334 24 -383 165 -39
112 -25 265 36 388 74 152 261 264 614 367 136 40 397 114 406 115 4 1 14 -32
24 -73z"/>
<path fill="#000000" stroke="none" d="M2035 5857 c-163 -55 -282 -202 -308
-380 -29 -201 77 -408 251 -490 61 -29 76 -32 162 -32 86 0 101 3 160 31 126
60 225 196 250 342 34 203 -71 417 -247 504 -50 24 -77 31 -145 34 -53 3 -98
-1 -123 -9z"/>
<path fill="#ffffff" stroke="none" d="M2146 5778 c90 -62 85 -211 -8 -268
-97 -59 -208 15 -208 137 0 91 57 153 139 153 30 0 56 -7 77 -22z"/>
<path fill="#ffffff" stroke="none" d="M1889 5476 c30 -16 51 -53 51 -92 0
-29 -49 -84 -75 -84 -50 0 -103 63 -89 108 17 51 34 69 82 81 2 1 15 -5 31
-13z"/>
<path fill="#000000" stroke="none" d="M4263 5845 c-173 -53 -303 -242 -303
-437 0 -129 54 -261 144 -350 198 -195 506 -135 637 123 36 73 50 135 50 225
0 160 -65 291 -192 386 -83 62 -232 86 -336 53z"/>
<path fill="#ffffff" stroke="none" d="M4402 5774 c41 -21 68 -73 68 -133 0
-91 -48 -151 -127 -158 -87 -7 -153 58 -153 150 0 128 102 196 212 141z"/>
<path fill="#ffffff" stroke="none" d="M4133 5509 c26 -12 47 -47 47 -80 0
-28 -26 -75 -45 -83 -76 -29 -142 43 -110 120 21 50 59 65 108 43z"/>
<path fill="#000000" stroke="none" d="M4850 2345 c-104 -77 -132 -216 -66
-328 65 -112 185 -100 238 22 23 53 26 177 7 241 -26 86 -110 116 -179 65z"/>
<path fill="#ffffff" stroke="none" d="M4951 2310 c21 0 42 -67 42 -140 1 -91
-22 -146 -66 -165 -39 -16 -61 -9 -92 27 -35 42 -46 91 -34 150 16 73 86 146
127 132 8 -2 18 -4 23 -4z"/>
<path fill="#000000" stroke="none" d="M5005 1921 c-48 -29 -109 -102 -138
-164 -26 -53 -27 -59 -13 -92 36 -85 178 -109 266 -43 88 64 102 214 28 289
-35 35 -96 39 -143 10z"/>
<path fill="#ffffff" stroke="none" d="M5117 1868 c20 -16 35 -77 29 -113 -8
-40 -38 -80 -76 -100 -64 -33 -170 -7 -170 42 0 49 93 165 150 186 17 6 49 -1
67 -15z"/>
<path fill="#000000" stroke="none" d="M4445 1711 c-79 -20 -131 -68 -173
-160 -36 -79 -42 -214 -13 -334 45 -190 101 -247 243 -247 172 0 330 95 396
238 35 76 38 194 5 264 -43 94 -150 184 -261 218 -70 22 -157 31 -197 21z"/>
<path fill="#ffffff" stroke="none" d="M4597 1646 c116 -31 201 -90 251 -175
23 -40 27 -57 27 -126 0 -63 -5 -89 -22 -121 -52 -97 -168 -173 -299 -195
-122 -20 -185 13 -223 116 -28 77 -44 185 -39 267 12 195 126 282 305 234z"/>
<path fill="#000000" stroke="none" d="M1441 2325 c-38 -33 -52 -77 -53 -167
-1 -98 15 -150 61 -198 32 -34 44 -40 79 -40 79 0 151 94 152 196 0 165 -142
290 -239 209z"/>
<path fill="#ffffff" stroke="none" d="M1551 2277 c55 -37 80 -91 77 -162 -6
-102 -66 -162 -129 -129 -42 21 -62 74 -63 159 -1 79 17 133 48 145 30 12 30
12 67 -13z"/>
<path fill="#000000" stroke="none" d="M1280 1892 c-54 -54 -62 -150 -19 -233
60 -119 269 -128 315 -13 12 28 10 37 -16 92 -31 66 -98 145 -141 168 -48 24
-106 18 -139 -14z"/>
<path fill="#ffffff" stroke="none" d="M1396 1854 c55 -26 134 -134 134 -184
0 -15 -11 -25 -35 -36 -75 -31 -154 -8 -196 58 -29 47 -22 123 15 155 32 27
38 28 82 7z"/>
<path fill="#000000" stroke="none" d="M3248 263 c7 -3 16 -2 19 1 4 3 -2 6
-13 5 -11 0 -14 -3 -6 -6z"/>
</g>
</svg>
