<?xml version="1.0" standalone="no"?>
<!DOCTYPE svg PUBLIC "-//W3C//DTD SVG 20010904//EN"
 "http://www.w3.org/TR/2001/REC-SVG-20010904/DTD/svg10.dtd">
<svg version="1.0" xmlns="http://www.w3.org/2000/svg"
 width="500.000000pt" height="354.000000pt" viewBox="0 0 500.000000 354.000000"
 preserveAspectRatio="xMidYMid meet">
<metadata>
Created by potrace 1.14, written by Peter Selinger 2001-2017
</metadata>
<g transform="translate(0.000000,354.000000) scale(0.100000,-0.100000)"
fill="#000000" stroke="none">
<path fill="#000000" stroke="none" d="M4590 3420 c0 -27 5 -50 10 -50 6 0 10
23 10 50 0 28 -4 50 -10 50 -5 0 -10 -22 -10 -50z"/>
<path fill="#000000" stroke="none" d="M4830 3460 c0 -5 5 -10 10 -10 6 0 10
5 10 10 0 6 -4 10 -10 10 -5 0 -10 -4 -10 -10z"/>
<path fill="#000000" stroke="none" d="M4444 3426 c-15 -39 23 -74 50 -46 8 9
6 11 -11 5 -20 -5 -23 -3 -23 20 0 22 3 25 21 20 15 -5 19 -4 15 4 -10 16 -46
14 -52 -3z"/>
<path fill="#000000" stroke="none" d="M4514 3426 c-11 -29 0 -51 26 -51 21 0
25 5 25 30 0 24 -5 31 -23 33 -13 2 -24 -3 -28 -12z"/>
<path fill="#ffffff" stroke="none" d="M4550 3405 c0 -14 -4 -25 -10 -25 -5 0
-10 11 -10 25 0 14 5 25 10 25 6 0 10 -11 10 -25z"/>
<path fill="#000000" stroke="none" d="M4634 3426 c-11 -29 0 -51 26 -51 21 0
25 5 25 30 0 24 -5 31 -23 33 -13 2 -24 -3 -28 -12z"/>
<path fill="#ffffff" stroke="none" d="M4670 3405 c0 -14 -4 -25 -10 -25 -5 0
-10 11 -10 25 0 14 5 25 10 25 6 0 10 -11 10 -25z"/>
<path fill="#000000" stroke="none" d="M4710 3404 c0 -19 5 -34 10 -34 6 0 10
11 10 24 0 14 5 28 10 31 6 4 10 -7 10 -24 0 -17 5 -31 10 -31 6 0 10 11 10
24 0 14 5 28 10 31 6 4 10 -7 10 -24 0 -17 5 -31 11 -31 6 0 9 14 7 33 -3 31
-5 32 -50 33 l-48 2 0 -34z"/>
<path fill="#000000" stroke="none" d="M4830 3405 c0 -19 5 -35 10 -35 6 0 10
16 10 35 0 19 -4 35 -10 35 -5 0 -10 -16 -10 -35z"/>
<path fill="#000000" stroke="none" d="M4874 3426 c-11 -29 0 -51 26 -51 21 0
25 5 25 30 0 24 -5 31 -23 33 -13 2 -24 -3 -28 -12z"/>
<path fill="#ffffff" stroke="none" d="M4910 3405 c0 -14 -4 -25 -10 -25 -5 0
-10 11 -10 25 0 14 5 25 10 25 6 0 10 -11 10 -25z"/>
<path fill="#000000" stroke="none" d="M950 2783 c-14 -3 -54 -18 -90 -35 -60
-27 -71 -29 -137 -23 l-72 7 -60 -61 c-58 -60 -59 -62 -46 -89 8 -14 17 -47
21 -72 9 -71 24 -111 59 -161 18 -26 41 -62 50 -80 10 -19 31 -51 47 -71 16
-20 42 -77 59 -125 40 -120 64 -152 161 -216 89 -59 137 -77 208 -77 25 0 61
-5 80 -10 19 -6 67 -15 105 -20 87 -13 165 -38 172 -55 2 -8 34 -32 70 -55 68
-42 75 -59 30 -71 -26 -7 -148 -74 -225 -123 -41 -26 -150 -184 -168 -242 -8
-26 -12 -83 -10 -146 2 -81 -2 -120 -19 -184 l-22 -81 27 -91 c39 -131 65
-166 194 -257 31 -22 65 -50 76 -62 15 -17 31 -23 64 -23 67 0 84 20 97 115 5
44 19 109 30 145 17 53 20 88 18 197 -3 125 -2 134 19 156 12 13 22 28 22 34
0 5 12 23 26 38 20 21 24 34 19 54 -11 48 -17 130 -11 155 11 43 33 56 96 56
49 0 60 -3 72 -22 10 -14 38 -30 74 -41 33 -10 108 -34 168 -53 83 -27 137
-37 225 -44 248 -19 557 -33 796 -37 138 -2 284 -5 325 -7 41 -1 93 1 115 5
34 7 44 5 65 -15 14 -13 59 -48 100 -78 126 -93 230 -187 261 -238 30 -49 110
-109 219 -166 71 -37 170 -40 241 -7 60 27 132 91 124 111 -6 16 60 126 106
177 63 70 66 121 12 188 -23 28 -49 49 -66 53 -18 4 -27 11 -25 22 3 19 -55
54 -139 84 -32 11 -74 33 -94 49 -20 16 -48 29 -62 29 -13 0 -41 14 -62 30
-21 16 -44 30 -51 30 -8 0 -14 5 -14 10 0 15 47 12 80 -5 22 -11 27 -20 23
-36 -5 -19 -3 -21 20 -15 14 3 47 1 72 -6 37 -10 45 -16 43 -32 -2 -14 4 -22
17 -24 11 -2 63 -20 115 -39 138 -52 210 -125 210 -213 0 -35 -10 -56 -57
-123 -31 -45 -72 -101 -91 -125 -19 -23 -32 -45 -30 -48 7 -6 56 55 135 171
87 124 84 166 -16 266 -36 37 -67 55 -140 83 -51 20 -102 36 -112 36 -13 0
-18 6 -16 21 2 18 -8 25 -51 40 -29 10 -59 16 -67 12 -8 -3 -15 0 -15 7 0 25
56 64 135 92 101 37 116 50 89 79 -23 25 -66 49 -91 49 -10 1 -54 41 -97 90
-74 83 -89 94 -215 163 -75 41 -175 89 -223 107 -60 23 -88 39 -88 49 0 21
-29 38 -114 67 -78 27 -105 29 -152 12 -27 -9 -43 -8 -101 10 -37 11 -124 33
-192 47 -69 14 -131 30 -138 36 -20 17 -233 69 -283 69 -25 0 -66 7 -92 15
-26 8 -134 26 -240 41 -154 21 -234 27 -395 28 -152 1 -203 4 -203 13 0 19
-38 35 -68 29 -22 -5 -42 6 -115 64 -49 39 -105 74 -127 80 -21 6 -60 28 -87
51 -53 44 -208 125 -263 135 -19 4 -54 22 -78 40 -68 53 -168 74 -262 57z"/>
<path fill="#ffffff" stroke="none" d="M1158 2740 c56 -26 83 -52 69 -66 -3
-3 -22 4 -43 15 -21 12 -50 21 -64 20 -22 -1 -21 -2 7 -9 43 -10 85 -38 77
-51 -3 -6 3 -17 15 -26 24 -17 84 -129 76 -143 -3 -4 -25 -16 -49 -25 -40 -16
-46 -16 -75 0 -57 29 -128 106 -140 151 -11 41 -26 55 -59 53 -10 0 -5 -5 11
-11 17 -6 29 -19 33 -36 3 -15 9 -37 14 -49 8 -19 6 -23 -11 -23 -11 0 -31 12
-44 26 -14 15 -25 23 -25 17 0 -5 6 -15 13 -22 10 -10 6 -12 -18 -9 -19 2 -34
11 -41 25 -6 13 -14 20 -17 17 -3 -4 -2 -15 4 -25 8 -15 6 -19 -9 -19 -10 0
-24 6 -31 13 -11 10 -13 9 -8 -5 5 -13 0 -19 -18 -24 -13 -3 -29 -3 -34 1 -6
3 -11 2 -11 -4 0 -20 21 -22 67 -6 35 12 65 14 118 10 38 -4 72 -9 74 -11 2
-2 -36 -4 -85 -4 -89 0 -134 -14 -134 -42 0 -6 9 -3 21 8 17 15 40 20 113 23
108 4 108 -10 -1 -20 -63 -6 -80 -12 -104 -35 -16 -15 -29 -35 -29 -43 0 -11
4 -10 15 5 14 18 14 18 15 -8 0 -15 -5 -30 -10 -33 -8 -5 -7 -11 1 -21 17 -21
5 -28 -23 -13 -21 11 -22 11 -10 -4 11 -13 29 -16 85 -14 82 3 114 19 158 81
39 53 37 31 -1 -25 l-31 -44 33 37 c19 20 40 49 48 65 8 15 15 30 16 31 2 2
16 -6 33 -19 19 -14 43 -22 65 -21 34 1 35 0 41 -43 8 -49 2 -65 -23 -65 -29
1 -82 57 -83 87 l-1 28 -10 -28 c-13 -35 -92 -110 -119 -112 -21 -2 -39 -15
-20 -15 7 0 9 -4 6 -10 -10 -16 5 -12 36 11 24 17 29 18 29 5 0 -8 11 -32 25
-52 30 -44 29 -68 -2 -72 -16 -2 -36 10 -67 42 -24 25 -47 46 -50 46 -3 0 10
-27 29 -59 19 -33 35 -63 35 -68 0 -18 -40 -34 -59 -23 -30 15 -72 70 -78 101
-3 16 -9 29 -14 29 -9 0 3 -46 20 -78 15 -29 69 -72 90 -72 10 0 27 10 39 23
20 21 20 25 7 43 -22 29 -18 36 10 18 16 -10 34 -14 51 -10 21 6 25 12 21 32
-3 19 -2 22 9 13 10 -8 21 -5 43 13 42 33 47 55 21 90 l-22 30 25 -16 c29 -19
53 -13 64 17 4 12 7 24 6 27 -16 87 -16 86 17 100 28 12 37 11 78 -11 65 -33
66 -33 58 -20 -4 6 -1 11 7 11 8 0 20 7 27 15 15 18 7 19 -21 4 -16 -8 -33 -6
-71 8 -45 16 -53 23 -80 78 -17 33 -39 69 -49 81 -19 20 -19 21 1 39 19 17 22
17 97 -10 96 -34 206 -104 233 -147 11 -18 25 -50 32 -70 6 -21 15 -38 20 -38
11 0 2 31 -19 73 -15 29 -12 32 18 17 13 -8 19 -21 19 -45 0 -19 5 -35 10 -35
6 0 10 16 10 36 0 36 1 36 23 21 18 -12 21 -22 19 -56 -2 -24 1 -41 7 -41 6 0
10 3 10 8 -5 27 3 42 22 42 17 0 20 -4 15 -22 -4 -13 -11 -50 -16 -83 -6 -42
-27 -96 -70 -178 -65 -125 -78 -174 -17 -65 70 127 89 173 98 237 5 36 14 70
18 74 6 6 25 -3 48 -19 21 -15 39 -29 40 -29 1 -1 -17 -61 -42 -135 -24 -74
-46 -157 -49 -185 -5 -47 -5 -48 5 -15 6 19 31 103 56 185 25 83 49 153 55
156 21 13 46 -3 52 -33 3 -17 4 -33 1 -36 -3 -3 -5 1 -5 9 0 25 -20 -13 -21
-41 0 -22 -1 -23 -8 -5 -5 13 -10 -3 -14 -52 -4 -44 -19 -99 -38 -144 -38 -93
-52 -137 -45 -152 2 -7 5 -4 5 6 2 30 21 19 21 -12 0 -33 17 -51 22 -24 3 16
6 15 23 -6 26 -32 53 -58 108 -103 29 -24 57 -62 78 -104 37 -73 140 -198 213
-258 67 -55 170 -78 393 -89 94 -5 133 -26 150 -79 l11 -33 1 36 c2 59 18 65
120 46 48 -9 97 -17 109 -17 28 0 28 -21 2 -79 l-20 -43 -93 5 c-50 3 -148 8
-217 12 -69 3 -128 9 -132 13 -4 4 -8 23 -11 42 -3 32 -4 32 -5 -9 l-2 -44
-69 6 c-93 8 -131 28 -132 70 0 17 -4 41 -9 52 -6 15 -9 7 -9 -31 -1 -42 3
-55 22 -68 21 -16 20 -17 -33 -11 -78 8 -178 34 -225 58 l-40 20 32 9 c18 5
35 13 38 18 3 6 19 10 36 10 25 0 29 -4 29 -28 0 -28 16 -52 34 -52 5 0 2 8
-7 18 -24 27 -21 52 11 85 23 25 24 28 5 18 -12 -6 -25 -16 -28 -21 -3 -6 -20
-10 -36 -10 -26 0 -29 2 -19 19 5 11 10 30 9 43 0 16 -5 10 -16 -20 -13 -36
-23 -47 -58 -62 -54 -23 -83 -26 -118 -12 -16 7 -34 12 -42 12 -8 0 -17 5 -20
10 -3 6 4 10 17 10 27 0 68 26 68 42 0 6 -10 2 -23 -10 -13 -12 -25 -22 -28
-22 -10 0 -7 40 3 46 8 5 9 1 5 -12 -4 -11 6 -4 23 16 38 43 39 83 4 151 -34
67 -41 57 -9 -12 30 -65 31 -86 5 -119 l-21 -25 6 30 c6 30 6 30 -14 -6 -24
-43 -46 -63 -61 -54 -8 5 -3 16 14 34 25 26 65 108 47 97 -5 -3 -17 16 -26 43
-17 53 -101 191 -116 191 -4 0 -6 -6 -3 -14 4 -9 -13 -22 -51 -40 -67 -30
-125 -43 -125 -27 0 6 -31 31 -69 55 -37 24 -71 50 -74 58 -2 8 -24 20 -46 27
l-42 12 26 30 c14 17 25 37 25 44 0 7 3 21 7 31 4 12 3 15 -5 10 -7 -4 -12
-16 -12 -26 0 -27 -48 -80 -72 -80 -21 0 -21 0 -2 21 l19 22 -32 -17 c-18 -9
-42 -16 -54 -16 -21 0 -21 1 5 21 37 29 26 35 -15 10 -19 -12 -40 -21 -47 -21
-13 0 20 24 198 145 67 46 127 116 129 150 0 6 -14 -14 -32 -43 -18 -29 -43
-59 -55 -68 -27 -19 -28 -12 -3 24 30 45 113 194 109 197 -2 2 -26 -29 -53
-70 -29 -45 -82 -103 -132 -147 -85 -75 -108 -110 -27 -42 98 83 108 91 96 69
-22 -38 -47 -63 -125 -119 -95 -70 -132 -86 -194 -85 l-48 0 63 23 c101 38
100 51 -1 16 -58 -21 -152 -27 -161 -11 -4 5 0 12 6 14 7 3 1 6 -13 6 -33 1
-142 73 -170 112 -20 29 -83 189 -74 189 3 0 39 -25 81 -54 99 -72 156 -98
218 -103 l51 -3 -65 15 c-51 12 -89 31 -178 92 -101 68 -182 144 -182 169 0 4
19 -10 43 -32 111 -106 266 -208 285 -190 3 3 -17 15 -44 26 -53 23 -197 135
-285 222 -64 64 -106 140 -115 213 -4 28 -13 62 -20 77 -17 32 -18 48 -4 48 6
0 10 -8 10 -19 0 -10 7 -24 15 -31 17 -14 21 0 4 17 -17 17 -4 54 36 97 31 33
40 37 67 32 17 -3 33 -8 35 -10 2 -2 -6 -20 -18 -40 -11 -20 -17 -36 -12 -36
4 -1 -7 -7 -25 -15 -18 -8 -40 -11 -50 -8 -14 5 -15 3 -5 -7 10 -11 20 -11 54
-1 37 11 43 11 63 -8 12 -12 25 -21 29 -21 3 0 27 18 52 40 25 22 40 40 33 40
-7 0 -26 -13 -41 -30 -35 -36 -47 -37 -76 -6 l-23 25 22 36 c20 32 26 36 49
29 32 -9 61 -8 126 5 50 10 50 10 -20 7 l-70 -4 52 24 c56 27 151 44 198 37
17 -3 58 -18 93 -33z"/>
<path fill="#ffffff" stroke="none" d="M1065 2480 c3 -5 1 -10 -4 -10 -6 0
-11 5 -11 10 0 6 2 10 4 10 3 0 8 -4 11 -10z"/>
<path fill="#ffffff" stroke="none" d="M901 2417 c-19 -37 -31 -39 -31 -4 0
25 30 61 42 49 4 -4 0 -24 -11 -45z"/>
<path fill="#ffffff" stroke="none" d="M967 2454 c-3 -3 -12 -4 -19 -1 -8 3
-5 6 6 6 11 1 17 -2 13 -5z"/>
<path fill="#ffffff" stroke="none" d="M1163 2352 c10 -10 14 -22 10 -25 -3
-4 4 -18 16 -31 19 -20 21 -28 12 -45 -6 -11 -21 -26 -33 -32 -18 -10 -24 -8
-35 7 -7 10 -13 22 -13 27 0 4 -4 6 -9 3 -5 -3 -14 0 -20 8 -13 16 0 59 26 88
20 22 26 22 46 0z"/>
<path fill="#ffffff" stroke="none" d="M2265 2300 c141 -10 465 -53 520 -69
17 -5 59 -12 93 -15 82 -8 226 -42 277 -67 22 -10 104 -32 182 -49 79 -16 177
-43 219 -60 42 -17 107 -35 145 -40 114 -16 365 -117 491 -196 47 -30 50 -60
8 -107 -23 -27 -42 -37 -86 -46 -115 -23 -129 -19 -208 57 -40 37 -97 89 -129
115 -50 42 -56 52 -51 75 l6 27 -16 -22 c-18 -24 -185 -113 -212 -113 -16 0
-212 127 -247 160 -16 15 -17 22 -6 64 6 25 15 49 19 51 7 4 132 -25 225 -51
13 -4 17 -3 10 4 -14 14 -135 47 -299 82 -139 30 -205 38 -161 21 11 -5 62
-17 113 -27 91 -18 93 -19 87 -44 -23 -97 -26 -101 -72 -128 -25 -15 -61 -37
-80 -50 l-34 -22 -58 40 c-32 21 -82 61 -110 87 l-51 48 13 64 c8 36 21 69 30
75 11 7 44 6 107 -3 50 -7 94 -10 97 -7 7 7 -23 13 -117 25 -99 13 -110 5
-130 -85 l-15 -69 -95 -47 c-116 -59 -141 -60 -183 -12 -27 30 -60 57 -131
106 -5 3 5 39 25 85 18 43 33 79 34 80 0 1 29 -5 65 -12 145 -30 222 -43 213
-34 -29 29 -502 93 -742 100 l-46 2 40 7 c60 11 106 11 260 0z"/>
<path fill="#ffffff" stroke="none" d="M2065 2268 c7 -7 -35 -128 -45 -128 -9
0 -102 39 -108 45 -2 1 7 24 20 50 l23 46 52 -4 c29 -2 55 -6 58 -9z"/>
<path fill="#ffffff" stroke="none" d="M2271 2259 c74 -6 146 -14 161 -17 l27
-7 -27 -61 c-34 -77 -48 -94 -77 -94 -13 0 -65 -14 -116 -30 l-92 -30 -38 25
c-21 14 -45 38 -54 54 -15 29 -12 45 30 159 5 15 17 15 186 1z"/>
<path fill="#ffffff" stroke="none" d="M1984 2136 c34 -15 57 -32 61 -46 8
-25 4 -30 -71 -83 l-50 -36 -30 30 -30 30 20 64 c12 36 26 65 33 65 7 0 37
-11 67 -24z"/>
<path fill="#ffffff" stroke="none" d="M2448 2033 c30 -21 68 -55 84 -75 16
-21 41 -41 54 -44 30 -8 30 -13 -2 -146 -36 -152 -37 -152 -180 -117 l-85 22
-74 87 -74 88 -2 77 c-2 67 0 79 17 88 25 14 163 56 188 56 11 1 44 -16 74
-36z"/>
<path fill="#ffffff" stroke="none" d="M3720 2049 c78 -21 139 -52 123 -62 -5
-3 -27 0 -49 8 -21 8 -47 14 -57 15 -10 0 -50 7 -89 16 -77 18 -79 27 -8 43 3
0 39 -8 80 -20z"/>
<path fill="#ffffff" stroke="none" d="M2114 2024 l39 -26 -6 -59 c-3 -39 -1
-59 6 -62 15 -5 -2 -38 -23 -45 -9 -3 -10 0 -4 9 7 12 5 12 -9 0 -9 -7 -15
-17 -12 -21 6 -10 -34 -25 -42 -16 -4 3 0 6 8 6 8 1 -1 7 -19 15 -24 11 -38
27 -54 62 -11 26 -29 55 -41 64 -19 16 -18 17 39 57 32 23 64 41 69 41 6 1 28
-11 49 -25z"/>
<path fill="#ffffff" stroke="none" d="M1891 1984 l27 -26 -20 -34 c-21 -35
-42 -47 -31 -16 6 15 5 15 -10 4 -14 -12 -17 -10 -23 12 -6 25 11 86 24 86 3
0 18 -12 33 -26z"/>
<path fill="#ffffff" stroke="none" d="M2856 1988 c10 -11 61 -52 112 -90 l92
-69 -5 -145 c-3 -80 -7 -149 -10 -154 -2 -4 -43 -10 -89 -14 -103 -8 -230 18
-311 64 -81 47 -81 44 -51 168 14 60 26 120 26 134 0 24 11 32 103 76 56 28
105 51 108 51 3 1 14 -9 25 -21z"/>
<path fill="#ffffff" stroke="none" d="M1980 1894 c7 -20 26 -51 43 -71 28
-32 30 -38 19 -65 -11 -29 -10 -29 7 -14 19 18 31 12 31 -14 0 -20 76 -110 93
-110 6 0 -6 17 -27 39 -20 21 -44 56 -51 77 -14 38 -13 39 18 66 18 15 37 28
43 28 12 0 62 -51 92 -97 22 -32 29 -77 13 -87 -5 -3 -11 -15 -14 -27 -5 -19
-1 -17 28 11 l33 32 66 -22 c73 -24 76 -30 45 -92 -21 -40 -21 -40 -70 -36
-37 4 -58 12 -79 33 -17 16 -30 24 -30 19 0 -21 46 -53 93 -64 30 -8 47 -18
47 -27 0 -15 -13 -14 -67 3 -17 5 -17 4 1 -10 11 -9 28 -16 38 -16 13 0 18 -8
18 -28 0 -37 18 -60 55 -67 l30 -6 -31 14 c-23 11 -33 23 -36 46 -2 17 -2 31
0 31 3 0 20 -11 38 -25 18 -13 54 -33 81 -44 26 -11 42 -20 36 -20 -7 -1 -13
-7 -13 -14 0 -11 -15 -12 -72 -5 -93 11 -144 35 -207 95 -48 46 -51 53 -51 99
-1 39 -3 45 -11 31 -6 -10 -9 -27 -6 -38 15 -58 -58 30 -110 131 -22 45 -52
84 -79 108 -24 20 -44 42 -44 49 0 7 -6 12 -12 11 -9 -2 -12 7 -11 27 1 17 0
24 -3 18 -11 -25 -23 -13 -14 13 13 33 13 37 -2 28 -11 -7 -5 8 15 33 15 20
44 -2 57 -43z"/>
<path fill="#ffffff" stroke="none" d="M3377 1847 c61 -41 116 -76 122 -78 6
-3 11 -53 13 -124 l3 -119 -40 -21 c-35 -17 -56 -20 -165 -17 -69 1 -144 7
-167 13 -66 18 -75 33 -73 135 4 224 2 206 38 229 18 11 54 34 80 51 38 25 50
28 62 18 8 -7 65 -46 127 -87z"/>
<path fill="#ffffff" stroke="none" d="M3780 1805 c24 -22 78 -72 118 -110 73
-70 74 -71 55 -93 -23 -28 -256 -82 -353 -82 l-65 0 -3 130 -3 129 88 44 c70
36 91 42 103 33 8 -6 35 -30 60 -51z"/>
<path fill="#ffffff" stroke="none" d="M4357 1682 c39 -42 70 -78 68 -81 -5
-4 -138 109 -167 142 -10 10 -18 23 -18 28 0 21 49 -16 117 -89z"/>
<path fill="#ffffff" stroke="none" d="M4353 1637 c80 -76 80 -74 -45 -94
l-57 -10 -36 54 c-19 29 -35 55 -35 59 0 3 15 23 32 44 l32 38 26 -18 c14 -10
51 -43 83 -73z"/>
<path fill="#ffffff" stroke="none" d="M1869 1611 c38 -53 71 -135 71 -178 0
-60 -38 -103 -91 -103 -40 0 -48 7 -27 28 7 7 8 12 2 12 -6 0 -20 -13 -32 -30
-37 -49 -56 -34 -29 23 16 35 42 43 73 22 40 -26 54 -14 52 47 l-2 53 -3 -47
c-3 -38 -8 -48 -22 -48 -10 0 -24 6 -30 14 -7 8 -22 12 -34 9 -20 -4 -20 -3 3
11 14 8 19 15 12 16 -26 0 -52 -21 -52 -43 0 -13 -5 -28 -11 -34 -18 -18 -27
-190 -14 -256 7 -32 4 -41 -14 -58 -11 -11 -21 -26 -21 -33 0 -7 -11 -23 -24
-35 -24 -23 -25 -27 -24 -165 1 -116 -3 -152 -20 -207 -11 -37 -24 -98 -28
-138 -3 -39 -12 -75 -18 -80 -7 -6 -30 -13 -52 -16 -35 -6 -43 -3 -76 27 -51
46 -98 81 -133 102 -46 27 -100 119 -125 214 l-23 84 21 71 c15 53 20 98 20
170 l-1 98 34 29 c19 16 30 29 25 30 -5 0 -18 -7 -28 -17 -10 -9 -21 -13 -24
-10 -4 3 20 33 51 67 67 70 66 79 -2 18 -43 -39 -46 -40 -29 -13 9 17 36 47
59 69 24 22 34 36 23 32 -20 -7 -20 -7 0 15 10 11 32 28 47 36 16 8 27 17 24
20 -3 2 -15 0 -26 -7 -39 -20 -21 -2 27 29 27 17 58 31 70 31 29 0 102 30 102
41 0 5 -16 2 -36 -6 -52 -22 -55 -18 -9 10 22 14 77 36 122 50 45 14 105 36
135 50 29 14 56 25 60 25 4 0 16 -13 27 -29z"/>
<path fill="#ffffff" stroke="none" d="M4202 1584 c20 -30 35 -61 32 -69 -7
-17 -52 -31 -124 -39 -30 -3 -65 -9 -77 -12 -14 -4 -23 -2 -23 4 0 6 -13 33
-29 61 -39 66 -28 82 66 97 117 20 115 20 155 -42z"/>
<path fill="#ffffff" stroke="none" d="M2574 1611 c12 -11 46 -33 78 -49 53
-28 55 -30 28 -34 -19 -3 -31 1 -39 15 -13 19 -105 67 -132 67 -25 0 -90 -83
-76 -97 3 -3 15 13 27 36 17 34 25 41 51 41 33 0 98 -30 118 -54 10 -12 9 -24
-6 -66 -18 -50 -19 -51 -52 -45 -48 9 -141 57 -141 73 0 7 -4 11 -9 7 -5 -3 2
22 17 54 25 58 28 60 67 64 22 2 42 4 44 5 3 1 14 -7 25 -17z"/>
<path fill="#ffffff" stroke="none" d="M4443 1563 c-7 -3 -13 -13 -13 -22 0
-15 -12 -19 -61 -25 -34 -3 -76 -6 -93 -5 -48 1 -5 15 72 24 54 6 65 11 74 31
9 18 14 22 22 13 8 -8 7 -13 -1 -16z"/>
<path fill="#ffffff" stroke="none" d="M3951 1553 c13 -16 12 -17 -3 -4 -17
13 -22 21 -14 21 2 0 10 -8 17 -17z"/>
<path fill="#ffffff" stroke="none" d="M4530 1550 c8 -5 23 -17 33 -27 16 -19
15 -20 -71 -52 -48 -18 -93 -34 -99 -36 -7 -3 -13 -9 -13 -14 0 -24 -39 -32
-77 -16 -21 9 -48 13 -62 10 -15 -4 -30 0 -43 12 -20 18 -20 18 4 23 12 3 27
15 32 26 8 17 20 20 100 22 97 3 111 9 120 48 6 21 11 23 34 18 15 -4 34 -10
42 -14z"/>
<path fill="#ffffff" stroke="none" d="M3938 1537 c27 -28 55 -95 48 -113 -3
-8 -18 -13 -33 -13 l-28 1 30 9 c29 8 28 8 -5 3 -19 -2 -41 -5 -47 -6 -7 -1
-13 -5 -13 -9 0 -12 -108 -21 -128 -10 -22 12 -62 74 -62 96 0 14 27 24 135
49 80 19 79 19 103 -7z"/>
<path fill="#ffffff" stroke="none" d="M3164 1480 c12 0 16 -5 12 -16 -3 -9
-6 -21 -6 -27 0 -6 -7 -1 -16 11 -29 42 -63 52 -155 44 l-84 -7 -10 -62 c-13
-79 -23 -89 -17 -18 4 43 1 60 -13 75 -16 18 -16 19 1 18 44 -1 175 16 180 23
2 4 23 -3 47 -17 23 -13 50 -24 61 -24z"/>
<path fill="#ffffff" stroke="none" d="M2810 1491 l65 -16 0 -57 c0 -31 -4
-60 -8 -64 -4 -4 -56 8 -115 26 l-109 32 8 45 c5 24 11 49 15 54 6 10 41 6
144 -20z"/>
<path fill="#ffffff" stroke="none" d="M3632 1500 c35 0 38 -3 69 -65 17 -35
29 -71 26 -80 -5 -12 -28 -15 -131 -15 -143 0 -142 0 -148 85 l-3 49 55 18
c30 9 64 15 75 13 11 -3 37 -5 57 -5z"/>
<path fill="#ffffff" stroke="none" d="M2570 1409 c25 -7 56 -13 70 -15 49 -3
230 -67 230 -80 0 -24 -16 -23 -116 7 -54 17 -121 34 -148 39 -83 15 -142 39
-182 74 -58 50 -36 62 39 21 34 -18 82 -39 107 -46z"/>
<path fill="#ffffff" stroke="none" d="M3124 1458 c21 -19 26 -34 28 -83 3
-70 16 -66 -140 -39 l-104 18 7 55 c4 31 9 59 12 64 2 4 42 7 88 7 73 0 87 -3
109 -22z"/>
<path fill="#ffffff" stroke="none" d="M3383 1461 c17 -7 26 -23 36 -71 8 -35
17 -56 21 -50 5 8 10 9 14 2 14 -23 -27 -28 -130 -15 -58 7 -111 11 -117 10
-13 -3 -29 80 -21 108 4 11 12 24 18 28 13 9 147 0 179 -12z"/>
<path fill="#ffffff" stroke="none" d="M4215 1468 c-10 -6 -53 -13 -95 -15
-89 -4 -83 3 15 16 100 12 103 12 80 -1z"/>
<path fill="#ffffff" stroke="none" d="M3429 1443 c0 -25 -1 -26 -9 -8 -12 27
-12 35 0 35 6 0 10 -12 9 -27z"/>
<path fill="#ffffff" stroke="none" d="M2633 1435 c-3 -9 -8 -14 -10 -11 -3 3
-2 9 2 15 9 16 15 13 8 -4z"/>
<path fill="#ffffff" stroke="none" d="M4193 1383 c28 -26 45 -40 38 -30 -24
31 13 20 59 -18 25 -21 53 -35 69 -35 16 0 39 -11 57 -29 16 -15 45 -31 64
-35 19 -3 64 -20 99 -36 49 -23 62 -34 57 -47 -8 -19 9 -33 40 -33 12 0 34
-17 52 -39 41 -51 44 -116 10 -155 l-23 -26 -90 29 c-81 26 -108 30 -93 16 2
-3 38 -15 79 -27 41 -12 77 -24 82 -28 4 -3 -6 -27 -22 -52 -47 -75 -80 -136
-75 -141 3 -3 -12 -19 -32 -36 -80 -65 -198 -80 -293 -36 -100 47 -188 112
-220 165 -31 51 -163 169 -285 256 -85 60 -116 102 -116 156 0 47 24 98 47 98
8 0 30 8 47 19 17 10 66 24 110 31 102 15 131 26 150 55 18 27 44 35 100 30
30 -3 50 -14 89 -52z"/>
<path fill="#ffffff" stroke="none" d="M4214 1391 c-3 -3 -15 6 -27 18 l-22
24 27 -19 c14 -10 24 -21 22 -23z"/>
<path fill="#ffffff" stroke="none" d="M3437 1388 c-3 -8 -6 -5 -6 6 -1 11 2
17 5 13 3 -3 4 -12 1 -19z"/>
<path fill="#ffffff" stroke="none" d="M3969 1390 c-17 -10 -177 -40 -212 -40
-78 0 108 44 203 48 20 1 22 0 9 -8z"/>
<path fill="#ffffff" stroke="none" d="M3177 1348 c-3 -7 -5 -2 -5 12 0 14 2
19 5 13 2 -7 2 -19 0 -25z"/>
<path fill="#ffffff" stroke="none" d="M2675 1329 l50 -19 -74 6 c-82 6 -103
12 -95 25 9 15 65 9 119 -12z"/>
<path fill="#ffffff" stroke="none" d="M3034 1319 c69 -12 108 -28 103 -43 -6
-18 -70 -18 -154 -1 -83 17 -120 38 -94 54 15 10 45 7 145 -10z"/>
<path fill="#ffffff" stroke="none" d="M3675 1320 c13 -5 -25 -9 -103 -11 -67
-2 -122 -3 -122 -1 0 19 184 29 225 12z"/>
<path fill="#ffffff" stroke="none" d="M3392 1304 c45 -8 49 -19 11 -27 -30
-6 -218 2 -243 10 -12 4 -11 7 5 20 16 12 37 14 105 9 46 -4 101 -9 122 -12z"/>
<path fill="#ffffff" stroke="none" d="M2834 1283 c4 -3 2 -9 -5 -14 -12 -7
-69 15 -69 27 0 6 59 -5 74 -13z"/>
<path fill="#ffffff" stroke="none" d="M3643 1270 c-36 -62 -85 -99 -143 -109
l-55 -9 52 -1 c47 -1 57 3 91 33 l38 35 11 -42 c6 -23 9 -44 6 -47 -8 -8 -192
-12 -249 -5 l-54 6 24 32 c13 18 32 48 41 67 29 57 55 68 173 69 l83 1 -18
-30z"/>
<path fill="#ffffff" stroke="none" d="M3398 1255 c2 -2 -5 -20 -16 -42 -36
-69 -45 -73 -191 -80 -72 -3 -131 -4 -131 -2 1 2 9 29 20 59 18 55 19 55 71
65 44 9 237 9 247 0z"/>
<path fill="#000000" stroke="none" d="M630 2650 c0 -5 5 -10 10 -10 6 0 10 5
10 10 0 6 -4 10 -10 10 -5 0 -10 -4 -10 -10z"/>
<path fill="#000000" stroke="none" d="M1061 2649 c-35 -14 -20 -21 18 -8 18
6 45 9 62 5 19 -3 28 -2 24 4 -8 13 -72 12 -104 -1z"/>
<path fill="#000000" stroke="none" d="M745 2538 c-12 -38 -21 -108 -15 -108
5 0 11 14 14 30 3 17 9 44 12 60 5 29 -3 43 -11 18z"/>
<path fill="#000000" stroke="none" d="M615 2470 c20 -69 49 -133 70 -158 12
-15 56 -45 95 -66 69 -37 74 -38 86 -21 7 10 11 22 8 27 -4 5 9 6 30 3 33 -7
36 -5 35 16 0 13 -3 18 -6 12 -2 -7 -12 -13 -21 -13 -15 0 -15 2 -2 11 12 8
11 9 -6 4 -27 -7 -106 37 -139 78 -30 39 -33 27 -4 -14 11 -16 38 -38 60 -49
29 -16 39 -26 39 -45 0 -34 -13 -32 -93 16 -73 43 -97 73 -123 154 -17 52 -43
92 -29 45z"/>
<path fill="#000000" stroke="none" d="M1515 2379 l-36 -32 -23 22 c-34 32
-44 25 -12 -8 26 -27 27 -31 16 -72 -17 -62 -19 -63 -47 -37 l-26 23 13 -24
c6 -13 21 -26 32 -29 16 -4 19 -11 14 -36 l-6 -31 21 25 c12 14 34 50 49 80
15 30 37 64 49 74 12 11 21 24 21 29 0 22 -50 -37 -81 -96 -18 -34 -34 -56
-37 -49 -8 26 32 126 65 159 42 42 35 43 -12 2z"/>
<path fill="#000000" stroke="none" d="M1284 2328 c-3 -4 5 -8 18 -8 31 0 45
-10 57 -43 16 -41 15 -44 -31 -71 l-43 -26 -27 58 c-16 31 -28 49 -28 40 0
-23 41 -108 52 -108 19 0 88 41 96 58 7 11 4 30 -8 58 -15 34 -24 42 -49 46
-18 3 -34 1 -37 -4z"/>
<path fill="#000000" stroke="none" d="M1534 2263 c-20 -32 -44 -69 -52 -83
-9 -14 -17 -31 -18 -39 -3 -18 -28 -34 -32 -21 -2 6 -8 8 -13 4 -15 -9 -21 23
-9 46 6 12 9 24 6 27 -3 3 -13 -11 -22 -30 -10 -20 -22 -34 -27 -30 -5 3 -31
-5 -58 -17 -51 -24 -62 -47 -38 -80 8 -11 9 -7 5 17 -5 29 -2 35 24 48 41 21
87 25 101 8 9 -11 3 -22 -31 -53 -24 -22 -47 -40 -52 -40 -4 0 -8 -5 -8 -11 0
-5 14 -2 31 8 48 28 139 113 139 129 0 9 13 34 28 57 45 67 74 117 68 117 -4
0 -22 -26 -42 -57z"/>
<path fill="#000000" stroke="none" d="M1640 2311 c0 -12 -82 -122 -87 -117
-3 2 5 23 17 46 12 23 19 44 16 47 -3 3 -23 -32 -44 -78 -46 -99 -117 -190
-180 -230 -55 -35 -45 -39 12 -5 23 13 61 48 86 78 144 171 211 268 185 268
-3 0 -5 -4 -5 -9z"/>
<path fill="#000000" stroke="none" d="M1680 2288 c-31 -47 -33 -51 -20 -43 9
5 11 1 6 -16 -3 -13 3 -5 15 19 23 48 22 75 -1 40z"/>
<path fill="#000000" stroke="none" d="M1783 2278 c-21 -23 -97 -168 -89 -168
3 0 22 31 42 70 40 73 60 91 25 21 -24 -46 -26 -55 -10 -45 15 9 14 6 -43 -96
-62 -114 -98 -225 -94 -288 4 -51 48 -162 64 -162 5 0 -5 28 -22 61 -52 106
-33 207 80 415 67 124 78 148 64 139 -13 -8 -13 31 0 56 14 25 8 24 -17 -3z"/>
<path fill="#ffffff" stroke="none" d="M1776 2183 c-8 -15 -15 -25 -16 -21 0
12 23 58 27 54 3 -2 -2 -17 -11 -33z"/>
<path fill="#000000" stroke="none" d="M1231 2201 c13 -19 6 -51 -10 -51 -16
0 -42 31 -35 42 5 7 2 8 -5 4 -9 -6 -9 -13 2 -29 31 -47 87 -24 67 27 -5 14
-14 26 -20 26 -6 0 -6 -7 1 -19z"/>
<path fill="#000000" stroke="none" d="M1174 2135 c10 -7 15 -18 11 -24 -11
-18 -32 -12 -40 12 -4 13 -8 17 -12 9 -2 -6 -9 -9 -15 -6 -5 4 -5 -4 2 -16 11
-20 10 -22 -5 -17 -9 4 -20 7 -25 7 -5 0 -11 8 -14 18 -4 13 -4 13 -3 -3 3
-23 58 -48 64 -28 2 7 10 10 18 7 7 -3 23 0 35 6 21 11 21 12 4 31 -9 10 -22
19 -28 19 -6 0 -3 -7 8 -15z"/>
<path fill="#000000" stroke="none" d="M1835 2109 c-14 -40 -35 -102 -35 -105
0 -2 4 -4 8 -4 10 0 46 110 38 117 -3 3 -8 0 -11 -8z"/>
<path fill="#000000" stroke="none" d="M1728 2038 c-14 -24 -30 -59 -36 -78
-11 -35 -23 -194 -14 -186 2 3 10 50 17 106 10 75 21 113 40 146 15 25 25 48
22 50 -2 3 -16 -14 -29 -38z"/>
<path fill="#000000" stroke="none" d="M1405 2045 c-16 -14 -25 -25 -19 -25 6
0 21 11 34 25 30 32 24 31 -15 0z"/>
<path fill="#000000" stroke="none" d="M1150 2032 c0 -6 -8 -13 -17 -15 -10
-3 16 -4 57 -4 46 0 58 2 30 4 -24 3 -50 9 -57 15 -9 7 -13 7 -13 0z"/>
<path fill="#000000" stroke="none" d="M1538 1944 c-24 -21 -48 -34 -65 -34
-20 0 -24 -3 -14 -9 7 -5 21 -7 30 -4 20 6 97 70 91 77 -3 2 -22 -11 -42 -30z"/>
<path fill="#000000" stroke="none" d="M1097 1955 c2 -6 17 -9 33 -7 39 6 38
9 -4 14 -22 2 -32 0 -29 -7z"/>
<path fill="#000000" stroke="none" d="M1207 1942 c-18 -20 -13 -32 12 -32 14
0 14 2 1 10 -13 8 -12 11 5 24 11 9 15 16 9 16 -6 0 -18 -8 -27 -18z"/>
<path fill="#000000" stroke="none" d="M1550 1865 c-5 -14 -17 -39 -25 -55 -9
-17 -13 -30 -11 -30 6 0 32 48 46 85 5 14 7 25 5 25 -3 0 -10 -11 -15 -25z"/>
<path fill="#000000" stroke="none" d="M1831 1795 c0 -19 25 -43 64 -61 28
-14 58 -44 103 -104 35 -47 74 -98 88 -115 l25 -30 -17 31 c-9 18 -47 72 -83
120 -48 65 -77 94 -108 109 -24 12 -49 30 -57 40 -9 11 -15 16 -15 10z"/>
<path fill="#000000" stroke="none" d="M1836 1701 c5 -5 20 -11 33 -13 18 -2
41 -25 78 -78 29 -41 60 -90 69 -108 9 -19 18 -31 21 -29 15 15 -120 215 -153
227 -33 13 -61 13 -48 1z"/>
<path fill="#000000" stroke="none" d="M2061 1496 c36 -67 32 -114 -17 -187
-18 -27 -31 -49 -28 -49 3 0 22 9 44 20 44 22 70 55 69 85 0 15 -4 13 -15 -12
-13 -29 -53 -67 -62 -59 -2 3 6 18 18 34 12 17 25 50 27 75 5 37 1 54 -21 91
-38 65 -50 66 -15 2z"/>
<path fill="#000000" stroke="none" d="M2140 1242 c0 -12 19 -26 26 -19 2 2
-2 10 -11 17 -9 8 -15 8 -15 2z"/>
<path fill="#000000" stroke="none" d="M3610 1981 c9 -5 51 -19 95 -30 44 -11
107 -29 139 -41 33 -11 61 -18 63 -16 5 5 -99 41 -204 70 -97 27 -118 31 -93
17z"/>
<path fill="#000000" stroke="none" d="M4050 1846 c0 -3 37 -23 81 -45 45 -23
76 -34 69 -26 -7 8 -41 29 -75 45 -62 30 -75 34 -75 26z"/>
<path fill="#000000" stroke="none" d="M2375 1892 c12 -13 187 -43 180 -32 -3
5 -35 13 -72 20 -38 6 -79 14 -93 17 -18 4 -22 2 -15 -5z"/>
<path fill="#000000" stroke="none" d="M2770 1832 c19 -12 193 -36 211 -30 8
3 -26 10 -76 17 -49 7 -103 14 -120 17 -21 3 -26 2 -15 -4z"/>
<path fill="#000000" stroke="none" d="M3131 1771 c20 -13 158 -30 164 -20 3
4 -26 10 -63 14 -37 3 -78 9 -92 11 -20 4 -22 3 -9 -5z"/>
<path fill="#000000" stroke="none" d="M3418 1733 c6 -2 18 -2 25 0 6 3 1 5
-13 5 -14 0 -19 -2 -12 -5z"/>
<path fill="#000000" stroke="none" d="M1695 1478 c-22 -6 -50 -12 -62 -14
-29 -5 -83 -52 -83 -71 0 -10 7 -6 22 12 30 38 79 57 128 49 32 -5 40 -4 38 7
-2 10 6 13 27 11 23 -2 26 0 15 8 -17 11 -30 11 -85 -2z"/>
<path fill="#000000" stroke="none" d="M1613 1390 c-13 -5 -23 -11 -23 -14 0
-6 60 11 68 19 8 8 -20 5 -45 -5z"/>
<path fill="#000000" stroke="none" d="M1534 1336 c-3 -8 -1 -22 4 -32 6 -11
5 -27 -2 -46 -16 -42 9 -59 67 -46 61 13 60 21 -3 17 -42 -3 -55 -1 -57 11 -5
26 13 41 56 47 23 3 44 10 48 15 3 7 -13 8 -46 3 -52 -7 -56 -4 -52 33 2 17
-8 15 -15 -2z"/>
<path fill="#000000" stroke="none" d="M1633 1053 c-39 -42 -83 -44 -94 -3
l-7 25 -1 -27 c-2 -53 81 -51 119 3 31 42 21 43 -17 2z"/>
<path fill="#000000" stroke="none" d="M1434 930 c2 -21 37 -24 61 -5 19 14
18 15 -8 5 -37 -13 -45 -13 -50 3 -2 7 -3 6 -3 -3z"/>
<path fill="#000000" stroke="none" d="M1341 770 c29 -45 29 -45 29 -34 0 5
-12 23 -26 39 l-26 30 23 -35z"/>
<path fill="#000000" stroke="none" d="M4054 1375 c-24 -18 -7 -19 26 0 16 9
19 14 9 15 -8 0 -24 -7 -35 -15z"/>
<path fill="#000000" stroke="none" d="M3993 1370 c-23 -9 -32 -30 -13 -30 6
0 10 5 10 10 0 6 7 10 15 10 8 0 15 5 15 10 0 6 -1 10 -2 9 -2 0 -13 -4 -25
-9z"/>
<path fill="#000000" stroke="none" d="M3891 1326 c-9 -10 -8 -15 3 -19 10 -4
13 -1 10 8 -3 7 2 15 13 18 14 4 15 5 2 6 -9 0 -22 -5 -28 -13z"/>
<path fill="#000000" stroke="none" d="M4060 1317 c0 -5 7 -21 15 -36 27 -54
119 -63 150 -15 23 35 18 40 -10 10 -17 -18 -34 -26 -58 -26 -36 0 -55 12 -81
50 -9 13 -16 21 -16 17z"/>
<path fill="#000000" stroke="none" d="M3845 1254 c28 -26 67 -58 88 -71 43
-27 77 -77 77 -113 0 -14 -11 -43 -24 -65 -22 -36 -23 -42 -10 -68 8 -15 23
-36 33 -46 10 -10 33 -39 50 -65 18 -26 45 -52 59 -58 15 -7 45 -28 66 -47
l39 -36 -37 48 c-21 26 -47 47 -56 47 -10 0 -29 14 -42 30 -13 17 -40 50 -60
75 -51 62 -55 81 -27 119 29 38 30 97 2 134 -11 15 -40 41 -65 57 -25 17 -67
47 -94 68 l-49 39 50 -48z"/>
<path fill="#000000" stroke="none" d="M4260 1270 c-12 -12 -17 -26 -14 -32 6
-9 9 -8 12 2 2 8 14 23 26 32 11 10 15 18 9 18 -7 0 -22 -9 -33 -20z"/>
<path fill="#000000" stroke="none" d="M4280 1240 c-11 -7 -1 -10 35 -10 36 0
46 3 35 10 -8 5 -24 10 -35 10 -11 0 -27 -5 -35 -10z"/>
<path fill="#000000" stroke="none" d="M4340 1215 c0 -4 7 -19 15 -35 11 -20
23 -30 39 -30 30 0 86 20 86 30 0 5 -12 2 -27 -6 -44 -22 -71 -18 -88 16 -14
28 -25 38 -25 25z"/>
<path fill="#000000" stroke="none" d="M4466 1090 c12 -4 24 -15 27 -24 3 -8
23 -19 44 -25 53 -13 204 -23 178 -11 -11 5 -48 9 -82 9 -68 1 -79 12 -35 36
26 15 26 15 2 8 -32 -9 -102 -5 -114 7 -6 6 -17 10 -25 9 -11 0 -9 -3 5 -9z"/>
<path fill="#ffffff" stroke="none" d="M4550 1060 c0 -5 -6 -10 -14 -10 -8 0
-18 5 -21 10 -3 6 3 10 14 10 12 0 21 -4 21 -10z"/>
<path fill="#000000" stroke="none" d="M4363 1024 c-10 -26 11 -79 32 -82 19
-4 19 -3 2 10 -11 8 -19 28 -20 51 -2 41 -5 45 -14 21z"/>
<path fill="#000000" stroke="none" d="M4460 926 c14 -7 29 -10 34 -8 11 6
-20 20 -44 21 -8 0 -4 -5 10 -13z"/>
<path fill="#000000" stroke="none" d="M4499 850 c13 -11 30 -20 39 -20 19 0
16 3 -28 23 l-35 17 24 -20z"/>
<path fill="#000000" stroke="none" d="M4570 690 c-39 -25 -186 -62 -229 -57
-28 3 -39 2 -30 -4 28 -15 83 -12 158 9 67 20 121 45 121 57 0 7 -3 6 -20 -5z"/>
</g>
</svg>
