<?xml version="1.0" standalone="no"?>
<!DOCTYPE svg PUBLIC "-//W3C//DTD SVG 20010904//EN"
 "http://www.w3.org/TR/2001/REC-SVG-20010904/DTD/svg10.dtd">
<svg version="1.0" xmlns="http://www.w3.org/2000/svg"
 width="894.000000pt" height="1024.000000pt" viewBox="0 0 894.000000 1024.000000"
 preserveAspectRatio="xMidYMid meet">
<metadata>
Created by potrace 1.14, written by Peter Selinger 2001-2017
</metadata>
<g transform="translate(0.000000,1024.000000) scale(0.100000,-0.100000)"
fill="#000000" stroke="none">
<path fill="#000000" stroke="none" d="M5635 10225 c-339 -40 -683 -124 -945
-232 -461 -191 -943 -550 -1445 -1079 -355 -374 -435 -451 -485 -464 -60 -16
-355 -7 -475 14 -136 25 -244 54 -302 82 -66 32 -153 126 -192 207 -98 207
-98 326 2 521 54 106 61 175 24 238 -44 76 -116 113 -236 124 -164 15 -355
-68 -547 -238 -154 -137 -266 -320 -321 -523 -25 -94 -27 -114 -27 -320 -1
-249 10 -320 84 -540 44 -132 30 -138 -33 -17 -53 100 -74 161 -97 274 -12 57
-30 122 -40 145 -56 126 -199 103 -361 -57 -64 -63 -84 -91 -127 -180 -69
-143 -102 -278 -109 -445 -9 -209 32 -387 138 -596 150 -300 359 -518 621
-650 l97 -49 43 -82 c96 -185 261 -293 511 -333 167 -27 308 -14 455 41 35 13
66 24 69 24 2 0 -33 -42 -79 -92 -166 -185 -201 -244 -184 -312 8 -33 60 -92
107 -121 141 -90 398 -66 607 56 77 46 235 206 302 306 30 45 59 81 64 80 11
-4 85 -203 85 -233 1 -11 -15 -52 -34 -90 -55 -113 -79 -213 -79 -334 0 -173
33 -240 119 -240 25 0 61 7 80 14 19 8 35 12 35 8 -3 -235 29 -412 98 -551
132 -264 305 -407 420 -347 51 27 122 126 122 171 0 8 3 15 8 15 6 0 180 -142
269 -220 52 -46 55 -60 33 -132 -37 -119 -82 -160 -229 -213 -184 -67 -272
-169 -309 -359 -8 -45 -22 -89 -31 -100 -9 -10 -60 -40 -113 -67 -165 -83
-201 -127 -202 -249 -1 -41 -5 -80 -9 -87 -4 -6 -39 -23 -77 -38 -42 -16 -88
-43 -117 -70 -72 -64 -95 -119 -118 -278 -7 -47 -29 -61 -125 -81 -384 -78
-707 -21 -995 174 -118 80 -231 186 -285 266 -74 112 -108 233 -126 459 -9
113 -19 125 -99 125 -95 0 -210 -18 -299 -48 -393 -129 -673 -699 -537 -1094
23 -67 55 -130 120 -237 l51 -84 0 -92 c0 -59 7 -120 20 -169 56 -221 257
-463 484 -585 110 -58 201 -117 255 -166 89 -79 228 -158 356 -202 159 -54
382 -67 594 -34 l113 17 -8 -50 c-5 -28 -9 -85 -9 -126 0 -120 47 -196 186
-301 26 -20 38 -39 47 -77 17 -64 66 -121 155 -181 38 -25 95 -63 126 -83 l56
-38 222 0 222 0 93 54 c452 260 545 306 669 335 128 30 306 45 466 38 220 -9
322 22 419 125 102 109 136 263 98 445 -37 178 -126 267 -269 267 -83 -1 -119
-14 -232 -90 -45 -31 -87 -53 -93 -49 -19 12 -11 98 14 152 28 59 41 69 153
117 110 47 177 91 266 175 40 39 85 74 98 80 29 11 273 31 409 34 l95 2 103
-68 c57 -37 130 -81 162 -97 77 -39 90 -63 93 -181 2 -89 1 -92 -26 -112 l-27
-21 -128 53 c-200 84 -229 93 -298 89 -133 -8 -203 -112 -204 -300 0 -167 62
-322 174 -434 124 -124 205 -139 496 -91 268 45 446 62 504 50 28 -6 122 -40
208 -76 188 -79 365 -137 514 -168 146 -31 440 -34 549 -6 163 43 339 156 386
250 12 22 24 68 27 100 5 60 6 61 84 136 93 89 127 141 135 209 7 60 -7 106
-58 194 -88 151 -281 300 -568 441 -140 68 -176 81 -228 85 -49 3 -71 0 -105
-17 -45 -21 -280 -252 -402 -393 -112 -130 -185 -147 -338 -75 -97 44 -166
111 -191 184 -23 64 -17 77 58 134 122 92 189 221 210 409 7 53 26 98 49 112
6 3 58 41 116 84 188 140 382 357 497 555 25 44 50 82 54 85 4 2 20 -19 34
-48 96 -193 283 -207 450 -33 104 107 179 278 192 435 8 107 20 131 87 169 93
52 142 152 167 338 32 238 -27 455 -179 660 -93 125 -178 181 -378 249 -152
51 -223 86 -283 140 -51 46 -117 131 -108 140 2 2 48 16 101 30 366 95 634
315 795 652 35 73 49 84 70 58 24 -28 100 -56 155 -56 121 0 303 139 399 304
185 319 225 826 103 1310 -128 506 -392 895 -781 1151 -83 54 -155 106 -161
114 -8 10 -14 96 -17 241 -5 234 -16 305 -66 460 -35 105 -126 279 -195 371
-266 353 -779 626 -1346 714 -145 23 -508 28 -665 10z"/>
<path fill="#ffffff" stroke="none" d="M6365 10041 c362 -69 681 -215 968
-444 304 -243 436 -525 454 -971 l6 -149 -24 7 c-13 4 -72 10 -130 13 -163 8
-256 -26 -361 -134 -95 -98 -248 -369 -294 -518 -15 -49 -28 -85 -30 -80 -2 6
-15 64 -29 130 -89 404 -259 659 -591 883 -304 204 -647 343 -1009 408 -144
26 -564 27 -720 1 -357 -60 -644 -172 -945 -372 -150 -100 -269 -198 -495
-409 -350 -328 -398 -366 -460 -366 -21 0 -25 5 -25 28 0 15 8 42 18 59 69
129 613 683 986 1006 450 391 703 560 1021 682 143 55 204 73 475 139 434 106
509 116 830 112 198 -3 266 -7 355 -25z"/>
<path fill="#ffffff" stroke="none" d="M1630 9505 c68 -14 100 -39 100 -78 0
-12 -25 -73 -55 -137 -68 -143 -84 -224 -68 -338 31 -211 144 -404 287 -487
120 -70 221 -91 595 -125 124 -11 226 -22 228 -24 2 -2 -23 -44 -57 -93 -57
-85 -60 -93 -60 -149 0 -37 6 -68 15 -81 21 -30 88 -48 127 -34 72 25 182 114
363 294 300 298 538 479 819 622 482 245 993 318 1485 213 495 -105 1024 -409
1233 -708 129 -183 210 -426 237 -710 15 -159 20 -284 27 -775 7 -497 6 -514
-56 -640 -99 -204 -359 -368 -558 -352 -35 3 -66 7 -69 10 -3 3 8 39 25 79 35
85 47 152 37 205 l-7 38 -38 -80 c-74 -158 -170 -256 -299 -302 -54 -20 -84
-24 -166 -24 -55 1 -107 2 -115 3 -33 6 -22 -17 20 -43 51 -32 145 -59 201
-59 53 0 145 31 203 68 60 38 123 43 173 12 40 -24 49 -42 74 -138 33 -126 77
-227 139 -320 122 -184 271 -303 511 -408 57 -25 112 -53 122 -62 10 -9 32
-45 49 -81 40 -86 138 -183 233 -233 39 -20 131 -57 205 -83 155 -54 223 -92
298 -167 102 -101 171 -258 194 -442 11 -88 10 -107 -10 -219 -20 -109 -27
-129 -65 -184 -26 -39 -44 -58 -48 -50 -6 11 -31 98 -65 227 -35 131 -46 160
-60 160 -19 0 -18 -7 13 -140 24 -101 27 -135 27 -280 0 -151 -2 -173 -27
-253 -52 -168 -125 -280 -237 -362 -27 -20 -64 -39 -83 -42 -44 -7 -92 18
-112 57 -24 46 -38 189 -33 337 2 90 0 133 -7 133 -6 0 -46 -75 -90 -167 -141
-297 -269 -488 -426 -638 -354 -338 -830 -535 -1464 -605 -113 -13 -406 -28
-418 -22 -4 2 -5 26 -1 53 10 72 -9 62 -55 -29 -91 -181 -225 -293 -434 -364
-107 -36 -254 -48 -348 -29 -177 37 -336 182 -399 364 -24 68 -37 214 -21 236
7 12 53 16 206 22 531 21 1045 121 1275 247 264 144 450 384 609 784 41 102
51 139 51 186 0 64 11 82 50 82 44 0 141 29 204 61 57 29 161 107 153 115 -2
2 -26 -7 -53 -20 -150 -72 -328 -94 -473 -57 -211 53 -412 180 -539 340 -51
65 -72 79 -72 48 0 -7 32 -61 70 -119 108 -166 245 -271 434 -338 50 -17 96
-36 104 -43 11 -9 13 -29 9 -87 -4 -62 -14 -97 -59 -200 -170 -395 -421 -648
-738 -743 -155 -47 -476 -106 -745 -139 -148 -17 -629 -17 -755 0 -163 23
-259 51 -375 107 -128 63 -212 132 -245 202 -19 41 -22 60 -18 130 6 113 37
165 128 210 110 55 109 55 191 -26 109 -108 249 -170 503 -222 109 -22 282
-27 360 -9 38 8 60 7 123 -10 42 -11 93 -20 112 -20 35 1 35 1 -21 24 -232 97
-368 308 -371 581 -1 50 5 115 12 145 28 114 108 233 211 312 l35 27 -29 1
c-47 0 -151 -56 -195 -107 -56 -62 -106 -167 -128 -263 -13 -56 -22 -80 -33
-80 -28 0 -122 54 -162 93 -50 48 -68 91 -68 160 0 84 26 144 89 208 42 41 72
61 121 79 98 35 176 77 219 115 42 38 89 121 116 204 l17 53 52 -7 c216 -28
309 -31 451 -14 218 27 450 133 563 258 40 44 75 91 68 91 -3 0 -68 -31 -143
-69 -242 -122 -376 -155 -628 -155 -149 0 -184 3 -282 26 -151 36 -237 82
-330 175 -63 64 -81 90 -140 213 -37 77 -71 140 -75 140 -3 0 -9 -24 -13 -52
-25 -204 -42 -261 -107 -356 l-30 -43 -56 32 c-74 41 -113 78 -171 165 -101
151 -144 299 -144 499 0 137 11 214 64 430 16 66 29 124 29 128 0 21 -38 -26
-121 -148 -87 -130 -157 -215 -177 -215 -15 0 -26 139 -18 236 17 207 101 385
277 584 44 49 77 90 74 90 -23 0 -83 -45 -157 -118 l-88 -85 -24 54 c-33 73
-53 179 -61 329 -4 69 -8 126 -9 128 -2 1 -16 -28 -31 -65 -104 -247 -192
-397 -301 -513 -192 -203 -429 -291 -622 -231 -90 28 -122 54 -122 99 0 45 10
60 161 234 192 221 391 462 402 486 6 12 8 25 5 28 -3 3 -84 -48 -179 -112
-240 -162 -358 -213 -536 -233 -211 -23 -404 41 -545 180 -38 37 -68 74 -68
84 0 15 7 17 50 12 77 -9 279 11 387 38 192 49 424 188 551 331 74 83 71 114
-5 49 -22 -19 -76 -56 -119 -83 -240 -147 -482 -222 -719 -222 -229 0 -439
105 -667 335 -247 247 -378 559 -378 897 0 179 40 325 126 453 98 148 252 247
278 178 4 -9 17 -67 30 -127 60 -284 178 -459 416 -618 256 -171 506 -246 775
-234 158 7 283 31 264 51 -3 2 -34 0 -69 -5 -97 -14 -283 -12 -385 5 -391 63
-658 318 -746 710 -41 185 -51 415 -24 571 64 370 273 633 608 765 82 32 146
36 247 14z"/>
<path fill="#ffffff" stroke="none" d="M7756 8362 c164 -58 367 -188 509 -327
280 -275 465 -645 535 -1070 64 -391 34 -744 -84 -986 -79 -160 -270 -339
-363 -339 -46 0 -83 30 -174 141 -139 170 -218 214 -365 207 -123 -6 -187 -47
-414 -263 -114 -108 -182 -149 -276 -166 -90 -17 -252 17 -339 71 -74 46 -170
183 -163 233 2 12 23 36 48 55 98 72 127 98 175 153 60 70 117 179 141 269 26
99 30 301 9 488 -25 221 -17 494 19 685 54 282 182 597 292 716 147 159 270
195 450 133z"/>
<path fill="#ffffff" stroke="none" d="M7963 5867 c24 -14 61 -45 81 -68 36
-39 38 -45 34 -93 -11 -112 -97 -265 -222 -394 -124 -129 -271 -223 -431 -278
-69 -24 -96 -28 -195 -28 -136 -1 -207 16 -327 74 -141 70 -273 188 -367 331
-37 57 -156 338 -156 370 0 22 17 35 56 42 18 3 43 9 57 12 23 6 28 0 67 -74
122 -234 406 -346 660 -261 91 30 150 72 270 191 169 168 246 212 362 206 49
-3 78 -11 111 -30z"/>
<path fill="#ffffff" stroke="none" d="M1065 3446 c15 -10 20 -33 26 -122 13
-174 67 -316 176 -461 158 -211 422 -366 748 -440 63 -14 121 -18 270 -18 171
1 202 4 306 28 64 15 123 25 130 22 8 -3 40 -34 72 -69 139 -156 327 -237 673
-291 l111 -18 5 -106 c6 -119 38 -231 88 -314 17 -27 30 -51 30 -55 0 -7 -48
-35 -367 -214 -175 -97 -160 -95 -281 -34 -105 53 -180 70 -244 56 -114 -24
-250 -125 -403 -298 -50 -57 -104 -111 -120 -121 -33 -21 -214 -46 -400 -57
-182 -10 -334 26 -485 115 -37 22 -73 48 -81 57 -13 16 -10 17 38 11 28 -3
103 -2 167 3 299 22 616 127 843 279 78 52 136 101 121 101 -3 0 -61 -27 -129
-60 -361 -173 -822 -250 -1127 -185 -268 56 -463 196 -611 439 -40 64 -97 215
-89 235 1 5 47 -17 101 -49 180 -107 378 -174 590 -200 136 -17 453 -7 627 19
309 47 597 145 764 260 76 53 62 52 -71 -3 -305 -126 -558 -181 -888 -193
-244 -8 -444 17 -662 83 -295 89 -485 253 -601 520 -83 191 -90 322 -26 513
102 305 292 494 564 561 92 23 111 24 135 6z"/>
<path fill="#ffffff" stroke="none" d="M3457 3233 c26 -20 86 -61 133 -91 131
-83 144 -100 231 -277 43 -88 79 -163 79 -167 0 -13 -140 -9 -235 7 -182 29
-362 104 -438 181 -142 144 -125 266 48 353 82 42 121 41 182 -6z"/>
<path fill="#ffffff" stroke="none" d="M6398 1911 c-10 -101 -93 -223 -187
-274 -143 -78 -383 -74 -551 10 -41 21 -75 42 -75 48 0 7 772 259 809 264 5 1
6 -21 4 -48z"/>
<path fill="#ffffff" stroke="none" d="M7501 1558 c154 -76 234 -126 336 -211
122 -100 222 -238 223 -306 0 -43 -40 -110 -88 -147 l-46 -35 -165 169 c-155
157 -172 172 -255 213 -82 40 -95 44 -165 43 -97 0 -137 -19 -265 -126 -70
-58 -94 -84 -86 -92 7 -7 15 -7 28 1 261 167 318 182 452 116 65 -33 291 -252
333 -323 88 -151 77 -249 -39 -339 -121 -94 -265 -135 -474 -135 -241 1 -462
57 -779 198 -265 118 -335 121 -786 39 -97 -17 -161 -24 -210 -21 -194 13
-299 158 -321 439 -8 101 4 147 47 184 25 21 41 25 90 25 53 0 72 -7 195 -70
111 -57 146 -70 183 -70 60 0 110 27 139 76 21 36 23 49 20 155 l-3 117 65 6
c36 3 99 6 140 6 l75 -1 39 -82 c82 -174 256 -287 442 -287 98 0 147 31 267
169 146 166 275 298 327 333 68 45 113 38 281 -44z"/>
<path fill="#ffffff" stroke="none" d="M3823 1482 c35 -31 38 -47 22 -121 -8
-39 -21 -86 -29 -104 -36 -87 -128 -145 -242 -155 -77 -6 -118 8 -213 69 l-74
47 74 48 c41 26 124 78 184 117 61 38 130 83 155 99 49 32 88 32 123 0z"/>
<path fill="#ffffff" stroke="none" d="M4145 1339 c77 -12 142 -23 144 -25 2
-2 -4 -33 -13 -69 -25 -99 -6 -184 45 -205 16 -7 53 -11 82 -8 43 3 66 14 127
56 42 28 88 56 104 61 45 18 117 13 154 -9 94 -57 134 -310 69 -436 -35 -69
-115 -140 -180 -159 -36 -11 -127 -19 -287 -26 -130 -5 -288 -15 -352 -23
-132 -15 -200 -41 -333 -131 -353 -236 -687 -307 -965 -205 -230 83 -266 185
-150 428 87 182 221 325 327 347 44 9 136 -16 231 -64 44 -22 82 -37 86 -34
22 22 -2 43 -121 103 -208 104 -268 95 -419 -62 -89 -94 -135 -162 -194 -292
-25 -53 -48 -96 -53 -96 -16 0 -96 82 -111 114 -68 144 80 422 319 601 97 73
145 95 204 95 56 0 88 -15 326 -156 222 -131 254 -145 344 -151 206 -14 357
100 418 317 14 53 19 61 37 56 12 -2 84 -14 161 -27z"/>
<path fill="#000000" stroke="none" d="M4520 8184 c-120 -21 -153 -29 -210
-53 -131 -55 -265 -166 -350 -291 -53 -78 -98 -175 -140 -304 -34 -102 -63
-146 -98 -146 -11 0 -49 9 -84 20 -88 27 -145 79 -195 175 -21 41 -42 75 -47
75 -4 0 -5 -26 -1 -57 18 -142 88 -242 202 -288 139 -55 166 -98 161 -259 -3
-95 -4 -100 -31 -120 -24 -18 -43 -21 -120 -21 -106 0 -171 18 -247 71 -62 43
-74 28 -25 -31 71 -88 171 -140 285 -150 140 -13 191 -58 194 -171 1 -61 -14
-82 -82 -114 -39 -19 -58 -21 -126 -17 -45 3 -97 9 -116 13 -31 6 -33 5 -22
-8 7 -9 40 -28 75 -43 81 -37 177 -43 267 -18 l65 19 66 -101 c87 -132 175
-225 306 -323 138 -103 211 -144 309 -178 75 -26 88 -28 274 -28 208 0 296 11
479 60 338 91 505 214 568 419 27 89 24 424 -5 587 -42 233 -128 446 -254 631
-190 277 -558 554 -832 626 -75 20 -219 33 -266 25z"/>
<path fill="#ffffff" stroke="none" d="M4795 8006 c176 -87 363 -243 483 -401
111 -148 205 -377 237 -580 62 -394 0 -611 -212 -746 -137 -86 -277 -122 -478
-123 -147 0 -208 9 -339 50 -213 68 -402 215 -490 384 -43 81 -43 101 -1 40
134 -193 443 -325 719 -307 188 13 342 72 437 167 102 101 140 217 141 420 1
206 -41 394 -132 587 -116 245 -269 406 -491 513 -45 22 -85 42 -88 46 -3 4
23 4 58 1 49 -4 87 -16 156 -51z"/>
<path fill="#ffffff" stroke="none" d="M4885 7706 c106 -62 158 -232 105 -342
-24 -48 -79 -78 -129 -68 -81 16 -165 148 -165 258 0 74 25 131 68 157 41 25
71 24 121 -5z"/>
<path fill="#ffffff" stroke="none" d="M5405 7618 c122 -132 210 -265 269
-409 78 -190 122 -390 133 -609 17 -352 -92 -492 -469 -599 -213 -61 -430 -87
-596 -71 -186 17 -408 142 -562 315 l-25 28 45 -27 c99 -60 250 -121 361 -145
100 -22 265 -31 368 -21 300 31 528 161 621 354 21 45 44 108 51 141 19 92 16
370 -6 485 -41 218 -140 438 -274 607 -22 29 -41 55 -41 58 0 14 63 -40 125
-107z"/>
</g>
</svg>
