<?xml version="1.0" standalone="no"?>
<!DOCTYPE svg PUBLIC "-//W3C//DTD SVG 20010904//EN"
 "http://www.w3.org/TR/2001/REC-SVG-20010904/DTD/svg10.dtd">
<svg version="1.0" xmlns="http://www.w3.org/2000/svg"
 width="800.000000pt" height="800.000000pt" viewBox="0 0 800.000000 800.000000"
 preserveAspectRatio="xMidYMid meet">
<metadata>
Created by potrace 1.14, written by Peter Selinger 2001-2017
</metadata>
<g transform="translate(0.000000,800.000000) scale(0.100000,-0.100000)"
fill="#000000" stroke="none">
<path fill="#000000" stroke="none" d="M3572 7877 c-11 -12 -25 -42 -30 -67
-18 -81 -24 -272 -12 -389 l11 -115 -53 -52 c-30 -28 -65 -72 -78 -98 -14 -25
-28 -46 -31 -46 -3 0 -11 19 -18 43 -7 23 -28 74 -46 112 -33 69 -37 83 -71
220 -22 93 -53 184 -72 214 -9 12 -32 34 -51 47 -20 14 -51 36 -70 49 -21 15
-48 25 -68 25 -37 0 -103 -26 -103 -41 0 -5 -9 -9 -19 -9 -11 0 -33 -12 -50
-26 -35 -29 -54 -84 -72 -207 -8 -50 -19 -90 -30 -102 -45 -51 -44 -169 2
-328 15 -51 17 -72 9 -88 -11 -19 -13 -18 -61 23 -54 47 -116 95 -137 107 -11
6 -9 23 12 83 20 61 24 90 21 148 -3 63 -1 76 21 107 30 44 38 75 30 108 -5
19 -13 25 -34 25 -16 0 -37 -7 -48 -15 -10 -8 -26 -15 -34 -15 -8 0 -54 -19
-102 -43 l-88 -43 0 29 c0 54 -47 139 -101 180 -27 22 -59 58 -70 80 -12 23
-28 50 -37 60 -38 43 -99 -2 -121 -87 -7 -27 -19 -50 -29 -53 -29 -11 -89 -58
-114 -89 -27 -33 -58 -98 -58 -119 0 -21 -23 -18 -43 5 -36 42 -99 15 -118
-50 -12 -39 -14 -40 -55 -40 -30 0 -55 8 -81 25 -40 28 -71 29 -83 5 -16 -33
-33 -108 -35 -155 -1 -27 -3 -55 -4 -62 0 -6 -18 -13 -38 -15 -33 -3 -39 -7
-47 -35 -5 -18 -14 -33 -21 -33 -25 0 -36 -29 -38 -100 -2 -62 1 -73 18 -83
18 -11 17 -12 -14 -17 -19 -3 -37 -12 -41 -20 -4 -8 -15 -29 -24 -47 -27 -52
-15 -103 33 -147 12 -11 21 -25 21 -33 0 -7 7 -25 16 -38 13 -20 25 -25 55
-25 23 0 39 -5 39 -11 0 -7 14 -34 31 -61 28 -47 29 -51 12 -64 -10 -7 -23
-14 -29 -14 -23 0 -92 -89 -113 -144 -12 -32 -21 -80 -21 -111 0 -30 -2 -55
-5 -55 -3 0 -76 20 -162 44 -254 72 -341 79 -390 33 -52 -48 -16 -127 96 -210
31 -23 80 -66 108 -96 29 -30 76 -71 105 -90 48 -34 52 -40 64 -96 6 -33 8
-64 4 -70 -5 -5 -11 -27 -15 -48 -7 -33 -11 -38 -29 -33 -50 14 -248 28 -298
22 -102 -13 -126 -72 -65 -162 37 -56 194 -169 341 -245 50 -25 92 -51 94 -57
2 -8 -15 -12 -55 -12 -40 0 -68 -6 -90 -20 -46 -28 -56 -53 -48 -124 5 -53 3
-69 -19 -116 -31 -67 -32 -89 -6 -141 17 -32 20 -57 19 -122 -1 -60 3 -92 15
-115 17 -32 61 -62 93 -62 10 0 25 -5 33 -10 12 -8 11 -14 -8 -40 -62 -83 -23
-152 71 -126 26 8 27 7 18 -16 -7 -19 -6 -29 6 -41 12 -12 16 -40 17 -114 2
-109 16 -153 66 -209 16 -19 30 -45 30 -57 0 -12 5 -38 10 -58 20 -72 85 -72
173 -1 22 18 55 33 80 37 84 12 97 17 156 55 51 33 61 37 72 24 6 -8 54 -44
105 -80 52 -36 95 -68 95 -72 1 -4 3 -28 4 -54 3 -55 18 -78 49 -78 38 0 66
43 97 146 22 71 30 122 31 180 l2 82 60 5 c48 5 70 2 102 -14 47 -22 102 -25
129 -5 17 12 18 18 6 56 -7 23 -15 49 -18 57 -9 22 190 -132 239 -186 24 -26
66 -73 93 -105 28 -32 61 -68 74 -79 43 -40 206 -241 278 -342 39 -55 94 -147
123 -205 29 -58 61 -116 70 -130 24 -35 125 -236 144 -287 9 -24 23 -62 31
-85 9 -24 20 -52 25 -63 41 -88 113 -402 149 -645 l20 -135 -24 -25 c-13 -14
-31 -44 -40 -67 -15 -39 -15 -43 0 -67 16 -24 16 -29 0 -77 -10 -28 -17 -74
-17 -103 0 -30 -8 -66 -19 -88 -21 -40 -25 -88 -9 -104 6 -6 6 -20 0 -39 -5
-17 -32 -154 -60 -305 -71 -387 -79 -422 -101 -481 -35 -92 -14 -132 89 -172
62 -25 69 -22 86 31 l15 47 -4 -45 c-19 -184 -19 -173 7 -198 28 -26 110 -42
170 -34 50 6 62 30 78 152 18 152 13 142 61 125 23 -8 50 -15 61 -15 15 0 18
-4 13 -17 -22 -51 -28 -102 -16 -131 18 -42 57 -56 137 -48 73 8 94 -1 94 -40
0 -42 33 -64 95 -64 90 0 135 33 135 100 0 23 6 33 23 39 32 13 44 30 54 81 8
43 10 45 42 42 41 -4 135 40 158 74 12 18 14 39 10 80 -5 52 -4 56 20 65 14 5
39 19 54 30 26 18 29 26 29 72 0 29 -4 70 -9 92 -5 22 -12 66 -16 98 -6 52 -5
57 12 57 27 0 97 63 117 104 22 47 20 71 -13 173 -17 48 -35 123 -41 166 -6
43 -27 140 -46 215 -19 75 -42 198 -50 273 l-16 136 35 46 c37 49 53 112 42
171 -6 28 -2 42 16 68 18 25 24 49 27 103 3 48 11 86 28 119 31 64 32 133 4
164 -20 21 -20 25 -6 69 8 27 34 85 59 129 24 45 51 99 60 120 48 119 181 374
212 407 l36 38 27 -19 c15 -11 55 -34 89 -51 113 -56 214 -39 303 53 31 32 52
46 71 46 15 0 37 9 50 19 22 18 24 27 26 128 2 91 7 122 30 184 20 54 27 92
27 141 l0 67 37 -32 c20 -18 65 -54 100 -82 35 -27 67 -53 70 -58 3 -4 22 -10
41 -14 33 -5 38 -2 53 26 9 18 13 40 10 50 -3 12 9 36 36 70 37 46 43 61 49
119 4 44 18 90 40 135 28 59 35 67 54 61 90 -27 318 -119 451 -182 141 -68
167 -77 217 -77 82 0 113 25 113 92 -1 39 -7 58 -35 97 -32 43 -121 127 -180
168 -25 17 -25 17 30 18 77 0 243 26 320 50 77 23 122 59 144 118 31 83 21
134 -34 167 -9 5 -29 18 -42 28 -35 25 -244 65 -427 83 -146 14 -155 16 -174
41 -16 19 -22 43 -23 89 -2 59 -1 63 24 73 15 7 73 40 129 74 231 141 273 166
373 222 122 68 182 108 228 149 40 37 46 98 11 117 -49 26 -185 -5 -478 -108
-101 -35 -185 -62 -187 -60 -2 2 24 25 59 51 232 177 520 487 548 590 41 150
-134 118 -424 -77 -65 -44 -120 -77 -123 -74 -3 3 -14 44 -25 92 -20 96 -55
180 -96 233 -30 39 -26 45 48 62 56 14 90 47 98 96 6 35 11 39 190 138 102 56
197 113 212 127 33 30 30 60 -7 79 -35 19 -233 6 -334 -21 -67 -18 -82 -20
-95 -9 -27 22 -44 64 -55 135 -6 37 -15 76 -21 87 -17 32 -70 58 -118 58 -42
0 -43 1 -36 28 18 72 17 100 -4 121 -25 25 -50 27 -77 6 -27 -20 -43 -19 -37
4 3 11 -3 27 -15 39 -13 13 -24 44 -30 84 -16 102 -47 158 -131 231 -17 15
-31 35 -31 45 0 9 -9 32 -20 50 l-20 32 35 49 c25 34 35 59 35 85 0 34 -2 36
-33 36 -51 0 -205 -99 -336 -218 -82 -74 -190 -162 -199 -162 -14 0 -72 25
-72 31 0 8 39 96 85 194 45 96 59 147 51 189 -6 33 -10 36 -43 36 -51 0 -105
-44 -266 -213 -163 -171 -231 -258 -305 -387 -76 -133 -114 -192 -120 -186 -2
3 10 32 27 65 37 71 39 99 9 136 -34 43 -92 65 -176 65 -41 0 -98 7 -128 16
-55 16 -176 15 -237 -1 l-27 -7 2 123 c3 135 -7 177 -46 199 -47 24 -120 -39
-168 -145 -59 -132 -78 -178 -78 -191 0 -19 -5 -18 -66 11 -29 14 -94 37 -146
51 -134 38 -142 43 -165 111 -38 110 -143 328 -169 351 -32 28 -65 28 -92 -1z"/>
<path fill="#ffffff" stroke="none" d="M3656 7818 c15 -23 33 -58 41 -77 15
-37 28 -64 82 -185 17 -37 28 -72 26 -77 -3 -4 -36 3 -74 16 -74 27 -146 33
-155 13 -9 -22 -3 256 7 292 10 38 24 60 38 60 5 0 21 -19 35 -42z"/>
<path fill="#ffffff" stroke="none" d="M5730 7816 c0 -13 -29 -90 -65 -171
-36 -80 -65 -150 -65 -156 0 -11 -20 -12 -38 0 -7 4 -20 30 -28 57 -8 27 -24
57 -37 66 l-22 18 107 105 c110 108 148 129 148 81z"/>
<path fill="#ffffff" stroke="none" d="M2084 7784 c10 -25 34 -57 53 -72 88
-68 113 -107 120 -191 4 -46 0 -66 -21 -111 -14 -30 -26 -71 -26 -91 0 -31
-32 -90 -87 -158 -6 -9 -13 6 -19 45 -13 83 -31 148 -42 152 -16 5 -15 -29 2
-151 14 -96 10 -144 -14 -171 -19 -20 -43 45 -70 187 -8 38 -16 57 -26 57 -17
0 -19 -46 -4 -84 19 -50 -22 -18 -83 66 -28 38 -34 58 -17 58 14 0 28 61 20
90 -3 14 -19 31 -34 39 -25 11 -28 17 -23 47 9 55 37 103 84 141 24 20 46 33
49 30 3 -3 0 -40 -6 -84 -14 -96 -11 -148 10 -148 11 0 17 18 23 75 14 144 28
215 52 267 13 29 28 53 32 53 4 0 16 -21 27 -46z"/>
<path fill="#ffffff" stroke="none" d="M3034 7759 l35 -20 -25 -37 c-14 -20
-27 -38 -29 -40 -2 -2 -24 18 -50 44 -45 44 -47 48 -29 61 25 19 57 16 98 -8z"/>
<path fill="#ffffff" stroke="none" d="M6219 7748 c-21 -39 -53 -83 -69 -92
-8 -5 -44 -37 -80 -72 -36 -34 -76 -65 -90 -69 -54 -16 -107 -49 -148 -93
l-43 -46 -20 20 -20 21 53 36 c29 20 87 68 128 108 76 73 100 91 218 166 77
49 87 52 71 21z"/>
<path fill="#ffffff" stroke="none" d="M2888 7716 c15 -8 54 -45 87 -82 33
-38 96 -107 141 -154 94 -100 149 -188 198 -322 36 -96 44 -157 30 -226 -5
-25 -14 -33 -43 -42 -20 -6 -53 -18 -73 -27 -37 -15 -37 -15 -67 14 -16 17
-54 46 -83 66 -121 80 -258 269 -287 396 -30 131 -6 342 43 376 25 18 21 18
54 1z"/>
<path fill="#ffffff" stroke="none" d="M3127 7681 c20 -19 64 -136 78 -209 7
-32 3 -30 -71 48 -44 45 -82 88 -86 94 -7 13 36 86 50 86 5 0 18 -9 29 -19z"/>
<path fill="#ffffff" stroke="none" d="M4444 7634 c13 -12 16 -41 16 -145 l0
-129 -37 -15 c-21 -9 -59 -30 -85 -46 -47 -30 -48 -30 -72 -12 -14 10 -26 23
-26 30 0 7 21 65 47 130 35 87 58 128 89 160 22 24 43 43 47 43 3 0 13 -7 21
-16z"/>
<path fill="#ffffff" stroke="none" d="M6184 7577 c31 -46 49 -114 55 -201 4
-58 10 -91 19 -94 9 -3 12 17 12 77 0 44 4 83 10 86 23 14 90 -139 90 -208 l0
-30 -58 6 c-71 8 -115 -11 -150 -63 -21 -30 -23 -43 -19 -99 l5 -64 -53 -54
c-65 -64 -85 -68 -85 -15 0 57 -26 168 -54 227 -13 29 -47 87 -75 129 l-52 77
29 37 c17 20 49 48 73 61 38 22 42 22 34 5 -14 -32 -18 -94 -7 -94 6 0 25 30
43 67 33 70 125 173 153 173 9 0 22 -10 30 -23z"/>
<path fill="#ffffff" stroke="none" d="M2560 7554 c0 -22 -53 -114 -96 -165
-56 -68 -39 -97 23 -37 l33 32 0 -28 c0 -15 -21 -94 -47 -174 -51 -161 -62
-178 -149 -223 -113 -59 -272 -156 -305 -186 -34 -31 -44 -17 -29 39 28 102
71 152 290 331 15 13 19 22 12 29 -11 11 -60 -11 -82 -37 -21 -26 -90 -78 -96
-72 -3 2 16 33 41 68 71 98 132 193 139 216 5 14 2 24 -8 30 -14 7 -13 12 4
40 20 33 99 97 108 88 3 -3 -4 -19 -16 -35 -25 -33 -30 -72 -8 -64 7 3 28 26
47 51 33 44 113 113 130 113 5 0 9 -7 9 -16z"/>
<path fill="#ffffff" stroke="none" d="M5495 7543 c19 -45 38 -166 39 -243 l1
-84 -33 -7 c-30 -6 -35 -4 -44 20 -23 59 -25 211 -3 309 6 26 30 29 40 5z"/>
<path fill="#ffffff" stroke="none" d="M5407 7473 c-9 -83 -3 -217 13 -257 9
-24 6 -26 -54 -46 -49 -16 -69 -18 -90 -10 -15 5 -48 10 -74 10 -37 0 -50 -5
-60 -21 -15 -24 -9 -49 27 -103 25 -38 112 -229 134 -294 13 -40 -1 -85 -45
-150 -16 -24 -42 -73 -57 -109 -15 -37 -32 -68 -39 -71 -14 -4 -32 38 -32 76
0 70 -108 193 -187 215 -24 6 -43 14 -43 17 0 4 14 19 31 36 37 35 46 56 64
150 11 60 23 84 77 161 35 49 81 122 102 163 52 99 213 310 236 310 3 0 2 -35
-3 -77z"/>
<path fill="#ffffff" stroke="none" d="M1728 7456 c20 -19 51 -36 67 -38 23
-2 31 -9 33 -28 4 -34 -34 -76 -54 -59 -8 6 -14 22 -14 35 0 28 -33 48 -66 40
-28 -7 -52 -49 -57 -100 -2 -20 -6 -39 -10 -42 -3 -4 -25 10 -49 30 -45 39
-72 50 -109 44 -37 -5 -38 -58 -2 -92 l28 -26 -27 0 c-22 0 -32 -8 -48 -40
-31 -60 -27 -70 25 -70 64 0 61 -25 -5 -39 -28 -6 -59 -11 -68 -11 -38 0 -60
-61 -27 -74 22 -8 19 -46 -3 -46 -21 0 -97 -76 -106 -107 -9 -29 13 -63 41
-63 17 0 24 -8 29 -36 11 -61 -44 -69 -71 -10 -9 17 -26 46 -40 65 -24 32 -24
34 -8 65 10 17 16 37 15 44 -2 7 8 12 27 12 16 0 36 3 45 6 24 9 19 48 -9 72
-40 35 -32 92 16 116 14 7 25 22 27 37 2 19 12 29 38 38 40 14 58 49 51 96 -6
32 18 131 34 140 5 4 24 -4 42 -17 35 -25 122 -35 144 -16 7 5 17 26 24 46 13
41 27 62 40 62 5 0 26 -15 47 -34z"/>
<path fill="#ffffff" stroke="none" d="M3659 7414 c36 -67 67 -88 152 -103 97
-17 108 -24 115 -71 6 -35 32 -76 35 -54 1 5 2 14 4 19 1 6 3 23 3 39 l2 28
88 -4 c78 -4 96 -9 170 -47 75 -38 86 -47 103 -87 32 -71 9 -141 -67 -209 -24
-22 -66 -71 -92 -110 -50 -74 -93 -105 -121 -88 -12 7 -18 33 -22 94 -6 88
-24 144 -53 168 -21 17 -34 6 -20 -17 6 -9 19 -58 29 -108 22 -109 13 -163
-30 -182 -54 -25 -105 -5 -197 77 -71 65 -100 69 -60 10 18 -28 118 -119 130
-119 4 0 14 -4 22 -10 12 -7 12 -12 -4 -29 -21 -23 -65 -28 -96 -11 -11 6 -65
19 -121 31 -156 31 -211 65 -235 147 -28 91 -9 242 41 342 32 63 70 109 81 98
3 -3 -2 -32 -10 -63 -15 -58 -12 -89 7 -82 7 2 99 334 107 385 2 13 19 -6 39
-44z"/>
<path fill="#ffffff" stroke="none" d="M3758 7446 c22 -8 97 -31 167 -51 70
-20 150 -47 178 -60 l52 -23 -71 -1 c-41 -1 -101 7 -145 19 -41 11 -92 20
-114 20 -52 0 -84 17 -112 59 -37 55 -28 63 45 37z"/>
<path fill="#ffffff" stroke="none" d="M5649 7405 c35 -15 80 -37 99 -50 42
-29 120 -132 161 -212 53 -104 77 -281 42 -316 -14 -14 -31 7 -75 100 -20 40
-52 90 -72 113 -57 63 -183 160 -207 160 -21 0 -22 4 -22 87 0 49 -3 103 -7
122 -6 25 -5 32 5 28 6 -3 41 -17 76 -32z"/>
<path fill="#ffffff" stroke="none" d="M2750 7349 c1 -114 166 -348 319 -451
25 -17 56 -40 68 -51 l23 -20 -43 -47 c-23 -26 -54 -62 -69 -81 -32 -41 -18
-55 -162 161 -126 189 -163 282 -170 435 -3 64 11 115 26 93 4 -7 8 -25 8 -39z"/>
<path fill="#ffffff" stroke="none" d="M1720 7343 c0 -24 40 -63 65 -63 13 0
33 -16 53 -42 18 -24 52 -70 77 -103 24 -33 58 -77 75 -99 32 -41 39 -76 15
-76 -8 0 -15 4 -15 10 0 16 -71 90 -86 90 -23 0 -16 -19 21 -63 20 -23 38 -52
42 -65 6 -27 -15 -112 -29 -112 -6 0 -24 11 -40 25 -17 14 -38 25 -46 23 -31
-6 -22 -29 22 -55 51 -32 58 -50 21 -59 -32 -8 -53 -3 -135 31 -35 15 -82 30
-103 33 -67 9 -39 -16 67 -61 l99 -41 -23 -18 c-12 -10 -28 -18 -34 -18 -7 0
-50 18 -97 41 -113 55 -187 73 -265 65 -56 -6 -62 -5 -67 14 -3 14 -13 20 -31
20 -31 0 -32 4 -5 42 19 26 25 29 60 23 21 -4 47 -4 59 0 26 8 26 49 0 75 -11
11 -20 27 -20 35 0 8 -6 15 -12 16 -7 0 13 7 45 15 l57 14 87 -40 c47 -22 88
-38 90 -36 3 3 2 14 -2 25 -5 18 -98 71 -124 71 -6 0 -7 15 -4 35 7 43 -9 65
-48 65 -45 0 -34 18 14 22 55 4 63 35 18 69 -17 13 -31 26 -31 31 0 17 27 7
64 -23 21 -18 51 -35 68 -38 22 -5 36 -18 55 -51 31 -56 52 -80 70 -80 21 0
16 16 -27 87 -45 75 -56 116 -41 156 11 30 41 37 41 10z"/>
<path fill="#ffffff" stroke="none" d="M4730 7339 c25 -6 83 -12 130 -13 49
-1 96 -8 110 -16 l25 -13 -32 -11 c-17 -6 -35 -14 -39 -18 -4 -5 -31 -8 -60
-8 -50 0 -119 26 -152 58 -7 6 -20 12 -27 12 -8 0 -17 5 -20 10 -8 13 8 12 65
-1z"/>
<path fill="#ffffff" stroke="none" d="M4608 7310 c34 -11 95 -38 135 -59 l73
-38 -63 -43 c-65 -44 -79 -57 -69 -67 11 -11 57 9 123 53 66 46 221 116 236
107 13 -8 7 -33 -22 -91 -37 -73 -50 -122 -57 -213 -5 -72 -18 -108 -58 -162
-20 -28 -64 -57 -85 -57 -5 0 -50 28 -100 61 -123 84 -147 86 -274 25 -85 -40
-177 -68 -177 -53 0 3 23 20 51 38 51 32 87 74 75 86 -8 9 -50 -14 -113 -60
-81 -60 -83 -39 -4 43 40 41 79 90 87 109 23 55 18 148 -11 200 -14 23 -25 46
-25 51 0 11 77 60 119 75 51 19 89 18 159 -5z"/>
<path fill="#ffffff" stroke="none" d="M5608 7148 c72 -40 191 -155 222 -217
15 -31 40 -78 54 -106 14 -27 28 -63 32 -80 6 -27 -3 -21 -76 53 -45 45 -91
82 -101 82 -34 0 -34 0 147 -192 30 -31 54 -62 54 -68 0 -11 -66 -8 -144 7
-21 4 -27 2 -24 -8 7 -22 68 -47 136 -54 37 -4 62 -11 62 -18 -1 -7 -30 -43
-65 -82 -63 -68 -66 -70 -112 -69 -49 0 -93 21 -125 59 -28 33 -74 126 -97
196 -44 136 -145 262 -284 356 -87 59 -124 101 -105 120 12 11 23 10 72 -7 64
-22 157 -72 176 -95 15 -18 63 -20 58 -2 -3 6 -29 29 -59 50 -30 21 -55 42
-57 46 -4 13 107 49 154 50 25 1 57 -8 82 -21z"/>
<path fill="#ffffff" stroke="none" d="M6302 7145 c11 -14 26 -25 35 -25 11 0
14 7 11 25 -5 22 -2 25 23 25 26 0 29 -3 29 -35 0 -46 34 -56 86 -26 47 28 64
16 45 -32 -21 -51 -22 -70 -8 -97 11 -22 19 -25 70 -25 75 -1 93 -19 106 -105
6 -44 21 -88 46 -133 l37 -67 -17 -49 c-15 -46 -15 -51 5 -105 26 -68 23 -103
-10 -128 -29 -21 -212 -62 -240 -53 -29 9 -54 72 -41 102 8 18 8 30 0 45 -9
18 -17 20 -56 14 -39 -5 -47 -3 -70 20 -24 24 -25 31 -20 92 5 66 -4 102 -24
102 -6 0 -30 19 -53 43 l-43 42 -6 95 c-4 52 -12 113 -18 135 -32 111 53 216
113 140z"/>
<path fill="#ffffff" stroke="none" d="M2591 7047 c108 -93 103 -80 73 -183
-14 -49 -28 -110 -31 -136 -3 -27 -9 -48 -13 -48 -15 0 -230 235 -230 252 0 6
15 25 33 43 18 18 39 53 47 77 7 23 15 46 17 51 9 17 34 3 104 -56z"/>
<path fill="#ffffff" stroke="none" d="M2779 6952 c11 -21 25 -67 31 -103 13
-73 55 -233 65 -249 4 -6 0 -26 -9 -45 -18 -37 -14 -55 22 -104 25 -34 26 -38
26 -212 0 -98 -3 -181 -7 -185 -12 -12 -199 79 -245 118 -24 21 -47 38 -53 38
-16 0 -10 84 16 243 37 225 66 368 81 406 8 18 14 40 14 48 0 17 27 83 34 83
3 0 14 -17 25 -38z"/>
<path fill="#ffffff" stroke="none" d="M5291 6955 c58 -43 137 -124 172 -178
19 -29 51 -97 71 -152 21 -55 44 -110 52 -122 13 -21 13 -23 -4 -23 -47 0
-151 108 -202 209 -38 76 -130 279 -130 287 0 7 6 4 41 -21z"/>
<path fill="#ffffff" stroke="none" d="M6186 6729 c9 -10 23 -19 30 -19 7 0
14 -10 16 -22 2 -15 13 -24 34 -30 27 -7 30 -11 26 -38 -4 -26 -8 -30 -36 -30
-40 0 -61 -14 -53 -34 5 -11 17 -15 39 -14 29 3 34 -1 43 -29 6 -18 21 -44 34
-59 20 -23 28 -26 67 -20 73 10 68 -26 -6 -43 -62 -15 -122 -13 -212 4 -75 14
-128 45 -128 74 0 6 -6 22 -14 34 -7 12 -16 39 -19 59 -5 34 -2 39 39 73 24
20 44 41 44 46 0 23 -32 19 -67 -10 -66 -54 -74 -33 -13 33 22 24 40 48 40 55
0 20 -36 12 -60 -14 -26 -28 -40 -25 -40 9 0 27 27 53 100 94 31 17 67 43 80
57 l25 27 7 -92 c4 -66 11 -97 24 -111z"/>
<path fill="#ffffff" stroke="none" d="M2352 6911 c5 -17 89 -113 176 -203
l84 -87 -12 -85 c-7 -47 -15 -86 -18 -86 -3 0 -20 13 -37 29 -16 15 -70 59
-120 96 -78 58 -92 74 -106 114 -14 43 -60 132 -81 158 -7 8 6 20 44 42 58 34
65 36 70 22z"/>
<path fill="#ffffff" stroke="none" d="M3340 6828 c0 -123 106 -212 280 -234
66 -9 122 -30 100 -38 -29 -10 -134 -26 -174 -26 -23 0 -48 -5 -56 -10 -45
-30 105 -36 229 -9 49 11 60 7 41 -16 -21 -26 -81 -52 -143 -64 -63 -12 -96
-30 -144 -81 -37 -39 -72 -136 -75 -207 l-1 -45 -45 6 c-52 7 -137 52 -189 99
-19 18 -65 68 -101 112 -37 44 -88 104 -114 133 -68 76 -65 93 31 137 27 13
64 42 87 70 90 108 129 146 177 170 65 32 97 33 97 3z"/>
<path fill="#ffffff" stroke="none" d="M2219 6801 c36 -50 81 -155 81 -187 0
-91 -107 -125 -261 -84 l-37 10 2 85 2 85 79 59 c44 33 88 60 97 60 9 1 26
-12 37 -28z"/>
<path fill="#ffffff" stroke="none" d="M2975 6657 c15 -16 16 -20 4 -28 -18
-11 -59 -23 -64 -17 -7 6 -55 179 -55 197 0 9 22 -18 48 -59 27 -41 57 -83 67
-93z"/>
<path fill="#ffffff" stroke="none" d="M4623 6806 c18 -7 65 -35 106 -61 l74
-48 -61 -19 c-34 -10 -62 -23 -62 -29 0 -19 30 -21 87 -4 107 31 154 35 194
15 53 -28 106 -92 123 -151 24 -80 25 -79 -54 -79 -56 0 -70 -3 -70 -15 0 -10
10 -15 31 -15 56 0 170 -31 196 -54 l27 -23 -26 -17 c-37 -25 -132 -37 -186
-25 -49 11 -73 0 -47 -21 8 -7 30 -16 48 -19 l32 -7 -60 -39 c-115 -74 -151
-87 -247 -93 -89 -5 -105 1 -72 29 13 10 15 24 11 61 -5 43 -4 47 16 50 17 2
21 9 19 28 -2 14 -6 44 -9 67 -3 23 -11 47 -19 54 -8 6 -14 26 -14 43 0 39
-32 76 -65 76 -19 0 -25 5 -25 20 0 31 -27 78 -49 85 -11 3 -33 -1 -50 -9 -36
-19 -72 -12 -45 9 29 21 7 34 -45 28 -57 -6 -115 2 -133 20 -7 7 -26 22 -42
35 l-29 22 45 0 c61 0 148 24 232 65 77 37 118 43 169 21z"/>
<path fill="#ffffff" stroke="none" d="M1539 6730 c92 -28 103 -36 71 -58 -13
-9 -49 -38 -80 -63 -69 -57 -118 -78 -131 -58 -47 71 -50 79 -47 131 2 29 8
56 13 60 19 14 108 8 174 -12z"/>
<path fill="#ffffff" stroke="none" d="M1966 6685 c8 -42 -16 -111 -52 -154
-24 -29 -99 -69 -204 -111 -30 -12 -61 -24 -68 -27 -9 -4 -8 3 3 23 8 16 27
61 41 99 24 63 61 121 71 111 2 -2 -5 -39 -16 -82 -14 -54 -17 -82 -10 -89 17
-16 36 20 55 101 24 100 80 163 146 164 23 0 28 -5 34 -35z"/>
<path fill="#ffffff" stroke="none" d="M7195 6700 c-20 -22 -107 -75 -240
-145 -49 -27 -99 -54 -110 -61 -27 -19 -32 -18 -40 13 -5 21 11 146 20 161 1
1 44 13 96 27 67 17 122 24 193 25 98 0 99 0 81 -20z"/>
<path fill="#ffffff" stroke="none" d="M4200 6652 c19 -14 40 -31 46 -37 7 -6
26 -24 44 -39 38 -32 33 -43 -13 -30 -17 6 -57 11 -89 13 -49 2 -58 -1 -74
-22 -17 -21 -20 -22 -45 -10 -40 20 -73 3 -93 -46 -9 -23 -16 -48 -16 -55 0
-17 -22 -26 -61 -26 -22 0 -29 -5 -29 -20 0 -11 -7 -20 -15 -20 -7 0 -18 -8
-24 -17 -15 -27 -18 -15 -24 84 -4 67 -1 97 8 110 18 24 24 15 39 -49 8 -36
17 -54 29 -56 21 -4 22 23 5 97 -10 43 -9 53 6 75 20 31 55 34 79 6 9 -11 24
-20 32 -20 18 0 18 1 1 35 -8 15 -12 34 -9 41 6 15 33 19 33 5 0 -11 90 -101
101 -101 20 0 7 42 -21 67 -34 30 -37 40 -12 46 28 8 65 -3 102 -31z"/>
<path fill="#ffffff" stroke="none" d="M1710 6653 c0 -3 -6 -14 -13 -22 -8 -9
-26 -47 -41 -86 -53 -137 -86 -190 -152 -249 -51 -46 -72 -74 -104 -140 l-39
-83 -41 10 c-30 8 -49 8 -72 -1 -17 -6 -34 -9 -37 -6 -3 3 10 34 29 71 25 48
50 77 92 110 32 24 58 48 58 54 0 30 -79 -12 -142 -76 -32 -32 -33 -29 -14 40
16 61 47 124 72 147 11 9 60 38 109 65 50 27 125 77 168 111 48 38 88 62 103
62 13 0 24 -3 24 -7z"/>
<path fill="#ffffff" stroke="none" d="M5422 6552 c30 -21 21 -41 -28 -62 -25
-11 -47 -20 -49 -20 -7 0 -35 95 -35 120 0 14 7 36 16 49 l17 23 30 -48 c16
-27 38 -55 49 -62z"/>
<path fill="#ffffff" stroke="none" d="M4377 6584 c-3 -3 -12 -4 -19 -1 -8 3
-5 6 6 6 11 1 17 -2 13 -5z"/>
<path fill="#ffffff" stroke="none" d="M2420 6528 c119 -87 150 -120 150 -161
0 -44 -13 -54 -33 -24 -36 53 -113 119 -174 150 -17 9 -34 21 -38 26 -7 13 5
61 15 61 5 0 41 -24 80 -52z"/>
<path fill="#ffffff" stroke="none" d="M4523 6533 c3 -26 9 -49 14 -50 36 -12
73 -46 73 -66 0 -12 7 -33 16 -45 8 -12 17 -40 19 -62 4 -35 2 -40 -16 -40
-30 0 -33 -26 -8 -66 l22 -37 -35 -33 c-20 -18 -42 -52 -50 -75 -13 -38 -19
-45 -54 -53 -39 -9 -57 -23 -48 -38 3 -4 0 -16 -5 -26 -7 -14 -18 -18 -37 -14
-21 4 -33 -3 -63 -38 l-37 -43 -47 11 c-62 16 -62 16 -97 -18 -36 -35 -63 -38
-108 -10 -39 24 -51 25 -66 4 -18 -23 -46 -7 -46 26 0 38 -13 44 -56 28 -34
-12 -37 -11 -56 12 -14 18 -18 32 -13 55 3 16 8 40 11 51 5 25 -19 49 -41 40
-12 -4 -15 3 -15 33 0 25 -7 44 -20 56 -25 22 -25 34 -2 42 40 14 80 54 96 97
10 27 24 46 33 46 8 0 17 9 20 20 4 14 14 20 33 20 35 0 56 25 63 74 4 22 13
46 21 55 14 13 18 12 40 -8 32 -30 71 -23 80 14 5 21 12 25 41 25 19 0 55 -5
80 -12 40 -11 49 -10 90 10 25 12 45 26 45 31 0 6 12 6 31 -1 27 -9 34 -8 52
11 12 11 24 21 28 21 3 0 9 -21 12 -47z"/>
<path fill="#ffffff" stroke="none" d="M5299 6459 c1 -8 -18 -24 -45 -37 l-45
-22 7 22 c4 13 18 48 32 78 l25 55 13 -40 c7 -22 13 -47 13 -56z"/>
<path fill="#ffffff" stroke="none" d="M2060 6485 c30 -8 72 -15 92 -15 43 0
64 -24 93 -105 10 -27 38 -95 63 -150 71 -160 95 -235 93 -285 -6 -121 -5
-197 1 -221 l8 -26 -78 4 c-70 4 -83 1 -134 -25 -32 -16 -59 -28 -61 -26 -2 2
1 36 6 75 12 93 2 116 -53 125 -22 4 -42 9 -44 13 -6 9 -50 348 -61 466 -3 28
-7 62 -11 77 -5 26 14 108 25 108 3 0 31 -7 61 -15z"/>
<path fill="#ffffff" stroke="none" d="M1936 6463 c-32 -62 -174 -178 -303
-248 -51 -27 -93 -53 -93 -57 0 -5 14 -8 30 -8 17 0 30 -3 30 -7 0 -14 -235
-253 -249 -253 -17 0 -15 7 45 150 66 159 102 207 215 282 37 25 111 61 166
82 54 20 112 48 128 61 39 32 49 31 31 -2z"/>
<path fill="#ffffff" stroke="none" d="M2342 6458 c86 -52 115 -77 168 -144
54 -68 59 -87 34 -115 -10 -11 -19 -46 -23 -84 -6 -56 -12 -70 -41 -100 -39
-41 -40 -40 -71 60 -12 39 -34 95 -50 125 -16 30 -40 88 -54 129 -14 41 -34
89 -45 108 -11 19 -20 36 -20 38 0 3 23 11 42 14 4 0 31 -13 60 -31z"/>
<path fill="#ffffff" stroke="none" d="M5495 6480 c3 -5 -5 -30 -17 -54 -24
-48 -30 -52 -252 -183 -60 -35 -110 -62 -112 -61 -2 2 2 14 9 27 7 15 32 31
64 43 56 20 66 35 61 92 -3 27 2 32 67 63 39 18 90 44 115 57 53 28 57 29 65
16z"/>
<path fill="#ffffff" stroke="none" d="M6006 6453 c8 -31 -8 -98 -52 -215 -29
-78 -29 -93 -1 -82 16 6 87 174 87 206 0 29 19 30 34 1 24 -47 37 -142 39
-283 2 -112 5 -135 17 -135 12 0 16 18 20 80 4 67 7 77 17 60 24 -42 56 -205
40 -205 -2 0 -25 7 -51 16 -34 12 -69 15 -119 12 -76 -5 -124 -24 -169 -66
-31 -28 -37 -27 -44 13 -9 48 -43 103 -85 137 -23 18 -56 47 -75 63 l-33 30
19 71 c10 40 32 101 49 137 l31 66 55 -6 54 -6 68 66 c37 37 74 67 80 67 7 0
16 -12 19 -27z"/>
<path fill="#ffffff" stroke="none" d="M5614 6424 c35 -14 67 -32 70 -40 3 -8
-12 -50 -33 -94 -22 -44 -42 -98 -46 -120 -4 -22 -11 -40 -15 -40 -5 0 -22 24
-39 53 -27 48 -51 69 -88 79 -14 3 63 188 78 188 5 0 38 -12 73 -26z"/>
<path fill="#ffffff" stroke="none" d="M3770 6433 c0 -8 -39 -74 -84 -143 -21
-31 -36 -67 -36 -83 0 -40 15 -27 71 63 24 38 46 70 50 70 8 0 21 -89 14 -100
-2 -4 -18 -10 -35 -13 -52 -11 -63 -83 -19 -123 14 -13 16 -21 8 -36 -13 -24
-5 -48 15 -48 19 0 38 -34 30 -53 -8 -23 13 -92 35 -111 11 -10 32 -19 47 -20
24 -1 84 -47 84 -63 0 -4 -29 -37 -65 -74 l-65 -67 0 41 c0 61 -16 109 -56
168 -33 49 -34 55 -28 109 6 51 4 60 -16 80 -19 19 -31 22 -88 19 -39 -2 -80
3 -97 10 -16 7 -47 15 -67 18 -43 6 -43 5 -24 110 22 125 87 189 212 212 32 6
67 18 78 25 23 16 36 20 36 9z"/>
<path fill="#ffffff" stroke="none" d="M1944 6322 c4 -26 9 -69 11 -97 3 -27
12 -103 21 -169 8 -65 13 -120 11 -122 -2 -2 -63 19 -135 46 -73 27 -160 56
-194 65 -34 8 -64 18 -67 21 -10 10 326 317 338 309 5 -3 12 -26 15 -53z"/>
<path fill="#ffffff" stroke="none" d="M3020 6299 c93 -119 236 -229 297 -229
10 0 -11 -17 -47 -38 l-64 -37 -46 67 c-25 37 -73 96 -106 130 -34 35 -71 79
-83 98 -20 34 -28 81 -13 79 4 0 32 -32 62 -70z"/>
<path fill="#ffffff" stroke="none" d="M6162 6346 c47 -20 230 -137 273 -175
20 -17 40 -31 45 -31 14 0 12 23 -2 42 -16 19 -122 98 -165 123 -18 10 -30 22
-28 26 3 3 32 9 65 13 34 4 67 9 74 12 8 3 18 -7 25 -25 15 -36 62 -60 116
-59 22 0 45 0 52 -1 14 -1 85 -130 107 -194 25 -75 49 -228 38 -239 -7 -7 -15
-1 -25 18 -22 42 -65 80 -77 68 -6 -6 3 -28 26 -63 51 -76 107 -198 100 -217
-10 -27 -54 -11 -160 57 -73 46 -100 59 -108 51 -9 -9 -5 -19 17 -42 16 -16
34 -30 41 -30 6 0 17 -6 23 -14 32 -38 -138 -48 -207 -12 -38 19 -39 32 -11
117 26 81 20 126 -19 136 -34 9 -60 5 -87 -13 -21 -13 -21 -12 -33 66 -13 89
-41 162 -76 200 -19 20 -25 40 -29 95 -3 39 -8 78 -12 88 -9 21 -7 21 37 3z"/>
<path fill="#ffffff" stroke="none" d="M5430 6313 c0 -5 -10 -24 -21 -43 -20
-32 -23 -33 -30 -15 -5 15 -1 26 19 42 30 25 32 26 32 16z"/>
<path fill="#ffffff" stroke="none" d="M5343 6240 c5 -18 -14 -50 -50 -88 -7
-7 -13 -20 -13 -27 0 -8 -31 -48 -69 -89 l-70 -75 -36 65 c-20 36 -35 71 -32
77 3 7 44 32 91 57 47 24 102 57 123 71 47 33 49 34 56 9z"/>
<path fill="#ffffff" stroke="none" d="M925 6210 c278 -79 257 -72 250 -94
-16 -51 -16 -72 0 -86 14 -12 22 -12 48 -1 48 20 90 23 109 8 17 -13 16 -17
-12 -68 -43 -78 -37 -129 14 -129 32 1 109 62 163 129 53 67 49 66 163 34 68
-19 97 -30 230 -86 93 -39 105 -47 108 -70 3 -25 0 -27 -31 -27 -47 0 -107
-22 -156 -58 -22 -16 -60 -34 -84 -40 -27 -7 -61 -28 -92 -57 l-50 -46 -15 23
c-38 60 -126 136 -183 157 -61 22 -155 28 -187 11 -15 -8 -26 -4 -54 20 -44
39 -91 56 -110 40 -20 -16 -81 24 -176 114 -41 40 -100 92 -130 118 -65 54
-89 91 -74 116 25 39 113 37 269 -8z"/>
<path fill="#ffffff" stroke="none" d="M3127 6036 c45 -64 47 -69 30 -80 -10
-6 -31 -21 -45 -33 -35 -30 -39 -29 -62 10 -11 17 -38 46 -61 62 -37 28 -40
33 -35 65 3 19 6 66 6 105 l0 69 60 -64 c33 -36 81 -96 107 -134z"/>
<path fill="#ffffff" stroke="none" d="M5521 6153 c45 -72 82 -109 164 -165
57 -39 106 -124 108 -185 1 -44 -17 -60 -110 -98 -77 -32 -138 -84 -152 -129
-5 -17 -12 -65 -15 -106 -3 -42 -13 -100 -23 -130 l-18 -55 -7 73 c-8 75 -21
112 -40 112 -8 0 -9 -31 -5 -107 6 -98 6 -106 -8 -88 -15 19 -21 38 -45 140
-25 109 -104 177 -210 179 l-58 1 -7 43 c-8 52 0 93 30 152 30 58 71 96 173
158 l82 51 0 -72 c0 -80 11 -110 32 -89 8 8 13 51 13 130 2 173 13 252 35 252
11 0 34 -26 61 -67z"/>
<path fill="#ffffff" stroke="none" d="M5026 6104 c-87 -175 -156 -425 -156
-566 0 -39 -4 -60 -14 -65 -8 -5 -51 -41 -95 -81 -92 -83 -86 -86 -95 48 -3
41 -8 104 -12 140 -5 57 -3 72 20 120 24 52 26 65 26 206 l0 152 58 4 c64 4
150 41 247 106 33 22 61 37 63 33 1 -4 -17 -48 -42 -97z"/>
<path fill="#ffffff" stroke="none" d="M5393 6148 c-12 -93 -30 -113 -165
-193 -32 -18 -58 -32 -58 -29 0 2 27 33 59 68 33 35 69 82 80 105 20 38 68 91
82 91 4 0 5 -19 2 -42z"/>
<path fill="#ffffff" stroke="none" d="M2647 6122 c27 -26 59 -71 72 -100 31
-66 46 -67 38 -3 l-6 50 37 -16 c132 -55 213 -113 258 -185 13 -21 24 -40 24
-43 0 -3 -15 -5 -34 -5 -26 0 -41 -7 -60 -31 -21 -25 -27 -28 -32 -15 -3 9
-13 16 -21 16 -19 0 -103 -81 -103 -100 0 -8 -16 -28 -35 -43 -37 -30 -45 -62
-23 -97 10 -16 8 -22 -15 -40 -41 -32 -38 -80 8 -114 41 -32 45 -49 10 -40
-35 9 -32 -10 8 -57 42 -49 59 -103 51 -163 l-7 -47 -33 49 c-37 56 -83 95
-169 143 -71 40 -101 71 -115 119 -11 39 -14 210 -3 210 4 0 16 -8 27 -19 40
-36 74 -53 81 -41 4 7 -31 47 -84 98 l-91 88 0 54 c0 32 8 72 19 95 18 40 81
133 91 134 3 1 18 -24 35 -54 19 -35 36 -55 47 -55 25 0 23 7 -18 90 -50 102
-58 170 -19 170 8 0 36 -21 62 -48z"/>
<path fill="#ffffff" stroke="none" d="M7308 6099 c8 -68 -252 -360 -488 -550
-174 -139 -398 -299 -419 -299 -6 0 -29 11 -51 25 l-39 25 27 57 c24 51 27 70
27 161 0 87 2 101 15 96 58 -25 206 -23 248 3 21 13 29 13 72 -6 53 -23 105
-27 116 -10 11 19 6 97 -9 126 -12 23 -13 38 -3 86 l12 59 129 84 c153 99 248
150 301 163 51 12 58 9 62 -20z"/>
<path fill="#ffffff" stroke="none" d="M4665 5944 c9 -147 -8 -226 -65 -285
-20 -21 -42 -39 -48 -39 -8 0 -12 28 -12 86 0 47 -5 94 -10 105 -12 22 -45 27
-37 4 4 -8 9 -58 12 -112 5 -87 3 -104 -17 -153 -34 -82 -47 -79 -149 30 -51
55 -91 90 -98 86 -13 -8 7 -54 33 -75 9 -8 16 -17 16 -22 0 -12 -67 -11 -112
2 -38 10 -140 96 -178 148 -19 27 -19 27 4 56 22 27 24 28 47 12 13 -10 43
-17 67 -17 35 0 48 5 71 30 27 30 29 31 72 19 39 -10 50 -10 83 6 21 10 42 29
47 43 8 21 13 23 45 17 39 -7 63 12 64 50 0 15 10 24 32 30 24 8 38 21 53 53
16 34 25 42 47 42 l26 0 7 -116z"/>
<path fill="#ffffff" stroke="none" d="M5089 5970 l28 -55 -28 -85 c-21 -63
-28 -106 -28 -166 l-1 -82 -60 -22 c-33 -12 -63 -27 -66 -31 -3 -5 -10 -9 -16
-9 -16 0 1 153 28 253 36 128 96 279 106 264 5 -6 21 -37 37 -67z"/>
<path fill="#ffffff" stroke="none" d="M3498 6026 c24 -13 23 -14 -46 -65 -64
-47 -82 -67 -82 -92 0 -19 23 -7 81 41 84 70 150 102 202 98 l42 -3 -3 -45
c-1 -25 -11 -78 -22 -118 -11 -40 -20 -82 -20 -93 0 -36 24 -15 46 41 l22 53
28 -49 c26 -44 29 -58 28 -129 -1 -50 -8 -100 -20 -135 -17 -50 -22 -55 -48
-55 -26 0 -30 5 -42 46 -19 64 -54 99 -98 99 -31 0 -36 4 -41 28 -9 41 -19 55
-56 80 -24 17 -42 22 -62 18 -24 -5 -30 -2 -38 24 -13 35 -43 47 -74 30 -20
-11 -28 -9 -52 7 -21 15 -40 18 -75 15 -40 -3 -48 -1 -58 18 -6 12 -10 23 -8
24 78 62 200 143 236 157 55 21 127 24 160 5z"/>
<path fill="#ffffff" stroke="none" d="M6146 5854 c37 -11 52 -19 47 -27 -5
-7 -21 -31 -37 -54 -25 -38 -30 -73 -9 -73 4 0 25 25 47 56 41 60 107 114 139
114 18 0 19 -5 14 -44 -6 -44 -62 -151 -92 -176 -8 -7 -15 -19 -15 -26 0 -12
4 -12 28 0 16 8 34 22 42 31 10 13 15 13 21 3 15 -22 10 -130 -10 -210 -20
-84 -84 -205 -89 -170 -5 29 -48 72 -73 72 -15 0 -19 4 -15 16 11 30 -3 54
-32 54 -15 0 -37 7 -49 15 -12 9 -35 14 -50 13 -15 -1 -38 4 -50 10 -33 18
-70 14 -92 -9 -17 -19 -23 -19 -59 -8 -53 15 -92 -6 -92 -50 0 -38 -26 -61
-35 -32 -9 30 -21 26 -34 -10 -19 -56 -77 -116 -128 -133 -25 -9 -48 -14 -51
-12 -2 3 4 17 15 33 10 15 25 41 31 57 17 38 42 159 42 200 0 41 22 96 47 118
10 9 60 37 112 62 86 43 93 44 87 24 -4 -13 -9 -45 -12 -73 l-5 -50 20 23 c11
13 25 43 31 65 31 123 56 162 121 188 55 22 115 24 185 3z"/>
<path fill="#ffffff" stroke="none" d="M1179 5743 c79 -78 99 -92 114 -77 10
10 -20 60 -50 82 -25 19 -26 20 -7 30 25 13 103 -1 158 -28 51 -25 115 -84
144 -132 l22 -36 -25 -75 c-17 -52 -25 -97 -25 -144 0 -63 21 -163 40 -188 4
-5 5 -52 2 -102 l-4 -93 -32 22 c-48 33 -183 167 -227 226 -37 49 -59 59 -59
28 0 -19 84 -125 138 -174 l47 -44 -40 6 c-22 3 -60 6 -85 6 -43 1 -46 3 -65
43 -17 35 -27 44 -65 56 -90 28 -87 24 -114 114 -21 67 -26 110 -28 203 -2 66
1 132 5 149 8 29 9 29 40 -35 31 -62 57 -88 57 -56 0 8 -14 50 -31 93 -21 52
-33 102 -37 150 -5 71 -4 72 19 66 13 -4 61 -44 108 -90z"/>
<path fill="#ffffff" stroke="none" d="M2105 5790 c4 -6 1 -51 -6 -99 l-13
-89 -35 -11 c-20 -6 -67 -15 -105 -20 -37 -5 -69 -11 -70 -13 -27 -37 -36 -59
-36 -93 0 -57 17 -110 46 -145 14 -16 42 -67 62 -113 21 -45 48 -99 61 -120
12 -21 21 -43 18 -50 -2 -6 -26 -40 -51 -75 -39 -53 -49 -61 -65 -53 -42 23
-132 18 -151 -7 -3 -4 -27 -22 -55 -40 -49 -32 -50 -32 -59 -12 -14 30 8 89
63 172 49 75 71 112 71 122 0 3 -8 6 -18 6 -16 0 -82 -76 -82 -94 0 -3 -13
-24 -29 -47 -17 -22 -32 -46 -35 -52 -3 -9 -8 -8 -16 3 -15 20 -5 202 16 290
22 96 28 150 17 150 -19 0 -31 -24 -44 -87 -7 -35 -16 -63 -20 -63 -15 0 -22
116 -11 177 14 87 92 213 149 242 40 20 43 11 13 -38 -29 -46 -38 -81 -22 -81
4 0 42 47 84 103 l76 103 84 18 c46 10 88 19 93 21 23 8 64 4 70 -5z"/>
<path fill="#ffffff" stroke="none" d="M3232 5761 c32 -27 35 -28 66 -16 17 8
32 10 32 5 0 -22 41 -50 74 -50 44 0 82 -31 90 -74 7 -35 10 -37 70 -51 41 -9
55 -32 56 -87 0 -43 2 -47 27 -50 35 -4 43 -34 14 -54 -28 -20 -26 -38 4 -58
25 -16 32 -49 17 -73 -4 -7 -29 -22 -55 -33 -46 -20 -62 -49 -37 -65 16 -10
11 -21 -15 -33 -16 -8 -28 -23 -32 -43 -8 -40 -25 -46 -62 -18 -25 18 -37 21
-78 15 -26 -4 -57 -7 -68 -6 -11 0 -32 1 -47 2 -17 1 -30 9 -37 24 -13 29 -50
32 -106 8 -47 -19 -67 -12 -64 23 4 58 1 65 -33 63 -18 -1 -39 -2 -45 -1 -14
1 -47 61 -57 103 -7 31 -69 78 -103 78 -17 0 -23 6 -23 23 0 29 -18 47 -47 47
-31 0 -29 14 7 40 27 19 30 27 30 75 0 47 3 57 25 71 14 9 25 24 25 33 0 10
14 30 30 45 28 24 32 25 46 11 22 -22 36 -15 59 29 19 35 22 37 55 31 49 -10
101 -8 114 5 16 16 33 12 68 -19z"/>
<path fill="#ffffff" stroke="none" d="M3983 5683 c12 -16 38 -46 58 -68 l37
-40 -43 -70 c-24 -38 -49 -69 -57 -68 -15 1 -192 36 -195 38 -1 0 4 21 11 46
10 33 32 63 87 117 41 39 76 72 78 72 2 0 13 -12 24 -27z"/>
<path fill="#ffffff" stroke="none" d="M2392 5640 c21 -6 41 -16 45 -23 4 -7
10 -67 13 -133 5 -112 8 -124 33 -157 15 -20 59 -52 104 -77 71 -38 143 -94
143 -111 0 -4 -26 4 -57 17 -64 26 -127 32 -121 12 3 -7 40 -27 83 -43 119
-46 113 -70 -10 -40 -78 19 -114 18 -172 -1 -53 -18 -106 -70 -125 -121 -14
-37 -30 -41 -85 -18 -102 43 -157 131 -172 271 -5 49 -13 97 -16 107 -10 23
-1 22 84 -14 47 -20 77 -27 83 -21 13 13 -31 43 -119 80 -87 36 -213 117 -213
137 0 17 15 22 105 34 51 7 96 23 170 61 106 53 150 61 227 40z"/>
<path fill="#ffffff" stroke="none" d="M891 5583 l87 -17 0 -100 c0 -56 5
-125 11 -155 6 -30 9 -56 7 -58 -15 -15 -302 172 -350 229 -40 46 -47 90 -18
107 27 16 166 13 263 -6z"/>
<path fill="#ffffff" stroke="none" d="M4639 5338 l1 -67 -77 -62 -77 -62 -45
15 c-26 9 -62 19 -81 23 -60 11 -70 16 -70 32 0 8 -11 61 -25 117 -13 56 -27
121 -31 144 l-7 42 57 0 c51 0 61 -4 88 -30 45 -45 59 -50 96 -34 25 10 39 26
54 63 15 34 30 53 52 63 l31 15 17 -96 c9 -53 17 -126 17 -163z"/>
<path fill="#ffffff" stroke="none" d="M7387 5554 c12 -32 -63 -85 -347 -244
-52 -30 -138 -81 -190 -115 -53 -34 -126 -79 -164 -100 -65 -36 -69 -37 -79
-19 -20 36 -98 112 -127 124 -17 7 -30 16 -30 20 0 8 118 89 168 114 52 27
533 194 632 220 75 20 129 20 137 0z"/>
<path fill="#ffffff" stroke="none" d="M4160 5535 c17 -9 30 -23 30 -33 0 -15
35 -179 55 -254 10 -40 -18 -37 -66 7 -22 19 -44 35 -49 35 -6 0 -10 16 -10
35 0 20 -7 70 -16 111 -22 110 -9 133 56 99z"/>
<path fill="#ffffff" stroke="none" d="M5221 5539 c37 -13 75 -43 91 -74 13
-23 38 -115 32 -115 -18 0 -84 44 -98 64 -9 14 -27 33 -40 42 -29 18 -49 10
-107 -41 -22 -20 -56 -37 -87 -45 -35 -8 -60 -21 -76 -41 -40 -47 -62 -38 -25
9 11 15 30 43 42 62 25 38 96 95 160 128 48 25 61 26 108 11z"/>
<path fill="#ffffff" stroke="none" d="M4949 5473 c-14 -16 -31 -41 -39 -58
-8 -16 -40 -56 -71 -87 -31 -32 -72 -78 -90 -103 -42 -56 -100 -82 -144 -65
-29 11 -29 12 -10 26 11 8 67 59 126 114 117 110 225 196 248 199 3 1 -6 -11
-20 -26z"/>
<path fill="#ffffff" stroke="none" d="M4070 5394 c7 -30 10 -58 7 -60 -3 -3
-17 10 -32 30 -25 33 -26 36 -10 60 10 14 19 26 20 26 2 0 9 -25 15 -56z"/>
<path fill="#ffffff" stroke="none" d="M2000 5348 c10 -18 21 -61 25 -106 3
-43 9 -88 12 -102 8 -40 -13 -5 -43 74 -15 37 -40 83 -55 101 -29 32 -62 108
-52 118 9 9 95 -55 113 -85z"/>
<path fill="#ffffff" stroke="none" d="M3829 5424 c96 -16 171 -45 171 -65 0
-16 75 -85 118 -109 47 -26 61 -48 55 -83 -5 -26 -7 -27 -82 -27 -86 0 -154
-15 -148 -33 3 -9 37 -11 120 -8 l117 3 0 -43 c0 -24 -4 -49 -8 -56 -10 -16
-113 -62 -242 -108 -58 -20 -152 -60 -210 -89 -92 -45 -112 -51 -165 -50 -71
0 -103 15 -175 81 -28 26 -63 53 -77 59 -41 18 -10 27 106 31 128 5 151 9 151
28 0 13 -16 14 -102 9 l-103 -6 42 42 41 43 32 -26 c29 -25 34 -26 63 -14 22
9 35 24 43 47 8 23 20 37 38 43 27 9 29 14 26 58 -1 20 5 29 27 38 31 13 73
70 73 99 0 9 -6 26 -13 37 -13 19 -12 115 0 115 3 0 49 -7 102 -16z"/>
<path fill="#ffffff" stroke="none" d="M5221 5375 c11 -25 28 -97 37 -160 9
-63 20 -115 24 -115 23 0 27 42 12 130 -9 50 -13 94 -10 97 11 11 65 -44 105
-107 62 -97 84 -176 76 -277 -6 -78 -8 -82 -36 -94 -34 -13 -74 -61 -89 -105
-8 -21 -25 -36 -66 -55 l-56 -26 -23 20 c-22 21 -22 21 -4 61 22 49 25 106 6
106 -8 0 -20 -19 -27 -42 -7 -24 -22 -61 -33 -83 l-21 -40 -8 35 c-4 19 -5 55
-2 80 12 84 12 90 2 96 -14 9 -28 -15 -28 -51 0 -51 -11 -75 -36 -81 -13 -4
-33 -19 -45 -35 -12 -18 -29 -29 -43 -29 -23 0 -23 0 -9 53 30 115 -31 252
-139 308 -34 17 -36 21 -28 47 15 53 30 71 93 113 34 23 76 57 93 75 17 18 44
36 60 39 44 9 91 35 111 61 29 39 61 31 84 -21z"/>
<path fill="#ffffff" stroke="none" d="M5960 5405 c9 -11 23 -14 45 -9 19 3
35 1 39 -5 4 -6 16 -11 28 -11 15 0 18 -4 14 -16 -13 -34 3 -54 44 -54 43 0
53 -10 64 -70 3 -19 21 -49 38 -67 28 -29 30 -35 20 -58 -18 -38 -15 -62 9
-79 21 -15 21 -25 -3 -58 -10 -14 -9 -24 5 -53 24 -51 22 -63 -19 -102 -35
-33 -36 -35 -30 -86 8 -62 -5 -85 -55 -103 -28 -9 -34 -16 -35 -40 0 -16 -1
-35 -2 -41 -4 -25 -33 -12 -80 36 -26 26 -91 81 -144 120 -54 40 -98 74 -98
76 0 2 12 16 26 30 20 21 25 34 22 61 -4 38 3 41 46 19 15 -8 34 -15 41 -15
24 0 45 31 45 64 0 48 -21 61 -96 58 -58 -3 -64 -1 -64 17 0 11 -11 33 -25 50
l-26 30 31 50 c43 69 101 117 161 131 55 13 65 22 45 39 -11 9 -28 7 -76 -9
-71 -24 -138 -86 -182 -167 -29 -52 -50 -147 -43 -191 16 -105 16 -112 -4
-112 -17 0 -111 87 -119 111 -2 5 12 16 31 24 47 20 52 30 32 70 -18 40 -12
59 34 97 41 35 51 59 51 122 0 46 4 57 21 67 17 9 20 17 14 45 -7 39 -1 41 50
17 34 -16 37 -16 73 5 44 26 56 27 72 7z"/>
<path fill="#ffffff" stroke="none" d="M2840 5320 c0 -5 -2 -10 -4 -10 -3 0
-8 5 -11 10 -3 6 -1 10 4 10 6 0 11 -4 11 -10z"/>
<path fill="#ffffff" stroke="none" d="M5686 5283 c-10 -10 -19 5 -10 18 6 11
8 11 12 0 2 -7 1 -15 -2 -18z"/>
<path fill="#ffffff" stroke="none" d="M2913 5260 c5 -18 22 -53 38 -77 24
-34 36 -43 59 -43 25 0 30 -4 30 -23 0 -44 21 -60 76 -55 27 3 57 8 66 12 13
6 25 -1 47 -24 20 -22 35 -31 46 -26 18 7 65 -2 65 -13 -1 -7 -133 -109 -152
-116 -7 -3 -19 -1 -27 4 -12 8 -7 18 27 51 23 23 42 49 42 56 0 27 -33 13 -82
-36 -52 -52 -87 -63 -113 -36 -10 10 -12 23 -7 42 9 33 5 64 -9 64 -5 0 -15
-16 -23 -35 -14 -32 -34 -44 -49 -29 -3 3 1 27 9 52 7 26 14 62 14 80 0 56
-33 34 -45 -30 -8 -44 -15 -46 -41 -17 -23 25 -24 70 -4 237 0 2 5 2 12 0 7
-3 16 -19 21 -38z"/>
<path fill="#ffffff" stroke="none" d="M4850 5256 c0 -2 -7 -7 -16 -10 -8 -3
-12 -2 -9 4 6 10 25 14 25 6z"/>
<path fill="#ffffff" stroke="none" d="M6370 5216 c41 -25 94 -56 116 -69 54
-32 103 -103 110 -161 l7 -46 -74 39 c-76 40 -130 54 -136 36 -2 -6 27 -25 64
-44 115 -56 159 -88 184 -135 18 -36 21 -47 11 -59 -11 -13 -102 -35 -214 -52
-41 -6 -52 -29 -18 -38 11 -3 36 -1 57 3 21 5 39 7 41 5 2 -2 -10 -24 -28 -49
-37 -55 -99 -89 -190 -106 -36 -6 -73 -13 -83 -15 -11 -2 -23 7 -32 25 -15 28
-14 30 21 56 53 41 69 78 53 126 -12 36 -11 40 9 54 46 32 66 111 40 154 -10
15 -9 22 5 38 23 25 22 58 -3 79 -15 14 -18 25 -14 54 5 29 1 45 -15 67 -24
34 -26 53 -9 70 16 16 14 17 98 -32z"/>
<path fill="#ffffff" stroke="none" d="M5690 5222 c0 -5 -14 -21 -31 -38 -17
-16 -42 -48 -56 -71 -20 -35 -22 -46 -13 -64 10 -19 8 -25 -20 -50 -26 -25
-31 -35 -25 -57 3 -15 15 -36 26 -48 28 -30 24 -34 -26 -34 l-46 0 3 97 3 97
33 10 c42 12 36 30 -10 34 -27 2 -37 8 -42 25 -8 30 7 42 99 75 87 32 105 36
105 24z"/>
<path fill="#ffffff" stroke="none" d="M4290 5162 c29 -43 123 -132 140 -132
19 0 10 30 -21 65 -18 20 -30 37 -28 40 10 9 119 -39 172 -75 60 -41 86 -45
67 -9 -14 25 -5 25 96 -1 89 -23 142 -64 175 -135 34 -72 19 -225 -22 -225 -9
0 -22 -7 -29 -15 -7 -9 -29 -15 -51 -15 -22 0 -39 -4 -39 -10 0 -5 -4 -10 -10
-10 -5 0 -10 10 -10 23 0 52 -73 167 -105 167 -20 0 -20 1 18 -67 19 -32 39
-75 46 -93 l12 -35 -31 35 -31 35 4 -40 c2 -21 -3 -52 -11 -67 -8 -17 -11 -40
-7 -58 4 -16 4 -34 0 -40 -9 -15 -114 43 -166 91 -40 37 -59 42 -59 15 0 -20
70 -82 138 -121 34 -20 62 -40 62 -45 0 -5 -13 -18 -30 -30 -35 -25 -40 -64
-10 -82 27 -17 25 -29 -10 -63 l-29 -28 -77 28 c-42 15 -95 42 -118 59 -39 30
-53 51 -110 171 -13 28 -34 70 -47 94 -18 36 -23 65 -27 151 -5 113 1 134 59
230 17 28 20 48 19 110 -4 107 -5 103 32 96 18 -3 34 -10 38 -14z"/>
<path fill="#ffffff" stroke="none" d="M4744 5133 c-10 -41 -16 -44 -64 -30
l-45 13 41 7 c23 4 47 14 54 22 18 22 21 19 14 -12z"/>
<path fill="#ffffff" stroke="none" d="M1176 5099 c17 -19 18 -32 12 -124 l-3
-40 50 -5 c43 -4 52 -9 64 -35 12 -24 12 -36 2 -70 -7 -22 -15 -58 -18 -81 -4
-36 -2 -41 21 -52 15 -7 26 -20 26 -31 0 -11 8 -25 19 -30 28 -15 33 -51 16
-115 -8 -31 -15 -91 -15 -132 0 -41 -5 -85 -11 -97 -37 -72 -97 -90 -127 -37
-22 38 -57 42 -48 5 7 -28 7 -29 -29 -15 -23 9 -25 14 -20 44 9 46 -14 59 -74
44 -61 -15 -72 0 -38 50 44 62 29 122 -29 122 -73 1 -106 44 -92 121 8 42 5
64 -11 119 -26 85 -26 101 -1 151 18 34 20 51 14 112 -8 96 5 110 115 117 108
7 157 1 177 -21z"/>
<path fill="#ffffff" stroke="none" d="M2624 5044 c41 -11 80 -14 119 -10 67
7 119 -10 137 -44 10 -18 7 -24 -17 -43 -71 -54 -142 -131 -148 -159 -10 -45
2 -46 37 -2 92 114 174 168 220 143 57 -31 72 -86 54 -199 -8 -47 -12 -88 -9
-92 22 -38 53 54 53 157 0 82 1 85 23 85 32 0 57 -30 68 -82 6 -24 27 -79 47
-123 60 -133 56 -218 -13 -288 -38 -37 -156 -103 -217 -122 -56 -16 -198 -21
-198 -6 0 5 21 17 48 27 49 18 90 49 80 60 -6 6 -64 -14 -273 -92 -49 -19 -96
-34 -102 -34 -19 0 -16 21 7 55 29 43 27 119 -5 187 -31 67 -31 93 0 130 25
30 33 58 16 58 -5 0 -23 -11 -39 -25 l-30 -25 -20 43 c-11 23 -30 52 -41 64
-23 25 -51 138 -51 208 0 33 7 51 27 76 59 70 113 83 227 53z"/>
<path fill="#ffffff" stroke="none" d="M5774 5024 c9 -22 8 -24 -9 -24 -8 0
-15 9 -15 20 0 24 15 27 24 4z"/>
<path fill="#ffffff" stroke="none" d="M2140 4964 c0 -2 -25 -4 -56 -4 l-55 0
21 30 21 30 35 -26 c19 -15 34 -28 34 -30z"/>
<path fill="#ffffff" stroke="none" d="M1487 4962 c109 -48 123 -69 125 -187
l2 -50 -52 -28 c-29 -16 -52 -33 -52 -38 0 -19 28 -19 73 0 63 27 64 4 2 -36
-25 -16 -45 -36 -45 -45 0 -24 15 -23 57 3 l34 22 -3 -34 c-3 -32 -6 -35 -105
-75 -57 -23 -110 -48 -120 -55 -15 -13 -16 -11 -9 16 16 63 26 141 20 160 -4
11 -14 29 -24 40 -10 11 -20 29 -22 39 -2 15 -20 31 -46 42 -1 1 3 13 9 27 9
21 20 27 53 29 46 3 58 28 17 35 -36 5 -51 22 -51 58 0 48 -39 85 -90 85 -38
0 -40 1 -29 21 10 20 16 21 92 15 61 -5 100 -16 164 -44z"/>
<path fill="#ffffff" stroke="none" d="M5836 4957 c4 -4 -12 -7 -35 -7 -23 0
-40 4 -37 9 6 10 61 9 72 -2z"/>
<path fill="#ffffff" stroke="none" d="M5940 4945 c0 -19 -9 -19 -51 0 l-34
14 43 1 c31 0 42 -4 42 -15z"/>
<path fill="#ffffff" stroke="none" d="M2250 4902 c39 -15 45 -22 48 -49 4
-39 -2 -41 -143 -52 l-98 -7 -42 33 c-52 40 -60 57 -32 71 52 26 203 28 267 4z"/>
<path fill="#ffffff" stroke="none" d="M4114 4903 c-4 -10 -10 -58 -14 -108
l-7 -90 -1 92 c-2 94 3 123 20 123 6 0 7 -7 2 -17z"/>
<path fill="#ffffff" stroke="none" d="M5800 4895 c10 -12 10 -21 2 -40 -21
-45 -52 -26 -52 31 0 28 30 33 50 9z"/>
<path fill="#ffffff" stroke="none" d="M1897 4870 c36 -16 48 -29 78 -90 24
-48 38 -91 41 -128 17 -194 93 -361 219 -482 51 -49 75 -88 75 -120 0 -25 0
-25 -68 7 -35 17 -84 55 -124 96 -61 61 -88 75 -88 46 0 -6 23 -35 51 -64 61
-64 57 -69 -56 -70 -100 0 -134 20 -217 131 -72 95 -74 99 -108 214 -30 103
-38 143 -30 164 5 14 17 0 52 -60 47 -81 92 -133 105 -120 4 4 -1 23 -12 42
-119 207 -146 257 -141 261 3 4 36 -6 74 -20 72 -29 92 -33 92 -18 0 18 -65
58 -122 75 -32 10 -58 23 -58 30 0 15 27 39 90 82 73 50 86 52 147 24z"/>
<path fill="#ffffff" stroke="none" d="M4054 4848 c9 -77 16 -413 8 -424 -15
-22 -80 -65 -86 -56 -3 5 -8 119 -11 254 l-5 244 37 11 c21 6 41 11 45 12 4 0
9 -18 12 -41z"/>
<path fill="#ffffff" stroke="none" d="M3304 4845 c23 -13 59 -43 81 -65 48
-49 124 -75 195 -67 26 3 80 20 120 38 70 32 73 32 86 14 43 -58 43 -226 2
-355 -14 -41 -30 -105 -37 -141 -16 -81 -42 -129 -72 -129 -12 0 -44 14 -71
32 -44 28 -62 32 -156 40 -117 9 -161 23 -229 69 l-44 31 44 47 c24 26 50 64
57 86 20 62 8 154 -33 238 -19 40 -38 88 -41 107 l-7 35 45 -50 c25 -27 63
-71 83 -97 36 -45 63 -61 63 -37 0 20 -23 54 -83 124 -100 115 -93 105 -67
105 13 0 42 -11 64 -25z"/>
<path fill="#ffffff" stroke="none" d="M3938 4385 c-3 -27 -6 -24 -44 45 -38
71 -40 77 -32 130 9 65 -5 158 -32 211 l-19 37 52 19 52 20 13 -216 c6 -119
11 -229 10 -246z"/>
<path fill="#ffffff" stroke="none" d="M5656 4805 c102 -30 364 -233 364 -281
0 -14 -8 -15 -67 -8 -97 13 -180 11 -194 -3 -7 -7 -11 -15 -8 -17 3 -3 53 -8
112 -12 59 -4 107 -11 107 -17 0 -5 -22 -33 -49 -63 -31 -34 -56 -73 -67 -106
-31 -95 -100 -185 -168 -220 -44 -23 -166 -30 -238 -15 -34 7 -38 11 -38 40 0
72 3 75 95 79 71 2 87 6 104 25 19 20 28 43 17 43 -2 0 -20 -7 -41 -16 -21 -8
-57 -14 -83 -12 -40 3 -47 6 -52 28 -5 21 -12 25 -39 22 l-32 -2 21 22 c24 26
25 60 5 117 -14 41 -14 41 13 54 15 8 51 22 80 33 29 10 51 23 49 29 -7 21
-57 15 -121 -14 l-67 -30 -9 25 c-6 14 -13 36 -16 49 -8 33 -29 48 -69 49 -19
1 -36 4 -39 7 -9 9 116 66 162 74 47 8 56 29 17 39 -14 4 -25 11 -25 16 0 17
61 79 83 84 35 7 140 -3 193 -19z"/>
<path fill="#ffffff" stroke="none" d="M2345 4790 c-8 -13 20 -81 52 -130 17
-25 41 -74 54 -110 12 -36 30 -76 39 -90 10 -14 23 -41 30 -61 11 -31 10 -41
-8 -82 -12 -26 -25 -47 -29 -47 -8 0 -88 242 -123 373 -25 95 -35 172 -21 163
6 -4 9 -11 6 -16z"/>
<path fill="#ffffff" stroke="none" d="M6975 4781 c132 -23 230 -44 239 -52 6
-6 2 -9 -8 -9 -41 0 -163 -44 -290 -105 -248 -118 -409 -155 -521 -121 l-40
12 43 17 c55 22 126 88 153 142 18 36 28 44 58 50 52 10 71 23 86 58 l13 32
99 -6 c54 -4 130 -12 168 -18z"/>
<path fill="#ffffff" stroke="none" d="M2115 4695 c44 -57 81 -146 104 -250
12 -55 29 -131 38 -168 8 -37 12 -71 8 -75 -4 -4 -10 -2 -12 5 -2 6 -13 22
-25 35 -87 99 -133 200 -158 345 -11 68 -25 134 -30 149 -6 14 -10 28 -10 30
0 12 62 -40 85 -71z"/>
<path fill="#ffffff" stroke="none" d="M2300 4755 c0 -17 -2 -18 -24 -9 -23 9
-20 24 4 24 11 0 20 -7 20 -15z"/>
<path fill="#ffffff" stroke="none" d="M2230 4722 l75 -37 22 -75 c13 -41 23
-78 23 -82 0 -9 -100 54 -123 78 -10 11 -38 49 -62 87 -52 80 -44 84 65 29z"/>
<path fill="#ffffff" stroke="none" d="M5060 4665 c0 -41 2 -45 24 -45 14 0
28 5 31 10 3 6 15 10 26 10 13 0 19 -7 19 -23 0 -32 18 -47 58 -47 51 0 71
-16 83 -66 7 -26 25 -59 40 -75 15 -16 31 -44 35 -64 5 -31 2 -38 -31 -69 -25
-24 -35 -41 -31 -52 3 -8 6 -20 6 -26 0 -7 15 -8 40 -4 40 6 50 0 28 -22 -6
-6 -12 -30 -14 -54 -4 -61 -28 -139 -59 -193 -29 -49 -50 -65 -86 -65 -12 0
-51 -16 -86 -35 -35 -19 -65 -35 -67 -35 -3 0 -7 19 -11 43 -10 61 -27 108
-40 104 -11 -4 -11 -18 0 -115 6 -58 5 -64 -14 -69 -11 -3 -23 -14 -26 -24 -4
-10 -13 -19 -21 -19 -10 0 -14 14 -14 54 0 59 -9 72 -59 82 -31 6 -32 9 -27
38 19 91 19 106 3 106 -11 0 -20 -15 -27 -42 -6 -24 -15 -59 -20 -78 -10 -37
-36 -80 -48 -80 -4 0 -13 13 -19 29 -10 27 -16 30 -59 33 -60 4 -66 20 -29 76
29 44 31 88 4 105 -12 8 -28 5 -60 -11 -23 -12 -44 -20 -45 -19 -1 1 -7 37
-13 80 -12 88 -10 96 43 145 41 38 45 66 16 97 l-20 22 29 30 29 31 43 -44
c24 -24 49 -44 56 -44 18 0 16 -10 -4 -33 -35 -38 -16 -127 27 -127 12 0 20
-11 24 -35 8 -41 38 -65 84 -65 25 0 35 -5 39 -20 3 -11 14 -20 24 -20 15 0
17 5 13 29 -3 16 -1 38 6 50 9 18 17 21 40 16 16 -3 37 -2 47 3 19 10 48 0
123 -46 23 -14 40 -18 49 -12 22 13 -1 36 -71 71 -47 24 -58 34 -58 54 0 13
-4 27 -10 30 -13 8 -13 25 0 25 29 0 170 63 170 76 0 21 -27 17 -118 -16 -46
-16 -84 -30 -86 -30 -2 0 -4 16 -4 36 0 19 -7 43 -16 53 -15 16 -14 21 8 67
30 62 50 124 42 131 -9 9 -36 -6 -42 -24 -37 -107 -88 -169 -119 -143 -15 12
-53 10 -87 -4 -13 -6 -19 -1 -24 21 -8 35 -22 53 -40 53 -21 0 -17 -30 11 -82
29 -54 31 -68 10 -68 -8 0 -12 6 -9 14 3 8 -9 25 -30 41 -55 42 -76 83 -76
149 l0 56 55 0 c30 0 55 5 55 10 0 6 9 10 20 10 11 0 37 9 57 20 21 11 49 20
63 20 44 0 99 20 110 40 18 33 30 23 30 -25z"/>
<path fill="#ffffff" stroke="none" d="M7284 4684 c25 -10 19 -22 -16 -29 -18
-4 -49 -16 -69 -27 -31 -17 -41 -18 -77 -8 -49 13 -54 25 -14 34 15 3 50 13
77 20 57 17 77 19 99 10z"/>
<path fill="#ffffff" stroke="none" d="M4147 4540 c12 -19 23 -38 23 -42 0 -7
-53 -38 -65 -38 -3 0 -5 39 -4 88 0 74 2 83 11 57 6 -16 22 -46 35 -65z"/>
<path fill="#ffffff" stroke="none" d="M7314 4596 c-7 -30 -10 -31 -55 -12
-23 10 -29 16 -19 19 51 17 75 24 78 22 2 -2 0 -14 -4 -29z"/>
<path fill="#ffffff" stroke="none" d="M7106 4581 c54 -16 114 -32 132 -35 46
-6 51 -14 24 -36 -48 -39 -344 -86 -482 -76 -47 3 -94 8 -105 10 -11 3 -29 5
-39 5 -31 1 -13 10 63 31 40 11 120 45 179 75 59 30 112 54 118 54 6 1 55 -12
110 -28z"/>
<path fill="#ffffff" stroke="none" d="M2337 4479 c55 -41 56 -45 98 -209 30
-120 51 -131 153 -80 79 39 130 47 170 26 50 -26 155 -130 222 -219 73 -99
102 -136 221 -292 227 -294 330 -511 455 -950 48 -169 59 -227 108 -567 25
-166 26 -159 -48 -212 -36 -25 -67 -46 -70 -46 -2 0 -8 21 -11 48 -14 107 -89
410 -142 577 -55 171 -185 463 -243 545 -10 14 -39 68 -65 120 -41 82 -115
204 -134 220 -3 3 -26 34 -50 70 -47 67 -61 84 -150 184 -185 206 -327 346
-433 428 -101 77 -118 95 -118 119 0 24 -38 212 -56 278 -7 22 -6 23 17 11 13
-7 47 -30 76 -51z"/>
<path fill="#ffffff" stroke="none" d="M6179 4448 c12 -35 24 -91 28 -125 5
-51 2 -67 -15 -95 -22 -36 -36 -86 -47 -160 -4 -30 -16 -60 -32 -79 l-26 -31
-48 98 c-52 106 -73 134 -88 119 -6 -6 9 -48 39 -110 52 -106 77 -192 61 -208
-10 -10 -128 79 -223 169 l-58 53 49 64 c27 37 56 90 66 122 13 39 34 74 66
110 27 29 53 64 58 79 6 14 17 26 26 26 8 0 15 4 15 9 0 6 19 12 43 14 23 2
47 4 54 5 6 1 21 -26 32 -60z"/>
<path fill="#ffffff" stroke="none" d="M1674 4366 c9 -37 23 -81 32 -99 28
-53 139 -191 168 -206 30 -17 31 -20 11 -85 -8 -27 -15 -76 -15 -108 l0 -59
-72 50 c-40 27 -83 59 -95 73 -54 58 -133 280 -133 373 0 61 18 145 36 174
l17 25 18 -36 c10 -19 25 -65 33 -102z"/>
<path fill="#ffffff" stroke="none" d="M6338 4470 c29 -11 92 -24 140 -29 48
-5 132 -20 188 -33 90 -22 108 -30 176 -81 91 -68 183 -165 192 -201 9 -38 -9
-64 -49 -72 -49 -9 -71 -2 -235 76 -136 64 -401 170 -463 185 -34 9 -34 9 -55
94 -18 70 -18 70 2 74 41 8 52 7 104 -13z"/>
<path fill="#ffffff" stroke="none" d="M1542 4320 l-4 -140 37 -97 c20 -54 41
-103 47 -110 7 -8 4 -18 -9 -32 -24 -26 -111 -71 -136 -71 -20 0 -20 0 1 23
21 22 32 82 13 75 -4 -1 -28 -28 -52 -58 -70 -87 -179 -151 -200 -119 -30 46
-34 142 -13 282 4 24 2 37 -5 37 -16 0 -29 -39 -38 -113 l-8 -62 -22 37 c-23
38 -40 131 -35 185 4 40 26 48 80 29 85 -30 175 27 187 120 10 73 21 89 89
123 33 17 63 31 66 31 3 0 4 -63 2 -140z"/>
<path fill="#ffffff" stroke="none" d="M4219 4395 c34 -80 110 -138 226 -175
51 -16 59 -24 47 -47 -8 -14 -34 -23 -109 -36 -119 -22 -163 -35 -163 -49 0
-7 15 -8 43 -4 59 9 242 33 244 32 0 -1 2 -10 3 -21 5 -49 2 -52 -62 -59 -36
-3 -69 -13 -78 -22 -14 -14 -8 -15 55 -14 116 2 114 6 45 -70 -27 -30 -63 -81
-81 -113 l-31 -59 -22 21 c-11 11 -52 36 -89 55 -87 46 -140 48 -217 8 -116
-60 -200 -63 -200 -8 0 29 48 89 113 141 26 21 47 42 47 47 0 14 -34 9 -58 -8
-13 -9 -26 -13 -30 -9 -4 4 -6 39 -6 78 2 97 28 153 107 231 61 61 162 136
182 136 5 0 21 -25 34 -55z"/>
<path fill="#ffffff" stroke="none" d="M3902 4262 c-11 -15 -22 -40 -26 -56
-7 -30 -8 -30 -43 33 l-35 62 22 70 21 69 40 -75 40 -76 -19 -27z"/>
<path fill="#ffffff" stroke="none" d="M4903 4336 c-3 -48 -8 -53 -28 -32 -9
9 -21 16 -26 16 -14 0 -11 48 4 54 6 2 21 4 32 3 17 -2 20 -8 18 -41z"/>
<path fill="#ffffff" stroke="none" d="M4996 4343 c6 -20 2 -31 -16 -45 -29
-23 -40 -23 -40 1 0 61 44 95 56 44z"/>
<path fill="#ffffff" stroke="none" d="M3175 4270 c16 -16 53 -42 80 -57 47
-26 50 -31 53 -71 l3 -44 -39 44 c-21 25 -61 66 -90 93 -48 45 -62 65 -45 65
4 0 21 -13 38 -30z"/>
<path fill="#ffffff" stroke="none" d="M4848 4271 c22 -16 23 -19 7 -34 -19
-20 -81 -23 -88 -4 -2 6 -1 22 4 35 10 27 44 29 77 3z"/>
<path fill="#ffffff" stroke="none" d="M3108 4223 c6 -27 16 -79 22 -118 7
-38 23 -124 35 -190 13 -66 23 -121 22 -122 -1 -1 -26 29 -55 68 -48 64 -52
74 -58 141 -4 40 -18 104 -31 142 -12 38 -23 75 -23 81 0 10 53 43 72 44 3 1
11 -20 16 -46z"/>
<path fill="#ffffff" stroke="none" d="M5029 4234 c25 -32 27 -52 6 -61 -21
-7 -55 25 -55 52 0 42 20 46 49 9z"/>
<path fill="#ffffff" stroke="none" d="M4930 4235 c7 -9 10 -18 7 -21 -10 -11
-37 5 -37 21 0 19 14 19 30 0z"/>
<path fill="#ffffff" stroke="none" d="M3819 4173 c21 -55 20 -75 -9 -108 -18
-20 -65 -111 -91 -172 -13 -30 -14 -29 -36 80 -12 62 -23 115 -23 120 0 4 13
7 29 7 38 0 77 45 86 101 8 48 16 43 44 -28z"/>
<path fill="#ffffff" stroke="none" d="M3004 4128 c16 -51 30 -102 33 -113 3
-12 -15 3 -43 35 -27 30 -71 78 -99 107 l-51 52 50 4 c28 2 58 4 67 5 12 2 23
-21 43 -90z"/>
<path fill="#ffffff" stroke="none" d="M3201 4162 c14 -15 44 -50 67 -78 42
-50 42 -50 42 -135 l0 -84 -55 55 c-43 44 -57 66 -68 110 -20 76 -31 160 -20
160 4 0 20 -13 34 -28z"/>
<path fill="#ffffff" stroke="none" d="M4897 4178 c38 -14 42 -32 12 -48 -44
-24 -98 10 -70 44 16 19 16 19 58 4z"/>
<path fill="#ffffff" stroke="none" d="M3456 4165 c7 -2 15 -69 23 -172 13
-188 17 -227 30 -328 14 -100 23 -385 13 -385 -4 0 -24 32 -43 72 -19 39 -53
101 -77 137 l-43 66 -1 273 c0 150 -4 291 -8 313 l-7 39 51 -6 c28 -3 56 -7
62 -9z"/>
<path fill="#ffffff" stroke="none" d="M3582 4144 c17 -9 30 -25 33 -42 3 -15
12 -54 20 -87 8 -33 19 -101 25 -151 11 -86 10 -94 -12 -150 -14 -32 -28 -58
-33 -57 -5 1 -26 46 -47 100 -34 85 -40 114 -48 223 -14 191 -14 193 13 184
12 -3 34 -13 49 -20z"/>
<path fill="#ffffff" stroke="none" d="M3859 3978 c1 -16 -3 -28 -7 -28 -4 0
-23 -25 -41 -55 -53 -88 -29 -128 84 -141 33 -4 63 -12 67 -18 4 -6 8 -65 8
-131 l0 -119 -61 -181 c-37 -109 -93 -245 -141 -345 l-81 -165 -10 35 c-5 19
-31 102 -59 183 -56 172 -57 166 7 467 8 36 17 81 21 100 4 19 22 69 40 110
18 42 45 109 60 150 14 41 42 106 62 144 33 63 37 67 43 45 4 -13 7 -36 8 -51z"/>
<path fill="#ffffff" stroke="none" d="M5740 4008 c23 -51 25 -108 6 -151 -35
-80 -46 -133 -46 -233 0 -141 -13 -148 -127 -71 -34 23 -55 32 -65 26 -10 -7
-5 -17 23 -42 19 -17 44 -37 55 -43 18 -10 16 -14 -28 -56 -25 -25 -67 -54
-92 -63 -43 -16 -49 -16 -96 -1 -27 9 -79 32 -115 52 -60 33 -63 37 -55 60 21
54 3 211 -35 306 -8 19 34 52 56 43 8 -3 30 -28 49 -55 54 -76 87 -59 35 18
-29 42 -31 52 -11 52 7 0 21 11 30 25 21 32 36 31 107 -5 57 -29 75 -28 63 5
-8 19 -75 55 -105 55 -17 0 -20 4 -15 23 3 12 6 31 6 42 1 40 12 45 65 29 60
-19 182 -14 235 9 19 8 36 16 38 16 2 1 12 -18 22 -41z"/>
<path fill="#ffffff" stroke="none" d="M2008 4020 c22 0 14 -109 -17 -210 -37
-121 -40 -127 -56 -134 -21 -8 -29 51 -22 174 7 129 26 185 59 176 13 -3 29
-6 36 -6z"/>
<path fill="#ffffff" stroke="none" d="M4643 4003 c4 -3 -4 -25 -18 -49 -42
-71 -32 -107 33 -120 38 -8 38 -8 12 -36 -24 -27 -60 -93 -60 -113 0 -27 20
-15 53 31 55 79 66 89 73 71 3 -10 -19 -63 -55 -131 -60 -112 -68 -156 -17
-96 14 17 46 70 72 118 57 105 109 154 142 134 10 -7 9 -23 -3 -81 -8 -40 -15
-77 -15 -82 0 -19 20 -8 35 20 14 29 16 29 45 15 36 -18 63 -7 85 36 9 18 26
32 43 35 15 4 34 10 43 15 14 7 20 -3 38 -63 29 -100 28 -168 -6 -235 -31 -62
-67 -92 -177 -147 -43 -22 -97 -56 -120 -77 -58 -50 -120 -81 -146 -73 -15 5
-19 12 -14 23 17 40 36 132 30 148 -10 25 -20 9 -46 -69 -21 -64 -61 -127 -81
-127 -15 0 -30 50 -41 135 -12 94 -20 112 -87 185 -28 30 -59 74 -67 98 -45
117 30 285 179 403 50 40 59 44 70 32z"/>
<path fill="#ffffff" stroke="none" d="M3320 3715 c0 -89 -9 -93 -56 -23 -24
35 -33 62 -38 112 -3 36 -9 74 -12 83 -3 10 19 -7 50 -39 l56 -56 0 -77z"/>
<path fill="#ffffff" stroke="none" d="M4248 3783 c125 -65 122 -92 -8 -59
-30 8 -95 24 -143 37 -48 12 -85 24 -82 28 12 11 90 39 115 40 14 1 67 -20
118 -46z"/>
<path fill="#ffffff" stroke="none" d="M4065 3724 c27 -5 39 -14 47 -33 10
-27 19 -142 39 -521 19 -358 22 -323 -39 -412 -28 -42 -52 -82 -52 -88 0 -5
-4 -10 -10 -10 -5 0 -10 24 -10 53 0 28 -7 140 -15 247 -19 255 -25 782 -8
776 6 -3 28 -8 48 -12z"/>
<path fill="#ffffff" stroke="none" d="M4258 3680 l33 0 -46 -88 c-72 -140
-74 -142 -75 -47 0 44 -4 94 -9 112 -5 17 -7 34 -4 36 2 3 19 1 36 -4 18 -5
47 -9 65 -9z"/>
<path fill="#ffffff" stroke="none" d="M3576 3622 c20 -53 21 -62 9 -132 -9
-54 -14 -68 -18 -50 -8 36 -23 240 -17 240 3 0 15 -26 26 -58z"/>
<path fill="#ffffff" stroke="none" d="M4340 3627 c0 -18 7 -55 16 -81 l17
-48 -44 -61 c-24 -34 -64 -99 -90 -144 l-46 -83 -6 91 -7 90 44 77 c24 42 57
103 72 135 16 31 32 57 36 57 4 0 8 -15 8 -33z"/>
<path fill="#ffffff" stroke="none" d="M4480 3377 c0 -12 -33 -67 -40 -67 -7
0 -40 115 -40 141 0 19 5 17 40 -21 22 -24 40 -48 40 -53z"/>
<path fill="#ffffff" stroke="none" d="M4378 3358 c26 -102 26 -104 -17 -170
-23 -35 -41 -59 -41 -55 0 4 0 8 -1 10 -15 49 -25 147 -17 167 13 36 48 90 58
90 4 0 12 -19 18 -42z"/>
<path fill="#ffffff" stroke="none" d="M3969 3263 c-6 -95 -13 -120 -62 -225
-25 -54 -32 -58 -41 -23 -6 22 25 126 99 333 9 25 10 9 4 -85z"/>
<path fill="#ffffff" stroke="none" d="M4535 3145 c24 -48 60 -58 90 -25 21
23 95 29 95 8 0 -7 -89 -101 -198 -208 -109 -107 -216 -217 -238 -245 -21 -27
-42 -52 -45 -55 -11 -9 -126 -205 -184 -315 -32 -60 -67 -123 -78 -139 -23
-33 -140 -110 -145 -96 -11 32 91 263 189 428 28 48 77 130 107 182 31 52 74
127 97 165 23 39 66 122 96 185 31 63 78 144 106 180 27 36 56 76 64 90 13 24
14 21 19 -45 3 -38 15 -88 25 -110z"/>
<path fill="#ffffff" stroke="none" d="M5020 3291 c0 -5 -60 -133 -132 -284
-73 -150 -141 -295 -152 -321 -22 -57 -58 -101 -97 -121 -15 -8 -30 -15 -32
-15 -5 0 39 270 52 317 6 21 13 65 17 98 6 57 8 62 82 139 112 115 138 138
195 168 57 30 67 33 67 19z"/>
<path fill="#ffffff" stroke="none" d="M4275 3120 c6 -59 4 -79 -11 -113 -10
-23 -21 -44 -25 -47 -3 -3 -10 -16 -14 -29 -12 -40 -24 -4 -31 101 l-7 95 34
56 c39 63 42 61 54 -63z"/>
<path fill="#ffffff" stroke="none" d="M3989 2900 c7 -63 11 -167 9 -230 -3
-126 -4 -125 -40 25 -8 33 -26 99 -39 147 l-24 87 23 38 c13 21 28 51 34 68
l12 30 6 -25 c4 -14 13 -77 19 -140z"/>
<path fill="#ffffff" stroke="none" d="M3866 2875 c13 -44 34 -114 48 -155 13
-42 27 -107 31 -145 6 -64 4 -76 -23 -135 -33 -72 -31 -74 -52 45 -6 33 -31
119 -56 190 -25 72 -48 139 -51 151 -3 13 10 50 33 95 28 54 39 69 42 54 2
-11 15 -56 28 -100z"/>
<path fill="#ffffff" stroke="none" d="M4609 2813 c-15 -82 -33 -181 -39 -221
-9 -57 -18 -78 -38 -98 -33 -30 -46 -31 -38 -1 4 12 11 99 16 192 5 94 9 171
9 173 2 5 106 102 112 102 3 0 -7 -66 -22 -147z"/>
<path fill="#ffffff" stroke="none" d="M4476 2706 c-7 -109 -18 -190 -35 -253
-8 -29 -21 -46 -52 -66 -23 -15 -43 -26 -44 -25 -1 2 2 77 7 168 9 153 12 167
35 200 43 58 75 90 86 83 6 -4 7 -44 3 -107z"/>
<path fill="#ffffff" stroke="none" d="M3760 2708 c13 -35 27 -67 31 -73 12
-17 46 -166 58 -252 11 -74 10 -87 -10 -148 -21 -67 -33 -76 -35 -27 -1 25
-13 103 -45 307 -6 39 -20 99 -31 135 -17 59 -17 120 0 120 4 0 18 -28 32 -62z"/>
<path fill="#ffffff" stroke="none" d="M4794 2585 c-13 -62 -85 -160 -145
-198 -13 -8 -103 -61 -199 -117 -96 -57 -247 -149 -335 -205 -88 -56 -198
-124 -245 -150 -47 -27 -118 -75 -158 -107 -109 -86 -153 -105 -166 -72 -21
55 170 214 479 398 44 26 87 52 95 57 8 5 64 34 123 65 86 44 293 181 352 231
6 5 38 28 71 50 34 23 71 59 84 80 21 36 23 37 36 18 9 -13 12 -31 8 -50z"/>
<path fill="#ffffff" stroke="none" d="M4320 2599 c0 -22 -5 -70 -10 -107 -6
-37 -12 -87 -14 -112 -2 -25 -4 -48 -5 -52 -1 -3 -18 -12 -38 -19 -21 -6 -56
-25 -78 -41 l-40 -29 -9 48 c-10 61 7 103 108 258 71 109 86 118 86 54z"/>
<path fill="#ffffff" stroke="none" d="M4715 2305 c-19 -33 -56 -66 -143 -128
-109 -77 -284 -187 -299 -187 -3 0 -42 -22 -87 -49 -45 -26 -117 -67 -161 -91
-44 -24 -118 -68 -165 -99 -47 -31 -107 -67 -135 -81 -27 -14 -81 -54 -119
-90 l-69 -65 6 50 c8 71 24 102 67 124 20 10 76 49 123 85 48 36 88 66 90 66
11 0 219 124 327 195 228 149 338 216 453 275 26 14 66 41 90 61 l42 37 3 -30
c2 -18 -6 -46 -23 -73z"/>
<path fill="#ffffff" stroke="none" d="M4100 2250 c0 -18 -48 -65 -57 -56 -3
2 5 23 17 45 21 42 40 47 40 11z"/>
<path fill="#ffffff" stroke="none" d="M4699 2148 c-18 -64 -50 -103 -117
-143 -37 -22 -116 -73 -176 -114 -107 -72 -225 -138 -396 -224 -47 -23 -87
-44 -90 -47 -17 -18 -229 -142 -393 -231 -58 -31 -6 60 80 141 38 36 105 85
148 110 44 24 109 63 145 85 129 82 196 122 285 167 163 84 299 166 423 256
74 54 87 60 93 45 3 -10 3 -30 -2 -45z"/>
<path fill="#ffffff" stroke="none" d="M4636 1842 c3 -48 19 -141 35 -207 17
-66 41 -178 55 -250 13 -71 36 -164 51 -205 17 -48 24 -84 20 -100 -13 -50
-80 -120 -116 -120 -5 0 -16 39 -25 88 -9 48 -25 128 -36 177 -11 50 -27 131
-35 180 -9 50 -23 120 -32 156 -16 63 -16 73 1 170 15 93 37 188 52 229 10 27
24 -26 30 -118z"/>
<path fill="#ffffff" stroke="none" d="M4550 1921 c0 -5 -7 -41 -15 -80 -8
-39 -17 -85 -20 -103 -3 -18 -10 -58 -15 -88 -5 -30 -12 -82 -15 -115 -19
-210 -46 -474 -50 -495 -3 -14 -9 -74 -15 -135 -5 -60 -14 -148 -19 -195 -6
-47 -15 -151 -20 -231 -6 -80 -15 -158 -22 -172 -27 -59 -47 -24 -74 128 -7
39 -18 90 -25 113 -11 35 -11 60 -2 125 6 45 17 134 23 197 6 63 15 123 20
132 5 9 16 95 24 190 24 283 33 358 60 466 14 57 25 123 25 148 0 44 1 45 63
84 65 41 77 46 77 31z"/>
<path fill="#ffffff" stroke="none" d="M4347 1667 c-34 -168 -57 -322 -57
-386 0 -51 -10 -141 -45 -406 -8 -60 -16 -121 -18 -135 -2 -17 -7 -7 -18 35
-26 110 -11 696 23 850 15 72 34 104 86 153 59 55 61 48 29 -111z"/>
<path fill="#ffffff" stroke="none" d="M4220 1709 c0 -6 -5 -20 -11 -31 -18
-34 -39 -210 -46 -393 -8 -193 -9 -192 -53 75 -12 74 -28 168 -36 209 -8 41
-13 75 -12 76 8 7 144 74 151 75 4 0 7 -5 7 -11z"/>
<path fill="#ffffff" stroke="none" d="M4024 1603 c3 -10 7 -41 10 -70 3 -28
10 -72 16 -97 5 -25 14 -74 20 -108 10 -70 29 -177 60 -343 11 -60 25 -139 30
-175 10 -61 23 -122 100 -443 16 -71 30 -146 30 -167 0 -36 -3 -39 -45 -55
-64 -25 -92 -15 -106 38 -6 23 -13 53 -15 67 -22 127 -74 377 -128 610 -13 58
-29 146 -35 195 -7 50 -25 169 -41 265 -42 257 -45 227 25 266 70 39 72 40 79
17z"/>
<path fill="#ffffff" stroke="none" d="M3809 1453 c0 -21 -4 -63 -9 -93 -5
-30 -14 -140 -19 -245 -6 -104 -15 -242 -21 -305 -6 -63 -13 -144 -16 -180 -2
-36 -9 -101 -14 -145 -5 -44 -12 -118 -16 -165 -9 -124 -27 -150 -100 -150
-55 0 -84 36 -84 102 0 48 17 192 39 343 5 33 17 114 25 180 33 246 59 402 81
480 12 44 28 99 34 122 8 31 22 50 49 68 20 14 40 25 44 25 5 0 8 -17 7 -37z"/>
<path fill="#ffffff" stroke="none" d="M4550 1378 c10 -70 33 -179 94 -458 13
-63 28 -149 32 -191 6 -73 6 -76 -20 -92 -14 -10 -39 -20 -55 -23 l-29 -6 -16
78 c-9 44 -32 128 -52 188 -39 120 -39 102 -9 371 8 72 18 157 21 190 8 71 16
57 34 -57z"/>
<path fill="#ffffff" stroke="none" d="M3890 1260 c66 -414 68 -449 33 -688
-15 -105 -19 -115 -41 -123 -32 -12 -112 16 -112 40 0 9 7 66 15 127 8 61 15
148 16 195 2 103 38 595 46 629 6 26 16 -17 43 -180z"/>
<path fill="#ffffff" stroke="none" d="M3670 1397 c0 -7 -4 -17 -9 -22 -12
-12 -58 -193 -66 -260 -13 -106 -57 -383 -71 -448 -26 -124 -71 -273 -89 -295
-7 -8 -96 44 -101 60 -3 9 6 52 20 95 13 43 27 96 31 118 4 22 19 105 35 185
15 80 35 186 44 235 9 50 27 132 39 184 l22 94 65 32 c75 38 80 39 80 22z"/>
<path fill="#ffffff" stroke="none" d="M4508 711 c23 -90 36 -127 51 -138 16
-11 21 -25 21 -63 0 -42 -4 -51 -29 -69 -38 -27 -77 -42 -95 -35 -31 12 -40
88 -26 227 12 123 16 162 19 227 l2 25 13 -25 c8 -14 28 -81 44 -149z"/>
<path fill="#ffffff" stroke="none" d="M4015 585 c8 -33 17 -71 19 -85 3 -14
11 -56 19 -95 8 -38 17 -89 21 -111 6 -40 5 -42 -25 -48 -17 -3 -53 -6 -79 -6
-39 0 -49 4 -60 25 -12 22 -10 36 13 112 32 109 39 144 53 278 7 69 8 70 16
30 5 -22 15 -67 23 -100z"/>
<path fill="#000000" stroke="none" d="M6295 7055 c-22 -21 -25 -33 -25 -97 0
-133 61 -285 166 -412 88 -107 199 -162 244 -121 27 25 17 34 -36 33 -35 0
-55 6 -87 29 -85 59 -209 253 -243 378 -31 114 -10 175 61 175 41 0 46 16 9
30 -40 16 -63 12 -89 -15z"/>
<path fill="#000000" stroke="none" d="M6470 6939 c0 -33 42 -82 81 -94 10 -4
19 -9 19 -13 0 -10 -47 -59 -66 -70 -19 -11 -12 -42 9 -42 22 0 95 73 102 103
8 31 -8 57 -35 57 -10 0 -20 7 -24 15 -3 8 -12 15 -20 15 -9 0 -22 14 -31 30
-20 39 -35 38 -35 -1z"/>
<path fill="#000000" stroke="none" d="M6592 6691 c-39 -7 -43 -25 -8 -29 27
-3 62 -50 75 -100 4 -15 15 -28 24 -30 13 -3 17 4 17 30 0 19 -6 43 -14 54 -9
11 -12 29 -9 43 9 37 -13 46 -85 32z"/>
<path fill="#000000" stroke="none" d="M4225 6446 c-67 -17 -105 -38 -197
-108 -109 -83 -158 -154 -158 -230 0 -51 52 -128 87 -128 22 0 15 25 -17 61
-40 45 -40 90 0 152 31 50 43 55 74 32 27 -20 59 -19 88 5 30 23 38 18 38 -27
0 -59 49 -82 98 -47 26 18 30 65 6 85 -8 7 -22 25 -30 41 -14 26 -13 31 6 55
11 14 20 37 20 51 l0 25 88 -5 c97 -6 115 -13 173 -65 24 -22 45 -33 54 -29
22 8 6 36 -45 76 -69 54 -194 79 -285 56z"/>
<path fill="#ffffff" stroke="none" d="M4200 6393 c-1 -19 -19 -35 -30 -28
-10 6 -9 11 5 22 22 15 25 16 25 6z"/>
<path fill="#ffffff" stroke="none" d="M4140 6325 c0 -5 -5 -3 -10 5 -5 8 -10
20 -10 25 0 6 5 3 10 -5 5 -8 10 -19 10 -25z"/>
<path fill="#ffffff" stroke="none" d="M4100 6294 c0 -19 -44 -46 -64 -38 -24
9 -20 30 11 52 29 21 53 15 53 -14z"/>
<path fill="#ffffff" stroke="none" d="M4216 6196 c-7 -25 -23 -12 -33 25
l-11 42 24 -29 c13 -16 22 -33 20 -38z"/>
<path fill="#000000" stroke="none" d="M4487 6224 c-4 -4 -7 -17 -7 -28 0 -12
-9 -32 -20 -46 -11 -14 -20 -30 -20 -36 0 -17 -54 -59 -72 -56 -9 2 -22 -7
-29 -20 -6 -12 -21 -30 -33 -39 -18 -15 -22 -15 -32 -1 -12 17 -34 9 -34 -13
0 -8 11 -27 25 -42 22 -24 27 -26 38 -13 29 34 59 54 95 59 31 5 37 11 40 34
2 15 8 27 13 27 6 0 16 15 24 33 7 17 23 45 36 61 17 22 20 33 13 54 -9 26
-25 37 -37 26z"/>
<path fill="#000000" stroke="none" d="M3226 5683 c-3 -4 -45 -8 -93 -10 -88
-4 -123 -18 -123 -50 0 -15 26 -18 35 -3 4 7 40 10 91 8 73 -2 84 -5 84 -20 0
-15 9 -18 55 -18 52 0 55 -1 55 -25 0 -34 26 -32 44 4 19 35 12 42 -58 61 -31
8 -50 20 -53 31 -5 19 -27 32 -37 22z"/>
<path fill="#000000" stroke="none" d="M2921 5591 c-18 -33 -13 -151 9 -198
31 -70 77 -129 127 -166 58 -42 245 -104 320 -106 104 -3 171 48 181 136 4 39
3 45 -13 42 -12 -3 -22 -19 -29 -48 -16 -63 -50 -86 -129 -86 l-61 0 -2 33
c-2 37 -38 82 -66 82 -26 0 -22 12 12 45 43 41 41 78 -6 100 -19 9 -42 14 -49
11 -8 -3 -27 -33 -43 -68 l-29 -63 -58 0 -59 0 -40 70 c-41 71 -46 103 -34
204 4 30 -17 39 -31 12z"/>
<path fill="#ffffff" stroke="none" d="M3256 5387 c2 -7 -11 -30 -31 -51 l-36
-38 15 33 c8 19 17 42 20 52 6 20 24 23 32 4z"/>
<path fill="#ffffff" stroke="none" d="M3190 5282 c0 -5 -7 -17 -15 -28 -14
-18 -14 -17 -4 9 12 27 19 34 19 19z"/>
<path fill="#ffffff" stroke="none" d="M3120 5261 c0 -18 -18 -21 -30 -6 -10
13 -9 15 9 15 11 0 21 -4 21 -9z"/>
<path fill="#ffffff" stroke="none" d="M3280 5203 c0 -26 -18 -30 -53 -12 -32
17 -32 17 -13 38 15 16 22 18 42 9 15 -7 24 -20 24 -35z"/>
<path fill="#000000" stroke="none" d="M6057 5213 c-12 -11 -8 -23 8 -23 9 0
25 -23 39 -52 42 -95 44 -102 33 -120 -8 -12 -8 -23 0 -40 6 -13 14 -35 17
-50 5 -22 2 -27 -16 -30 -35 -5 -27 -23 10 -26 55 -5 59 0 52 60 -5 40 -3 59
8 77 15 22 15 25 -6 41 -12 10 -22 27 -22 38 0 11 -6 25 -14 31 -8 7 -17 24
-21 39 -4 15 -14 35 -22 45 -16 17 -54 23 -66 10z"/>
<path fill="#000000" stroke="none" d="M970 5026 c0 -19 11 -25 48 -30 55 -6
89 -42 142 -146 61 -121 90 -224 90 -321 0 -88 -11 -137 -33 -151 -7 -5 -31
-5 -54 -2 -55 8 -60 -16 -9 -40 47 -22 59 -20 94 15 25 26 32 43 38 97 15 139
-16 285 -87 422 -45 86 -73 121 -121 150 -39 24 -108 27 -108 6z"/>
<path fill="#000000" stroke="none" d="M944 4925 c-4 -9 -4 -37 0 -62 4 -30 2
-51 -6 -61 -17 -20 15 -42 64 -42 21 0 41 0 45 -1 4 0 9 4 11 10 2 6 -8 13
-23 17 -29 7 -43 34 -53 103 -7 46 -27 65 -38 36z"/>
<path fill="#000000" stroke="none" d="M1050 4703 c-35 -14 -90 -66 -90 -85 0
-12 17 -36 40 -56 22 -19 47 -50 55 -69 8 -19 19 -32 25 -28 16 10 12 73 -5
87 -36 30 -65 63 -62 72 2 5 25 21 51 36 27 14 48 30 48 35 -2 12 -40 16 -62
8z"/>
<path fill="#000000" stroke="none" d="M6442 334 c-41 -28 -23 -85 28 -83 l25
1 -24 7 c-50 14 -50 71 1 71 10 0 16 5 13 10 -8 14 -17 13 -43 -6z"/>
<path fill="#000000" stroke="none" d="M6529 331 c-20 -16 -22 -23 -14 -47 13
-35 51 -39 71 -9 11 16 11 25 1 44 -16 33 -29 35 -58 12z"/>
<path fill="#ffffff" stroke="none" d="M6580 293 c0 -30 -29 -42 -46 -19 -21
30 7 76 33 54 7 -6 13 -21 13 -35z"/>
<path fill="#000000" stroke="none" d="M6636 334 c-33 -32 -14 -84 31 -84 31
0 45 66 18 87 -24 17 -30 16 -49 -3z"/>
<path fill="#ffffff" stroke="none" d="M6680 320 c15 -27 3 -60 -20 -60 -24 0
-37 44 -20 65 17 20 27 19 40 -5z"/>
<path fill="#000000" stroke="none" d="M6730 301 c0 -49 1 -51 28 -50 16 1 20
3 10 6 -13 3 -18 15 -18 43 0 21 -4 42 -10 45 -6 4 -10 -13 -10 -44z"/>
<path fill="#000000" stroke="none" d="M6897 343 c-4 -3 -7 -26 -7 -50 0 -42
1 -44 28 -41 24 3 27 7 28 43 1 38 -8 55 -32 55 -6 0 -14 -3 -17 -7z"/>
<path fill="#ffffff" stroke="none" d="M6930 306 c-14 -14 -24 0 -16 21 6 15
8 15 16 3 6 -9 5 -19 0 -24z"/>
<path fill="#ffffff" stroke="none" d="M6932 275 c0 -5 -5 -11 -11 -13 -6 -2
-11 4 -11 13 0 9 5 15 11 13 6 -2 11 -8 11 -13z"/>
<path fill="#000000" stroke="none" d="M7017 328 c-13 -19 -16 -20 -16 -5 -1
9 -5 17 -11 17 -5 0 -10 -20 -10 -45 0 -25 5 -45 10 -45 6 0 10 10 10 23 l0
22 20 -25 c22 -28 25 -23 9 14 -9 20 -9 29 1 41 7 8 11 18 8 21 -3 2 -12 -6
-21 -18z"/>
<path fill="#000000" stroke="none" d="M7073 300 c0 -30 2 -43 4 -27 2 15 2
39 0 55 -2 15 -4 2 -4 -28z"/>
<path fill="#000000" stroke="none" d="M7123 343 c-8 -3 -13 -23 -13 -49 0
-42 1 -44 29 -44 47 0 72 49 41 80 -20 20 -34 23 -57 13z"/>
<path fill="#ffffff" stroke="none" d="M7180 296 c0 -22 -16 -36 -41 -36 -10
0 -13 63 -3 73 13 12 44 -14 44 -37z"/>
<path fill="#000000" stroke="none" d="M7238 342 c-24 -5 -23 -21 4 -49 l21
-23 -24 -9 -24 -10 23 0 c30 -1 39 25 16 50 -15 17 -16 22 -4 29 18 11 11 18
-12 12z"/>
<path fill="#000000" stroke="none" d="M7359 331 c-20 -16 -22 -23 -14 -47 8
-22 17 -29 40 -31 18 -1 22 1 10 4 -43 11 -55 73 -14 73 11 0 19 5 19 10 0 15
-15 12 -41 -9z"/>
<path fill="#000000" stroke="none" d="M7448 339 c-21 -12 -24 -59 -6 -77 17
-17 55 -15 62 4 12 31 6 63 -13 74 -23 12 -22 12 -43 -1z"/>
<path fill="#ffffff" stroke="none" d="M7490 326 c18 -23 8 -61 -17 -64 -17
-3 -24 3 -29 22 -4 16 -1 32 6 41 16 19 24 19 40 1z"/>
<path fill="#000000" stroke="none" d="M7549 348 c0 -2 -2 -23 -3 -48 -2 -25
-1 -35 1 -22 6 30 17 28 30 -5 l10 -28 14 35 14 35 6 -35 c6 -31 7 -29 8 18 1
56 -13 70 -24 22 -9 -41 -22 -46 -30 -10 -5 24 -23 51 -26 38z"/>
<path fill="#000000" stroke="none" d="M6815 330 c-3 -5 0 -7 8 -4 25 9 30
-16 8 -40 -28 -29 -27 -36 7 -35 16 1 20 3 10 6 -16 4 -16 6 -2 29 9 13 14 31
10 39 -6 17 -32 20 -41 5z"/>
<path fill="#000000" stroke="none" d="M7300 260 c0 -5 5 -10 11 -10 5 0 7 5
4 10 -3 6 -8 10 -11 10 -2 0 -4 -4 -4 -10z"/>
</g>
</svg>
