<?xml version="1.0" standalone="no"?>
<!DOCTYPE svg PUBLIC "-//W3C//DTD SVG 20010904//EN"
 "http://www.w3.org/TR/2001/REC-SVG-20010904/DTD/svg10.dtd">
<svg version="1.0" xmlns="http://www.w3.org/2000/svg"
 width="259.000000pt" height="194.000000pt" viewBox="0 0 259.000000 194.000000"
 preserveAspectRatio="xMidYMid meet">
<metadata>
Created by potrace 1.14, written by Peter Selinger 2001-2017
</metadata>
<g transform="translate(0.000000,194.000000) scale(0.100000,-0.100000)"
fill="#000000" stroke="none">
<path fill="#000000" stroke="none" d="M170 1915 c0 -39 26 -92 53 -110 14 -9
48 -17 76 -18 28 -1 51 -4 51 -5 0 -2 -18 -24 -40 -49 -42 -48 -56 -91 -47
-152 3 -22 -1 -47 -9 -62 -44 -80 19 -185 137 -224 l53 -18 -50 -18 c-77 -29
-107 -66 -112 -139 -4 -50 0 -69 22 -115 32 -64 95 -122 144 -131 49 -9 107
11 135 48 l25 31 -5 -46 c-3 -25 -3 -57 1 -71 10 -41 62 -92 118 -116 90 -39
213 -15 277 54 20 21 23 32 19 70 l-5 45 36 -18 c57 -29 216 -209 200 -225 -2
-3 -29 4 -60 14 -116 39 -254 20 -329 -46 -9 -7 -45 -22 -81 -34 -85 -26 -135
-64 -151 -114 -10 -34 -9 -54 12 -150 29 -131 30 -197 1 -261 -21 -48 -22 -63
-2 -51 16 11 38 95 56 218 35 240 133 390 279 429 66 18 183 6 242 -24 68 -35
124 -117 124 -184 0 -25 -2 -24 -29 14 -21 29 -51 51 -108 79 -71 35 -85 39
-158 39 -70 0 -89 -4 -145 -32 -36 -18 -79 -46 -95 -64 l-30 -32 48 36 c99 75
224 106 297 74 32 -14 33 -15 10 -16 -30 -2 -115 -39 -107 -47 3 -3 -3 -23
-14 -43 -19 -37 -54 -190 -45 -198 2 -3 12 31 21 74 24 110 47 155 94 181 44
25 73 27 122 10 52 -17 88 -46 109 -88 l19 -38 -59 -6 c-94 -11 -187 -63 -264
-149 -36 -40 -84 -98 -108 -129 -24 -32 -63 -68 -88 -82 l-45 -26 31 0 c17 0
37 6 43 14 11 13 19 13 59 0 26 -7 58 -13 72 -13 17 1 9 5 -23 14 -84 23 -83
18 -16 100 34 42 75 90 93 108 l31 33 105 -7 c58 -5 160 -8 227 -7 67 0 126
-3 131 -6 5 -3 17 -23 27 -43 36 -77 109 -193 122 -193 10 0 6 10 -10 33 -14
17 -44 72 -68 120 -52 105 -90 153 -161 198 l-53 34 57 3 c112 6 148 -31 198
-201 13 -42 25 -76 27 -73 8 7 -30 142 -54 191 l-24 50 44 -46 c27 -30 66 -94
107 -177 35 -72 66 -129 68 -127 5 5 -63 153 -100 218 -16 26 -28 50 -28 53 0
2 17 -4 39 -15 44 -23 111 -95 135 -146 20 -42 41 -58 24 -18 -33 77 -95 146
-163 180 -27 14 -69 42 -92 63 -48 42 -99 60 -169 60 -38 0 -45 3 -35 13 8 8
46 12 114 12 94 0 107 -3 167 -31 82 -40 134 -92 174 -174 26 -55 31 -76 31
-142 0 -67 2 -78 17 -78 20 0 49 88 79 242 32 163 26 197 -39 255 l-36 31 47
52 c26 29 62 82 79 119 31 62 33 74 36 194 2 71 0 133 -5 138 -6 6 -19 -5 -34
-28 -34 -52 -112 -104 -232 -153 -177 -73 -280 -126 -329 -169 -60 -54 -72
-53 -66 3 6 48 49 149 119 273 l46 83 22 -26 c80 -92 283 -84 348 15 30 44 29
87 -2 163 -35 85 -25 84 14 -3 17 -39 43 -81 56 -95 65 -65 195 5 261 141 43
90 27 139 -64 193 l-47 27 55 6 c66 7 95 23 115 65 40 84 -14 218 -107 265
-41 21 -106 23 -163 4 -18 -6 -20 -2 -17 42 4 52 -11 103 -29 103 -7 0 -8 -7
-3 -17 4 -10 9 -39 12 -65 4 -52 -14 -91 -65 -140 -29 -28 -30 -28 -69 -12
-37 14 -40 18 -36 48 2 19 -3 46 -12 62 -14 24 -16 25 -10 5 6 -25 8 -90 3
-95 -2 -2 -30 -6 -62 -8 -51 -4 -59 -2 -69 16 -6 12 -29 45 -51 75 -31 40 -41
62 -42 92 0 21 -3 39 -7 39 -5 0 -8 -20 -8 -44 0 -41 -2 -44 -31 -50 -49 -10
-101 10 -144 54 -49 50 -67 52 -26 3 31 -38 40 -63 21 -63 -22 0 -109 -93
-121 -128 -18 -57 -28 -65 -74 -60 -63 8 -98 29 -119 73 -23 49 -32 143 -18
184 6 17 7 31 2 31 -11 0 -27 -51 -36 -115 -11 -84 -39 -111 -62 -61 -18 39
-93 77 -164 83 -69 6 -88 20 -88 65 0 15 -5 28 -11 28 -8 0 -10 -16 -6 -49 6
-47 5 -49 -24 -62 -34 -14 -74 -68 -85 -114 -10 -45 -14 -48 -33 -23 -52 67
-65 145 -36 214 11 26 11 34 2 31 -6 -2 -18 -25 -25 -50 -11 -38 -17 -47 -36
-47 -13 0 -49 -9 -81 -20 -69 -24 -104 -25 -149 -6 -42 18 -66 51 -66 93 0 18
-4 33 -10 33 -5 0 -10 -11 -10 -25z"/>
<path fill="#ffffff" stroke="none" d="M917 1809 c70 -34 104 -108 80 -175
-43 -115 -67 -159 -84 -156 -10 1 -40 5 -67 9 l-48 6 5 61 c4 39 2 55 -4 45
-5 -9 -10 -36 -12 -59 -3 -41 -5 -44 -48 -56 -24 -8 -47 -14 -51 -14 -3 0 -18
24 -32 53 -49 98 -28 237 42 283 58 38 143 39 219 3z"/>
<path fill="#ffffff" stroke="none" d="M1597 1804 c40 -23 93 -80 93 -100 0
-5 -16 -20 -35 -33 -30 -20 -39 -22 -61 -12 -14 6 -37 11 -52 10 -20 0 -16 -3
18 -12 49 -13 50 -17 27 -82 l-15 -40 -117 0 c-111 0 -118 1 -136 24 -41 50
-15 164 52 228 62 58 146 64 226 17z"/>
<path fill="#ffffff" stroke="none" d="M1625 1820 c3 -6 -1 -7 -9 -4 -18 7
-21 14 -7 14 6 0 13 -4 16 -10z"/>
<path fill="#ffffff" stroke="none" d="M516 1793 c3 -16 9 -38 14 -50 6 -15 6
-32 -1 -47 -10 -20 -18 -23 -62 -23 -57 1 -97 -16 -152 -64 -36 -32 -39 -29
-35 21 5 57 75 135 154 171 57 26 74 24 82 -8z"/>
<path fill="#ffffff" stroke="none" d="M2218 1776 c78 -41 132 -165 102 -236
-20 -48 -61 -64 -158 -63 -109 2 -122 7 -122 44 0 17 -5 39 -11 51 -13 25 -9
29 38 39 37 8 36 8 -7 4 -42 -4 -49 -1 -79 32 l-34 37 39 34 c77 67 170 90
232 58z"/>
<path fill="#ffffff" stroke="none" d="M1093 1656 c-29 -16 -63 -58 -96 -119
-44 -83 -45 -56 -1 43 22 50 34 92 31 107 -3 16 3 32 17 46 l21 22 22 -45 c21
-41 21 -45 6 -54z"/>
<path fill="#ffffff" stroke="none" d="M1895 1691 c192 -90 171 -338 -33 -397
-44 -13 -62 -14 -100 -4 -65 16 -117 52 -145 102 -34 59 -40 104 -22 164 36
120 186 188 300 135z"/>
<path fill="#ffffff" stroke="none" d="M579 1669 c12 -16 25 -47 28 -67 l5
-37 -21 32 c-11 18 -30 38 -41 45 -20 13 -26 38 -13 51 11 12 19 8 42 -24z"/>
<path fill="#ffffff" stroke="none" d="M530 1632 c14 -10 39 -43 57 -73 17
-30 41 -66 52 -81 l21 -26 -31 -31 c-36 -37 -56 -35 -93 10 -14 16 -27 25 -31
20 -3 -5 14 -26 39 -46 l44 -37 -16 -42 c-9 -22 -17 -43 -18 -45 -7 -9 -142
23 -184 44 -108 55 -136 130 -81 217 66 105 169 143 241 90z"/>
<path fill="#ffffff" stroke="none" d="M1233 1620 c49 -31 82 -74 92 -122 5
-20 -1 -37 -19 -65 -19 -27 -26 -51 -26 -85 0 -45 -2 -49 -42 -75 -35 -24 -52
-28 -105 -27 -34 0 -65 3 -67 5 -3 3 -9 23 -14 46 l-10 42 43 25 c23 14 45 32
49 41 8 22 -2 18 -41 -15 -18 -16 -39 -30 -46 -30 -7 0 -27 19 -46 41 -28 34
-32 45 -23 58 7 9 26 43 42 76 58 116 123 142 213 85z"/>
<path fill="#ffffff" stroke="none" d="M1390 1510 c8 -5 11 -10 5 -10 -5 0
-20 -3 -32 -6 -17 -5 -23 -2 -23 10 0 18 27 21 50 6z"/>
<path fill="#ffffff" stroke="none" d="M1574 1468 c5 -33 3 -54 -3 -56 -21 -7
-93 -64 -87 -69 3 -4 14 1 23 9 34 29 87 52 91 38 2 -6 17 -27 33 -45 l30 -33
-32 -34 c-17 -18 -48 -59 -70 -90 -42 -61 -73 -88 -102 -88 -29 0 -114 88
-142 146 -46 96 -25 178 56 224 50 28 119 48 165 49 30 1 32 -1 38 -51z"/>
<path fill="#ffffff" stroke="none" d="M917 1452 c142 -73 166 -256 47 -361
-147 -129 -389 -31 -389 158 1 175 184 283 342 203z"/>
<path fill="#ffffff" stroke="none" d="M2177 1424 c59 -28 103 -75 103 -108 0
-83 -120 -217 -208 -232 -24 -4 -61 41 -104 127 l-43 87 37 31 c20 17 39 31
42 31 3 0 21 -14 41 -31 19 -17 35 -26 35 -21 0 6 -16 24 -35 39 l-35 29 17
43 c18 42 19 42 58 36 22 -3 63 -17 92 -31z"/>
<path fill="#ffffff" stroke="none" d="M1725 1286 c37 -13 40 -17 53 -76 8
-34 16 -60 18 -57 2 2 -1 28 -7 56 -6 29 -9 54 -7 55 1 2 26 6 55 9 l52 6 30
-74 c36 -86 38 -118 11 -162 -59 -97 -254 -103 -323 -11 -25 33 -33 105 -17
153 11 34 74 115 89 115 3 0 24 -7 46 -14z"/>
<path fill="#ffffff" stroke="none" d="M566 1213 c10 -51 9 -61 -7 -82 -11
-13 -19 -29 -19 -35 0 -6 10 2 21 17 l21 28 39 -42 38 -42 -52 -73 c-90 -126
-175 -127 -265 -1 -54 75 -56 170 -5 221 29 29 129 65 183 65 36 1 36 1 46
-56z"/>
<path fill="#ffffff" stroke="none" d="M1290 1250 c0 -4 -9 -6 -21 -3 -15 4
-17 8 -8 14 14 8 29 3 29 -11z"/>
<path fill="#ffffff" stroke="none" d="M1276 1224 c22 -3 39 -16 58 -43 25
-36 26 -42 16 -80 -15 -56 -87 -159 -139 -198 -31 -25 -53 -33 -82 -33 -72 0
-148 55 -186 136 -15 31 -15 31 27 71 l43 40 41 -23 c23 -13 48 -24 56 -23 8
0 -6 11 -32 25 -27 13 -48 27 -48 31 0 5 6 28 25 99 3 11 145 10 221 -2z"/>
<path fill="#ffffff" stroke="none" d="M1555 1043 c-8 -18 -33 -65 -56 -104
-23 -40 -56 -108 -74 -152 -22 -55 -34 -74 -39 -62 -13 34 -5 58 69 202 42 81
81 166 88 188 l12 40 6 -40 c4 -25 2 -52 -6 -72z"/>
<path fill="#ffffff" stroke="none" d="M1422 1097 c28 -13 43 -14 64 -7 15 6
28 9 30 8 1 -2 -29 -67 -69 -145 -39 -78 -73 -141 -74 -139 -2 2 -12 44 -23
94 -20 90 -20 90 0 134 11 23 20 51 20 61 0 10 3 17 8 15 4 -2 24 -12 44 -21z"/>
<path fill="#ffffff" stroke="none" d="M748 1025 c37 -9 46 -18 62 -52 10 -22
23 -44 29 -47 6 -4 2 12 -9 36 -21 48 -19 51 43 62 l38 7 26 -58 c15 -32 35
-70 46 -85 57 -78 -32 -167 -167 -168 -123 0 -203 76 -194 183 3 29 14 74 26
101 18 39 25 47 39 41 10 -4 37 -13 61 -20z"/>
<path fill="#ffffff" stroke="none" d="M2065 842 c-5 -45 -18 -86 -46 -140
-56 -112 -103 -161 -201 -211 l-83 -42 -155 -8 c-85 -4 -156 -6 -158 -5 -2 1
50 21 114 44 78 29 142 46 193 50 67 7 199 45 189 56 -2 2 -35 -8 -74 -21 -38
-14 -85 -25 -104 -25 l-35 0 30 19 c17 10 50 40 74 67 39 44 180 250 227 332
l19 33 8 -43 c4 -24 5 -71 2 -106z"/>
<path fill="#ffffff" stroke="none" d="M1387 649 c3 -41 2 -73 -5 -85 -10 -16
-11 -14 -12 18 0 20 -16 101 -35 179 -34 140 -42 199 -28 213 10 10 72 -244
80 -325z"/>
<path fill="#ffffff" stroke="none" d="M1295 863 c20 -83 18 -85 -16 -20 -24
47 -28 61 -18 73 16 19 18 16 34 -53z"/>
<path fill="#ffffff" stroke="none" d="M1922 804 c-44 -66 -98 -141 -122 -167
-38 -43 -103 -87 -129 -87 -17 0 8 47 71 138 32 45 56 82 53 82 -11 0 -128
-165 -139 -196 -11 -34 -18 -39 -112 -74 -55 -20 -118 -47 -140 -58 -23 -12
-44 -19 -47 -16 -8 8 4 66 20 99 56 110 139 180 291 245 224 96 262 113 294
135 18 13 34 22 36 20 2 -1 -33 -56 -76 -121z"/>
<path fill="#ffffff" stroke="none" d="M1264 823 c25 -51 72 -182 61 -171 -3
2 -29 55 -60 116 -33 68 -49 112 -42 112 7 0 26 -26 41 -57z"/>
<path fill="#ffffff" stroke="none" d="M1208 835 c7 -14 12 -29 12 -33 -1 -10
-40 38 -40 49 0 18 17 8 28 -16z"/>
<path fill="#ffffff" stroke="none" d="M1192 803 c55 -57 100 -130 134 -214
40 -104 27 -100 -29 7 -54 104 -79 141 -141 208 -40 43 -42 46 -23 46 7 0 34
-21 59 -47z"/>
<path fill="#ffffff" stroke="none" d="M784 542 c-11 -9 -31 -24 -45 -33 -20
-14 -24 -25 -25 -73 0 -31 -4 -59 -7 -63 -14 -14 -57 40 -57 72 0 46 81 114
135 114 20 0 20 0 -1 -17z"/>
<path fill="#ffffff" stroke="none" d="M1975 436 l20 -35 -21 -28 c-27 -36
-133 -81 -145 -61 -6 9 5 16 39 26 90 26 104 62 47 119 -19 19 -32 39 -29 44
9 16 67 -26 89 -65z"/>
<path fill="#ffffff" stroke="none" d="M744 466 c-3 -9 -10 -16 -15 -16 -6 0
-5 9 1 21 13 24 24 20 14 -5z"/>
<path fill="#ffffff" stroke="none" d="M1909 445 c36 -42 36 -39 15 -59 -21
-21 -31 -20 -39 5 -4 11 -25 29 -47 39 l-40 18 23 16 c35 24 54 20 88 -19z"/>
<path fill="#ffffff" stroke="none" d="M1834 419 c25 -12 49 -46 41 -59 -3 -4
-18 -11 -34 -15 -23 -5 -40 2 -91 37 -61 43 -62 43 -33 50 32 7 85 1 117 -13z"/>
<path fill="#ffffff" stroke="none" d="M689 303 c-5 -26 -11 -48 -13 -50 -5
-5 -26 90 -26 117 0 19 1 19 24 -1 21 -18 22 -25 15 -66z"/>
<path fill="#ffffff" stroke="none" d="M1401 348 c22 -12 39 -25 39 -30 0 -11
-288 -10 -295 2 -8 13 111 49 169 49 32 1 61 -6 87 -21z"/>
<path fill="#ffffff" stroke="none" d="M1975 264 c-9 -49 -23 -111 -32 -139
l-16 -50 -19 74 c-10 40 -27 88 -38 105 l-19 33 54 22 c29 12 59 29 66 37 6 8
13 13 15 11 2 -2 -3 -44 -11 -93z"/>
<path fill="#ffffff" stroke="none" d="M1311 296 c123 -1 160 -4 174 -16 17
-14 13 -15 -41 -21 -61 -6 -231 -3 -322 7 l-52 5 22 19 c15 12 30 17 43 13 11
-4 90 -7 176 -7z"/>
<path fill="#000000" stroke="none" d="M1120 1930 c8 -5 36 -13 63 -16 28 -4
47 -12 47 -19 0 -7 9 -23 20 -36 l20 -24 -14 35 -15 35 37 17 37 17 -40 -6
c-51 -9 -69 -9 -125 0 -31 5 -40 4 -30 -3z"/>
<path fill="#000000" stroke="none" d="M983 468 c-11 -13 -36 -48 -55 -78 -19
-30 -75 -98 -124 -150 -60 -64 -75 -84 -46 -61 23 18 54 49 69 67 14 19 28 33
30 30 13 -13 -130 -222 -175 -255 -15 -11 -22 -21 -15 -21 34 -1 131 132 244
333 24 43 59 96 77 118 35 41 31 56 -5 17z"/>
</g>
</svg>
