<svg version="1.1" xmlns="http://www.w3.org/2000/svg" xmlns:xlink="http://www.w3.org/1999/xlink" width="768" height="819.1875"><defs><clipPath id="clip-1"><rect x="0" y="20.39502" transform="scale(1.2549,1.2549)" width="612" height="612" id="clip-1" fill="none"/></clipPath></defs><g fill="none" fill-rule="nonzero" stroke="none" stroke-width="1" stroke-linecap="butt" stroke-linejoin="miter" stroke-miterlimit="10" stroke-dasharray="" stroke-dashoffset="0" font-family="none" font-weight="none" font-size="none" text-anchor="none" style="mix-blend-mode: normal"><g><g><g><g><g><g><g><g><g><g><g><g><g clip-path="url(#clip-1)"><g><path d="M180.70756,84.95139c-3.89026,2.00784 -6.27457,4.51771 -8.65888,9.03535c-1.75686,3.51379 -3.3883,6.52555 -3.51379,6.77653c-0.25098,0.25098 -1.75686,-1.00392 -3.51379,-2.88627c-12.54914,-13.55306 -37.01997,-5.64712 -40.03173,13.0511l-0.75294,5.01967h-6.65104c-18.32175,0 -28.36102,22.21194 -16.4394,36.39252c1.88235,2.13333 5.01967,4.76869 7.02751,5.77261c5.01967,2.63529 14.55698,2.63529 19.45116,0.12549l4.01575,-2.13333l2.38431,5.52163c4.6432,10.16483 17.06685,16.31391 27.60808,13.42757c2.88627,-0.87843 7.27849,-3.26281 9.78836,-5.39614l4.39222,-3.89026l4.01575,3.76477c2.25882,2.13333 5.27065,4.51771 6.77653,5.27065c3.76477,1.88235 14.68247,1.75686 19.57665,-0.37647c4.89418,-2.00784 11.7962,-9.53731 12.92561,-14.05502l0.87843,-3.13725l3.89026,3.63928c17.31783,16.31391 45.17689,-0.50196 39.52977,-23.96887c-1.63137,-6.90202 -8.78437,-15.30992 -14.306,-16.69038c-2.38431,-0.62745 -3.13725,-1.63137 -3.13725,-4.14124c-0.12549,-5.39614 -4.39222,-13.30208 -9.53731,-17.19234c-4.14124,-3.26281 -5.77261,-3.63928 -14.05502,-3.76477c-8.78437,-0.12549 -9.53731,-0.37647 -11.16875,-3.3883c-4.6432,-8.90986 -20.07861,-12.29816 -30.49442,-6.77653z" fill="#000000"/><path d="M198.52735,86.58277c3.13725,0.62745 11.29424,8.28241 12.42365,11.41973c0.37647,1.00392 2.5098,0.87843 7.02751,0c5.8981,-1.2549 7.02751,-1.00392 12.54914,1.75686c6.77653,3.3883 11.67071,11.16875 11.67071,18.19626c0,3.51379 0.50196,4.14124 3.63928,4.89418c4.39222,0.87843 12.29816,9.16084 13.42757,13.80404c1.2549,5.14516 -0.25098,14.43149 -2.88627,17.94528c-4.6432,6.14908 -8.78437,8.28241 -17.44332,8.78437l-8.15692,0.50196l-5.8981,-6.02359l-6.02359,-6.14908l-4.01575,4.01575c-8.4079,8.4079 -21.70998,8.65888 -30.36893,0.50196c-3.63928,-3.3883 -5.14516,-6.02359 -5.77261,-9.91385l-0.75294,-5.27065l-3.89026,2.76078c-5.52163,3.89026 -16.4394,4.51771 -21.83547,1.12941c-8.15692,-5.14516 -11.16875,-18.9492 -5.8981,-26.22769c5.01967,-6.65104 10.41581,-9.28633 18.07077,-8.78437l7.02751,0.50196l0.12549,-5.39614c0.25098,-6.14908 4.01575,-13.17659 8.65888,-16.31391c3.51379,-2.25882 10.29032,-4.01575 13.0511,-3.3883c1.00392,0.25098 3.3883,0.75294 5.27065,1.2549z" fill="#5f5959"/><path d="M157.99366,96.49661c2.00784,1.00392 5.14516,3.63928 7.02751,5.8981l3.51379,4.14124l-6.77653,0.62745c-8.90986,0.87843 -14.68247,4.39222 -18.32175,11.16875c-6.65104,12.67463 -0.87843,27.23161 12.54914,31.49834c5.27065,1.63137 12.42365,0.87843 16.69038,-1.88235c2.38431,-1.50588 2.76078,-1.38039 4.76869,3.13725c5.64712,12.80012 22.33743,18.69822 33.12971,11.67071c4.01575,-2.5098 4.6432,-1.50588 1.38039,2.63529c-8.28241,10.5413 -26.60416,9.53731 -33.38069,-1.88235l-2.13333,-3.63928l-3.51379,4.26673c-6.90202,8.4079 -18.69822,10.16483 -28.36102,4.26673c-4.51771,-2.76078 -9.03535,-10.41581 -9.03535,-15.30992v-3.13725l-4.51771,3.01176c-8.65888,5.8981 -18.07077,5.27065 -24.97279,-1.63137c-6.52555,-6.52555 -7.52947,-15.05894 -2.5098,-23.46691c4.14124,-7.153 10.16483,-9.91385 19.07469,-8.90986c6.40006,0.75294 6.77653,0.62745 6.02359,-1.63137c-1.00392,-3.3883 1.2549,-11.54522 4.39222,-15.43541c5.27065,-6.77653 17.44332,-9.41182 24.97279,-5.39614z" fill="#5f5959"/><path d="M587.8016,85.20237c-3.3883,2.00784 -6.14908,5.01967 -8.15692,9.03535c-1.63137,3.26281 -3.13725,6.27457 -3.3883,6.52555c-0.12549,0.37647 -2.13333,-1.12941 -4.39222,-3.3883c-6.90202,-6.65104 -15.43541,-8.28241 -24.47083,-4.6432c-8.28241,3.51379 -12.92561,9.41182 -14.55698,18.32175c-0.75294,4.6432 -0.87843,4.6432 -8.15692,5.14516c-11.29424,0.75294 -18.57273,7.27849 -20.70606,18.44724c-1.63137,8.65888 3.76477,19.20018 12.17267,23.46691c4.76869,2.5098 14.68247,2.5098 19.57665,0l3.76477,-2.00784l2.38431,5.52163c6.77653,15.18443 26.47867,18.69822 38.90232,7.02751l3.01176,-2.76078l3.89026,3.76477c2.25882,2.13333 5.64712,4.51771 7.52947,5.14516c4.89418,1.88235 13.92953,1.75686 18.82371,-0.37647c4.89418,-2.00784 11.7962,-9.53731 12.92561,-14.05502l0.87843,-3.13725l3.26281,3.13725c7.40398,7.153 18.19626,8.90986 27.23161,4.39222c16.4394,-7.90594 18.32175,-31.37285 3.3883,-41.66317c-2.76078,-1.88235 -5.52163,-3.3883 -6.40006,-3.3883c-0.87843,0 -1.50588,-1.50588 -1.50588,-3.51379c-0.12549,-4.51771 -3.89026,-12.80012 -7.65496,-16.18842c-4.51771,-4.01575 -9.66287,-5.64712 -17.81979,-5.27065c-6.77653,0.25098 -7.52947,0.12549 -9.66287,-3.26281c-6.14908,-9.41182 -20.70606,-12.42365 -30.87089,-6.27457z" fill="#000000"/><path d="M606.37433,86.58277c3.26281,0.75294 11.41973,8.4079 12.42365,11.67071c0.37647,1.12941 1.88235,1.12941 6.40006,0c11.67071,-3.13725 22.96495,5.14516 24.47083,17.94528c0.62745,5.01967 1.12941,5.64712 6.77653,8.28241c13.92953,6.65104 15.05894,26.1022 2.13333,35.76507c-8.15692,6.02359 -23.5924,3.3883 -28.73749,-5.01967l-2.63529,-4.14124l-3.51379,3.76477c-12.29816,13.0511 -34.5101,7.78045 -37.14546,-8.90986l-0.75294,-4.89418l-3.89026,2.76078c-5.64712,4.01575 -16.4394,4.51771 -21.96096,1.00392c-9.28633,-5.77261 -11.29424,-19.82763 -3.89026,-28.23553c4.76869,-5.39614 9.78836,-7.40398 17.31783,-6.65104l6.02359,0.62745l0.12549,-5.39614c0,-6.27457 3.63928,-12.92561 8.65888,-16.31391c3.89026,-2.5098 10.03934,-4.14124 12.92561,-3.51379c1.00392,0.25098 3.3883,0.75294 5.27065,1.2549z" fill="#5f5959"/><path d="M565.84057,96.49661c2.00784,1.00392 5.14516,3.63928 7.02751,5.8981l3.51379,4.14124l-7.52947,0.75294c-4.76869,0.50196 -8.90986,1.75686 -11.41973,3.3883c-7.65496,5.52163 -11.41973,19.70214 -7.153,27.73357c5.64712,10.91777 20.70606,15.68639 30.36893,9.41182c2.5098,-1.63137 2.76078,-1.50588 4.14124,2.63529c0.75294,2.25882 3.63928,6.14908 6.27457,8.65888c8.15692,7.40398 17.56881,8.65888 26.85514,3.89026c4.6432,-2.5098 5.14516,-1.88235 1.88235,2.38431c-8.03143,10.29032 -25.60024,9.53731 -33.00422,-1.38039l-2.88627,-4.26673l-3.26281,4.39222c-4.14124,5.27065 -12.80012,8.90986 -19.07469,7.90594c-9.66287,-1.63137 -18.19626,-10.5413 -18.19626,-19.20018c0,-3.13725 -0.12549,-3.26281 -2.13333,-1.50588c-3.76477,3.26281 -10.16483,6.02359 -13.80404,6.02359c-6.52555,-0.12549 -13.80404,-4.39222 -16.56489,-9.91385c-7.52947,-14.68247 3.01176,-30.24344 19.20018,-28.612l6.40006,0.62745l0.12549,-5.52163c0.25098,-6.90202 4.89418,-14.306 10.66679,-17.19234c5.27065,-2.63529 13.92953,-2.76078 18.57273,-0.25098z" fill="#5f5959"/><path d="M289.88505,190.23869c-5.8981,4.01575 -7.78045,7.90594 -7.02751,14.43149c0.37647,3.01176 0.25098,5.39614 -0.37647,5.39614c-0.62745,0 -2.88627,1.75686 -5.01967,3.89026c-3.26281,3.26281 -3.89026,4.76869 -3.89026,9.78836c0,8.78437 3.89026,12.67463 14.306,14.18051c1.63137,0.25098 2.5098,1.63137 2.88627,4.14124c0.62745,5.77261 7.90594,11.92169 13.92953,11.92169c2.63529,0 5.8981,-0.87843 7.27849,-1.88235c1.2549,-1.00392 2.76078,-1.88235 3.3883,-1.88235c0.50196,0 7.27849,9.78836 15.18443,21.58449l14.306,21.70998l-3.51379,4.01575c-10.03934,11.29424 -14.43149,24.59632 -13.42757,40.4082c0.75294,12.54914 3.63928,21.20802 10.41581,30.36893c4.14124,5.64712 12.42365,13.17659 18.57273,16.81587c1.2549,0.75294 2.5098,3.51379 2.88627,6.77653c0.75294,5.27065 0.62745,5.39614 -2.25882,4.51771c-7.90594,-2.38431 -17.44332,-8.15692 -24.47083,-15.05894c-9.91385,-9.78836 -17.81979,-21.96096 -26.98063,-42.29062c-11.04326,-24.09436 -16.56489,-33.00422 -27.98455,-44.42395c-19.57665,-19.45116 -44.04748,-29.36501 -72.78497,-29.36501c-38.90232,0 -72.65948,20.2041 -86.71457,51.82793c-8.28241,18.9492 -9.28633,47.5612 -2.25882,67.76537c5.14516,14.55698 10.41581,23.09044 21.96096,35.3886c21.33351,22.71397 47.5612,35.3886 83.95372,40.53369l15.05894,2.25882l-6.65104,3.01176c-8.78437,4.14124 -24.59632,16.06293 -30.11795,22.83946c-14.93345,18.32175 -21.58449,39.90624 -18.69822,60.73779c6.52555,46.43179 61.74178,78.43209 112.4403,65.13001c23.5924,-6.14908 47.31022,-23.96887 59.23191,-44.29846c2.38431,-4.01575 3.51379,-5.01967 4.26673,-3.76477c0.50196,1.00392 5.52163,14.18051 11.16875,29.36501c11.54522,31.49834 13.30208,35.63958 14.93345,35.63958c1.88235,0 3.01176,-2.5098 13.80404,-31.62383c5.39614,-14.68247 10.66679,-28.612 11.67071,-30.99638l1.75686,-4.39222l3.01176,5.01967c12.92561,21.33351 32.87873,36.89448 57.72603,44.54944c12.17267,3.89026 37.39644,4.14124 50.07107,0.62745c23.46691,-6.40006 45.17689,-22.08645 55.71819,-39.90624c8.78437,-15.05894 11.54522,-37.8984 6.65104,-54.21224c-7.02751,-23.5924 -23.34142,-42.79258 -45.55336,-53.71028c-7.78045,-3.76477 -8.28241,-4.14124 -4.76869,-4.51771c9.53731,-0.75294 27.73357,-4.26673 37.77291,-7.153c22.96495,-6.65104 41.53761,-17.81979 57.34956,-34.38461c10.91777,-11.54522 18.19626,-23.21593 22.96495,-37.14546c6.65104,-19.45116 5.39614,-48.31421 -2.76078,-67.01236c-25.72573,-58.1025 -113.94618,-69.77321 -160.62895,-21.20802c-10.16483,10.5413 -15.30992,18.82371 -25.47475,41.03565c-13.17659,28.73749 -22.83946,42.29062 -36.76899,51.82793c-6.02359,4.01575 -15.5609,8.53339 -18.32175,8.53339c-1.63137,0 1.00392,-10.79228 3.01176,-11.92169c6.02359,-3.51379 14.80796,-11.41973 18.69822,-16.69038c10.03934,-13.67855 13.42757,-34.76108 8.15692,-50.44754c-2.76078,-8.53339 -7.02751,-15.93737 -12.17267,-21.459l-3.01176,-3.3883l13.42757,-20.45508c7.27849,-11.29424 13.80404,-21.08253 14.306,-21.58449c0.50196,-0.62745 2.63529,-0.25098 4.76869,0.87843c4.89418,2.5098 11.41973,2.5098 15.05894,0c3.26281,-2.25882 6.52555,-8.15692 6.52555,-11.7962c0,-2.00784 0.75294,-2.5098 4.39222,-2.5098c3.01176,0 5.64712,-1.12941 8.4079,-3.63928c3.63928,-3.26281 4.14124,-4.51771 4.14124,-9.91385c0,-4.89418 -0.62745,-7.02751 -3.01176,-9.53731c-1.63137,-1.75686 -4.01575,-3.51379 -5.14516,-3.89026c-1.75686,-0.50196 -2.00784,-1.88235 -1.50588,-6.90202c0.62745,-7.27849 -1.38039,-11.41973 -7.40398,-14.55698c-4.76869,-2.38431 -10.66679,-1.63137 -15.43541,2.13333c-3.01176,2.25882 -3.3883,2.38431 -6.90202,0.50196c-6.40006,-3.26281 -12.29816,-2.5098 -17.19234,2.38431c-4.6432,4.6432 -5.64712,10.79228 -2.88627,16.06293c1.12941,2.25882 1.00392,3.01176 -0.75294,4.39222c-3.76477,2.63529 -6.90202,8.28241 -6.90202,12.29816c0,4.76869 4.01575,11.41973 7.52947,12.54914c1.50588,0.50196 2.5098,1.2549 2.25882,1.88235c-0.25098,0.62745 -6.27457,10.16483 -13.55306,21.33351c-10.91777,16.69038 -13.55306,20.07861 -15.68639,19.57665c-19.07469,-4.26673 -21.83547,-4.6432 -28.86305,-3.89026c-4.14124,0.50196 -10.29032,2.00784 -13.67855,3.26281c-3.51379,1.2549 -6.40006,2.25882 -6.40006,2.00784c-1.75686,-2.25882 -26.98063,-41.28663 -26.98063,-41.66317c0,-0.12549 2.00784,-2.38431 4.39222,-4.76869c3.76477,-3.76477 4.39222,-5.27065 4.39222,-10.29032c0,-5.01967 -0.62745,-6.52555 -4.14124,-10.03934c-4.01575,-4.01575 -4.01575,-4.26673 -2.25882,-8.03143c1.50588,-3.13725 1.50588,-4.76869 0.25098,-8.90986c-2.63529,-8.90986 -13.30208,-12.80012 -21.58449,-7.90594c-3.3883,2.00784 -3.63928,2.00784 -6.52555,-0.62745c-4.6432,-4.39222 -10.66679,-4.76869 -15.93737,-1.2549z" fill="#000000"/><path d="M303.06164,195.63483c1.75686,1.63137 3.13725,3.89026 3.13725,5.01967c0,1.00392 1.12941,1.88235 2.5098,1.88235c1.38039,0 2.5098,-0.62745 2.5098,-1.50588c0,-3.13725 4.26673,-6.02359 8.90986,-6.02359c3.63928,0 5.27065,0.75294 7.27849,3.26281c3.76477,4.76869 3.26281,8.90986 -1.2549,13.17659c-4.14124,3.89026 -3.89026,6.14908 0.50196,6.14908c7.02751,0 11.16875,7.27849 7.90594,13.67855c-2.00784,3.76477 -4.26673,5.14516 -8.4079,5.14516c-1.2549,0 -2.38431,0.37647 -2.38431,0.75294c0,0.37647 7.02751,11.54522 15.68639,24.72181l15.81188,23.96887l-2.88627,2.25882c-1.63137,1.2549 -3.3883,2.25882 -4.14124,2.25882c-1.12941,0 -23.09044,-32.87873 -29.99246,-44.67493c-2.63529,-4.51771 -4.51771,-5.52163 -4.51771,-2.5098c0,2.76078 -5.01967,5.77261 -9.53731,5.77261c-2.88627,0 -4.89418,-1.00392 -6.77653,-3.3883c-2.63529,-3.3883 -2.63529,-4.6432 -0.50196,-11.54522c0.87843,-2.88627 0.75294,-3.01176 -3.3883,-2.00784c-2.38431,0.50196 -5.64712,1.00392 -7.40398,0.87843c-3.51379,0 -8.78437,-5.52163 -8.78437,-9.16084c0,-4.01575 6.65104,-9.91385 11.16875,-9.91385c4.51771,0 4.89418,-1.50588 1.38039,-5.27065c-1.38039,-1.50588 -2.5098,-4.39222 -2.5098,-6.27457c0,-4.51771 5.01967,-9.78836 9.41182,-9.78836c1.75686,0 4.6432,1.38039 6.27457,3.13725z" fill="#ffffff"/><path d="M474.73385,193.62692c5.64712,2.13333 7.153,12.67463 2.25882,15.81188c-2.88627,1.75686 -1.2549,4.14124 3.51379,4.89418c8.15692,1.2549 11.67071,9.66287 6.65104,15.81188c-2.5098,3.01176 -7.153,3.76477 -13.17659,2.00784l-3.51379,-1.00392l0.87843,6.27457c0.62745,5.39614 0.37647,6.65104 -1.88235,8.90986c-4.6432,4.6432 -12.92561,3.13725 -16.06293,-2.76078c-1.00392,-1.88235 -3.89026,1.88235 -17.19234,22.21194c-8.78437,13.55306 -16.4394,24.59632 -16.81587,24.59632c-0.50196,0 -2.25882,-1.12941 -3.89026,-2.38431l-3.13725,-2.38431l15.93737,-24.21985c15.68639,-23.96887 15.81188,-24.34534 12.42365,-24.72181c-4.6432,-0.62745 -9.03535,-5.01967 -9.03535,-9.03535c0,-4.6432 4.51771,-10.03934 8.28241,-10.03934c4.51771,0 5.14516,-3.3883 1.2549,-6.40006c-2.38431,-1.88235 -3.26281,-3.76477 -3.26281,-7.02751c0,-6.14908 3.01176,-9.16084 8.90986,-9.16084c3.89026,0 5.39614,0.75294 7.65496,3.76477c3.51379,4.76869 5.27065,4.76869 7.27849,0c2.38431,-5.8981 6.52555,-7.52947 12.92561,-5.14516z" fill="#ffffff"/><path d="M236.55124,274.56888c13.42757,4.6432 22.58848,9.66287 32.62775,17.94528c11.92169,9.78836 18.32175,19.20018 30.99638,45.55336c13.30208,27.48259 19.57665,37.27095 30.36893,47.43571c7.02751,6.52555 17.94528,13.0511 26.22769,15.81188c2.00784,0.62745 2.00784,1.00392 0.25098,5.39614c-1.12941,2.63529 -4.76869,9.41182 -8.15692,14.93345c-6.65104,10.79228 -12.54914,23.21593 -12.54914,26.22769c0,2.13333 -1.00392,2.38431 -18.19626,4.89418c-38.77683,5.8981 -68.26733,7.02751 -92.6126,3.89026c-46.55728,-6.14908 -82.9498,-28.612 -99.26371,-61.23982c-7.65496,-15.18443 -9.91385,-24.72181 -10.03934,-41.03565c0,-15.5609 1.63137,-23.46691 8.03143,-37.01997c7.78045,-16.81587 19.32567,-28.23553 37.01997,-37.14546c16.56489,-8.15692 25.72573,-10.03934 47.05924,-9.53731c15.81188,0.37647 19.45116,0.87843 28.23553,3.89026z" fill="#ffffff"/><path d="M586.79768,272.81202c18.69822,4.76869 37.52193,16.18842 47.93767,29.11403c5.01967,6.27457 13.17659,22.96495 15.05894,31.12187c2.63529,10.66679 3.01176,25.22377 1.12941,35.89056c-5.77261,32.0003 -26.35318,57.34956 -59.23191,73.28693c-35.13755,17.19234 -73.41242,20.2041 -137.41302,11.16875c-21.33351,-3.01176 -22.58848,-3.26281 -22.58848,-5.52163c0,-3.01176 -5.01967,-13.55306 -11.92169,-25.09828c-3.76477,-6.27457 -7.65496,-13.42757 -8.78437,-16.06293c-1.75686,-4.39222 -1.75686,-4.76869 0.25098,-5.39614c8.03143,-2.63529 19.07469,-9.28633 25.60024,-15.30992c11.16875,-10.29032 17.06685,-19.32567 30.99638,-47.93767c9.03535,-18.44724 14.55698,-28.11004 19.45116,-34.00814c12.42365,-14.80796 30.24344,-25.97671 49.82009,-31.12187c13.17659,-3.51379 36.14154,-3.51379 49.6946,-0.12549z" fill="#ffffff"/><path d="M395.17235,284.23168c32.75324,7.52947 49.94558,43.67101 35.13755,73.66347c-15.5609,31.62383 -58.1025,38.77683 -82.69882,13.80404c-3.51379,-3.51379 -8.15692,-10.16483 -10.41581,-14.68247c-3.76477,-7.78045 -4.01575,-9.03535 -4.01575,-22.08645c0,-13.17659 0.25098,-14.306 4.14124,-22.33743c10.79228,-21.83547 34.88657,-33.75716 57.85152,-28.36102z" fill="#ffffff"/><path d="M376.59962,391.02486c8.15692,1.38039 18.44724,0.50196 25.47475,-2.25882c2.00784,-0.75294 2.25882,-0.50196 1.75686,1.63137c-1.2549,4.51771 1.2549,15.30992 5.27065,23.09044l3.89026,7.78045l-5.52163,5.27065c-13.17659,12.54914 -34.13363,12.42365 -47.05924,-0.50196c-4.39222,-4.39222 -4.89418,-7.02751 -2.38431,-10.79228c3.3883,-5.01967 6.02359,-13.67855 6.02359,-20.32959c0.12549,-5.64712 0.50196,-6.65104 2.13333,-6.02359c1.00392,0.37647 5.77261,1.38039 10.41581,2.13333z" fill="#ffb3b3"/><path d="M366.93675,436.95469c5.52163,2.88627 7.90594,3.3883 17.06685,3.3883c9.16084,0 11.54522,-0.50196 16.94136,-3.3883c3.51379,-1.75686 8.15692,-5.14516 10.41581,-7.40398c2.5098,-2.63529 4.51771,-3.63928 5.14516,-2.88627c2.13333,2.00784 8.53339,15.93737 10.91777,23.46691l2.25882,7.153l-4.76869,4.89418c-16.56489,16.94136 -49.56911,20.07861 -72.91046,7.02751c-4.14124,-2.25882 -8.90986,-5.64712 -10.5413,-7.40398c-2.88627,-3.13725 -3.01176,-3.63928 -1.63137,-9.66287c1.38039,-5.8981 8.90986,-22.33743 11.7962,-25.85122c0.87843,-1.12941 2.25882,-0.37647 5.01967,2.88627c2.13333,2.38431 6.77653,5.8981 10.29032,7.78045z" fill="#ffb3b3"/><path d="M494.43599,462.30395c24.34534,1.63137 29.86697,3.01176 44.54944,10.5413c12.67463,6.40006 28.36102,21.459 34.25912,33.00422c5.01967,9.53731 9.03535,24.8473 9.03535,34.13363c-0.12549,39.90624 -38.65134,73.03595 -84.95764,72.91046c-29.99246,-0.12549 -58.72995,-15.30992 -75.67131,-40.15722c-9.53731,-14.18051 -9.53731,-11.54522 -0.37647,-36.39252c12.04718,-32.87873 14.55698,-44.54944 13.92953,-64.62805l-0.37647,-16.4394l18.82371,2.88627c10.29032,1.50588 28.73749,3.3883 40.78467,4.14124z" fill="#ffffff"/><path d="M332.67763,471.71584c-0.50196,21.33351 1.75686,31.24736 17.81979,74.91837l4.39222,12.04718l-4.51771,7.90594c-6.02359,10.41581 -23.71789,28.11004 -34.13363,34.13363c-35.3886,20.45508 -81.94588,14.55698 -110.3069,-14.05502c-17.6943,-17.6943 -23.84338,-39.65526 -17.6943,-63.37315c4.76869,-18.9492 16.56489,-35.01206 34.00814,-46.68277c15.05894,-10.03934 21.33351,-11.92169 46.55728,-13.80404c20.58057,-1.50588 52.70636,-5.01967 55.5927,-6.14908c0.75294,-0.25098 3.01176,-0.50196 5.01967,-0.50196l3.76477,-0.12549z" fill="#ffffff"/><path d="M352.63075,474.85309c7.65496,3.89026 23.09044,7.52947 31.62383,7.52947c13.42757,-0.12549 30.87089,-6.02359 40.4082,-13.67855c4.51771,-3.51379 5.14516,-3.76477 6.14908,-1.88235c2.76078,4.89418 -2.13333,37.64742 -6.27457,42.16513c-3.13725,3.51379 -11.67071,8.03143 -20.45508,11.04326c-9.91385,3.3883 -26.1022,3.89026 -36.6435,1.00392c-7.40398,-2.00784 -22.08645,-9.53731 -24.59632,-12.67463c-3.3883,-4.01575 -7.52947,-31.12187 -6.02359,-39.1533l0.87843,-4.51771l3.89026,3.26281c2.13333,1.75686 7.02751,4.89418 11.04326,6.90202z" fill="#ffb3b3"/><path d="M366.93675,525.80259c8.53339,2.25882 26.1022,2.25882 35.01206,-0.12549c4.01575,-1.00392 10.03934,-3.26281 13.55306,-5.14516c3.51379,-1.75686 6.65104,-3.01176 6.90202,-2.76078c0.62745,0.75294 -14.43149,41.41212 -16.18842,43.54552c-4.89418,5.8981 -21.96096,8.65888 -33.63167,5.27065c-9.78836,-2.76078 -11.54522,-5.14516 -19.07469,-25.85122c-10.03934,-27.60808 -10.03934,-25.22377 -0.87843,-20.58057c4.26673,2.13333 10.66679,4.76869 14.306,5.64712z" fill="#ffb3b3"/><path d="M370.19956,570.85399c6.77653,2.38431 22.58848,2.38431 28.23553,0.12549c3.26281,-1.38039 4.39222,-1.50588 4.39222,-0.37647c0,2.13333 -18.07077,51.07499 -18.82371,51.07499c-0.37647,0 -3.63928,-8.28241 -7.40398,-18.57273c-3.76477,-10.16483 -8.03143,-21.96096 -9.66287,-26.35318c-1.63137,-4.26673 -2.76078,-7.78045 -2.5098,-7.78045c0.25098,0 2.88627,0.87843 5.77261,1.88235z" fill="#ffffff"/><path d="M204.17447,278.33358c-15.93737,5.8981 -23.21593,22.33743 -16.81587,38.27487c8.90986,22.08645 47.05924,55.09074 83.20078,71.78105c26.72965,12.42365 43.16905,15.5609 50.19656,9.53731c2.88627,-2.5098 3.13725,-3.26281 1.88235,-5.64712c-0.75294,-1.50588 -3.76477,-4.39222 -6.77653,-6.40006c-11.67071,-8.03143 -16.06293,-14.306 -31.24736,-43.16905c-13.30208,-25.34926 -19.70214,-34.76108 -32.0003,-46.93375c-15.5609,-15.43541 -35.01206,-22.46299 -48.4397,-17.44332z" fill="#000000"/><path d="M232.91196,285.98861c17.19234,8.4079 32.50226,26.98063 48.18872,58.35348c4.26673,8.65888 9.78836,18.82371 12.17267,22.58848c5.01967,8.03143 15.43541,19.07469 21.459,22.71397c11.67071,7.40398 -3.01176,10.03934 -21.459,4.01575c-15.18443,-5.14516 -41.03565,-18.57273 -55.96917,-29.23952c-19.20018,-13.67855 -38.77683,-33.50618 -44.17297,-44.42395c-8.78437,-18.19626 -3.63928,-32.87873 13.67855,-38.52585c6.27457,-2.00784 16.56489,-0.25098 26.1022,4.51771z" fill="#ffb3b3"/><path d="M154.98183,290.88272c-2.13333,0.87843 -5.52163,3.51379 -7.40398,5.8981c-3.13725,3.76477 -3.51379,4.89418 -3.01176,11.54522c0.50196,6.77653 1.00392,7.90594 5.14516,11.67071c4.39222,4.14124 7.27849,4.89418 14.68247,4.26673c7.27849,-0.62745 15.05894,-9.28633 15.05894,-16.81587c0,-6.14908 -4.76869,-13.30208 -10.41581,-15.93737c-6.14908,-2.76078 -8.90986,-2.88627 -14.05502,-0.62745z" fill="#000000"/><path d="M167.78195,295.02396c8.15692,3.76477 10.16483,15.43541 3.63928,21.58449c-9.16084,8.65888 -23.34142,3.26281 -23.34142,-8.90986c0,-6.27457 1.63137,-9.28633 6.65104,-12.29816c4.89418,-3.01176 7.40398,-3.13725 13.0511,-0.37647z" fill="#ffffff"/><path d="M140.67583,331.29099c-2.25882,1.2549 -5.64712,4.39222 -7.52947,7.27849c-2.76078,4.14124 -3.26281,6.27457 -3.26281,13.17659c0.12549,14.93345 8.78437,27.10612 24.72181,35.01206c15.68639,7.65496 41.41212,11.29424 64.0006,9.03535c14.80796,-1.50588 19.32567,-2.88627 20.58057,-6.52555c1.00392,-3.26281 -2.63529,-8.28241 -6.77653,-9.28633c-10.29032,-2.25882 -13.17659,-3.51379 -19.32567,-7.52947c-3.63928,-2.38431 -13.42757,-11.29424 -21.70998,-19.82763c-17.6943,-17.94528 -24.47083,-22.08645 -38.02389,-22.96495c-6.27457,-0.37647 -9.53731,0.12549 -12.67463,1.63137z" fill="#000000"/><path d="M168.15842,337.56556c4.01575,2.25882 13.17659,10.16483 23.71789,20.70606c17.44332,17.56881 24.47083,22.46299 34.63559,24.34534c5.77261,1.00392 9.41182,2.76078 9.41182,4.39222c0,4.26673 -24.21985,7.153 -43.67101,5.14516c-16.31391,-1.63137 -25.97671,-4.01575 -36.26703,-9.03535c-13.0511,-6.27457 -22.96495,-20.07861 -22.96495,-31.74932c0.12549,-6.27457 4.14124,-13.80404 8.90986,-16.31391c6.27457,-3.13725 17.81979,-2.13333 26.22769,2.5098z" fill="#ffb3b3"/><path d="M166.27607,401.31518c-21.96096,8.15692 -7.90594,32.0003 19.57665,33.2552c11.29424,0.50196 17.6943,-1.88235 21.33351,-7.90594c5.39614,-8.90986 0.87843,-19.32567 -10.5413,-23.96887c-7.27849,-3.01176 -23.96887,-3.76477 -30.36893,-1.38039z" fill="#000000"/><path d="M192.0018,405.33086c8.78437,2.63529 13.80404,7.52947 13.80404,13.67855c0,8.65888 -8.15692,12.92561 -22.46299,11.54522c-14.55698,-1.2549 -25.60024,-10.29032 -23.46691,-19.07469c1.88235,-7.153 18.07077,-10.29032 32.12579,-6.14908z" fill="#ffb3b3"/><path d="M236.55124,404.95439c-11.29424,4.51771 -18.19626,12.67463 -18.19626,21.20802c0,5.27065 4.14124,11.7962 9.91385,15.68639c7.40398,5.01967 16.06293,6.90202 33.38069,7.52947c13.42757,0.50196 18.44724,0.12549 28.11004,-2.00784c16.06293,-3.51379 31.12187,-11.04326 40.4082,-19.95312c7.40398,-7.40398 9.53731,-11.67071 8.15692,-17.19234c-1.00392,-4.01575 -4.6432,-4.14124 -12.80012,-0.37647c-9.16084,4.14124 -21.96096,3.63928 -42.5416,-1.50588c-18.32175,-4.6432 -39.52977,-6.27457 -46.43179,-3.3883z" fill="#000000"/><path d="M280.34774,411.60543c23.84338,5.77261 35.63958,6.27457 46.18081,1.88235c4.01575,-1.75686 7.65496,-2.76078 8.03143,-2.25882c1.88235,1.88235 -1.38039,8.15692 -7.02751,13.67855c-16.69038,16.06293 -52.95734,24.8473 -80.94196,19.70214c-18.57273,-3.3883 -28.23553,-14.05502 -22.71397,-24.72181c7.153,-13.80404 23.5924,-16.18842 56.47113,-8.28241z" fill="#ffb3b3"/><path d="M544.0051,277.70613c-11.16875,3.01176 -21.33351,9.53731 -32.37677,20.58057c-9.78836,10.03934 -17.44332,21.70998 -29.23952,44.29846c-14.68247,28.23553 -18.82371,34.00814 -31.37285,43.29454c-7.78045,5.77261 -9.03535,8.90986 -4.6432,12.42365c4.76869,3.76477 14.55698,3.26281 28.48651,-1.2549c49.44362,-16.4394 102.65194,-60.6123 106.91867,-88.59692c1.63137,-11.16875 -4.51771,-22.96495 -14.93345,-28.23553c-5.52163,-2.88627 -16.81587,-4.14124 -22.83946,-2.5098z" fill="#000000"/><path d="M565.4641,283.72972c2.63529,1.38039 6.65104,4.89418 8.65888,7.78045c5.39614,7.65496 5.27065,17.6943 -0.37647,28.73749c-7.02751,13.67855 -28.36102,33.75716 -52.95734,50.07107c-20.32959,13.42757 -51.70244,26.72965 -63.12217,26.72965c-10.79228,0 -12.54914,-2.76078 -4.89418,-7.78045c11.67071,-7.90594 19.20018,-18.19626 33.12971,-45.0514c11.67071,-22.83946 16.94136,-30.7454 27.73357,-42.16513c18.32175,-19.32567 37.14546,-25.97671 51.82793,-18.32175z" fill="#ffb3b3"/><path d="M601.98211,331.66746c-8.53339,3.3883 -16.56489,9.91385 -29.61599,23.96887c-13.55306,14.55698 -22.08645,20.58057 -33.00422,23.21593c-12.54914,2.88627 -16.18842,9.78836 -7.65496,14.306c5.14516,2.63529 28.98854,4.14124 43.16905,2.63529c24.97279,-2.5098 40.78467,-8.4079 51.45146,-19.07469c13.67855,-13.55306 14.68247,-34.88657 2.25882,-43.7965c-5.77261,-4.01575 -18.07077,-4.6432 -26.60416,-1.2549z" fill="#000000"/><path d="M625.57451,335.55765c11.54522,7.153 10.29032,26.85514 -2.76078,39.52977c-13.17659,12.80012 -44.29846,20.07861 -73.53791,17.06685c-14.55698,-1.50588 -18.82371,-2.88627 -17.6943,-5.77261c0.75294,-1.63137 7.65496,-4.39222 11.54522,-4.39222c5.39614,0 16.06293,-7.90594 32.87873,-24.47083c21.58449,-21.20802 26.35318,-24.09436 39.40428,-24.34534c4.01575,-0.12549 7.40398,0.75294 10.16483,2.38431z" fill="#ffb3b3"/><path d="M575.62893,400.93871c-19.57665,4.6432 -25.22377,23.34142 -9.41182,31.37285c11.67071,6.02359 35.01206,0.37647 42.03964,-10.03934c10.16483,-14.93345 -8.4079,-27.10612 -32.62775,-21.33351z" fill="#000000"/><path d="M601.10368,406.0838c5.01967,2.5098 5.64712,3.3883 6.02359,7.52947c0.75294,9.28633 -12.42365,17.31783 -28.36102,17.31783c-11.54522,0 -17.81979,-4.6432 -17.81979,-13.17659c0,-11.16875 26.1022,-18.69822 40.15722,-11.67071z" fill="#ffb3b3"/><path d="M502.59298,404.20145c-1.38039,0.25098 -9.78836,2.25882 -18.82371,4.39222c-20.45508,4.89418 -33.50618,5.27065 -42.41611,1.2549c-8.28241,-3.76477 -11.92169,-3.63928 -12.92561,0.37647c-1.38039,5.39614 0.62745,9.53731 8.03143,16.94136c5.14516,5.01967 10.41581,8.65888 17.81979,12.29816c16.94136,8.03143 25.09828,9.66287 48.31421,9.66287c17.94528,-0.12549 20.83155,-0.37647 27.3571,-3.01176c15.93737,-6.27457 21.96096,-16.81587 16.4394,-28.36102c-2.25882,-4.89418 -9.03535,-10.41581 -15.43541,-12.67463c-4.26673,-1.50588 -22.83946,-2.13333 -28.36102,-0.87843z" fill="#000000"/><path d="M528.94616,408.46818c3.01176,0.87843 7.153,3.63928 10.29032,6.77653c4.6432,4.6432 5.39614,6.02359 5.39614,10.66679c0,4.6432 -0.75294,6.02359 -4.76869,10.03934c-7.78045,7.27849 -16.18842,9.41182 -37.8984,9.41182c-18.82371,-0.12549 -25.34926,-1.2549 -40.28271,-6.90202c-14.80796,-5.39614 -29.99246,-18.32175 -29.99246,-25.34926c0,-3.01176 2.76078,-2.88627 9.16084,0.50196c8.28241,4.26673 24.34534,3.63928 46.05532,-2.00784c18.19626,-4.6432 32.50226,-5.77261 42.03964,-3.13725z" fill="#ffb3b3"/><path d="M354.76408,324.26348c-4.26673,3.3883 -4.6432,10.03934 -0.87843,13.80404c3.51379,3.51379 10.16483,3.26281 13.55306,-0.37647c7.90594,-8.4079 -3.63928,-20.58057 -12.67463,-13.42757z" fill="#000000"/><path d="M358.90532,328.78112c0,1.00392 -1.12941,1.75686 -2.5098,1.75686c-2.76078,0 -3.51379,-3.26281 -0.87843,-4.14124c2.00784,-0.75294 3.3883,0.12549 3.3883,2.38431z" fill="#ffffff"/><path d="M400.94496,324.89093c-3.76477,3.76477 -4.01575,8.03143 -0.50196,12.42365c3.26281,4.14124 9.91385,4.51771 13.67855,0.75294c3.76477,-3.76477 3.3883,-10.41581 -0.75294,-13.67855c-4.39222,-3.51379 -8.65888,-3.26281 -12.42365,0.50196z" fill="#000000"/><path d="M405.33711,328.78112c0,1.12941 -0.87843,1.75686 -2.13333,1.50588c-3.13725,-0.62745 -3.51379,-3.51379 -0.50196,-3.51379c1.50588,0 2.63529,0.75294 2.63529,2.00784z" fill="#ffffff"/><path d="M363.92499,359.40103c0,2.38431 10.41581,8.65888 15.5609,9.41182c6.77653,1.00392 14.55698,-1.00392 19.57665,-5.14516c5.39614,-4.6432 4.6432,-5.8981 -1.50588,-2.76078c-8.15692,4.26673 -18.07077,4.51771 -26.60416,0.62745c-3.89026,-1.75686 -7.02751,-2.76078 -7.02751,-2.13333z" fill="#000000"/><path d="M484.89868,469.83342c-7.153,1.50588 -14.306,5.14516 -16.4394,8.28241c-1.50588,2.38431 -1.50588,3.01176 0.25098,4.6432c1.12941,1.12941 4.01575,2.38431 6.65104,2.76078c2.5098,0.50196 5.27065,1.00392 6.14908,1.2549c0.75294,0.25098 4.39222,4.76869 7.90594,10.03934c4.39222,6.52555 8.4079,10.79228 12.92561,13.80404c21.459,14.05502 48.56519,8.53339 48.56519,-9.91385c0,-15.81188 -23.09044,-30.49442 -49.44362,-31.49834c-6.27457,-0.25098 -13.67855,0 -16.56489,0.62745z" fill="#000000"/><path d="M520.03623,475.9825c16.31391,5.77261 25.72573,13.92953 26.72965,23.34142c0.62745,5.14516 0.25098,6.27457 -2.88627,9.53731c-12.04718,12.54914 -38.90232,5.14516 -51.45146,-14.306c-5.39614,-8.4079 -9.66287,-12.17267 -13.80404,-12.17267c-3.63928,0 -6.77653,-1.2549 -6.77653,-2.63529c0,-1.63137 6.90202,-4.89418 12.92561,-6.14908c8.28241,-1.75686 26.85514,-0.50196 35.26311,2.38431z" fill="#ffb3b3"/><path d="M445.99636,475.60603c-2.76078,4.14124 -1.12941,9.28633 3.76477,11.67071c3.13725,1.50588 3.89026,1.38039 6.90202,-0.75294c4.01575,-3.01176 4.76869,-7.02751 2.13333,-11.16875c-2.88627,-4.39222 -9.91385,-4.26673 -12.80012,0.25098z" fill="#000000"/><path d="M457.03955,477.99041c1.00392,2.38431 1.00392,3.51379 -0.25098,5.01967c-4.01575,4.76869 -11.7962,-0.12549 -8.78437,-5.64712c2.00784,-3.63928 7.27849,-3.26281 9.03535,0.62745z" fill="#ffffff"/><path d="M444.6159,496.81412c-5.39614,3.76477 -12.92561,28.23553 -12.92561,41.91415c0,11.16875 2.63529,17.94528 8.65888,23.09044c10.66679,8.90986 26.60416,4.76869 30.49442,-8.03143c2.00784,-6.77653 0.50196,-10.5413 -7.153,-18.57273c-3.76477,-3.89026 -7.40398,-8.65888 -8.15692,-10.66679c-0.75294,-2.00784 -1.12941,-8.65888 -1.00392,-14.68247c0.12549,-6.14908 -0.25098,-11.67071 -0.87843,-12.29816c-2.5098,-2.25882 -6.40006,-2.63529 -9.03535,-0.75294z" fill="#000000"/><path d="M450.63949,511.62208c-0.12549,5.64712 0.25098,11.92169 1.00392,13.67855c0.75294,1.88235 4.39222,6.77653 8.15692,10.91777c7.78045,8.53339 9.28633,12.29816 7.02751,17.81979c-2.38431,5.52163 -7.02751,8.65888 -13.0511,8.65888c-6.77653,0 -12.54914,-3.63928 -15.93737,-10.16483c-2.25882,-4.6432 -2.63529,-6.77653 -2.13333,-16.06293c0.75294,-12.04718 5.64712,-28.98854 9.91385,-34.5101c4.01575,-5.14516 5.39614,-2.5098 5.01967,9.66287z" fill="#ffb3b3"/><path d="M463.94157,500.8298c-3.13725,3.01176 2.00784,14.306 15.5609,34.25912c17.31783,25.47475 36.6435,38.90232 55.96917,38.90232c12.92561,0 21.58449,-6.65104 22.71397,-17.31783c0.75294,-7.78045 -1.12941,-13.55306 -6.14908,-18.82371c-5.8981,-6.27457 -12.67463,-9.03535 -32.37677,-13.0511c-22.08645,-4.39222 -31.12187,-8.28241 -41.03565,-17.81979c-7.02751,-6.65104 -12.17267,-8.78437 -14.68247,-6.14908z" fill="#000000"/><path d="M476.86725,510.49267c10.66679,10.16483 20.45508,14.306 45.80434,18.9492c22.58848,4.14124 32.0003,11.41973 32.0003,24.97279c0,10.79228 -8.65888,16.69038 -23.09044,15.5609c-19.32567,-1.63137 -36.6435,-16.69038 -57.09858,-49.56911c-10.79228,-17.56881 -9.91385,-21.58449 2.38431,-9.91385z" fill="#ffb3b3"/><path d="M560.31901,518.14763c-3.76477,3.63928 -4.01575,7.27849 -0.62745,10.66679c5.01967,5.01967 13.80404,1.38039 13.80404,-5.64712c0,-3.76477 -4.01575,-8.15692 -7.52947,-8.15692c-1.50588,0 -4.01575,1.38039 -5.64712,3.13725z" fill="#000000"/><path d="M570.73475,522.79083c0.50196,2.5098 -3.26281,6.27457 -5.77261,5.77261c-1.00392,-0.25098 -2.63529,-1.63137 -3.63928,-3.13725c-1.63137,-2.38431 -1.50588,-3.01176 0.87843,-5.39614c2.38431,-2.38431 3.01176,-2.5098 5.39614,-0.87843c1.50588,1.00392 2.88627,2.63529 3.13725,3.63928z" fill="#ffffff"/><path d="M480.25548,570.22654c-4.39222,5.14516 -6.27457,11.67071 -5.64712,18.9492c1.12941,10.79228 8.65888,16.18842 22.71397,16.18842c19.20018,0 24.09436,-13.92953 10.16483,-28.86305c-6.65104,-7.153 -12.17267,-10.03934 -19.07469,-10.03934c-4.01575,0 -5.64712,0.75294 -8.15692,3.76477z" fill="#000000"/><path d="M495.06344,571.35595c5.77261,2.63529 15.18443,12.29816 16.31391,16.81587c1.38039,5.01967 0.25098,8.65888 -3.3883,11.29424c-7.153,5.39614 -26.47867,2.00784 -29.11403,-4.89418c-1.38039,-3.51379 -0.75294,-13.0511 1.00392,-17.31783c1.63137,-4.01575 6.27457,-8.28241 8.90986,-8.28241c0.62745,0 3.51379,1.12941 6.27457,2.38431z" fill="#ffb3b3"/><path d="M449.51008,577.25405c-5.77261,4.01575 -2.25882,14.306 4.89418,14.306c3.51379,0 7.78045,-4.26673 7.78045,-7.90594c0,-7.02751 -6.77653,-10.5413 -12.67463,-6.40006z" fill="#000000"/><path d="M457.79256,579.2619c4.26673,4.26673 -0.75294,11.29424 -6.02359,8.53339c-3.13725,-1.63137 -3.26281,-6.90202 -0.25098,-8.65888c2.88627,-1.75686 4.51771,-1.63137 6.27457,0.12549z" fill="#ffffff"/><path d="M533.4638,581.01882c-1.50588,1.88235 -2.63529,4.14124 -2.63529,5.14516c0,2.63529 5.77261,7.90594 8.78437,7.90594c6.65104,0 10.16483,-10.5413 4.76869,-14.306c-4.14124,-2.88627 -8.03143,-2.38431 -10.91777,1.2549z" fill="#000000"/><path d="M543.12667,581.77176c4.26673,4.26673 -0.75294,11.29424 -6.02359,8.53339c-4.39222,-2.38431 -2.5098,-10.03934 2.5098,-10.03934c1.12941,0 2.63529,0.62745 3.51379,1.50588z" fill="#ffffff"/><path d="M253.99456,470.33538c-8.4079,2.00784 -21.70998,8.15692 -27.48259,12.92561c-12.42365,10.41581 -12.54914,24.8473 -0.12549,32.0003c4.26673,2.38431 6.90202,2.88627 15.18443,2.88627c16.4394,-0.12549 27.98455,-6.90202 37.77291,-22.21194c4.01575,-6.14908 6.40006,-8.65888 8.90986,-9.28633c7.78045,-1.63137 11.92169,-3.3883 12.54914,-5.14516c1.00392,-2.63529 -4.26673,-7.52947 -10.79228,-9.78836c-7.90594,-2.88627 -26.47867,-3.51379 -36.01605,-1.38039z" fill="#000000"/><path d="M290.38701,475.9825c3.13725,1.38039 5.77261,3.01176 5.77261,3.63928c0,1.50588 -3.13725,2.76078 -6.77653,2.76078c-4.01575,0 -9.16084,4.26673 -12.17267,10.16483c-10.16483,20.07861 -41.78866,29.61599 -53.08283,16.06293c-9.53731,-11.41973 3.51379,-27.10612 28.23553,-33.75716c11.92169,-3.26281 29.36501,-2.76078 38.02389,1.12941z" fill="#ffffff"/><path d="M309.21072,475.48054c-2.63529,4.14124 -1.2549,9.28633 3.13725,11.41973c3.89026,2.00784 7.78045,0.50196 10.16483,-3.76477c1.63137,-2.88627 1.63137,-3.63928 0,-6.77653c-2.88627,-5.01967 -10.29032,-5.52163 -13.30208,-0.87843z" fill="#000000"/><path d="M320.25398,477.99041c1.00392,2.38431 1.00392,3.51379 -0.25098,5.01967c-2.25882,2.63529 -7.153,2.38431 -8.78437,-0.50196c-1.63137,-3.13725 -1.63137,-3.3883 0.75294,-5.64712c2.88627,-3.01176 6.65104,-2.5098 8.28241,1.12941z" fill="#ffffff"/><path d="M315.61078,497.44157c-1.75686,2.00784 -2.13333,4.39222 -2.00784,12.92561c0.25098,13.0511 -0.87843,15.93737 -9.28633,24.8473c-8.15692,8.53339 -9.66287,13.80404 -6.02359,20.83155c6.27457,12.17267 22.08645,14.18051 31.24736,3.89026c5.39614,-5.8981 7.153,-11.16875 7.153,-21.08253c-0.12549,-14.80796 -8.28241,-39.52977 -14.05502,-42.66709c-3.3883,-1.75686 -4.39222,-1.63137 -7.02751,1.2549z" fill="#000000"/><path d="M324.77169,505.97496c8.4079,19.57665 10.5413,36.89448 5.77261,46.05532c-7.153,13.80404 -24.97279,14.43149 -29.36501,1.12941c-2.00784,-5.77261 0,-10.5413 6.52555,-16.06293c7.78045,-6.65104 9.78836,-11.92169 9.78836,-25.22377c0,-6.40006 0.37647,-11.7962 0.75294,-12.29816c1.63137,-1.63137 4.14124,0.87843 6.52555,6.40006z" fill="#ffb3b3"/><path d="M290.13603,506.47692c-3.89026,3.76477 -8.53339,7.65496 -10.29032,8.65888c-6.02359,3.76477 -17.19234,7.27849 -32.0003,9.91385c-17.94528,3.13725 -25.60024,6.27457 -31.37285,12.80012c-5.39614,5.8981 -6.90202,9.53731 -6.90202,16.56489c0,6.02359 3.3883,12.04718 9.16084,16.31391c3.01176,2.25882 5.39614,2.63529 14.55698,2.63529c10.16483,0 11.67071,-0.37647 20.70606,-4.76869c15.81188,-7.90594 34.5101,-29.11403 47.81218,-54.21224c4.26673,-8.15692 3.89026,-13.67855 -1.00392,-14.18051c-2.63529,-0.37647 -4.89418,1.00392 -10.66679,6.27457z" fill="#000000"/><path d="M300.55184,507.10437c-0.87843,3.76477 -10.41581,19.82763 -17.56881,29.86697c-18.44724,25.60024 -43.16905,38.52585 -60.23583,31.49834c-9.78836,-4.14124 -12.17267,-17.19234 -5.01967,-26.60416c4.76869,-6.27457 13.17659,-9.78836 33.2552,-13.67855c21.20802,-4.14124 31.24736,-8.53339 40.28271,-17.6943c7.52947,-7.65496 10.66679,-8.78437 9.28633,-3.3883z" fill="#ffb3b3"/><path d="M198.90382,516.51626c-3.26281,1.88235 -4.39222,3.51379 -4.39222,6.90202c0,3.76477 4.26673,7.90594 8.15692,7.90594c7.153,0 10.66679,-8.90986 5.39614,-13.80404c-3.01176,-2.76078 -5.52163,-3.13725 -9.16084,-1.00392z" fill="#000000"/><path d="M206.3078,519.90449c2.5098,2.76078 1.75686,7.02751 -1.38039,8.15692c-5.8981,2.25882 -10.16483,-4.39222 -5.39614,-8.28241c3.51379,-2.88627 4.14124,-2.76078 6.77653,0.12549z" fill="#ffffff"/><path d="M270.05742,568.59517c-5.77261,2.76078 -15.05894,13.42757 -16.81587,19.32567c-1.88235,6.52555 -0.37647,10.91777 5.14516,14.55698c9.03535,6.14908 28.98854,2.5098 33.38069,-6.02359c2.76078,-5.27065 2.25882,-14.55698 -1.12941,-21.96096c-1.63137,-3.51379 -3.89026,-6.77653 -5.14516,-7.153c-3.76477,-1.50588 -11.16875,-0.87843 -15.43541,1.2549z" fill="#000000"/><path d="M283.3595,570.97948c4.14124,2.88627 6.52555,8.4079 6.65104,15.30992c0.25098,7.40398 -1.50588,10.91777 -6.65104,13.55306c-5.64712,2.88627 -18.32175,3.01176 -22.71397,0.12549c-2.00784,-1.2549 -3.89026,-3.13725 -4.26673,-4.14124c-2.38431,-6.27457 6.90202,-20.07861 16.56489,-24.47083c6.14908,-2.88627 6.90202,-2.88627 10.41581,-0.37647z" fill="#ffffff"/><path d="M308.95974,577.25405c-5.77261,4.01575 -2.25882,14.306 4.89418,14.306c3.63928,0 7.78045,-4.26673 7.78045,-8.15692c0,-3.89026 -4.14124,-8.15692 -7.78045,-8.15692c-1.12941,0 -3.3883,0.87843 -4.89418,2.00784z" fill="#000000"/><path d="M317.24222,579.2619c4.26673,4.26673 -0.75294,11.29424 -6.02359,8.53339c-3.13725,-1.63137 -3.26281,-6.90202 -0.25098,-8.65888c2.88627,-1.75686 4.51771,-1.63137 6.27457,0.12549z" fill="#ffffff"/><path d="M223.37465,580.26588c-1.38039,1.38039 -2.5098,3.89026 -2.5098,5.64712c0,3.76477 4.01575,8.15692 7.52947,8.15692c3.26281,0 8.78437,-5.39614 8.78437,-8.53339c0,-3.3883 -4.6432,-7.78045 -8.15692,-7.78045c-1.75686,0 -4.26673,1.12941 -5.64712,2.5098z" fill="#000000"/><path d="M233.03745,583.65411c1.63137,2.38431 1.50588,3.01176 -0.75294,5.27065c-3.13725,3.13725 -4.39222,3.26281 -6.90202,0.62745c-2.5098,-2.5098 -2.5098,-4.76869 0,-7.40398c2.63529,-2.5098 5.39614,-2.00784 7.65496,1.50588z" fill="#ffffff"/><path d="M128.62865,645.39589c-4.89418,2.88627 -10.41581,9.41182 -11.41973,13.42757c-1.00392,3.76477 -1.63137,3.76477 -5.52163,-0.37647c-6.52555,-6.77653 -16.56489,-8.4079 -25.85122,-4.26673c-6.40006,2.88627 -11.16875,8.90986 -13.0511,16.69038l-1.50588,6.02359h-5.64712c-10.79228,0 -18.69822,6.40006 -21.58449,17.19234c-2.63529,9.53731 2.38431,20.32959 11.54522,25.09828c4.89418,2.5098 14.43149,2.5098 19.32567,-0.12549l3.89026,-2.00784l2.76078,5.64712c7.02751,14.55698 25.22377,18.44724 37.14546,7.90594l4.39222,-3.89026l4.01575,3.76477c5.64712,5.39614 8.65888,6.65104 15.81188,6.65104c10.79228,0 18.32175,-4.6432 22.71397,-14.05502l2.13333,-4.76869l3.01176,3.26281c16.06293,17.19234 45.55336,-0.25098 39.90624,-23.71789c-1.63137,-6.90202 -8.78437,-15.30992 -14.306,-16.69038c-2.38431,-0.62745 -3.13725,-1.63137 -3.13725,-4.14124c-0.12549,-5.01967 -4.14124,-13.0511 -8.65888,-16.81587c-4.51771,-3.76477 -10.5413,-5.27065 -18.19626,-4.39222c-4.89418,0.62745 -5.52163,0.37647 -8.03143,-3.51379c-5.64712,-8.65888 -21.20802,-12.17267 -29.74148,-6.90202z" fill="#000000"/><path d="M148.83275,648.90961c2.13333,0.87843 5.14516,3.89026 6.90202,6.65104c1.88235,3.13725 3.63928,4.76869 4.89418,4.26673c10.41581,-3.76477 21.33351,0.25098 26.1022,9.53731c1.50588,3.01176 2.76078,7.40398 2.76078,9.53731c0,3.3883 0.50196,4.14124 3.63928,4.89418c4.6432,1.00392 10.91777,7.27849 12.80012,12.80012c4.51771,13.92953 -4.01575,26.60416 -18.9492,27.73357c-6.40006,0.50196 -8.15692,0.12549 -11.7962,-2.38431c-2.38431,-1.63137 -5.27065,-4.51771 -6.40006,-6.40006l-2.00784,-3.63928l-3.63928,3.89026c-7.02751,7.52947 -17.56881,9.53731 -26.22769,5.01967c-6.27457,-3.13725 -10.03934,-7.90594 -10.91777,-13.92953l-0.75294,-4.76869l-4.6432,3.01176c-8.65888,6.02359 -22.58848,3.26281 -26.85514,-5.27065c-3.01176,-5.8981 -3.51379,-10.41581 -2.00784,-15.30992c3.01176,-9.41182 10.5413,-14.55698 20.58057,-13.67855l6.52555,0.50196l0.12549,-5.39614c0.12549,-9.03535 6.77653,-17.19234 15.93737,-19.20018c4.26673,-1.00392 8.4079,-0.50196 13.92953,2.13333z" fill="#ffffff"/><path d="M105.28723,657.44307c2.00784,1.00392 5.14516,3.63928 7.02751,5.8981l3.51379,4.14124l-6.77653,0.62745c-8.90986,0.87843 -14.68247,4.39222 -18.32175,11.16875c-4.89418,9.28633 -3.51379,18.57273 3.76477,26.22769c6.27457,6.52555 15.81188,8.28241 23.71789,4.26673l4.51771,-2.38431l2.00784,4.76869c5.64712,12.67463 22.46299,18.57273 33.12971,11.54522c4.26673,-2.63529 5.01967,-1.00392 1.38039,2.88627c-9.66287,10.41581 -26.22769,9.28633 -33.38069,-2.00784l-2.38431,-3.76477l-2.88627,3.89026c-3.26281,4.39222 -11.54522,8.53339 -16.94136,8.65888c-6.40006,0 -14.306,-4.76869 -17.6943,-10.5413c-1.75686,-3.01176 -3.13725,-6.90202 -3.13725,-8.90986c0,-3.26281 -0.12549,-3.3883 -2.13333,-1.63137c-3.63928,3.13725 -10.03934,6.02359 -13.42757,6.02359c-14.55698,0 -23.84338,-15.5609 -17.19234,-28.612c3.63928,-7.153 10.79228,-10.79228 19.45116,-9.91385l6.40006,0.62745l0.12549,-5.52163c0.12549,-6.77653 4.89418,-14.306 10.66679,-17.19234c5.27065,-2.63529 13.92953,-2.76078 18.57273,-0.25098z" fill="#ffffff"/><path d="M640.63345,646.27432c-6.02359,4.01575 -9.03535,7.78045 -10.03934,12.04718c-1.00392,4.39222 -1.88235,4.39222 -5.77261,0.25098c-12.54914,-13.67855 -35.76507,-5.77261 -39.27879,13.42757l-0.75294,4.6432l-7.52947,0.50196c-8.28241,0.62745 -12.67463,3.01176 -17.06685,9.53731c-6.02359,8.78437 -4.76869,20.2041 3.13725,27.98455c7.153,7.153 17.06685,8.65888 26.1022,3.89026c2.38431,-1.38039 2.88627,-1.00392 5.39614,4.14124c7.153,14.68247 25.09828,18.44724 37.14546,7.90594l4.39222,-3.89026l4.01575,3.89026c2.25882,2.13333 5.64712,4.51771 7.52947,5.14516c4.89418,1.88235 13.92953,1.75686 18.82371,-0.37647c4.89418,-2.00784 11.7962,-9.53731 12.92561,-14.05502l0.87843,-3.13725l3.26281,3.01176c11.7962,11.04326 28.612,8.90986 37.01997,-4.51771c7.40398,-11.92169 3.13725,-28.11004 -8.90986,-34.00814c-4.01575,-2.00784 -5.27065,-3.3883 -5.39614,-5.77261c-0.12549,-5.39614 -4.51771,-13.30208 -9.53731,-17.06685c-4.14124,-3.26281 -5.77261,-3.63928 -14.05502,-3.76477c-8.78437,-0.12549 -9.53731,-0.37647 -11.16875,-3.3883c-4.76869,-9.16084 -21.83547,-12.67463 -31.12187,-6.40006z" fill="#000000"/><path d="M660.71206,648.03118c3.26281,1.2549 9.16084,7.153 10.16483,10.29032c0.62745,2.00784 1.38039,2.25882 4.01575,1.50588c6.52555,-2.00784 13.55306,-1.2549 18.32175,2.00784c5.14516,3.51379 9.53731,11.41973 9.53731,17.19234c0,3.01176 0.62745,4.01575 3.13725,4.6432c4.76869,1.2549 11.54522,7.90594 13.30208,12.92561c3.26281,10.03934 -1.88235,22.46299 -10.91777,26.22769c-9.53731,4.01575 -20.95704,1.00392 -25.60024,-6.52555l-2.63529,-4.14124l-4.39222,4.26673c-5.39614,5.39614 -12.17267,7.52947 -20.07861,6.27457c-8.03143,-1.12941 -15.05894,-7.90594 -16.31391,-15.43541l-0.75294,-5.14516l-4.6432,3.01176c-5.77261,4.01575 -15.18443,4.26673 -21.20802,0.62745c-9.28633,-5.64712 -11.29424,-19.82763 -3.89026,-28.23553c4.76869,-5.39614 9.78836,-7.40398 17.19234,-6.65104l5.8981,0.62745l0.12549,-5.27065c0.25098,-14.68247 14.306,-23.46691 28.73749,-18.19626z" fill="#ffb3b3"/><path d="M618.547,657.44307c2.00784,1.00392 5.14516,3.63928 7.02751,5.8981l3.51379,4.14124l-7.52947,0.75294c-9.16084,0.87843 -14.18051,4.14124 -17.81979,11.54522c-4.6432,9.66287 -2.76078,19.95312 4.76869,26.35318c7.40398,6.14908 15.30992,7.02751 25.47475,2.76078c1.50588,-0.62745 2.63529,0.25098 4.14124,3.63928c5.8981,12.42365 22.46299,18.07077 33.00422,11.16875c4.76869,-3.01176 4.76869,-0.87843 0,3.89026c-9.53731,9.53731 -25.09828,7.90594 -32.12579,-3.13725l-2.38431,-3.76477l-3.26281,4.39222c-4.14124,5.27065 -12.80012,8.90986 -19.07469,7.90594c-9.66287,-1.63137 -18.19626,-10.5413 -18.19626,-19.20018c0,-3.13725 -0.12549,-3.26281 -2.13333,-1.50588c-7.40398,6.40006 -15.81188,7.52947 -23.46691,3.13725c-9.28633,-5.27065 -12.17267,-16.94136 -6.65104,-26.47867c3.89026,-6.90202 9.78836,-9.78836 18.44724,-9.16084l6.90202,0.62745l0.12549,-5.27065c0.37647,-11.16875 8.78437,-19.57665 19.70214,-19.57665c3.26281,0 7.65496,0.87843 9.53731,1.88235z" fill="#ffb3b3"/></g></g></g></g></g></g></g></g></g></g></g></g></g></g></g></svg>