<svg version="1.1" xmlns="http://www.w3.org/2000/svg" xmlns:xlink="http://www.w3.org/1999/xlink" width="768" height="819.1875"><defs><clipPath id="clip-1"><rect x="0" y="20.39502" transform="scale(1.2549,1.2549)" width="612" height="612" id="clip-1" fill="none"/></clipPath></defs><g fill="none" fill-rule="nonzero" stroke="none" stroke-width="1" stroke-linecap="butt" stroke-linejoin="miter" stroke-miterlimit="10" stroke-dasharray="" stroke-dashoffset="0" font-family="none" font-weight="none" font-size="none" text-anchor="none" style="mix-blend-mode: normal"><g><g><g><g><g><g><g><g><g><g><g><g><g><g><g clip-path="url(#clip-1)"><g><path d="M180.70784,84.95152c-3.89027,2.00784 -6.27458,4.51772 -8.65889,9.03536c-1.75686,3.5138 -3.38831,6.52556 -3.5138,6.77654c-0.25098,0.25098 -1.75686,-1.00392 -3.5138,-2.88627c-12.54916,-13.55308 -37.02003,-5.64713 -40.03179,13.05112l-0.75294,5.01968h-6.65105c-18.32178,0 -28.36106,22.21197 -16.43943,36.39258c1.88235,2.13333 5.01968,4.7687 7.02752,5.77262c5.01968,2.63529 14.557,2.63529 19.45119,0.12549l4.01576,-2.13333l2.38431,5.52164c4.64321,10.16485 17.06688,16.31394 27.60812,13.42759c2.88627,-0.87843 7.2785,-3.26282 9.78838,-5.39615l4.39223,-3.89027l4.01576,3.76478c2.25882,2.13333 5.27066,4.51772 6.77654,5.27066c3.76478,1.88235 14.68249,1.75686 19.57668,-0.37647c4.89419,-2.00784 11.79622,-9.53732 12.92563,-14.05504l0.87843,-3.13725l3.89027,3.63929c17.31786,16.31394 45.17696,-0.50196 39.52983,-23.96891c-1.63137,-6.90203 -8.78438,-15.30994 -14.30602,-16.69041c-2.38431,-0.62745 -3.13725,-1.63137 -3.13725,-4.14125c-0.12549,-5.39615 -4.39223,-13.3021 -9.53732,-17.19237c-4.14125,-3.26282 -5.77262,-3.63929 -14.05504,-3.76478c-8.78438,-0.12549 -9.53732,-0.37647 -11.16877,-3.38831c-4.64321,-8.90987 -20.07864,-12.29818 -30.49447,-6.77654z" fill="#000000"/><path d="M198.52766,86.5829c3.13725,0.62745 11.29426,8.28242 12.42367,11.41975c0.37647,1.00392 2.5098,0.87843 7.02752,0c5.89811,-1.2549 7.02752,-1.00392 12.54916,1.75686c6.77654,3.38831 11.67073,11.16877 11.67073,18.19629c0,3.5138 0.50196,4.14125 3.63929,4.89419c4.39223,0.87843 12.29818,9.16085 13.42759,13.80406c1.2549,5.14517 -0.25098,14.43151 -2.88627,17.94531c-4.64321,6.14909 -8.78438,8.28242 -17.44335,8.78438l-8.15693,0.50196l-5.89811,-6.0236l-6.0236,-6.14909l-4.01576,4.01576c-8.40791,8.40791 -21.71001,8.65889 -30.36898,0.50196c-3.63929,-3.38831 -5.14517,-6.0236 -5.77262,-9.91387l-0.75294,-5.27066l-3.89027,2.76078c-5.52164,3.89027 -16.43943,4.51772 -21.8355,1.12941c-8.15693,-5.14517 -11.16877,-18.94923 -5.89811,-26.22773c5.01968,-6.65105 10.41583,-9.28634 18.0708,-8.78438l7.02752,0.50196l0.12549,-5.39615c0.25098,-6.14909 4.01576,-13.17661 8.65889,-16.31394c3.5138,-2.25882 10.29034,-4.01576 13.05112,-3.38831c1.00392,0.25098 3.38831,0.75294 5.27066,1.2549z" fill="#5f5959"/><path d="M157.99391,96.49676c2.00784,1.00392 5.14517,3.63929 7.02752,5.89811l3.5138,4.14125l-6.77654,0.62745c-8.90987,0.87843 -14.68249,4.39223 -18.32178,11.16877c-6.65105,12.67465 -0.87843,27.23165 12.54916,31.49839c5.27066,1.63137 12.42367,0.87843 16.69041,-1.88235c2.38431,-1.50588 2.76078,-1.38039 4.7687,3.13725c5.64713,12.80014 22.33746,18.69825 33.12976,11.67073c4.01576,-2.5098 4.64321,-1.50588 1.38039,2.63529c-8.28242,10.54132 -26.6042,9.53732 -33.38074,-1.88235l-2.13333,-3.63929l-3.5138,4.26674c-6.90203,8.40791 -18.69825,10.16485 -28.36106,4.26674c-4.51772,-2.76078 -9.03536,-10.41583 -9.03536,-15.30994v-3.13725l-4.51772,3.01176c-8.65889,5.89811 -18.0708,5.27066 -24.97283,-1.63137c-6.52556,-6.52556 -7.52948,-15.05896 -2.5098,-23.46695c4.14125,-7.15301 10.16485,-9.91387 19.07472,-8.90987c6.40007,0.75294 6.77654,0.62745 6.0236,-1.63137c-1.00392,-3.38831 1.2549,-11.54524 4.39223,-15.43543c5.27066,-6.77654 17.44335,-9.41183 24.97283,-5.39615z" fill="#5f5959"/><path d="M587.80252,85.2025c-3.38831,2.00784 -6.14909,5.01968 -8.15693,9.03536c-1.63137,3.26282 -3.13725,6.27458 -3.38831,6.52556c-0.12549,0.37647 -2.13333,-1.12941 -4.39223,-3.38831c-6.90203,-6.65105 -15.43543,-8.28242 -24.47087,-4.64321c-8.28242,3.5138 -12.92563,9.41183 -14.557,18.32178c-0.75294,4.64321 -0.87843,4.64321 -8.15693,5.14517c-11.29426,0.75294 -18.57276,7.2785 -20.70609,18.44727c-1.63137,8.65889 3.76478,19.20021 12.17269,23.46695c4.7687,2.5098 14.68249,2.5098 19.57668,0l3.76478,-2.00784l2.38431,5.52164c6.77654,15.18445 26.47871,18.69825 38.90238,7.02752l3.01176,-2.76078l3.89027,3.76478c2.25882,2.13333 5.64713,4.51772 7.52948,5.14517c4.89419,1.88235 13.92955,1.75686 18.82374,-0.37647c4.89419,-2.00784 11.79622,-9.53732 12.92563,-14.05504l0.87843,-3.13725l3.26282,3.13725c7.40399,7.15301 18.19629,8.90987 27.23165,4.39223c16.43943,-7.90595 18.32178,-31.3729 3.38831,-41.66324c-2.76078,-1.88235 -5.52164,-3.38831 -6.40007,-3.38831c-0.87843,0 -1.50588,-1.50588 -1.50588,-3.5138c-0.12549,-4.51772 -3.89027,-12.80014 -7.65497,-16.18845c-4.51772,-4.01576 -9.66289,-5.64713 -17.81982,-5.27066c-6.77654,0.25098 -7.52948,0.12549 -9.66289,-3.26282c-6.14909,-9.41183 -20.70609,-12.42367 -30.87094,-6.27458z" fill="#000000"/><path d="M606.37528,86.5829c3.26282,0.75294 11.41975,8.40791 12.42367,11.67073c0.37647,1.12941 1.88235,1.12941 6.40007,0c11.67073,-3.13725 22.96499,5.14517 24.47087,17.94531c0.62745,5.01968 1.12941,5.64713 6.77654,8.28242c13.92955,6.65105 15.05896,26.10224 2.13333,35.76513c-8.15693,6.0236 -23.59244,3.38831 -28.73753,-5.01968l-2.63529,-4.14125l-3.5138,3.76478c-12.29818,13.05112 -34.51015,7.78046 -37.14552,-8.90987l-0.75294,-4.89419l-3.89027,2.76078c-5.64713,4.01576 -16.43943,4.51772 -21.96099,1.00392c-9.28634,-5.77262 -11.29426,-19.82766 -3.89027,-28.23557c4.7687,-5.39615 9.78838,-7.40399 17.31786,-6.65105l6.0236,0.62745l0.12549,-5.39615c0,-6.27458 3.63929,-12.92563 8.65889,-16.31394c3.89027,-2.5098 10.03936,-4.14125 12.92563,-3.5138c1.00392,0.25098 3.38831,0.75294 5.27066,1.2549z" fill="#5f5959"/><path d="M565.84145,96.49676c2.00784,1.00392 5.14517,3.63929 7.02752,5.89811l3.5138,4.14125l-7.52948,0.75294c-4.7687,0.50196 -8.90987,1.75686 -11.41975,3.38831c-7.65497,5.52164 -11.41975,19.70217 -7.15301,27.73361c5.64713,10.91779 20.70609,15.68641 30.36898,9.41183c2.5098,-1.63137 2.76078,-1.50588 4.14125,2.63529c0.75294,2.25882 3.63929,6.14909 6.27458,8.65889c8.15693,7.40399 17.56884,8.65889 26.85518,3.89027c4.64321,-2.5098 5.14517,-1.88235 1.88235,2.38431c-8.03144,10.29034 -25.60028,9.53732 -33.00427,-1.38039l-2.88627,-4.26674l-3.26282,4.39223c-4.14125,5.27066 -12.80014,8.90987 -19.07472,7.90595c-9.66289,-1.63137 -18.19629,-10.54132 -18.19629,-19.20021c0,-3.13725 -0.12549,-3.26282 -2.13333,-1.50588c-3.76478,3.26282 -10.16485,6.0236 -13.80406,6.0236c-6.52556,-0.12549 -13.80406,-4.39223 -16.56492,-9.91387c-7.52948,-14.68249 3.01176,-30.24349 19.20021,-28.61204l6.40007,0.62745l0.12549,-5.52164c0.25098,-6.90203 4.89419,-14.30602 10.66681,-17.19237c5.27066,-2.63529 13.92955,-2.76078 18.57276,-0.25098z" fill="#5f5959"/><path d="M289.8855,190.23899c-5.89811,4.01576 -7.78046,7.90595 -7.02752,14.43151c0.37647,3.01176 0.25098,5.39615 -0.37647,5.39615c-0.62745,0 -2.88627,1.75686 -5.01968,3.89027c-3.26282,3.26282 -3.89027,4.7687 -3.89027,9.78838c0,8.78438 3.89027,12.67465 14.30602,14.18053c1.63137,0.25098 2.5098,1.63137 2.88627,4.14125c0.62745,5.77262 7.90595,11.92171 13.92955,11.92171c2.63529,0 5.89811,-0.87843 7.2785,-1.88235c1.2549,-1.00392 2.76078,-1.88235 3.38831,-1.88235c0.50196,0 7.2785,9.78838 15.18445,21.58452l14.30602,21.71001l-3.5138,4.01576c-10.03936,11.29426 -14.43151,24.59636 -13.42759,40.40826c0.75294,12.54916 3.63929,21.20805 10.41583,30.36898c4.14125,5.64713 12.42367,13.17661 18.57276,16.8159c1.2549,0.75294 2.5098,3.5138 2.88627,6.77654c0.75294,5.27066 0.62745,5.39615 -2.25882,4.51772c-7.90595,-2.38431 -17.44335,-8.15693 -24.47087,-15.05896c-9.91387,-9.78838 -17.81982,-21.96099 -26.98067,-42.29069c-11.04328,-24.0944 -16.56492,-33.00427 -27.98459,-44.42402c-19.57668,-19.45119 -44.04755,-29.36506 -72.78508,-29.36506c-38.90238,0 -72.65959,20.20413 -86.71471,51.82801c-8.28242,18.94923 -9.28634,47.56127 -2.25882,67.76548c5.14517,14.557 10.41583,23.09048 21.96099,35.38866c21.33354,22.71401 47.56127,35.38866 83.95385,40.53375l15.05896,2.25882l-6.65105,3.01176c-8.78438,4.14125 -24.59636,16.06296 -30.118,22.8395c-14.93347,18.32178 -21.58452,39.9063 -18.69825,60.73788c6.52556,46.43186 61.74188,78.43221 112.44048,65.13011c23.59244,-6.14909 47.31029,-23.96891 59.232,-44.29853c2.38431,-4.01576 3.5138,-5.01968 4.26674,-3.76478c0.50196,1.00392 5.52164,14.18053 11.16877,29.36506c11.54524,31.49839 13.3021,35.63964 14.93347,35.63964c1.88235,0 3.01176,-2.5098 13.80406,-31.62388c5.39615,-14.68249 10.66681,-28.61204 11.67073,-30.99643l1.75686,-4.39223l3.01176,5.01968c12.92563,21.33354 32.87878,36.89454 57.72612,44.54951c12.17269,3.89027 37.3965,4.14125 50.07115,0.62745c23.46695,-6.40007 45.17696,-22.08648 55.71828,-39.9063c8.78438,-15.05896 11.54524,-37.89846 6.65105,-54.21232c-7.02752,-23.59244 -23.34146,-42.79265 -45.55343,-53.71036c-7.78046,-3.76478 -8.28242,-4.14125 -4.7687,-4.51772c9.53732,-0.75294 27.73361,-4.26674 37.77297,-7.15301c22.96499,-6.65105 41.53767,-17.81982 57.34965,-34.38466c10.91779,-11.54524 18.19629,-23.21597 22.96499,-37.14552c6.65105,-19.45119 5.39615,-48.31429 -2.76078,-67.01246c-25.72577,-58.10259 -113.94636,-69.77332 -160.6292,-21.20805c-10.16485,10.54132 -15.30994,18.82374 -25.47479,41.03571c-13.17661,28.73753 -22.8395,42.29069 -36.76905,51.82801c-6.0236,4.01576 -15.56092,8.5334 -18.32178,8.5334c-1.63137,0 1.00392,-10.7923 3.01176,-11.92171c6.0236,-3.5138 14.80798,-11.41975 18.69825,-16.69041c10.03936,-13.67857 13.42759,-34.76113 8.15693,-50.44762c-2.76078,-8.5334 -7.02752,-15.93739 -12.17269,-21.45903l-3.01176,-3.38831l13.42759,-20.45511c7.2785,-11.29426 13.80406,-21.08256 14.30602,-21.58452c0.50196,-0.62745 2.63529,-0.25098 4.7687,0.87843c4.89419,2.5098 11.41975,2.5098 15.05896,0c3.26282,-2.25882 6.52556,-8.15693 6.52556,-11.79622c0,-2.00784 0.75294,-2.5098 4.39223,-2.5098c3.01176,0 5.64713,-1.12941 8.40791,-3.63929c3.63929,-3.26282 4.14125,-4.51772 4.14125,-9.91387c0,-4.89419 -0.62745,-7.02752 -3.01176,-9.53732c-1.63137,-1.75686 -4.01576,-3.5138 -5.14517,-3.89027c-1.75686,-0.50196 -2.00784,-1.88235 -1.50588,-6.90203c0.62745,-7.2785 -1.38039,-11.41975 -7.40399,-14.557c-4.7687,-2.38431 -10.66681,-1.63137 -15.43543,2.13333c-3.01176,2.25882 -3.38831,2.38431 -6.90203,0.50196c-6.40007,-3.26282 -12.29818,-2.5098 -17.19237,2.38431c-4.64321,4.64321 -5.64713,10.7923 -2.88627,16.06296c1.12941,2.25882 1.00392,3.01176 -0.75294,4.39223c-3.76478,2.63529 -6.90203,8.28242 -6.90203,12.29818c0,4.7687 4.01576,11.41975 7.52948,12.54916c1.50588,0.50196 2.5098,1.2549 2.25882,1.88235c-0.25098,0.62745 -6.27458,10.16485 -13.55308,21.33354c-10.91779,16.69041 -13.55308,20.07864 -15.68641,19.57668c-19.07472,-4.26674 -21.8355,-4.64321 -28.8631,-3.89027c-4.14125,0.50196 -10.29034,2.00784 -13.67857,3.26282c-3.5138,1.2549 -6.40007,2.25882 -6.40007,2.00784c-1.75686,-2.25882 -26.98067,-41.28669 -26.98067,-41.66324c0,-0.12549 2.00784,-2.38431 4.39223,-4.7687c3.76478,-3.76478 4.39223,-5.27066 4.39223,-10.29034c0,-5.01968 -0.62745,-6.52556 -4.14125,-10.03936c-4.01576,-4.01576 -4.01576,-4.26674 -2.25882,-8.03144c1.50588,-3.13725 1.50588,-4.7687 0.25098,-8.90987c-2.63529,-8.90987 -13.3021,-12.80014 -21.58452,-7.90595c-3.38831,2.00784 -3.63929,2.00784 -6.52556,-0.62745c-4.64321,-4.39223 -10.66681,-4.7687 -15.93739,-1.2549z" fill="#000000"/><path d="M303.06211,195.63514c1.75686,1.63137 3.13725,3.89027 3.13725,5.01968c0,1.00392 1.12941,1.88235 2.5098,1.88235c1.38039,0 2.5098,-0.62745 2.5098,-1.50588c0,-3.13725 4.26674,-6.0236 8.90987,-6.0236c3.63929,0 5.27066,0.75294 7.2785,3.26282c3.76478,4.7687 3.26282,8.90987 -1.2549,13.17661c-4.14125,3.89027 -3.89027,6.14909 0.50196,6.14909c7.02752,0 11.16877,7.2785 7.90595,13.67857c-2.00784,3.76478 -4.26674,5.14517 -8.40791,5.14517c-1.2549,0 -2.38431,0.37647 -2.38431,0.75294c0,0.37647 7.02752,11.54524 15.68641,24.72185l15.8119,23.96891l-2.88627,2.25882c-1.63137,1.2549 -3.38831,2.25882 -4.14125,2.25882c-1.12941,0 -23.09048,-32.87878 -29.99251,-44.675c-2.63529,-4.51772 -4.51772,-5.52164 -4.51772,-2.5098c0,2.76078 -5.01968,5.77262 -9.53732,5.77262c-2.88627,0 -4.89419,-1.00392 -6.77654,-3.38831c-2.63529,-3.38831 -2.63529,-4.64321 -0.50196,-11.54524c0.87843,-2.88627 0.75294,-3.01176 -3.38831,-2.00784c-2.38431,0.50196 -5.64713,1.00392 -7.40399,0.87843c-3.5138,0 -8.78438,-5.52164 -8.78438,-9.16085c0,-4.01576 6.65105,-9.91387 11.16877,-9.91387c4.51772,0 4.89419,-1.50588 1.38039,-5.27066c-1.38039,-1.50588 -2.5098,-4.39223 -2.5098,-6.27458c0,-4.51772 5.01968,-9.78838 9.41183,-9.78838c1.75686,0 4.64321,1.38039 6.27458,3.13725z" fill="#ffffff"/><path d="M474.73459,193.62722c5.64713,2.13333 7.15301,12.67465 2.25882,15.8119c-2.88627,1.75686 -1.2549,4.14125 3.5138,4.89419c8.15693,1.2549 11.67073,9.66289 6.65105,15.8119c-2.5098,3.01176 -7.15301,3.76478 -13.17661,2.00784l-3.5138,-1.00392l0.87843,6.27458c0.62745,5.39615 0.37647,6.65105 -1.88235,8.90987c-4.64321,4.64321 -12.92563,3.13725 -16.06296,-2.76078c-1.00392,-1.88235 -3.89027,1.88235 -17.19237,22.21197c-8.78438,13.55308 -16.43943,24.59636 -16.8159,24.59636c-0.50196,0 -2.25882,-1.12941 -3.89027,-2.38431l-3.13725,-2.38431l15.93739,-24.21989c15.68641,-23.96891 15.8119,-24.34538 12.42367,-24.72185c-4.64321,-0.62745 -9.03536,-5.01968 -9.03536,-9.03536c0,-4.64321 4.51772,-10.03936 8.28242,-10.03936c4.51772,0 5.14517,-3.38831 1.2549,-6.40007c-2.38431,-1.88235 -3.26282,-3.76478 -3.26282,-7.02752c0,-6.14909 3.01176,-9.16085 8.90987,-9.16085c3.89027,0 5.39615,0.75294 7.65497,3.76478c3.5138,4.7687 5.27066,4.7687 7.2785,0c2.38431,-5.89811 6.52556,-7.52948 12.92563,-5.14517z" fill="#ffffff"/><path d="M236.55161,274.56931c13.42759,4.64321 22.58852,9.66289 32.6278,17.94531c11.92171,9.78838 18.32178,19.20021 30.99643,45.55343c13.3021,27.48263 19.57668,37.27101 30.36898,47.43578c7.02752,6.52556 17.94531,13.05112 26.22773,15.8119c2.00784,0.62745 2.00784,1.00392 0.25098,5.39615c-1.12941,2.63529 -4.7687,9.41183 -8.15693,14.93347c-6.65105,10.7923 -12.54916,23.21597 -12.54916,26.22773c0,2.13333 -1.00392,2.38431 -18.19629,4.89419c-38.77689,5.89811 -68.26744,7.02752 -92.61274,3.89027c-46.55735,-6.14909 -82.94993,-28.61204 -99.26387,-61.23992c-7.65497,-15.18445 -9.91387,-24.72185 -10.03936,-41.03571c0,-15.56092 1.63137,-23.46695 8.03144,-37.02003c7.78046,-16.8159 19.3257,-28.23557 37.02003,-37.14552c16.56492,-8.15693 25.72577,-10.03936 47.05931,-9.53732c15.8119,0.37647 19.45119,0.87843 28.23557,3.89027z" fill="#008000"/><path d="M586.7986,272.81245c18.69825,4.7687 37.52199,16.18845 47.93774,29.11408c5.01968,6.27458 13.17661,22.96499 15.05896,31.12192c2.63529,10.66681 3.01176,25.22381 1.12941,35.89062c-5.77262,32.00035 -26.35322,57.34965 -59.232,73.28704c-35.1376,17.19237 -73.41253,20.20413 -137.41323,11.16877c-21.33354,-3.01176 -22.58852,-3.26282 -22.58852,-5.52164c0,-3.01176 -5.01968,-13.55308 -11.92171,-25.09832c-3.76478,-6.27458 -7.65497,-13.42759 -8.78438,-16.06296c-1.75686,-4.39223 -1.75686,-4.7687 0.25098,-5.39615c8.03144,-2.63529 19.07472,-9.28634 25.60028,-15.30994c11.16877,-10.29034 17.06688,-19.3257 30.99643,-47.93774c9.03536,-18.44727 14.557,-28.11008 19.45119,-34.00819c12.42367,-14.80798 30.24349,-25.97675 49.82017,-31.12192c13.17661,-3.5138 36.1416,-3.5138 49.69468,-0.12549z" fill="#008000"/><path d="M395.17297,284.23212c32.75329,7.52948 49.94566,43.67108 35.1376,73.66359c-15.56092,31.62388 -58.10259,38.77689 -82.69895,13.80406c-3.5138,-3.5138 -8.15693,-10.16485 -10.41583,-14.68249c-3.76478,-7.78046 -4.01576,-9.03536 -4.01576,-22.08648c0,-13.17661 0.25098,-14.30602 4.14125,-22.33746c10.7923,-21.8355 34.88662,-33.75721 57.85161,-28.36106z" fill="#ffffff"/><path d="M376.60021,391.02547c8.15693,1.38039 18.44727,0.50196 25.47479,-2.25882c2.00784,-0.75294 2.25882,-0.50196 1.75686,1.63137c-1.2549,4.51772 1.2549,15.30994 5.27066,23.09048l3.89027,7.78046l-5.52164,5.27066c-13.17661,12.54916 -34.13368,12.42367 -47.05931,-0.50196c-4.39223,-4.39223 -4.89419,-7.02752 -2.38431,-10.7923c3.38831,-5.01968 6.0236,-13.67857 6.0236,-20.32962c0.12549,-5.64713 0.50196,-6.65105 2.13333,-6.0236c1.00392,0.37647 5.77262,1.38039 10.41583,2.13333z" fill="#ffb3b3"/><path d="M366.93732,436.95537c5.52164,2.88627 7.90595,3.38831 17.06688,3.38831c9.16085,0 11.54524,-0.50196 16.94139,-3.38831c3.5138,-1.75686 8.15693,-5.14517 10.41583,-7.40399c2.5098,-2.63529 4.51772,-3.63929 5.14517,-2.88627c2.13333,2.00784 8.5334,15.93739 10.91779,23.46695l2.25882,7.15301l-4.7687,4.89419c-16.56492,16.94139 -49.56919,20.07864 -72.91057,7.02752c-4.14125,-2.25882 -8.90987,-5.64713 -10.54132,-7.40399c-2.88627,-3.13725 -3.01176,-3.63929 -1.63137,-9.66289c1.38039,-5.89811 8.90987,-22.33746 11.79622,-25.85126c0.87843,-1.12941 2.25882,-0.37647 5.01968,2.88627c2.13333,2.38431 6.77654,5.89811 10.29034,7.78046z" fill="#ffb3b3"/><path d="M494.43676,462.30467c24.34538,1.63137 29.86702,3.01176 44.54951,10.54132c12.67465,6.40007 28.36106,21.45903 34.25917,33.00427c5.01968,9.53732 9.03536,24.84734 9.03536,34.13368c-0.12549,39.9063 -38.6514,73.03606 -84.95777,72.91057c-29.99251,-0.12549 -58.73004,-15.30994 -75.67143,-40.15728c-9.53732,-14.18053 -9.53732,-11.54524 -0.37647,-36.39258c12.0472,-32.87878 14.557,-44.54951 13.92955,-64.62815l-0.37647,-16.43943l18.82374,2.88627c10.29034,1.50588 28.73753,3.38831 40.78473,4.14125z" fill="#008000"/><path d="M332.67815,471.71658c-0.50196,21.33354 1.75686,31.24741 17.81982,74.91849l4.39223,12.0472l-4.51772,7.90595c-6.0236,10.41583 -23.71793,28.11008 -34.13368,34.13368c-35.38866,20.45511 -81.94601,14.557 -110.30707,-14.05504c-17.69433,-17.69433 -23.84342,-39.65532 -17.69433,-63.37325c4.7687,-18.94923 16.56492,-35.01211 34.00819,-46.68284c15.05896,-10.03936 21.33354,-11.92171 46.55735,-13.80406c20.5806,-1.50588 52.70644,-5.01968 55.59279,-6.14909c0.75294,-0.25098 3.01176,-0.50196 5.01968,-0.50196l3.76478,-0.12549z" fill="#008000"/><path d="M352.6313,474.85383c7.65497,3.89027 23.09048,7.52948 31.62388,7.52948c13.42759,-0.12549 30.87094,-6.0236 40.40826,-13.67857c4.51772,-3.5138 5.14517,-3.76478 6.14909,-1.88235c2.76078,4.89419 -2.13333,37.64748 -6.27458,42.1652c-3.13725,3.5138 -11.67073,8.03144 -20.45511,11.04328c-9.91387,3.38831 -26.10224,3.89027 -36.64356,1.00392c-7.40399,-2.00784 -22.08648,-9.53732 -24.59636,-12.67465c-3.38831,-4.01576 -7.52948,-31.12192 -6.0236,-39.15336l0.87843,-4.51772l3.89027,3.26282c2.13333,1.75686 7.02752,4.89419 11.04328,6.90203z" fill="#ffb3b3"/><path d="M366.93732,525.80341c8.5334,2.25882 26.10224,2.25882 35.01211,-0.12549c4.01576,-1.00392 10.03936,-3.26282 13.55308,-5.14517c3.5138,-1.75686 6.65105,-3.01176 6.90203,-2.76078c0.62745,0.75294 -14.43151,41.41218 -16.18845,43.54559c-4.89419,5.89811 -21.96099,8.65889 -33.63172,5.27066c-9.78838,-2.76078 -11.54524,-5.14517 -19.07472,-25.85126c-10.03936,-27.60812 -10.03936,-25.22381 -0.87843,-20.5806c4.26674,2.13333 10.66681,4.7687 14.30602,5.64713z" fill="#ffb3b3"/><path d="M370.20014,570.85488c6.77654,2.38431 22.58852,2.38431 28.23557,0.12549c3.26282,-1.38039 4.39223,-1.50588 4.39223,-0.37647c0,2.13333 -18.0708,51.07507 -18.82374,51.07507c-0.37647,0 -3.63929,-8.28242 -7.40399,-18.57276c-3.76478,-10.16485 -8.03144,-21.96099 -9.66289,-26.35322c-1.63137,-4.26674 -2.76078,-7.78046 -2.5098,-7.78046c0.25098,0 2.88627,0.87843 5.77262,1.88235z" fill="#ffffff"/><path d="M204.17479,278.33401c-15.93739,5.89811 -23.21597,22.33746 -16.8159,38.27493c8.90987,22.08648 47.05931,55.09083 83.20091,71.78116c26.72969,12.42367 43.16912,15.56092 50.19664,9.53732c2.88627,-2.5098 3.13725,-3.26282 1.88235,-5.64713c-0.75294,-1.50588 -3.76478,-4.39223 -6.77654,-6.40007c-11.67073,-8.03144 -16.06296,-14.30602 -31.24741,-43.16912c-13.3021,-25.3493 -19.70217,-34.76113 -32.00035,-46.93382c-15.56092,-15.43543 -35.01211,-22.46303 -48.43978,-17.44335z" fill="#000000"/><path d="M232.91232,285.98906c17.19237,8.40791 32.50231,26.98067 48.1888,58.35357c4.26674,8.65889 9.78838,18.82374 12.17269,22.58852c5.01968,8.03144 15.43543,19.07472 21.45903,22.71401c11.67073,7.40399 -3.01176,10.03936 -21.45903,4.01576c-15.18445,-5.14517 -41.03571,-18.57276 -55.96926,-29.23957c-19.20021,-13.67857 -38.77689,-33.50623 -44.17304,-44.42402c-8.78438,-18.19629 -3.63929,-32.87878 13.67857,-38.52591c6.27458,-2.00784 16.56492,-0.25098 26.10224,4.51772z" fill="#ffb3b3"/><path d="M154.98207,290.88317c-2.13333,0.87843 -5.52164,3.5138 -7.40399,5.89811c-3.13725,3.76478 -3.5138,4.89419 -3.01176,11.54524c0.50196,6.77654 1.00392,7.90595 5.14517,11.67073c4.39223,4.14125 7.2785,4.89419 14.68249,4.26674c7.2785,-0.62745 15.05896,-9.28634 15.05896,-16.8159c0,-6.14909 -4.7687,-13.3021 -10.41583,-15.93739c-6.14909,-2.76078 -8.90987,-2.88627 -14.05504,-0.62745z" fill="#000000"/><path d="M167.78221,295.02442c8.15693,3.76478 10.16485,15.43543 3.63929,21.58452c-9.16085,8.65889 -23.34146,3.26282 -23.34146,-8.90987c0,-6.27458 1.63137,-9.28634 6.65105,-12.29818c4.89419,-3.01176 7.40399,-3.13725 13.05112,-0.37647z" fill="#ffffff"/><path d="M140.67605,331.29151c-2.25882,1.2549 -5.64713,4.39223 -7.52948,7.2785c-2.76078,4.14125 -3.26282,6.27458 -3.26282,13.17661c0.12549,14.93347 8.78438,27.10616 24.72185,35.01211c15.68641,7.65497 41.41218,11.29426 64.0007,9.03536c14.80798,-1.50588 19.3257,-2.88627 20.5806,-6.52556c1.00392,-3.26282 -2.63529,-8.28242 -6.77654,-9.28634c-10.29034,-2.25882 -13.17661,-3.5138 -19.3257,-7.52948c-3.63929,-2.38431 -13.42759,-11.29426 -21.71001,-19.82766c-17.69433,-17.94531 -24.47087,-22.08648 -38.02395,-22.96499c-6.27458,-0.37647 -9.53732,0.12549 -12.67465,1.63137z" fill="#000000"/><path d="M168.15868,337.56609c4.01576,2.25882 13.17661,10.16485 23.71793,20.70609c17.44335,17.56884 24.47087,22.46303 34.63564,24.34538c5.77262,1.00392 9.41183,2.76078 9.41183,4.39223c0,4.26674 -24.21989,7.15301 -43.67108,5.14517c-16.31394,-1.63137 -25.97675,-4.01576 -36.26709,-9.03536c-13.05112,-6.27458 -22.96499,-20.07864 -22.96499,-31.74937c0.12549,-6.27458 4.14125,-13.80406 8.90987,-16.31394c6.27458,-3.13725 17.81982,-2.13333 26.22773,2.5098z" fill="#ffb3b3"/><path d="M166.27633,401.31581c-21.96099,8.15693 -7.90595,32.00035 19.57668,33.25525c11.29426,0.50196 17.69433,-1.88235 21.33354,-7.90595c5.39615,-8.90987 0.87843,-19.3257 -10.54132,-23.96891c-7.2785,-3.01176 -23.96891,-3.76478 -30.36898,-1.38039z" fill="#000000"/><path d="M192.0021,405.33149c8.78438,2.63529 13.80406,7.52948 13.80406,13.67857c0,8.65889 -8.15693,12.92563 -22.46303,11.54524c-14.557,-1.2549 -25.60028,-10.29034 -23.46695,-19.07472c1.88235,-7.15301 18.0708,-10.29034 32.12584,-6.14909z" fill="#ffb3b3"/><path d="M236.55161,404.95502c-11.29426,4.51772 -18.19629,12.67465 -18.19629,21.20805c0,5.27066 4.14125,11.79622 9.91387,15.68641c7.40399,5.01968 16.06296,6.90203 33.38074,7.52948c13.42759,0.50196 18.44727,0.12549 28.11008,-2.00784c16.06296,-3.5138 31.12192,-11.04328 40.40826,-19.95315c7.40399,-7.40399 9.53732,-11.67073 8.15693,-17.19237c-1.00392,-4.01576 -4.64321,-4.14125 -12.80014,-0.37647c-9.16085,4.14125 -21.96099,3.63929 -42.54167,-1.50588c-18.32178,-4.64321 -39.52983,-6.27458 -46.43186,-3.38831z" fill="#000000"/><path d="M280.34818,411.60607c23.84342,5.77262 35.63964,6.27458 46.18088,1.88235c4.01576,-1.75686 7.65497,-2.76078 8.03144,-2.25882c1.88235,1.88235 -1.38039,8.15693 -7.02752,13.67857c-16.69041,16.06296 -52.95742,24.84734 -80.94209,19.70217c-18.57276,-3.38831 -28.23557,-14.05504 -22.71401,-24.72185c7.15301,-13.80406 23.59244,-16.18845 56.47122,-8.28242z" fill="#ffb3b3"/><path d="M544.00595,277.70656c-11.16877,3.01176 -21.33354,9.53732 -32.37682,20.5806c-9.78838,10.03936 -17.44335,21.71001 -29.23957,44.29853c-14.68249,28.23557 -18.82374,34.00819 -31.3729,43.29461c-7.78046,5.77262 -9.03536,8.90987 -4.64321,12.42367c4.7687,3.76478 14.557,3.26282 28.48655,-1.2549c49.4437,-16.43943 102.6521,-60.61239 106.91884,-88.59706c1.63137,-11.16877 -4.51772,-22.96499 -14.93347,-28.23557c-5.52164,-2.88627 -16.8159,-4.14125 -22.8395,-2.5098z" fill="#000000"/><path d="M565.46498,283.73016c2.63529,1.38039 6.65105,4.89419 8.65889,7.78046c5.39615,7.65497 5.27066,17.69433 -0.37647,28.73753c-7.02752,13.67857 -28.36106,33.75721 -52.95742,50.07115c-20.32962,13.42759 -51.70252,26.72969 -63.12227,26.72969c-10.7923,0 -12.54916,-2.76078 -4.89419,-7.78046c11.67073,-7.90595 19.20021,-18.19629 33.12976,-45.05147c11.67073,-22.8395 16.94139,-30.74545 27.73361,-42.1652c18.32178,-19.3257 37.14552,-25.97675 51.82801,-18.32178z" fill="#ffb3b3"/><path d="M601.98305,331.66798c-8.5334,3.38831 -16.56492,9.91387 -29.61604,23.96891c-13.55308,14.557 -22.08648,20.5806 -33.00427,23.21597c-12.54916,2.88627 -16.18845,9.78838 -7.65497,14.30602c5.14517,2.63529 28.98859,4.14125 43.16912,2.63529c24.97283,-2.5098 40.78473,-8.40791 51.45154,-19.07472c13.67857,-13.55308 14.68249,-34.88662 2.25882,-43.79657c-5.77262,-4.01576 -18.0708,-4.64321 -26.6042,-1.2549z" fill="#000000"/><path d="M625.57549,335.55817c11.54524,7.15301 10.29034,26.85518 -2.76078,39.52983c-13.17661,12.80014 -44.29853,20.07864 -73.53802,17.06688c-14.557,-1.50588 -18.82374,-2.88627 -17.69433,-5.77262c0.75294,-1.63137 7.65497,-4.39223 11.54524,-4.39223c5.39615,0 16.06296,-7.90595 32.87878,-24.47087c21.58452,-21.20805 26.35322,-24.0944 39.40434,-24.34538c4.01576,-0.12549 7.40399,0.75294 10.16485,2.38431z" fill="#ffb3b3"/><path d="M575.62983,400.93934c-19.57668,4.64321 -25.22381,23.34146 -9.41183,31.3729c11.67073,6.0236 35.01211,0.37647 42.03971,-10.03936c10.16485,-14.93347 -8.40791,-27.10616 -32.6278,-21.33354z" fill="#000000"/><path d="M601.10462,406.08443c5.01968,2.5098 5.64713,3.38831 6.0236,7.52948c0.75294,9.28634 -12.42367,17.31786 -28.36106,17.31786c-11.54524,0 -17.81982,-4.64321 -17.81982,-13.17661c0,-11.16877 26.10224,-18.69825 40.15728,-11.67073z" fill="#ffb3b3"/><path d="M502.59377,404.20208c-1.38039,0.25098 -9.78838,2.25882 -18.82374,4.39223c-20.45511,4.89419 -33.50623,5.27066 -42.41618,1.2549c-8.28242,-3.76478 -11.92171,-3.63929 -12.92563,0.37647c-1.38039,5.39615 0.62745,9.53732 8.03144,16.94139c5.14517,5.01968 10.41583,8.65889 17.81982,12.29818c16.94139,8.03144 25.09832,9.66289 48.31429,9.66289c17.94531,-0.12549 20.83158,-0.37647 27.35714,-3.01176c15.93739,-6.27458 21.96099,-16.8159 16.43943,-28.36106c-2.25882,-4.89419 -9.03536,-10.41583 -15.43543,-12.67465c-4.26674,-1.50588 -22.8395,-2.13333 -28.36106,-0.87843z" fill="#000000"/><path d="M528.94699,408.46882c3.01176,0.87843 7.15301,3.63929 10.29034,6.77654c4.64321,4.64321 5.39615,6.0236 5.39615,10.66681c0,4.64321 -0.75294,6.0236 -4.7687,10.03936c-7.78046,7.2785 -16.18845,9.41183 -37.89846,9.41183c-18.82374,-0.12549 -25.3493,-1.2549 -40.28277,-6.90203c-14.80798,-5.39615 -29.99251,-18.32178 -29.99251,-25.3493c0,-3.01176 2.76078,-2.88627 9.16085,0.50196c8.28242,4.26674 24.34538,3.63929 46.05539,-2.00784c18.19629,-4.64321 32.50231,-5.77262 42.03971,-3.13725z" fill="#ffb3b3"/><path d="M354.76463,324.26399c-4.26674,3.38831 -4.64321,10.03936 -0.87843,13.80406c3.5138,3.5138 10.16485,3.26282 13.55308,-0.37647c7.90595,-8.40791 -3.63929,-20.5806 -12.67465,-13.42759z" fill="#000000"/><path d="M358.90588,328.78163c0,1.00392 -1.12941,1.75686 -2.5098,1.75686c-2.76078,0 -3.5138,-3.26282 -0.87843,-4.14125c2.00784,-0.75294 3.38831,0.12549 3.38831,2.38431z" fill="#ffffff"/><path d="M400.94559,324.89144c-3.76478,3.76478 -4.01576,8.03144 -0.50196,12.42367c3.26282,4.14125 9.91387,4.51772 13.67857,0.75294c3.76478,-3.76478 3.38831,-10.41583 -0.75294,-13.67857c-4.39223,-3.5138 -8.65889,-3.26282 -12.42367,0.50196z" fill="#000000"/><path d="M405.33774,328.78163c0,1.12941 -0.87843,1.75686 -2.13333,1.50588c-3.13725,-0.62745 -3.5138,-3.5138 -0.50196,-3.5138c1.50588,0 2.63529,0.75294 2.63529,2.00784z" fill="#ffffff"/><path d="M363.92556,359.40159c0,2.38431 10.41583,8.65889 15.56092,9.41183c6.77654,1.00392 14.557,-1.00392 19.57668,-5.14517c5.39615,-4.64321 4.64321,-5.89811 -1.50588,-2.76078c-8.15693,4.26674 -18.0708,4.51772 -26.6042,0.62745c-3.89027,-1.75686 -7.02752,-2.76078 -7.02752,-2.13333z" fill="#000000"/><path d="M484.89944,469.83415c-7.15301,1.50588 -14.30602,5.14517 -16.43943,8.28242c-1.50588,2.38431 -1.50588,3.01176 0.25098,4.64321c1.12941,1.12941 4.01576,2.38431 6.65105,2.76078c2.5098,0.50196 5.27066,1.00392 6.14909,1.2549c0.75294,0.25098 4.39223,4.7687 7.90595,10.03936c4.39223,6.52556 8.40791,10.7923 12.92563,13.80406c21.45903,14.05504 48.56527,8.5334 48.56527,-9.91387c0,-15.8119 -23.09048,-30.49447 -49.4437,-31.49839c-6.27458,-0.25098 -13.67857,0 -16.56492,0.62745z" fill="#000000"/><path d="M520.03704,475.98324c16.31394,5.77262 25.72577,13.92955 26.72969,23.34146c0.62745,5.14517 0.25098,6.27458 -2.88627,9.53732c-12.0472,12.54916 -38.90238,5.14517 -51.45154,-14.30602c-5.39615,-8.40791 -9.66289,-12.17269 -13.80406,-12.17269c-3.63929,0 -6.77654,-1.2549 -6.77654,-2.63529c0,-1.63137 6.90203,-4.89419 12.92563,-6.14909c8.28242,-1.75686 26.85518,-0.50196 35.26317,2.38431z" fill="#ffb3b3"/><path d="M445.99706,475.60677c-2.76078,4.14125 -1.12941,9.28634 3.76478,11.67073c3.13725,1.50588 3.89027,1.38039 6.90203,-0.75294c4.01576,-3.01176 4.7687,-7.02752 2.13333,-11.16877c-2.88627,-4.39223 -9.91387,-4.26674 -12.80014,0.25098z" fill="#000000"/><path d="M457.04026,477.99116c1.00392,2.38431 1.00392,3.5138 -0.25098,5.01968c-4.01576,4.7687 -11.79622,-0.12549 -8.78438,-5.64713c2.00784,-3.63929 7.2785,-3.26282 9.03536,0.62745z" fill="#ffffff"/><path d="M444.61659,496.8149c-5.39615,3.76478 -12.92563,28.23557 -12.92563,41.91422c0,11.16877 2.63529,17.94531 8.65889,23.09048c10.66681,8.90987 26.6042,4.7687 30.49447,-8.03144c2.00784,-6.77654 0.50196,-10.54132 -7.15301,-18.57276c-3.76478,-3.89027 -7.40399,-8.65889 -8.15693,-10.66681c-0.75294,-2.00784 -1.12941,-8.65889 -1.00392,-14.68249c0.12549,-6.14909 -0.25098,-11.67073 -0.87843,-12.29818c-2.5098,-2.25882 -6.40007,-2.63529 -9.03536,-0.75294z" fill="#008000"/><path d="M450.64019,511.62288c-0.12549,5.64713 0.25098,11.92171 1.00392,13.67857c0.75294,1.88235 4.39223,6.77654 8.15693,10.91779c7.78046,8.5334 9.28634,12.29818 7.02752,17.81982c-2.38431,5.52164 -7.02752,8.65889 -13.05112,8.65889c-6.77654,0 -12.54916,-3.63929 -15.93739,-10.16485c-2.25882,-4.64321 -2.63529,-6.77654 -2.13333,-16.06296c0.75294,-12.0472 5.64713,-28.98859 9.91387,-34.51015c4.01576,-5.14517 5.39615,-2.5098 5.01968,9.66289z" fill="#008000"/><path d="M463.94229,500.83058c-3.13725,3.01176 2.00784,14.30602 15.56092,34.25917c17.31786,25.47479 36.64356,38.90238 55.96926,38.90238c12.92563,0 21.58452,-6.65105 22.71401,-17.31786c0.75294,-7.78046 -1.12941,-13.55308 -6.14909,-18.82374c-5.89811,-6.27458 -12.67465,-9.03536 -32.37682,-13.05112c-22.08648,-4.39223 -31.12192,-8.28242 -41.03571,-17.81982c-7.02752,-6.65105 -12.17269,-8.78438 -14.68249,-6.14909z" fill="#000000"/><path d="M476.868,510.49347c10.66681,10.16485 20.45511,14.30602 45.80441,18.94923c22.58852,4.14125 32.00035,11.41975 32.00035,24.97283c0,10.7923 -8.65889,16.69041 -23.09048,15.56092c-19.3257,-1.63137 -36.64356,-16.69041 -57.09867,-49.56919c-10.7923,-17.56884 -9.91387,-21.58452 2.38431,-9.91387z" fill="#008000"/><path d="M560.31989,518.14844c-3.76478,3.63929 -4.01576,7.2785 -0.62745,10.66681c5.01968,5.01968 13.80406,1.38039 13.80406,-5.64713c0,-3.76478 -4.01576,-8.15693 -7.52948,-8.15693c-1.50588,0 -4.01576,1.38039 -5.64713,3.13725z" fill="#000000"/><path d="M570.73564,522.79165c0.50196,2.5098 -3.26282,6.27458 -5.77262,5.77262c-1.00392,-0.25098 -2.63529,-1.63137 -3.63929,-3.13725c-1.63137,-2.38431 -1.50588,-3.01176 0.87843,-5.39615c2.38431,-2.38431 3.01176,-2.5098 5.39615,-0.87843c1.50588,1.00392 2.88627,2.63529 3.13725,3.63929z" fill="#ffffff"/><path d="M480.25623,570.22743c-4.39223,5.14517 -6.27458,11.67073 -5.64713,18.94923c1.12941,10.7923 8.65889,16.18845 22.71401,16.18845c19.20021,0 24.0944,-13.92955 10.16485,-28.8631c-6.65105,-7.15301 -12.17269,-10.03936 -19.07472,-10.03936c-4.01576,0 -5.64713,0.75294 -8.15693,3.76478z" fill="#000000"/><path d="M495.06421,571.35684c5.77262,2.63529 15.18445,12.29818 16.31394,16.8159c1.38039,5.01968 0.25098,8.65889 -3.38831,11.29426c-7.15301,5.39615 -26.47871,2.00784 -29.11408,-4.89419c-1.38039,-3.5138 -0.75294,-13.05112 1.00392,-17.31786c1.63137,-4.01576 6.27458,-8.28242 8.90987,-8.28242c0.62745,0 3.5138,1.12941 6.27458,2.38431z" fill="#008000"/><path d="M449.51078,577.25495c-5.77262,4.01576 -2.25882,14.30602 4.89419,14.30602c3.5138,0 7.78046,-4.26674 7.78046,-7.90595c0,-7.02752 -6.77654,-10.54132 -12.67465,-6.40007z" fill="#000000"/><path d="M457.79328,579.2628c4.26674,4.26674 -0.75294,11.29426 -6.0236,8.5334c-3.13725,-1.63137 -3.26282,-6.90203 -0.25098,-8.65889c2.88627,-1.75686 4.51772,-1.63137 6.27458,0.12549z" fill="#ffffff"/><path d="M533.46463,581.01973c-1.50588,1.88235 -2.63529,4.14125 -2.63529,5.14517c0,2.63529 5.77262,7.90595 8.78438,7.90595c6.65105,0 10.16485,-10.54132 4.7687,-14.30602c-4.14125,-2.88627 -8.03144,-2.38431 -10.91779,1.2549z" fill="#000000"/><path d="M543.12752,581.77267c4.26674,4.26674 -0.75294,11.29426 -6.0236,8.5334c-4.39223,-2.38431 -2.5098,-10.03936 2.5098,-10.03936c1.12941,0 2.63529,0.62745 3.5138,1.50588z" fill="#ffffff"/><path d="M253.99496,470.33611c-8.40791,2.00784 -21.71001,8.15693 -27.48263,12.92563c-12.42367,10.41583 -12.54916,24.84734 -0.12549,32.00035c4.26674,2.38431 6.90203,2.88627 15.18445,2.88627c16.43943,-0.12549 27.98459,-6.90203 37.77297,-22.21197c4.01576,-6.14909 6.40007,-8.65889 8.90987,-9.28634c7.78046,-1.63137 11.92171,-3.38831 12.54916,-5.14517c1.00392,-2.63529 -4.26674,-7.52948 -10.7923,-9.78838c-7.90595,-2.88627 -26.47871,-3.5138 -36.01611,-1.38039z" fill="#000000"/><path d="M290.38746,475.98324c3.13725,1.38039 5.77262,3.01176 5.77262,3.63929c0,1.50588 -3.13725,2.76078 -6.77654,2.76078c-4.01576,0 -9.16085,4.26674 -12.17269,10.16485c-10.16485,20.07864 -41.78873,29.61604 -53.08291,16.06296c-9.53732,-11.41975 3.5138,-27.10616 28.23557,-33.75721c11.92171,-3.26282 29.36506,-2.76078 38.02395,1.12941z" fill="#ffffff"/><path d="M309.2112,475.48128c-2.63529,4.14125 -1.2549,9.28634 3.13725,11.41975c3.89027,2.00784 7.78046,0.50196 10.16485,-3.76478c1.63137,-2.88627 1.63137,-3.63929 0,-6.77654c-2.88627,-5.01968 -10.29034,-5.52164 -13.3021,-0.87843z" fill="#000000"/><path d="M320.25448,477.99116c1.00392,2.38431 1.00392,3.5138 -0.25098,5.01968c-2.25882,2.63529 -7.15301,2.38431 -8.78438,-0.50196c-1.63137,-3.13725 -1.63137,-3.38831 0.75294,-5.64713c2.88627,-3.01176 6.65105,-2.5098 8.28242,1.12941z" fill="#ffffff"/><path d="M315.61127,497.44235c-1.75686,2.00784 -2.13333,4.39223 -2.00784,12.92563c0.25098,13.05112 -0.87843,15.93739 -9.28634,24.84734c-8.15693,8.5334 -9.66289,13.80406 -6.0236,20.83158c6.27458,12.17269 22.08648,14.18053 31.24741,3.89027c5.39615,-5.89811 7.15301,-11.16877 7.15301,-21.08256c-0.12549,-14.80798 -8.28242,-39.52983 -14.05504,-42.66716c-3.38831,-1.75686 -4.39223,-1.63137 -7.02752,1.2549z" fill="#000000"/><path d="M324.7722,505.97575c8.40791,19.57668 10.54132,36.89454 5.77262,46.05539c-7.15301,13.80406 -24.97283,14.43151 -29.36506,1.12941c-2.00784,-5.77262 0,-10.54132 6.52556,-16.06296c7.78046,-6.65105 9.78838,-11.92171 9.78838,-25.22381c0,-6.40007 0.37647,-11.79622 0.75294,-12.29818c1.63137,-1.63137 4.14125,0.87843 6.52556,6.40007z" fill="#ffb3b3"/><path d="M290.13648,506.47771c-3.89027,3.76478 -8.5334,7.65497 -10.29034,8.65889c-6.0236,3.76478 -17.19237,7.2785 -32.00035,9.91387c-17.94531,3.13725 -25.60028,6.27458 -31.3729,12.80014c-5.39615,5.89811 -6.90203,9.53732 -6.90203,16.56492c0,6.0236 3.38831,12.0472 9.16085,16.31394c3.01176,2.25882 5.39615,2.63529 14.557,2.63529c10.16485,0 11.67073,-0.37647 20.70609,-4.7687c15.8119,-7.90595 34.51015,-29.11408 47.81225,-54.21232c4.26674,-8.15693 3.89027,-13.67857 -1.00392,-14.18053c-2.63529,-0.37647 -4.89419,1.00392 -10.66681,6.27458z" fill="#008000"/><path d="M300.55231,507.10516c-0.87843,3.76478 -10.41583,19.82766 -17.56884,29.86702c-18.44727,25.60028 -43.16912,38.52591 -60.23592,31.49839c-9.78838,-4.14125 -12.17269,-17.19237 -5.01968,-26.6042c4.7687,-6.27458 13.17661,-9.78838 33.25525,-13.67857c21.20805,-4.14125 31.24741,-8.5334 40.28277,-17.69433c7.52948,-7.65497 10.66681,-8.78438 9.28634,-3.38831z" fill="#ffb3b3"/><path d="M198.90413,516.51707c-3.26282,1.88235 -4.39223,3.5138 -4.39223,6.90203c0,3.76478 4.26674,7.90595 8.15693,7.90595c7.15301,0 10.66681,-8.90987 5.39615,-13.80406c-3.01176,-2.76078 -5.52164,-3.13725 -9.16085,-1.00392z" fill="#000000"/><path d="M206.30812,519.9053c2.5098,2.76078 1.75686,7.02752 -1.38039,8.15693c-5.89811,2.25882 -10.16485,-4.39223 -5.39615,-8.28242c3.5138,-2.88627 4.14125,-2.76078 6.77654,0.12549z" fill="#ffffff"/><path d="M270.05784,568.59606c-5.77262,2.76078 -15.05896,13.42759 -16.8159,19.3257c-1.88235,6.52556 -0.37647,10.91779 5.14517,14.557c9.03536,6.14909 28.98859,2.5098 33.38074,-6.0236c2.76078,-5.27066 2.25882,-14.557 -1.12941,-21.96099c-1.63137,-3.5138 -3.89027,-6.77654 -5.14517,-7.15301c-3.76478,-1.50588 -11.16877,-0.87843 -15.43543,1.2549z" fill="#000000"/><path d="M283.35994,570.98037c4.14125,2.88627 6.52556,8.40791 6.65105,15.30994c0.25098,7.40399 -1.50588,10.91779 -6.65105,13.55308c-5.64713,2.88627 -18.32178,3.01176 -22.71401,0.12549c-2.00784,-1.2549 -3.89027,-3.13725 -4.26674,-4.14125c-2.38431,-6.27458 6.90203,-20.07864 16.56492,-24.47087c6.14909,-2.88627 6.90203,-2.88627 10.41583,-0.37647z" fill="#ffffff"/><path d="M308.96022,577.25495c-5.77262,4.01576 -2.25882,14.30602 4.89419,14.30602c3.63929,0 7.78046,-4.26674 7.78046,-8.15693c0,-3.89027 -4.14125,-8.15693 -7.78046,-8.15693c-1.12941,0 -3.38831,0.87843 -4.89419,2.00784z" fill="#000000"/><path d="M317.24272,579.2628c4.26674,4.26674 -0.75294,11.29426 -6.0236,8.5334c-3.13725,-1.63137 -3.26282,-6.90203 -0.25098,-8.65889c2.88627,-1.75686 4.51772,-1.63137 6.27458,0.12549z" fill="#ffffff"/><path d="M223.375,580.26679c-1.38039,1.38039 -2.5098,3.89027 -2.5098,5.64713c0,3.76478 4.01576,8.15693 7.52948,8.15693c3.26282,0 8.78438,-5.39615 8.78438,-8.5334c0,-3.38831 -4.64321,-7.78046 -8.15693,-7.78046c-1.75686,0 -4.26674,1.12941 -5.64713,2.5098z" fill="#000000"/><path d="M233.03781,583.65502c1.63137,2.38431 1.50588,3.01176 -0.75294,5.27066c-3.13725,3.13725 -4.39223,3.26282 -6.90203,0.62745c-2.5098,-2.5098 -2.5098,-4.7687 0,-7.40399c2.63529,-2.5098 5.39615,-2.00784 7.65497,1.50588z" fill="#ffffff"/><path d="M128.62885,645.3969c-4.89419,2.88627 -10.41583,9.41183 -11.41975,13.42759c-1.00392,3.76478 -1.63137,3.76478 -5.52164,-0.37647c-6.52556,-6.77654 -16.56492,-8.40791 -25.85126,-4.26674c-6.40007,2.88627 -11.16877,8.90987 -13.05112,16.69041l-1.50588,6.0236h-5.64713c-10.7923,0 -18.69825,6.40007 -21.58452,17.19237c-2.63529,9.53732 2.38431,20.32962 11.54524,25.09832c4.89419,2.5098 14.43151,2.5098 19.3257,-0.12549l3.89027,-2.00784l2.76078,5.64713c7.02752,14.557 25.22381,18.44727 37.14552,7.90595l4.39223,-3.89027l4.01576,3.76478c5.64713,5.39615 8.65889,6.65105 15.8119,6.65105c10.7923,0 18.32178,-4.64321 22.71401,-14.05504l2.13333,-4.7687l3.01176,3.26282c16.06296,17.19237 45.55343,-0.25098 39.9063,-23.71793c-1.63137,-6.90203 -8.78438,-15.30994 -14.30602,-16.69041c-2.38431,-0.62745 -3.13725,-1.63137 -3.13725,-4.14125c-0.12549,-5.01968 -4.14125,-13.05112 -8.65889,-16.8159c-4.51772,-3.76478 -10.54132,-5.27066 -18.19629,-4.39223c-4.89419,0.62745 -5.52164,0.37647 -8.03144,-3.5138c-5.64713,-8.65889 -21.20805,-12.17269 -29.74153,-6.90203z" fill="#000000"/><path d="M148.83298,648.91062c2.13333,0.87843 5.14517,3.89027 6.90203,6.65105c1.88235,3.13725 3.63929,4.7687 4.89419,4.26674c10.41583,-3.76478 21.33354,0.25098 26.10224,9.53732c1.50588,3.01176 2.76078,7.40399 2.76078,9.53732c0,3.38831 0.50196,4.14125 3.63929,4.89419c4.64321,1.00392 10.91779,7.2785 12.80014,12.80014c4.51772,13.92955 -4.01576,26.6042 -18.94923,27.73361c-6.40007,0.50196 -8.15693,0.12549 -11.79622,-2.38431c-2.38431,-1.63137 -5.27066,-4.51772 -6.40007,-6.40007l-2.00784,-3.63929l-3.63929,3.89027c-7.02752,7.52948 -17.56884,9.53732 -26.22773,5.01968c-6.27458,-3.13725 -10.03936,-7.90595 -10.91779,-13.92955l-0.75294,-4.7687l-4.64321,3.01176c-8.65889,6.0236 -22.58852,3.26282 -26.85518,-5.27066c-3.01176,-5.89811 -3.5138,-10.41583 -2.00784,-15.30994c3.01176,-9.41183 10.54132,-14.557 20.5806,-13.67857l6.52556,0.50196l0.12549,-5.39615c0.12549,-9.03536 6.77654,-17.19237 15.93739,-19.20021c4.26674,-1.00392 8.40791,-0.50196 13.92955,2.13333z" fill="#ffffff"/><path d="M105.28739,657.4441c2.00784,1.00392 5.14517,3.63929 7.02752,5.89811l3.5138,4.14125l-6.77654,0.62745c-8.90987,0.87843 -14.68249,4.39223 -18.32178,11.16877c-4.89419,9.28634 -3.5138,18.57276 3.76478,26.22773c6.27458,6.52556 15.8119,8.28242 23.71793,4.26674l4.51772,-2.38431l2.00784,4.7687c5.64713,12.67465 22.46303,18.57276 33.12976,11.54524c4.26674,-2.63529 5.01968,-1.00392 1.38039,2.88627c-9.66289,10.41583 -26.22773,9.28634 -33.38074,-2.00784l-2.38431,-3.76478l-2.88627,3.89027c-3.26282,4.39223 -11.54524,8.5334 -16.94139,8.65889c-6.40007,0 -14.30602,-4.7687 -17.69433,-10.54132c-1.75686,-3.01176 -3.13725,-6.90203 -3.13725,-8.90987c0,-3.26282 -0.12549,-3.38831 -2.13333,-1.63137c-3.63929,3.13725 -10.03936,6.0236 -13.42759,6.0236c-14.557,0 -23.84342,-15.56092 -17.19237,-28.61204c3.63929,-7.15301 10.7923,-10.7923 19.45119,-9.91387l6.40007,0.62745l0.12549,-5.52164c0.12549,-6.77654 4.89419,-14.30602 10.66681,-17.19237c5.27066,-2.63529 13.92955,-2.76078 18.57276,-0.25098z" fill="#ffffff"/><path d="M640.63445,646.27533c-6.0236,4.01576 -9.03536,7.78046 -10.03936,12.0472c-1.00392,4.39223 -1.88235,4.39223 -5.77262,0.25098c-12.54916,-13.67857 -35.76513,-5.77262 -39.27885,13.42759l-0.75294,4.64321l-7.52948,0.50196c-8.28242,0.62745 -12.67465,3.01176 -17.06688,9.53732c-6.0236,8.78438 -4.7687,20.20413 3.13725,27.98459c7.15301,7.15301 17.06688,8.65889 26.10224,3.89027c2.38431,-1.38039 2.88627,-1.00392 5.39615,4.14125c7.15301,14.68249 25.09832,18.44727 37.14552,7.90595l4.39223,-3.89027l4.01576,3.89027c2.25882,2.13333 5.64713,4.51772 7.52948,5.14517c4.89419,1.88235 13.92955,1.75686 18.82374,-0.37647c4.89419,-2.00784 11.79622,-9.53732 12.92563,-14.05504l0.87843,-3.13725l3.26282,3.01176c11.79622,11.04328 28.61204,8.90987 37.02003,-4.51772c7.40399,-11.92171 3.13725,-28.11008 -8.90987,-34.00819c-4.01576,-2.00784 -5.27066,-3.38831 -5.39615,-5.77262c-0.12549,-5.39615 -4.51772,-13.3021 -9.53732,-17.06688c-4.14125,-3.26282 -5.77262,-3.63929 -14.05504,-3.76478c-8.78438,-0.12549 -9.53732,-0.37647 -11.16877,-3.38831c-4.7687,-9.16085 -21.8355,-12.67465 -31.12192,-6.40007z" fill="#000000"/><path d="M660.71309,648.03219c3.26282,1.2549 9.16085,7.15301 10.16485,10.29034c0.62745,2.00784 1.38039,2.25882 4.01576,1.50588c6.52556,-2.00784 13.55308,-1.2549 18.32178,2.00784c5.14517,3.5138 9.53732,11.41975 9.53732,17.19237c0,3.01176 0.62745,4.01576 3.13725,4.64321c4.7687,1.2549 11.54524,7.90595 13.3021,12.92563c3.26282,10.03936 -1.88235,22.46303 -10.91779,26.22773c-9.53732,4.01576 -20.95707,1.00392 -25.60028,-6.52556l-2.63529,-4.14125l-4.39223,4.26674c-5.39615,5.39615 -12.17269,7.52948 -20.07864,6.27458c-8.03144,-1.12941 -15.05896,-7.90595 -16.31394,-15.43543l-0.75294,-5.14517l-4.64321,3.01176c-5.77262,4.01576 -15.18445,4.26674 -21.20805,0.62745c-9.28634,-5.64713 -11.29426,-19.82766 -3.89027,-28.23557c4.7687,-5.39615 9.78838,-7.40399 17.19237,-6.65105l5.89811,0.62745l0.12549,-5.27066c0.25098,-14.68249 14.30602,-23.46695 28.73753,-18.19629z" fill="#ffb3b3"/><path d="M618.54797,657.4441c2.00784,1.00392 5.14517,3.63929 7.02752,5.89811l3.5138,4.14125l-7.52948,0.75294c-9.16085,0.87843 -14.18053,4.14125 -17.81982,11.54524c-4.64321,9.66289 -2.76078,19.95315 4.7687,26.35322c7.40399,6.14909 15.30994,7.02752 25.47479,2.76078c1.50588,-0.62745 2.63529,0.25098 4.14125,3.63929c5.89811,12.42367 22.46303,18.0708 33.00427,11.16877c4.7687,-3.01176 4.7687,-0.87843 0,3.89027c-9.53732,9.53732 -25.09832,7.90595 -32.12584,-3.13725l-2.38431,-3.76478l-3.26282,4.39223c-4.14125,5.27066 -12.80014,8.90987 -19.07472,7.90595c-9.66289,-1.63137 -18.19629,-10.54132 -18.19629,-19.20021c0,-3.13725 -0.12549,-3.26282 -2.13333,-1.50588c-7.40399,6.40007 -15.8119,7.52948 -23.46695,3.13725c-9.28634,-5.27066 -12.17269,-16.94139 -6.65105,-26.47871c3.89027,-6.90203 9.78838,-9.78838 18.44727,-9.16085l6.90203,0.62745l0.12549,-5.27066c0.37647,-11.16877 8.78438,-19.57668 19.70217,-19.57668c3.26282,0 7.65497,0.87843 9.53732,1.88235z" fill="#ffb3b3"/></g></g></g></g></g></g></g></g></g></g></g></g></g></g></g></g></g></svg>