<?xml version="1.0" standalone="no"?>
<!DOCTYPE svg PUBLIC "-//W3C//DTD SVG 20010904//EN"
 "http://www.w3.org/TR/2001/REC-SVG-20010904/DTD/svg10.dtd">
<svg version="1.0" xmlns="http://www.w3.org/2000/svg"
 width="2367.000000pt" height="3151.000000pt" viewBox="0 0 2367.000000 3151.000000"
 preserveAspectRatio="xMidYMid meet">
<metadata>
Created by potrace 1.14, written by Peter Selinger 2001-2017
</metadata>
<g transform="translate(0.000000,3151.000000) scale(0.100000,-0.100000)"
fill="#000000" stroke="none">
<path fill="#000000" stroke="none" d="M0 31481 c0 -27 4 -30 48 -40 26 -5 48
-6 50 -1 2 4 64 6 139 4 l136 -4 -19 21 -19 22 30 -16 c41 -20 104 -25 114 -8
7 10 13 10 29 2 30 -16 34 -14 28 12 -6 22 -6 22 5 0 14 -26 53 -35 76 -17 15
10 21 10 35 -2 14 -14 20 -14 48 1 25 13 35 14 46 4 10 -8 14 -8 14 0 0 6 7
11 16 11 9 0 14 -6 11 -12 -5 -14 60 -18 81 -4 7 4 22 4 34 0 22 -6 72 -7 121
0 15 2 27 -1 27 -6 0 -5 3 -7 8 -5 18 12 152 16 152 6 0 -7 10 -9 28 -4 42 12
101 14 108 4 3 -5 10 -9 16 -9 7 0 7 4 -1 14 -9 11 -4 13 29 10 22 -1 48 -5
59 -9 11 -3 22 -1 26 5 12 20 33 11 28 -12 -5 -21 -4 -21 8 -7 16 19 66 33 71
21 2 -5 15 -12 31 -16 21 -5 27 -3 27 10 0 13 6 15 28 9 39 -11 92 -13 92 -3
0 4 17 5 38 2 20 -4 51 -7 67 -8 17 0 36 -5 42 -9 9 -6 11 -3 7 7 -6 16 16 23
30 9 9 -10 86 -3 110 9 13 7 16 7 12 -1 -6 -10 1 -12 68 -26 11 -2 25 0 31 5
6 5 21 11 33 13 12 2 24 5 26 8 7 7 172 2 215 -6 20 -4 41 -11 48 -17 8 -6 18
-6 31 1 11 6 35 8 54 5 19 -4 44 -1 55 5 11 5 23 8 26 5 3 -4 28 -7 56 -8 35
-2 52 1 55 11 8 20 26 6 19 -15 -5 -14 -3 -15 7 -5 9 9 35 11 85 6 49 -4 74
-2 79 6 11 18 26 13 26 -9 0 -18 3 -19 20 -10 11 6 25 8 30 5 5 -3 24 2 41 11
20 10 34 12 38 6 3 -6 19 -14 34 -17 20 -6 27 -4 27 8 0 8 -6 18 -13 21 -6 4
-1 4 13 0 14 -3 40 -7 58 -9 18 -2 39 -8 45 -13 8 -7 28 -7 61 0 43 9 51 8 62
-6 8 -12 14 -14 19 -6 5 8 11 8 19 0 16 -12 76 -2 94 17 15 15 36 7 29 -11 -6
-15 102 -19 120 -4 9 7 13 7 13 -1 0 -6 7 -11 16 -11 8 0 13 3 11 8 -9 13 100
7 116 -6 10 -8 28 -11 44 -8 56 11 138 10 136 -2 -2 -7 4 -12 13 -12 8 0 13 4
9 9 -3 6 9 7 30 4 22 -4 41 -1 52 8 13 11 17 11 20 2 6 -18 33 -16 33 1 0 14
16 12 88 -15 16 -7 22 -5 22 6 0 8 7 15 15 15 8 0 15 -5 15 -10 0 -11 96 -8
107 4 3 3 15 -2 25 -11 13 -11 22 -14 26 -6 12 18 52 26 67 13 10 -9 15 -9 15
-1 0 6 16 10 40 8 24 -1 40 -7 40 -14 0 -7 7 -13 15 -13 8 0 15 5 15 10 0 13
47 13 55 0 3 -6 14 -7 23 -2 9 4 47 7 85 7 40 -1 67 3 67 10 0 5 5 3 10 -5 8
-12 10 -12 10 -1 0 11 4 11 18 -2 20 -18 42 -22 42 -9 0 5 63 8 140 8 77 0
140 -4 140 -8 0 -14 28 -9 33 5 5 14 63 21 80 10 17 -11 76 -12 82 -2 4 5 11
9 16 9 6 0 7 -6 3 -12 -5 -9 -2 -9 9 1 14 11 22 11 48 1 20 -9 33 -10 37 -3
11 16 39 22 50 11 6 -6 22 -7 39 -3 15 5 31 8 36 7 4 -1 7 3 7 8 0 6 5 10 10
10 6 0 10 -6 10 -14 0 -11 13 -13 56 -10 30 2 59 6 64 9 5 3 12 0 16 -6 4 -6
19 -9 37 -5 17 3 68 1 114 -5 62 -8 87 -8 97 1 10 8 16 8 21 0 3 -6 11 -8 16
-4 20 12 119 14 119 3 0 -7 9 -5 24 4 21 14 25 14 39 0 13 -13 21 -14 40 -6
13 6 29 8 36 4 7 -5 29 -6 49 -4 48 6 156 4 210 -3 23 -3 42 -2 42 2 0 9 99 8
108 -1 3 -3 11 0 18 6 14 12 38 3 29 -11 -5 -9 9 -7 35 3 8 3 26 6 40 5 14 -1
37 2 53 6 21 7 27 5 27 -8 0 -9 7 -16 15 -16 8 0 15 5 15 11 0 6 9 9 20 6 11
-3 20 0 20 6 0 9 3 8 8 0 6 -9 39 -11 122 -8 149 7 500 3 535 -6 6 -1 18 1 28
6 10 4 23 2 31 -5 12 -9 17 -7 26 10 6 11 16 18 22 14 7 -4 6 -10 -3 -16 -9
-6 1 -8 31 -6 25 1 52 -2 59 -6 8 -5 16 -4 21 4 7 11 37 9 94 -7 12 -3 16 -1
12 6 -4 6 -2 11 3 11 6 0 11 -4 11 -10 0 -9 66 -6 122 6 14 3 29 1 32 -5 4 -6
17 -5 36 2 22 8 33 9 38 1 4 -6 21 -14 39 -17 24 -5 35 -2 43 11 11 16 11 16
6 -1 -5 -15 -2 -17 17 -11 12 4 45 8 73 9 28 1 55 4 60 6 5 3 29 4 54 2 60 -3
341 -12 513 -16 77 -2 137 0 137 5 0 5 6 6 13 1 18 -11 67 -12 67 -1 0 5 8 7
18 4 9 -3 70 -6 136 -8 88 -2 120 -6 123 -16 4 -8 12 -10 22 -6 45 19 110 26
259 27 89 1 162 -1 162 -5 0 -12 38 -10 45 2 8 14 58 13 72 -1 7 -7 19 -8 30
-4 10 4 43 7 74 6 32 -2 60 2 63 7 3 6 14 9 24 7 9 -2 23 -4 30 -4 7 -1 10 -6
6 -12 -5 -9 1 -10 22 -5 46 12 88 13 96 2 4 -6 11 -6 20 1 8 7 33 8 68 3 30
-4 65 -4 76 1 12 4 25 5 28 1 11 -10 407 -12 443 -2 20 5 35 5 39 -1 8 -13 58
-11 72 3 9 9 15 9 24 0 15 -15 48 -16 48 -1 0 8 5 7 15 -1 12 -10 21 -10 41
-1 31 14 37 14 29 1 -8 -13 46 -13 81 0 18 7 30 7 40 -1 7 -6 18 -8 23 -5 5 4
12 3 15 -2 6 -10 66 -3 83 10 7 5 14 5 18 -1 3 -6 20 -9 38 -7 18 2 37 0 42
-4 6 -5 29 -5 53 0 23 4 45 4 47 0 5 -8 79 -5 93 4 4 2 34 0 67 -5 39 -5 64
-4 72 3 7 5 21 7 30 3 25 -10 703 -13 703 -3 0 4 7 8 15 8 8 0 15 -4 15 -8 0
-4 31 -7 69 -7 38 0 67 3 65 6 -2 4 27 6 65 5 38 0 68 -4 66 -7 -6 -9 144 -9
170 1 16 6 25 5 29 -3 3 -9 7 -8 15 3 7 9 14 11 19 5 8 -11 75 -12 136 -1 23
4 53 1 73 -6 29 -10 36 -10 44 2 6 8 12 11 15 5 2 -6 42 -9 97 -8 120 4 141 6
149 18 4 6 8 2 8 -8 0 -15 5 -17 23 -11 12 4 85 7 162 6 84 -1 149 3 162 10
13 6 29 7 40 2 15 -7 215 -15 288 -12 11 0 38 1 60 2 22 0 43 5 46 9 3 4 17 3
31 -2 14 -5 172 -9 361 -9 184 0 340 -3 345 -6 6 -4 14 -1 18 5 4 8 9 7 15 -2
6 -9 12 -10 17 -4 4 6 50 9 107 8 245 -4 292 -2 313 11 7 4 19 3 25 -3 10 -8
192 -15 312 -12 11 0 77 1 147 1 71 1 131 6 134 11 3 5 11 6 17 2 19 -12 189
-14 182 -3 -7 11 8 14 17 4 3 -3 120 -7 259 -9 140 -2 256 -4 259 -5 3 -1 10
-1 15 0 25 6 185 5 185 -1 0 -7 46 -1 70 9 23 9 74 8 82 -2 4 -6 12 -6 20 0 7
6 28 9 46 8 30 -3 110 -3 287 -3 44 0 80 0 80 -1 0 -1 21 -3 48 -4 26 -1 47 1
47 4 0 3 129 4 287 4 177 -1 293 2 300 9 9 6 13 6 13 0 0 -7 53 -9 143 -6 78
2 149 3 157 2 54 -4 200 -3 226 2 16 3 65 3 107 0 42 -4 77 -4 77 -1 0 5 161
7 638 9 134 1 212 5 212 11 0 5 5 10 10 10 6 0 10 -7 10 -15 0 -12 7 -15 33
-10 17 3 219 7 447 9 228 1 420 5 426 9 6 3 24 3 40 -2 16 -5 40 -4 53 1 14 5
27 5 30 0 8 -12 144 -12 159 0 8 7 16 7 25 0 12 -9 483 -10 493 0 6 7 462 1
473 -6 5 -4 12 -2 15 3 6 9 55 8 72 -1 5 -2 59 0 119 7 61 6 112 8 115 5 6 -8
3 -8 250 -10 113 -1 210 -7 216 -11 8 -6 14 -4 18 6 4 10 13 14 23 11 10 -3
57 -8 106 -11 67 -5 87 -3 87 7 0 11 2 11 9 0 6 -10 29 -11 99 -6 l92 7 0 33
0 34 -11830 0 -11830 0 0 -29z"/>
<path fill="#ffffff" stroke="none" d="M2195 31490 c3 -5 1 -10 -4 -10 -6 0
-11 5 -11 10 0 6 2 10 4 10 3 0 8 -4 11 -10z"/>
<path fill="#ffffff" stroke="none" d="M1640 31486 c0 -3 -4 -8 -10 -11 -5 -3
-10 -1 -10 4 0 6 5 11 10 11 6 0 10 -2 10 -4z"/>
<path fill="#ffffff" stroke="none" d="M2165 31470 c3 -5 -1 -10 -9 -10 -9 0
-16 5 -16 10 0 6 4 10 9 10 6 0 13 -4 16 -10z"/>
<path fill="#ffffff" stroke="none" d="M13140 31420 c0 -5 -4 -10 -9 -10 -6 0
-13 5 -16 10 -3 6 1 10 9 10 9 0 16 -4 16 -10z"/>
<path fill="#000000" stroke="none" d="M3190 31450 c0 -5 5 -10 11 -10 5 0 7
5 4 10 -3 6 -8 10 -11 10 -2 0 -4 -4 -4 -10z"/>
<path fill="#000000" stroke="none" d="M4685 31410 c3 -5 8 -10 11 -10 2 0 4
5 4 10 0 6 -5 10 -11 10 -5 0 -7 -4 -4 -10z"/>
<path fill="#000000" stroke="none" d="M19425 29969 c-55 -4 -111 -11 -125
-15 -14 -4 -34 -8 -46 -10 -36 -4 -251 -64 -291 -80 -118 -48 -333 -175 -333
-196 0 -21 -37 -4 -100 47 -38 30 -71 55 -74 55 -3 0 -34 20 -69 44 -162 114
-320 120 -602 24 -33 -11 -73 -24 -90 -28 -16 -4 -47 -17 -68 -28 -21 -11 -50
-25 -65 -31 -28 -11 -63 -32 -72 -42 -3 -3 -34 -20 -70 -38 -53 -27 -159 -97
-180 -120 -3 -3 -26 -25 -51 -49 l-45 -43 -28 25 c-44 42 -113 54 -336 61
-204 7 -413 -9 -444 -33 -6 -5 -36 -17 -66 -27 -87 -28 -203 -76 -225 -94 -11
-9 -33 -23 -50 -31 -40 -20 -227 -206 -249 -248 -9 -18 -26 -44 -38 -57 -23
-27 -88 -169 -113 -249 -11 -35 -24 -56 -35 -59 -16 -4 -19 -16 -19 -91 0 -47
-8 -114 -17 -148 -23 -88 -15 -235 16 -301 30 -63 65 -88 180 -127 100 -34
163 -49 318 -76 127 -21 293 -16 339 12 18 10 33 22 33 27 0 12 44 7 64 -8 11
-8 28 -15 38 -15 10 0 18 -4 18 -10 0 -5 3 -9 8 -8 4 1 16 -3 27 -9 34 -18
144 -42 270 -58 66 -8 160 -23 209 -32 112 -20 247 -14 333 16 63 21 133 66
209 134 24 21 48 36 53 33 6 -4 22 -29 37 -56 31 -56 63 -84 145 -124 52 -25
69 -28 216 -33 174 -6 228 1 321 45 59 28 71 24 93 -31 22 -54 48 -71 130 -86
54 -10 68 -13 204 -46 39 -9 108 -25 155 -36 181 -42 292 -83 328 -122 35 -39
50 -40 100 -10 99 60 144 77 202 73 123 -8 218 8 420 69 36 11 92 26 125 34
94 23 190 73 228 121 49 60 55 75 62 152 9 99 13 112 38 126 28 15 148 37 205
37 72 1 158 80 244 224 96 157 96 266 1 393 -13 17 -23 38 -23 46 0 9 29 47
65 85 80 88 84 104 85 339 0 189 -16 325 -45 380 -8 16 -15 34 -15 39 -2 53
-280 87 -420 51 -30 -7 -62 -14 -70 -14 -37 -2 -92 -22 -155 -57 l-68 -38 -31
34 c-39 44 -168 151 -212 175 -93 52 -114 63 -142 69 -18 3 -32 10 -32 15 0
21 -268 41 -405 29z"/>
<path fill="#ffffff" stroke="none" d="M19750 29882 c102 -24 113 -28 166 -64
23 -15 45 -28 48 -28 19 0 226 -165 226 -180 0 -4 7 -24 15 -44 14 -33 18 -35
36 -25 12 6 34 25 50 43 61 70 223 117 409 119 162 2 215 -31 244 -151 14 -57
17 -107 14 -279 l-3 -209 -32 -32 c-18 -17 -33 -34 -33 -36 0 -3 -20 -26 -45
-52 -57 -58 -62 -104 -15 -157 76 -87 89 -182 39 -281 -17 -33 -37 -68 -45
-77 -8 -8 -14 -20 -14 -25 -1 -18 -115 -133 -143 -143 -16 -6 -58 -11 -95 -11
-104 0 -181 -29 -206 -78 -8 -15 -17 -63 -21 -107 -7 -82 -19 -110 -64 -156
-30 -31 -138 -89 -164 -89 -19 0 -131 -29 -239 -61 -37 -12 -72 -18 -78 -14
-5 3 -10 2 -10 -2 0 -18 -113 -33 -160 -22 -57 13 -123 6 -175 -17 -22 -11
-42 -21 -45 -24 -11 -11 -69 -40 -79 -40 -6 0 -30 12 -54 27 -78 49 -232 97
-457 143 -58 12 -127 28 -155 35 -27 8 -67 17 -87 20 -45 7 -72 38 -95 111
-14 46 -20 54 -41 54 -13 0 -35 -9 -49 -20 -14 -11 -31 -20 -38 -20 -7 0 -18
-6 -24 -14 -7 -8 -41 -22 -76 -31 -88 -24 -352 -17 -405 10 -65 34 -91 59
-135 136 -24 42 -51 79 -59 82 -16 6 -44 -13 -116 -80 -25 -23 -63 -54 -84
-68 -43 -29 -159 -74 -191 -74 -11 0 -51 0 -90 -1 -38 0 -97 5 -130 10 -135
24 -234 39 -295 45 -65 7 -101 18 -195 58 -71 30 -95 54 -95 94 0 38 -16 49
-56 39 -25 -7 -26 -10 -21 -52 4 -40 2 -46 -22 -63 -44 -32 -116 -39 -248 -25
-121 12 -270 38 -308 54 -11 5 -31 12 -45 15 -14 4 -53 21 -87 37 -54 26 -64
36 -77 72 -27 73 -32 110 -27 176 5 58 8 65 28 68 28 4 30 14 37 162 6 128 14
162 57 255 16 35 29 66 29 69 0 3 23 35 50 72 28 37 50 71 50 75 0 17 186 189
204 189 4 0 22 10 39 23 27 20 89 48 222 102 17 7 75 23 131 35 94 21 116 22
330 17 279 -6 315 -15 346 -83 10 -25 26 -44 34 -44 15 0 123 107 124 122 0
11 106 87 161 115 27 14 49 30 49 34 0 5 9 9 20 9 11 0 20 3 20 8 0 8 9 13 81
49 88 43 160 73 177 73 10 0 23 5 29 11 6 6 29 15 50 20 21 4 67 15 103 24 36
9 92 18 124 21 68 5 199 -20 217 -42 6 -8 16 -14 21 -14 19 0 185 -117 230
-162 50 -52 80 -60 100 -28 7 11 18 20 25 20 7 0 13 4 13 8 0 4 20 21 46 37
25 16 53 36 63 44 18 16 156 87 196 102 69 26 190 58 290 78 28 5 68 14 90 20
63 15 297 5 395 -17z"/>
<path fill="#000000" stroke="none" d="M7040 29944 c-114 -15 -159 -25 -166
-35 -3 -5 -18 -9 -33 -9 -16 0 -34 -7 -41 -15 -7 -8 -25 -15 -41 -15 -15 0
-31 -5 -34 -10 -4 -6 -14 -10 -24 -8 -9 2 -30 -7 -45 -20 -16 -12 -34 -22 -41
-22 -19 0 -75 -30 -75 -41 0 -5 -5 -9 -11 -9 -21 0 -129 -73 -129 -87 0 -8 -4
-11 -10 -8 -22 13 -310 -269 -310 -304 0 -16 -26 10 -65 65 -134 188 -254 283
-435 339 -30 10 -73 23 -95 31 -22 7 -67 12 -100 12 -33 0 -67 3 -77 6 -30 13
-238 -2 -288 -21 -8 -3 -34 -7 -57 -9 -23 -2 -51 -8 -62 -14 -11 -5 -29 -10
-40 -10 -10 0 -21 -4 -23 -8 -1 -5 -42 -28 -89 -51 -47 -23 -101 -56 -120 -74
-19 -18 -47 -39 -63 -47 -33 -17 -90 -84 -100 -117 -4 -13 -12 -23 -17 -23 -5
0 -9 -4 -9 -10 0 -12 -43 -77 -74 -111 -22 -25 -35 -55 -65 -150 -6 -19 -11
-45 -11 -57 0 -11 -4 -32 -10 -46 -10 -26 -10 -26 -82 50 -77 81 -160 130
-236 139 -20 3 -58 10 -85 16 -33 7 -61 8 -96 0 -56 -12 -152 -54 -182 -79
-43 -37 -166 -164 -194 -202 -16 -22 -38 -49 -47 -61 -10 -12 -15 -26 -12 -30
3 -5 0 -9 -5 -9 -6 0 -11 -11 -11 -25 0 -16 -4 -23 -13 -19 -9 3 -17 -12 -26
-46 -7 -27 -17 -52 -22 -56 -5 -3 -9 -20 -9 -39 0 -19 -5 -37 -11 -40 -5 -4
-9 -17 -8 -28 1 -12 -4 -42 -11 -67 -10 -32 -13 -104 -13 -247 1 -169 -1 -203
-13 -203 -8 0 -14 -7 -14 -15 0 -8 4 -15 8 -15 5 0 17 -17 27 -37 10 -21 22
-46 27 -56 13 -25 7 -145 -8 -176 -19 -41 -12 -123 14 -156 12 -15 22 -32 22
-38 0 -11 55 -81 107 -137 18 -19 33 -39 33 -43 0 -11 81 -90 148 -146 44 -36
137 -93 212 -128 8 -3 39 -25 69 -47 217 -164 351 -236 483 -261 68 -13 100
-14 143 -6 66 12 95 26 95 46 0 9 6 12 16 8 13 -5 15 -2 10 14 -4 12 -1 25 8
32 20 16 30 125 14 150 -25 40 17 39 62 -1 200 -180 286 -216 485 -203 60 3
114 10 120 15 5 4 29 11 52 15 24 4 45 10 48 15 3 4 20 11 38 14 35 7 117 78
117 103 0 7 4 13 9 13 5 0 21 24 34 54 23 49 29 56 64 62 21 4 65 2 98 -4 33
-6 95 -18 139 -26 139 -26 462 -20 553 10 58 19 143 64 143 76 0 5 11 19 25
32 14 13 25 28 25 35 0 6 4 11 10 11 5 0 12 11 16 24 3 14 12 27 20 30 8 3 14
14 14 25 0 11 4 22 9 25 5 3 12 26 15 51 11 68 38 82 124 66 37 -7 103 -23
147 -36 183 -52 362 -58 525 -16 47 12 100 25 118 28 17 3 32 9 32 14 0 5 9 9
20 9 30 0 93 68 118 127 12 28 22 73 22 99 l0 47 33 -7 c101 -22 164 -27 279
-22 131 6 211 25 266 63 14 10 31 23 40 28 47 32 90 80 96 106 3 17 10 28 15
25 4 -3 16 21 25 54 9 33 21 62 26 65 5 3 8 43 6 89 -5 95 -27 151 -87 220
-21 24 -39 47 -39 50 0 3 29 34 65 69 36 35 65 69 65 75 0 7 9 21 20 32 22 22
53 86 82 174 18 50 22 87 22 201 1 167 -7 203 -82 363 -24 53 -97 141 -144
175 -24 17 -45 34 -48 37 -17 18 -293 21 -312 3 -6 -7 -22 -13 -35 -13 -13 0
-31 -4 -41 -9 -9 -5 -51 -26 -93 -46 -41 -20 -87 -47 -102 -61 -14 -13 -32
-24 -40 -24 -7 0 -18 -5 -23 -10 -17 -17 -42 0 -49 33 -8 34 -74 174 -96 203
-8 10 -44 48 -80 85 -101 103 -222 158 -362 164 -48 3 -91 6 -95 8 -4 1 -45
-2 -92 -9z"/>
<path fill="#ffffff" stroke="none" d="M7234 29883 c4 -4 24 -8 45 -9 73 -4
205 -71 280 -144 92 -88 152 -212 143 -297 -3 -36 -1 -43 22 -59 21 -13 32
-15 49 -6 12 5 29 13 37 16 8 3 31 16 50 28 156 96 275 149 365 162 124 19
204 1 282 -63 33 -27 103 -119 103 -134 0 -5 13 -39 29 -75 65 -151 63 -357
-4 -520 -18 -43 -94 -162 -104 -162 -3 0 -27 -20 -53 -45 -35 -33 -56 -45 -78
-45 -27 0 -30 -3 -30 -30 0 -17 5 -30 13 -30 6 0 33 -16 59 -35 50 -37 95
-104 108 -160 8 -35 -5 -123 -21 -139 -5 -6 -9 -19 -9 -30 -2 -70 -79 -168
-165 -211 -74 -36 -146 -46 -314 -44 -168 2 -204 13 -251 70 -26 33 -34 38
-51 29 -21 -12 -18 -46 8 -88 8 -13 15 -51 16 -85 1 -74 -23 -133 -62 -150
-14 -6 -37 -18 -51 -28 -28 -18 -145 -50 -257 -69 -96 -17 -223 -8 -348 26
-146 39 -256 63 -286 64 -38 0 -75 -46 -95 -120 -9 -36 -23 -76 -30 -90 -22
-45 -132 -150 -176 -169 -61 -26 -175 -41 -308 -41 -162 -1 -221 5 -339 34
-57 14 -116 26 -130 26 -74 0 -151 -49 -151 -96 0 -30 -69 -120 -105 -138 -59
-28 -80 -35 -110 -38 -16 -2 -33 -7 -36 -11 -11 -16 -191 -27 -259 -16 -63 10
-164 59 -215 106 -99 89 -232 182 -266 185 -35 4 -37 -39 -4 -92 17 -26 29
-63 32 -96 5 -48 3 -58 -22 -90 -47 -61 -120 -78 -235 -53 -47 10 -239 101
-271 127 -57 48 -253 187 -345 243 -115 71 -213 159 -310 280 -30 36 -54 74
-54 83 0 9 -4 16 -8 16 -15 0 -34 85 -24 111 18 45 33 97 31 106 -4 16 14 93
21 93 4 0 11 12 15 27 3 15 17 40 31 56 13 16 24 35 24 43 0 25 -28 15 -56
-21 -28 -38 -60 -46 -68 -17 -3 9 -7 42 -10 72 -3 30 -8 73 -11 95 -3 22 -2
61 3 88 8 39 7 47 -5 47 -11 0 -14 7 -10 28 18 96 35 217 31 223 -9 15 8 59
23 59 11 0 14 7 10 22 -4 15 2 33 17 53 13 16 30 53 40 80 9 28 28 61 41 74
14 13 25 29 25 35 0 7 11 23 25 36 14 13 25 29 25 37 0 7 5 13 12 13 6 0 28
19 50 42 21 23 38 35 39 27 0 -8 4 -4 9 8 5 12 21 24 39 28 17 4 31 11 31 16
0 5 6 9 13 9 8 0 28 7 45 15 53 27 119 28 222 6 72 -16 104 -29 135 -53 22
-18 42 -36 44 -41 2 -5 16 -22 32 -38 16 -16 29 -33 30 -37 1 -15 92 -83 108
-80 10 2 18 18 23 48 3 25 11 74 17 110 16 109 33 162 53 168 13 3 18 14 18
37 0 20 6 35 15 39 8 3 15 13 15 21 0 9 5 13 10 10 6 -4 13 7 16 24 4 17 10
31 15 31 12 0 75 64 82 84 4 9 10 15 15 14 4 -2 26 16 49 38 26 25 55 44 76
48 19 3 44 17 57 31 13 13 27 22 33 18 6 -3 15 1 21 9 11 15 43 25 106 34 19
3 42 8 50 11 8 4 18 5 23 5 4 -1 7 2 7 8 0 5 14 10 30 10 17 0 30 4 30 9 0 11
270 5 360 -8 109 -16 172 -37 308 -105 45 -22 150 -118 194 -177 38 -50 88
-149 88 -172 0 -23 27 -57 45 -57 14 0 25 22 25 51 0 11 7 22 15 25 8 4 15 13
15 21 0 14 15 34 72 99 30 35 66 64 78 64 7 0 10 7 6 15 -3 8 -2 15 2 15 4 0
25 16 47 35 22 19 45 35 52 35 7 0 13 7 13 15 0 8 4 15 9 15 18 0 80 45 81 58
0 6 9 12 20 12 11 0 20 5 20 11 0 5 16 17 36 25 21 9 43 22 51 30 8 8 23 14
33 14 11 0 40 11 66 25 26 14 60 25 76 25 17 0 31 6 35 16 3 8 12 13 21 9 8
-3 20 -1 26 4 20 16 119 34 231 41 61 4 115 7 121 8 6 1 14 -1 18 -5z"/>
<path fill="#000000" stroke="none" d="M11342 26118 c-7 -7 -12 -18 -12 -25 0
-7 -3 -13 -7 -13 -5 0 -20 -22 -35 -49 -15 -26 -34 -54 -43 -61 -8 -7 -15 -20
-15 -29 0 -10 -9 -27 -20 -39 -11 -12 -20 -23 -20 -25 0 -12 -183 -303 -210
-334 -5 -7 -10 -15 -10 -18 0 -3 -5 -11 -10 -18 -9 -10 -92 -140 -125 -196 -5
-9 -28 -43 -50 -75 -45 -66 -46 -68 -132 -204 -34 -54 -84 -128 -110 -163 -47
-62 -60 -83 -152 -244 -24 -42 -48 -81 -55 -88 -6 -7 -24 -37 -40 -67 -16 -30
-41 -71 -56 -90 -15 -19 -33 -47 -41 -62 -23 -45 -125 -191 -148 -212 -12 -11
-21 -22 -21 -26 0 -4 -19 -36 -42 -70 -24 -34 -50 -72 -58 -85 -8 -12 -43 -63
-77 -114 -35 -50 -63 -93 -63 -95 0 -8 -205 -343 -224 -366 -12 -14 -39 -60
-60 -103 -22 -42 -46 -85 -55 -95 -9 -10 -21 -27 -28 -38 -37 -58 -81 -131
-103 -169 -14 -24 -56 -95 -94 -157 -39 -62 -79 -131 -90 -153 -12 -22 -31
-53 -43 -69 -13 -16 -23 -33 -23 -39 0 -5 -17 -35 -37 -65 -20 -31 -52 -85
-71 -121 -19 -37 -38 -68 -41 -71 -3 -3 -13 -18 -21 -35 -8 -16 -21 -36 -27
-43 -7 -7 -13 -19 -13 -26 0 -7 -9 -21 -20 -31 -11 -10 -20 -21 -20 -25 0 -4
-33 -56 -73 -116 -40 -60 -76 -117 -80 -126 -3 -10 -11 -18 -17 -18 -5 0 -10
-5 -10 -10 0 -6 -26 -47 -57 -93 -58 -81 -76 -109 -90 -137 -4 -8 -32 -47 -62
-87 -88 -113 -151 -201 -151 -210 0 -7 -49 -74 -119 -165 -12 -14 -21 -30 -21
-36 0 -5 -9 -17 -20 -27 -11 -10 -20 -22 -20 -27 0 -5 -37 -63 -82 -129 -46
-66 -87 -128 -93 -137 -5 -9 -24 -35 -41 -57 -16 -22 -36 -54 -43 -72 -7 -18
-20 -38 -28 -44 -8 -7 -24 -30 -36 -52 -53 -94 -76 -130 -132 -212 -76 -110
-89 -129 -120 -187 -14 -27 -29 -48 -34 -48 -4 0 -15 -17 -24 -37 -9 -21 -34
-67 -56 -103 -23 -36 -46 -77 -52 -92 -6 -16 -14 -28 -18 -28 -4 0 -12 -10
-18 -23 -6 -13 -40 -63 -75 -112 -35 -50 -80 -116 -99 -149 -19 -32 -43 -73
-54 -92 -11 -18 -35 -59 -54 -91 -19 -32 -40 -65 -46 -73 -16 -19 -63 -106
-129 -235 -28 -55 -61 -115 -73 -132 -13 -17 -23 -35 -23 -40 0 -5 -11 -31
-24 -59 -49 -99 -76 -161 -76 -171 0 -6 -7 -16 -15 -23 -8 -7 -15 -21 -15 -31
0 -11 -4 -27 -10 -37 -14 -25 -46 -103 -55 -132 -4 -14 -16 -37 -26 -52 -11
-14 -19 -30 -19 -36 0 -5 -15 -34 -32 -64 -35 -57 -92 -178 -127 -264 -17 -44
-30 -97 -48 -209 -2 -16 -11 -43 -18 -60 -7 -16 -16 -51 -19 -76 -4 -25 -15
-68 -24 -95 l-18 -49 -54 -5 c-47 -4 -55 -8 -58 -27 -3 -23 0 -25 78 -37 l35
-6 0 -172 c0 -95 3 -220 7 -278 4 -58 10 -213 14 -345 5 -181 10 -247 21 -269
12 -22 15 -67 14 -200 -2 -185 -7 -359 -16 -501 -3 -49 -8 -121 -10 -160 -2
-38 -7 -106 -10 -150 -21 -302 -28 -525 -30 -995 -2 -294 -6 -708 -9 -920 -2
-212 -1 -458 4 -548 5 -90 10 -213 11 -273 1 -61 5 -127 10 -147 20 -89 36
-294 44 -587 4 -115 10 -295 15 -399 5 -105 7 -193 5 -197 -3 -3 -1 -85 5
-180 5 -96 12 -248 15 -339 3 -91 10 -203 15 -250 5 -47 12 -186 15 -310 9
-355 22 -631 35 -745 5 -44 12 -176 15 -294 3 -117 8 -217 11 -222 3 -5 5 -93
5 -196 -1 -104 4 -282 10 -398 6 -115 10 -316 10 -445 0 -129 6 -318 13 -420
7 -102 12 -283 10 -402 -2 -120 1 -220 5 -222 5 -3 125 -6 268 -7 199 -1 280
2 348 14 245 44 367 59 438 53 106 -10 385 -16 607 -14 219 2 193 2 586 -4
164 -2 381 2 500 8 115 7 304 18 419 23 258 13 461 29 540 43 33 5 78 11 100
13 563 45 856 56 1630 60 149 0 299 4 335 8 36 4 164 12 285 17 239 10 436 25
530 40 33 5 130 12 215 14 85 3 236 8 335 12 160 6 370 -4 510 -22 91 -13 964
-15 1425 -4 991 23 1075 24 1195 6 183 -28 353 -46 370 -40 8 3 15 16 15 28 0
11 8 53 16 91 18 77 18 83 10 2900 -5 1550 -4 1439 -16 1545 -12 110 -23 455
-25 790 0 146 -4 272 -7 280 -4 8 -9 94 -12 190 -6 178 -21 419 -31 477 -5 27
-11 162 -30 608 -12 302 -17 366 -30 467 -9 62 -20 151 -25 198 -6 47 -14 121
-20 164 -5 44 -14 197 -20 340 -5 144 -13 279 -15 302 -3 22 -6 88 -5 145 0
57 -4 169 -10 249 -5 80 -17 271 -25 425 -9 154 -20 323 -25 375 -6 52 -15
174 -20 270 -10 179 -24 321 -41 421 -5 31 -12 135 -15 232 -5 158 -4 175 12
181 30 11 227 36 245 31 41 -13 65 57 30 89 -11 10 -25 32 -32 49 -7 18 -20
41 -29 52 -16 18 -111 157 -135 197 -53 88 -118 190 -128 201 -25 26 -247 355
-255 377 -3 8 -21 37 -41 65 -37 50 -55 78 -67 105 -4 8 -10 17 -14 20 -3 3
-23 35 -43 73 -20 37 -55 90 -77 118 -22 28 -40 55 -40 59 0 11 -96 167 -123
200 -12 15 -38 53 -57 85 -19 31 -47 72 -61 89 -15 17 -39 56 -54 86 -30 61
-64 117 -142 233 -29 43 -53 81 -53 85 0 7 -43 71 -134 201 -17 23 -35 50 -41
59 -5 9 -22 35 -36 57 -25 38 -121 194 -146 238 -11 20 -25 39 -108 152 -25
33 -56 83 -70 110 -48 93 -80 143 -140 219 -33 42 -78 105 -100 141 -22 35
-64 98 -92 139 -29 42 -53 77 -53 80 0 9 -78 135 -112 183 -21 28 -38 54 -38
58 0 3 -20 32 -44 63 -24 31 -67 97 -97 145 -30 49 -72 117 -94 153 -22 35
-57 92 -79 126 -110 178 -178 284 -211 330 -35 48 -36 49 -95 145 -25 39 -61
98 -81 130 -20 32 -49 81 -64 108 -15 28 -33 57 -40 65 -23 28 -125 178 -125
185 0 7 -81 130 -109 165 -11 14 -21 32 -21 41 0 8 -4 19 -9 25 -25 24 -30
988 -7 1240 18 193 24 207 96 216 30 4 120 8 200 9 123 1 172 -4 325 -31 167
-29 349 -41 376 -24 22 13 277 5 338 -11 76 -19 89 -12 70 38 l-12 35 -116 13
c-90 9 -144 10 -241 0 -163 -15 -221 -14 -298 4 -34 8 -99 19 -145 25 -45 6
-107 15 -137 20 -30 6 -102 8 -160 5 -58 -3 -144 -7 -192 -10 -49 -2 -93 -7
-98 -10 -18 -11 -48 -87 -54 -135 -24 -183 -36 -534 -32 -887 3 -211 3 -383 1
-383 -2 0 -22 26 -43 58 -158 235 -194 291 -215 326 -10 17 -31 47 -46 66 -15
19 -50 64 -77 100 -26 36 -55 71 -62 79 -8 8 -24 30 -37 50 -12 20 -45 62 -71
93 -73 85 -126 154 -159 208 -29 47 -173 262 -274 409 -28 40 -66 96 -83 124
-38 59 -43 66 -125 189 -171 254 -335 461 -483 608 -164 164 -325 301 -386
330 -70 34 -75 35 -92 18z"/>
<path fill="#ffffff" stroke="none" d="M11432 26022 c37 -21 173 -139 254
-219 7 -7 16 -13 21 -13 17 -2 220 -226 291 -322 23 -31 53 -68 66 -83 30 -32
196 -276 314 -460 28 -44 55 -84 59 -90 4 -5 26 -37 48 -70 22 -33 49 -72 60
-86 22 -29 25 -33 93 -135 120 -182 143 -214 198 -281 32 -40 82 -105 111
-146 29 -40 64 -86 78 -101 50 -54 115 -145 291 -408 61 -92 127 -188 147
-215 20 -28 37 -63 39 -83 2 -27 10 -38 38 -53 24 -12 49 -42 78 -90 24 -40
72 -117 107 -172 35 -55 100 -160 145 -234 45 -73 86 -138 91 -145 8 -9 153
-232 284 -436 23 -36 70 -112 105 -170 35 -58 127 -202 205 -320 78 -118 148
-226 155 -239 16 -31 252 -383 291 -436 40 -53 119 -174 119 -181 0 -3 44 -71
98 -151 101 -152 172 -262 172 -269 0 -3 8 -17 19 -32 10 -15 38 -58 62 -97
24 -38 46 -72 49 -75 8 -7 104 -155 165 -255 28 -44 69 -107 92 -140 23 -33
58 -91 78 -129 21 -38 74 -124 120 -190 45 -67 126 -191 180 -276 54 -85 114
-180 133 -210 44 -68 66 -103 127 -205 58 -96 203 -316 265 -401 25 -34 52
-75 61 -90 9 -16 69 -109 133 -207 65 -99 116 -180 114 -181 -34 -23 -111 -29
-418 -32 -184 -2 -438 -8 -565 -14 -126 -6 -372 -12 -545 -15 -283 -4 -574
-24 -700 -50 -14 -3 -142 -7 -285 -10 -143 -3 -303 -9 -355 -14 -52 -4 -117
-6 -145 -4 -55 4 -324 -9 -680 -33 -263 -18 -391 -20 -531 -5 -55 5 -193 15
-309 22 -198 11 -219 10 -360 -10 -82 -12 -217 -26 -298 -31 -145 -9 -287 -29
-357 -50 -54 -16 -369 -32 -735 -37 -684 -8 -693 -8 -799 -32 -87 -18 -126
-21 -325 -19 -139 1 -255 -4 -301 -11 -94 -15 -315 -31 -525 -37 -200 -5 -396
-20 -545 -42 -90 -13 -178 -16 -405 -14 -159 1 -312 5 -340 7 -27 3 -142 10
-255 14 -113 5 -218 14 -235 20 -53 18 -316 40 -445 37 -93 -2 -136 -7 -168
-21 -55 -23 -67 -12 -49 41 8 21 17 55 21 74 9 49 11 59 45 195 17 66 31 125
31 131 0 12 83 196 100 224 37 59 102 184 119 230 12 30 26 63 31 72 6 10 10
22 10 27 0 5 18 49 40 98 37 79 68 141 161 323 15 30 34 74 41 97 7 24 16 43
20 43 4 0 8 7 8 15 0 8 3 15 8 15 4 0 16 17 27 38 10 20 29 51 42 69 13 17 23
38 23 47 0 8 6 19 13 23 12 8 107 155 107 167 0 10 80 137 100 159 11 11 20
25 20 30 0 5 19 34 43 65 51 68 79 111 146 234 13 23 27 45 30 48 4 3 27 39
51 80 24 41 83 133 130 204 47 70 96 147 109 170 13 22 41 68 62 102 21 33 39
64 39 67 0 6 56 90 81 122 46 56 58 74 73 100 21 38 28 50 104 165 53 81 98
143 142 197 5 6 19 30 31 52 11 22 27 45 35 52 8 6 14 16 14 21 0 5 9 19 21
31 12 12 28 33 37 47 9 14 31 43 49 66 18 23 33 45 33 50 0 4 9 17 21 29 19
19 179 259 179 269 0 3 19 30 42 61 23 31 43 64 44 73 2 9 9 21 17 27 7 5 22
26 33 45 10 19 22 37 25 40 4 3 15 21 25 40 11 19 30 50 43 68 12 18 40 63 60
100 82 146 94 168 105 182 11 14 33 53 59 103 7 12 22 36 35 54 12 17 22 38
22 47 0 8 13 30 28 48 16 18 31 40 34 48 3 8 26 46 52 84 25 38 46 73 46 77 0
5 18 36 40 68 22 32 40 62 40 67 0 4 9 17 19 28 11 12 37 53 58 92 48 90 112
196 127 209 6 6 18 22 26 37 52 93 145 244 152 246 4 2 8 9 8 16 0 7 23 44 50
83 28 39 50 76 50 82 0 6 4 11 9 11 5 0 14 13 21 29 6 16 25 41 41 57 16 15
29 33 29 39 0 7 11 24 24 38 14 15 27 34 30 44 3 10 26 41 51 68 24 28 45 54
45 59 0 5 21 41 48 78 26 38 50 75 53 81 35 71 98 178 147 252 26 38 58 90 71
115 13 25 41 65 62 89 22 24 39 49 39 56 0 7 6 15 13 18 7 2 23 26 36 53 32
67 101 174 112 174 5 0 9 6 9 13 0 7 13 31 30 53 16 21 30 44 30 49 0 6 15 29
33 52 56 74 72 97 88 134 13 28 69 112 117 174 24 32 103 162 128 210 8 17 23
44 34 60 10 17 19 38 19 48 1 9 4 17 9 17 4 0 27 27 52 60 24 33 47 60 50 60
3 0 26 -13 52 -28z"/>
<path fill="#ffffff" stroke="none" d="M16712 17730 c3 -47 9 -128 12 -180 4
-52 15 -180 26 -285 27 -269 47 -538 65 -850 8 -148 19 -346 24 -440 5 -93 12
-271 15 -395 6 -232 17 -383 42 -600 7 -69 16 -166 19 -217 2 -51 11 -135 20
-188 15 -94 23 -219 45 -655 13 -277 28 -532 40 -690 22 -298 30 -452 35 -715
3 -154 12 -433 20 -620 33 -749 35 -962 31 -2690 -4 -1695 -8 -1923 -35 -1974
-8 -15 -20 -17 -63 -14 -106 7 -284 26 -322 33 -41 9 -65 9 -1051 -14 -88 -2
-414 -7 -725 -11 -470 -5 -595 -3 -740 10 -96 8 -242 18 -325 22 -172 7 -653
-11 -860 -33 -77 -7 -142 -14 -145 -14 -7 0 -12 176 -15 545 -1 196 -7 316
-19 400 -13 95 -17 233 -22 655 -2 294 -9 604 -14 689 -6 85 -10 274 -11 420
-1 434 -16 933 -36 1136 -17 189 -19 276 -12 821 3 284 0 308 -40 303 -9 -2
-35 1 -59 5 -29 5 -47 4 -57 -4 -17 -14 -353 -45 -580 -54 -88 -4 -450 -9
-804 -12 -444 -3 -649 -8 -658 -16 -7 -6 -13 -23 -13 -39 0 -19 -5 -29 -14
-29 -24 0 -26 -12 -15 -136 6 -65 10 -324 10 -574 -1 -250 4 -554 10 -675 6
-121 10 -362 8 -535 -5 -576 -4 -684 8 -825 25 -281 41 -882 28 -1060 -3 -33
0 -134 5 -225 6 -91 13 -230 15 -310 3 -80 9 -188 15 -240 20 -206 23 -320 9
-320 -51 0 -322 -24 -464 -40 -93 -11 -206 -21 -250 -21 -44 -1 -170 -8 -280
-15 -110 -8 -263 -19 -340 -24 -147 -9 -1440 -6 -1680 5 -129 6 -155 4 -320
-25 -162 -28 -198 -31 -365 -30 -102 1 -216 2 -255 2 -38 -1 -75 4 -81 9 -8 6
-10 59 -6 178 3 102 -1 227 -9 317 -8 92 -12 245 -10 399 2 138 -2 304 -8 370
-6 66 -13 215 -16 330 -3 116 -8 280 -12 365 -4 85 -6 224 -5 309 2 85 -2 195
-8 245 -14 113 -16 150 -30 516 -6 162 -15 360 -20 440 -6 80 -12 181 -14 225
-3 44 -7 118 -10 165 -3 47 -8 137 -11 200 -11 253 -34 855 -40 1020 -6 193
-21 388 -35 465 -6 38 -24 432 -22 490 1 6 3 433 6 950 4 517 8 954 11 970 3
17 12 156 21 310 8 154 18 309 20 345 3 36 8 182 12 325 7 255 3 401 -17 640
-12 137 -30 552 -33 764 l-3 144 50 14 c105 31 425 21 605 -18 47 -10 245 -21
700 -39 275 -11 370 -7 620 26 69 9 235 20 370 24 246 7 391 17 659 46 106 11
187 14 310 8 149 -6 178 -4 281 16 125 24 226 29 765 35 355 4 746 22 770 37
18 10 229 38 415 54 102 8 221 22 265 31 110 21 222 21 410 1 330 -35 485 -40
665 -23 91 8 188 17 215 20 28 2 228 8 446 13 218 5 401 12 406 15 6 4 104 7
219 8 155 0 264 7 424 26 188 22 275 26 688 33 260 4 476 10 479 14 4 3 149 5
322 4 l316 -3 7 -85z"/>
<path fill="#ffffff" stroke="none" d="M12638 12086 c7 -7 2 -471 -6 -581 -4
-61 -4 -149 0 -195 5 -47 15 -155 23 -240 10 -96 19 -372 25 -730 6 -316 15
-678 20 -805 6 -126 13 -457 15 -735 3 -278 7 -516 10 -530 19 -101 28 -302
29 -656 l2 -412 -59 -6 c-33 -3 -105 -6 -161 -6 -56 0 -184 -4 -286 -9 -102
-6 -396 -13 -655 -16 -445 -6 -729 -16 -875 -31 l-65 -6 -2 73 c-1 41 -9 142
-17 224 -23 220 -37 638 -41 1165 -3 451 -15 737 -36 869 -6 40 -7 149 -2 290
11 343 9 580 -6 986 -9 227 -12 459 -8 601 7 226 -10 617 -28 675 -9 26 64 30
660 34 889 7 1102 14 1295 45 49 8 158 5 168 -4z"/>
<path fill="#000000" stroke="none" d="M14980 17220 c-80 -4 -179 -14 -220
-23 -176 -38 -310 -61 -375 -64 -38 -2 -79 -8 -90 -13 -11 -5 -33 -11 -50 -13
-83 -12 -357 -61 -488 -87 -81 -17 -164 -30 -185 -30 -20 0 -53 -5 -72 -10
-19 -6 -80 -13 -135 -16 -91 -6 -114 -13 -115 -37 0 -4 12 -13 26 -19 19 -9
46 -9 112 0 48 7 143 19 212 27 69 8 170 24 225 35 55 11 123 25 150 30 28 5
99 18 159 29 61 12 118 21 127 21 17 0 18 -18 19 -232 1 -128 3 -276 5 -328 2
-52 7 -170 10 -261 l6 -166 -208 -8 c-267 -10 -238 -10 -388 4 -199 19 -409
29 -419 20 -5 -4 -6 -19 -2 -33 6 -25 8 -26 93 -26 48 0 125 -4 172 -10 250
-28 313 -31 479 -19 92 7 193 9 223 5 l56 -7 8 -232 c5 -128 9 -346 9 -484 l1
-253 -65 -1 c-36 0 -96 -2 -135 -4 -38 -2 -137 -6 -220 -10 -82 -3 -195 -12
-249 -20 -55 -8 -159 -15 -232 -15 -130 0 -134 1 -138 23 -10 45 -18 377 -15
597 2 124 2 266 2 315 -4 331 -1 616 7 779 6 111 6 194 1 199 -5 5 -18 7 -30
5 -21 -3 -22 -6 -28 -298 -15 -693 -6 -1653 16 -1688 4 -7 23 -7 51 -2 25 5
80 9 123 10 42 0 179 9 305 19 125 11 313 22 418 24 l192 5 11 -24 c14 -31 34
-31 59 0 17 22 27 25 108 26 79 2 374 19 598 35 43 3 101 10 129 15 34 7 62 6
89 -2 30 -9 41 -9 51 1 17 17 25 146 19 306 -6 156 -6 197 -3 474 l2 193 62
-5 c34 -4 73 -8 87 -9 23 -3 25 0 25 37 l0 40 -57 -3 c-31 -2 -70 -1 -86 3
l-29 6 -12 165 c-7 91 -17 178 -22 192 -7 17 -11 173 -12 402 -2 318 -4 377
-17 391 -19 21 -151 28 -350 19z"/>
<path fill="#ffffff" stroke="none" d="M15272 17152 c6 -6 10 -134 10 -329 0
-175 4 -340 9 -368 22 -130 28 -188 34 -291 l6 -111 -68 -7 c-95 -9 -852 -10
-884 -1 l-27 7 -7 483 c-4 266 -5 495 -1 509 5 19 13 26 30 26 13 0 82 11 152
24 71 13 172 32 224 42 161 30 498 40 522 16z"/>
<path fill="#ffffff" stroke="none" d="M15329 15966 c12 -7 12 -38 5 -185 -5
-97 -7 -279 -6 -404 2 -126 1 -244 -2 -263 -6 -32 -9 -34 -46 -34 -21 0 -81
-6 -132 -14 -93 -15 -389 -34 -630 -43 l-127 -4 -7 37 c-4 21 -3 89 1 153 11
156 10 241 -3 401 -7 74 -12 187 -12 250 l0 115 473 0 c262 0 478 -4 486 -9z"/>
<path fill="#000000" stroke="none" d="M9100 16923 c-72 -3 -350 -32 -495 -53
-92 -13 -174 -19 -320 -25 -156 -6 -286 -33 -426 -90 -111 -45 -116 -47 -191
-41 -71 6 -77 5 -83 -14 -3 -11 -3 -25 0 -30 4 -6 8 -46 10 -88 8 -194 16
-245 53 -332 33 -78 36 -94 39 -200 2 -63 8 -176 14 -250 5 -74 12 -184 15
-245 3 -60 9 -126 14 -145 44 -171 52 -228 49 -360 -1 -74 -2 -148 -2 -165 -1
-16 5 -68 11 -114 9 -62 9 -102 1 -154 -9 -56 -8 -71 3 -78 13 -9 20 -8 98 11
25 7 68 16 95 21 155 28 206 39 259 58 33 12 67 21 78 21 10 0 71 18 135 40
65 22 131 40 146 40 16 0 60 9 97 21 96 29 113 25 122 -31 4 -24 17 -53 28
-65 l21 -20 19 25 c24 30 25 46 4 54 -10 4 -14 16 -12 38 l3 33 65 1 c90 1
367 30 535 56 88 14 193 22 282 23 78 1 145 4 148 7 4 3 1 25 -5 49 -23 83
-29 146 -34 359 -8 268 -15 415 -22 458 -5 25 -3 32 9 32 39 0 32 52 -12 102
-22 26 -30 47 -36 98 -9 87 -35 252 -41 261 -2 4 -8 27 -13 51 -5 24 -18 78
-29 121 -11 42 -28 128 -37 190 -9 61 -23 139 -31 173 -8 33 -14 70 -14 82 0
12 -8 25 -17 30 -18 10 -272 38 -393 45 -36 1 -99 2 -140 0z"/>
<path fill="#ffffff" stroke="none" d="M9454 16845 c60 -9 115 -20 122 -26 14
-12 37 -109 54 -229 14 -101 38 -217 50 -245 4 -11 11 -29 15 -40 11 -33 43
-217 50 -285 4 -36 13 -79 20 -96 19 -47 6 -54 -104 -54 -140 0 -336 -19 -413
-41 -36 -10 -90 -19 -120 -19 -29 0 -84 -7 -123 -16 -107 -23 -230 -30 -240
-13 -5 7 -10 45 -11 84 -1 38 -5 102 -9 140 -3 39 -8 99 -10 135 -3 36 -10
103 -17 150 -6 47 -12 179 -12 293 -1 205 -1 208 -23 213 -32 8 -43 -3 -43
-41 0 -31 -3 -34 -27 -32 -24 2 -28 -2 -31 -27 -3 -27 -2 -28 27 -24 39 6 38
12 46 -217 8 -214 9 -220 24 -310 9 -57 32 -366 27 -371 -4 -5 -306 -22 -322
-19 -10 2 -73 9 -139 15 -66 7 -133 16 -149 21 -16 5 -70 11 -120 14 -102 6
-130 -4 -124 -47 3 -21 8 -23 48 -20 54 3 229 -15 285 -30 22 -6 148 -11 285
-12 l245 -1 -3 -28 c-2 -16 1 -50 7 -75 6 -26 15 -112 21 -192 10 -134 25
-250 50 -391 5 -30 10 -83 10 -117 0 -62 0 -62 -29 -62 -16 0 -42 -5 -56 -10
-15 -6 -61 -17 -103 -26 -43 -8 -115 -28 -162 -44 -47 -15 -114 -34 -150 -41
-36 -7 -81 -19 -100 -27 -47 -20 -339 -71 -346 -60 -3 4 -8 140 -10 301 -3
160 -10 310 -15 332 -40 178 -49 232 -54 315 -3 52 -8 113 -10 135 -3 22 -9
114 -15 205 -6 91 -17 242 -26 335 -15 155 -18 172 -39 190 -19 17 -23 31 -25
90 -5 127 -5 125 39 125 38 0 65 9 166 55 127 57 331 95 516 95 59 0 143 7
186 15 43 8 103 15 133 15 30 0 87 5 125 11 195 31 429 32 629 4z"/>
<path fill="#ffffff" stroke="none" d="M9795 15770 c4 -17 10 -189 15 -383 5
-194 13 -371 19 -395 6 -24 9 -47 6 -53 -4 -5 -50 -9 -103 -9 -53 0 -115 -5
-137 -10 -100 -25 -592 -78 -700 -76 l-40 1 -2 60 c-2 76 -12 202 -18 235 -2
14 -9 48 -14 75 -5 28 -12 79 -15 115 -3 36 -11 101 -16 145 -22 165 -24 216
-9 226 8 5 46 9 84 9 39 0 84 4 102 9 17 5 83 14 145 21 62 6 129 16 148 22
45 14 284 35 422 37 l106 1 7 -30z"/>
<path fill="#000000" stroke="none" d="M10886 9451 c-4 -6 -32 -29 -62 -51
-72 -54 -87 -85 -82 -171 3 -62 7 -72 37 -103 49 -50 117 -64 197 -41 72 21
79 26 110 87 18 35 24 64 24 109 0 77 -24 119 -83 148 -53 26 -132 38 -141 22z"/>
<path fill="#ffffff" stroke="none" d="M11048 9289 c3 -58 -23 -109 -68 -131
-135 -66 -243 69 -138 174 12 12 41 23 74 27 30 4 57 11 61 14 3 4 20 -4 37
-17 25 -19 32 -32 34 -67z"/>
<path fill="#000000" stroke="none" d="M14728 24709 c-10 -6 -18 -22 -18 -37
0 -15 -4 -43 -10 -62 -29 -103 -46 -901 -25 -1215 11 -166 10 -766 -2 -970
-10 -168 -10 -633 0 -707 7 -45 13 -58 29 -64 37 -11 49 14 37 81 -11 63 -13
610 -3 627 11 17 14 916 4 1031 -8 100 -24 403 -23 437 1 8 4 85 7 170 4 85 9
162 11 170 3 8 9 94 14 190 6 96 16 208 23 248 15 91 0 127 -44 101z"/>
<path fill="#000000" stroke="none" d="M17580 14090 c0 -5 6 -10 14 -10 8 0
18 5 21 10 3 6 -3 10 -14 10 -12 0 -21 -4 -21 -10z"/>
<path fill="#000000" stroke="none" d="M4890 5040 c-12 -8 -11 -10 8 -10 12 0
22 5 22 10 0 13 -11 13 -30 0z"/>
</g>
</svg>
