<?xml version="1.0" standalone="no"?>
<!DOCTYPE svg PUBLIC "-//W3C//DTD SVG 20010904//EN"
 "http://www.w3.org/TR/2001/REC-SVG-20010904/DTD/svg10.dtd">
<svg version="1.0" xmlns="http://www.w3.org/2000/svg"
 width="2664.000000pt" height="3379.000000pt" viewBox="0 0 2664.000000 3379.000000"
 preserveAspectRatio="xMidYMid meet">
<metadata>
Created by potrace 1.14, written by Peter Selinger 2001-2017
</metadata>
<g transform="translate(0.000000,3379.000000) scale(0.100000,-0.100000)"
fill="#000000" stroke="none">
<path fill="#000000" stroke="none" d="M0 33693 c0 -94 0 -96 19 -79 10 10 21
13 24 9 3 -5 -5 -17 -19 -27 l-24 -19 0 -1458 c0 -1156 3 -1459 13 -1463 9 -5
9 -7 -1 -12 -18 -8 -18 -2624 1 -2624 28 1 39 17 32 49 -4 17 -10 31 -14 31
-9 0 -7 77 2 86 4 4 7 0 7 -10 0 -10 5 -14 11 -10 8 4 8 9 0 17 -14 14 -14 60
-1 73 5 5 6 24 0 48 -5 22 -6 52 -3 68 4 19 1 28 -7 28 -8 0 -11 9 -7 26 3 18
1 24 -9 20 -15 -6 -20 19 -5 28 4 3 6 17 3 31 -2 14 0 25 6 25 6 0 13 -12 15
-27 3 -22 4 -20 4 7 -1 20 3 41 7 48 9 16 -6 15 -23 0 -11 -11 -12 -10 -6 2 4
8 14 22 22 31 10 12 11 23 3 43 -5 15 -8 49 -5 76 3 27 0 52 -5 55 -5 3 -7 19
-4 34 4 16 1 32 -5 35 -6 4 -11 27 -11 52 0 25 4 43 9 40 5 -3 11 0 14 7 6 18
1 185 -8 230 -4 21 -3 37 2 37 5 0 9 25 9 56 -1 31 2 58 6 61 12 7 9 20 -8 38
-13 13 -14 18 -3 31 10 13 10 17 -2 25 -9 5 -10 9 -2 9 8 0 10 13 7 41 -3 27
-1 39 6 34 5 -3 10 1 10 10 0 9 -4 13 -10 10 -6 -4 -10 9 -10 32 0 28 3 34 10
23 8 -12 10 -9 10 13 0 16 -4 26 -9 22 -5 -3 -9 9 -9 27 1 18 -2 53 -7 78 -8
43 -8 44 11 30 15 -11 16 -11 7 0 -7 8 -13 35 -13 60 0 25 -5 51 -11 57 -13
13 7 113 25 126 8 5 8 9 0 15 -15 10 -25 54 -15 66 15 19 20 61 11 76 -8 12
-10 10 -10 -7 0 -13 -4 -23 -10 -23 -5 0 -10 11 -10 25 0 16 6 25 15 25 8 0
15 7 15 15 0 8 -5 15 -10 15 -7 0 -7 7 0 21 7 11 8 28 5 37 -4 9 -9 41 -11 70
-3 40 0 52 11 52 20 0 19 17 -2 29 -14 8 -15 13 -5 19 10 7 10 15 2 38 -8 20
-8 30 -1 32 6 2 11 13 11 24 0 16 -3 18 -13 9 -11 -8 -13 -5 -9 19 3 19 9 27
18 23 17 -6 18 11 1 37 -10 17 -9 22 3 30 10 6 11 10 3 10 -8 0 -13 13 -13 30
0 17 5 30 10 30 6 0 10 11 10 25 0 14 -3 25 -7 25 -5 0 -9 17 -10 38 -1 20 -3
58 -5 85 -2 26 1 47 5 47 5 0 6 8 3 18 -7 23 -8 86 -2 145 3 28 1 45 -5 42 -5
-4 -9 -16 -10 -28 -1 -18 -2 -16 -10 7 -5 20 -4 34 3 43 13 17 17 83 4 83 -5
0 -2 8 6 18 20 22 18 143 -3 168 -12 16 -12 17 3 11 19 -7 25 7 8 18 -15 9
-12 25 4 25 9 0 13 13 13 39 0 32 -3 38 -16 34 -13 -5 -14 -3 -3 8 17 18 15
39 -3 39 -22 0 -18 17 5 23 23 6 17 37 -6 37 -21 0 -17 20 4 20 16 1 16 1 0
14 -22 16 -24 38 -4 30 11 -4 13 0 9 17 -4 15 -3 20 5 15 17 -10 15 3 -3 21
-11 11 -13 19 -5 27 5 7 7 16 2 20 -4 4 1 12 11 17 21 12 22 45 2 53 -12 4
-14 14 -9 38 4 18 6 42 5 53 -1 11 -1 34 0 50 1 37 1 51 -5 93 -2 17 0 32 5
32 14 0 10 43 -6 64 -8 11 -15 27 -15 35 1 13 4 12 17 -4 15 -19 15 -19 8 5
-4 14 -6 36 -6 49 1 13 -6 29 -15 36 -16 11 -15 13 2 26 14 10 19 25 17 54 -1
22 -2 40 -2 40 -1 0 -3 35 -5 78 -2 44 0 75 5 71 5 -3 9 2 9 10 0 9 -6 16 -12
16 -8 0 -9 3 -3 8 6 4 11 37 12 75 2 58 0 67 -15 67 -16 1 -16 1 1 14 16 13
25 59 9 54 -4 -2 -8 2 -10 7 -1 6 6 11 18 13 25 4 26 18 1 25 -14 3 -20 16
-23 46 -3 35 -1 41 15 41 13 0 17 5 14 18 -14 51 -17 95 -7 107 8 10 8 15 0
20 -7 5 -9 29 -4 74 4 47 2 75 -6 91 -11 20 -10 22 4 17 21 -8 22 31 1 47 -19
14 -24 161 -6 194 6 12 9 22 7 22 -3 0 -1 11 4 24 6 18 5 28 -6 36 -16 14 -20
45 -4 35 6 -3 10 -2 10 4 0 5 -4 13 -10 16 -5 3 -10 1 -10 -4 0 -6 -7 -11 -15
-11 -19 0 -20 16 -1 23 18 7 29 79 13 89 -32 20 -37 9 -37 -89z"/>
<path fill="#ffffff" stroke="none" d="M40 30090 c0 -5 -4 -10 -10 -10 -5 0
-10 5 -10 10 0 6 5 10 10 10 6 0 10 -4 10 -10z"/>
<path fill="#ffffff" stroke="none" d="M40 29006 c0 -3 -4 -8 -10 -11 -5 -3
-10 -1 -10 4 0 6 5 11 10 11 6 0 10 -2 10 -4z"/>
<path fill="#ffffff" stroke="none" d="M30 28604 c0 -8 -4 -12 -10 -9 -5 3
-10 10 -10 16 0 5 5 9 10 9 6 0 10 -7 10 -16z"/>
<path fill="#000000" stroke="none" d="M26475 32860 c3 -5 11 -10 16 -10 6 0
7 5 4 10 -3 6 -11 10 -16 10 -6 0 -7 -4 -4 -10z"/>
<path fill="#000000" stroke="none" d="M22215 32350 c-11 -5 -46 -9 -78 -9
-33 -1 -82 -7 -110 -15 -29 -8 -90 -22 -137 -32 -47 -9 -89 -20 -95 -24 -5 -4
-31 -13 -58 -20 -26 -7 -50 -17 -53 -21 -3 -5 -16 -9 -28 -9 -13 0 -29 -7 -36
-15 -7 -8 -20 -15 -29 -15 -22 0 -188 -95 -222 -126 -14 -13 -33 -24 -42 -24
-10 0 -20 -7 -23 -15 -8 -20 -18 -19 -46 5 -61 52 -109 87 -147 110 -23 14
-61 40 -83 58 -22 17 -46 32 -53 32 -7 0 -26 7 -41 15 -16 8 -40 15 -54 15
-15 0 -31 5 -36 10 -31 31 -357 -7 -473 -55 -79 -32 -183 -66 -203 -66 -10 0
-18 -5 -18 -10 0 -6 -19 -19 -42 -30 -24 -11 -65 -34 -93 -51 -27 -17 -66 -36
-85 -43 -42 -15 -223 -143 -262 -186 -29 -32 -53 -37 -61 -15 -21 53 -182 76
-528 78 -154 0 -229 -10 -349 -47 -25 -7 -60 -17 -77 -20 -18 -4 -35 -11 -38
-16 -4 -5 -17 -9 -30 -9 -13 0 -27 -4 -30 -10 -3 -5 -14 -10 -24 -10 -22 0
-176 -74 -186 -89 -9 -16 -84 -53 -94 -46 -5 3 -7 -4 -4 -15 3 -13 0 -20 -8
-20 -25 -1 -209 -193 -209 -218 0 -5 -9 -17 -20 -27 -11 -10 -20 -23 -20 -28
0 -6 -11 -24 -24 -41 -13 -17 -27 -42 -31 -56 -4 -14 -15 -41 -25 -60 -10 -19
-24 -53 -31 -75 -18 -60 -38 -95 -54 -95 -12 0 -15 -17 -15 -82 0 -50 -8 -113
-20 -157 -27 -100 -27 -222 1 -309 32 -104 58 -121 299 -191 141 -42 272 -64
446 -77 105 -7 183 10 232 51 31 26 66 33 78 14 7 -12 61 -36 149 -67 74 -26
178 -45 400 -73 328 -41 465 -28 585 56 25 18 52 35 60 39 36 16 58 33 86 65
38 42 52 38 84 -23 50 -98 152 -160 295 -177 100 -12 348 -7 367 8 7 5 33 15
56 22 24 7 59 21 78 32 19 10 39 19 44 19 9 0 25 -26 53 -87 25 -52 71 -70
222 -87 22 -2 60 -11 85 -20 25 -9 57 -16 72 -16 15 0 30 -5 33 -10 4 -6 10
-8 15 -5 11 7 187 -30 290 -62 93 -27 145 -52 202 -97 41 -31 70 -30 117 3 14
10 56 33 93 50 64 30 72 31 180 29 62 -2 136 3 163 9 72 17 173 42 220 55 22
7 44 11 49 9 6 -1 19 2 30 7 12 6 44 16 71 22 176 43 276 103 331 196 20 34
27 62 31 126 5 72 9 86 30 105 34 30 72 40 177 47 53 4 106 14 131 25 50 22
177 147 205 200 10 21 26 43 34 50 9 8 16 20 16 27 0 8 4 22 10 32 33 61 42
96 38 145 -5 63 -44 164 -75 192 -34 32 -38 61 -11 87 60 58 138 157 144 183
4 17 9 120 11 230 5 252 -12 380 -61 455 -23 35 -39 50 -61 54 -252 45 -499
22 -663 -64 -43 -22 -81 -40 -86 -40 -10 0 -39 29 -51 53 -5 11 -19 25 -30 31
-11 6 -46 32 -77 59 -31 26 -62 47 -68 47 -6 0 -32 16 -57 35 -26 20 -58 38
-72 42 -14 3 -32 11 -40 17 -7 6 -19 11 -25 11 -6 0 -24 7 -41 16 -55 30 -417
52 -470 29z"/>
<path fill="#ffffff" stroke="none" d="M22465 32280 c8 -6 24 -10 37 -9 41 5
127 -12 171 -34 23 -11 49 -20 57 -20 8 0 26 -8 39 -19 13 -10 29 -18 35 -18
6 0 24 -11 40 -25 16 -14 36 -25 45 -25 9 0 37 -20 62 -43 26 -23 63 -55 83
-72 19 -16 45 -51 56 -77 12 -28 27 -48 36 -48 8 0 30 15 47 33 80 83 191 123
380 139 121 9 154 9 224 -5 110 -21 127 -34 154 -115 20 -61 21 -86 20 -290
-1 -259 -4 -272 -92 -362 -113 -114 -122 -145 -64 -209 79 -87 98 -196 52
-291 -38 -77 -103 -167 -162 -223 -47 -45 -93 -67 -141 -67 -43 0 -210 -33
-236 -46 -40 -21 -59 -65 -68 -164 -5 -49 -13 -96 -18 -107 -32 -59 -175 -144
-262 -158 -25 -3 -72 -15 -105 -25 -154 -47 -366 -92 -398 -85 -18 5 -64 8
-103 8 -64 0 -79 -4 -164 -46 -51 -26 -100 -47 -108 -47 -8 0 -37 14 -65 31
-73 45 -66 42 -317 113 -30 8 -95 22 -145 30 -49 8 -119 22 -155 30 -36 8 -99
22 -140 30 -41 9 -77 21 -78 26 -2 6 -11 17 -19 25 -8 9 -25 41 -37 73 -28 72
-56 80 -113 33 -21 -17 -46 -31 -55 -31 -10 0 -18 -4 -18 -9 0 -32 -263 -54
-438 -37 -86 9 -177 51 -192 90 -4 12 -15 28 -25 36 -9 7 -26 32 -37 54 -46
91 -70 92 -167 2 -69 -64 -94 -83 -123 -92 -10 -4 -18 -10 -18 -14 0 -8 -20
-15 -135 -50 -61 -18 -206 -17 -350 3 -71 10 -139 20 -150 23 -11 2 -33 6 -50
8 -204 27 -201 27 -328 84 -69 31 -78 40 -84 89 -7 49 -20 64 -50 58 -35 -6
-37 -9 -39 -65 -1 -42 -6 -54 -30 -72 -15 -13 -39 -26 -53 -31 -30 -8 -319 1
-335 11 -6 3 -31 10 -56 14 -119 19 -167 30 -195 42 -16 8 -44 17 -62 21 -76
16 -137 60 -163 117 -35 80 -34 253 2 253 33 0 42 23 44 108 2 170 27 267 101
400 18 33 33 61 33 64 0 2 33 46 74 97 70 88 189 196 259 235 92 51 138 72
197 91 36 12 79 27 95 35 98 45 293 67 535 61 286 -7 370 -29 370 -100 0 -30
28 -41 64 -25 14 7 47 41 73 76 25 34 52 63 59 63 7 0 17 6 21 13 7 12 54 41
139 86 16 9 43 26 60 37 16 12 36 24 44 27 8 4 29 16 45 27 17 11 37 23 45 26
70 30 142 58 180 68 25 7 59 20 75 28 41 21 199 58 287 67 48 5 91 3 128 -5
79 -17 162 -45 181 -61 8 -7 19 -13 23 -13 4 0 13 -6 21 -12 30 -29 56 -48 66
-48 5 0 22 -11 36 -24 14 -13 37 -30 52 -38 30 -15 70 -58 71 -74 0 -7 9 -14
20 -17 18 -5 40 8 90 51 34 30 156 115 176 122 12 5 59 26 105 48 91 42 278
103 319 103 8 0 58 9 110 19 120 24 121 24 268 28 82 2 128 -1 137 -8z"/>
<path fill="#000000" stroke="none" d="M8260 32309 c-52 -5 -112 -14 -133 -20
-20 -7 -40 -9 -43 -6 -4 3 -16 1 -28 -6 -22 -12 -26 -13 -89 -23 -21 -4 -42
-14 -47 -24 -5 -10 -26 -20 -49 -24 -21 -3 -63 -18 -92 -32 -30 -14 -83 -40
-119 -57 -36 -18 -79 -43 -97 -57 -18 -14 -46 -36 -64 -50 -18 -14 -39 -33
-48 -42 -8 -10 -19 -18 -22 -18 -16 0 -89 -55 -89 -67 0 -7 -7 -13 -15 -13 -8
0 -15 -7 -15 -15 0 -8 -9 -15 -20 -15 -11 0 -20 -4 -20 -10 0 -5 -21 -32 -47
-58 -27 -27 -53 -57 -60 -68 -6 -10 -17 -18 -23 -16 -7 1 -18 -2 -25 -8 -10
-8 -20 2 -45 42 -34 56 -137 188 -154 200 -6 3 -27 21 -46 38 -19 17 -49 37
-65 44 -17 7 -37 20 -46 28 -8 8 -39 23 -69 33 -30 10 -59 21 -65 25 -5 4 -25
11 -43 15 -18 4 -36 13 -39 21 -4 11 -9 12 -18 4 -10 -8 -15 -8 -20 0 -4 6
-13 9 -20 6 -8 -3 -29 0 -47 6 -18 6 -116 12 -218 13 -126 2 -184 7 -182 14 5
22 -19 10 -28 -13 -8 -22 -15 -24 -63 -24 -29 0 -69 -7 -88 -15 -19 -9 -52
-17 -74 -19 -28 -1 -48 -10 -68 -30 -16 -15 -35 -28 -42 -28 -8 0 -35 -11 -61
-25 -26 -14 -49 -23 -52 -20 -3 2 -25 -14 -50 -35 -25 -22 -49 -40 -53 -40 -5
0 -9 -7 -9 -15 0 -8 -8 -15 -18 -15 -10 0 -25 -8 -33 -18 -9 -11 -25 -25 -35
-33 -11 -8 -28 -31 -37 -51 -10 -21 -22 -38 -27 -38 -6 0 -10 -7 -10 -15 0 -7
-6 -18 -12 -22 -7 -4 -21 -24 -32 -45 -10 -20 -26 -38 -36 -41 -13 -3 -20 -18
-25 -51 -4 -25 -11 -49 -16 -52 -19 -11 -41 -69 -45 -118 -6 -66 -10 -76 -30
-76 -17 0 -114 95 -114 111 0 5 -4 9 -9 9 -6 0 -23 12 -38 26 -31 29 -64 44
-97 44 -12 0 -27 5 -34 12 -6 6 -24 12 -39 13 -15 1 -57 7 -93 12 -75 12 -171
7 -181 -9 -4 -6 -11 -8 -17 -4 -6 3 -24 -5 -40 -19 -16 -14 -38 -25 -48 -25
-24 -1 -47 -18 -63 -47 -7 -14 -17 -20 -27 -16 -10 4 -17 -2 -21 -15 -3 -12
-18 -27 -34 -34 -16 -7 -27 -18 -25 -24 2 -6 -16 -30 -40 -54 -24 -23 -46 -51
-49 -60 -3 -10 -15 -20 -27 -24 -12 -3 -19 -8 -16 -12 4 -3 -4 -24 -18 -45
-13 -21 -24 -43 -24 -48 0 -5 -4 -11 -8 -13 -15 -6 -53 -68 -43 -68 16 0 14
-16 -4 -34 -8 -8 -15 -22 -15 -30 0 -9 -5 -16 -11 -16 -7 0 -9 -10 -7 -25 3
-14 1 -28 -4 -31 -4 -3 -6 -9 -4 -13 3 -4 -4 -47 -14 -95 -12 -55 -20 -127
-20 -190 0 -153 0 -157 -10 -177 -7 -12 -7 -20 0 -24 15 -9 12 -95 -3 -101
-20 -7 -17 -34 4 -34 17 0 29 -27 29 -66 0 -12 6 -24 13 -27 15 -6 23 -123 9
-140 -10 -13 -24 -106 -23 -147 2 -38 33 -113 53 -128 10 -7 18 -18 18 -23 0
-10 9 -22 40 -57 9 -9 28 -33 42 -52 36 -48 126 -140 137 -140 5 0 13 -9 16
-20 3 -11 12 -20 19 -20 7 0 22 -13 34 -30 13 -16 29 -30 37 -30 8 0 15 -4 15
-10 0 -5 5 -10 10 -10 13 0 140 -61 189 -91 40 -24 124 -90 129 -101 2 -5 8
-8 13 -8 5 0 32 -16 60 -35 85 -60 131 -85 274 -150 29 -13 100 -31 135 -34 8
-1 36 -4 61 -7 50 -6 159 12 159 26 0 5 9 12 20 15 30 9 70 53 70 75 0 10 5
22 10 25 14 9 13 91 -2 132 -6 18 -9 35 -5 39 7 7 118 -70 173 -120 98 -90
240 -146 369 -146 50 0 87 4 91 11 4 7 20 8 41 4 20 -3 40 -2 47 4 7 6 35 14
62 17 27 4 67 15 88 25 22 11 47 19 56 19 9 0 25 9 34 19 10 11 28 22 40 25
20 5 76 76 76 96 0 4 10 26 21 48 15 27 30 42 48 45 14 3 38 9 54 13 17 4 70
-4 140 -20 101 -23 312 -48 322 -38 2 3 62 6 132 7 143 3 167 5 270 30 42 11
82 27 97 41 14 13 29 24 34 24 7 0 50 45 112 119 11 13 20 31 20 38 0 8 9 27
19 42 11 15 22 43 26 64 4 20 18 48 32 63 20 22 30 25 61 21 67 -9 226 -47
262 -61 77 -32 365 -50 411 -25 10 5 60 15 111 23 91 13 111 19 213 59 50 19
125 81 125 103 0 6 7 25 15 40 8 16 15 55 15 86 0 31 4 59 8 62 5 3 28 -2 53
-11 48 -16 280 -23 379 -11 105 13 270 73 270 98 0 6 8 10 18 10 17 0 42 32
104 129 9 14 17 38 17 54 1 15 6 27 11 27 6 0 10 11 10 24 0 14 4 27 9 31 6 3
13 26 17 50 10 72 -33 214 -73 238 -7 4 -13 13 -13 19 0 5 -11 19 -25 30 -14
11 -25 25 -25 32 0 8 27 42 60 76 33 34 60 67 60 71 0 5 7 9 15 9 8 0 15 5 15
11 0 11 64 122 87 150 7 8 13 28 13 42 0 15 5 27 11 27 7 0 9 10 5 25 -4 15 1
37 15 61 19 34 20 49 16 153 -4 113 -24 214 -52 276 -7 17 -17 43 -21 58 -3
16 -13 31 -20 34 -8 3 -14 12 -14 19 0 20 -28 63 -62 97 -15 15 -28 31 -28 36
0 14 -96 80 -127 87 -15 4 -34 14 -42 21 -23 23 -199 15 -289 -14 -40 -13 -78
-23 -85 -23 -7 0 -32 -9 -55 -20 -22 -11 -45 -20 -50 -20 -5 0 -21 -9 -36 -21
-14 -11 -30 -18 -34 -15 -5 3 -20 -6 -32 -19 -13 -14 -31 -25 -40 -25 -9 0
-26 -11 -39 -24 -36 -39 -67 -25 -82 38 -6 28 -17 62 -25 76 -7 14 -15 32 -18
40 -21 53 -84 138 -141 189 -21 20 -50 46 -62 59 -13 12 -28 22 -33 22 -5 0
-34 14 -64 31 -31 16 -60 28 -65 24 -6 -3 -14 2 -19 11 -7 13 -25 18 -70 19
-33 2 -65 6 -71 9 -19 12 -105 14 -201 5z"/>
<path fill="#ffffff" stroke="none" d="M8541 32219 c52 -13 96 -27 99 -30 3
-4 22 -14 43 -23 21 -8 72 -46 113 -83 113 -101 175 -221 173 -334 -1 -55 17
-82 49 -74 28 7 107 40 132 56 8 5 27 14 42 20 14 6 29 17 32 26 4 9 13 13 22
9 10 -4 18 0 21 13 3 11 17 21 32 24 16 3 53 17 84 31 31 15 65 26 76 26 10 0
21 5 23 10 4 12 121 23 201 21 47 -2 140 -36 172 -63 77 -66 101 -95 93 -114
-2 -3 5 -10 15 -15 18 -10 37 -48 75 -149 38 -102 50 -266 27 -380 -19 -93
-85 -239 -124 -274 -12 -11 -21 -25 -21 -32 0 -7 -13 -18 -29 -25 -17 -7 -32
-21 -34 -30 -3 -10 -24 -29 -47 -44 -31 -20 -49 -25 -71 -20 -24 5 -29 3 -29
-12 0 -36 13 -63 29 -63 43 0 161 -131 161 -180 0 -10 4 -22 10 -25 10 -6 6
-97 -5 -115 -3 -5 -13 -35 -21 -66 -8 -31 -23 -69 -34 -84 -11 -16 -20 -31
-20 -35 0 -8 -65 -75 -74 -75 -4 0 -18 -8 -33 -17 -36 -24 -118 -50 -194 -62
-81 -14 -300 -14 -359 0 -60 13 -110 37 -110 53 0 17 -38 56 -55 56 -26 0 -26
-43 -1 -106 21 -52 24 -68 17 -119 -5 -33 -13 -61 -20 -63 -6 -2 -11 -12 -11
-21 0 -23 -54 -71 -79 -71 -11 0 -22 -4 -25 -9 -3 -5 -23 -12 -43 -16 -21 -4
-42 -10 -48 -15 -29 -22 -208 -48 -348 -50 -109 -1 -115 0 -308 54 -31 9 -65
16 -75 16 -11 0 -24 4 -29 9 -11 10 -83 22 -133 21 -21 0 -46 -10 -67 -27 -27
-21 -35 -38 -46 -87 -7 -34 -18 -65 -26 -69 -7 -4 -13 -17 -13 -27 0 -11 -16
-35 -35 -54 -19 -20 -35 -41 -35 -49 0 -13 -52 -57 -68 -57 -5 0 -19 -9 -32
-20 -13 -11 -32 -20 -42 -20 -11 0 -29 -5 -40 -11 -60 -32 -493 -46 -583 -19
-16 5 -43 12 -60 14 -16 3 -62 13 -102 22 -74 17 -183 13 -183 -8 0 -5 -7 -8
-15 -4 -12 4 -36 -21 -40 -44 -9 -48 -21 -77 -36 -88 -11 -7 -19 -19 -19 -26
0 -17 -58 -62 -103 -81 -88 -36 -285 -69 -384 -63 -69 4 -92 11 -174 50 -52
26 -101 53 -108 62 -8 9 -20 16 -28 16 -7 0 -16 7 -19 15 -7 18 -155 130 -207
156 -83 43 -109 5 -55 -81 29 -46 33 -62 33 -120 0 -61 -2 -68 -32 -97 -46
-45 -91 -57 -187 -49 -76 6 -234 58 -276 90 -8 7 -32 21 -52 31 -21 11 -38 23
-38 27 0 3 -10 10 -22 14 -13 4 -39 19 -59 35 -20 16 -39 26 -42 23 -3 -3 -12
3 -19 15 -7 12 -18 21 -25 21 -7 0 -13 4 -13 8 0 5 -12 15 -27 23 -15 8 -38
25 -52 38 -15 13 -35 27 -46 32 -11 5 -40 21 -65 35 -25 15 -65 37 -90 50 -51
27 -158 127 -240 224 -30 36 -60 69 -67 75 -7 5 -24 35 -39 65 -27 55 -27 55
-16 157 6 57 18 113 26 125 8 13 18 40 22 61 3 21 13 41 20 44 8 3 14 9 14 13
0 4 14 23 30 40 35 37 36 63 3 68 -17 3 -24 -3 -29 -23 -4 -15 -17 -30 -30
-36 -14 -5 -29 -21 -35 -36 l-12 -28 -9 35 c-5 19 -14 40 -20 47 -5 7 -7 17
-4 22 4 5 2 12 -2 15 -12 7 -12 386 -1 408 5 9 10 44 11 78 1 33 6 60 11 60 5
0 7 7 3 15 -3 8 -1 15 4 15 5 0 7 7 3 16 -4 10 0 22 9 28 8 6 21 29 28 51 7
22 19 47 27 56 7 9 11 24 7 33 -4 10 -1 16 8 16 7 0 19 12 26 28 18 41 34 63
71 102 19 19 41 46 50 60 8 14 21 29 28 33 8 5 11 12 8 18 -4 5 5 13 18 18 14
6 26 13 28 18 6 13 77 63 90 63 6 0 26 9 43 19 47 29 165 42 246 27 116 -21
150 -29 150 -37 0 -5 7 -9 15 -9 15 0 122 -103 160 -153 27 -37 86 -77 113
-77 18 0 22 6 22 34 0 19 5 47 10 62 7 19 7 30 -1 40 -8 10 -8 14 0 14 6 0 11
10 11 23 0 24 22 92 33 103 4 4 7 17 7 30 0 12 13 35 28 51 16 16 35 46 42 67
7 22 32 59 56 83 24 24 44 48 44 53 0 5 9 15 20 22 11 7 20 19 20 26 0 7 12
17 26 23 15 5 37 20 50 32 13 12 29 22 36 22 7 0 14 9 17 20 4 24 19 35 48 35
12 0 28 6 36 14 8 8 31 18 51 21 21 4 36 13 36 21 0 9 11 14 28 14 15 0 32 4
38 9 10 11 72 28 144 41 25 4 66 14 91 22 29 10 53 12 68 6 13 -4 27 -6 31 -3
5 3 75 0 157 -6 81 -6 160 -12 175 -13 16 0 28 -4 28 -7 0 -4 17 -10 38 -14
20 -4 55 -15 77 -25 22 -10 51 -21 64 -25 14 -4 38 -16 55 -26 17 -11 38 -19
47 -19 14 0 179 -154 179 -167 0 -3 14 -22 31 -44 40 -51 89 -143 89 -169 0
-11 9 -29 21 -41 16 -16 23 -18 35 -8 8 6 14 18 14 25 0 8 4 14 10 14 5 0 7 6
4 13 -2 7 7 24 21 37 14 13 25 27 25 32 0 5 11 21 25 36 14 15 25 32 25 39 0
7 7 13 15 13 8 0 21 13 30 29 8 16 24 32 35 36 11 3 20 13 20 21 0 8 10 19 23
23 12 5 34 21 49 35 15 14 31 26 36 26 4 0 26 16 48 35 21 19 44 35 49 35 6 0
18 9 28 20 9 11 23 20 31 20 7 0 19 7 26 15 7 8 23 15 37 15 13 0 26 7 29 15
7 16 82 53 142 70 12 4 22 11 22 16 0 5 7 9 15 9 8 0 23 4 33 9 20 11 73 25
85 22 4 -1 18 5 30 14 12 8 40 15 62 15 23 0 46 5 52 11 6 6 55 13 109 16 55
2 100 6 101 7 9 8 105 -5 184 -25z"/>
<path fill="#000000" stroke="none" d="M50 31000 c0 -5 5 -10 10 -10 6 0 10 5
10 10 0 6 -4 10 -10 10 -5 0 -10 -4 -10 -10z"/>
<path fill="#000000" stroke="none" d="M33 28881 c2 -27 27 -42 27 -16 0 9 -4
14 -9 10 -5 -3 -12 3 -15 12 -3 11 -4 9 -3 -6z"/>
<path fill="#000000" stroke="none" d="M13022 28139 c-9 -17 -27 -44 -39 -59
-13 -15 -23 -31 -23 -34 0 -4 -16 -30 -35 -59 -20 -28 -41 -60 -48 -71 -7 -10
-19 -26 -28 -35 -10 -9 -24 -32 -33 -51 -19 -42 -29 -59 -78 -127 -21 -29 -38
-55 -38 -59 0 -3 -13 -23 -30 -44 -16 -21 -30 -41 -30 -45 0 -4 -10 -17 -22
-29 -13 -12 -32 -40 -43 -61 -23 -46 -71 -120 -98 -149 -10 -12 -30 -41 -44
-65 -14 -24 -37 -57 -51 -72 -14 -16 -30 -37 -36 -47 -26 -44 -97 -149 -118
-176 -13 -16 -30 -44 -38 -61 -8 -18 -30 -50 -48 -71 -18 -21 -53 -63 -77 -92
-25 -29 -45 -59 -45 -66 0 -7 -9 -21 -19 -30 -11 -10 -23 -31 -26 -47 -4 -16
-10 -29 -15 -29 -5 0 -19 -21 -32 -46 -12 -26 -28 -49 -35 -51 -7 -3 -13 -9
-13 -13 0 -10 -62 -113 -94 -155 -14 -18 -26 -37 -26 -40 0 -8 -53 -79 -62
-83 -5 -2 -8 -10 -8 -17 0 -8 -6 -20 -13 -27 -7 -7 -38 -47 -69 -88 -31 -41
-65 -86 -75 -99 -10 -13 -33 -40 -50 -61 -18 -21 -33 -42 -33 -48 0 -6 -6 -15
-13 -19 -8 -4 -26 -30 -42 -56 -15 -27 -36 -54 -46 -60 -11 -7 -19 -17 -19
-24 0 -7 -24 -47 -53 -90 -29 -43 -56 -85 -60 -93 -12 -24 -29 -52 -69 -112
-21 -31 -38 -59 -38 -62 0 -7 -82 -129 -92 -136 -15 -12 -58 -82 -58 -95 0 -8
-4 -15 -9 -15 -5 0 -12 -9 -16 -20 -3 -11 -26 -44 -49 -73 -24 -29 -56 -76
-70 -104 -15 -28 -34 -54 -42 -57 -8 -3 -14 -15 -14 -26 0 -11 -7 -23 -15 -26
-8 -3 -17 -16 -21 -27 -6 -21 -81 -134 -110 -168 -8 -8 -14 -21 -14 -29 0 -7
-15 -33 -33 -59 -17 -25 -39 -59 -47 -76 -8 -16 -32 -53 -52 -81 -21 -28 -38
-55 -38 -61 0 -5 -9 -18 -19 -27 -11 -10 -23 -31 -26 -47 -4 -16 -10 -29 -15
-29 -9 0 -22 -21 -64 -103 -13 -27 -31 -56 -40 -65 -20 -21 -51 -68 -95 -144
-18 -32 -36 -58 -40 -58 -4 0 -18 -19 -31 -42 -13 -24 -29 -47 -35 -53 -20
-18 -65 -83 -65 -94 0 -6 -15 -28 -32 -48 -43 -49 -78 -100 -78 -111 0 -5 -7
-15 -15 -22 -9 -7 -41 -52 -73 -99 -31 -47 -72 -104 -92 -127 -37 -46 -105
-129 -145 -180 -14 -18 -25 -37 -25 -43 0 -6 -8 -20 -17 -30 -10 -11 -40 -50
-68 -87 -27 -37 -60 -77 -72 -89 -13 -12 -23 -25 -23 -29 0 -3 -16 -29 -35
-56 -19 -27 -35 -53 -35 -57 0 -9 -34 -54 -67 -90 -13 -13 -23 -26 -23 -30 0
-3 -11 -18 -25 -35 -14 -16 -25 -36 -25 -44 0 -8 -3 -14 -8 -14 -10 0 -84 -96
-108 -140 -28 -51 -94 -151 -110 -167 -8 -8 -17 -25 -20 -39 -3 -13 -12 -24
-20 -24 -8 0 -14 -6 -14 -14 0 -7 -6 -19 -14 -25 -8 -7 -22 -27 -31 -46 -9
-19 -20 -35 -25 -35 -6 0 -10 -5 -10 -11 0 -6 -11 -25 -25 -43 -37 -45 -39
-48 -55 -81 -8 -16 -31 -50 -51 -75 -20 -25 -40 -54 -43 -66 -4 -12 -20 -34
-36 -50 -16 -16 -30 -36 -30 -44 0 -8 -15 -37 -33 -64 -17 -27 -43 -68 -56
-90 -13 -23 -48 -71 -78 -108 -29 -37 -53 -72 -53 -77 0 -6 -11 -18 -25 -27
-14 -9 -25 -25 -25 -35 0 -11 -7 -22 -15 -25 -8 -4 -15 -11 -15 -16 0 -11 -52
-94 -120 -191 -22 -31 -40 -61 -40 -66 0 -5 -10 -22 -22 -38 -31 -38 -47 -63
-61 -95 -6 -16 -15 -28 -19 -28 -4 0 -8 -6 -8 -14 0 -8 -11 -27 -24 -43 -14
-16 -32 -49 -42 -74 -9 -24 -22 -51 -29 -59 -7 -8 -15 -22 -19 -30 -3 -8 -15
-28 -26 -45 -18 -29 -50 -94 -81 -162 -7 -18 -17 -33 -21 -33 -5 0 -8 -7 -8
-15 0 -8 -4 -23 -9 -33 -5 -9 -15 -30 -22 -47 -8 -16 -25 -50 -39 -75 -14 -25
-31 -63 -39 -85 -21 -63 -110 -245 -131 -267 -19 -20 -90 -161 -90 -179 0 -5
-4 -9 -10 -9 -5 0 -10 -8 -10 -19 0 -10 -6 -24 -14 -30 -8 -7 -17 -28 -21 -49
-4 -20 -10 -41 -15 -47 -4 -5 -10 -28 -13 -50 -10 -66 -63 -277 -94 -374 l-18
-53 -42 6 c-49 6 -93 -7 -93 -28 0 -24 31 -40 84 -46 44 -4 51 -8 48 -25 -2
-17 -1 -178 2 -412 1 -29 5 -53 9 -53 5 0 8 -80 7 -177 -3 -261 7 -452 24
-478 12 -18 14 -61 10 -226 -2 -112 -4 -215 -3 -229 2 -66 -4 -145 -10 -145
-1 0 -3 -38 -6 -85 -3 -47 -10 -161 -16 -255 -6 -93 -12 -188 -13 -210 -1 -22
-6 -71 -10 -109 -5 -38 -8 -92 -8 -120 0 -28 -4 -89 -9 -136 -5 -47 -12 -179
-15 -295 -8 -266 -7 -237 -6 -585 1 -162 0 -320 -3 -350 -4 -49 -16 -666 -16
-810 0 -30 2 -122 5 -205 3 -82 5 -193 6 -245 0 -52 7 -149 15 -215 23 -196
27 -244 31 -370 1 -66 5 -192 8 -280 3 -88 8 -270 11 -405 6 -258 12 -428 21
-675 4 -82 6 -157 6 -165 -1 -8 3 -89 8 -180 6 -91 12 -257 15 -370 3 -113 8
-245 10 -295 2 -49 7 -171 10 -270 3 -99 8 -196 10 -215 13 -114 25 -495 30
-925 1 -165 6 -343 9 -395 4 -52 9 -266 11 -475 6 -552 15 -998 20 -1012 7
-19 597 -22 660 -3 17 5 91 16 165 25 74 9 148 21 163 27 20 8 91 9 235 4 114
-4 542 -10 952 -12 712 -5 835 -2 1230 26 74 5 207 12 295 15 158 6 446 29
495 39 36 8 222 26 315 30 44 2 161 9 260 15 251 14 422 21 780 29 322 7 351
7 550 3 66 -2 215 2 330 8 116 6 309 16 430 21 121 6 292 17 380 25 421 39
920 56 1160 39 88 -7 216 -16 285 -20 236 -16 1343 -10 2105 11 159 5 714 5
727 0 15 -5 221 -32 352 -46 116 -12 124 -9 131 49 3 26 10 61 15 78 19 58 21
153 25 1054 2 498 6 1063 9 1255 4 263 16 1387 20 1975 0 71 -24 727 -29 781
-4 41 -6 543 -4 759 1 70 -33 706 -40 745 -5 28 -8 61 -8 75 0 14 -3 97 -7
185 -10 250 -16 424 -22 630 -3 105 -6 206 -8 225 -2 19 -7 71 -11 115 -4 44
-13 107 -20 140 -7 33 -16 114 -20 180 -3 66 -10 136 -15 155 -9 38 -19 303
-25 670 -3 129 -9 309 -14 400 -9 145 -21 367 -36 705 -3 55 -7 116 -10 135
-3 19 -10 118 -15 220 -9 177 -19 289 -41 485 -13 115 -30 420 -27 464 3 31 7
35 47 47 53 15 237 35 257 27 21 -8 44 16 44 46 -1 27 -39 92 -145 246 -33 48
-89 133 -125 189 -36 55 -82 124 -102 151 -103 139 -125 168 -143 193 -11 15
-26 39 -34 53 -7 14 -30 49 -51 77 -22 28 -47 66 -56 84 -9 18 -33 56 -53 83
-39 55 -48 68 -88 135 -45 76 -114 179 -123 185 -5 3 -33 46 -62 96 -29 50
-61 104 -70 120 -10 16 -39 57 -66 92 -26 34 -63 87 -82 117 -19 30 -40 60
-47 65 -6 6 -28 42 -49 80 -20 39 -49 88 -64 110 -32 48 -81 122 -95 144 -5 9
-22 32 -37 52 -16 20 -28 41 -28 47 0 5 -17 33 -37 61 -61 81 -137 191 -153
220 -8 15 -29 45 -46 67 -17 21 -52 76 -79 121 -26 46 -54 88 -61 94 -8 6 -14
17 -14 23 0 7 -19 35 -42 63 -60 71 -138 186 -159 232 -9 21 -22 42 -28 45 -6
4 -20 26 -30 49 -21 45 -46 79 -99 136 -19 20 -38 45 -43 56 -5 11 -30 47 -54
80 -24 33 -57 79 -72 103 -15 24 -45 65 -65 92 -21 27 -38 52 -38 56 0 11 -91
158 -113 182 -11 12 -30 38 -41 56 -12 19 -53 79 -91 133 -39 54 -82 118 -97
143 -14 25 -36 56 -47 69 -12 13 -21 28 -21 32 0 5 -22 42 -50 82 -27 41 -50
77 -50 82 0 6 -66 102 -80 115 -3 3 -14 23 -25 45 -11 22 -39 65 -62 95 -24
30 -43 62 -43 70 0 9 -20 36 -45 60 -25 24 -45 49 -45 55 0 7 -29 55 -65 109
-36 53 -65 99 -65 102 0 3 -11 20 -25 39 -14 18 -38 57 -53 87 -15 29 -60 96
-100 149 -39 53 -80 116 -91 141 -10 25 -31 57 -45 73 -14 15 -26 31 -26 36 0
4 -14 23 -30 41 -17 18 -33 44 -37 58 -3 14 -10 31 -16 38 -12 15 -14 946 -3
1102 4 52 7 106 6 120 0 14 5 77 11 140 13 133 36 197 71 199 13 1 101 4 196
7 170 6 216 2 417 -30 296 -48 261 -46 468 -31 l108 8 0 -69 c0 -38 0 -82 1
-99 2 -32 -15 -236 -36 -455 -15 -147 -14 -673 1 -885 9 -137 8 -419 -3 -710
-4 -110 -6 -226 -5 -257 1 -31 -3 -101 -8 -155 -12 -108 -17 -526 -8 -613 11
-108 30 -137 71 -107 17 12 17 20 5 146 -11 109 -11 183 1 424 27 580 32 1116
13 1402 -14 213 -9 603 9 730 5 39 12 122 13 185 4 111 17 218 36 291 5 20 9
66 9 103 l0 66 34 0 c19 0 67 -7 107 -15 80 -17 102 -10 91 28 -15 51 -22 53
-148 65 -86 8 -161 8 -260 0 -152 -11 -342 -6 -389 11 -16 6 -66 15 -110 21
-44 6 -116 17 -160 24 -44 8 -82 12 -85 11 -3 -2 -97 -6 -209 -9 -112 -4 -212
-11 -221 -16 -55 -30 -81 -176 -99 -570 -9 -176 -16 -816 -10 -840 0 -3 2 -24
4 -47 5 -64 -17 -55 -72 30 -26 39 -62 90 -80 113 -18 23 -33 46 -33 52 0 6
-22 39 -48 74 -27 35 -55 74 -62 88 -12 23 -106 149 -120 160 -15 13 -130 161
-130 168 0 4 -27 37 -60 74 -33 36 -60 69 -60 73 0 4 -26 37 -59 73 -32 37
-61 76 -65 87 -3 11 -26 45 -51 75 -25 30 -45 60 -45 65 0 6 -9 18 -20 28 -11
9 -20 23 -20 31 0 8 -4 16 -9 18 -4 2 -43 54 -85 117 -43 63 -94 135 -114 160
-21 26 -46 65 -57 86 -11 22 -25 45 -31 50 -5 6 -23 30 -39 55 -15 25 -34 52
-41 60 -27 30 -61 76 -84 115 -37 62 -143 203 -200 266 -14 15 -50 58 -80 95
-67 81 -250 274 -261 274 -5 0 -29 20 -55 45 -25 25 -52 45 -60 45 -8 0 -14 4
-14 9 0 26 -149 149 -234 195 -86 45 -111 46 -134 5z"/>
<path fill="#ffffff" stroke="none" d="M13146 28051 c32 -17 86 -55 119 -87
33 -31 111 -99 173 -151 61 -52 112 -98 112 -102 0 -5 71 -84 154 -171 34 -35
233 -285 264 -333 15 -22 36 -54 47 -71 11 -18 26 -39 33 -47 7 -8 24 -32 39
-54 101 -152 198 -293 214 -311 11 -11 19 -24 19 -28 0 -5 17 -29 38 -55 41
-49 127 -177 149 -221 4 -8 21 -29 38 -47 17 -18 38 -45 46 -60 8 -15 50 -73
95 -128 44 -55 107 -136 139 -180 32 -44 61 -82 64 -85 3 -3 28 -32 56 -65 27
-33 58 -69 67 -79 10 -11 18 -23 18 -27 0 -4 24 -38 53 -76 61 -80 75 -100
147 -208 30 -44 60 -86 67 -93 7 -7 13 -18 13 -23 0 -5 6 -17 13 -25 6 -8 17
-20 22 -27 6 -7 28 -39 50 -72 22 -33 43 -62 47 -65 3 -3 8 -21 10 -40 2 -28
9 -38 33 -48 31 -14 114 -130 191 -266 9 -16 40 -61 69 -100 29 -39 62 -92 73
-117 12 -25 28 -52 37 -59 8 -7 15 -16 15 -20 0 -4 19 -36 43 -70 23 -34 47
-69 52 -78 6 -9 26 -39 45 -67 120 -175 366 -554 409 -629 9 -15 30 -46 48
-67 17 -22 35 -49 39 -62 6 -19 49 -83 84 -124 5 -7 10 -17 10 -23 0 -5 3 -10
8 -10 4 0 18 -18 32 -40 14 -22 28 -40 32 -40 5 0 8 -5 8 -11 0 -6 31 -57 68
-113 37 -55 71 -108 75 -116 7 -15 57 -88 102 -150 14 -19 36 -51 49 -70 47
-73 99 -146 126 -175 27 -30 105 -148 170 -257 19 -32 46 -72 62 -90 15 -18
28 -37 28 -42 0 -4 17 -29 38 -55 20 -25 42 -53 47 -62 6 -8 24 -36 40 -61 17
-26 39 -61 50 -80 66 -110 103 -165 115 -173 5 -3 10 -13 10 -21 0 -8 11 -27
25 -42 14 -15 36 -43 49 -62 173 -260 317 -482 331 -510 10 -19 27 -48 39 -65
12 -16 26 -37 31 -46 6 -9 35 -51 65 -94 30 -43 82 -119 114 -169 130 -198
204 -313 225 -348 13 -21 26 -38 30 -38 3 0 12 -12 18 -27 7 -16 35 -62 62
-103 28 -41 64 -100 82 -130 18 -30 47 -73 65 -96 19 -23 34 -44 34 -48 0 -4
11 -22 25 -40 14 -18 25 -38 25 -44 0 -6 4 -12 9 -14 13 -4 27 -25 246 -351
103 -153 185 -283 183 -289 -2 -6 -15 -12 -29 -13 -13 -1 -64 -7 -114 -13 -49
-6 -270 -11 -489 -12 -220 0 -402 -2 -405 -4 -8 -5 -406 -16 -731 -21 -146 -3
-292 -7 -325 -10 -113 -10 -360 -36 -433 -46 -40 -5 -175 -9 -300 -9 -125 0
-266 -5 -315 -10 -48 -5 -190 -10 -315 -10 -125 -1 -272 -6 -327 -11 -55 -5
-183 -14 -285 -20 -102 -6 -216 -13 -255 -16 -152 -11 -330 -3 -825 37 -134
11 -183 9 -384 -21 -71 -10 -208 -23 -305 -30 -168 -10 -249 -20 -426 -53 -44
-9 -118 -15 -165 -16 -47 0 -161 -7 -253 -16 -132 -12 -198 -14 -305 -6 -90 6
-185 6 -277 -1 -77 -6 -221 -10 -320 -9 -167 1 -391 -18 -420 -36 -5 -4 -152
-10 -325 -13 -173 -3 -364 -11 -425 -17 -245 -25 -383 -34 -645 -43 -151 -5
-306 -13 -345 -18 -284 -34 -428 -42 -615 -37 -309 10 -505 18 -511 22 -3 2
-74 4 -157 5 -83 0 -168 5 -189 10 -86 21 -379 48 -533 50 -130 1 -175 -2
-210 -15 -39 -13 -90 -21 -90 -13 0 3 78 309 96 377 8 30 19 72 23 93 5 21 16
46 25 56 9 9 16 23 16 29 0 6 9 27 19 46 11 19 25 52 32 74 6 22 21 51 33 63
11 13 30 42 41 64 11 22 23 42 27 45 11 8 88 166 88 180 0 6 7 28 16 48 24 54
76 165 85 182 5 8 16 31 24 50 22 48 32 65 96 173 31 51 61 109 68 128 16 47
69 139 81 139 6 0 10 8 10 18 0 9 23 51 52 92 113 165 137 202 144 222 3 12
10 26 15 32 28 35 60 79 99 136 24 36 62 88 85 116 22 27 51 69 65 93 14 23
44 71 68 107 24 37 51 80 60 98 25 44 52 85 84 127 15 20 25 39 21 43 -3 3 -1
6 5 6 7 0 12 6 12 13 0 8 9 22 20 32 11 10 20 24 20 32 0 7 5 13 10 13 6 0 10
4 10 10 0 11 86 126 101 135 5 4 21 27 34 53 28 53 44 77 65 104 8 10 27 41
42 70 26 49 97 148 164 227 17 20 38 53 47 73 10 20 21 38 25 40 4 2 19 21 32
43 26 44 51 79 93 129 15 19 27 39 27 45 0 6 3 11 8 11 10 0 93 107 116 150
10 19 30 49 43 65 14 17 34 43 46 58 12 16 36 45 53 65 16 20 48 62 69 92 22
30 43 57 47 58 5 2 8 9 8 16 0 7 11 23 25 36 14 13 25 28 25 33 0 5 16 30 35
55 49 64 118 165 163 236 20 33 53 78 73 100 19 23 47 61 62 86 42 70 50 82
85 133 17 26 32 51 32 55 0 4 21 39 46 77 25 39 50 79 55 90 6 11 21 38 34 60
13 22 32 54 41 70 9 17 23 35 30 40 6 6 26 35 42 67 25 47 128 209 204 320 10
15 18 31 18 37 0 5 3 11 8 13 6 3 37 46 77 109 5 9 32 49 60 90 27 41 48 79
47 85 -1 6 9 21 23 34 14 13 25 28 25 33 0 5 14 25 30 44 17 18 30 40 30 47 0
8 7 16 15 20 8 3 15 12 15 19 0 8 12 27 26 43 14 16 30 41 36 57 5 15 14 27
19 27 5 0 9 6 9 13 0 8 9 22 20 32 11 10 20 24 20 32 0 7 4 13 9 13 5 0 17 18
27 40 10 22 21 40 25 40 4 0 11 10 15 23 7 22 63 99 76 105 5 2 8 9 8 16 0 6
9 19 20 29 11 9 20 23 20 30 0 8 15 29 33 48 17 19 48 57 67 84 19 28 38 52
42 53 4 2 8 9 8 15 0 10 56 82 115 150 8 9 15 21 15 26 0 5 6 16 13 23 13 14
160 236 192 290 48 83 99 162 115 178 11 11 20 27 20 35 0 8 13 29 29 47 15
18 40 51 55 73 14 22 51 74 81 115 30 41 54 80 55 86 0 6 9 19 21 30 20 18 79
100 79 110 0 3 11 17 25 32 14 15 25 30 25 34 0 7 99 151 146 214 13 17 24 35
24 39 0 5 7 17 17 27 9 10 21 27 27 38 17 31 117 172 137 194 10 10 27 38 38
61 11 23 31 56 45 72 14 17 39 57 55 90 16 32 39 67 50 77 12 11 21 23 21 27
0 14 42 59 55 59 6 0 38 -13 71 -29z"/>
<path fill="#ffffff" stroke="none" d="M18993 19194 c14 -4 17 -17 17 -77 0
-85 17 -321 30 -427 14 -115 39 -429 45 -580 3 -74 8 -146 10 -160 3 -14 9
-119 15 -235 5 -115 16 -347 24 -515 8 -168 17 -411 20 -540 3 -129 11 -309
20 -400 8 -91 20 -228 26 -305 6 -77 18 -187 25 -245 24 -178 41 -478 50 -895
4 -182 18 -438 35 -665 19 -253 22 -333 25 -715 2 -214 8 -527 14 -695 21
-591 22 -658 22 -1010 1 -526 -10 -1826 -16 -1895 -3 -33 -7 -436 -9 -895 -4
-650 -8 -870 -20 -993 -9 -87 -20 -167 -26 -177 -14 -26 -58 -26 -298 1 -204
23 -322 23 -1322 -2 -661 -16 -1469 -13 -1719 7 -113 9 -296 17 -406 17 -229
2 -759 -18 -855 -33 -36 -5 -90 -10 -121 -10 l-56 0 0 48 c0 26 0 146 -1 267
0 121 -1 290 0 375 0 88 -8 220 -18 305 -16 127 -19 243 -21 750 -1 535 -6
990 -17 1915 -4 297 -17 538 -37 675 -11 74 -9 181 8 510 2 39 4 164 5 279 1
193 0 210 -17 222 -11 8 -33 14 -49 15 -17 1 -42 4 -56 8 -16 5 -31 3 -40 -4
-17 -15 -142 -32 -244 -34 -39 -1 -73 -4 -76 -6 -19 -12 -445 -27 -840 -30
-250 -2 -610 -6 -800 -10 -333 -6 -346 -7 -363 -27 -9 -11 -15 -29 -12 -38 4
-13 -1 -19 -20 -24 -26 -7 -26 -8 -20 -74 13 -128 18 -497 10 -752 -7 -238 -7
-356 1 -535 12 -248 9 -964 -4 -1150 -8 -107 -8 -190 -2 -250 22 -205 48 -954
40 -1130 -7 -160 -6 -361 4 -635 6 -140 10 -266 9 -280 0 -14 3 -68 8 -120 5
-52 11 -129 14 -170 2 -41 7 -101 11 -132 8 -68 18 -64 -171 -72 -71 -3 -186
-13 -255 -21 -161 -19 -198 -22 -485 -35 -132 -6 -282 -15 -333 -20 -142 -15
-447 -29 -657 -30 -336 -1 -1344 9 -1515 15 -159 6 -228 1 -351 -26 -117 -26
-291 -36 -529 -32 -135 2 -251 6 -258 8 -10 4 -13 52 -11 227 1 126 -4 273
-11 338 -7 63 -11 178 -9 255 5 180 2 451 -6 585 -3 58 -8 238 -10 400 -2 162
-7 347 -11 410 -4 63 -7 138 -7 165 3 212 2 348 -1 354 -6 10 -15 134 -22 296
-3 77 -7 160 -8 185 -1 25 -4 142 -6 260 -2 118 -7 253 -11 300 -4 47 -11 146
-14 220 -3 74 -9 149 -12 165 -4 17 -7 98 -8 180 0 83 -6 283 -12 445 -7 162
-15 417 -18 565 -7 354 -11 416 -39 650 -17 132 -20 413 -11 775 3 135 8 382
9 550 5 410 18 1174 21 1230 5 86 35 485 45 602 5 65 12 166 15 225 3 60 8
130 11 156 7 68 8 623 1 634 -8 13 -31 356 -34 508 -1 72 -4 237 -6 368 -2
130 -7 240 -10 244 -15 14 -6 22 30 29 21 4 52 13 68 19 68 28 404 13 670 -30
50 -8 221 -19 380 -25 160 -5 326 -12 370 -15 138 -10 467 -7 540 4 161 26
376 43 625 51 146 4 315 12 375 18 285 28 439 37 670 38 226 0 367 12 399 31
15 10 556 26 901 28 328 2 668 18 755 36 177 36 257 47 400 54 63 4 185 15
270 27 299 38 301 39 510 19 63 -6 187 -16 275 -22 88 -5 204 -14 258 -18 65
-5 141 -4 230 5 285 30 387 35 803 43 237 4 435 11 441 14 5 3 124 7 264 8
140 0 288 5 329 10 362 44 439 49 867 55 241 3 492 9 558 12 152 9 714 13 738
6z"/>
<path fill="#ffffff" stroke="none" d="M14355 13010 c14 -12 12 -297 -5 -583
-11 -189 -11 -259 -2 -340 33 -279 43 -510 48 -1117 13 -1721 21 -2213 34
-2275 6 -28 10 -149 9 -280 -2 -226 -1 -414 4 -587 2 -70 -1 -89 -13 -94 -22
-8 -535 -26 -885 -30 -670 -7 -1141 -20 -1332 -36 -79 -6 -146 -9 -149 -5 -4
4 -1 13 6 22 7 8 9 23 5 32 -3 10 -9 43 -11 73 -3 30 -9 102 -15 160 -18 186
-29 620 -33 1255 -4 632 -10 849 -27 920 -5 24 -6 156 -2 325 8 314 8 601 0
1620 -3 377 -10 726 -15 775 -10 90 -8 110 8 100 5 -3 29 -1 53 5 24 5 235 13
468 16 468 8 479 8 729 5 363 -5 689 11 915 45 89 13 190 10 210 -6z"/>
<path fill="#000000" stroke="none" d="M16885 18535 c-44 -7 -111 -18 -150
-24 -38 -7 -132 -23 -208 -38 -93 -17 -152 -24 -184 -19 -29 4 -51 2 -60 -6
-14 -11 -119 -32 -323 -63 -58 -9 -145 -25 -195 -36 -102 -22 -188 -36 -290
-49 -68 -8 -71 -8 -91 17 -20 26 -21 26 -98 14 -42 -6 -108 -11 -145 -11 -50
0 -72 -4 -81 -16 -10 -12 -12 -60 -9 -207 3 -176 3 -359 0 -625 -1 -99 -2
-103 -26 -114 -35 -16 -35 -60 2 -77 l26 -12 -7 -277 c-10 -386 -6 -955 6
-968 4 -4 32 1 62 10 37 12 97 19 183 21 70 1 135 5 143 9 8 3 170 8 360 11
190 2 374 7 409 10 47 4 69 2 87 -10 13 -8 32 -15 44 -15 15 0 20 -7 20 -28 0
-32 16 -52 42 -52 23 0 38 38 35 87 l-2 38 45 2 c259 13 495 28 635 40 195 18
293 21 317 10 11 -6 23 -2 35 10 20 20 28 123 25 328 -1 55 -1 150 0 210 1 61
2 199 3 308 l0 198 60 -2 c33 -1 74 -8 92 -15 42 -16 58 1 49 51 l-7 35 -94 0
-95 0 -1 33 c-1 82 -11 209 -20 277 -18 135 -27 360 -23 643 2 172 0 277 -6
277 -6 0 -10 6 -10 14 0 8 -7 17 -16 20 -29 11 -457 4 -539 -9z"/>
<path fill="#ffffff" stroke="none" d="M17364 18481 l27 -11 -1 -352 c-1 -213
3 -383 9 -428 16 -111 33 -314 29 -363 -3 -39 -5 -42 -33 -44 -16 -1 -254 -3
-529 -5 -490 -3 -499 -3 -510 17 -6 11 -15 23 -20 27 -15 10 -20 918 -6 994
l12 62 91 17 c200 37 243 45 274 45 17 0 58 7 90 15 33 8 93 19 134 23 117 13
402 14 433 3z"/>
<path fill="#ffffff" stroke="none" d="M16252 18295 c-2 -38 -13 -176 -24
-305 -11 -129 -22 -339 -25 -466 l-5 -231 -207 -2 c-149 -1 -229 3 -291 14
-138 25 -256 36 -411 36 -80 1 -152 5 -159 9 -11 7 -11 22 -1 87 15 93 30 502
24 661 -4 108 -3 113 15 108 10 -4 56 0 103 8 46 8 118 18 159 21 117 10 215
24 340 49 63 13 149 29 190 36 41 7 116 20 165 30 134 27 131 29 127 -55z"/>
<path fill="#ffffff" stroke="none" d="M16270 17480 c0 -5 -4 -10 -10 -10 -5
0 -10 5 -10 10 0 6 5 10 10 10 6 0 10 -4 10 -10z"/>
<path fill="#ffffff" stroke="none" d="M15248 17238 c33 -8 48 -8 67 2 16 9
43 10 87 6 230 -23 304 -28 478 -32 107 -1 225 -3 262 -4 l66 0 5 -47 c3 -27
17 -93 32 -148 44 -166 58 -345 45 -580 -5 -111 -8 -215 -4 -231 l6 -31 -234
-7 c-545 -15 -604 -18 -618 -23 -8 -3 -62 -7 -120 -8 -58 -2 -126 -7 -152 -10
l-48 -7 -2 89 c-1 48 -3 115 -4 148 -4 137 -4 397 1 405 3 4 5 119 6 255 l0
247 42 -7 c23 -3 61 -11 85 -17z"/>
<path fill="#ffffff" stroke="none" d="M17334 17203 l109 -6 -7 -171 c-4 -94
-11 -211 -15 -261 -6 -56 -5 -122 1 -175 6 -47 7 -132 4 -190 -11 -171 -2
-154 -82 -162 -38 -4 -94 -11 -124 -17 -30 -6 -131 -13 -225 -16 -93 -3 -197
-10 -230 -16 -33 -5 -125 -9 -205 -7 l-145 3 -12 85 c-7 47 -14 157 -17 245
-5 178 -13 277 -26 315 -5 14 -11 104 -14 200 l-5 175 442 2 c243 1 491 0 551
-4z"/>
<path fill="#000000" stroke="none" d="M10330 18224 c-30 -2 -107 -11 -170
-20 -63 -9 -137 -16 -165 -16 -27 1 -63 -3 -80 -8 -56 -17 -204 -31 -347 -31
-79 0 -163 -4 -188 -10 -25 -5 -83 -16 -130 -24 -87 -16 -188 -47 -290 -90
-61 -26 -118 -32 -191 -21 -58 10 -76 -7 -61 -56 9 -29 26 -277 23 -336 0 -12
17 -57 39 -100 l39 -77 6 -150 c5 -163 12 -279 20 -365 3 -30 7 -104 10 -165
6 -106 11 -137 55 -328 18 -78 20 -105 13 -225 -10 -172 -9 -199 5 -294 8 -56
9 -101 1 -159 -12 -98 -7 -107 48 -91 21 6 97 21 168 32 116 19 189 35 335 71
25 6 113 31 196 56 83 24 175 48 205 53 30 5 77 14 104 21 94 22 97 21 109
-41 6 -30 15 -61 19 -67 13 -21 44 -15 62 13 15 23 15 27 1 43 -20 22 -20 41
-2 67 12 16 28 19 93 21 109 2 298 18 493 43 304 39 345 42 463 36 106 -5 138
0 108 18 -4 3 -11 27 -14 53 -3 27 -10 68 -16 93 -5 25 -12 206 -16 403 -3
197 -10 368 -15 381 -10 27 -5 36 22 36 12 0 18 7 18 21 0 11 10 29 23 39 31
26 13 54 -39 58 -44 4 -63 16 -62 40 1 25 -32 271 -42 312 -16 67 -70 285 -80
320 -5 19 -11 58 -14 85 -16 139 -47 300 -61 314 -6 6 -62 15 -125 22 -63 6
-128 13 -145 15 -44 6 -361 12 -425 8z"/>
<path fill="#ffffff" stroke="none" d="M10740 18150 c41 -5 103 -12 137 -15
34 -4 69 -12 78 -19 19 -13 31 -59 46 -171 24 -176 53 -318 70 -348 17 -30 53
-213 92 -472 1 -5 -27 -13 -63 -18 -101 -11 -256 -26 -355 -32 -49 -3 -121
-14 -160 -24 -38 -11 -110 -22 -160 -26 -49 -3 -119 -12 -155 -20 -36 -7 -97
-17 -136 -20 -79 -8 -84 -5 -89 48 -1 18 -12 120 -24 227 -22 208 -28 410 -11
410 6 0 8 36 5 98 -2 53 -7 156 -10 227 l-5 131 138 17 c198 26 425 28 602 7z"/>
<path fill="#ffffff" stroke="none" d="M9914 18103 c-5 -10 -9 -49 -10 -88 -3
-138 17 -542 31 -630 7 -49 16 -147 19 -216 3 -69 6 -130 7 -135 1 -5 1 -19 0
-30 -1 -21 -7 -22 -163 -29 -180 -8 -405 6 -533 32 -48 9 -123 16 -187 15
-147 -1 -142 -10 -163 259 -9 112 -23 245 -32 294 -8 50 -16 108 -18 130 -2
35 -19 162 -25 190 -5 23 1 35 18 35 10 0 42 11 70 25 29 14 58 25 65 25 7 0
17 4 22 9 14 12 131 51 185 61 25 5 63 13 85 19 22 6 137 16 255 21 118 6 240
14 270 19 95 15 113 14 104 -6z"/>
<path fill="#ffffff" stroke="none" d="M11189 16985 c6 -16 12 -203 15 -415 3
-229 9 -399 15 -420 21 -68 20 -70 -67 -70 -43 0 -154 -11 -248 -25 -93 -13
-214 -29 -269 -35 -278 -28 -455 -42 -468 -37 -12 4 -13 14 -4 58 8 39 7 60
-2 83 -23 56 -61 251 -77 396 -2 19 -6 113 -9 209 -4 135 -2 176 7 183 7 4 38
8 68 8 30 0 100 7 155 15 55 8 136 19 180 24 44 5 119 17 167 25 48 8 154 18
235 21 82 4 149 8 151 10 1 1 34 2 72 1 69 -1 70 -2 79 -31z"/>
<path fill="#ffffff" stroke="none" d="M9365 16919 c21 -8 113 -12 316 -13
l286 -1 8 -75 c4 -41 8 -88 10 -105 1 -16 5 -64 9 -105 3 -41 8 -102 11 -135
2 -33 11 -98 19 -145 19 -110 25 -155 32 -267 6 -75 4 -93 -7 -96 -8 -3 -79
-19 -159 -37 -80 -18 -176 -43 -215 -56 -38 -13 -107 -31 -152 -39 -45 -9 -98
-22 -118 -30 -36 -15 -355 -79 -361 -72 -6 5 -24 376 -22 437 5 118 -24 527
-46 651 -8 46 -13 86 -10 88 22 22 345 23 399 0z"/>
<path fill="#000000" stroke="none" d="M9840 18005 c-19 -23 -8 -50 20 -50 18
0 26 6 28 22 4 29 -30 49 -48 28z"/>
<path fill="#000000" stroke="none" d="M12334 10151 c-15 -17 -33 -31 -39 -31
-7 0 -34 -24 -61 -52 -48 -51 -50 -56 -52 -115 -3 -73 11 -106 62 -151 42 -36
87 -47 158 -38 134 18 189 74 202 209 6 61 4 71 -16 100 -12 18 -29 38 -38 45
-26 22 -93 49 -142 56 -44 7 -49 5 -74 -23z"/>
<path fill="#ffffff" stroke="none" d="M12496 10064 c31 -24 34 -30 33 -78 -1
-74 -11 -98 -48 -123 -35 -24 -107 -39 -144 -29 -13 3 -36 17 -50 30 -23 21
-27 33 -27 79 0 48 4 58 32 85 25 25 43 33 90 38 32 4 61 11 64 15 8 13 12 12
50 -17z"/>
<path fill="#000000" stroke="none" d="M40 28124 c0 -8 5 -12 10 -9 6 4 8 11
5 16 -9 14 -15 11 -15 -7z"/>
<path fill="#000000" stroke="none" d="M0 25766 c0 -1790 3 -2246 13 -2246 7
0 13 15 14 35 1 19 -2 35 -6 35 -4 0 -8 15 -7 33 1 23 5 31 16 29 11 -2 10 1
-3 12 -17 13 -17 15 -1 24 11 6 13 11 5 16 -7 4 -9 23 -6 47 3 21 7 57 10 80
3 22 2 38 -2 36 -5 -3 -9 16 -10 41 -1 31 1 41 8 31 5 -9 7 15 4 66 -3 44 -6
87 -7 95 -1 25 11 131 17 140 3 5 -3 15 -13 21 -13 8 -17 20 -14 36 3 14 8 20
11 14 4 -5 8 12 9 39 1 29 -2 50 -8 50 -7 0 -7 7 1 21 9 17 8 24 -2 30 -11 8
-11 11 3 20 10 5 18 15 18 21 0 9 -3 9 -12 0 -7 -7 -16 -12 -21 -12 -10 0 2
91 15 107 10 12 5 105 -7 136 -4 10 -3 17 4 17 6 0 8 6 6 13 -11 28 -12 77 -1
81 7 3 7 8 -3 14 -9 7 -10 11 -2 17 7 4 9 16 5 27 -4 14 -2 18 5 14 17 -11 13
20 -4 34 -18 15 -20 31 -4 28 6 -2 14 3 16 10 3 6 -1 12 -7 12 -7 0 -9 8 -5
20 4 12 2 26 -3 33 -14 18 -24 67 -13 67 5 0 11 -6 14 -12 3 -7 5 5 5 28 0 23
3 51 7 63 4 13 2 28 -5 36 -11 14 -11 26 4 112 3 18 1 35 -5 38 -12 8 -12 75
1 75 9 0 3 126 -7 142 -2 5 1 8 6 8 16 0 13 32 -5 70 -14 27 -14 34 -3 42 11
7 11 11 2 15 -18 7 -16 33 2 33 11 0 15 11 15 40 0 32 -3 38 -16 33 -14 -5
-15 -3 -6 12 6 12 7 28 1 42 -5 14 -4 25 2 29 6 3 8 31 3 74 -4 45 -3 70 5 74
16 10 13 36 -4 36 -8 0 -15 7 -15 15 0 9 6 12 15 8 13 -4 16 2 14 38 -1 24 -6
54 -10 67 -5 13 -5 22 1 22 6 0 7 18 4 43 -3 23 -7 53 -9 67 -1 14 0 30 3 35
4 6 7 71 8 146 0 74 4 140 7 147 4 6 1 14 -7 19 -12 7 -13 17 -6 49 5 23 6 63
1 92 -4 28 -4 57 0 63 8 13 5 54 -6 89 -4 12 -2 20 6 20 8 0 9 4 0 13 -6 8 -7
17 -1 23 16 17 17 100 1 89 -6 -3 -9 22 -7 62 1 40 7 68 14 71 17 5 15 32 -3
32 -18 0 -19 4 -3 30 10 15 10 24 1 39 -8 13 -8 22 -1 29 7 7 6 21 -2 46 -10
31 -9 41 4 61 10 15 12 26 6 30 -6 4 -8 21 -4 41 4 22 2 34 -5 34 -7 0 -7 7 1
25 8 18 8 28 0 38 -7 8 -9 17 -5 21 11 10 12 177 1 170 -5 -3 -2 11 7 32 15
37 12 94 -5 94 -5 0 -15 3 -24 6 -15 6 -16 -196 -16 -2240z"/>
<path fill="#000000" stroke="none" d="M0 23494 c0 -8 5 -12 10 -9 6 4 8 11 5
16 -9 14 -15 11 -15 -7z"/>
<path fill="#000000" stroke="none" d="M0 23001 c0 -254 4 -461 8 -461 4 0 7
51 6 113 -1 61 2 135 6 162 4 28 5 52 1 55 -4 3 -5 34 -1 70 4 36 4 67 1 70
-4 3 -5 57 -4 120 2 63 3 134 3 158 -1 28 4 42 12 42 9 1 8 5 -3 13 -13 9 -16
24 -13 59 2 26 0 50 -6 53 -7 4 -10 -149 -10 -454z"/>
<path fill="#000000" stroke="none" d="M0 22485 c0 -19 5 -35 10 -35 6 0 10
16 10 35 0 19 -4 35 -10 35 -5 0 -10 -16 -10 -35z"/>
<path fill="#000000" stroke="none" d="M0 22317 c0 -53 3 -97 8 -97 9 0 9 177
-1 186 -4 4 -7 -36 -7 -89z"/>
<path fill="#000000" stroke="none" d="M1 22174 c0 -11 3 -14 6 -6 3 7 2 16
-1 19 -3 4 -6 -2 -5 -13z"/>
<path fill="#000000" stroke="none" d="M1 22025 c1 -40 1 -40 10 -10 5 18 5
33 -1 39 -7 7 -10 -4 -9 -29z"/>
<path fill="#000000" stroke="none" d="M3 21875 c0 -22 2 -30 4 -17 2 12 2 30
0 40 -3 9 -5 -1 -4 -23z"/>
<path fill="#000000" stroke="none" d="M1 21784 c0 -11 3 -14 6 -6 3 7 2 16
-1 19 -3 4 -6 -2 -5 -13z"/>
<path fill="#000000" stroke="none" d="M2 21650 c0 -14 2 -19 5 -12 2 6 2 18
0 25 -3 6 -5 1 -5 -13z"/>
<path fill="#000000" stroke="none" d="M3 21495 c0 -27 2 -38 4 -22 2 15 2 37
0 50 -2 12 -4 0 -4 -28z"/>
</g>
</svg>
