<?xml version="1.0" standalone="no"?>
<!DOCTYPE svg PUBLIC "-//W3C//DTD SVG 20010904//EN"
 "http://www.w3.org/TR/2001/REC-SVG-20010904/DTD/svg10.dtd">
<svg version="1.0" xmlns="http://www.w3.org/2000/svg"
 width="810.000000pt" height="579.000000pt" viewBox="0 0 810.000000 579.000000"
 preserveAspectRatio="xMidYMid meet">
<metadata>
Created by potrace 1.14, written by Peter Selinger 2001-2017
</metadata>
<g transform="translate(0.000000,579.000000) scale(0.100000,-0.100000)"
fill="#000000" stroke="none">
<path fill="#000000" stroke="none" d="M3895 5674 c-296 -44 -564 -133 -883
-293 -221 -111 -519 -271 -577 -311 -48 -32 -191 -151 -228 -189 -18 -19 -21
-18 -118 25 -55 24 -135 62 -179 84 -44 22 -86 40 -95 40 -8 0 -35 10 -60 22
l-45 22 0 58 c0 50 -4 63 -26 85 -63 63 -187 -19 -170 -112 6 -28 3 -35 -14
-40 -52 -16 -76 -117 -46 -190 24 -58 73 -70 139 -35 39 21 66 17 84 -14 4 -8
78 -47 164 -88 86 -41 159 -80 163 -87 11 -18 -35 -79 -68 -91 -16 -5 -59 -10
-96 -10 -141 0 -352 -51 -482 -116 -200 -100 -327 -223 -416 -401 -62 -122
-85 -223 -86 -368 -1 -66 3 -141 7 -166 l8 -46 -40 -6 c-78 -10 -174 -101
-190 -178 -6 -31 -8 -32 -65 -35 -118 -7 -201 -75 -238 -198 -38 -125 -4 -286
84 -397 21 -27 37 -49 36 -49 -2 -1 -90 -2 -196 -3 -190 -2 -192 -2 -192 -23
0 -22 49 -57 555 -388 88 -57 257 -169 377 -247 l216 -143 -71 -78 c-173 -188
-234 -273 -271 -377 -17 -47 -21 -93 -26 -286 -8 -247 -6 -239 -76 -403 -39
-90 -39 -113 -2 -164 40 -57 138 -86 184 -53 12 8 54 53 95 101 89 104 117
123 239 158 52 15 113 35 135 45 109 50 188 142 240 281 44 119 74 168 138
226 163 148 370 202 471 123 23 -18 26 -28 26 -77 0 -31 -10 -86 -21 -122 -73
-231 30 -449 190 -401 60 17 151 127 198 236 42 97 48 128 47 255 0 140 -16
218 -64 315 -16 33 -27 61 -25 64 2 2 26 -2 52 -8 59 -15 165 -67 258 -126
127 -82 205 -52 205 78 0 23 -11 78 -25 122 -14 44 -25 81 -25 83 0 1 74 2
165 2 91 0 165 -3 165 -7 0 -5 -9 -37 -20 -73 -38 -127 -36 -392 5 -576 14
-63 102 -269 187 -439 92 -183 176 -277 296 -332 29 -14 83 -51 120 -84 37
-32 101 -75 142 -96 65 -32 86 -38 160 -41 143 -6 303 21 475 80 132 47 159
53 230 53 55 0 95 -6 127 -19 l48 -19 57 28 c77 38 255 217 276 278 44 127 44
148 -9 211 -24 27 -26 36 -21 91 3 38 22 101 50 171 53 132 73 208 86 327 6
48 13 92 16 97 8 13 31 13 54 -2 15 -9 25 -9 46 0 54 25 56 -21 4 -66 -16 -13
-29 -28 -29 -32 0 -5 -11 -26 -25 -46 -33 -48 -33 -74 -1 -74 32 0 40 -14 24
-39 -9 -15 -10 -23 -1 -32 8 -8 6 -22 -8 -53 -24 -53 -24 -73 1 -81 16 -5 20
-15 20 -51 0 -24 5 -44 10 -44 6 0 10 -18 10 -41 0 -46 14 -79 34 -79 7 0 16
-13 19 -29 4 -17 14 -30 26 -34 14 -3 21 -13 21 -30 0 -40 18 -78 39 -84 11
-3 25 -18 31 -34 17 -39 36 -37 51 6 10 27 17 34 31 29 14 -4 20 1 24 25 4 21
12 31 25 31 11 0 22 13 30 35 7 19 20 35 28 35 7 0 34 21 59 47 36 39 50 47
74 44 23 -2 31 2 35 17 3 12 11 23 18 26 7 2 16 18 20 35 8 36 18 39 39 10 29
-42 56 0 56 87 0 19 5 34 10 34 6 0 10 14 10 30 0 39 22 40 56 2 23 -26 25
-26 39 -8 16 21 19 17 29 -44 14 -80 94 -150 170 -150 33 0 35 -2 51 -55 21
-73 74 -132 132 -148 26 -7 43 -17 43 -26 0 -28 41 -100 77 -135 23 -22 54
-40 84 -47 42 -11 48 -16 58 -51 23 -74 96 -136 175 -147 33 -5 41 -11 49 -36
15 -46 54 -93 97 -115 146 -75 277 94 196 253 l-23 47 19 40 c29 58 33 111 14
170 l-17 51 28 36 c25 33 28 45 28 113 0 47 -5 83 -12 92 -11 12 -9 18 8 34
68 60 64 187 -7 281 -28 37 -31 65 -8 84 64 53 58 187 -12 261 -23 23 -26 35
-28 110 l-2 83 41 -3 c22 -2 52 -12 65 -22 l24 -18 -32 -27 c-42 -35 -59 -92
-41 -131 17 -35 61 -44 90 -18 18 16 19 16 19 -12 0 -38 16 -54 53 -54 l30 0
-27 -21 c-25 -20 -33 -53 -18 -75 12 -18 52 -36 68 -30 19 7 18 25 -3 33 -44
15 -46 26 -13 53 36 30 53 81 54 173 1 54 -2 61 -32 88 -24 21 -42 29 -71 29
-24 0 -44 6 -52 17 -22 26 -91 53 -139 53 -36 0 -50 6 -77 32 l-33 32 31 13
c17 7 44 13 60 13 19 0 29 5 29 15 0 8 16 21 35 29 43 18 44 28 3 57 -49 34
-60 47 -48 54 15 9 12 19 -11 44 -24 26 -20 38 8 20 25 -15 85 -5 106 19 8 9
19 30 22 45 7 25 2 34 -39 71 -44 41 -45 44 -28 60 10 9 29 16 42 16 13 0 43
9 66 21 67 32 71 95 7 120 -28 10 -30 40 -4 56 16 10 27 10 55 -2 19 -8 42
-12 50 -9 19 7 29 36 20 58 -9 23 -34 20 -34 -4 0 -17 -3 -18 -26 -10 -14 6
-35 10 -48 10 -27 0 -76 -49 -76 -76 1 -26 23 -54 44 -54 9 0 19 -7 23 -15 8
-21 -25 -55 -53 -55 -34 0 -76 -18 -104 -45 -14 -13 -50 -32 -80 -42 -45 -15
-61 -16 -90 -7 -43 14 -49 31 -15 44 15 6 25 16 22 23 -2 6 17 24 43 39 81 46
88 72 23 84 l-36 7 25 13 c15 8 36 34 48 59 21 43 21 47 5 65 -15 17 -15 20 0
44 9 14 14 30 10 36 -4 6 1 20 10 30 10 12 14 26 10 39 -4 13 2 31 16 50 12
16 19 33 15 39 -3 5 3 17 14 27 13 12 18 25 14 38 -4 12 2 27 16 42 27 29 19
45 -22 45 -17 0 -39 7 -48 15 -14 12 -23 13 -49 4 -25 -9 -42 -9 -70 1 -21 7
-47 9 -58 6 -27 -8 -54 21 -32 34 35 21 108 88 127 115 30 43 39 96 56 311 9
104 27 326 41 494 13 168 32 391 40 495 9 105 21 247 26 317 14 162 8 205 -34
246 -48 46 -212 98 -352 112 -280 26 -626 -28 -742 -116 -59 -45 -65 -76 -53
-254 18 -269 29 -496 40 -805 5 -165 13 -321 16 -347 5 -43 4 -49 -18 -58 -50
-21 -333 -70 -460 -79 -122 -9 -275 -7 -286 3 -2 3 7 20 21 38 33 44 81 149
102 222 12 40 18 97 18 175 0 134 -9 166 -124 437 -46 107 -74 190 -85 245
-47 258 -92 343 -228 428 -28 17 -58 31 -68 31 -23 0 -38 30 -45 93 -3 29 -14
71 -24 93 -23 56 -83 114 -115 114 -23 0 -26 3 -20 28 33 149 30 252 -9 278
-32 21 -45 3 -65 -97 -11 -52 -32 -119 -47 -149 -25 -48 -33 -55 -62 -58 -20
-2 -42 -13 -55 -28 l-21 -24 -49 60 c-27 34 -65 73 -85 88 -20 15 -42 32 -48
39 -52 48 -207 114 -353 150 -95 23 -127 26 -350 28 -135 2 -258 1 -275 -1z"/>
<path fill="#ffffff" stroke="none" d="M5303 5612 c6 -31 -6 -147 -24 -216
-10 -41 -14 -46 -33 -40 -11 4 -22 7 -24 9 -1 1 9 28 24 59 18 40 28 81 31
137 6 81 16 101 26 51z"/>
<path fill="#ffffff" stroke="none" d="M4371 5619 c280 -35 463 -125 609 -300
l42 -49 -58 -67 c-99 -112 -265 -275 -390 -382 -99 -84 -120 -98 -122 -81 -6
35 -60 64 -128 68 -53 4 -66 1 -94 -19 l-32 -24 3 -118 3 -118 -149 -98 c-224
-147 -698 -412 -711 -398 -3 3 4 24 16 47 54 105 75 280 46 386 -55 206 -250
374 -433 374 l-43 0 0 98 0 98 -67 -2 c-38 -1 -71 -2 -75 -3 -5 0 -8 -46 -8
-100 0 -86 -2 -100 -17 -105 -41 -13 -228 -36 -285 -36 -85 1 -228 32 -228 51
0 14 135 131 205 178 138 93 674 369 855 441 198 79 452 146 620 163 81 9 363
6 441 -4z"/>
<path fill="#ffffff" stroke="none" d="M5213 5304 c27 -5 37 -12 37 -25 0 -11
14 -25 35 -35 43 -20 50 -45 35 -121 -16 -84 -20 -93 -34 -93 -7 0 -41 -25
-75 -56 -90 -82 -129 -168 -167 -364 -9 -49 -46 -119 -125 -237 -38 -56 -69
-107 -69 -113 0 -17 -15 -11 -40 15 -25 27 -103 79 -217 144 -84 48 -98 69
-115 170 -12 70 -12 71 12 88 100 70 527 486 600 585 37 50 48 54 123 42z"/>
<path fill="#ffffff" stroke="none" d="M5389 5261 c26 -36 52 -145 53 -221 1
-62 -5 -80 -28 -80 -11 0 -14 20 -14 105 0 114 -13 162 -50 188 -12 8 -19 20
-15 26 11 19 33 12 54 -18z"/>
<path fill="#ffffff" stroke="none" d="M1647 5182 c7 -4 13 -36 15 -72 l3 -64
52 -31 c57 -33 63 -41 34 -50 -28 -9 -33 -31 -13 -64 9 -16 14 -33 10 -36 -3
-4 -28 5 -54 19 -59 32 -62 32 -120 4 l-46 -23 -19 24 c-29 36 -25 95 7 120
15 12 35 21 45 21 17 0 18 6 13 58 -5 49 -3 60 15 80 23 23 38 27 58 14z"/>
<path fill="#ffffff" stroke="none" d="M7381 5090 c142 -14 326 -82 343 -126
20 -51 -12 -81 -126 -120 -152 -52 -249 -67 -443 -68 -148 0 -187 3 -219 17
-21 9 -50 17 -65 17 -50 1 -164 48 -200 84 -34 34 -34 35 -17 60 30 47 86 74
206 101 176 39 364 52 521 35z"/>
<path fill="#ffffff" stroke="none" d="M2895 4892 l-1 -107 -42 -3 -42 -3 0
110 0 111 43 0 42 0 0 -108z"/>
<path fill="#ffffff" stroke="none" d="M5565 4981 c91 -42 155 -144 180 -288
30 -173 56 -259 114 -383 92 -195 104 -237 109 -373 5 -137 -6 -188 -66 -305
-45 -89 -91 -137 -124 -129 -13 2 -55 12 -94 20 -78 18 -231 87 -334 151 -123
77 -186 131 -261 224 -93 116 -199 272 -198 292 0 34 29 91 95 190 83 126 87
136 109 236 41 190 93 288 182 344 60 38 79 38 87 0 12 -61 86 -53 115 11 15
34 31 36 86 10z"/>
<path fill="#ffffff" stroke="none" d="M2009 4886 c235 -110 323 -138 452
-144 l106 -4 -46 -47 c-26 -25 -60 -74 -76 -109 -22 -46 -34 -61 -45 -57 -43
17 -158 45 -183 45 -20 0 -46 15 -85 48 -79 67 -137 105 -232 152 -45 21 -87
41 -93 43 -9 3 -9 8 1 20 11 13 11 21 -2 46 -9 16 -16 35 -16 40 0 8 43 38 58
41 1 0 73 -33 161 -74z"/>
<path fill="#ffffff" stroke="none" d="M6690 4835 c101 -64 239 -90 475 -90
216 0 292 11 444 61 57 19 105 33 108 31 2 -3 0 -40 -6 -83 -6 -44 -12 -112
-13 -152 -1 -41 -6 -76 -10 -78 -4 -3 -20 2 -35 9 -43 22 -200 64 -286 76
-146 21 -396 9 -531 -25 -37 -9 -91 -32 -122 -50 -36 -22 -56 -29 -59 -21 -5
14 -12 347 -8 347 2 0 21 -11 43 -25z"/>
<path fill="#ffffff" stroke="none" d="M3115 4751 c70 -35 152 -110 190 -175
67 -114 81 -231 45 -371 -22 -87 -73 -187 -83 -162 -3 9 -11 73 -17 144 -27
316 -42 389 -96 460 -38 51 -101 92 -166 110 -77 21 -75 37 3 30 39 -3 84 -16
124 -36z"/>
<path fill="#ffffff" stroke="none" d="M4383 4741 c9 -9 4 -19 -21 -44 l-33
-32 -34 40 c-19 22 -35 44 -35 49 0 12 108 2 123 -13z"/>
<path fill="#ffffff" stroke="none" d="M2930 4715 c132 -28 195 -84 225 -203
8 -31 22 -136 30 -232 18 -208 29 -281 56 -377 l20 -72 -68 -68 c-162 -162
-247 -366 -242 -582 l2 -85 -69 -31 c-55 -25 -88 -33 -160 -38 -233 -15 -428
-73 -500 -148 -15 -16 -31 -29 -35 -29 -4 0 -15 22 -24 49 -24 73 -87 164
-144 209 -28 22 -55 42 -60 44 -5 1 -14 38 -20 80 -6 42 -23 107 -37 144 l-27
67 24 45 c13 25 94 118 180 207 135 140 161 173 201 251 51 100 99 235 154
434 66 239 121 315 247 340 68 13 171 11 247 -5z"/>
<path fill="#ffffff" stroke="none" d="M4313 4571 c5 -36 10 -136 11 -221 3
-183 15 -237 95 -413 73 -162 263 -395 413 -507 26 -19 48 -38 48 -42 0 -3
-21 -14 -47 -24 -27 -10 -70 -33 -98 -52 -63 -41 -90 -48 -121 -31 -104 55
-291 292 -367 466 -39 88 -67 206 -67 282 0 89 24 233 52 306 19 53 22 78 21
209 l-1 148 26 -28 c20 -21 28 -44 35 -93z"/>
<path fill="#ffffff" stroke="none" d="M4440 4490 c15 -53 36 -70 154 -129
138 -69 194 -123 309 -296 48 -71 115 -162 149 -202 172 -197 455 -356 718
-404 261 -47 410 -41 800 36 343 67 414 75 490 55 105 -27 126 -33 133 -40 14
-13 11 -70 -5 -83 -8 -7 -27 -43 -42 -81 -27 -68 -98 -172 -144 -209 -12 -10
-29 -26 -38 -34 -14 -14 -22 -14 -82 0 -37 9 -91 19 -120 23 -29 4 -54 10 -57
13 -2 4 17 18 43 31 68 35 201 127 263 182 30 26 63 54 73 61 18 13 15 37 -4
37 -5 0 -49 -32 -97 -71 -172 -139 -350 -232 -474 -249 -111 -15 -196 -35
-274 -65 -87 -34 -152 -40 -273 -25 -134 17 -164 30 -235 103 -132 133 -217
184 -383 228 -109 28 -232 38 -326 27 l-79 -10 -57 44 c-98 74 -267 252 -332
348 -64 95 -127 221 -163 325 -16 48 -21 91 -24 213 -2 85 -7 188 -12 230 l-8
77 31 26 31 27 13 -77 c7 -42 17 -92 22 -111z"/>
<path fill="#ffffff" stroke="none" d="M2084 4595 c19 -14 18 -15 -12 -15 -24
0 -30 4 -26 15 7 18 14 18 38 0z"/>
<path fill="#ffffff" stroke="none" d="M7305 4576 c114 -12 241 -41 327 -75
40 -15 64 -56 52 -89 -25 -72 -278 -141 -514 -142 -132 0 -351 36 -425 69 -90
41 -101 74 -46 134 54 59 166 94 340 107 58 4 113 8 121 8 8 1 74 -5 145 -12z"/>
<path fill="#ffffff" stroke="none" d="M2333 4491 c37 -12 67 -26 67 -31 0
-18 -80 -287 -105 -355 -58 -152 -91 -201 -250 -365 -83 -85 -164 -176 -180
-202 l-29 -46 -45 40 c-58 51 -104 74 -163 83 -54 8 -132 -7 -166 -33 -22 -17
-23 -16 -85 43 -75 73 -120 96 -202 103 -100 8 -191 -44 -241 -137 l-24 -46 3
135 c3 121 7 145 36 232 72 211 216 368 434 474 121 58 254 91 450 109 89 9
163 18 167 21 3 4 64 4 135 1 95 -3 148 -11 198 -26z"/>
<path fill="#ffffff" stroke="none" d="M4184 4399 c-28 -74 -54 -236 -54 -345
l0 -79 -77 0 c-43 0 -88 -4 -100 -8 -23 -8 -23 -7 -23 78 l0 86 -62 -3 -63 -3
-1 -75 0 -75 -85 3 c-118 5 -221 -19 -343 -80 -61 -31 -70 -30 -81 14 -7 26
-3 29 147 104 264 132 485 260 683 395 39 26 73 48 77 48 3 1 -4 -27 -18 -60z"/>
<path fill="#ffffff" stroke="none" d="M6895 4259 c262 -49 560 -23 768 66 16
7 18 3 13 -41 -3 -27 -8 -87 -11 -134 -3 -47 -12 -164 -20 -260 -8 -96 -19
-236 -25 -310 -31 -385 -29 -378 -116 -450 -70 -57 -123 -84 -220 -111 -92
-25 -164 -22 -237 11 l-47 21 56 52 c64 58 96 104 124 181 11 29 34 74 51 100
29 43 31 52 25 101 -11 97 -3 93 -206 124 -56 9 -215 -2 -280 -19 -70 -19 -67
-25 -74 138 -8 176 -25 479 -30 544 -3 25 -2 49 1 51 2 3 28 -5 56 -18 29 -13
106 -34 172 -46z"/>
<path fill="#ffffff" stroke="none" d="M3887 4088 c5 -7 9 -42 9 -78 -1 -63
-2 -65 -26 -65 -24 0 -25 3 -28 64 -2 35 -1 70 2 77 7 17 31 18 43 2z"/>
<path fill="#ffffff" stroke="none" d="M3816 3914 c79 -5 113 -3 118 5 8 12
122 15 173 5 28 -5 32 -12 57 -97 15 -51 46 -126 68 -167 40 -75 173 -265 202
-289 9 -8 16 -17 16 -21 0 -4 -44 -8 -97 -8 -86 -1 -112 -5 -218 -41 -171 -57
-195 -68 -195 -91 0 -11 11 -27 26 -36 31 -21 50 -56 59 -114 16 -106 53 -194
105 -254 17 -18 30 -36 30 -38 0 -3 -17 -24 -39 -47 -21 -23 -50 -63 -63 -89
-23 -45 -26 -47 -72 -50 -73 -5 -77 -1 -59 50 22 64 14 169 -20 241 -56 121
-208 230 -387 278 -113 31 -298 31 -410 1 -41 -11 -82 -22 -90 -24 -13 -2 -15
12 -14 87 5 301 193 571 472 675 55 21 172 40 207 34 11 -1 70 -6 131 -10z"/>
<path fill="#ffffff" stroke="none" d="M1234 3660 c58 -25 100 -56 133 -99 26
-33 26 -34 8 -64 -10 -17 -24 -49 -30 -71 -10 -32 -17 -40 -31 -37 -46 10
-184 5 -196 -6 -18 -19 -42 -16 -62 6 -10 11 -38 28 -62 38 -44 18 -45 18 -38
58 24 151 150 230 278 175z"/>
<path fill="#ffffff" stroke="none" d="M1687 3539 c101 -48 202 -213 203 -331
0 -27 -1 -28 -58 -28 -73 0 -151 -37 -189 -89 -15 -20 -28 -37 -28 -38 -1 -2
-23 4 -48 13 -37 12 -48 22 -53 42 -19 86 -59 167 -104 207 -40 36 -14 138 49
199 60 57 140 66 228 25z"/>
<path fill="#ffffff" stroke="none" d="M983 3371 c141 -87 207 -285 139 -417
-60 -117 -183 -144 -297 -66 -111 77 -169 249 -126 375 16 48 66 105 106 124
41 19 135 11 178 -16z"/>
<path fill="#ffffff" stroke="none" d="M1308 3321 c48 -25 87 -70 118 -136 32
-67 32 -105 1 -105 -71 0 -172 -87 -198 -169 -6 -20 -12 -42 -15 -49 -3 -10
-10 -9 -34 3 -16 8 -30 17 -30 20 0 2 9 19 19 37 57 99 47 262 -24 370 l-24
37 27 10 c37 15 113 6 160 -18z"/>
<path fill="#ffffff" stroke="none" d="M5241 3335 c26 -3 77 -16 115 -29 213
-72 364 -199 462 -387 l43 -82 -44 -46 c-88 -90 -192 -291 -224 -431 -32 -139
-35 -210 -14 -326 11 -64 15 -113 10 -118 -5 -5 -10 -8 -12 -5 -2 2 -22 29
-45 60 -23 32 -74 86 -113 120 -40 35 -96 85 -123 110 -125 113 -230 177 -330
203 -102 27 -340 48 -496 44 l-148 -3 -4 45 c-7 77 11 227 36 304 65 200 199
360 374 449 74 38 90 45 152 67 105 36 195 42 361 25z"/>
<path fill="#ffffff" stroke="none" d="M4543 3263 c31 -14 57 -29 57 -33 0 -3
-20 -21 -44 -38 -42 -30 -121 -107 -148 -145 -13 -17 -17 -16 -63 21 -62 49
-107 72 -139 72 -30 0 -44 -18 -19 -26 47 -14 123 -58 154 -90 l34 -35 -27
-52 c-15 -29 -37 -82 -49 -119 l-22 -67 -26 20 c-106 83 -147 149 -176 284
-19 92 -34 135 -46 135 -52 0 114 68 232 95 90 20 207 11 282 -22z"/>
<path fill="#ffffff" stroke="none" d="M632 3113 c13 -121 105 -252 208 -298
25 -10 47 -20 48 -21 11 -7 -23 -119 -48 -158 l-30 -46 -128 0 -128 0 -42 36
c-145 123 -176 389 -60 501 42 41 72 53 128 50 l45 -2 7 -62z"/>
<path fill="#ffffff" stroke="none" d="M1942 3093 c89 -48 163 -154 185 -264
l5 -26 -72 24 c-41 14 -120 29 -186 35 -111 11 -137 9 -221 -17 -22 -7 -23 -5
-23 46 2 142 96 247 213 235 26 -3 71 -18 99 -33z"/>
<path fill="#ffffff" stroke="none" d="M3492 3105 c92 -20 219 -81 280 -135
55 -48 105 -141 114 -213 5 -33 1 -66 -11 -108 l-18 -59 -96 -2 c-137 -2 -142
-1 -186 42 -39 37 -144 100 -169 100 -6 0 -34 23 -61 51 -100 103 -194 160
-343 208 l-86 29 67 31 c144 68 347 90 509 56z"/>
<path fill="#ffffff" stroke="none" d="M6835 3065 c99 -25 284 -124 285 -152
0 -24 -23 -25 -41 -2 -16 21 -19 22 -43 10 -23 -13 -30 -12 -61 5 -19 10 -35
23 -35 27 0 5 -7 7 -15 3 -8 -3 -21 1 -29 10 -18 18 -150 43 -276 53 -174 14
-351 -39 -535 -160 -38 -26 -86 -63 -105 -83 -19 -21 -45 -47 -58 -59 -31 -29
-121 -165 -166 -252 -74 -142 -69 -340 12 -497 2 -5 -17 -8 -42 -8 -40 0 -47
3 -61 30 -60 116 -47 312 32 497 126 292 364 487 685 563 48 11 114 25 145 30
76 12 233 4 308 -15z"/>
<path fill="#ffffff" stroke="none" d="M1550 3014 c40 -16 40 -17 33 -53 -5
-20 -8 -63 -8 -96 0 -59 -1 -61 -48 -104 l-48 -44 -82 25 c-45 15 -94 29 -109
32 -31 7 -33 17 -16 84 19 77 65 140 118 161 39 15 115 13 160 -5z"/>
<path fill="#ffffff" stroke="none" d="M5980 2999 c47 -6 87 -12 88 -14 2 -2
-11 -11 -30 -21 -18 -9 -54 -32 -80 -51 -44 -32 -49 -33 -55 -16 -4 10 -19 38
-35 62 -35 56 -35 64 0 57 15 -3 65 -10 112 -17z"/>
<path fill="#ffffff" stroke="none" d="M6476 2965 c-13 -10 -17 -22 -14 -40 3
-14 -1 -54 -9 -88 -8 -34 -16 -86 -18 -115 -1 -29 -5 -55 -8 -58 -2 -3 -22 2
-44 11 -39 16 -41 19 -68 107 -22 72 -26 98 -19 126 9 36 10 36 99 57 95 22
112 22 81 0z"/>
<path fill="#ffffff" stroke="none" d="M6785 2963 c33 -9 68 -22 77 -28 16
-11 16 -13 -7 -35 -14 -13 -25 -20 -25 -16 0 5 -7 3 -15 -4 -13 -11 -17 -8
-28 19 -8 23 -17 31 -30 27 -10 -2 -21 4 -28 16 -7 14 -17 18 -32 14 -12 -2
-31 2 -41 9 -14 11 -23 12 -32 4 -14 -12 -34 -4 -34 13 0 14 114 3 195 -19z"/>
<path fill="#ffffff" stroke="none" d="M7450 2972 c0 -10 5 -23 12 -30 9 -9 8
-16 -4 -29 -21 -24 -58 -98 -58 -116 0 -8 -20 -31 -45 -51 -50 -41 -53 -37
-29 43 19 67 97 201 115 201 5 0 9 -8 9 -18z"/>
<path fill="#ffffff" stroke="none" d="M2945 2949 c102 -26 203 -74 283 -133
35 -26 62 -49 60 -51 -1 -2 -43 1 -93 7 -127 14 -348 4 -478 -22 -60 -11 -185
-47 -278 -79 -93 -33 -171 -56 -173 -52 -2 3 -6 23 -10 43 -4 21 -18 51 -33
68 -32 39 -24 61 39 113 67 55 143 85 259 103 57 9 127 20 154 24 68 11 173 3
270 -21z"/>
<path fill="#ffffff" stroke="none" d="M7534 2964 c4 -11 12 -14 24 -9 9 4 27
7 40 6 13 0 32 4 42 9 12 6 21 7 25 0 3 -5 -23 -23 -57 -41 -35 -17 -84 -47
-111 -65 -26 -19 -49 -34 -52 -34 -3 0 12 27 35 59 24 36 37 66 34 75 -3 9 -2
16 4 16 5 0 13 -7 16 -16z"/>
<path fill="#ffffff" stroke="none" d="M7350 2941 c0 -11 -14 -48 -30 -83 -17
-36 -34 -90 -38 -120 -6 -46 -14 -63 -50 -102 -23 -25 -45 -46 -49 -46 -3 0
-3 43 1 95 7 96 26 176 53 228 14 27 15 28 28 10 14 -17 16 -16 41 15 26 33
44 34 44 3z"/>
<path fill="#ffffff" stroke="none" d="M6630 2905 c0 -27 -13 -75 -20 -75 -6
0 -40 82 -40 95 0 1 14 0 30 -3 17 -2 30 -10 30 -17z"/>
<path fill="#ffffff" stroke="none" d="M7692 2905 c-2 -14 -13 -30 -24 -36
-15 -8 -18 -17 -13 -36 5 -21 0 -32 -25 -55 -25 -23 -40 -28 -80 -28 -27 0
-61 5 -76 10 l-26 10 43 33 c70 53 186 126 200 127 3 0 4 -11 1 -25z"/>
<path fill="#ffffff" stroke="none" d="M6542 2895 c4 -20 3 -23 -8 -14 -16 13
-19 39 -5 39 5 0 11 -11 13 -25z"/>
<path fill="#ffffff" stroke="none" d="M6266 2829 c11 -35 24 -76 28 -91 l6
-28 -65 0 c-36 0 -82 -7 -104 -16 -39 -15 -42 -15 -83 8 -24 13 -44 30 -45 38
-5 29 197 164 232 156 6 -1 19 -31 31 -67z"/>
<path fill="#ffffff" stroke="none" d="M6694 2863 c-6 -40 -33 -123 -44 -136
-13 -15 -21 43 -11 81 6 20 13 49 16 65 4 18 12 27 25 27 17 0 19 -5 14 -37z"/>
<path fill="#ffffff" stroke="none" d="M6975 2888 c29 -13 31 -21 10 -38 -8
-7 -17 -28 -21 -49 -6 -31 -33 -71 -49 -71 -3 0 -5 14 -5 30 0 21 -9 39 -27
56 -24 22 -25 27 -13 49 7 13 24 26 39 28 14 2 29 5 33 6 4 0 19 -4 33 -11z"/>
<path fill="#ffffff" stroke="none" d="M6768 2848 c7 -10 24 -18 38 -18 20 0
24 -5 24 -28 0 -15 5 -33 11 -39 7 -7 -1 -33 -29 -90 -22 -44 -48 -105 -57
-137 -9 -32 -20 -54 -25 -49 -4 4 -22 45 -39 90 l-31 82 30 81 c17 45 30 92
30 104 0 41 20 42 48 4z"/>
<path fill="#ffffff" stroke="none" d="M7087 2845 c12 -12 18 -13 29 -4 8 6
20 9 28 6 7 -3 19 0 26 6 10 9 11 8 6 -8 -11 -38 -25 -169 -26 -238 0 -64 -2
-71 -41 -122 -23 -30 -45 -55 -49 -55 -4 0 -4 19 0 43 3 24 3 79 -2 123 -11
108 -12 193 -4 232 9 36 11 38 33 17z"/>
<path fill="#ffffff" stroke="none" d="M1152 2818 c26 -13 47 -26 48 -29 0 -4
-35 -8 -79 -11 -162 -9 -201 -99 -70 -161 28 -13 48 -26 43 -29 -5 -2 -55 -2
-111 0 l-101 4 25 55 c14 31 28 75 31 98 4 42 5 43 51 49 25 3 60 15 76 25 38
25 32 25 87 -1z"/>
<path fill="#ffffff" stroke="none" d="M6552 2806 c32 -38 50 -94 26 -80 -8 5
-29 21 -45 35 -24 20 -30 32 -26 52 7 34 12 33 45 -7z"/>
<path fill="#ffffff" stroke="none" d="M1828 2772 c19 -15 49 -52 65 -81 l31
-54 -30 9 c-72 22 -164 3 -225 -47 l-27 -21 -58 47 c-33 26 -61 49 -63 51 -9
8 64 76 107 101 82 48 137 47 200 -5z"/>
<path fill="#ffffff" stroke="none" d="M1993 2794 c89 -21 154 -53 188 -91 26
-31 30 -41 27 -86 -3 -52 -3 -52 -58 -80 -30 -16 -86 -46 -124 -68 -38 -21
-73 -39 -78 -39 -4 0 -5 12 -1 28 4 15 7 61 7 102 -2 92 -28 157 -87 218 l-42
43 55 -6 c30 -4 81 -13 113 -21z"/>
<path fill="#ffffff" stroke="none" d="M7020 2717 c0 -34 5 -91 10 -127 7 -48
6 -82 -5 -132 -19 -91 -38 -124 -93 -159 l-47 -30 -52 54 c-29 30 -55 67 -59
83 -11 44 11 146 46 216 39 77 36 74 54 58 13 -10 14 -16 2 -39 -37 -71 -25
-191 18 -191 51 1 71 42 56 117 -15 69 -8 115 19 142 12 12 21 32 21 44 0 13
3 27 6 30 16 15 24 -8 24 -66z"/>
<path fill="#ffffff" stroke="none" d="M7540 2720 c28 0 60 5 71 10 12 7 19 7
19 1 0 -6 -9 -15 -20 -21 -11 -6 -20 -17 -20 -26 0 -35 -139 -47 -208 -18
l-37 15 38 34 c37 33 39 33 72 19 19 -8 57 -14 85 -14z"/>
<path fill="#ffffff" stroke="none" d="M6558 2700 c43 -29 56 -44 72 -88 31
-81 28 -86 -27 -59 -27 14 -64 27 -85 31 -38 7 -54 26 -35 45 7 7 7 17 -1 35
-8 18 -8 31 1 50 7 14 14 25 17 23 3 -1 29 -18 58 -37z"/>
<path fill="#ffffff" stroke="none" d="M1365 2705 c169 -59 266 -140 334 -278
46 -97 57 -163 42 -270 -10 -71 -56 -197 -77 -210 -5 -3 -9 34 -10 82 -1 131
-44 243 -136 349 -85 97 -115 118 -302 212 -103 53 -188 100 -188 105 -2 39
235 46 337 10z"/>
<path fill="#ffffff" stroke="none" d="M3325 2701 c44 -12 103 -33 131 -46
128 -62 195 -211 119 -261 -14 -9 -134 -56 -268 -104 -420 -152 -770 -299
-919 -385 -43 -25 -82 -45 -86 -45 -5 0 -31 9 -56 21 -143 63 -362 87 -489 54
-79 -20 -80 -20 -52 21 35 51 62 145 70 242 l7 80 52 35 c285 194 607 333 901
391 117 23 133 24 330 21 144 -2 196 -7 260 -24z"/>
<path fill="#ffffff" stroke="none" d="M4248 2719 c15 -9 17 -26 13 -142 -2
-85 -7 -135 -15 -139 -6 -4 -27 -8 -47 -8 -28 0 -50 10 -93 44 -54 42 -55 44
-37 60 11 10 25 32 32 49 20 52 68 116 97 131 33 19 29 18 50 5z"/>
<path fill="#ffffff" stroke="none" d="M6044 2660 c5 -5 -4 -21 -19 -37 -15
-15 -40 -56 -56 -90 l-29 -63 -65 0 c-50 0 -65 3 -65 14 0 18 104 174 132 198
18 16 23 16 56 2 21 -8 41 -19 46 -24z"/>
<path fill="#ffffff" stroke="none" d="M6316 2645 c25 -19 15 -19 -27 0 -25
10 -29 14 -13 15 11 0 29 -7 40 -15z"/>
<path fill="#ffffff" stroke="none" d="M7392 2629 c46 -15 73 -19 114 -13 46
5 54 4 54 -10 0 -9 8 -16 18 -16 33 -1 -10 -17 -104 -39 -89 -20 -264 -30
-264 -14 0 10 102 113 112 113 5 0 36 -9 70 -21z"/>
<path fill="#ffffff" stroke="none" d="M1908 2604 c23 -15 24 -19 17 -82 -11
-104 -23 -126 -89 -171 l-60 -40 -19 57 c-11 31 -37 86 -59 121 -21 35 -37 65
-36 66 2 1 20 14 40 29 20 15 49 31 65 36 37 12 111 4 141 -16z"/>
<path fill="#ffffff" stroke="none" d="M6400 2595 c0 -7 11 -29 25 -49 14 -20
25 -43 25 -50 0 -11 -20 -26 -35 -26 -5 0 -45 131 -45 148 0 12 3 12 15 2 8
-7 15 -18 15 -25z"/>
<path fill="#ffffff" stroke="none" d="M6073 2588 c-16 -18 -37 -44 -46 -58
-10 -13 -17 -20 -17 -14 0 13 37 62 65 86 32 28 31 21 -2 -14z"/>
<path fill="#ffffff" stroke="none" d="M6298 2573 c33 -36 20 -40 -25 -7 -58
43 -61 47 -28 40 17 -4 40 -18 53 -33z"/>
<path fill="#ffffff" stroke="none" d="M6236 2550 c78 -52 95 -70 87 -98 -9
-38 -73 -26 -73 14 0 30 -30 33 -37 3 -6 -21 -13 -21 -130 -5 -23 3 -25 14 -9
44 16 30 73 82 90 82 5 0 38 -18 72 -40z"/>
<path fill="#ffffff" stroke="none" d="M6914 2549 c7 -44 -1 -70 -15 -48 -11
18 -12 89 0 89 5 0 11 -18 15 -41z"/>
<path fill="#ffffff" stroke="none" d="M6594 2524 c69 -35 84 -50 112 -112 13
-30 38 -71 55 -93 29 -37 30 -39 9 -39 -12 0 -38 14 -57 30 -18 17 -38 30 -43
30 -6 0 -5 8 1 18 20 32 2 70 -48 102 -26 17 -55 30 -65 30 -9 0 -24 14 -33
30 -14 27 -14 30 1 30 9 0 39 -12 68 -26z"/>
<path fill="#ffffff" stroke="none" d="M7580 2525 c10 -13 7 -17 -24 -30 -39
-16 -47 -40 -20 -60 14 -10 10 -13 -28 -18 -25 -4 -72 -2 -104 3 -103 17 -178
13 -273 -16 -21 -6 -22 -5 -13 12 6 10 24 34 39 53 l29 34 105 -1 c72 -1 127
4 179 17 95 24 95 24 110 6z"/>
<path fill="#ffffff" stroke="none" d="M1315 2485 c98 -56 120 -77 141 -132
13 -33 15 -60 10 -113 -8 -87 -47 -212 -82 -265 -37 -55 -115 -145 -125 -145
-4 0 -187 118 -406 263 -219 145 -455 300 -525 346 -71 46 -128 85 -128 87 0
2 233 4 518 4 l517 0 80 -45z"/>
<path fill="#ffffff" stroke="none" d="M3981 2507 c10 -13 41 -39 68 -58 28
-19 51 -36 51 -39 0 -3 -85 -41 -189 -84 -160 -66 -197 -85 -239 -125 -55 -51
-100 -118 -113 -167 -5 -17 -23 -47 -39 -65 -16 -19 -40 -58 -52 -86 l-22 -53
-192 0 -193 0 -22 33 c-34 50 -120 136 -163 164 -21 14 -34 28 -30 32 15 13
583 229 721 274 18 5 45 23 60 39 25 26 28 36 26 94 l-1 64 155 0 c151 0 156
-1 174 -23z"/>
<path fill="#ffffff" stroke="none" d="M6600 2428 c19 -13 35 -29 38 -35 8
-25 -25 -12 -58 22 -39 40 -29 46 20 13z"/>
<path fill="#ffffff" stroke="none" d="M5940 2393 c0 -27 9 -68 20 -92 11 -24
20 -45 20 -48 0 -7 -211 -103 -226 -103 -15 0 -18 29 -15 130 4 98 31 132 121
149 81 16 80 16 80 -36z"/>
<path fill="#ffffff" stroke="none" d="M6026 2339 c39 -44 128 -25 188 40 34
36 51 39 65 12 7 -13 7 -23 -2 -34 -14 -18 -224 -87 -243 -80 -19 7 -44 78
-43 121 l1 37 9 -39 c5 -22 17 -48 25 -57z"/>
<path fill="#ffffff" stroke="none" d="M6160 2420 c19 -12 7 -24 -42 -44 -33
-14 -38 -14 -52 0 -9 8 -16 24 -16 35 0 16 7 19 48 19 26 0 54 -5 62 -10z"/>
<path fill="#ffffff" stroke="none" d="M4610 2410 c73 -8 99 -16 182 -60 62
-32 107 -63 124 -85 18 -24 46 -41 97 -61 79 -30 113 -58 123 -101 21 -93 26
-104 57 -124 18 -10 48 -24 68 -29 91 -25 218 -200 144 -200 -8 0 -15 -8 -15
-17 0 -9 -12 -29 -27 -45 l-27 -28 32 -11 c25 -8 29 -14 22 -27 -5 -9 -11 -29
-14 -44 -4 -15 -20 -42 -37 -60 -36 -40 -34 -74 10 -128 51 -64 50 -74 -18
-139 -38 -36 -61 -67 -61 -80 0 -12 19 -42 41 -66 33 -36 40 -50 35 -70 -4
-14 -10 -25 -15 -25 -14 0 -61 -49 -61 -64 0 -8 18 -36 40 -61 22 -25 40 -53
40 -62 0 -24 -33 -72 -54 -79 -27 -9 -42 15 -72 116 -26 86 -46 145 -102 300
-17 47 -45 135 -63 195 -71 245 -182 400 -403 564 -155 115 -242 157 -414 201
-65 17 -103 21 -170 17 -88 -5 -119 -20 -60 -30 53 -9 248 -82 334 -125 104
-53 197 -122 296 -218 97 -95 119 -126 191 -270 68 -135 92 -214 112 -369 24
-178 78 -326 148 -403 11 -12 16 -22 12 -22 -5 0 -35 27 -67 60 -99 105 -179
125 -262 66 l-48 -34 -52 24 c-59 27 -75 29 -101 11 -16 -12 -39 -3 -196 77
-167 85 -330 192 -451 294 -121 102 -289 297 -348 402 -80 143 -96 196 -74
249 15 37 78 104 127 135 36 22 30 42 -11 38 -18 -2 -32 0 -32 4 0 35 108 141
211 207 48 31 198 99 294 134 114 42 348 62 515 43z"/>
<path fill="#ffffff" stroke="none" d="M6460 2395 c14 0 31 -4 38 -8 15 -10
16 -87 1 -87 -10 0 -68 31 -128 68 l-24 15 24 13 c13 7 33 10 44 7 11 -4 31
-7 45 -8z"/>
<path fill="#ffffff" stroke="none" d="M7483 2386 c34 -1 56 -16 22 -16 -8 0
-15 -5 -15 -11 0 -7 -13 -8 -39 -4 -29 5 -40 3 -44 -9 -5 -13 -12 -13 -37 -4
-80 27 -232 -21 -238 -76 -2 -16 2 -33 10 -37 24 -16 102 -9 148 12 43 20 150
32 150 17 0 -4 -18 -12 -41 -18 -22 -6 -95 -36 -161 -66 -66 -31 -126 -53
-133 -50 -11 4 -149 99 -165 113 -3 3 4 9 14 15 10 6 35 25 55 43 88 80 178
107 326 98 61 -4 127 -7 148 -7z"/>
<path fill="#ffffff" stroke="none" d="M4944 2346 c6 -7 57 -43 113 -80 56
-36 120 -87 142 -113 42 -48 108 -169 99 -178 -7 -8 -91 30 -104 46 -6 8 -15
32 -19 54 -14 81 -60 135 -137 163 -26 9 -71 38 -100 65 -33 30 -69 53 -95 60
-24 6 -43 14 -43 18 0 11 132 -21 144 -35z"/>
<path fill="#ffffff" stroke="none" d="M6640 2319 c0 -5 5 -9 11 -9 6 0 22 -9
35 -19 20 -16 21 -20 8 -25 -34 -13 -54 -4 -86 37 -18 23 -36 44 -40 45 -5 2
-8 7 -8 12 0 4 18 -1 40 -12 22 -11 40 -24 40 -29z"/>
<path fill="#ffffff" stroke="none" d="M1584 2250 c44 -84 59 -156 55 -257 -3
-62 -9 -86 -23 -102 -32 -35 -9 -37 77 -6 63 22 104 30 179 33 93 4 99 3 150
-26 127 -73 246 -229 282 -368 16 -61 21 -124 11 -124 -3 0 -24 9 -46 21 -100
51 -273 15 -426 -89 -117 -81 -157 -136 -238 -335 -60 -148 -139 -211 -335
-268 -117 -34 -159 -60 -225 -137 -33 -39 -62 -71 -65 -71 -3 -1 -13 12 -22
28 -17 31 -83 71 -118 71 -11 0 -20 2 -20 4 0 2 13 34 29 70 39 85 51 179 51
385 0 143 3 176 21 229 33 97 105 197 266 369 82 87 170 183 195 214 83 97
130 235 132 381 1 85 1 87 18 65 10 -12 33 -51 52 -87z"/>
<path fill="#ffffff" stroke="none" d="M6468 2261 c39 -16 43 -34 5 -25 -22 5
-102 40 -109 48 -1 0 -5 12 -9 25 -7 23 -7 23 36 -6 24 -16 59 -35 77 -42z"/>
<path fill="#ffffff" stroke="none" d="M6308 2293 c0 -10 1 -23 3 -29 2 -6
-31 -43 -73 -83 l-77 -72 -35 31 c-42 37 -64 44 -133 43 -62 -1 -68 9 -15 26
27 9 48 10 74 3 20 -5 53 -7 75 -3 49 9 141 59 154 83 12 23 28 23 27 1z"/>
<path fill="#ffffff" stroke="none" d="M7330 2305 c0 -6 -59 -33 -95 -44 -17
-4 -39 -5 -50 -1 -17 7 -14 11 25 29 39 18 120 29 120 16z"/>
<path fill="#ffffff" stroke="none" d="M6580 2285 c10 -12 10 -15 -4 -15 -9 0
-16 7 -16 15 0 8 2 15 4 15 2 0 9 -7 16 -15z"/>
<path fill="#ffffff" stroke="none" d="M7652 2203 c-4 -43 -22 -61 -22 -23 0
11 -7 23 -15 26 -23 9 -18 21 13 32 15 5 27 9 28 8 0 0 -1 -20 -4 -43z"/>
<path fill="#ffffff" stroke="none" d="M7757 2218 c13 -12 23 -30 23 -40 0
-23 -42 -50 -64 -42 -25 9 -37 49 -26 79 12 31 36 32 67 3z"/>
<path fill="#ffffff" stroke="none" d="M6457 2209 c24 -7 30 -14 26 -29 -9
-32 -22 -34 -48 -6 -13 14 -29 26 -35 26 -5 0 -10 7 -10 16 0 11 5 14 18 9 9
-4 31 -11 49 -16z"/>
<path fill="#ffffff" stroke="none" d="M6800 2223 c-1 -5 -7 -19 -15 -33 -8
-14 -14 -36 -15 -49 0 -16 -4 -21 -15 -17 -8 3 -24 -4 -35 -17 -17 -17 -23
-19 -29 -8 -5 8 -15 12 -22 9 -11 -4 -13 7 -11 53 l4 58 51 4 c29 2 60 4 70 5
9 1 17 -1 17 -5z"/>
<path fill="#ffffff" stroke="none" d="M7545 2182 c11 -1 25 -13 31 -26 10
-22 8 -23 -68 -39 -76 -16 -81 -16 -117 2 -20 11 -54 23 -75 26 -20 4 -34 11
-29 15 21 18 119 52 171 58 52 7 57 6 62 -13 3 -11 15 -21 25 -23z"/>
<path fill="#ffffff" stroke="none" d="M6630 2171 c0 -48 -20 -85 -35 -61 -3
5 -22 10 -41 10 -38 0 -39 3 -22 51 14 41 24 49 66 49 32 0 32 0 32 -49z"/>
<path fill="#ffffff" stroke="none" d="M6836 2192 c-17 -16 -18 -16 -5 5 7 12
15 20 18 17 3 -2 -3 -12 -13 -22z"/>
<path fill="#ffffff" stroke="none" d="M6353 2186 l29 -23 -25 -79 c-14 -43
-28 -95 -32 -114 -7 -33 -8 -34 -18 -12 -6 12 -14 22 -19 22 -4 0 -8 5 -8 12
0 22 -45 78 -62 78 -10 0 -18 6 -18 13 0 11 109 126 120 126 3 0 18 -10 33
-23z"/>
<path fill="#ffffff" stroke="none" d="M5236 2189 c3 -6 30 -26 59 -45 75 -47
168 -135 208 -197 52 -79 52 -84 9 -123 -20 -18 -39 -34 -42 -34 -3 0 -16 20
-29 45 -13 25 -41 60 -61 79 -20 18 -40 46 -44 62 -10 37 -63 144 -85 169 -35
41 -43 55 -33 55 6 0 14 -5 18 -11z"/>
<path fill="#ffffff" stroke="none" d="M7023 2115 c26 -20 47 -40 47 -45 0
-13 -7 -12 -55 4 -32 11 -41 20 -46 45 -4 17 -4 31 0 31 3 0 27 -16 54 -35z"/>
<path fill="#ffffff" stroke="none" d="M6060 2120 c6 -11 19 -20 30 -20 11 0
24 -9 30 -20 6 -11 19 -20 30 -20 12 0 21 -10 25 -29 4 -19 14 -31 26 -33 18
-3 18 -5 4 -25 -8 -12 -31 -27 -51 -33 -31 -11 -37 -10 -49 7 -8 10 -15 31
-15 46 0 35 -20 75 -54 106 -14 13 -23 28 -20 32 9 16 33 10 44 -11z"/>
<path fill="#ffffff" stroke="none" d="M6924 2108 c7 -30 -5 -37 -28 -15 -12
10 -12 15 2 30 18 20 17 20 26 -15z"/>
<path fill="#ffffff" stroke="none" d="M5819 2025 c5 -5 5 -18 2 -29 -7 -17
-8 -16 -24 7 -28 43 -31 74 -11 105 l19 27 3 -50 c2 -27 7 -54 11 -60z"/>
<path fill="#ffffff" stroke="none" d="M5977 2108 c29 -22 90 -88 80 -88 -2 0
-33 19 -69 43 -36 23 -73 47 -84 54 -17 11 -16 12 12 12 16 1 44 -9 61 -21z"/>
<path fill="#ffffff" stroke="none" d="M6450 2109 c0 -16 -81 -169 -90 -169
-4 0 3 37 16 83 13 45 24 85 24 90 0 11 50 8 50 -4z"/>
<path fill="#ffffff" stroke="none" d="M7355 2085 c63 -30 76 -41 109 -89 60
-89 16 -190 -94 -215 -72 -16 -101 -5 -140 53 -24 34 -55 63 -94 85 -56 34
-58 36 -52 69 8 50 32 81 79 103 59 26 131 24 192 -6z"/>
<path fill="#ffffff" stroke="none" d="M7643 2040 c-4 -17 0 -27 18 -41 13
-10 21 -20 19 -23 -3 -3 -39 -2 -80 1 l-75 6 -29 44 c-15 24 -26 46 -24 48 3
3 33 11 68 18 60 12 65 12 86 -8 17 -15 21 -28 17 -45z"/>
<path fill="#ffffff" stroke="none" d="M4251 2084 c112 -33 346 -165 468 -263
24 -20 78 -74 118 -121 93 -107 147 -215 212 -420 70 -219 169 -512 180 -532
8 -13 4 -20 -16 -33 -32 -22 -62 -8 -97 45 -33 51 -91 223 -116 350 -42 211
-88 330 -201 519 -80 134 -157 214 -284 296 -104 67 -179 105 -277 140 -43 15
-78 29 -78 31 0 8 39 3 91 -12z"/>
<path fill="#ffffff" stroke="none" d="M5898 2073 c66 -48 142 -114 142 -123
0 -5 -15 -4 -32 1 -18 5 -50 9 -70 9 -30 0 -38 4 -38 18 0 11 -9 27 -21 38
-29 26 -40 50 -33 68 8 21 9 21 52 -11z"/>
<path fill="#ffffff" stroke="none" d="M6547 2073 c4 -10 10 -20 14 -23 4 -3
19 -34 33 -69 20 -49 23 -67 14 -78 -9 -11 -13 -11 -27 1 -25 22 -88 36 -121
26 -16 -5 -32 -5 -34 -1 -3 4 13 42 35 84 29 56 46 77 60 77 11 0 23 -8 26
-17z"/>
<path fill="#ffffff" stroke="none" d="M6865 2069 c10 -14 1 -21 -19 -13 -9 3
-13 10 -10 15 7 12 21 11 29 -2z"/>
<path fill="#ffffff" stroke="none" d="M6770 2058 c-1 -36 -27 -103 -40 -104
-8 -1 -29 -4 -46 -8 -31 -7 -33 -5 -49 39 -14 35 -15 49 -6 58 9 9 16 9 30 0
14 -9 24 -8 47 7 34 22 64 25 64 8z"/>
<path fill="#ffffff" stroke="none" d="M2843 1991 c119 -89 199 -203 231 -327
17 -66 21 -132 8 -150 -23 -34 -59 -24 -162 47 -107 73 -248 124 -328 118 -34
-3 -47 4 -103 47 -35 28 -83 63 -106 79 -24 15 -40 31 -38 36 9 14 118 72 255
136 96 44 143 61 163 58 15 -2 51 -22 80 -44z"/>
<path fill="#ffffff" stroke="none" d="M7014 2030 c21 -8 26 -16 26 -43 0 -33
-2 -35 -41 -40 -30 -4 -52 -16 -78 -41 l-37 -36 -28 29 c-26 27 -27 30 -13 57
37 71 104 100 171 74z"/>
<path fill="#ffffff" stroke="none" d="M6256 1920 c17 0 18 -22 2 -38 -10 -10
-10 -17 -1 -31 10 -16 8 -22 -11 -34 -13 -9 -31 -23 -40 -33 -21 -21 -24 -17
-41 42 -7 27 -16 56 -19 65 -5 12 0 18 21 22 15 3 37 14 48 25 19 18 20 18 23
0 2 -10 10 -18 18 -18z"/>
<path fill="#ffffff" stroke="none" d="M7565 1930 c3 -5 -3 -10 -15 -10 -12 0
-18 5 -15 10 3 6 10 10 15 10 5 0 12 -4 15 -10z"/>
<path fill="#ffffff" stroke="none" d="M7647 1934 c-3 -3 -12 -4 -19 -1 -8 3
-5 6 6 6 11 1 17 -2 13 -5z"/>
<path fill="#ffffff" stroke="none" d="M5777 1907 c7 -5 20 -7 28 -3 10 4 23
-7 40 -34 41 -65 132 -96 161 -55 29 39 9 76 -52 100 l-39 15 45 -4 c25 -3 63
-11 85 -18 35 -12 42 -20 61 -68 39 -100 40 -102 7 -89 -15 6 -66 11 -112 11
-55 0 -94 4 -113 14 -32 16 -158 132 -158 145 0 9 28 1 47 -14z"/>
<path fill="#ffffff" stroke="none" d="M6765 1910 c22 0 74 -50 95 -90 10 -20
22 -60 26 -89 6 -50 6 -52 -30 -84 -21 -19 -44 -53 -55 -82 -25 -66 -54 -77
-119 -43 -113 58 -137 253 -41 349 36 36 69 50 97 43 8 -2 20 -4 27 -4z"/>
<path fill="#ffffff" stroke="none" d="M7094 1895 c52 -22 108 -82 133 -143
25 -59 26 -58 -50 -65 -26 -3 -56 -12 -67 -22 -18 -16 -21 -16 -63 4 -24 11
-59 21 -79 21 l-36 0 -7 71 c-6 62 -5 75 12 98 38 51 91 63 157 36z"/>
<path fill="#ffffff" stroke="none" d="M2161 1879 c179 -58 384 -211 443 -331
39 -80 55 -149 62 -268 6 -89 3 -117 -15 -183 -26 -97 -71 -177 -136 -245 -37
-38 -59 -52 -79 -52 -46 0 -82 26 -107 77 -31 64 -31 188 0 283 24 75 29 260
10 352 -25 119 -106 250 -211 342 -29 25 -48 46 -42 46 6 0 40 -9 75 -21z"/>
<path fill="#ffffff" stroke="none" d="M5948 1878 c23 -6 32 -15 32 -30 0 -17
-4 -19 -26 -14 -14 4 -37 14 -50 23 -28 18 -34 49 -6 38 9 -4 32 -11 50 -17z"/>
<path fill="#ffffff" stroke="none" d="M5760 1842 c25 -27 56 -56 69 -65 32
-22 25 -27 -44 -34 -52 -6 -65 -3 -126 28 -38 19 -68 40 -69 47 0 6 4 11 9 10
5 -2 16 6 25 17 13 18 17 18 37 7 18 -12 23 -12 30 0 5 7 9 19 9 26 0 21 14
13 60 -36z"/>
<path fill="#ffffff" stroke="none" d="M6545 1878 c29 -13 30 -17 10 -65 -25
-60 -20 -163 12 -227 25 -52 26 -56 10 -74 -25 -27 -80 -41 -123 -32 -100 23
-158 156 -123 283 11 41 61 104 93 117 31 13 91 12 121 -2z"/>
<path fill="#ffffff" stroke="none" d="M7558 1824 c46 -32 82 -94 82 -141 0
-58 -27 -97 -85 -118 -64 -25 -110 -14 -161 39 -22 24 -55 49 -72 57 -18 8
-32 16 -33 19 0 3 -2 14 -4 26 -4 19 1 22 56 28 69 7 127 35 158 77 25 34 29
34 59 13z"/>
<path fill="#ffffff" stroke="none" d="M5619 1758 l46 -22 -40 -7 c-36 -7
-115 7 -115 19 0 9 35 31 49 32 8 0 35 -10 60 -22z"/>
<path fill="#ffffff" stroke="none" d="M6232 1738 c-7 -7 -12 -8 -12 -2 0 14
12 26 19 19 2 -3 -1 -11 -7 -17z"/>
<path fill="#ffffff" stroke="none" d="M3553 1545 c25 -50 157 -233 215 -300
17 -19 71 -65 119 -102 48 -36 106 -81 128 -99 46 -37 203 -117 328 -167 91
-37 187 -94 187 -111 0 -5 -9 -20 -21 -32 l-21 -22 -42 29 c-48 34 -134 49
-185 31 -17 -6 -69 -39 -116 -72 -91 -67 -193 -109 -261 -110 -63 0 -152 50
-222 124 -86 92 -106 151 -138 406 -14 113 -29 223 -34 245 -5 22 -12 94 -15
160 -3 66 -8 139 -10 162 -5 66 7 59 35 -19 15 -40 38 -95 53 -123z"/>
<path fill="#ffffff" stroke="none" d="M5490 1704 c0 -2 -12 -4 -26 -4 -14 0
-23 4 -20 9 6 8 46 4 46 -5z"/>
<path fill="#ffffff" stroke="none" d="M5889 1673 c-22 -20 -63 -69 -90 -108
-45 -66 -54 -73 -91 -79 -45 -7 -62 0 -35 16 37 20 86 70 111 112 34 58 80 96
117 96 l29 0 -41 -37z"/>
<path fill="#ffffff" stroke="none" d="M6145 1684 c38 -18 40 -21 37 -58 -2
-22 -8 -50 -13 -62 -12 -34 -98 -118 -144 -142 -73 -39 -228 -93 -238 -83 -6
6 2 15 22 25 18 10 31 24 31 36 0 21 43 58 74 65 12 2 34 6 49 10 36 7 77 51
77 80 0 63 -82 52 -160 -21 -32 -30 -53 -42 -64 -38 -20 8 -20 7 7 46 54 80
84 112 131 139 42 25 60 29 101 26 28 -2 69 -12 90 -23z"/>
<path fill="#ffffff" stroke="none" d="M5788 1673 c-13 -16 -35 -44 -46 -64
-39 -64 -140 -114 -155 -76 -3 8 18 32 50 58 31 24 63 53 72 65 22 27 51 43
80 44 l25 0 -26 -27z"/>
<path fill="#ffffff" stroke="none" d="M7941 1656 c19 -31 25 -67 13 -79 -3
-3 -17 -2 -30 3 -15 6 -34 6 -50 0 -25 -10 -26 -9 -20 12 4 13 10 41 13 64 5
37 8 40 30 36 14 -3 33 -19 44 -36z"/>
<path fill="#ffffff" stroke="none" d="M5648 1643 c-18 -19 -48 -44 -66 -55
-31 -19 -35 -19 -50 -5 -14 15 -13 17 9 25 13 6 44 26 67 45 57 48 88 40 40
-10z"/>
<path fill="#ffffff" stroke="none" d="M7826 1625 c-7 -36 -39 -71 -55 -60
-23 14 -12 66 21 98 28 28 33 30 36 14 2 -11 1 -34 -2 -52z"/>
<path fill="#ffffff" stroke="none" d="M5580 1675 c0 -6 -73 -55 -82 -55 -5 0
-8 7 -8 15 0 9 -9 15 -25 15 -51 0 -23 19 33 23 31 2 63 4 70 5 6 1 12 0 12
-3z"/>
<path fill="#ffffff" stroke="none" d="M7018 1636 c105 -55 150 -215 89 -318
-66 -113 -194 -94 -258 39 -76 156 40 346 169 279z"/>
<path fill="#ffffff" stroke="none" d="M7285 1631 c75 -34 145 -136 145 -211
0 -37 -31 -91 -64 -111 -41 -25 -99 -24 -154 2 l-44 22 7 54 c7 61 -8 141 -37
188 -24 41 -23 52 10 63 42 16 93 13 137 -7z"/>
<path fill="#ffffff" stroke="none" d="M6270 1620 c10 -5 21 -22 24 -36 11
-43 63 -111 95 -125 26 -12 29 -17 23 -39 -14 -51 -6 -153 16 -204 12 -27 20
-51 17 -54 -2 -3 -12 12 -21 34 -9 21 -22 43 -30 49 -9 6 -17 40 -21 94 -5 62
-11 89 -25 103 -78 78 -98 -110 -24 -222 16 -24 25 -48 21 -59 -3 -10 3 -29
14 -43 16 -20 18 -31 11 -54 -4 -16 -9 -23 -9 -16 -1 7 -26 52 -56 102 -69
110 -80 137 -95 227 -10 61 -9 85 6 162 10 50 21 91 26 91 5 0 18 -4 28 -10z"/>
<path fill="#ffffff" stroke="none" d="M5466 1570 c13 -7 24 -21 24 -31 0 -10
9 -21 20 -24 11 -4 32 -18 46 -32 29 -29 29 -17 0 -272 -14 -122 -19 -142 -62
-233 -42 -90 -46 -105 -41 -153 3 -29 13 -67 21 -84 16 -29 16 -31 -2 -31 -39
0 -105 -31 -202 -95 -54 -36 -102 -70 -105 -75 -13 -22 -23 2 -15 36 11 48 35
71 117 114 112 58 143 135 83 203 -16 19 -30 38 -30 43 0 4 12 20 26 35 15 16
28 43 31 67 5 36 2 44 -36 85 -23 25 -39 51 -36 59 3 7 22 22 41 33 87 47 98
119 29 195 -40 44 -40 65 -2 95 25 18 39 40 48 73 9 33 14 41 16 26 2 -12 15
-27 29 -34z"/>
<path fill="#ffffff" stroke="none" d="M7704 1495 c21 -44 20 -107 -1 -134
l-18 -22 -35 48 c-35 47 -111 95 -175 109 -26 6 -22 8 32 15 61 8 115 29 128
50 9 14 49 -24 69 -66z"/>
<path fill="#ffffff" stroke="none" d="M6000 1549 c0 -19 -33 -38 -64 -39 -34
0 -28 10 19 34 36 19 45 20 45 5z"/>
<path fill="#ffffff" stroke="none" d="M3490 1106 c6 -38 13 -81 16 -95 5 -23
4 -24 -7 -7 -21 34 -69 218 -79 305 -11 100 -13 225 -3 235 4 4 19 -78 35
-181 15 -103 32 -219 38 -257z"/>
<path fill="#ffffff" stroke="none" d="M7920 1535 c0 -9 -9 -15 -25 -15 -24 0
-32 10 -18 23 12 13 43 7 43 -8z"/>
<path fill="#ffffff" stroke="none" d="M6640 1497 c0 -1 -9 -29 -21 -62 -13
-39 -19 -77 -17 -110 2 -34 -2 -59 -13 -75 -9 -14 -21 -42 -28 -62 -14 -42
-14 -42 -41 -28 -47 25 -86 142 -72 220 7 43 9 45 52 53 25 5 63 22 85 37 36
26 55 35 55 27z"/>
<path fill="#ffffff" stroke="none" d="M6107 1394 c-41 -81 -50 -90 -142 -139
-38 -21 -96 -57 -128 -82 -39 -29 -54 -37 -47 -23 9 16 8 22 -4 26 -11 4 -14
14 -10 29 4 17 0 24 -16 28 -50 13 9 56 140 103 100 35 180 76 209 108 14 14
26 24 28 22 3 -2 -11 -35 -30 -72z"/>
<path fill="#ffffff" stroke="none" d="M6786 1425 c4 -32 0 -51 -20 -89 -14
-26 -28 -74 -32 -107 l-7 -60 -28 27 c-57 54 -71 152 -35 238 13 31 16 32 65
32 l51 -1 6 -40z"/>
<path fill="#ffffff" stroke="none" d="M7565 1412 c57 -40 98 -122 92 -186 -4
-40 -11 -55 -37 -79 -30 -27 -38 -29 -90 -25 -73 5 -123 37 -145 93 l-15 40
35 30 c39 33 65 88 65 136 0 29 2 31 28 25 15 -4 45 -19 67 -34z"/>
<path fill="#ffffff" stroke="none" d="M6340 1335 c0 -42 -3 -55 -10 -45 -13
21 -23 96 -16 117 12 31 26 -7 26 -72z"/>
<path fill="#ffffff" stroke="none" d="M6183 1363 c10 -74 24 -114 64 -178 46
-76 102 -178 103 -187 0 -4 -12 -1 -27 7 -36 19 -43 12 -43 -41 0 -40 -2 -44
-18 -35 -13 7 -24 35 -36 90 -10 47 -35 115 -61 167 -25 48 -45 96 -45 106 0
22 41 118 50 118 4 0 10 -21 13 -47z"/>
<path fill="#ffffff" stroke="none" d="M6946 1206 c27 -6 32 -13 38 -46 3 -21
15 -60 27 -87 l20 -48 -30 -27 c-77 -69 -182 -6 -217 131 -16 63 -14 101 7
168 l10 32 57 -58 c35 -36 69 -61 88 -65z"/>
<path fill="#ffffff" stroke="none" d="M7188 1274 c13 -9 50 -18 82 -21 l59
-6 16 -45 c41 -122 -6 -236 -103 -249 -83 -11 -176 69 -206 178 -10 33 -16 62
-14 64 2 1 21 12 44 23 23 12 48 32 58 46 19 30 33 32 64 10z"/>
<path fill="#ffffff" stroke="none" d="M6020 1200 c-11 -28 -20 -52 -20 -54 0
-2 -31 -27 -70 -55 -38 -29 -84 -72 -101 -96 -18 -26 -40 -45 -51 -45 -17 0
-17 2 -3 36 19 45 19 44 -5 44 -65 0 38 97 210 198 56 33 62 28 40 -28z"/>
<path fill="#ffffff" stroke="none" d="M6174 1093 c17 -54 46 -178 46 -196 0
-7 -5 -4 -11 6 -7 12 -17 16 -30 12 -15 -5 -19 -2 -19 15 0 33 -28 81 -77 131
l-45 47 17 53 c32 97 32 97 70 35 18 -31 40 -77 49 -103z"/>
<path fill="#ffffff" stroke="none" d="M6719 1125 c10 -3 27 -29 39 -58 20
-48 21 -59 11 -105 -12 -49 -14 -52 -44 -52 -43 0 -94 36 -118 84 -25 47 -26
135 -3 189 l15 37 42 -44 c22 -25 49 -48 58 -51z"/>
<path fill="#ffffff" stroke="none" d="M7740 1068 c0 -35 -6 -54 -23 -73 l-22
-26 -21 23 c-11 13 -26 41 -32 63 -11 36 -9 42 12 65 13 14 29 36 37 50 l12
25 18 -40 c10 -22 19 -61 19 -87z"/>
<path fill="#ffffff" stroke="none" d="M7539 1075 l55 -1 9 -37 c35 -146 -113
-219 -235 -117 -31 27 -32 29 -16 47 24 27 48 87 48 123 l0 30 42 -22 c27 -14
61 -22 97 -23z"/>
<path fill="#ffffff" stroke="none" d="M5968 1043 c-12 -46 -25 -71 -48 -96
-10 -10 -28 -38 -41 -61 -19 -37 -26 -42 -55 -42 -19 0 -34 3 -34 7 0 29 53
114 104 166 73 74 89 80 74 26z"/>
<path fill="#ffffff" stroke="none" d="M6066 1034 c44 -46 63 -82 70 -137 5
-35 3 -45 -10 -50 -12 -5 -15 -14 -10 -31 3 -13 1 -27 -5 -30 -7 -5 -11 2 -11
16 0 27 -49 115 -79 142 -11 11 -21 26 -21 34 0 18 22 92 27 92 2 0 19 -16 39
-36z"/>
<path fill="#ffffff" stroke="none" d="M7090 963 c53 -67 -23 -236 -116 -259
-51 -13 -119 27 -151 90 -16 31 -25 157 -12 171 4 3 22 -3 40 -14 61 -37 162
-23 192 26 12 19 23 16 47 -14z"/>
<path fill="#ffffff" stroke="none" d="M7680 898 c34 -75 21 -155 -32 -192
-67 -47 -218 25 -218 103 0 25 2 26 44 23 63 -5 126 25 151 71 11 21 23 37 28
37 4 0 17 -19 27 -42z"/>
<path fill="#ffffff" stroke="none" d="M6028 888 c40 -59 44 -77 28 -128 -8
-27 -14 -36 -15 -24 -1 12 -17 44 -36 72 -28 42 -33 56 -28 86 3 20 9 36 14
36 4 0 21 -19 37 -42z"/>
<path fill="#ffffff" stroke="none" d="M7339 887 c54 -45 65 -110 32 -184 -24
-53 -50 -67 -114 -60 -44 4 -56 10 -94 50 -48 51 -50 64 -27 143 9 31 14 60
11 67 -3 9 18 12 78 11 74 -1 86 -3 114 -27z"/>
<path fill="#ffffff" stroke="none" d="M5920 829 c-5 -41 -10 -96 -10 -122 0
-41 3 -48 18 -45 10 2 18 14 20 28 8 76 14 110 20 110 4 0 15 -13 24 -30 19
-33 14 -100 -7 -100 -7 0 -19 -10 -27 -22 -13 -20 -15 -20 -39 -5 -20 13 -27
30 -37 89 -12 70 -12 73 14 125 15 29 29 52 31 50 1 -2 -1 -37 -7 -78z"/>
<path fill="#ffffff" stroke="none" d="M4904 818 c29 -8 60 -32 109 -81 64
-66 69 -69 107 -65 22 2 40 3 40 1 0 -1 -10 -19 -22 -39 -15 -26 -22 -56 -24
-98 -1 -34 -8 -79 -16 -101 -13 -35 -19 -40 -50 -43 -48 -4 -88 41 -88 99 0
37 -1 39 -32 39 -18 0 -51 -5 -73 -10 -47 -11 -50 -9 -35 20 9 16 8 25 -1 36
-10 12 -29 14 -105 8 -104 -7 -125 1 -179 71 -26 36 -27 37 -8 50 11 7 28 32
38 54 21 48 44 52 107 20 48 -24 71 -20 123 21 42 34 50 35 109 18z"/>
<path fill="#ffffff" stroke="none" d="M4428 714 c17 -14 32 -29 32 -35 0 -5
-28 -22 -62 -38 -102 -45 -114 -76 -69 -166 16 -32 27 -63 25 -67 -3 -5 -9
-30 -13 -56 l-6 -47 -89 -3 c-76 -2 -105 2 -195 28 -138 41 -201 72 -261 128
-49 46 -120 152 -120 179 0 10 11 6 33 -11 128 -98 277 -86 452 35 49 34 102
68 119 75 42 19 113 9 154 -22z"/>
<path fill="#ffffff" stroke="none" d="M7104 695 c9 -13 28 -35 42 -49 24 -22
26 -27 15 -56 -6 -18 -11 -46 -11 -61 0 -38 -9 -41 -57 -19 -31 14 -49 32 -72
72 -34 58 -39 88 -17 88 8 0 28 11 43 25 35 30 37 30 57 0z"/>
<path fill="#ffffff" stroke="none" d="M7471 683 c31 -21 57 -28 106 -31 63
-4 66 -6 79 -38 27 -65 9 -143 -43 -184 -35 -28 -97 -23 -148 11 -36 24 -95
124 -95 160 0 15 49 108 58 109 1 0 21 -12 43 -27z"/>
<path fill="#ffffff" stroke="none" d="M5510 623 c0 -65 -39 -130 -133 -221
-94 -90 -170 -129 -221 -112 -37 12 -46 26 -46 68 1 51 36 108 93 150 29 22
61 48 70 57 41 40 163 105 200 105 l37 0 0 -47z"/>
<path fill="#ffffff" stroke="none" d="M4606 552 c12 -7 51 -8 97 -5 52 4 77
2 77 -5 0 -6 -4 -14 -10 -17 -20 -12 -11 -45 13 -46 30 -2 25 -2 90 6 l57 6 0
-30 c0 -24 -4 -31 -20 -31 -10 0 -90 -18 -177 -40 -178 -46 -354 -82 -361 -75
-3 3 1 29 8 59 12 51 11 55 -14 98 -14 25 -26 58 -26 75 0 27 6 34 45 52 25
12 49 21 53 21 5 0 17 9 27 20 19 21 19 20 69 -29 28 -27 60 -53 72 -59z"/>
<path fill="#ffffff" stroke="none" d="M7330 588 c0 -4 9 -31 20 -60 20 -53
49 -92 92 -122 22 -16 22 -16 4 -50 -43 -80 -143 -73 -208 16 -45 59 -61 143
-39 201 8 22 15 24 70 23 34 0 61 -4 61 -8z"/>
<path fill="#ffffff" stroke="none" d="M873 581 c39 -15 78 -62 75 -91 -7 -57
-129 -23 -152 42 -17 47 20 70 77 49z"/>
<path fill="#ffffff" stroke="none" d="M4986 375 c28 -19 45 -24 66 -20 23 5
28 3 28 -12 0 -15 -8 -18 -48 -19 -26 0 -79 -12 -117 -27 -236 -89 -450 -133
-608 -125 -70 4 -93 10 -157 42 -41 21 -85 48 -98 60 l-23 22 88 -18 c61 -12
108 -16 153 -12 127 11 309 45 476 88 93 25 177 45 186 45 9 1 34 -10 54 -24z"/>
<path fill="#ffffff" stroke="none" d="M7652 340 c40 -79 12 -177 -56 -200
-65 -21 -128 15 -160 92 -15 36 -15 36 14 60 16 12 35 35 41 50 10 24 18 28
63 31 77 5 80 5 98 -33z"/>
<path fill="#000000" stroke="none" d="M6985 4526 c-27 -7 -61 -18 -75 -23
-31 -13 -66 -51 -56 -60 4 -5 12 0 17 10 25 44 133 69 295 69 151 -1 258 -18
328 -51 31 -15 55 -23 53 -17 -6 22 -95 56 -187 71 -113 18 -305 18 -375 1z"/>
<path fill="#000000" stroke="none" d="M7015 4441 c-17 -4 49 -10 155 -13 102
-3 196 -9 210 -13 17 -5 22 -4 15 3 -26 26 -295 42 -380 23z"/>
<path fill="#000000" stroke="none" d="M7516 4412 c-9 -15 -123 -43 -208 -52
-99 -10 -268 3 -365 28 -83 21 -100 10 -20 -12 168 -48 410 -48 555 0 53 18
68 29 54 38 -6 3 -13 2 -16 -2z"/>
<path fill="#000000" stroke="none" d="M4669 2990 c-8 -5 -24 -27 -34 -50 -11
-25 -25 -40 -36 -40 -10 0 -33 -13 -51 -29 l-33 -30 34 -34 c18 -20 30 -40 27
-46 -10 -16 13 -91 30 -98 21 -8 42 14 56 58 10 36 14 39 49 39 28 0 39 5 44
19 7 22 -2 49 -24 75 -11 12 -16 38 -16 79 0 64 -11 78 -46 57z"/>
<path fill="#ffffff" stroke="none" d="M4676 2922 c-8 -24 9 -78 30 -99 17
-17 16 -18 -19 -24 -41 -6 -39 -6 -55 -34 -11 -19 -11 -18 -12 6 0 17 -9 33
-26 44 -28 18 -23 31 16 37 23 3 41 27 54 71 3 9 8 17 11 17 4 0 4 -8 1 -18z"/>
<path fill="#000000" stroke="none" d="M4740 2241 c-19 -89 -9 -244 18 -305
26 -58 42 -55 19 3 -28 70 -37 153 -26 257 6 53 8 98 6 100 -2 3 -10 -22 -17
-55z"/>
<path fill="#000000" stroke="none" d="M4155 2260 c3 -19 15 -44 26 -55 l21
-20 -20 40 c-11 22 -23 47 -26 55 -3 8 -4 -1 -1 -20z"/>
<path fill="#000000" stroke="none" d="M5041 1940 c-41 -57 -58 -139 -51 -255
2 -39 4 -31 10 40 8 104 31 183 67 225 14 17 20 30 14 30 -6 0 -24 -18 -40
-40z"/>
<path fill="#000000" stroke="none" d="M3870 1920 c-68 -27 -130 -65 -174
-105 -54 -48 -37 -44 38 10 35 24 94 60 132 79 75 38 77 46 4 16z"/>
<path fill="#000000" stroke="none" d="M4170 1830 c-93 -9 -183 -30 -263 -61
-56 -22 -176 -98 -198 -126 -8 -9 6 -3 31 13 134 90 235 127 397 149 65 9 136
20 158 24 l40 9 -40 -1 c-22 0 -78 -3 -125 -7z"/>
<path fill="#000000" stroke="none" d="M4215 1705 c-57 -12 -135 -40 -135 -48
0 -1 39 7 88 19 69 18 118 23 242 25 113 1 143 4 110 10 -69 12 -238 9 -305
-6z"/>
<path fill="#000000" stroke="none" d="M5193 1653 c-65 -146 -81 -230 -64
-334 10 -62 38 -146 46 -138 1 2 -5 36 -15 74 -31 117 -26 181 24 328 25 70
42 127 40 127 -3 0 -17 -26 -31 -57z"/>
<path fill="#000000" stroke="none" d="M4345 1554 c-52 -7 -206 -46 -202 -51
3 -2 42 4 88 14 88 18 241 23 384 11 l80 -6 -60 13 c-65 14 -241 26 -290 19z"/>
<path fill="#000000" stroke="none" d="M4275 1344 c-60 -15 -145 -50 -180 -75
-50 -36 -112 -90 -75 -66 67 44 139 85 177 100 134 53 509 36 635 -29 16 -9
27 -11 23 -5 -10 18 -66 43 -125 59 -54 13 -413 26 -455 16z"/>
<path fill="#000000" stroke="none" d="M4560 1071 c-43 -7 -140 -45 -140 -54
0 -3 32 6 71 19 45 15 93 24 132 24 69 0 234 -16 263 -26 15 -4 16 -3 4 4 -39
25 -248 46 -330 33z"/>
<path fill="#000000" stroke="none" d="M318 183 c7 -3 16 -2 19 1 4 3 -2 6
-13 5 -11 0 -14 -3 -6 -6z"/>
<path fill="#000000" stroke="none" d="M364 176 c-3 -8 -4 -23 -1 -33 3 -11 5
-7 6 11 1 23 5 27 21 23 11 -3 18 -1 14 4 -8 14 -34 11 -40 -5z"/>
<path fill="#000000" stroke="none" d="M442 178 c-6 -6 -12 -16 -12 -22 0 -5
6 -2 13 9 17 23 41 10 33 -18 -3 -14 -2 -17 5 -10 15 15 7 47 -11 51 -9 1 -21
-3 -28 -10z"/>
<path fill="#000000" stroke="none" d="M512 160 c0 -19 2 -27 5 -17 2 9 2 25
0 35 -3 9 -5 1 -5 -18z"/>
<path fill="#000000" stroke="none" d="M622 153 c1 -37 1 -37 5 -5 2 17 9 32
14 32 6 0 7 -4 4 -10 -3 -5 -2 -18 4 -27 8 -15 9 -12 7 12 -2 18 -10 31 -20
33 -13 3 -16 -4 -14 -35z"/>
<path fill="#000000" stroke="none" d="M696 175 c-17 -13 -17 -15 -3 -29 20
-20 33 -21 17 -1 -10 12 -10 18 0 30 15 19 11 19 -14 0z"/>
<path fill="#000000" stroke="none" d="M742 165 c0 -16 2 -22 5 -12 2 9 2 23
0 30 -3 6 -5 -1 -5 -18z"/>
<path fill="#000000" stroke="none" d="M771 158 c2 -31 2 -31 6 -5 5 33 28 31
27 -2 0 -13 3 -18 9 -12 15 15 3 46 -21 49 -19 3 -22 -1 -21 -30z"/>
<path fill="#000000" stroke="none" d="M845 180 c-3 -5 1 -20 9 -32 12 -17 16
-19 16 -6 0 9 -6 19 -12 21 -10 4 -9 8 2 16 9 7 10 11 3 11 -6 0 -15 -4 -18
-10z"/>
<path fill="#000000" stroke="none" d="M938 183 c7 -3 16 -2 19 1 4 3 -2 6
-13 5 -11 0 -14 -3 -6 -6z"/>
<path fill="#000000" stroke="none" d="M992 178 c-14 -14 -16 -34 -4 -42 5 -3
8 5 8 17 -1 13 5 22 14 22 9 0 15 -9 14 -23 0 -16 2 -20 10 -12 7 7 7 16 0 27
-14 22 -27 26 -42 11z"/>
<path fill="#000000" stroke="none" d="M1061 180 c0 -8 6 -24 14 -34 19 -25
19 -9 0 24 -8 14 -14 19 -14 10z"/>
<path fill="#000000" stroke="none" d="M1101 178 c0 -7 4 -22 9 -33 8 -18 9
-17 9 7 1 15 -3 30 -9 33 -5 3 -10 0 -9 -7z"/>
<path fill="#000000" stroke="none" d="M300 156 c0 -8 4 -17 9 -20 5 -4 7 3 4
14 -6 23 -13 26 -13 6z"/>
<path fill="#000000" stroke="none" d="M920 156 c0 -8 4 -17 9 -20 5 -4 7 3 4
14 -6 23 -13 26 -13 6z"/>
<path fill="#000000" stroke="none" d="M405 149 c-4 -6 -5 -12 -2 -15 2 -3 7
2 10 11 7 17 1 20 -8 4z"/>
<path fill="#000000" stroke="none" d="M568 133 c7 -3 16 -2 19 1 4 3 -2 6
-13 5 -11 0 -14 -3 -6 -6z"/>
</g>
</svg>
