<?xml version="1.0" standalone="no"?>
<!DOCTYPE svg PUBLIC "-//W3C//DTD SVG 20010904//EN"
 "http://www.w3.org/TR/2001/REC-SVG-20010904/DTD/svg10.dtd">
<svg version="1.0" xmlns="http://www.w3.org/2000/svg"
 width="900.000000pt" height="658.000000pt" viewBox="0 0 900.000000 658.000000"
 preserveAspectRatio="xMidYMid meet">
<metadata>
Created by potrace 1.14, written by Peter Selinger 2001-2017
</metadata>
<g transform="translate(0.000000,658.000000) scale(0.100000,-0.100000)"
fill="#000000" stroke="none">
<path fill="#000000" stroke="none" d="M7106 6279 c-41 -36 -145 -234 -199
-379 -42 -112 -81 -249 -98 -341 -14 -78 3 -70 -234 -119 -82 -17 -188 -39
-235 -50 -47 -10 -132 -24 -190 -29 -58 -6 -159 -15 -225 -22 -210 -19 -340
-65 -442 -154 -205 -180 -294 -608 -223 -1072 48 -310 185 -724 332 -1002 47
-91 49 -97 38 -135 -15 -56 -70 -365 -70 -393 0 -27 -1 -27 -100 -12 l-75 12
0 216 c-1 249 -11 315 -80 531 -99 310 -301 656 -574 985 -94 113 -332 351
-432 432 -188 152 -407 276 -584 329 -79 25 -107 28 -235 28 l-145 1 12 130
c52 563 64 674 75 703 32 84 -81 165 -316 227 -205 53 -415 80 -747 96 -689
34 -1401 -74 -1535 -234 -20 -24 -25 -39 -22 -66 3 -20 57 -286 122 -591 252
-1198 277 -1322 274 -1326 -2 -2 -50 135 -107 304 -57 169 -114 326 -127 349
-33 58 -78 83 -148 83 -202 0 -365 -173 -441 -467 -63 -242 -76 -636 -30 -905
26 -153 72 -321 145 -540 39 -115 70 -209 70 -210 0 -2 -26 -3 -58 -4 -188 -1
-323 -241 -351 -624 -9 -108 -8 -148 4 -202 21 -101 70 -192 148 -272 l67 -71
-34 -91 c-65 -169 -79 -244 -80 -399 0 -125 3 -146 24 -193 37 -86 86 -105
139 -55 16 16 81 127 144 248 186 358 214 398 313 445 67 33 189 31 329 -5
225 -57 293 -101 552 -356 345 -340 429 -412 573 -494 151 -86 200 -96 530
-105 371 -11 390 -14 629 -125 101 -47 129 -56 158 -52 111 18 212 166 183
268 -13 45 -9 41 -140 155 -192 168 -199 180 -265 409 -51 180 -75 237 -137
320 -83 113 -186 185 -354 249 -182 69 -258 120 -354 242 -182 229 -253 496
-177 666 30 67 61 90 131 96 l51 4 18 -93 c84 -445 352 -833 734 -1062 56 -34
62 -41 68 -80 17 -98 71 -218 137 -302 150 -190 284 -305 510 -436 89 -52 256
-163 268 -179 3 -3 30 -25 61 -48 117 -87 244 -128 639 -203 203 -39 330 -46
495 -26 72 9 166 19 210 23 159 12 328 68 563 184 162 80 274 110 423 113 63
1 146 -3 184 -8 39 -6 129 -8 202 -5 115 4 135 8 161 27 29 21 31 22 118 7 49
-8 127 -19 174 -24 138 -16 291 -38 349 -49 113 -23 219 -112 305 -256 63
-105 98 -140 159 -155 23 -6 58 -16 77 -22 41 -13 108 -12 145 2 41 16 75 59
75 96 0 36 -22 113 -44 154 -7 14 -23 53 -35 88 -27 78 -20 97 59 159 117 92
134 110 157 159 12 27 28 84 34 125 11 68 10 78 -9 122 -21 48 -87 105 -138
119 -48 13 -163 -22 -404 -123 -138 -58 -193 -71 -300 -72 -65 0 -130 6 -170
16 -71 17 -258 53 -330 62 -101 13 -98 12 -93 54 6 46 -11 83 -64 132 -37 36
-93 58 -218 89 -215 53 -311 116 -447 293 l-60 78 29 21 c156 116 414 487 439
631 3 20 10 39 14 42 5 3 46 -4 92 -15 105 -25 184 -25 280 -1 178 46 359 174
523 371 287 346 515 862 611 1385 26 139 27 531 2 620 -45 162 -106 268 -225
391 -226 235 -527 361 -939 395 -127 10 -368 6 -436 -7 -25 -5 -28 -2 -28 19
0 85 121 436 170 490 15 17 69 51 121 76 87 42 94 48 97 78 6 59 -95 143 -172
143 -25 0 -45 -9 -70 -31z"/>
<path fill="#ffffff" stroke="none" d="M7218 6246 c15 -8 40 -28 56 -44 l28
-30 -98 -49 c-117 -57 -140 -85 -202 -246 -93 -241 -152 -589 -152 -904 l0
-113 -30 0 c-36 0 -35 -7 -20 210 29 414 98 702 236 988 96 198 118 221 182
188z"/>
<path fill="#ffffff" stroke="none" d="M2508 6200 c550 -39 916 -151 864 -265
-68 -149 -808 -259 -1520 -226 -523 24 -868 95 -982 201 -41 38 -38 65 10 111
81 78 385 146 790 178 155 12 669 13 838 1z"/>
<path fill="#ffffff" stroke="none" d="M1024 5790 c246 -83 635 -130 1081
-130 534 0 982 63 1196 170 59 29 59 29 59 7 -1 -46 -57 -608 -61 -612 -3 -2
-41 7 -84 21 -358 112 -887 126 -1395 38 -322 -55 -593 -139 -735 -228 l-41
-25 -82 392 c-45 216 -85 402 -88 415 l-7 23 35 -21 c20 -11 74 -34 122 -50z"/>
<path fill="#ffffff" stroke="none" d="M7508 5449 c340 -37 641 -176 828 -383
177 -195 233 -370 221 -686 -27 -675 -411 -1508 -852 -1845 -134 -103 -307
-164 -425 -150 -49 6 -180 34 -188 41 -2 1 2 47 8 103 14 119 4 214 -35 341
-43 137 -133 247 -247 304 -39 20 -55 35 -69 66 -10 22 -16 40 -13 40 3 0 26
-18 51 -40 83 -73 130 -46 103 58 -15 61 -49 105 -108 139 -40 24 -60 28 -142
31 -52 2 -114 -1 -138 -6 -41 -10 -42 -9 -48 17 -25 113 -40 157 -79 237 -98
200 -241 280 -312 175 -21 -30 -21 -35 -8 -61 8 -15 30 -38 49 -49 48 -30 129
-121 169 -189 33 -56 67 -134 67 -152 0 -5 -23 7 -51 26 -45 30 -59 34 -114
34 -97 0 -135 -19 -135 -67 0 -15 -6 -23 -17 -23 -63 0 -187 -101 -200 -160
-3 -17 -21 -36 -49 -54 -25 -16 -59 -46 -76 -67 l-32 -39 -18 28 c-34 54 -147
319 -193 453 -103 300 -154 551 -162 809 -5 149 -2 193 15 297 38 219 92 345
191 444 113 113 221 148 526 174 183 15 357 45 625 106 68 15 126 27 128 24 2
-2 -1 -34 -7 -72 -6 -37 -16 -160 -22 -273 -6 -113 -12 -210 -14 -216 -4 -15
-155 1 -240 27 -38 11 -136 56 -217 99 -142 77 -183 89 -176 52 4 -19 178
-120 289 -167 127 -55 213 -70 389 -69 173 2 252 15 420 70 129 43 334 143
338 165 6 32 -30 28 -108 -11 -164 -83 -345 -143 -489 -164 l-44 -7 7 168 c4
92 13 222 21 288 8 66 15 123 15 127 0 17 428 23 568 7z"/>
<path fill="#ffffff" stroke="none" d="M2840 5286 c180 -23 440 -76 440 -91 0
-1 -28 -21 -62 -43 -125 -82 -326 -159 -518 -200 -408 -88 -964 -90 -1430 -6
-106 19 -200 44 -200 54 0 10 140 79 250 124 216 88 531 153 865 180 109 9
535 -3 655 -18z"/>
<path fill="#ffffff" stroke="none" d="M3296 5154 c-3 -9 -6 -29 -6 -45 0 -16
-5 -29 -12 -29 -26 0 -141 -61 -196 -104 -71 -54 -134 -122 -194 -206 -198
-281 -328 -764 -345 -1277 l-6 -182 -46 -6 c-205 -26 -334 -67 -433 -137 l-28
-19 0 36 c0 92 75 270 176 419 98 143 114 175 114 231 0 90 -47 125 -170 125
-124 0 -292 -50 -415 -124 -116 -69 -241 -189 -309 -295 l-28 -45 -13 24 c-32
63 -64 198 -189 790 -73 349 -133 636 -131 638 1 1 51 -9 111 -22 448 -100
1072 -100 1524 0 225 50 421 126 535 208 55 39 70 44 61 20z"/>
<path fill="#ffffff" stroke="none" d="M3612 5049 c275 -55 565 -237 878 -549
134 -134 319 -354 387 -460 190 -299 330 -585 399 -814 47 -157 58 -240 59
-438 0 -102 -3 -189 -6 -192 -3 -3 -57 -1 -120 5 -191 19 -484 -1 -604 -40
-16 -5 -55 -19 -85 -31 -30 -12 -78 -28 -106 -36 -126 -35 -229 -81 -336 -150
-37 -25 -78 -49 -90 -55 -106 -48 -371 -272 -436 -369 -9 -14 -31 -43 -49 -65
-47 -59 -102 -176 -104 -224 -2 -22 -8 -41 -14 -41 -17 0 -143 87 -228 158
-243 201 -434 530 -502 860 -9 46 -15 86 -13 88 3 2 38 -7 78 -21 169 -57 287
-68 413 -36 150 39 227 118 227 234 0 67 -32 120 -116 195 -163 146 -345 225
-550 239 l-92 6 -6 45 c-30 220 51 746 160 1039 134 361 332 584 574 647 66
18 209 20 282 5z"/>
<path fill="#ffffff" stroke="none" d="M878 4704 c33 -23 45 -51 154 -372 259
-767 476 -1312 610 -1536 l48 -80 -45 -106 c-24 -58 -59 -160 -77 -226 -31
-113 -32 -128 -33 -294 0 -168 8 -228 42 -316 4 -12 -8 -8 -41 15 -103 71
-244 115 -407 127 l-96 7 -41 62 c-120 182 -252 417 -325 580 -93 208 -219
611 -260 830 -19 104 -22 155 -22 385 0 273 8 359 46 510 60 231 167 377 309
421 44 13 114 10 138 -7z"/>
<path fill="#ffffff" stroke="none" d="M2238 3884 c47 -32 27 -90 -84 -251
-123 -177 -174 -304 -181 -453 l-6 -105 -62 -70 c-57 -64 -143 -175 -172 -221
-12 -18 -13 -18 -32 6 -48 61 -281 570 -281 616 0 20 100 165 153 221 90 96
215 181 317 218 148 54 303 71 348 39z"/>
<path fill="#ffffff" stroke="none" d="M6212 3865 c97 -66 199 -281 198 -420
l-1 -50 -18 50 c-49 134 -148 285 -234 355 -59 47 -65 58 -45 78 19 19 60 14
100 -13z"/>
<path fill="#ffffff" stroke="none" d="M6280 3425 c65 -45 90 -74 90 -105 0
-24 -8 -33 -53 -59 -126 -72 -105 -104 31 -47 48 19 106 37 130 39 48 5 68 18
59 41 -4 10 -19 16 -42 16 -28 0 -35 4 -35 20 0 38 23 69 59 82 40 13 150 16
195 4 l29 -7 -37 -25 c-32 -22 -40 -24 -69 -14 -24 9 -42 8 -77 -2 -67 -21
-59 -42 18 -49 68 -7 100 -27 130 -84 17 -33 23 -165 9 -200 -7 -18 -10 -17
-24 14 -22 43 -108 138 -144 156 -53 28 -164 11 -228 -34 -17 -12 -49 -51 -73
-87 -37 -59 -43 -64 -55 -49 -22 32 -26 103 -9 172 18 73 15 86 -17 74 -24
-10 -277 -35 -283 -28 -9 9 40 59 82 83 51 30 161 44 211 27 72 -25 71 19 -2
52 -76 33 -73 50 8 41 41 -5 74 -16 97 -31z"/>
<path fill="#ffffff" stroke="none" d="M2845 3225 c121 -34 236 -96 346 -190
83 -70 109 -110 109 -165 0 -64 -31 -107 -100 -142 -122 -62 -270 -60 -460 5
-95 32 -96 32 -295 32 -254 0 -342 -21 -519 -124 -85 -49 -250 -198 -287 -258
-35 -57 -33 -24 5 90 60 181 134 309 271 472 162 193 280 256 560 299 64 10
311 -3 370 -19z"/>
<path fill="#ffffff" stroke="none" d="M6123 3130 c9 -112 54 -192 99 -175 8
3 28 30 46 60 71 118 109 145 203 146 56 1 64 -1 96 -32 19 -19 54 -65 77
-104 67 -110 105 -97 129 45 l12 71 60 -39 c123 -79 189 -207 214 -412 9 -67
8 -106 -4 -185 -31 -203 -78 -318 -200 -490 -97 -137 -132 -177 -218 -251 -55
-46 -71 -55 -77 -44 -5 8 -20 31 -33 50 l-24 35 22 30 c42 57 58 141 31 164
-15 12 -62 6 -72 -10 -3 -5 -11 -36 -17 -69 l-13 -59 -49 61 c-28 34 -77 92
-110 128 -33 37 -78 86 -100 111 -22 24 -64 64 -94 89 -30 25 -68 57 -85 71
-46 38 -173 122 -241 159 -33 18 -70 42 -83 53 -17 16 -27 19 -40 11 -21 -12
-52 -7 -52 9 0 7 5 31 10 55 6 23 19 102 30 175 41 282 101 377 255 406 90 16
105 18 166 20 l56 1 6 -80z"/>
<path fill="#ffffff" stroke="none" d="M2386 2701 c-8 -9 -28 -43 -43 -76 -25
-54 -28 -71 -28 -165 1 -186 86 -397 229 -565 107 -127 169 -169 360 -245 153
-61 214 -99 294 -184 92 -98 122 -162 177 -376 49 -185 82 -237 250 -389 55
-49 58 -55 41 -65 -74 -42 -136 -131 -136 -194 0 -18 -4 -32 -8 -32 -4 0 -53
20 -108 44 -153 68 -215 77 -544 86 -317 8 -357 15 -490 87 -147 79 -202 126
-547 464 -234 229 -309 291 -418 340 -131 59 -365 106 -465 93 -27 -4 -50 -4
-50 -2 0 9 104 75 168 107 176 89 456 107 541 35 37 -31 61 -31 61 -1 0 13 -4
27 -9 32 -22 22 -70 197 -82 291 -17 146 -7 217 41 290 169 259 419 419 690
443 86 8 97 5 76 -18z"/>
<path fill="#ffffff" stroke="none" d="M578 2587 c26 -11 43 -36 106 -164 41
-83 86 -170 100 -192 14 -22 26 -44 26 -49 0 -5 -28 -3 -62 4 -81 17 -219 17
-283 0 -82 -22 -149 -61 -203 -121 l-52 -57 0 34 c0 51 29 206 51 277 67 211
195 319 317 268z"/>
<path fill="#ffffff" stroke="none" d="M5205 2535 c188 -15 429 -65 515 -107
49 -24 216 -138 297 -202 90 -71 290 -295 421 -470 46 -61 99 -131 117 -156
19 -25 30 -46 25 -48 -18 -6 -11 -33 8 -30 11 1 52 -33 112 -93 110 -111 179
-150 345 -194 174 -46 198 -56 233 -92 37 -39 38 -43 16 -84 -22 -43 -20 -102
5 -142 29 -47 27 -63 -14 -89 -38 -26 -61 -64 -70 -120 -3 -21 -11 -39 -18
-39 -67 -9 -260 -4 -332 8 -165 26 -358 -3 -525 -80 -47 -21 -107 -49 -135
-62 -153 -71 -198 -89 -275 -111 -47 -13 -148 -31 -225 -39 -77 -8 -186 -19
-243 -25 -145 -15 -284 -1 -568 59 -132 28 -253 54 -269 59 -55 17 -155 70
-213 115 -125 96 -186 138 -280 193 -251 148 -357 234 -505 412 -115 139 -152
230 -152 377 0 93 2 105 32 165 45 90 83 139 193 249 100 101 232 205 315 250
28 14 70 40 95 57 59 41 177 93 325 144 209 72 294 90 454 99 149 7 177 7 316
-4z"/>
<path fill="#ffffff" stroke="none" d="M685 2150 c39 -6 93 -17 121 -25 48
-14 53 -19 107 -105 31 -49 57 -94 57 -98 0 -5 -24 -14 -52 -21 -66 -16 -202
-79 -261 -120 l-45 -31 -32 37 c-79 89 -103 217 -59 313 30 66 36 68 164 50z"/>
<path fill="#ffffff" stroke="none" d="M476 2124 c-31 -81 -31 -188 -1 -261 9
-20 34 -61 56 -91 l41 -53 -59 -62 c-32 -35 -67 -75 -79 -91 l-20 -30 -33 24
c-74 56 -158 202 -169 297 -6 55 25 116 93 183 71 70 188 127 171 84z"/>
<path fill="#ffffff" stroke="none" d="M6517 1918 c-3 -8 -6 -5 -6 6 -1 11 2
17 5 13 3 -3 4 -12 1 -19z"/>
<path fill="#ffffff" stroke="none" d="M1308 1840 c73 -20 159 -60 216 -99
l29 -20 -114 6 c-236 11 -416 -61 -631 -252 -116 -103 -135 -132 -326 -501
-53 -103 -102 -189 -109 -191 -22 -8 -45 46 -55 129 -26 212 62 515 199 682
88 108 246 211 395 257 85 26 288 20 396 -11z"/>
<path fill="#ffffff" stroke="none" d="M8700 1065 c67 -34 82 -86 59 -197 -17
-80 -43 -118 -115 -168 -83 -57 -131 -109 -139 -154 -7 -35 15 -113 55 -201
11 -22 25 -62 32 -88 12 -47 12 -49 -12 -68 -14 -10 -38 -18 -55 -18 -36 0
-151 30 -181 47 -21 11 -104 132 -104 150 0 26 -120 148 -195 197 -58 38 -165
65 -355 89 -181 24 -342 47 -367 53 -34 8 -28 38 12 62 19 11 42 36 51 55 16
33 16 37 -9 98 -14 34 -23 65 -22 67 2 2 18 -2 36 -8 18 -6 45 -11 60 -11 31
0 301 -53 359 -70 19 -6 80 -13 135 -16 127 -7 167 3 425 106 223 90 278 102
330 75z"/>
<path fill="#ffffff" stroke="none" d="M3761 584 c32 -39 6 -127 -53 -183 -67
-63 -134 -49 -132 27 3 106 134 217 185 156z"/>
<path fill="#000000" stroke="none" d="M2065 5184 c-238 -25 -483 -82 -620
-144 -99 -46 -64 -49 46 -5 111 45 279 88 425 110 170 26 633 32 865 11 101
-10 192 -20 203 -23 12 -3 17 -1 14 8 -8 24 -197 39 -553 43 -187 2 -358 2
-380 0z"/>
<path fill="#000000" stroke="none" d="M2715 5099 c-92 -24 -344 -66 -470 -78
-103 -9 -448 -6 -612 5 -61 4 -93 3 -93 -4 0 -30 627 -37 830 -9 174 25 423
79 428 95 5 15 4 15 -83 -9z"/>
<path fill="#000000" stroke="none" d="M6811 3016 c-21 -26 -3 -75 46 -122 48
-47 64 -52 83 -29 15 18 -11 113 -38 138 -27 25 -75 32 -91 13z"/>
<path fill="#ffffff" stroke="none" d="M6878 2955 c17 -37 15 -41 -8 -12 -22
27 -25 37 -12 37 5 0 14 -11 20 -25z"/>
<path fill="#000000" stroke="none" d="M6610 2916 c-20 -60 29 -136 87 -136
30 0 29 14 -8 99 -37 82 -60 93 -79 37z"/>
<path fill="#000000" stroke="none" d="M6780 2820 c-23 -23 -26 -93 -7 -150
16 -48 38 -49 64 -3 42 77 41 142 -3 162 -32 14 -31 14 -54 -9z"/>
<path fill="#ffffff" stroke="none" d="M6820 2755 c0 -19 -4 -35 -10 -35 -11
0 -14 53 -3 63 11 12 13 8 13 -28z"/>
<path fill="#000000" stroke="none" d="M6883 2572 c-6 -4 -17 -20 -22 -35 -14
-37 -14 -174 0 -183 28 -17 109 108 109 169 0 38 -55 69 -87 49z"/>
<path fill="#ffffff" stroke="none" d="M6919 2513 c-1 -10 -5 -29 -9 -43 -7
-21 -8 -19 -9 18 -1 23 4 42 9 42 6 0 10 -8 9 -17z"/>
<path fill="#000000" stroke="none" d="M6683 2463 c-16 -6 -17 -83 -1 -135 8
-27 18 -40 35 -44 36 -9 47 9 51 85 4 63 2 70 -19 85 -23 16 -43 19 -66 9z"/>
<path fill="#ffffff" stroke="none" d="M6730 2372 c0 -13 -4 -20 -10 -17 -5 3
-10 21 -10 38 0 24 3 28 10 17 5 -8 10 -25 10 -38z"/>
<path fill="#000000" stroke="none" d="M6680 2130 c-18 -33 -23 -103 -10 -148
9 -35 15 -43 32 -40 32 5 60 51 66 107 7 79 -2 101 -43 101 -24 0 -37 -6 -45
-20z"/>
<path fill="#ffffff" stroke="none" d="M6729 2068 c0 -18 -4 -42 -9 -53 -6
-15 -9 -6 -9 33 -1 28 4 52 9 52 6 0 10 -15 9 -32z"/>
<path fill="#000000" stroke="none" d="M5144 2388 c-8 -12 24 -40 37 -32 11 7
0 31 -16 38 -8 3 -17 0 -21 -6z"/>
<path fill="#000000" stroke="none" d="M5436 2332 c-7 -12 3 -42 14 -42 18 0
22 22 7 37 -9 9 -17 11 -21 5z"/>
<path fill="#000000" stroke="none" d="M5365 2269 c-9 -13 26 -52 36 -42 12
12 -1 53 -17 53 -7 0 -16 -5 -19 -11z"/>
<path fill="#000000" stroke="none" d="M4812 2248 c5 -15 28 -18 29 -3 0 6 -7
12 -17 13 -10 3 -15 -1 -12 -10z"/>
<path fill="#000000" stroke="none" d="M5760 2250 c0 -5 9 -14 20 -20 11 -6
41 -34 67 -62 27 -28 65 -61 85 -74 23 -15 44 -40 57 -69 15 -34 25 -45 42
-45 20 0 21 1 7 18 -9 9 -25 36 -37 59 -12 23 -31 48 -43 54 -12 7 -55 43 -95
80 -66 63 -103 84 -103 59z"/>
<path fill="#000000" stroke="none" d="M5490 2225 c0 -8 7 -15 15 -15 8 0 15
7 15 15 0 8 -7 15 -15 15 -8 0 -15 -7 -15 -15z"/>
<path fill="#000000" stroke="none" d="M5605 2209 c-8 -12 -6 -15 22 -23 25
-8 42 12 22 25 -19 12 -36 11 -44 -2z"/>
<path fill="#000000" stroke="none" d="M4520 2196 c0 -9 7 -16 16 -16 17 0 14
22 -4 28 -7 2 -12 -3 -12 -12z"/>
<path fill="#000000" stroke="none" d="M5446 2161 c-3 -4 3 -16 13 -25 22 -20
40 -4 21 19 -14 17 -26 19 -34 6z"/>
<path fill="#000000" stroke="none" d="M5282 2094 c1 -9 9 -19 16 -22 9 -3 13
2 10 14 -1 9 -9 19 -16 22 -9 3 -13 -2 -10 -14z"/>
<path fill="#000000" stroke="none" d="M5665 2091 c-6 -11 9 -23 19 -14 9 9 7
23 -3 23 -6 0 -12 -4 -16 -9z"/>
<path fill="#000000" stroke="none" d="M5767 2060 c3 -11 12 -20 19 -20 8 0
14 9 14 20 0 13 -7 20 -19 20 -14 0 -18 -5 -14 -20z"/>
<path fill="#000000" stroke="none" d="M4952 2048 c7 -19 38 -22 38 -4 0 10
-9 16 -21 16 -12 0 -19 -5 -17 -12z"/>
<path fill="#000000" stroke="none" d="M5435 2039 c-10 -15 3 -25 16 -12 7 7
7 13 1 17 -6 3 -14 1 -17 -5z"/>
<path fill="#000000" stroke="none" d="M5520 2042 c0 -19 12 -42 22 -42 14 0
5 43 -9 48 -7 2 -13 -1 -13 -6z"/>
<path fill="#000000" stroke="none" d="M5855 2039 c-4 -6 -5 -13 -2 -16 7 -7
27 6 27 18 0 12 -17 12 -25 -2z"/>
<path fill="#000000" stroke="none" d="M5620 2030 c0 -5 5 -10 10 -10 6 0 10
5 10 10 0 6 -4 10 -10 10 -5 0 -10 -4 -10 -10z"/>
<path fill="#000000" stroke="none" d="M5746 1991 c15 -15 47 -17 51 -3 3 8
-6 12 -28 12 -20 0 -29 -4 -23 -9z"/>
<path fill="#000000" stroke="none" d="M4412 1968 c5 -15 37 -18 41 -3 1 6 -9
12 -22 13 -16 3 -22 -1 -19 -10z"/>
<path fill="#000000" stroke="none" d="M5932 1948 c3 -7 17 -14 32 -16 20 -3
27 0 24 10 -3 7 -17 14 -32 16 -20 3 -27 0 -24 -10z"/>
<path fill="#000000" stroke="none" d="M6084 1908 c-7 -10 20 -38 38 -38 12 0
10 24 -4 38 -15 15 -25 15 -34 0z"/>
<path fill="#000000" stroke="none" d="M5077 1904 c-8 -8 25 -44 40 -44 19 0
16 37 -3 44 -20 8 -29 8 -37 0z"/>
<path fill="#000000" stroke="none" d="M5750 1903 c1 -19 16 -31 29 -24 7 5
10 14 7 20 -8 12 -36 15 -36 4z"/>
<path fill="#000000" stroke="none" d="M4005 1867 c-4 -10 -5 -21 -1 -24 10
-10 18 4 13 24 -4 17 -4 17 -12 0z"/>
<path fill="#000000" stroke="none" d="M5898 1844 c-11 -10 3 -34 19 -34 8 0
13 7 11 17 -3 18 -20 27 -30 17z"/>
<path fill="#000000" stroke="none" d="M6094 1819 c-10 -17 13 -36 27 -22 12
12 4 33 -11 33 -5 0 -12 -5 -16 -11z"/>
<path fill="#000000" stroke="none" d="M4581 1806 c-8 -10 -8 -16 2 -25 16
-13 27 -5 27 21 0 21 -13 23 -29 4z"/>
<path fill="#000000" stroke="none" d="M6140 1810 c0 -5 7 -10 15 -10 8 0 15
5 15 10 0 6 -7 10 -15 10 -8 0 -15 -4 -15 -10z"/>
<path fill="#000000" stroke="none" d="M3997 1803 c-12 -11 -8 -23 8 -23 8 0
15 7 15 15 0 16 -12 20 -23 8z"/>
<path fill="#000000" stroke="none" d="M6240 1780 c0 -5 5 -10 10 -10 6 0 10
5 10 10 0 6 -4 10 -10 10 -5 0 -10 -4 -10 -10z"/>
<path fill="#000000" stroke="none" d="M5863 1753 c-22 -8 -14 -33 10 -33 29
0 37 7 30 26 -5 14 -18 17 -40 7z"/>
<path fill="#000000" stroke="none" d="M6070 1745 c0 -15 38 -41 47 -32 2 3 0
15 -7 26 -12 24 -40 28 -40 6z"/>
<path fill="#000000" stroke="none" d="M6330 1721 c0 -6 5 -13 10 -16 6 -3 10
1 10 9 0 9 -4 16 -10 16 -5 0 -10 -4 -10 -9z"/>
<path fill="#000000" stroke="none" d="M4340 1706 c0 -18 30 -30 43 -17 5 5 6
14 3 20 -10 16 -46 13 -46 -3z"/>
<path fill="#000000" stroke="none" d="M3902 1684 c2 -11 11 -20 22 -22 13 -3
17 1 14 14 -2 11 -11 20 -22 22 -13 3 -17 -1 -14 -14z"/>
<path fill="#000000" stroke="none" d="M6190 1655 c0 -8 -7 -15 -15 -15 -8 0
-15 -7 -15 -15 0 -19 19 -19 44 0 11 8 16 21 13 30 -8 19 -27 20 -27 0z"/>
<path fill="#000000" stroke="none" d="M3670 1650 c-19 -12 -10 -20 34 -27 43
-7 50 12 10 27 -30 12 -26 12 -44 0z"/>
<path fill="#000000" stroke="none" d="M5940 1640 c0 -5 5 -10 10 -10 6 0 10
5 10 10 0 6 -4 10 -10 10 -5 0 -10 -4 -10 -10z"/>
<path fill="#000000" stroke="none" d="M3897 1624 c-9 -10 15 -54 30 -54 17 0
16 20 -1 43 -14 18 -19 20 -29 11z"/>
<path fill="#000000" stroke="none" d="M3620 1610 c0 -5 7 -10 15 -10 8 0 15
5 15 10 0 6 -7 10 -15 10 -8 0 -15 -4 -15 -10z"/>
<path fill="#000000" stroke="none" d="M5150 1556 c0 -9 7 -16 16 -16 17 0 14
22 -4 28 -7 2 -12 -3 -12 -12z"/>
<path fill="#000000" stroke="none" d="M3960 1550 c0 -5 5 -10 10 -10 6 0 10
5 10 10 0 6 -4 10 -10 10 -5 0 -10 -4 -10 -10z"/>
<path fill="#000000" stroke="none" d="M4215 1540 c3 -5 10 -10 16 -10 5 0 9
5 9 10 0 6 -7 10 -16 10 -8 0 -12 -4 -9 -10z"/>
<path fill="#000000" stroke="none" d="M6257 1534 c-8 -8 1 -24 14 -24 5 0 9
7 9 15 0 15 -12 20 -23 9z"/>
<path fill="#000000" stroke="none" d="M3720 1491 c0 -17 18 -31 41 -31 15 0
10 22 -8 36 -25 18 -33 17 -33 -5z"/>
<path fill="#000000" stroke="none" d="M4470 1465 c0 -9 9 -15 25 -15 16 0 25
6 25 15 0 9 -9 15 -25 15 -16 0 -25 -6 -25 -15z"/>
<path fill="#000000" stroke="none" d="M3942 1440 c-17 -28 -16 -30 18 -30 26
0 52 23 39 34 -17 16 -46 13 -57 -4z"/>
<path fill="#000000" stroke="none" d="M4810 1445 c0 -8 5 -15 10 -15 6 0 10
7 10 15 0 8 -4 15 -10 15 -5 0 -10 -7 -10 -15z"/>
<path fill="#000000" stroke="none" d="M3682 1428 c5 -15 35 -34 43 -27 3 4 3
14 -1 23 -7 18 -48 23 -42 4z"/>
<path fill="#000000" stroke="none" d="M3784 1415 c-8 -20 3 -48 17 -43 6 2
10 7 10 11 -1 4 -1 16 -1 27 0 23 -18 27 -26 5z"/>
<path fill="#000000" stroke="none" d="M4153 1363 c-26 -5 -30 -21 -7 -30 20
-7 67 14 59 27 -6 10 -13 11 -52 3z"/>
<path fill="#000000" stroke="none" d="M3937 1333 c-13 -12 -7 -23 23 -38 37
-19 50 -19 50 0 0 8 -13 21 -30 30 -33 17 -34 17 -43 8z"/>
<path fill="#000000" stroke="none" d="M6230 1315 c0 -8 7 -15 15 -15 8 0 15
7 15 15 0 8 -7 15 -15 15 -8 0 -15 -7 -15 -15z"/>
<path fill="#000000" stroke="none" d="M3800 1303 c0 -15 23 -33 43 -33 30 0
16 34 -16 38 -15 2 -27 -1 -27 -5z"/>
<path fill="#000000" stroke="none" d="M4246 1296 c-18 -15 -15 -36 6 -36 6 0
20 -8 30 -17 21 -19 46 -4 32 19 -5 7 -9 20 -9 28 0 20 -35 23 -59 6z"/>
<path fill="#000000" stroke="none" d="M3733 1275 c0 -18 5 -25 18 -25 14 0
19 7 19 25 0 18 -5 25 -19 25 -13 0 -18 -7 -18 -25z"/>
<path fill="#000000" stroke="none" d="M3990 1226 c0 -9 7 -16 16 -16 17 0 14
22 -4 28 -7 2 -12 -3 -12 -12z"/>
<path fill="#000000" stroke="none" d="M4792 1229 c2 -7 10 -15 17 -17 8 -3
12 1 9 9 -2 7 -10 15 -17 17 -8 3 -12 -1 -9 -9z"/>
<path fill="#000000" stroke="none" d="M3640 1206 c0 -8 31 -36 41 -36 5 0 9
9 9 20 0 15 -7 20 -25 20 -14 0 -25 -2 -25 -4z"/>
<path fill="#000000" stroke="none" d="M4215 1190 c-7 -12 11 -40 26 -40 14 0
10 26 -5 39 -10 9 -16 9 -21 1z"/>
<path fill="#000000" stroke="none" d="M4350 1190 c0 -5 5 -10 10 -10 6 0 10
5 10 10 0 6 -4 10 -10 10 -5 0 -10 -4 -10 -10z"/>
<path fill="#000000" stroke="none" d="M5480 1181 c0 -23 36 -35 44 -14 8 20
-1 33 -25 33 -12 0 -19 -7 -19 -19z"/>
<path fill="#000000" stroke="none" d="M3996 1182 c-11 -11 -6 -19 20 -31 29
-13 39 -9 31 12 -6 15 -42 29 -51 19z"/>
<path fill="#000000" stroke="none" d="M4345 1140 c-3 -6 1 -13 10 -16 19 -8
30 0 20 15 -8 14 -22 14 -30 1z"/>
<path fill="#000000" stroke="none" d="M4212 1123 c4 -22 48 -31 48 -10 0 14
-20 27 -42 27 -5 0 -8 -8 -6 -17z"/>
<path fill="#000000" stroke="none" d="M3945 1116 c-11 -8 -16 -19 -12 -30 9
-23 37 -20 37 4 0 11 5 20 11 20 5 0 7 5 4 10 -8 13 -18 13 -40 -4z"/>
<path fill="#000000" stroke="none" d="M4060 1117 c0 -13 39 -37 60 -37 12 0
13 27 3 33 -5 2 -20 7 -35 11 -20 5 -28 3 -28 -7z"/>
<path fill="#000000" stroke="none" d="M4530 1105 c0 -10 10 -15 26 -15 22 0
25 2 14 15 -7 8 -19 15 -26 15 -8 0 -14 -7 -14 -15z"/>
<path fill="#000000" stroke="none" d="M4622 1093 c4 -22 38 -30 38 -10 0 8
-7 18 -16 21 -23 9 -26 8 -22 -11z"/>
<path fill="#000000" stroke="none" d="M4025 1091 c-6 -11 9 -23 19 -14 9 9 7
23 -3 23 -6 0 -12 -4 -16 -9z"/>
<path fill="#000000" stroke="none" d="M4682 1068 c3 -7 13 -15 22 -16 12 -3
17 1 14 10 -3 7 -13 15 -22 16 -12 3 -17 -1 -14 -10z"/>
<path fill="#000000" stroke="none" d="M4210 1050 c0 -9 31 -30 44 -30 13 0 5
28 -10 34 -23 9 -34 7 -34 -4z"/>
<path fill="#000000" stroke="none" d="M4176 1023 c-2 -3 -2 -11 1 -19 7 -18
43 -18 43 0 0 13 -34 28 -44 19z"/>
<path fill="#000000" stroke="none" d="M4415 1011 c-8 -15 3 -31 21 -31 9 0
14 7 12 17 -4 20 -24 28 -33 14z"/>
<path fill="#000000" stroke="none" d="M4545 1009 c-10 -15 3 -25 16 -12 7 7
7 13 1 17 -6 3 -14 1 -17 -5z"/>
<path fill="#000000" stroke="none" d="M4513 993 c-18 -7 -16 -23 2 -23 8 0
15 7 15 15 0 8 -1 15 -2 14 -2 0 -9 -3 -15 -6z"/>
<path fill="#000000" stroke="none" d="M4360 936 c0 -10 9 -16 21 -16 24 0 21
23 -4 28 -10 2 -17 -3 -17 -12z"/>
<path fill="#000000" stroke="none" d="M4440 940 c-20 -13 -13 -17 48 -25 42
-6 52 -4 52 8 0 22 -72 35 -100 17z"/>
<path fill="#000000" stroke="none" d="M6826 942 c-3 -6 -1 -14 5 -17 15 -10
25 3 12 16 -7 7 -13 7 -17 1z"/>
<path fill="#000000" stroke="none" d="M4900 910 c0 -6 7 -13 15 -16 8 -4 15
-14 15 -24 0 -26 32 -35 47 -14 14 19 1 44 -23 44 -8 0 -14 5 -14 10 0 6 -9
10 -20 10 -11 0 -20 -5 -20 -10z"/>
<path fill="#000000" stroke="none" d="M4785 901 c-7 -12 12 -24 25 -16 11 7
4 25 -10 25 -5 0 -11 -4 -15 -9z"/>
<path fill="#000000" stroke="none" d="M4524 888 c-7 -12 21 -38 42 -38 24 0
24 19 2 34 -27 19 -34 20 -44 4z"/>
<path fill="#000000" stroke="none" d="M5960 875 c0 -8 5 -15 10 -15 6 0 10 7
10 15 0 8 -4 15 -10 15 -5 0 -10 -7 -10 -15z"/>
<path fill="#000000" stroke="none" d="M5605 860 c-3 -5 1 -10 9 -10 9 0 16 5
16 10 0 6 -4 10 -9 10 -6 0 -13 -4 -16 -10z"/>
<path fill="#000000" stroke="none" d="M6918 863 c-22 -5 -23 -17 -4 -32 18
-15 46 -3 46 20 0 19 -8 21 -42 12z"/>
<path fill="#000000" stroke="none" d="M5807 853 c-13 -12 -7 -23 13 -23 11 0
20 7 20 15 0 15 -21 21 -33 8z"/>
<path fill="#000000" stroke="none" d="M5912 849 c2 -6 8 -10 13 -10 5 0 11 4
13 10 2 6 -4 11 -13 11 -9 0 -15 -5 -13 -11z"/>
<path fill="#000000" stroke="none" d="M4317 843 c-13 -12 -7 -21 21 -26 15
-3 65 -30 111 -59 133 -84 153 -96 206 -121 28 -14 91 -32 140 -42 50 -9 128
-28 174 -41 218 -63 622 -75 829 -25 230 55 357 97 389 128 7 6 31 19 53 29
39 17 45 34 12 34 -9 0 -48 -16 -87 -35 -68 -34 -112 -48 -320 -100 -248 -62
-613 -58 -867 10 -51 13 -137 34 -192 45 -104 21 -157 45 -272 122 -105 71
-178 101 -197 81z"/>
<path fill="#000000" stroke="none" d="M5230 840 c0 -5 5 -10 10 -10 6 0 10 5
10 10 0 6 -4 10 -10 10 -5 0 -10 -4 -10 -10z"/>
<path fill="#000000" stroke="none" d="M5365 841 c-7 -12 12 -24 25 -16 11 7
4 25 -10 25 -5 0 -11 -4 -15 -9z"/>
<path fill="#000000" stroke="none" d="M5460 830 c0 -5 5 -10 10 -10 6 0 10 5
10 10 0 6 -4 10 -10 10 -5 0 -10 -4 -10 -10z"/>
<path fill="#000000" stroke="none" d="M6592 828 c6 -18 28 -21 28 -4 0 9 -7
16 -16 16 -9 0 -14 -5 -12 -12z"/>
<path fill="#000000" stroke="none" d="M6784 829 c-3 -6 -2 -15 3 -20 12 -12
63 5 63 21 0 13 -57 13 -66 -1z"/>
<path fill="#000000" stroke="none" d="M4730 806 c0 -19 39 -31 53 -17 9 9 8
14 -3 21 -22 14 -50 12 -50 -4z"/>
<path fill="#000000" stroke="none" d="M5040 805 c0 -12 13 -15 61 -15 81 0
77 24 -4 28 -46 2 -57 0 -57 -13z"/>
<path fill="#000000" stroke="none" d="M6992 808 c6 -18 28 -21 28 -4 0 9 -7
16 -16 16 -9 0 -14 -5 -12 -12z"/>
<path fill="#000000" stroke="none" d="M5505 791 c-6 -11 9 -23 19 -14 9 9 7
23 -3 23 -6 0 -12 -4 -16 -9z"/>
<path fill="#000000" stroke="none" d="M6482 788 c3 -7 13 -15 22 -16 12 -3
17 1 14 10 -3 7 -13 15 -22 16 -12 3 -17 -1 -14 -10z"/>
<path fill="#000000" stroke="none" d="M6740 786 c0 -9 7 -16 16 -16 9 0 14 5
12 12 -6 18 -28 21 -28 4z"/>
<path fill="#000000" stroke="none" d="M4940 762 c0 -15 7 -19 33 -18 17 1 38
5 46 10 19 12 -5 26 -46 26 -25 0 -33 -4 -33 -18z"/>
<path fill="#000000" stroke="none" d="M5330 746 c0 -9 7 -16 16 -16 9 0 14 5
12 12 -6 18 -28 21 -28 4z"/>
<path fill="#000000" stroke="none" d="M5117 713 c-15 -14 -6 -23 23 -23 20 0
30 5 30 15 0 15 -40 21 -53 8z"/>
<path fill="#000000" stroke="none" d="M5320 710 c0 -5 5 -10 10 -10 6 0 10 5
10 10 0 6 -4 10 -10 10 -5 0 -10 -4 -10 -10z"/>
<path fill="#000000" stroke="none" d="M5535 700 c-4 -6 -3 -16 3 -22 6 -6 12
-6 17 2 4 6 3 16 -3 22 -6 6 -12 6 -17 -2z"/>
<path fill="#000000" stroke="none" d="M5356 683 c-11 -11 -6 -23 9 -23 8 0
15 4 15 9 0 13 -16 22 -24 14z"/>
<path fill="#000000" stroke="none" d="M913 253 c-19 -7 -16 -30 5 -38 16 -6
16 -7 -2 -21 -17 -12 -17 -14 -4 -14 25 0 32 19 14 39 -12 13 -13 20 -4 29 13
13 11 14 -9 5z"/>
<path fill="#000000" stroke="none" d="M292 238 c-7 -7 -12 -15 -12 -19 0 -12
30 -39 43 -39 6 0 3 6 -8 14 -12 8 -16 20 -12 35 6 24 5 25 -11 9z"/>
<path fill="#000000" stroke="none" d="M355 229 c-4 -12 -2 -26 5 -33 10 -8
11 -7 6 8 -3 10 -1 25 5 32 8 9 8 14 1 14 -6 0 -14 -9 -17 -21z"/>
<path fill="#000000" stroke="none" d="M398 238 c16 -16 15 -23 -4 -42 -8 -9
-11 -16 -5 -16 15 0 32 36 25 54 -3 9 -11 16 -17 16 -7 0 -7 -4 1 -12z"/>
<path fill="#000000" stroke="none" d="M440 221 c0 -32 24 -48 46 -30 15 12
19 45 6 53 -4 2 -8 -8 -7 -22 0 -18 -5 -27 -15 -27 -10 0 -15 10 -15 28 1 15
-3 27 -7 27 -4 0 -8 -13 -8 -29z"/>
<path fill="#000000" stroke="none" d="M523 218 c1 -23 7 -33 20 -34 11 -1 12
0 3 3 -8 2 -17 17 -20 34 -6 28 -6 28 -3 -3z"/>
<path fill="#000000" stroke="none" d="M598 243 c17 -7 15 -23 -5 -45 -15 -17
-15 -18 8 -18 17 0 20 3 10 9 -9 6 -10 11 -2 15 18 12 13 46 -6 45 -11 0 -13
-3 -5 -6z"/>
<path fill="#000000" stroke="none" d="M652 217 c-2 -32 1 -38 16 -35 11 2 18
14 20 38 2 24 0 31 -6 21 -5 -7 -7 -22 -5 -32 3 -10 1 -19 -5 -19 -6 0 -13 15
-15 33 -4 31 -4 31 -5 -6z"/>
<path fill="#000000" stroke="none" d="M740 240 c0 -5 -6 -10 -13 -10 -7 0
-14 -10 -14 -22 -2 -17 0 -19 7 -9 7 13 11 13 27 0 16 -13 17 -13 4 4 -11 14
-11 20 -1 32 9 10 9 15 1 15 -6 0 -11 -4 -11 -10z"/>
<path fill="#000000" stroke="none" d="M782 220 c0 -19 2 -27 5 -17 2 9 2 25
0 35 -3 9 -5 1 -5 -18z"/>
<path fill="#000000" stroke="none" d="M824 221 c0 -21 7 -36 16 -38 10 -3 11
-2 3 4 -6 4 -13 22 -16 38 -4 27 -5 27 -3 -4z"/>
<path fill="#000000" stroke="none" d="M859 242 c8 -6 12 -19 8 -32 -4 -16 -3
-20 4 -13 15 15 7 45 -11 50 -12 4 -13 3 -1 -5z"/>
<path fill="#000000" stroke="none" d="M993 234 c-8 -22 9 -48 33 -51 15 -2
14 -1 -3 7 -25 10 -31 45 -10 53 9 4 9 6 -1 6 -7 1 -15 -6 -19 -15z"/>
<path fill="#000000" stroke="none" d="M1063 234 c-7 -19 7 -46 28 -51 8 -3 6
1 -4 7 -13 9 -17 19 -13 36 7 27 -1 33 -11 8z"/>
<path fill="#000000" stroke="none" d="M1109 236 c6 -7 9 -22 5 -32 -5 -17 -4
-17 5 -2 12 18 5 48 -11 48 -7 0 -6 -5 1 -14z"/>
<path fill="#000000" stroke="none" d="M1151 218 c0 -28 2 -30 9 -13 12 28 12
45 0 45 -5 0 -10 -15 -9 -32z"/>
<path fill="#000000" stroke="none" d="M1195 230 c-4 -11 -11 -18 -16 -15 -5
4 -9 -1 -9 -9 0 -24 18 -19 26 7 8 21 8 21 15 -8 6 -29 7 -29 8 8 1 40 -13 50
-24 17z"/>
</g>
</svg>
