<?xml version="1.0" standalone="no"?>
<!DOCTYPE svg PUBLIC "-//W3C//DTD SVG 20010904//EN"
 "http://www.w3.org/TR/2001/REC-SVG-20010904/DTD/svg10.dtd">
<svg version="1.0" xmlns="http://www.w3.org/2000/svg"
 width="270.000000pt" height="350.000000pt" viewBox="0 0 270.000000 350.000000"
 preserveAspectRatio="xMidYMid meet">
<metadata>
Created by potrace 1.14, written by Peter Selinger 2001-2017
</metadata>
<g transform="translate(0.000000,350.000000) scale(0.100000,-0.100000)"
fill="#000000" stroke="none">
<path fill="#000000" stroke="none" d="M0 1750 l0 -1750 1350 0 1350 0 0 1750
0 1750 -1350 0 -1350 0 0 -1750z"/>
<path fill="#ffffff" stroke="none" d="M2660 1755 l0 -1715 -1315 0 -1315 0 0
1715 0 1715 1315 0 1315 0 0 -1715z"/>
<path fill="#000000" stroke="none" d="M1229 3340 c-60 -17 -99 -60 -99 -108
0 -14 -9 -21 -31 -26 -44 -8 -49 -8 -49 7 0 7 -15 28 -34 46 -37 36 -94 49
-161 37 -38 -8 -105 -59 -105 -82 0 -8 -10 -14 -25 -14 -36 0 -91 -25 -103
-46 -9 -16 -12 -16 -45 -1 -19 9 -47 17 -63 17 -33 0 -109 -43 -119 -67 -32
-80 -23 -135 29 -181 19 -16 39 -31 46 -34 9 -3 9 -10 -1 -30 -10 -23 -9 -35
5 -72 9 -24 23 -47 31 -50 11 -4 12 -12 4 -38 -31 -109 35 -318 133 -416 l40
-41 -21 -27 c-12 -15 -24 -44 -27 -66 -6 -33 -10 -38 -33 -39 -100 -3 -206
-11 -210 -15 -3 -3 -1 -11 4 -18 21 -29 304 -346 395 -441 52 -55 133 -140
180 -190 46 -49 135 -142 197 -205 l113 -115 3 -380 3 -380 -199 -65 c-109
-35 -202 -70 -208 -76 -38 -46 213 -81 500 -71 184 7 218 11 306 33 88 22 146
45 142 58 -6 18 -101 52 -259 92 l-148 38 -1 136 c-1 74 -1 242 -1 372 l0 237
33 39 c19 21 101 116 183 211 128 149 377 426 396 441 3 3 39 46 80 95 41 50
77 92 80 95 12 10 90 117 90 123 0 4 -9 7 -20 7 -11 0 -20 3 -20 6 0 3 23 31
51 62 28 31 56 67 62 80 10 21 8 27 -16 48 -32 27 -172 74 -223 74 -37 0 -39
2 -23 32 23 43 6 277 -24 315 -6 8 -20 10 -36 6 -46 -11 -176 -80 -210 -112
-18 -17 -35 -31 -38 -31 -2 0 -15 13 -28 29 -26 31 -172 131 -191 131 -6 0
-16 -10 -21 -22 -11 -22 -11 -22 -18 -3 -24 73 -77 167 -117 211 l-47 50 21
44 c34 67 35 137 5 203 -34 75 -91 106 -158 87z"/>
<path fill="#ffffff" stroke="none" d="M1291 3310 c84 -24 115 -174 54 -263
l-23 -35 51 -53 c30 -33 66 -88 90 -138 35 -72 41 -95 45 -166 4 -85 -13 -173
-44 -220 -14 -21 -12 -27 21 -80 20 -31 35 -58 33 -60 -37 -32 -301 -111 -438
-130 -24 -4 -48 -9 -52 -11 -5 -3 -8 0 -8 5 0 6 -16 29 -35 50 -59 65 -161 88
-249 56 -36 -13 -41 -12 -52 3 -6 9 -26 34 -43 56 -33 42 -70 114 -95 189 -31
92 -14 223 40 308 13 21 24 43 24 48 0 5 -23 14 -51 20 -61 13 -85 25 -121 59
-81 75 -12 208 97 188 43 -8 123 -83 145 -135 14 -34 34 -39 60 -16 16 15 20
13 48 -15 63 -63 169 -24 176 65 3 34 7 40 29 43 18 2 29 -3 37 -18 15 -28 69
-60 101 -60 42 0 89 60 89 112 0 34 -6 46 -35 74 -40 37 -40 66 -2 102 19 17
32 23 67 31 3 0 21 -4 41 -9z"/>
<path fill="#ffffff" stroke="none" d="M978 3252 c34 -22 55 -69 48 -106 -5
-25 -13 -33 -42 -42 -32 -10 -37 -9 -50 11 -54 82 -184 44 -184 -54 0 -30 -5
-43 -20 -51 -17 -9 -22 -5 -39 27 -10 21 -28 47 -40 57 -12 11 -21 25 -21 32
0 20 54 44 100 44 32 0 40 4 40 18 0 10 12 30 28 44 48 46 126 55 180 20z"/>
<path fill="#ffffff" stroke="none" d="M1169 3164 c27 -35 27 -81 -1 -111 -29
-31 -64 -29 -100 7 -25 26 -29 36 -24 62 9 45 33 68 72 68 23 0 38 -7 53 -26z"/>
<path fill="#ffffff" stroke="none" d="M900 3118 c61 -41 60 -113 -1 -147 -82
-46 -171 77 -104 144 30 31 62 32 105 3z"/>
<path fill="#ffffff" stroke="none" d="M567 2860 c20 0 20 -1 -8 -29 -16 -16
-29 -39 -29 -50 0 -12 -4 -21 -10 -21 -13 0 -24 50 -21 94 1 14 6 17 24 12 12
-3 32 -6 44 -6z"/>
<path fill="#ffffff" stroke="none" d="M1747 2604 c12 -19 10 -28 -16 -80 -35
-70 -61 -166 -61 -222 l0 -41 -42 24 c-24 14 -50 25 -60 25 -9 0 -31 21 -50
48 l-34 47 25 55 c21 44 26 74 29 150 6 139 12 143 114 72 45 -31 87 -66 95
-78z"/>
<path fill="#ffffff" stroke="none" d="M2070 2545 c0 -124 -3 -132 -53 -140
-117 -19 -198 -58 -269 -130 -23 -25 -45 -45 -48 -45 -3 0 -3 35 1 78 12 123
63 248 126 302 53 46 62 52 140 86 l78 33 12 -47 c7 -26 13 -87 13 -137z"/>
<path fill="#ffffff" stroke="none" d="M2172 2359 c61 -13 158 -54 158 -67 0
-11 -85 -111 -118 -139 -26 -22 -34 -23 -247 -23 l-220 0 -12 38 c-12 36 -11
38 30 80 48 50 109 89 170 107 53 17 169 19 239 4z"/>
<path fill="#ffffff" stroke="none" d="M1588 2264 c55 -23 122 -94 122 -131 0
-4 -47 -10 -104 -11 l-105 -4 -27 53 c-16 32 -22 55 -16 57 6 2 26 14 44 27
40 29 40 29 86 9z"/>
<path fill="#ffffff" stroke="none" d="M1680 2240 c0 -5 -2 -10 -4 -10 -3 0
-8 5 -11 10 -3 6 -1 10 4 10 6 0 11 -4 11 -10z"/>
<path fill="#ffffff" stroke="none" d="M931 2218 c73 -41 85 -117 25 -162 -22
-17 -46 -22 -127 -24 l-99 -4 -36 36 c-33 33 -36 41 -31 77 10 73 50 96 166
98 48 1 73 -4 102 -21z"/>
<path fill="#ffffff" stroke="none" d="M1446 2171 l22 -49 -47 -6 c-72 -9
-391 -9 -391 1 -1 4 32 13 72 19 81 13 212 45 273 68 22 8 42 15 45 15 3 0 15
-21 26 -48z"/>
<path fill="#ffffff" stroke="none" d="M1710 2200 c0 -5 -2 -10 -4 -10 -3 0
-8 5 -11 10 -3 6 -1 10 4 10 6 0 11 -4 11 -10z"/>
<path fill="#ffffff" stroke="none" d="M1732 2098 c-15 -15 -24 -6 -16 16 5
12 10 14 17 7 8 -8 8 -14 -1 -23z"/>
<path fill="#ffffff" stroke="none" d="M1510 2100 c0 -6 39 -10 96 -10 86 0
95 -2 84 -16 -18 -20 -47 -35 -81 -41 -22 -3 -40 5 -80 36 -28 23 -44 41 -35
41 9 0 16 -4 16 -10z"/>
<path fill="#ffffff" stroke="none" d="M2218 2083 c-46 -55 -256 -293 -338
-383 -53 -58 -134 -148 -180 -200 -80 -89 -118 -133 -252 -288 l-55 -63 -6
-177 c-3 -97 -2 -271 2 -386 5 -115 7 -215 4 -222 -2 -6 4 -15 14 -19 31 -12
345 -95 361 -95 37 0 -7 -16 -86 -32 -166 -32 -359 -43 -526 -28 -83 8 -171
15 -196 16 -25 2 -49 3 -55 4 -5 0 -4 4 4 9 7 5 21 6 32 4 18 -5 147 35 291
89 64 24 77 33 83 56 4 15 3 194 0 397 l-8 370 -55 60 c-31 33 -155 165 -276
294 -122 128 -254 270 -295 315 -40 44 -114 125 -163 179 l-89 97 89 0 c50 0
96 2 104 5 8 3 21 -7 31 -24 20 -35 76 -63 138 -69 46 -4 47 -5 53 -45 19
-118 96 -208 195 -228 l56 -12 0 -58 c0 -49 4 -63 30 -95 17 -20 55 -51 85
-68 50 -28 63 -31 140 -31 69 0 94 4 133 24 88 43 132 134 105 216 -13 39 -13
40 22 71 32 30 35 37 34 87 -1 36 -10 71 -28 106 -24 48 -24 52 -7 46 30 -9
85 19 116 59 l27 36 241 0 c228 0 239 -1 225 -17z"/>
<path fill="#ffffff" stroke="none" d="M1456 2078 c-22 -6 -54 -27 -75 -49
-27 -27 -41 -35 -52 -28 -41 26 -145 -1 -175 -45 -22 -34 -11 -45 19 -19 52
48 102 55 155 23 42 -26 82 -108 82 -169 0 -36 -6 -49 -34 -77 -38 -38 -61
-41 -130 -18 -33 11 -59 31 -88 64 -44 51 -64 57 -48 14 6 -14 10 -27 10 -28
0 -8 -94 15 -124 29 -49 24 -72 52 -106 134 -16 41 -29 75 -28 76 2 1 22 7 46
14 23 6 58 27 77 46 l34 35 203 3 c112 1 219 3 238 4 l35 1 -39 -10z"/>
<path fill="#ffffff" stroke="none" d="M1550 2003 c37 -45 64 -131 55 -173
-11 -51 -77 -89 -130 -76 -18 5 -25 13 -25 29 0 38 -28 122 -54 160 l-25 36
35 31 c52 45 102 42 144 -7z"/>
<path fill="#ffffff" stroke="none" d="M1630 1824 c0 -9 -16 -32 -35 -51 -26
-26 -34 -41 -30 -57 5 -19 5 -19 -5 -3 -6 9 -21 17 -33 17 -15 0 -8 7 23 23
29 14 50 34 60 54 17 37 20 39 20 17z"/>
<path fill="#ffffff" stroke="none" d="M1004 1755 c47 -20 126 -30 126 -16 0
17 17 13 24 -5 6 -15 -1 -16 -58 -11 -75 7 -129 31 -171 78 l-30 33 39 -33
c22 -19 53 -39 70 -46z"/>
<path fill="#ffffff" stroke="none" d="M1440 1749 c0 -5 -4 -9 -10 -9 -5 0
-10 7 -10 16 0 8 5 12 10 9 6 -3 10 -10 10 -16z"/>
<path fill="#ffffff" stroke="none" d="M1505 1714 c38 -1 40 -3 49 -42 7 -33
5 -49 -13 -84 -27 -58 -82 -89 -166 -95 -71 -6 -112 5 -179 47 -54 34 -88 96
-79 143 7 33 22 34 67 3 86 -58 191 -53 231 11 13 22 25 30 35 26 8 -4 33 -8
55 -9z"/>
<path fill="#ffffff" stroke="none" d="M1573 1599 c-5 -5 -6 11 -3 34 4 41 5
41 8 8 2 -18 0 -37 -5 -42z"/>
<path fill="#ffffff" stroke="none" d="M1220 1504 c0 -2 -9 0 -20 6 -11 6 -20
13 -20 16 0 2 9 0 20 -6 11 -6 20 -13 20 -16z"/>
<path fill="#ffffff" stroke="none" d="M1329 1474 c10 -9 -55 -3 -69 6 -10 6
-2 7 25 3 22 -3 42 -7 44 -9z"/>
<path fill="#ffffff" stroke="none" d="M1427 1474 c-3 -3 -12 -4 -19 -1 -8 3
-5 6 6 6 11 1 17 -2 13 -5z"/>
<path fill="#000000" stroke="none" d="M1233 2851 c-17 -11 -34 -29 -38 -40
l-6 -21 -29 20 c-60 42 -151 15 -194 -59 -24 -41 -25 -110 -3 -163 39 -92 168
-186 269 -196 l50 -5 63 66 c115 120 147 232 94 327 -32 57 -67 82 -126 87
-36 3 -56 -1 -80 -16z"/>
<path fill="#ffffff" stroke="none" d="M1369 2822 c50 -37 66 -70 66 -135 0
-75 -27 -127 -113 -218 l-57 -60 -53 11 c-74 16 -169 82 -207 144 -24 40 -30
60 -30 108 0 53 3 61 35 93 49 49 93 55 143 21 21 -14 39 -26 41 -26 2 0 9 13
16 29 24 58 103 74 159 33z"/>
<path fill="#000000" stroke="none" d="M1286 2688 c-14 -67 -16 -97 -6 -103
13 -8 30 37 30 80 0 40 -17 56 -24 23z"/>
<path fill="#000000" stroke="none" d="M1130 2665 c0 -3 11 -28 25 -55 25 -49
38 -60 50 -41 7 13 -47 101 -62 101 -7 0 -13 -2 -13 -5z"/>
<path fill="#000000" stroke="none" d="M682 2774 c-75 -52 -69 -213 10 -268
50 -35 125 -8 146 53 6 16 10 59 9 96 -2 63 -4 68 -39 101 -42 38 -88 45 -126
18z"/>
<path fill="#ffffff" stroke="none" d="M793 2743 c40 -37 42 -138 3 -198 -12
-19 -25 -25 -51 -25 -29 0 -39 6 -61 39 -75 115 15 268 109 184z"/>
<path fill="#000000" stroke="none" d="M692 2710 c-18 -30 -15 -91 8 -127 37
-62 90 -28 90 57 0 25 -7 56 -16 68 -19 28 -65 29 -82 2z"/>
<path fill="#ffffff" stroke="none" d="M755 2700 c32 -35 19 -130 -16 -130 -5
0 -18 14 -29 32 -19 32 -18 79 3 106 13 17 21 15 42 -8z"/>
<path fill="#000000" stroke="none" d="M1584 2613 c3 -21 8 -69 11 -108 12
-136 26 -195 46 -195 11 0 11 7 0 28 -5 10 -17 84 -27 165 -9 81 -21 147 -26
147 -6 0 -7 -17 -4 -37z"/>
<path fill="#000000" stroke="none" d="M1946 2599 c-75 -95 -126 -185 -126
-224 0 -23 2 -25 14 -16 8 7 18 26 22 43 3 17 44 87 90 155 46 68 79 123 74
123 -6 0 -39 -37 -74 -81z"/>
<path fill="#000000" stroke="none" d="M2125 2274 c-120 -25 -230 -67 -280
-109 -23 -19 -21 -18 95 29 93 38 214 66 285 66 25 0 45 5 45 10 0 10 -103 12
-145 4z"/>
<path fill="#000000" stroke="none" d="M2100 2074 c-115 -52 -265 -69 -336
-39 -24 10 -34 11 -32 3 8 -23 81 -40 155 -35 79 6 198 40 234 68 29 23 25 23
-21 3z"/>
<path fill="#000000" stroke="none" d="M1660 1891 c0 -8 39 -11 130 -11 72 0
130 -2 130 -5 0 -7 -121 -157 -137 -170 -6 -5 -65 -73 -130 -151 -196 -234
-284 -334 -295 -334 -12 0 -207 196 -446 447 l-183 192 33 5 c18 3 47 7 63 9
17 2 -3 5 -42 6 -60 1 -73 -2 -73 -15 0 -8 123 -142 274 -297 285 -294 359
-367 375 -367 10 0 166 175 341 383 69 82 154 182 189 223 35 41 61 77 59 80
-3 2 -69 7 -147 11 -103 4 -141 3 -141 -6z"/>
<path fill="#000000" stroke="none" d="M1030 1890 l-115 -6 145 0 c80 0 181 3
225 6 79 7 78 7 -30 6 -60 0 -162 -3 -225 -6z"/>
<path fill="#000000" stroke="none" d="M1477 1893 c18 -2 50 -2 70 0 21 2 7 4
-32 4 -38 0 -55 -2 -38 -4z"/>
</g>
</svg>
