<?xml version="1.0" standalone="no"?>
<!DOCTYPE svg PUBLIC "-//W3C//DTD SVG 20010904//EN"
 "http://www.w3.org/TR/2001/REC-SVG-20010904/DTD/svg10.dtd">
<svg version="1.0" xmlns="http://www.w3.org/2000/svg"
 width="2376.000000pt" height="3104.000000pt" viewBox="0 0 2376.000000 3104.000000"
 preserveAspectRatio="xMidYMid meet">
<metadata>
Created by potrace 1.14, written by Peter Selinger 2001-2017
</metadata>
<g transform="translate(0.000000,3104.000000) scale(0.100000,-0.100000)"
fill="#000000" stroke="none">
<path fill="#000000" stroke="none" d="M19425 30000 c-60 -11 -121 -24 -135
-29 -14 -5 -56 -17 -95 -27 -38 -9 -95 -28 -125 -42 -131 -58 -186 -86 -209
-108 -14 -13 -29 -24 -33 -24 -3 0 -13 -6 -20 -12 -7 -7 -31 -23 -52 -35 l-40
-21 -50 42 c-45 37 -68 54 -127 91 -9 5 -36 23 -60 39 -79 53 -135 69 -239 70
-52 1 -126 -5 -165 -12 -123 -23 -354 -110 -465 -176 -14 -8 -61 -35 -106 -61
-44 -25 -119 -79 -167 -120 -81 -70 -86 -73 -99 -54 -20 29 -110 57 -206 64
-133 8 -371 6 -432 -4 -76 -13 -150 -30 -180 -41 -183 -68 -288 -113 -300
-129 -3 -4 -16 -15 -30 -24 -86 -58 -187 -160 -240 -243 -25 -38 -47 -71 -50
-74 -14 -12 -75 -153 -96 -222 -8 -26 -23 -52 -34 -58 -16 -9 -19 -21 -18 -88
1 -43 -5 -95 -13 -117 -9 -26 -14 -84 -14 -160 0 -106 3 -126 24 -171 21 -46
31 -55 90 -85 91 -45 93 -46 206 -75 108 -27 192 -40 350 -53 112 -9 157 -1
219 41 l37 26 66 -34 c79 -42 187 -71 313 -85 52 -6 144 -19 204 -30 60 -10
137 -19 170 -19 74 0 205 30 243 56 15 10 42 25 58 34 17 8 44 27 60 42 92 81
91 81 119 24 27 -54 76 -100 143 -132 56 -27 65 -29 235 -32 188 -4 236 3 332
51 l39 19 19 -23 c10 -13 21 -35 25 -49 11 -40 28 -51 121 -70 48 -9 114 -24
147 -33 33 -8 110 -25 170 -37 125 -25 320 -84 339 -103 7 -6 28 -25 46 -41
l34 -29 50 28 c152 83 141 80 271 80 66 0 125 4 132 8 6 4 38 12 70 18 32 6
76 17 98 24 22 7 85 25 140 40 156 43 295 119 295 161 0 8 4 14 9 14 14 0 29
57 35 133 3 37 10 77 16 87 13 24 57 36 178 49 68 7 101 16 125 32 47 33 86
72 87 87 0 6 4 12 9 12 9 0 101 132 101 147 1 4 9 26 20 48 25 52 26 150 3
205 -10 22 -21 40 -25 40 -5 0 -8 5 -8 11 0 6 -9 22 -20 36 -31 40 -24 63 34
125 92 96 97 111 94 333 -5 373 -39 461 -187 474 -36 4 -71 10 -77 13 -13 9
-255 -16 -315 -32 -24 -6 -80 -29 -123 -51 l-79 -39 -28 32 c-16 17 -29 35
-29 40 0 4 -6 8 -14 8 -8 0 -23 11 -34 25 -11 14 -24 25 -30 25 -6 0 -12 3
-14 8 -3 8 -84 62 -93 62 -2 0 -28 15 -57 34 -29 18 -64 36 -78 39 -14 3 -52
13 -85 21 -36 10 -123 18 -215 21 -127 4 -175 1 -265 -15z"/>
<path fill="#ffffff" stroke="none" d="M19836 29941 c80 -14 161 -43 212 -75
23 -14 44 -26 47 -26 5 0 66 -43 99 -70 68 -56 117 -110 127 -137 14 -43 35
-42 86 2 50 43 145 91 193 98 156 24 205 27 294 18 122 -12 139 -24 169 -116
20 -64 22 -89 22 -292 l0 -222 -65 -65 c-105 -105 -115 -151 -51 -221 29 -32
61 -97 63 -130 6 -81 -46 -186 -157 -318 -45 -54 -102 -77 -189 -77 -50 0
-125 -18 -164 -39 -27 -14 -52 -92 -52 -158 0 -113 -79 -187 -250 -234 -352
-95 -377 -101 -430 -99 -148 7 -162 4 -253 -41 -87 -42 -88 -43 -115 -26 -41
27 -133 68 -167 74 -16 4 -45 12 -62 20 -18 7 -35 13 -38 14 -2 0 -19 5 -37
10 -18 5 -71 16 -118 24 -47 8 -128 24 -180 36 -184 41 -165 31 -206 114 -33
66 -40 75 -64 75 -15 0 -33 -7 -40 -15 -7 -9 -43 -29 -79 -46 -60 -28 -78 -32
-192 -36 -74 -4 -146 -1 -175 5 -27 6 -65 13 -84 17 -48 7 -114 68 -159 146
-20 35 -44 65 -53 67 -9 2 -44 -21 -78 -50 -169 -143 -238 -171 -408 -165
-215 7 -632 85 -632 118 0 5 -6 9 -12 9 -28 1 -61 38 -67 76 -5 31 -11 40 -29
42 -36 5 -54 -16 -50 -61 2 -33 -1 -43 -23 -59 -15 -11 -46 -24 -70 -29 -68
-13 -299 11 -414 42 -176 49 -257 87 -278 131 -24 53 -39 145 -32 198 6 40 11
49 31 54 25 7 29 20 25 81 -4 60 29 245 53 304 44 104 128 234 200 310 106
112 279 211 458 261 150 43 221 50 423 44 275 -8 315 -19 344 -96 6 -17 18
-28 29 -28 10 0 54 39 100 89 44 48 98 96 119 106 21 10 51 29 66 41 16 13 35
24 42 24 7 0 20 6 27 13 28 28 145 84 278 134 231 87 408 96 550 30 31 -15 35
-18 85 -59 22 -19 53 -40 70 -48 16 -8 51 -36 78 -63 39 -38 53 -46 73 -41 13
3 28 11 32 18 13 21 93 78 187 133 28 17 92 46 145 67 25 10 54 22 65 27 51
20 280 71 375 82 55 7 239 -1 306 -12z"/>
<path fill="#000000" stroke="none" d="M7141 29968 c-51 -4 -99 -12 -106 -18
-8 -6 -19 -10 -27 -9 -18 3 -95 -19 -145 -42 -24 -10 -49 -19 -57 -19 -8 0
-17 -4 -20 -9 -3 -4 -33 -18 -66 -30 -33 -12 -60 -26 -60 -32 0 -5 -8 -9 -18
-9 -11 0 -27 -10 -38 -21 -10 -12 -28 -25 -39 -30 -74 -34 -288 -226 -369
-331 -26 -35 -56 -50 -56 -29 0 14 -84 132 -129 181 -22 25 -41 48 -41 52 0 5
-4 8 -9 8 -5 0 -26 16 -47 35 -44 40 -136 95 -159 95 -10 0 -13 5 -9 12 4 7 3
8 -4 4 -6 -4 -19 -2 -29 3 -35 18 -129 42 -188 46 -187 16 -310 19 -325 10 -5
-3 -22 -8 -37 -10 -16 -2 -48 -8 -73 -15 -25 -6 -55 -13 -67 -15 -13 -2 -51
-17 -86 -34 -35 -17 -67 -31 -70 -31 -11 0 -109 -62 -147 -92 -19 -15 -38 -28
-43 -28 -28 0 -130 -133 -181 -237 -6 -13 -16 -23 -22 -23 -13 0 -54 -72 -54
-94 0 -9 -9 -35 -19 -57 -11 -22 -23 -54 -26 -72 -15 -74 -11 -75 -99 16 -85
88 -128 117 -169 117 -12 0 -27 4 -33 10 -16 16 -154 23 -204 10 -25 -6 -64
-16 -87 -21 -24 -6 -43 -15 -43 -20 0 -5 -7 -9 -15 -9 -8 0 -19 -8 -24 -18 -5
-10 -25 -26 -43 -36 -18 -10 -49 -38 -68 -62 -19 -23 -41 -43 -48 -43 -7 -1
-11 -5 -8 -9 3 -5 -14 -33 -37 -63 -56 -73 -64 -86 -88 -139 -11 -25 -26 -58
-34 -75 -44 -95 -80 -356 -71 -522 6 -110 5 -123 -11 -132 -17 -10 -17 -12 3
-28 46 -39 61 -143 38 -268 -14 -76 -6 -130 26 -186 18 -30 38 -61 46 -69 7
-8 35 -40 61 -71 26 -30 57 -66 69 -80 34 -39 112 -109 122 -109 6 0 12 -7 16
-15 3 -9 27 -25 53 -36 75 -32 118 -52 123 -59 3 -3 29 -23 58 -44 28 -21 52
-42 52 -47 0 -5 4 -9 9 -9 5 0 38 -19 72 -42 81 -56 130 -87 149 -94 8 -3 38
-15 65 -26 183 -76 317 -77 393 -5 63 60 80 129 45 188 -9 15 -14 31 -10 35 9
10 65 -15 71 -32 3 -8 10 -14 16 -14 5 0 20 -9 32 -20 43 -39 53 -47 108 -82
64 -42 110 -62 162 -72 63 -12 179 -8 268 9 79 14 107 23 152 46 10 5 24 9 31
9 32 0 103 71 132 132 24 50 38 67 68 82 37 17 42 18 120 1 193 -39 350 -48
573 -31 89 7 187 42 236 85 63 56 124 149 147 228 11 38 29 73 39 79 21 14 90
5 202 -26 255 -71 457 -68 685 12 119 41 185 123 185 232 l0 52 83 -12 c177
-27 383 -10 472 38 67 36 116 76 146 116 40 54 89 193 89 251 0 80 -38 175
-94 233 -20 20 -33 43 -30 50 3 7 25 29 49 48 25 19 45 38 45 41 0 3 14 24 31
45 17 22 40 58 50 82 10 23 28 61 38 85 10 23 24 63 31 87 14 52 15 246 1 310
-24 112 -94 265 -136 298 -14 11 -25 24 -25 29 0 17 -44 51 -106 82 -52 26
-75 31 -153 34 -50 2 -91 0 -91 -4 0 -4 -15 -9 -32 -12 -78 -12 -205 -69 -328
-147 -55 -35 -90 -39 -90 -10 0 18 -12 50 -53 140 -18 39 -80 130 -89 130 -4
0 -8 6 -8 13 0 18 -110 105 -166 131 -119 55 -219 69 -403 54z"/>
<path fill="#ffffff" stroke="none" d="M7410 29897 c19 -6 40 -12 45 -13 25
-5 64 -24 70 -33 3 -6 13 -11 21 -11 20 0 37 -13 116 -95 74 -76 129 -173 131
-230 1 -19 4 -35 8 -35 4 0 5 -16 2 -35 -4 -27 -2 -36 13 -42 25 -9 138 33
198 74 126 86 256 133 373 135 98 2 138 -11 205 -63 58 -47 127 -163 157 -269
7 -25 17 -56 22 -70 14 -37 13 -207 0 -265 -20 -82 -43 -148 -63 -177 -10 -14
-18 -29 -18 -34 0 -9 -68 -93 -100 -122 -14 -12 -49 -34 -77 -47 -29 -13 -53
-28 -53 -32 0 -15 15 -30 35 -37 33 -10 104 -86 127 -135 39 -83 31 -160 -29
-287 -67 -142 -194 -194 -472 -194 -136 0 -214 23 -238 69 -13 28 -39 45 -53
36 -15 -10 -12 -45 11 -110 28 -81 16 -153 -36 -200 -45 -42 -176 -88 -318
-112 -104 -18 -300 5 -434 51 -93 31 -193 43 -234 26 -30 -13 -59 -54 -59 -85
0 -44 -43 -130 -91 -183 -89 -97 -137 -118 -291 -129 -226 -15 -419 -4 -482
29 -24 13 -156 23 -190 14 -36 -9 -73 -53 -92 -108 -24 -72 -111 -141 -193
-152 -14 -2 -33 -6 -41 -9 -30 -10 -160 -27 -215 -27 -31 0 -77 5 -103 12 -58
14 -169 81 -240 144 -171 150 -284 175 -204 45 60 -97 48 -183 -30 -223 -47
-25 -178 -27 -213 -4 -13 9 -33 16 -44 16 -30 0 -98 29 -170 72 -34 21 -67 38
-71 38 -5 0 -10 4 -12 8 -1 5 -43 39 -93 77 -49 38 -92 72 -95 76 -3 3 -25 16
-50 28 -73 35 -100 52 -100 61 0 5 -13 11 -29 15 -16 3 -47 25 -70 48 -22 23
-51 51 -63 63 -82 76 -171 197 -188 254 -8 26 -6 60 7 135 9 55 20 102 24 105
3 3 10 16 14 30 4 14 15 34 24 45 25 31 51 81 51 100 0 23 -32 15 -45 -10 -12
-24 -52 -65 -63 -65 -10 0 -34 39 -29 48 3 4 1 34 -4 67 -9 59 -11 266 -4 355
10 129 77 290 177 425 101 137 156 185 265 235 64 30 73 32 163 28 52 -3 104
-10 115 -16 11 -6 40 -20 65 -32 27 -12 61 -41 85 -71 60 -77 119 -136 143
-143 28 -9 38 11 47 96 3 37 10 70 14 72 3 3 8 19 9 38 3 41 23 85 74 161 21
32 38 62 38 66 0 4 9 16 20 26 11 10 20 22 20 26 0 18 81 95 155 148 120 86
188 116 363 161 73 19 102 21 225 17 204 -8 251 -13 303 -36 26 -12 51 -21 56
-21 11 0 75 -27 98 -41 43 -27 78 -51 104 -71 29 -23 136 -150 136 -162 0 -3
9 -15 20 -26 11 -11 20 -27 20 -35 0 -8 4 -15 9 -15 5 0 12 -12 15 -27 11 -48
28 -83 40 -83 11 0 66 71 66 85 0 17 107 140 173 198 84 74 262 208 282 211 7
1 19 7 26 13 23 18 83 47 101 48 10 1 26 9 36 18 10 9 26 17 35 17 9 0 19 5
22 10 4 6 11 8 16 4 5 -3 16 -1 23 5 18 15 133 41 226 51 88 9 211 3 260 -13z"/>
<path fill="#000000" stroke="none" d="M11429 26152 c-13 -16 -37 -53 -54 -82
-16 -29 -37 -64 -45 -79 -8 -14 -32 -51 -52 -81 -20 -30 -42 -66 -48 -80 -6
-14 -24 -43 -41 -65 -16 -22 -34 -49 -39 -60 -12 -23 -31 -53 -77 -119 -18
-26 -33 -49 -33 -52 0 -9 -132 -208 -176 -267 -24 -31 -44 -60 -44 -63 0 -3
-19 -33 -41 -67 -23 -34 -53 -82 -67 -107 -14 -25 -32 -51 -39 -59 -22 -22
-163 -238 -163 -250 0 -6 -3 -11 -8 -11 -4 0 -12 -9 -17 -20 -6 -11 -35 -61
-65 -111 -30 -50 -59 -98 -65 -108 -9 -15 -83 -129 -116 -178 -8 -11 -60 -84
-117 -162 -56 -77 -105 -148 -109 -158 -4 -10 -11 -22 -15 -28 -4 -5 -18 -23
-31 -40 -25 -32 -89 -130 -100 -155 -4 -8 -17 -31 -30 -51 -12 -20 -56 -89
-96 -155 -41 -65 -89 -139 -106 -164 -16 -25 -37 -58 -45 -75 -8 -16 -45 -76
-82 -132 -37 -56 -68 -107 -68 -113 0 -5 -4 -10 -8 -10 -5 0 -14 -12 -21 -27
-7 -16 -31 -56 -53 -91 -23 -35 -48 -76 -57 -92 -43 -77 -98 -170 -128 -215
-18 -27 -33 -53 -33 -58 0 -4 -18 -35 -40 -67 -22 -32 -40 -63 -40 -69 0 -5
-6 -16 -12 -23 -7 -7 -21 -29 -31 -48 -9 -19 -31 -55 -47 -80 -16 -25 -33 -52
-37 -60 -18 -34 -171 -266 -210 -318 -24 -30 -43 -61 -43 -68 0 -6 -7 -17 -15
-24 -8 -6 -48 -62 -89 -123 -103 -153 -104 -154 -157 -222 -25 -33 -54 -73
-63 -90 -18 -33 -57 -88 -84 -120 -34 -41 -72 -94 -72 -101 0 -4 -8 -16 -17
-26 -10 -11 -26 -34 -38 -53 -45 -74 -140 -213 -175 -255 -20 -25 -40 -53 -43
-64 -4 -10 -27 -48 -51 -85 -23 -36 -64 -100 -90 -141 -51 -82 -79 -122 -126
-187 -16 -23 -30 -47 -30 -53 0 -5 -4 -10 -10 -10 -5 0 -10 -6 -10 -13 0 -11
-20 -44 -105 -177 -13 -19 -37 -60 -54 -91 -16 -31 -47 -81 -68 -111 -131
-190 -184 -270 -213 -323 -19 -33 -44 -73 -57 -88 -13 -16 -23 -33 -23 -39 0
-6 -11 -25 -24 -42 -13 -17 -36 -56 -51 -86 -16 -30 -34 -62 -40 -70 -35 -43
-325 -640 -325 -668 0 -6 -12 -34 -26 -64 -14 -29 -33 -69 -42 -88 -9 -19 -21
-42 -28 -50 -14 -17 -72 -132 -101 -200 -46 -107 -53 -130 -69 -215 -9 -49
-20 -97 -25 -106 -4 -9 -11 -31 -14 -50 -3 -19 -10 -47 -15 -64 -5 -16 -17
-54 -26 -82 l-16 -53 -53 0 c-46 0 -55 -3 -60 -21 -9 -28 24 -48 69 -40 4 1
16 -1 25 -4 16 -5 18 -21 19 -128 1 -139 21 -818 26 -875 2 -21 9 -48 16 -61
15 -28 9 -528 -9 -746 -6 -71 -15 -211 -22 -310 -6 -99 -15 -236 -20 -305 -10
-128 -19 -827 -22 -1730 -2 -575 1 -737 14 -824 19 -125 28 -235 33 -396 3
-91 8 -208 11 -260 2 -52 7 -203 10 -335 6 -238 16 -508 35 -910 9 -200 14
-328 25 -585 16 -387 26 -573 34 -630 5 -36 10 -146 11 -244 0 -99 3 -182 5
-186 3 -4 7 -142 10 -306 3 -165 10 -366 14 -449 4 -82 9 -279 10 -438 1 -158
4 -294 7 -302 3 -8 9 -155 12 -327 l7 -313 255 -3 c264 -3 304 1 574 49 102
19 133 20 520 12 668 -14 1377 -10 1616 9 113 9 270 19 350 23 145 6 389 27
530 45 41 5 140 14 220 20 80 5 163 12 185 15 22 2 110 7 195 10 85 3 195 8
243 11 48 3 300 8 560 10 260 3 488 6 507 8 19 2 121 7 225 10 195 8 426 25
665 50 120 13 244 19 630 31 99 3 152 0 495 -25 181 -13 940 -13 1445 0 891
24 1043 24 1206 2 82 -12 172 -23 199 -26 28 -3 66 -8 85 -12 56 -10 57 -8 78
211 12 115 0 3824 -13 4250 -1 61 -10 259 -18 440 -9 182 -14 424 -12 540 2
115 0 217 -5 225 -4 8 -10 96 -13 195 -7 193 -24 466 -32 502 -3 12 -9 138
-15 280 -25 643 -31 738 -51 858 -9 52 -18 132 -34 293 -2 23 -6 50 -9 60 -5
17 -21 366 -31 712 -3 96 -10 234 -15 305 -5 72 -12 200 -15 285 -3 85 -8 180
-10 210 -3 30 -7 84 -9 120 -19 311 -36 521 -62 750 -20 178 -37 511 -27 521
8 8 182 36 258 41 37 3 40 6 42 33 3 31 -14 60 -178 306 -41 63 -86 132 -99
154 -13 22 -38 59 -57 82 -18 23 -33 44 -33 47 0 3 -29 46 -65 95 -36 50 -65
93 -65 96 0 3 -12 23 -27 44 -31 43 -32 44 -103 153 -27 42 -50 79 -50 81 0 3
-16 29 -36 58 -20 30 -40 63 -46 74 -16 36 -35 65 -55 88 -24 27 -50 67 -82
127 -21 41 -182 282 -237 355 -12 17 -38 62 -58 100 -20 39 -44 81 -55 95 -10
14 -43 63 -73 110 -30 47 -90 138 -134 203 -43 66 -92 140 -107 165 -16 26
-37 56 -47 67 -10 11 -34 52 -55 90 -20 39 -45 79 -56 91 -10 11 -19 24 -19
27 0 4 -21 36 -47 70 -75 98 -95 127 -133 197 -59 106 -63 112 -116 180 -49
63 -69 92 -148 210 -20 30 -53 80 -74 111 -20 31 -42 64 -48 75 -6 10 -17 30
-25 44 -8 14 -23 37 -35 51 -16 21 -20 38 -18 79 1 29 8 56 14 60 9 6 9 34 1
115 -14 134 -14 371 -1 570 12 170 15 809 5 960 -3 55 -10 164 -16 241 -9 127
-4 578 7 595 2 4 9 92 14 196 6 103 15 206 21 228 6 22 10 70 10 108 0 80 6
83 142 56 72 -15 85 -6 61 44 l-17 35 -91 7 c-117 9 -110 9 -321 0 -129 -6
-195 -4 -235 4 -30 7 -120 23 -200 35 -133 21 -162 22 -340 15 -174 -7 -197
-10 -210 -27 -58 -71 -80 -367 -74 -1004 1 -219 -1 -368 -7 -368 -5 0 -21 19
-35 43 -15 23 -44 65 -64 92 -20 28 -45 65 -56 84 -10 19 -43 69 -72 110 -29
42 -58 85 -65 95 -7 11 -21 29 -32 41 -11 11 -29 34 -39 50 -11 17 -88 117
-173 223 -84 105 -158 202 -163 215 -5 12 -25 45 -45 72 -106 149 -365 535
-365 545 0 4 -7 10 -15 14 -8 3 -15 10 -15 16 0 12 -50 83 -62 88 -5 2 -8 7
-8 12 0 13 -82 134 -97 143 -7 4 -13 13 -13 19 0 5 -21 37 -47 69 -27 32 -68
84 -93 115 -85 107 -229 258 -323 339 -19 17 -70 64 -114 106 -72 69 -167 132
-219 145 -15 4 -28 -3 -45 -24z"/>
<path fill="#ffffff" stroke="none" d="M11541 26068 c23 -13 76 -57 130 -110
16 -15 71 -63 124 -108 52 -45 95 -85 95 -88 0 -4 23 -32 51 -62 173 -188 306
-366 539 -720 113 -171 185 -278 214 -315 17 -21 36 -47 41 -56 35 -60 140
-208 205 -289 42 -52 88 -113 103 -136 14 -22 31 -47 39 -55 39 -43 117 -138
133 -164 11 -16 50 -72 87 -123 37 -50 76 -107 85 -125 10 -17 30 -48 45 -67
14 -19 34 -49 45 -67 10 -17 41 -64 69 -105 28 -40 54 -90 58 -110 4 -21 13
-38 19 -38 14 0 65 -52 83 -85 6 -11 48 -76 93 -145 95 -146 181 -289 181
-299 0 -5 9 -16 20 -26 11 -10 20 -22 20 -27 0 -8 110 -177 183 -283 39 -55
101 -152 152 -234 133 -216 217 -345 227 -349 4 -2 8 -8 8 -14 0 -6 34 -62 75
-124 41 -62 75 -120 75 -129 0 -25 19 -55 35 -55 7 0 24 -17 36 -37 13 -21 48
-76 78 -122 31 -46 65 -97 76 -115 24 -38 81 -119 160 -228 34 -46 72 -103 85
-128 14 -25 54 -88 89 -140 89 -130 168 -250 186 -280 9 -14 40 -63 70 -110
30 -47 55 -90 55 -97 0 -6 4 -13 10 -15 12 -4 283 -418 399 -610 25 -42 77
-123 115 -180 38 -57 90 -134 114 -173 100 -155 117 -180 125 -183 4 -2 7 -9
7 -16 0 -7 12 -31 28 -52 36 -51 112 -174 112 -181 0 -3 11 -21 25 -39 14 -18
25 -35 25 -39 0 -3 28 -46 63 -96 34 -49 67 -97 72 -106 6 -10 25 -37 42 -63
18 -25 59 -85 90 -134 32 -49 86 -131 121 -182 34 -51 62 -95 62 -98 0 -3 21
-35 46 -71 25 -36 44 -72 41 -79 -9 -22 -59 -25 -552 -35 -258 -5 -526 -12
-595 -16 -69 -3 -251 -8 -405 -10 -154 -2 -296 -6 -315 -9 -194 -32 -724 -62
-1215 -71 -202 -4 -578 -23 -660 -35 -38 -5 -126 -11 -195 -12 -116 -2 -189 2
-615 33 -170 12 -263 9 -413 -15 -51 -8 -165 -20 -253 -26 -88 -6 -221 -22
-297 -36 -172 -32 -377 -45 -797 -50 -724 -10 -693 -8 -810 -33 -109 -22 -307
-31 -367 -16 -14 4 -116 -3 -229 -14 -112 -11 -249 -23 -303 -26 -54 -3 -102
-7 -106 -10 -3 -2 -101 -6 -216 -9 -115 -2 -220 -7 -234 -10 -14 -3 -77 -10
-140 -16 -320 -30 -414 -35 -615 -29 -525 16 -635 21 -705 35 -226 42 -590 54
-664 21 -49 -22 -72 -16 -56 14 6 11 15 41 20 67 10 54 16 77 64 266 20 76 42
148 49 160 7 12 24 48 37 81 13 33 31 69 42 81 10 11 18 24 18 28 0 4 15 33
34 65 18 32 56 113 84 182 59 146 121 282 163 359 17 30 55 107 86 170 30 63
59 117 64 118 5 2 9 7 9 12 0 13 106 193 151 257 22 32 49 77 60 100 19 42 52
94 77 123 29 35 142 200 162 238 12 22 28 46 36 53 8 6 14 17 14 24 0 6 25 50
55 96 30 46 55 87 55 92 0 4 26 46 58 93 31 47 64 96 72 109 8 12 34 50 58 83
23 34 46 70 50 79 4 10 23 43 42 73 19 30 42 67 50 82 8 15 43 65 78 112 34
48 62 88 62 91 0 3 15 24 33 48 17 24 48 71 67 105 19 34 41 62 48 62 6 0 12
6 12 14 0 8 6 21 13 28 25 27 96 126 115 162 20 37 95 141 143 199 39 47 329
474 329 484 0 3 13 22 28 42 32 41 159 247 224 366 25 44 68 117 96 163 29 46
52 85 52 87 0 3 129 215 207 340 7 11 20 33 28 48 9 15 25 37 36 48 10 10 19
23 19 28 0 5 18 37 40 70 22 33 40 64 40 68 0 5 21 40 48 79 26 39 52 79 59
90 7 10 37 60 68 109 31 50 62 99 68 110 7 11 23 38 37 60 14 22 29 47 33 55
4 8 15 27 25 41 9 14 35 54 57 89 22 35 52 77 66 94 14 17 50 65 78 106 28 41
88 127 132 190 44 63 89 133 101 155 11 22 24 42 28 45 4 3 19 28 34 55 15 28
40 70 56 95 16 25 35 56 42 70 7 14 23 39 35 56 13 17 23 34 23 38 0 4 34 55
76 112 42 57 85 123 98 147 12 24 32 56 44 73 22 27 95 135 117 172 18 30 206
315 234 355 14 21 31 45 36 54 6 10 14 22 18 27 17 23 77 124 107 180 30 56
41 73 98 146 24 31 37 31 93 -2z"/>
<path fill="#ffffff" stroke="none" d="M14290 24841 c200 -39 265 -44 378 -30
63 7 106 9 112 3 8 -8 14 -52 21 -159 0 -5 -4 -71 -10 -145 -32 -403 -34 -455
-27 -711 4 -145 10 -284 12 -309 9 -80 11 -759 3 -965 -16 -416 -19 -582 -10
-635 7 -43 6 -58 -5 -71 -8 -8 -14 -25 -14 -37 0 -12 -4 -22 -9 -22 -10 0
-189 265 -224 330 -11 19 -27 44 -36 55 -9 11 -25 36 -35 55 -11 19 -33 55
-49 80 -16 25 -41 65 -55 90 -13 25 -32 54 -42 65 -9 11 -27 38 -39 60 -13 22
-34 53 -48 70 -14 16 -61 89 -105 160 -44 72 -86 137 -94 146 -8 8 -19 31 -25
50 -11 29 -23 48 -68 105 -4 5 -14 21 -21 35 -7 13 -26 40 -41 59 -15 19 -36
51 -46 70 -26 50 -91 146 -108 160 -8 7 -15 22 -15 34 0 12 -5 27 -12 34 -7 7
-12 58 -14 134 -5 216 -5 850 0 928 3 41 8 124 12 184 4 73 12 122 25 151 24
54 22 53 284 50 147 -2 216 -7 305 -24z"/>
<path fill="#ffffff" stroke="none" d="M16818 17874 c21 -4 22 -9 22 -87 0
-86 23 -370 39 -497 6 -41 15 -149 21 -240 6 -91 15 -212 20 -270 5 -58 12
-157 15 -220 6 -131 23 -431 30 -535 3 -38 9 -212 15 -385 5 -173 14 -364 19
-425 16 -183 40 -425 51 -520 6 -49 15 -126 20 -170 10 -85 24 -343 40 -713 5
-125 17 -326 26 -447 8 -121 17 -242 19 -270 2 -27 6 -84 10 -125 3 -41 10
-275 15 -520 6 -245 13 -483 15 -530 31 -540 38 -1182 35 -3278 0 -496 2 -906
4 -911 5 -7 -5 -224 -19 -419 -7 -106 -12 -112 -93 -112 -37 0 -121 7 -187 16
-139 19 -682 21 -919 3 -76 -6 -180 -9 -230 -9 -50 1 -372 -1 -716 -5 -554 -7
-652 -5 -860 11 -129 9 -302 18 -385 18 -178 1 -651 -21 -750 -34 -38 -5 -90
-11 -115 -12 l-45 -3 -3 365 c-1 262 -8 427 -22 585 -12 140 -20 313 -21 475
0 140 -5 442 -10 670 -5 228 -12 557 -14 730 -12 694 -14 791 -25 955 -6 93
-16 202 -22 240 -13 79 -13 278 -1 535 4 96 6 236 3 310 l-5 135 -49 7 c-26 4
-55 9 -63 12 -9 4 -21 2 -27 -2 -18 -15 -60 -22 -194 -32 -314 -25 -472 -32
-832 -35 -499 -4 -1020 -15 -1042 -21 -22 -6 -25 -62 -4 -70 8 -3 40 -1 72 5
36 7 346 13 803 16 731 5 920 12 1116 45 33 5 81 7 108 4 l47 -7 1 -111 c0
-61 2 -124 3 -141 1 -16 -3 -125 -10 -241 -11 -206 -10 -258 15 -514 26 -277
27 -284 36 -1045 3 -253 10 -530 15 -615 5 -85 10 -362 10 -615 1 -512 1 -514
24 -746 12 -121 16 -236 13 -425 -1 -142 0 -307 3 -367 4 -91 3 -108 -10 -112
-25 -8 -541 -27 -810 -30 -656 -8 -1050 -21 -1248 -41 -59 -6 -65 -6 -59 10 6
15 2 77 -20 296 -2 25 -8 142 -13 260 -5 118 -12 262 -16 320 -4 58 -5 168 -3
245 7 301 -5 868 -24 1070 -7 72 -11 234 -11 360 3 666 2 872 -5 990 -4 72 -9
345 -10 607 -1 263 -3 483 -6 490 -2 7 -6 71 -9 141 -3 71 -8 133 -12 138 -3
5 -17 9 -30 9 -25 0 -26 -1 -20 -62 9 -101 17 -341 16 -503 -4 -466 -2 -656 6
-800 9 -169 11 -532 5 -980 -2 -148 0 -292 3 -320 11 -72 12 -103 25 -480 6
-187 13 -365 16 -395 3 -30 2 -120 -3 -200 -4 -80 -4 -212 0 -295 4 -82 9
-215 12 -295 6 -158 23 -423 35 -536 l7 -72 -44 -6 c-25 -3 -77 -6 -116 -6
-39 0 -132 -9 -206 -20 -74 -11 -290 -29 -480 -40 -190 -12 -410 -26 -490 -31
-172 -11 -1236 -14 -1629 -4 -229 6 -289 4 -351 -9 -189 -38 -290 -47 -540
-43 l-245 3 3 180 c2 103 -2 207 -8 244 -6 36 -15 256 -20 490 -5 234 -11 450
-14 480 -2 30 -8 195 -11 365 -3 171 -10 339 -16 374 -5 35 -7 112 -3 170 3
58 1 162 -5 231 -6 69 -13 179 -16 245 -3 66 -8 161 -11 210 -2 50 -10 205
-15 345 -6 140 -15 316 -19 390 -24 397 -34 623 -44 1010 -13 469 -26 724 -42
850 -13 99 -17 211 -17 535 0 721 12 1805 22 1950 6 77 12 185 15 240 3 55 10
165 15 245 42 598 42 824 1 1245 -6 55 -13 245 -16 423 -3 178 -7 329 -10 336
-3 8 20 19 63 33 92 29 274 29 478 2 300 -40 352 -43 900 -55 244 -6 311 -4
420 11 72 9 148 18 170 20 22 2 83 9 135 14 52 6 167 11 256 11 88 0 185 4
215 9 30 6 106 12 169 15 63 3 156 11 205 17 50 6 200 12 335 13 195 2 260 6
320 20 53 13 130 19 265 22 105 2 256 7 338 12 81 4 186 4 235 0 51 -5 137 -4
207 2 66 5 183 13 260 16 77 3 181 14 230 24 97 20 225 36 375 45 52 4 151 15
220 25 193 28 272 33 347 21 72 -11 207 -23 491 -42 175 -12 189 -11 472 22
46 6 258 15 470 20 605 16 971 28 1020 34 303 38 407 45 790 51 223 3 527 9
675 13 259 6 364 5 413 -5z"/>
<path fill="#000000" stroke="none" d="M14965 17265 c-77 -11 -239 -40 -430
-75 -27 -6 -65 -7 -83 -4 -18 4 -38 2 -45 -4 -7 -6 -93 -25 -192 -42 -99 -17
-209 -38 -245 -46 -100 -23 -281 -54 -315 -54 -19 0 -38 8 -49 21 -15 18 -24
20 -64 14 -26 -4 -87 -11 -137 -14 l-90 -6 -7 -40 c-4 -22 -2 -143 4 -269 6
-129 7 -305 3 -404 -7 -159 -9 -175 -26 -179 -26 -7 -26 -59 0 -66 24 -6 33
-99 26 -272 -6 -153 -6 -466 -1 -710 4 -182 5 -190 25 -193 11 -2 30 2 43 9
28 15 199 25 676 39 342 10 366 10 402 -7 31 -14 39 -24 42 -48 2 -22 9 -31
25 -33 29 -4 47 30 39 74 -9 46 10 54 130 53 107 0 354 15 529 33 61 6 146 12
190 12 l80 1 9 125 c6 78 5 170 -1 245 -5 71 -6 163 -1 225 4 58 6 167 4 244
l-4 138 61 -5 c34 -3 74 -9 90 -13 26 -6 27 -5 27 35 l0 41 -59 0 c-32 0 -72
3 -88 6 l-30 6 -7 141 c-3 78 -11 160 -16 182 -16 63 -21 186 -22 518 -1 299
-2 308 -22 323 -27 18 -340 18 -471 -1z"/>
<path fill="#ffffff" stroke="none" d="M15387 17208 c10 -8 12 -84 11 -327 -1
-249 2 -339 14 -426 9 -60 20 -165 24 -231 l7 -122 -79 -6 c-44 -3 -256 -7
-472 -9 l-392 -2 -23 28 c-22 28 -23 39 -27 250 -7 333 -6 677 3 718 l7 36
113 21 c61 12 143 26 181 32 37 6 100 18 140 26 124 27 464 35 493 12z"/>
<path fill="#ffffff" stroke="none" d="M14386 17073 c-3 -21 -8 -90 -11 -153
-3 -63 -13 -212 -21 -330 -8 -118 -14 -276 -13 -349 l3 -135 -214 0 c-171 0
-229 3 -283 17 -46 11 -131 19 -257 24 -104 3 -195 10 -201 14 -10 6 -10 29 0
114 9 72 12 198 10 393 l-4 287 35 3 c19 1 78 9 131 17 53 8 115 15 137 15 36
0 266 41 552 98 144 29 143 29 136 -15z"/>
<path fill="#ffffff" stroke="none" d="M14397 16268 c-2 -13 -4 -5 -4 17 -1
22 1 32 4 23 2 -10 2 -28 0 -40z"/>
<path fill="#ffffff" stroke="none" d="M14410 16187 c0 -5 -4 -5 -10 -2 -5 3
-10 14 -10 23 0 15 2 15 10 2 5 -8 10 -19 10 -23z"/>
<path fill="#ffffff" stroke="none" d="M13490 16055 c39 -14 45 -14 61 1 14
13 29 15 59 10 127 -20 360 -36 530 -36 213 0 220 -2 220 -54 0 -17 13 -83 29
-146 42 -168 56 -338 43 -537 -6 -94 -7 -175 -2 -193 5 -16 5 -32 2 -34 -8 -4
-196 -13 -487 -22 -115 -4 -223 -8 -240 -10 -54 -7 -310 -21 -316 -17 -9 4
-13 251 -11 663 1 195 2 363 2 373 0 22 50 23 110 2z"/>
<path fill="#ffffff" stroke="none" d="M15279 16024 l174 -6 -8 -202 c-8 -211
-8 -228 -3 -504 3 -195 4 -192 -72 -192 -25 0 -61 -5 -80 -10 -19 -6 -96 -13
-170 -15 -74 -3 -151 -7 -170 -10 -19 -2 -78 -7 -130 -10 -52 -3 -132 -8 -177
-10 -72 -4 -83 -3 -92 13 -13 24 -31 190 -36 343 -3 68 -10 153 -16 189 -11
71 -31 389 -25 405 4 12 553 18 805 9z"/>
<path fill="#000000" stroke="none" d="M9050 16970 c-47 -4 -112 -13 -145 -19
-33 -6 -86 -10 -116 -10 -31 1 -62 -2 -69 -6 -23 -14 -216 -34 -333 -35 -83 0
-153 -7 -241 -25 -115 -23 -263 -72 -295 -98 -9 -8 -52 -12 -113 -12 l-99 1 5
-76 c3 -41 8 -128 12 -193 5 -108 9 -125 41 -194 32 -68 36 -85 39 -182 2 -58
9 -178 15 -266 6 -88 14 -212 19 -275 4 -63 17 -158 29 -210 30 -130 41 -200
36 -224 -12 -60 -13 -231 -1 -314 8 -58 10 -110 5 -135 -11 -59 -11 -115 1
-122 6 -4 25 -2 43 4 28 9 99 23 259 51 65 12 221 54 353 96 61 19 143 41 184
49 40 9 76 17 80 20 4 2 27 8 50 14 33 7 45 6 56 -6 9 -8 13 -18 10 -23 -3 -4
4 -29 15 -55 17 -41 22 -45 40 -35 29 15 43 47 25 54 -18 7 -20 57 -3 74 7 7
39 12 73 12 75 0 291 22 540 55 223 29 279 32 363 21 34 -4 62 -4 62 1 0 4
-10 40 -21 78 -18 61 -22 113 -29 405 -4 185 -11 356 -15 381 -6 41 -5 47 14
52 12 3 21 13 21 23 0 10 10 28 23 42 22 23 22 24 3 38 -11 8 -36 14 -57 14
-36 0 -37 1 -44 48 -4 26 -9 63 -11 82 -7 71 -24 176 -33 215 -54 214 -82 345
-90 427 -5 53 -14 106 -20 117 -6 11 -11 35 -11 54 0 19 -7 40 -14 47 -20 16
-347 50 -471 48 -55 0 -138 -4 -185 -8z"/>
<path fill="#ffffff" stroke="none" d="M9471 16905 c79 -8 151 -18 160 -20 19
-6 56 -135 65 -225 7 -77 41 -240 53 -255 9 -11 53 -235 70 -356 5 -41 13 -82
16 -91 8 -20 -12 -24 -245 -43 -102 -8 -225 -24 -275 -35 -49 -10 -128 -24
-175 -29 -47 -6 -105 -15 -130 -20 -25 -6 -72 -10 -106 -11 l-61 0 -7 53 c-46
356 -57 551 -32 596 9 16 11 34 6 50 -5 14 -11 103 -14 198 l-6 171 68 7 c37
4 90 10 117 15 86 13 346 11 496 -5z"/>
<path fill="#ffffff" stroke="none" d="M8714 16863 c-15 -36 0 -531 21 -678 8
-55 17 -140 20 -190 2 -49 7 -109 11 -132 7 -51 12 -49 -169 -57 -126 -6 -386
13 -472 34 -22 5 -88 10 -147 10 -107 0 -108 0 -122 28 -18 36 -24 70 -31 167
-11 154 -24 291 -35 365 -6 41 -18 121 -26 178 -9 57 -15 104 -13 106 2 1 20
7 39 13 19 6 71 25 115 43 44 18 89 36 100 41 71 28 223 51 403 60 108 5 213
14 232 18 62 15 83 13 74 -6z"/>
<path fill="#ffffff" stroke="none" d="M9864 15818 c3 -18 8 -190 11 -383 4
-263 10 -362 20 -399 8 -27 15 -51 15 -53 0 -2 -30 -3 -67 -4 -38 0 -106 -6
-153 -14 -139 -23 -668 -85 -724 -85 -22 0 -22 3 -22 78 0 53 -6 100 -21 149
-33 106 -61 345 -62 530 -1 127 -8 119 99 122 35 2 68 4 72 7 4 2 62 11 130
19 68 8 139 20 158 26 40 13 312 36 446 38 l92 1 6 -32z"/>
<path fill="#ffffff" stroke="none" d="M8227 15758 c18 -7 122 -12 288 -13
l259 -2 1 -49 c2 -75 33 -392 45 -454 15 -81 29 -205 32 -290 l3 -75 -40 -6
c-22 -3 -56 -11 -75 -17 -32 -11 -100 -29 -315 -83 -44 -12 -114 -31 -155 -44
-76 -24 -272 -65 -308 -65 -14 0 -20 7 -20 23 0 12 -2 65 -5 117 -7 121 -17
333 -22 475 -5 139 -22 335 -35 398 -17 82 -17 84 48 95 68 13 260 6 299 -10z"/>
<path fill="#000000" stroke="none" d="M8640 16749 c0 -26 3 -30 22 -27 26 3
37 36 16 49 -25 17 -38 9 -38 -22z"/>
<path fill="#000000" stroke="none" d="M10936 9428 c-15 -13 -50 -43 -76 -68
-44 -42 -48 -50 -54 -107 -8 -71 8 -119 52 -153 80 -64 232 -41 288 43 24 35
29 55 32 117 3 66 1 79 -20 109 -48 70 -167 102 -222 59z"/>
<path fill="#ffffff" stroke="none" d="M11095 9338 c24 -29 26 -37 20 -86 -9
-75 -11 -78 -59 -102 -50 -24 -96 -26 -136 -5 -37 19 -50 43 -50 94 0 60 39
99 108 110 29 4 55 11 59 15 13 13 32 5 58 -26z"/>
<path fill="#000000" stroke="none" d="M18205 19619 c-4 -6 -4 -13 -1 -16 8
-8 36 5 36 17 0 13 -27 13 -35 -1z"/>
</g>
</svg>
