<svg version="1.1" xmlns="http://www.w3.org/2000/svg" xmlns:xlink="http://www.w3.org/1999/xlink" width="768" height="829.4375"><defs><clipPath id="clip-1"><rect x="22.90777" y="0" transform="scale(3.20246,3.20246)" width="194" height="259" id="clip-1" fill="none"/></clipPath></defs><g fill="none" fill-rule="nonzero" stroke="none" stroke-width="1" stroke-linecap="butt" stroke-linejoin="miter" stroke-miterlimit="10" stroke-dasharray="" stroke-dashoffset="0" font-family="none" font-weight="none" font-size="none" text-anchor="none" style="mix-blend-mode: normal"><g><g><g><g><g><g><g><g><g><g><g><g><g><g><g><g><g><g><g><g><g><g><g clip-path="url(#clip-1)"><g><path d="M158.86522,63.08776c-1.28098,0.96075 -2.24172,8.00607 -2.24172,15.69188c0,7.36558 -5.12386,31.38375 -11.52877,53.1603c-16.01213,54.44121 -16.01213,74.29628 0,102.79782l11.84902,21.13597l-7.04532,20.17531c-15.05139,45.4744 -28.18138,63.408 -46.11489,63.408c-13.1299,0 -2.24172,15.05139 48.03637,65.00924c35.86719,35.86719 59.24488,52.84005 112.72535,80.38086c1.92146,0.96075 -11.20852,33.94572 -16.65262,41.95178c-5.44409,8.3263 -6.40483,14.4109 -6.08458,48.03637l0.32025,38.74933l-11.84902,-2.88221c-32.66474,-8.9668 -60.84612,21.13597 -60.84612,65.00924c0,34.90645 17.9336,65.64973 46.11489,78.77963c19.53484,8.9668 32.3445,9.60729 45.15423,1.92146c9.28704,-5.76434 9.60729,-5.76434 16.01213,1.92146c9.60729,11.20852 32.02425,13.1299 50.27809,4.16312c16.65262,-8.00607 33.30523,-8.64656 46.11489,-1.92146c5.12386,2.56197 16.97286,4.80361 26.25991,4.80361c13.77041,0 18.57409,-1.60123 24.97892,-8.00607c7.36558,-7.36558 8.64656,-7.68582 15.05139,-3.20246c7.68582,5.44409 29.78253,6.40483 41.95178,1.60123c22.41695,-8.3263 49.6376,-46.11489 49.95784,-68.85218c0,-13.45016 1.92146,-15.37163 26.90039,-27.22064c45.4744,-21.45623 82.62258,-71.73431 99.2752,-133.86141c6.72507,-24.65867 8.00607,-39.71006 9.92753,-98.95495l2.24172,-69.81284l-10.24779,20.17531c-13.77041,26.90039 -40.03032,54.76145 -63.408,67.25095c-14.4109,7.68582 -28.50162,11.52877 -59.88538,16.65262c-45.4744,7.36558 -65.32949,14.4109 -80.70111,29.46228c-8.9668,8.64656 -10.56802,9.28704 -12.48942,4.48336c-2.56197,-6.40483 -4.80361,-4.48336 24.33843,-21.13597c56.36268,-32.3445 100.55618,-72.69505 117.20879,-107.28126c13.77041,-27.86113 13.77041,-30.42301 0,-30.42301c-16.33237,0 -29.46228,-12.80966 -35.86719,-34.26596c-6.40483,-22.09671 -4.48336,-41.95178 6.72507,-67.89145c18.25385,-42.91252 22.09671,-105.35978 8.9668,-144.1091c-8.00607,-24.01818 -12.16926,-25.93967 -38.10882,-16.97286c-90.94889,31.704 -109.52297,43.23277 -116.88855,72.05456c-1.92146,8.3263 -4.16312,15.05139 -4.48336,15.05139c-0.64049,0 -8.64656,-3.52269 -18.25385,-8.00607c-20.17531,-9.60729 -36.50769,-9.92753 -60.20563,-1.60123c-21.45623,7.68582 -22.41695,7.68582 -22.41695,1.60123c0,-15.69188 -25.61941,-46.11489 -48.67686,-57.96391c-12.48942,-6.72507 -85.5048,-33.30523 -90.62865,-33.30523c-2.24172,0 -4.80361,0.96075 -5.76434,2.24172z" fill="#000000"/><path d="M207.22184,79.74037c61.16636,22.41695 87.74643,42.91252 92.22987,71.41407c1.28098,6.72507 2.56197,12.16926 3.20246,12.16926c0.64049,0 8.64656,-3.20246 17.9336,-6.72507c22.7372,-9.28704 48.03637,-9.28704 65.96996,0c7.68582,3.84295 16.01213,6.40483 18.25385,5.44409c2.56197,-0.96075 6.08458,-7.68582 8.00607,-15.37163c4.16312,-15.05139 15.69188,-29.14204 30.42301,-36.82794c20.49556,-10.88827 102.15741,-39.38982 107.6015,-37.78859c6.72507,2.24172 10.88827,13.77041 16.01213,44.51376c6.40483,37.14811 -0.96075,86.46545 -18.57409,123.61362c-9.60729,20.81573 -10.24779,40.6708 -2.24172,65.00924c6.72507,21.45623 15.37163,30.42301 32.3445,34.58621l13.45016,3.52269l-9.92753,19.85506c-13.77041,27.54089 -14.09065,27.86113 -25.29917,22.09671c-5.12386,-2.56197 -13.1299,-3.84295 -17.2931,-2.88221c-7.36558,1.92146 -7.36558,1.60123 -8.64656,-27.86113c-0.64049,-23.05746 -2.56197,-32.98499 -8.64656,-45.15423c-21.77647,-44.51376 -80.70111,-46.11489 -118.81002,-2.88221c-18.89434,21.45623 -28.50162,41.95178 -38.42908,82.62258c-4.80361,19.21458 -9.60729,32.98499 -10.56802,30.42301c-0.96075,-2.56197 -5.44409,-17.61334 -10.24779,-33.30523c-11.84902,-39.38982 -24.97892,-65.96996 -41.63154,-84.54405c-30.10278,-33.62548 -72.05456,-39.38982 -98.6347,-14.09065c-16.65262,15.69188 -22.41695,31.38375 -24.01818,63.72825c-0.96075,21.77647 -2.56197,29.78253 -5.44409,29.78253c-2.56197,0 -8.9668,3.84295 -14.73114,8.64656l-10.24779,8.64656l-22.09671,-23.69794c-11.84902,-13.1299 -21.77647,-25.61941 -21.77647,-27.22064c0,-1.92146 5.12386,-5.44409 11.20852,-7.68582c9.28704,-3.20246 12.80966,-7.68582 22.09671,-26.90039c6.08458,-12.80966 13.45016,-31.06351 16.33237,-40.99104l5.76434,-17.9336l-11.84902,-20.81573c-15.37163,-27.54089 -15.69188,-48.9971 -1.60123,-94.15135c5.44409,-17.61334 10.56802,-39.71006 11.52877,-49.31736c1.60123,-17.2931 3.20246,-25.61941 4.80361,-25.61941c0.64049,0 20.17531,7.04532 43.55301,15.69188z" fill="#ffa500"/><path d="M263.26427,279.25151c17.2931,5.12386 43.87326,30.42301 55.72219,52.84005c9.92753,18.25385 28.18138,68.85218 30.10278,83.90357c0.96075,6.40483 -0.96075,8.3263 -13.1299,12.80966c-20.81573,7.68582 -23.37769,17.2931 -9.28704,36.50769c12.16926,16.33237 24.33843,23.05746 36.18744,20.17531c9.28704,-2.24172 30.74327,-30.42301 30.74327,-40.03032c0,-7.36558 -16.65262,-19.53484 -26.25991,-19.53484c-7.36558,0 -7.36558,-4.16312 0.96075,-37.78859c19.85506,-82.30234 74.93676,-127.4565 124.57437,-102.47766c25.29917,12.80966 35.22671,34.90645 35.22671,78.13914v25.61941h15.05139c23.05746,-0.32025 21.77647,6.72507 -6.08458,30.10278c-59.88538,50.27809 -138.98526,89.66791 -180.93704,89.66791c-28.18138,0 -99.59545,-29.14204 -143.46871,-58.60441c-29.14204,-19.53484 -56.04243,-43.87326 -56.04243,-50.59834c0,-6.40483 8.9668,-12.48942 18.89434,-12.48942c6.08458,0 6.72507,-1.92146 6.72507,-24.97892c0,-32.66474 6.72507,-55.40194 20.81573,-69.49268c16.65262,-16.33237 36.18744,-20.81573 60.20563,-13.77041z" fill="#ffa500"/><path d="M663.8877,434.56914c-2.56197,74.93676 -3.20246,77.17849 -27.22064,95.43225c-13.45016,10.24779 -18.89434,12.80966 -17.9336,8.9668c0.96075,-3.20246 2.88221,-11.84902 3.84295,-19.53484c1.92146,-12.48942 1.60123,-13.45016 -5.44409,-13.45016c-4.16312,0 -13.1299,2.88221 -20.17531,6.40483c-6.72507,3.52269 -12.80966,5.76434 -13.77041,5.12386c-0.64049,-0.96075 4.80361,-7.36558 11.84902,-14.4109c15.05139,-15.05139 11.84902,-16.33237 -14.73114,-7.36558l-16.33237,5.76434l2.88221,-7.68582c1.60123,-4.16312 2.88221,-13.1299 2.88221,-19.85506c0,-11.84902 0.64049,-12.48942 20.81573,-22.09671c24.33843,-11.20852 50.59834,-34.90645 64.04849,-57.64366c5.44409,-8.9668 9.92753,-16.33237 10.56802,-16.33237c0.32025,0 -0.32025,25.61941 -1.28098,56.68292z" fill="#ee82ee"/><path d="M373.42774,440.65372c13.77041,3.84295 3.52269,7.68582 -19.85506,7.68582c-22.09671,0 -34.26596,-4.16312 -21.77647,-7.36558c8.64656,-2.24172 33.62548,-2.24172 41.63154,-0.32025z" fill="#ffffff"/><path d="M566.53396,473.31846c0,6.72507 -2.88221,17.61334 -6.40483,24.65867c-3.52269,7.04532 -6.40483,13.1299 -6.40483,13.45016c0,0.64049 5.44409,-1.60123 12.16926,-5.12386c6.40483,-3.20246 15.05139,-7.04532 19.21458,-8.3263c7.36558,-2.24172 7.36558,-1.92146 -2.24172,15.05139c-12.80966,22.41695 -12.48942,24.65867 1.28098,12.80966c9.28704,-8.3263 32.98499,-18.57409 35.86719,-15.69188c0.32025,0.64049 -1.28098,12.48942 -3.84295,26.25991c-2.88221,13.77041 -4.16312,25.61941 -3.20246,26.58015c0.96075,0.96075 1.60123,0 1.60123,-1.92146c0,-5.76434 19.21458,-25.93967 29.14204,-31.38375c11.20852,-5.76434 11.52877,-3.84295 1.28098,23.37769c-16.65262,44.1935 -51.23883,84.8643 -86.46545,101.83716c-23.69794,11.20852 -23.69794,11.20852 -30.10278,-7.36558c-10.24779,-29.14204 -25.93967,-40.6708 -53.48047,-38.42908l-16.97286,1.60123l1.92146,-30.74327c1.28098,-26.58015 0.64049,-32.98499 -5.12386,-47.71613c-8.9668,-22.41695 -8.64656,-26.58015 3.84295,-38.10882c15.37163,-14.73114 29.46228,-20.49556 64.68898,-26.58015c45.4744,-8.00607 43.23277,-8.3263 43.23277,5.76434z" fill="#b14ea9"/><path d="M288.2432,511.10713c-4.48336,12.48942 -5.12386,13.1299 -11.20852,8.9668c-3.52269,-2.56197 -9.28704,-4.48336 -12.48942,-4.48336c-6.08458,0 -5.76434,-2.24172 1.28098,-21.45623c2.56197,-6.72507 2.88221,-7.04532 15.05139,-1.60123l12.16926,5.12386z" fill="#ff0000"/><path d="M441.3191,501.82009c4.48336,16.33237 4.48336,17.9336 -1.60123,15.69188c-2.56197,-0.96075 -7.68582,-0.32025 -11.20852,1.28098c-3.20246,1.92146 -6.08458,2.88221 -6.08458,2.56197c0,-0.64049 -1.28098,-5.76434 -2.88221,-11.52877c-2.88221,-9.28704 -2.24172,-10.56802 5.44409,-15.05139c12.16926,-6.40483 12.80966,-6.08458 16.33237,7.04532z" fill="#ff0000"/><path d="M356.77513,512.70836c10.88827,0 27.22064,-2.88221 37.78859,-6.40483c15.69188,-5.44409 18.89434,-5.76434 19.85506,-1.92146c0.96075,2.56197 2.24172,7.04532 3.20246,9.92753c0.96075,2.88221 -1.92146,14.09065 -6.08458,24.97892c-8.00607,20.17531 -12.80966,48.67686 -17.61334,107.6015c-2.56197,29.46228 -3.52269,33.94572 -9.92753,38.42908c-4.16312,2.56197 -13.1299,10.24779 -20.17531,16.65262c-13.1299,12.80966 -13.1299,12.80966 -8.00607,42.59228c0.64049,4.80361 -0.96075,6.72507 -6.72507,7.36558c-6.40483,0.96075 -7.36558,0.32025 -5.44409,-4.80361c9.28704,-23.37769 3.20246,-40.99104 -18.57409,-53.80071c-16.33237,-9.60729 -16.01213,-8.3263 -21.13597,-75.89751c-1.92146,-25.93967 -6.08458,-52.19956 -9.60729,-64.04849c-7.68582,-24.01818 -7.68582,-28.50162 -1.92146,-42.59228l4.48336,-10.56802l20.49556,6.40483c11.20852,3.52269 28.82178,6.40483 39.38982,6.08458z" fill="#ffa500"/><path d="M277.99541,527.4395c9.60729,9.60729 17.61334,35.86719 21.13597,69.81284l2.24172,19.21458l-17.61334,-0.96075c-11.52877,-0.96075 -20.81573,0.64049 -27.22064,3.84295l-9.60729,4.80361l-2.24172,-36.50769c-2.56197,-40.35055 0.64049,-55.72219 12.16926,-64.04849c9.28704,-6.40483 10.88827,-6.08458 21.13597,3.84295z" fill="#008000"/><path d="M447.72401,528.72049c8.64656,9.28704 10.88827,24.97892 8.3263,62.76751c-1.28098,18.25385 -2.88221,32.98499 -3.20246,32.98499c-0.32025,0 -6.40483,-2.24172 -13.1299,-5.12386c-8.3263,-3.52269 -16.97286,-4.48336 -25.93967,-3.20246c-16.01213,2.24172 -16.01213,2.24172 -9.28704,-36.50769c4.16312,-24.01818 11.52877,-45.15423 18.25385,-53.48047c5.44409,-6.40483 17.9336,-5.12386 24.97892,2.56197z" fill="#008000"/><path d="M238.92584,618.3884c6.08458,5.44409 5.12386,12.48942 -1.92146,12.48942c-6.72507,0 -9.92753,6.08458 -9.92753,19.21458c0,11.84902 8.00607,18.57409 16.33237,13.45016c4.80361,-3.20246 6.40483,-3.20246 7.36558,0c0.64049,2.24172 2.88221,8.9668 4.80361,15.05139c1.92146,6.08458 3.52269,11.20852 3.52269,11.84902c0,0.32025 -4.48336,-1.28098 -9.60729,-4.16312c-18.89434,-9.28704 -44.834,7.04532 -44.834,28.18138c0,16.97286 10.56802,28.50162 28.18138,30.74327c17.61334,2.24172 25.29917,-4.16312 28.50162,-24.33843c2.24172,-14.09065 2.24172,-14.4109 4.48336,-5.12386c4.80361,20.81573 3.20246,30.10278 -5.44409,35.86719c-17.9336,11.52877 -49.6376,1.92146 -68.21169,-20.49556c-31.06351,-37.78859 -23.69794,-97.67398 14.09065,-114.96708c10.24779,-4.80361 25.29917,-3.52269 32.66474,2.24172z" fill="#ffffff"/><path d="M507.60931,621.59077c13.77041,12.80966 20.49556,29.46228 20.49556,50.27809c0,43.87326 -26.25991,78.45939 -62.76751,82.62258c-27.22064,3.20246 -38.74933,-11.84902 -30.42301,-40.35055c2.24172,-7.04532 2.56197,-6.40483 4.80361,6.08458c4.48336,24.33843 17.2931,31.06351 39.38982,20.49556c14.4109,-6.72507 22.09671,-22.09671 17.9336,-34.90645c-6.08458,-18.57409 -39.06957,-31.06351 -48.9971,-18.89434c-6.40483,7.68582 -6.72507,4.16312 -1.60123,-13.77041c4.48336,-14.73114 5.76434,-16.33237 10.88827,-12.80966c8.00607,4.80361 15.05139,1.60123 17.61334,-8.64656c2.56197,-10.56802 -5.76434,-25.29917 -12.80966,-22.7372c-6.72507,2.56197 -5.76434,-9.92753 1.28098,-14.09065c9.28704,-5.76434 34.90645,-1.92146 44.1935,6.72507z" fill="#ffffff"/><path d="M296.5695,620.63004c2.24172,1.28098 5.12386,16.65262 7.04532,34.26596c2.24172,24.01818 4.48336,32.98499 8.64656,35.22671c31.38375,18.89434 38.74933,32.66474 28.82178,52.51981c-7.36558,14.09065 -18.57409,20.17531 -37.46834,20.17531c-20.81573,0 -31.704,-8.9668 -31.704,-26.25991c0,-6.40483 -5.12386,-29.46228 -11.20852,-51.55908c-14.09065,-50.91859 -14.4109,-56.36268 -0.64049,-62.12703c11.20852,-4.80361 30.42301,-6.08458 36.50769,-2.24172z" fill="#b14ea9"/><path d="M445.80254,626.07421c7.68582,3.20246 7.04532,10.88827 -5.76434,56.36268c-6.08458,21.77647 -11.20852,44.834 -11.20852,50.91859c0,15.37163 -7.36558,24.97892 -20.81573,27.54089c-24.65867,4.48336 -46.75539,-7.68582 -51.23883,-27.86113c-3.20246,-14.73114 3.84295,-27.22064 20.81573,-37.78859c14.4109,-8.9668 15.69188,-10.88827 17.61334,-24.97892c5.44409,-45.15423 6.08458,-47.07564 14.4109,-48.9971c8.00607,-1.92146 25.61941,0.32025 36.18744,4.80361z" fill="#b14ea9"/><path d="M242.44854,637.92314c5.12386,5.12386 4.80361,16.97286 -0.32025,21.45623c-5.76434,4.80361 -11.84902,-1.60123 -11.84902,-12.48942c0,-12.48942 4.80361,-16.33237 12.16926,-8.9668z" fill="#ffffff"/><path d="M471.42196,641.1256c2.24172,8.3263 -2.56197,18.57409 -8.9668,18.57409c-5.12386,0 -9.60729,-13.45016 -6.72507,-20.81573c2.56197,-7.36558 13.77041,-5.76434 15.69188,2.24172z" fill="#ffffff"/><path d="M487.43408,698.44902c7.04532,7.68582 8.64656,11.84902 7.04532,18.57409c-3.84295,16.33237 -24.33843,27.86113 -39.06957,22.41695c-12.48942,-4.48336 -16.33237,-36.18744 -5.76434,-47.71613c8.9668,-9.92753 25.93967,-6.72507 37.78859,6.72507z" fill="#0000ff"/><path d="M252.376,693.00491c6.72507,8.00607 7.68582,25.61941 2.24172,38.42908c-5.12386,12.16926 -5.44409,12.16926 -18.25385,10.56802c-16.65262,-2.24172 -28.50162,-12.80966 -28.50162,-25.93967c0,-11.52877 1.92146,-14.73114 12.80966,-22.09671c9.60729,-6.72507 26.58015,-7.04532 31.704,-0.96075z" fill="#0000ff"/><path d="M174.87735,91.90962c-3.52269,5.76434 -15.05139,72.69505 -15.05139,86.7857c0.32025,21.77647 9.28704,40.03032 23.69794,46.75539c17.61334,8.3263 27.22064,3.84295 37.14811,-16.65262c8.00607,-16.65262 8.00607,-16.65262 23.05746,-16.65262c19.85506,0 28.18138,-9.92753 28.18138,-32.66474c0,-28.18138 -13.77041,-41.95178 -57.00317,-57.00317c-35.86719,-12.80966 -38.42908,-13.45016 -40.03032,-10.56802z" fill="#000000"/><path d="M207.86232,104.07881c46.43515,15.69188 60.84612,29.46228 60.84612,57.00317c0,20.17531 -10.56802,29.46228 -30.10278,26.90039c-14.09065,-1.92146 -14.09065,-1.92146 -16.01213,8.64656c-5.12386,27.86113 -29.14204,36.82794 -46.75539,17.9336c-5.76434,-6.40483 -9.92753,-15.05139 -11.20852,-23.69794c-3.52269,-21.77647 8.9668,-94.79176 16.01213,-94.79176c1.92146,0 14.09065,3.52269 27.22064,8.00607z" fill="#ffffff"/><path d="M506.96883,102.15741c-39.71006,11.84902 -56.68292,22.41695 -63.408,38.74933c-6.40483,16.01213 -6.40483,26.58015 -0.32025,38.10882c5.44409,10.56802 10.56802,13.1299 27.22064,13.1299c11.84902,0 12.80966,0.64049 16.01213,11.84902c6.40483,23.05746 19.21458,31.704 38.10882,25.29917c17.61334,-5.76434 24.01818,-17.61334 25.61941,-46.11489c0.96075,-23.69794 -7.68582,-90.62865 -12.16926,-89.98816c-0.96075,0 -15.05139,4.16312 -31.06351,8.9668z" fill="#000000"/><path d="M540.91455,115.92781c6.08458,27.86113 8.00607,77.81897 3.20246,89.02741c-8.64656,20.49556 -31.704,29.14204 -44.834,16.01213c-3.52269,-3.52269 -7.68582,-12.48942 -9.60729,-19.85506c-3.52269,-13.77041 -3.52269,-13.77041 -16.97286,-12.80966c-20.49556,1.60123 -29.46228,-6.72507 -29.14204,-27.22064c0.32025,-27.54089 14.09065,-39.71006 62.12703,-54.12097c13.1299,-4.16312 25.61941,-7.36558 27.86113,-7.36558c1.92146,-0.32025 5.44409,7.36558 7.36558,16.33237z" fill="#ffffff"/><path d="M236.68413,332.09157c-25.93967,23.37769 -12.16926,68.21169 20.81573,68.21169c16.65262,0 28.50162,-8.64656 33.62548,-24.33843c12.48942,-37.14811 -26.90039,-68.53193 -54.44121,-43.87326z" fill="#000000"/><path d="M260.70231,333.05221c11.20852,12.16926 -5.44409,30.10278 -16.97286,18.57409c-5.76434,-5.76434 -4.80361,-17.61334 1.92146,-21.45623c7.68582,-4.48336 8.3263,-4.48336 15.05139,2.88221z" fill="#ffffff"/><path d="M238.92584,360.5931c2.56197,6.72507 -4.16312,13.45016 -8.9668,8.64656c-4.16312,-4.16312 -1.60123,-13.77041 3.52269,-13.77041c1.92146,0 4.16312,2.24172 5.44409,5.12386z" fill="#ffffff"/><path d="M432.67264,328.56886c-10.24779,7.04532 -16.65262,21.13597 -16.65262,36.50769c0,10.24779 2.24172,15.37163 10.56802,24.65867c8.9668,9.60729 12.80966,11.52877 24.33843,11.52877c36.50769,0 49.31736,-56.04243 16.33237,-73.01529c-11.84902,-6.08458 -25.61941,-6.08458 -34.58621,0.32025z" fill="#000000"/><path d="M457.65146,336.25468c4.80361,8.9668 -1.28098,19.21458 -11.20852,19.21458c-8.3263,0 -13.77041,-11.20852 -9.92753,-20.81573c2.56197,-7.04532 16.97286,-6.08458 21.13597,1.60123z" fill="#ffffff"/><path d="M433.31305,357.39066c2.24172,6.08458 -0.32025,10.88827 -6.08458,10.88827c-5.76434,0 -8.9668,-5.44409 -6.72507,-11.20852c2.24172,-6.40483 10.24779,-6.08458 12.80966,0.32025z" fill="#ffffff"/><path d="M194.73241,636.32199c-2.24172,6.08458 -1.92146,11.20852 0.64049,17.61334c6.08458,14.4109 22.09671,9.92753 22.09671,-6.40483c0,-19.21458 -16.33237,-27.54089 -22.7372,-11.20852z" fill="#000000"/><path d="M210.42429,634.72077c5.12386,5.12386 4.80361,16.97286 -0.96075,21.77647c-7.04532,5.76434 -11.20852,0.96075 -11.20852,-13.1299c0,-12.80966 4.48336,-16.33237 12.16926,-8.64656z" fill="#ffffff"/><path d="M182.24292,669.30689c-6.72507,12.80966 5.44409,28.50162 18.89434,24.01818c9.92753,-2.88221 10.24779,-10.24779 1.60123,-20.81573c-9.60729,-11.20852 -15.69188,-12.16926 -20.49556,-3.20246z" fill="#000000"/><path d="M201.4575,675.39156c5.12386,9.60729 3.84295,13.1299 -4.80361,13.1299c-8.00607,0 -14.73114,-8.3263 -12.16926,-15.37163c2.24172,-6.08458 13.1299,-4.48336 16.97286,2.24172z" fill="#ffffff"/><path d="M488.39482,631.51831c-7.04532,9.92753 -6.40483,19.53484 1.60123,26.90039c6.72507,6.08458 6.72507,5.76434 12.80966,-1.60123c6.72507,-8.3263 7.68582,-16.97286 2.88221,-26.25991c-4.48336,-8.00607 -11.20852,-7.68582 -17.2931,0.96075z" fill="#000000"/><path d="M505.68792,641.76609c0,14.73114 -14.4109,20.17531 -17.9336,6.72507c-2.56197,-10.56802 7.04532,-22.7372 13.77041,-17.2931c2.24172,1.92146 4.16312,6.72507 4.16312,10.56802z" fill="#ffffff"/><path d="M498.00211,669.94739c-10.24779,14.4109 -4.16312,24.65867 12.16926,20.49556c8.64656,-2.24172 13.1299,-11.20852 9.92753,-21.13597c-2.88221,-8.64656 -16.01213,-8.3263 -22.09671,0.64049z" fill="#000000"/><path d="M517.21661,670.58788c2.56197,6.72507 -4.48336,17.9336 -11.52877,17.9336c-8.9668,0 -10.88827,-5.76434 -5.12386,-14.4109c5.76434,-8.9668 14.09065,-10.56802 16.65262,-3.52269z" fill="#ffffff"/></g></g></g></g></g></g></g></g></g></g></g></g></g></g></g></g></g></g></g></g></g></g></g></g></g></svg>