<?xml version="1.0" standalone="no"?>
<!DOCTYPE svg PUBLIC "-//W3C//DTD SVG 20010904//EN"
 "http://www.w3.org/TR/2001/REC-SVG-20010904/DTD/svg10.dtd">
<svg version="1.0" xmlns="http://www.w3.org/2000/svg"
 width="194.000000pt" height="259.000000pt" viewBox="0 0 194.000000 259.000000"
 preserveAspectRatio="xMidYMid meet">
<metadata>
Created by potrace 1.14, written by Peter Selinger 2001-2017
</metadata>
<g transform="translate(0.000000,259.000000) scale(0.100000,-0.100000)"
fill="#000000" stroke="none">
<path fill="#000000" stroke="none" d="M267 2393 c-4 -3 -7 -25 -7 -49 0 -23
-16 -98 -36 -166 -50 -170 -50 -232 0 -321 l37 -66 -22 -63 c-47 -142 -88
-198 -144 -198 -41 0 -7 -47 150 -203 112 -112 185 -165 352 -251 6 -3 -35
-106 -52 -131 -17 -26 -20 -45 -19 -150 l1 -121 -37 9 c-102 28 -190 -66 -190
-203 0 -109 56 -205 144 -246 61 -28 101 -30 141 -6 29 18 30 18 50 -6 30 -35
100 -41 157 -13 52 25 104 27 144 6 16 -8 53 -15 82 -15 43 0 58 5 78 25 23
23 27 24 47 10 24 -17 93 -20 131 -5 70 26 155 144 156 215 0 42 6 48 84 85
142 67 258 224 310 418 21 77 25 124 31 309 l7 218 -32 -63 c-43 -84 -125
-171 -198 -210 -45 -24 -89 -36 -187 -52 -142 -23 -204 -45 -252 -92 -28 -27
-33 -29 -39 -14 -8 20 -15 14 76 66 176 101 314 227 366 335 43 87 43 95 0 95
-51 0 -92 40 -112 107 -20 69 -14 131 21 212 57 134 69 329 28 450 -25 75 -38
81 -119 53 -284 -99 -342 -135 -365 -225 -6 -26 -13 -47 -14 -47 -2 0 -27 11
-57 25 -63 30 -114 31 -188 5 -67 -24 -70 -24 -70 -5 0 49 -80 144 -152 181
-39 21 -267 104 -283 104 -7 0 -15 -3 -18 -7z"/>
<path fill="#ffffff" stroke="none" d="M418 2341 c191 -70 274 -134 288 -223
4 -21 8 -38 10 -38 2 0 27 10 56 21 71 29 150 29 206 0 24 -12 50 -20 57 -17
8 3 19 24 25 48 13 47 49 91 95 115 64 34 319 123 336 118 21 -7 34 -43 50
-139 20 -116 -3 -270 -58 -386 -30 -65 -32 -127 -7 -203 21 -67 48 -95 101
-108 l42 -11 -31 -62 c-43 -86 -44 -87 -79 -69 -16 8 -41 12 -54 9 -23 -6 -23
-5 -27 87 -2 72 -8 103 -27 141 -68 139 -252 144 -371 9 -59 -67 -89 -131
-120 -258 -15 -60 -30 -103 -33 -95 -3 8 -17 55 -32 104 -37 123 -78 206 -130
264 -94 105 -225 123 -308 44 -52 -49 -70 -98 -75 -199 -3 -68 -8 -93 -17 -93
-8 0 -28 -12 -46 -27 l-32 -27 -69 74 c-37 41 -68 80 -68 85 0 6 16 17 35 24
29 10 40 24 69 84 19 40 42 97 51 128 l18 56 -37 65 c-48 86 -49 153 -5 294
17 55 33 124 36 154 5 54 10 80 15 80 2 0 63 -22 136 -49z"/>
<path fill="#ffffff" stroke="none" d="M593 1718 c54 -16 137 -95 174 -165 31
-57 88 -215 94 -262 3 -20 -3 -26 -41 -40 -65 -24 -73 -54 -29 -114 38 -51 76
-72 113 -63 29 7 96 95 96 125 0 23 -52 61 -82 61 -23 0 -23 13 3 118 62 257
234 398 389 320 79 -40 110 -109 110 -244 l0 -80 47 0 c72 1 68 -21 -19 -94
-187 -157 -434 -280 -565 -280 -88 0 -311 91 -448 183 -91 61 -175 137 -175
158 0 20 28 39 59 39 19 0 21 6 21 78 0 102 21 173 65 217 52 51 113 65 188
43z"/>
<path fill="#ffffff" stroke="none" d="M1844 1233 c-8 -234 -10 -241 -85 -298
-42 -32 -59 -40 -56 -28 3 10 9 37 12 61 6 39 5 42 -17 42 -13 0 -41 -9 -63
-20 -21 -11 -40 -18 -43 -16 -2 3 15 23 37 45 47 47 37 51 -46 23 l-51 -18 9
24 c5 13 9 41 9 62 0 37 2 39 65 69 76 35 158 109 200 180 17 28 31 51 33 51
1 0 -1 -80 -4 -177z"/>
<path fill="#ffffff" stroke="none" d="M937 1214 c43 -12 11 -24 -62 -24 -69
0 -107 13 -68 23 27 7 105 7 130 1z"/>
<path fill="#ffffff" stroke="none" d="M1540 1112 c0 -21 -9 -55 -20 -77 -11
-22 -20 -41 -20 -42 0 -2 17 5 38 16 20 10 47 22 60 26 23 7 23 6 -7 -47 -40
-70 -39 -77 4 -40 29 26 103 58 112 49 1 -2 -4 -39 -12 -82 -9 -43 -13 -80
-10 -83 3 -3 5 0 5 6 0 18 60 81 91 98 35 18 36 12 4 -73 -52 -138 -160 -265
-270 -318 -74 -35 -74 -35 -94 23 -32 91 -81 127 -167 120 l-53 -5 6 96 c4 83
2 103 -16 149 -28 70 -27 83 12 119 48 46 92 64 202 83 142 25 135 26 135 -18z"/>
<path fill="#ffffff" stroke="none" d="M671 994 c-14 -39 -16 -41 -35 -28 -11
8 -29 14 -39 14 -19 0 -18 7 4 67 8 21 9 22 47 5 l38 -16 -15 -42z"/>
<path fill="#ffffff" stroke="none" d="M1149 1023 c14 -51 14 -56 -5 -49 -8 3
-24 1 -35 -4 -10 -6 -19 -9 -19 -8 0 2 -4 18 -9 36 -9 29 -7 33 17 47 38 20
40 19 51 -22z"/>
<path fill="#ffffff" stroke="none" d="M885 989 c34 0 85 9 118 20 49 17 59
18 62 6 3 -8 7 -22 10 -31 3 -9 -6 -44 -19 -78 -25 -63 -40 -152 -55 -336 -8
-92 -11 -106 -31 -120 -13 -8 -41 -32 -63 -52 -41 -40 -41 -40 -25 -133 2 -15
-3 -21 -21 -23 -20 -3 -23 -1 -17 15 29 73 10 128 -58 168 -51 30 -50 26 -66
237 -6 81 -19 163 -30 200 -24 75 -24 89 -6 133 l14 33 64 -20 c35 -11 90 -20
123 -19z"/>
<path fill="#ffffff" stroke="none" d="M639 943 c30 -30 55 -112 66 -218 l7
-60 -55 3 c-36 3 -65 -2 -85 -12 l-30 -15 -7 114 c-8 126 2 174 38 200 29 20
34 19 66 -12z"/>
<path fill="#ffffff" stroke="none" d="M1169 939 c27 -29 34 -78 26 -196 -4
-57 -9 -103 -10 -103 -1 0 -20 7 -41 16 -26 11 -53 14 -81 10 -50 -7 -50 -7
-29 114 13 75 36 141 57 167 17 20 56 16 78 -8z"/>
<path fill="#ffffff" stroke="none" d="M517 659 c19 -17 16 -39 -6 -39 -21 0
-31 -19 -31 -60 0 -37 25 -58 51 -42 15 10 20 10 23 0 2 -7 9 -28 15 -47 6
-19 11 -35 11 -37 0 -1 -14 4 -30 13 -59 29 -140 -22 -140 -88 0 -53 33 -89
88 -96 55 -7 79 13 89 76 7 44 7 45 14 16 15 -65 10 -94 -17 -112 -56 -36
-155 -6 -213 64 -97 118 -74 305 44 359 32 15 79 11 102 -7z"/>
<path fill="#ffffff" stroke="none" d="M1356 649 c43 -40 64 -92 64 -157 0
-137 -82 -245 -196 -258 -85 -10 -121 37 -95 126 7 22 8 20 15 -19 14 -76 54
-97 123 -64 45 21 69 69 56 109 -19 58 -122 97 -153 59 -20 -24 -21 -13 -5 43
14 46 18 51 34 40 25 -15 47 -5 55 27 8 33 -18 79 -40 71 -21 -8 -18 31 4 44
29 18 109 6 138 -21z"/>
<path fill="#ffffff" stroke="none" d="M697 652 c7 -4 16 -52 22 -107 7 -75
14 -103 27 -110 98 -59 121 -102 90 -164 -23 -44 -58 -63 -117 -63 -65 0 -99
28 -99 82 0 20 -16 92 -35 161 -44 159 -45 176 -2 194 35 15 95 19 114 7z"/>
<path fill="#ffffff" stroke="none" d="M1163 635 c24 -10 22 -34 -18 -176 -19
-68 -35 -140 -35 -159 0 -48 -23 -78 -65 -86 -77 -14 -146 24 -160 87 -10 46
12 85 65 118 45 28 49 34 55 78 17 141 19 147 45 153 25 6 80 -1 113 -15z"/>
<path fill="#ffffff" stroke="none" d="M528 598 c16 -16 15 -53 -1 -67 -18
-15 -37 5 -37 39 0 39 15 51 38 28z"/>
<path fill="#ffffff" stroke="none" d="M1243 588 c7 -26 -8 -58 -28 -58 -16 0
-30 42 -21 65 8 23 43 18 49 -7z"/>
<path fill="#ffffff" stroke="none" d="M1293 409 c22 -24 27 -37 22 -58 -12
-51 -76 -87 -122 -70 -39 14 -51 113 -18 149 28 31 81 21 118 -21z"/>
<path fill="#ffffff" stroke="none" d="M559 426 c21 -25 24 -80 7 -120 -16
-38 -17 -38 -57 -33 -52 7 -89 40 -89 81 0 36 6 46 40 69 30 21 83 22 99 3z"/>
<path fill="#000000" stroke="none" d="M317 2303 c-11 -18 -47 -227 -47 -271
1 -68 29 -125 74 -146 55 -26 85 -12 116 52 25 52 25 52 72 52 62 0 88 31 88
102 0 88 -43 131 -178 178 -112 40 -120 42 -125 33z"/>
<path fill="#ffffff" stroke="none" d="M420 2265 c145 -49 190 -92 190 -178 0
-63 -33 -92 -94 -84 -44 6 -44 6 -50 -27 -16 -87 -91 -115 -146 -56 -18 20
-31 47 -35 74 -11 68 28 296 50 296 6 0 44 -11 85 -25z"/>
<path fill="#000000" stroke="none" d="M1354 2271 c-124 -37 -177 -70 -198
-121 -20 -50 -20 -83 -1 -119 17 -33 33 -41 85 -41 37 0 40 -2 50 -37 20 -72
60 -99 119 -79 55 18 75 55 80 144 3 74 -24 283 -38 281 -3 0 -47 -13 -97 -28z"/>
<path fill="#ffffff" stroke="none" d="M1460 2228 c19 -87 25 -243 10 -278
-27 -64 -99 -91 -140 -50 -11 11 -24 39 -30 62 -11 43 -11 43 -53 40 -64 -5
-92 21 -91 85 1 86 44 124 194 169 41 13 80 23 87 23 6 1 17 -23 23 -51z"/>
<path fill="#000000" stroke="none" d="M510 1553 c-81 -73 -38 -213 65 -213
52 0 89 27 105 76 39 116 -84 214 -170 137z"/>
<path fill="#ffffff" stroke="none" d="M585 1550 c35 -38 -17 -94 -53 -58 -18
18 -15 55 6 67 24 14 26 14 47 -9z"/>
<path fill="#ffffff" stroke="none" d="M517 1464 c8 -21 -13 -42 -28 -27 -13
13 -5 43 11 43 6 0 13 -7 17 -16z"/>
<path fill="#000000" stroke="none" d="M1122 1564 c-32 -22 -52 -66 -52 -114
0 -32 7 -48 33 -77 28 -30 40 -36 76 -36 114 0 154 175 51 228 -37 19 -80 19
-108 -1z"/>
<path fill="#ffffff" stroke="none" d="M1200 1540 c15 -28 -4 -60 -35 -60 -26
0 -43 35 -31 65 8 22 53 19 66 -5z"/>
<path fill="#ffffff" stroke="none" d="M1124 1474 c7 -19 -1 -34 -19 -34 -18
0 -28 17 -21 35 7 20 32 19 40 -1z"/>
<path fill="#000000" stroke="none" d="M379 603 c-7 -19 -6 -35 2 -55 19 -45
69 -31 69 20 0 60 -51 86 -71 35z"/>
<path fill="#ffffff" stroke="none" d="M428 608 c16 -16 15 -53 -3 -68 -22
-18 -35 -3 -35 41 0 40 14 51 38 27z"/>
<path fill="#000000" stroke="none" d="M340 500 c-21 -40 17 -89 59 -75 31 9
32 32 5 65 -30 35 -49 38 -64 10z"/>
<path fill="#ffffff" stroke="none" d="M400 481 c16 -30 12 -41 -15 -41 -25 0
-46 26 -38 48 7 19 41 14 53 -7z"/>
<path fill="#000000" stroke="none" d="M1296 618 c-22 -31 -20 -61 5 -84 21
-19 21 -18 40 5 21 26 24 53 9 82 -14 25 -35 24 -54 -3z"/>
<path fill="#ffffff" stroke="none" d="M1350 586 c0 -46 -45 -63 -56 -21 -8
33 22 71 43 54 7 -6 13 -21 13 -33z"/>
<path fill="#000000" stroke="none" d="M1326 498 c-32 -45 -13 -77 38 -64 27
7 41 35 31 66 -9 27 -50 26 -69 -2z"/>
<path fill="#ffffff" stroke="none" d="M1386 496 c8 -21 -14 -56 -36 -56 -28
0 -34 18 -16 45 18 28 44 33 52 11z"/>
</g>
</svg>
