<svg version="1.1" xmlns="http://www.w3.org/2000/svg" xmlns:xlink="http://www.w3.org/1999/xlink" width="833" height="899.90625"><defs><clipPath id="clip-1"><rect x="22.87193" y="0" transform="scale(3.47454,3.47454)" width="194" height="259" id="clip-1" fill="none"/></clipPath></defs><g fill="none" fill-rule="nonzero" stroke="none" stroke-width="1" stroke-linecap="butt" stroke-linejoin="miter" stroke-miterlimit="10" stroke-dasharray="" stroke-dashoffset="0" font-family="none" font-weight="none" font-size="none" text-anchor="none" style="mix-blend-mode: normal"><g><g><g><g><g><g><g><g><g><g><g><g><g><g><g><g><g><g><g><g><g clip-path="url(#clip-1)"><g><path d="M172.23776,68.44765c-1.38981,1.04237 -2.43217,8.68626 -2.43217,17.02505c0,7.99135 -5.55918,34.05009 -12.50824,57.67676c-17.37251,59.06649 -17.37251,80.60843 0,111.53144l12.8557,22.93167l-7.64389,21.88939c-16.33014,49.33787 -30.57565,68.79509 -50.03278,68.79509c-14.24541,0 -2.43217,16.33014 52.1175,70.53237c38.91444,38.91444 64.27828,57.3293 122.30241,87.20995c2.08471,1.04237 -12.16079,36.82972 -18.06741,45.51597c-5.90662,9.0337 -6.94898,15.63524 -6.60152,52.1175l0.34746,42.04144l-12.8557,-3.12708c-35.43991,-9.72861 -66.01556,22.93167 -66.01556,70.53237c0,37.87208 19.45722,71.22728 50.03278,85.47269c21.1945,9.72861 35.09246,10.42352 48.9905,2.08471c10.07606,-6.25407 10.42352,-6.25407 17.37251,2.08471c10.42352,12.16079 34.745,14.24541 54.54968,4.51681c18.06741,-8.68626 36.13482,-9.38116 50.03278,-2.08471c5.55918,2.77963 18.41486,5.21172 28.49093,5.21172c14.94033,0 20.15213,-1.73727 27.10111,-8.68626c7.99135,-7.99135 9.38116,-8.3388 16.33014,-3.47454c8.3388,5.90662 32.31283,6.94898 45.51597,1.73727c24.32148,-9.0337 53.85477,-50.03278 54.20222,-74.70181c0,-14.59287 2.08471,-16.67759 29.18583,-29.53328c49.33787,-23.27913 89.64213,-77.8288 107.70954,-145.23417c7.29643,-26.75365 8.68626,-43.0838 10.77097,-107.36209l2.43217,-75.74408l-11.11843,21.88939c-14.94033,29.18583 -43.43126,59.41394 -68.79509,72.96454c-15.63524,8.3388 -30.9231,12.50824 -64.97319,18.06741c-49.33787,7.99135 -70.87983,15.63524 -87.55741,31.96537c-9.72861,9.38116 -11.46587,10.07606 -13.55051,4.86426c-2.77963,-6.94898 -5.21172,-4.86426 26.4062,-22.93167c61.15121,-35.09246 109.09935,-78.87116 127.16676,-116.39579c14.94033,-30.22819 14.94033,-33.00773 0,-33.00773c-17.71995,0 -31.96537,-13.89796 -38.91444,-37.17717c-6.94898,-23.97403 -4.86426,-45.51597 7.29643,-73.65945c19.80468,-46.55833 23.97403,-114.31106 9.72861,-156.3525c-8.68626,-26.05875 -13.20315,-28.14348 -41.34652,-18.41486c-98.67584,34.39755 -118.82796,46.90579 -126.81931,78.17626c-2.08471,9.0337 -4.51681,16.33014 -4.86426,16.33014c-0.69491,0 -9.38116,-3.82198 -19.80468,-8.68626c-21.88939,-10.42352 -39.60935,-10.77097 -65.32065,-1.73727c-23.27913,8.3388 -24.32148,8.3388 -24.32148,1.73727c0,-17.02505 -27.79602,-50.03278 -52.81241,-62.88848c-13.55051,-7.29643 -92.76922,-36.13482 -98.32839,-36.13482c-2.43217,0 -5.21172,1.04237 -6.25407,2.43217z" fill="#000000"/><path d="M224.70272,86.51505c66.36301,24.32148 95.2013,46.55833 100.06565,77.48135c1.38981,7.29643 2.77963,13.20315 3.47454,13.20315c0.69491,0 9.38116,-3.47454 19.45722,-7.29643c24.66894,-10.07606 52.1175,-10.07606 71.57472,0c8.3388,4.16944 17.37251,6.94898 19.80468,5.90662c2.77963,-1.04237 6.60152,-8.3388 8.68626,-16.67759c4.51681,-16.33014 17.02505,-31.61792 33.00773,-39.95681c22.23685,-11.81333 110.83662,-42.73635 116.74324,-40.99908c7.29643,2.43217 11.81333,14.94033 17.37251,48.29561c6.94898,40.30418 -1.04237,93.81149 -20.15213,134.11574c-10.42352,22.58422 -11.11843,44.12616 -2.43217,70.53237c7.29643,23.27913 16.67759,33.00773 35.09246,37.52463l14.59287,3.82198l-10.77097,21.54193c-14.94033,29.88074 -15.28778,30.22819 -27.44857,23.97403c-5.55918,-2.77963 -14.24541,-4.16944 -18.76231,-3.12708c-7.99135,2.08471 -7.99135,1.73727 -9.38116,-30.22819c-0.69491,-25.0164 -2.77963,-35.78737 -9.38116,-48.9905c-23.62658,-48.29561 -87.55741,-50.03278 -128.90403,-3.12708c-20.49959,23.27913 -30.9231,45.51597 -41.69398,89.64213c-5.21172,20.84704 -10.42352,35.78737 -11.46587,33.00773c-1.04237,-2.77963 -5.90662,-19.10976 -11.11843,-36.13482c-12.8557,-42.73635 -27.10111,-71.57472 -45.16852,-91.72685c-32.66029,-36.48227 -78.17626,-42.73635 -107.01463,-15.28778c-18.06741,17.02505 -24.32148,34.05009 -26.05875,69.14255c-1.04237,23.62658 -2.77963,32.31283 -5.90662,32.31283c-2.77963,0 -9.72861,4.16944 -15.98269,9.38116l-11.11843,9.38116l-23.97403,-25.7113c-12.8557,-14.24541 -23.62658,-27.79602 -23.62658,-29.53328c0,-2.08471 5.55918,-5.90662 12.16079,-8.3388c10.07606,-3.47454 13.89796,-8.3388 23.97403,-29.18583c6.60152,-13.89796 14.59287,-33.70264 17.71995,-44.47361l6.25407,-19.45722l-12.8557,-22.58422c-16.67759,-29.88074 -17.02505,-53.15986 -1.73727,-102.15038c5.90662,-19.10976 11.46587,-43.0838 12.50824,-53.50732c1.73727,-18.76231 3.47454,-27.79602 5.21172,-27.79602c0.69491,0 21.88939,7.64389 47.25324,17.02505z" fill="#ffa500"/><path d="M285.50647,302.9765c18.76231,5.55918 47.6007,33.00773 60.4563,57.3293c10.77097,19.80468 30.57565,74.70181 32.66029,91.03195c1.04237,6.94898 -1.04237,9.0337 -14.24541,13.89796c-22.58422,8.3388 -25.36384,18.76231 -10.07606,39.60935c13.20315,17.71995 26.4062,25.0164 39.2619,21.88939c10.07606,-2.43217 33.35519,-33.00773 33.35519,-43.43126c0,-7.99135 -18.06741,-21.1945 -28.49093,-21.1945c-7.99135,0 -7.99135,-4.51681 1.04237,-40.99908c21.54193,-89.29468 81.30333,-138.2851 135.15811,-111.18408c27.44857,13.89796 38.21954,37.87208 38.21954,84.77778v27.79602h16.33014c25.0164,-0.34746 23.62658,7.29643 -6.60152,32.66029c-64.97319,54.54968 -150.79334,97.28602 -196.30931,97.28602c-30.57565,0 -108.057,-31.61792 -155.6577,-63.58339c-31.61792,-21.1945 -60.80375,-47.6007 -60.80375,-54.89713c0,-6.94898 9.72861,-13.55051 20.49959,-13.55051c6.60152,0 7.29643,-2.08471 7.29643,-27.10111c0,-35.43991 7.29643,-60.10884 22.58422,-75.39672c18.06741,-17.71995 39.2619,-22.58422 65.32065,-14.94033z" fill="#ffa500"/><path d="M720.16655,471.48979c-2.77963,81.30333 -3.47454,83.73551 -29.53328,103.5401c-14.59287,11.11843 -20.49959,13.89796 -19.45722,9.72861c1.04237,-3.47454 3.12708,-12.8557 4.16944,-21.1945c2.08471,-13.55051 1.73727,-14.59287 -5.90662,-14.59287c-4.51681,0 -14.24541,3.12708 -21.88939,6.94898c-7.29643,3.82198 -13.89796,6.25407 -14.94033,5.55918c-0.69491,-1.04237 5.21172,-7.99135 12.8557,-15.63524c16.33014,-16.33014 12.8557,-17.71995 -15.98269,-7.99135l-17.71995,6.25407l3.12708,-8.3388c1.73727,-4.51681 3.12708,-14.24541 3.12708,-21.54193c0,-12.8557 0.69491,-13.55051 22.58422,-23.97403c26.4062,-12.16079 54.89713,-37.87208 69.49,-62.54102c5.90662,-9.72861 10.77097,-17.71995 11.46587,-17.71995c0.34746,0 -0.34746,27.79602 -1.38981,61.49866z" fill="#ee82ee"/><path d="M405.02935,478.09132c14.94033,4.16944 3.82198,8.3388 -21.54193,8.3388c-23.97403,0 -37.17717,-4.51681 -23.62658,-7.99135c9.38116,-2.43217 36.48227,-2.43217 45.16852,-0.34746z" fill="#ffffff"/><path d="M614.54172,513.53123c0,7.29643 -3.12708,19.10976 -6.94898,26.75365c-3.82198,7.64389 -6.94898,14.24541 -6.94898,14.59287c0,0.69491 5.90662,-1.73727 13.20315,-5.55918c6.94898,-3.47454 16.33014,-7.64389 20.84704,-9.0337c7.99135,-2.43217 7.99135,-2.08471 -2.43217,16.33014c-13.89796,24.32148 -13.55051,26.75365 1.38981,13.89796c10.07606,-9.0337 35.78737,-20.15213 38.91444,-17.02505c0.34746,0.69491 -1.38981,13.55051 -4.16944,28.49093c-3.12708,14.94033 -4.51681,27.79602 -3.47454,28.83838c1.04237,1.04237 1.73727,0 1.73727,-2.08471c0,-6.25407 20.84704,-28.14348 31.61792,-34.05009c12.16079,-6.25407 12.50824,-4.16944 1.38981,25.36384c-18.06741,47.94815 -55.59204,92.0743 -93.81149,110.48917c-25.7113,12.16079 -25.7113,12.16079 -32.66029,-7.99135c-11.11843,-31.61792 -28.14348,-44.12616 -58.02413,-41.69398l-18.41486,1.73727l2.08471,-33.35519c1.38981,-28.83838 0.69491,-35.78737 -5.55918,-51.77005c-9.72861,-24.32148 -9.38116,-28.83838 4.16944,-41.34652c16.67759,-15.98269 31.96537,-22.23685 70.18491,-28.83838c49.33787,-8.68626 46.90579,-9.0337 46.90579,6.25407z" fill="#b14ea9"/><path d="M312.60759,554.53039c-4.86426,13.55051 -5.55918,14.24541 -12.16079,9.72861c-3.82198,-2.77963 -10.07606,-4.86426 -13.55051,-4.86426c-6.60152,0 -6.25407,-2.43217 1.38981,-23.27913c2.77963,-7.29643 3.12708,-7.64389 16.33014,-1.73727l13.20315,5.55918z" fill="#ff0000"/><path d="M478.6887,544.45433c4.86426,17.71995 4.86426,19.45722 -1.73727,17.02505c-2.77963,-1.04237 -8.3388,-0.34746 -12.16079,1.38981c-3.47454,2.08471 -6.60152,3.12708 -6.60152,2.77963c0,-0.69491 -1.38981,-6.25407 -3.12708,-12.50824c-3.12708,-10.07606 -2.43217,-11.46587 5.90662,-16.33014c13.20315,-6.94898 13.89796,-6.60152 17.71995,7.64389z" fill="#ff0000"/><path d="M386.96194,556.26766c11.81333,0 29.53328,-3.12708 40.99908,-6.94898c17.02505,-5.90662 20.49959,-6.25407 21.54193,-2.08471c1.04237,2.77963 2.43217,7.64389 3.47454,10.77097c1.04237,3.12708 -2.08471,15.28778 -6.60152,27.10111c-8.68626,21.88939 -13.89796,52.81241 -19.10976,116.74324c-2.77963,31.96537 -3.82198,36.82972 -10.77097,41.69398c-4.51681,2.77963 -14.24541,11.11843 -21.88939,18.06741c-14.24541,13.89796 -14.24541,13.89796 -8.68626,46.21089c0.69491,5.21172 -1.04237,7.29643 -7.29643,7.99135c-6.94898,1.04237 -7.99135,0.34746 -5.90662,-5.21172c10.07606,-25.36384 3.47454,-44.47361 -20.15213,-58.37158c-17.71995,-10.42352 -17.37251,-9.0337 -22.93167,-82.3457c-2.08471,-28.14348 -6.60152,-56.63439 -10.42352,-69.49c-8.3388,-26.05875 -8.3388,-30.9231 -2.08471,-46.21089l4.86426,-11.46587l22.23685,6.94898c12.16079,3.82198 31.27046,6.94898 42.73635,6.60152z" fill="#ffa500"/><path d="M301.48916,572.25035c10.42352,10.42352 19.10976,38.91444 22.93167,75.74408l2.43217,20.84704l-19.10976,-1.04237c-12.50824,-1.04237 -22.58422,0.69491 -29.53328,4.16944l-10.42352,5.21172l-2.43217,-39.60935c-2.77963,-43.7787 0.69491,-60.4563 13.20315,-69.49c10.07606,-6.94898 11.81333,-6.60152 22.93167,4.16944z" fill="#008000"/><path d="M485.63777,573.64017c9.38116,10.07606 11.81333,27.10111 9.0337,68.10019c-1.38981,19.80468 -3.12708,35.78737 -3.47454,35.78737c-0.34746,0 -6.94898,-2.43217 -14.24541,-5.55918c-9.0337,-3.82198 -18.41486,-4.86426 -28.14348,-3.47454c-17.37251,2.43217 -17.37251,2.43217 -10.07606,-39.60935c4.51681,-26.05875 12.50824,-48.9905 19.80468,-58.02413c5.90662,-6.94898 19.45722,-5.55918 27.10111,2.77963z" fill="#008000"/><path d="M259.10027,670.92619c6.60152,5.90662 5.55918,13.55051 -2.08471,13.55051c-7.29643,0 -10.77097,6.60152 -10.77097,20.84704c0,12.8557 8.68626,20.15213 17.71995,14.59287c5.21172,-3.47454 6.94898,-3.47454 7.99135,0c0.69491,2.43217 3.12708,9.72861 5.21172,16.33014c2.08471,6.60152 3.82198,12.16079 3.82198,12.8557c0,0.34746 -4.86426,-1.38981 -10.42352,-4.51681c-20.49959,-10.07606 -48.64306,7.64389 -48.64306,30.57565c0,18.41486 11.46587,30.9231 30.57565,33.35519c19.10976,2.43217 27.44857,-4.51681 30.9231,-26.4062c2.43217,-15.28778 2.43217,-15.63524 4.86426,-5.55918c5.21172,22.58422 3.47454,32.66029 -5.90662,38.91444c-19.45722,12.50824 -53.85477,2.08471 -74.0069,-22.23685c-33.70264,-40.99908 -25.7113,-105.97228 15.28778,-124.73459c11.11843,-5.21172 27.44857,-3.82198 35.43991,2.43217z" fill="#ffffff"/><path d="M550.61088,674.40063c14.94033,13.89796 22.23685,31.96537 22.23685,54.54968c0,47.6007 -28.49093,85.12524 -68.10019,89.64213c-29.53328,3.47454 -42.04144,-12.8557 -33.00773,-43.7787c2.43217,-7.64389 2.77963,-6.94898 5.21172,6.60152c4.86426,26.4062 18.76231,33.70264 42.73635,22.23685c15.63524,-7.29643 23.97403,-23.97403 19.45722,-37.87208c-6.60152,-20.15213 -42.38889,-33.70264 -53.15986,-20.49959c-6.94898,8.3388 -7.29643,4.51681 -1.73727,-14.94033c4.86426,-15.98269 6.25407,-17.71995 11.81333,-13.89796c8.68626,5.21172 16.33014,1.73727 19.10976,-9.38116c2.77963,-11.46587 -6.25407,-27.44857 -13.89796,-24.66894c-7.29643,2.77963 -6.25407,-10.77097 1.38981,-15.28778c10.07606,-6.25407 37.87208,-2.08471 47.94815,7.29643z" fill="#ffffff"/><path d="M321.64129,673.35828c2.43217,1.38981 5.55918,18.06741 7.64389,37.17717c2.43217,26.05875 4.86426,35.78737 9.38116,38.21954c34.05009,20.49959 42.04144,35.43991 31.27046,56.98185c-7.99135,15.28778 -20.15213,21.88939 -40.65162,21.88939c-22.58422,0 -34.39755,-9.72861 -34.39755,-28.49093c0,-6.94898 -5.55918,-31.96537 -12.16079,-55.9395c-15.28778,-55.24459 -15.63524,-61.15121 -0.69491,-67.40529c12.16079,-5.21172 33.00773,-6.60152 39.60935,-2.43217z" fill="#b14ea9"/><path d="M483.55305,679.26498c8.3388,3.47454 7.64389,11.81333 -6.25407,61.15121c-6.60152,23.62658 -12.16079,48.64306 -12.16079,55.24459c0,16.67759 -7.99135,27.10111 -22.58422,29.88074c-26.75365,4.86426 -50.72769,-8.3388 -55.59204,-30.22819c-3.47454,-15.98269 4.16944,-29.53328 22.58422,-40.99908c15.63524,-9.72861 17.02505,-11.81333 19.10976,-27.10111c5.90662,-48.9905 6.60152,-51.07515 15.63524,-53.15986c8.68626,-2.08471 27.79602,0.34746 39.2619,5.21172z" fill="#b14ea9"/><path d="M262.92225,692.12059c5.55918,5.55918 5.21172,18.41486 -0.34746,23.27913c-6.25407,5.21172 -12.8557,-1.73727 -12.8557,-13.55051c0,-13.55051 5.21172,-17.71995 13.20315,-9.72861z" fill="#ffffff"/><path d="M511.34908,695.59513c2.43217,9.0337 -2.77963,20.15213 -9.72861,20.15213c-5.55918,0 -10.42352,-14.59287 -7.29643,-22.58422c2.77963,-7.99135 14.94033,-6.25407 17.02505,2.43217z" fill="#ffffff"/><path d="M528.72157,757.7887c7.64389,8.3388 9.38116,12.8557 7.64389,20.15213c-4.16944,17.71995 -26.4062,30.22819 -42.38889,24.32148c-13.55051,-4.86426 -17.71995,-39.2619 -6.25407,-51.77005c9.72861,-10.77097 28.14348,-7.29643 40.99908,7.29643z" fill="#ffffff"/><path d="M273.69314,751.88206c7.29643,8.68626 8.3388,27.79602 2.43217,41.69398c-5.55918,13.20315 -5.90662,13.20315 -19.80468,11.46587c-18.06741,-2.43217 -30.9231,-13.89796 -30.9231,-28.14348c0,-12.50824 2.08471,-15.98269 13.89796,-23.97403c10.42352,-7.29643 28.83838,-7.64389 34.39755,-1.04237z" fill="#ffffff"/><path d="M189.61027,99.71819c-3.82198,6.25407 -16.33014,78.87116 -16.33014,94.15894c0.34746,23.62658 10.07606,43.43126 25.7113,50.72769c19.10976,9.0337 29.53328,4.16944 40.30418,-18.06741c8.68626,-18.06741 8.68626,-18.06741 25.0164,-18.06741c21.54193,0 30.57565,-10.77097 30.57565,-35.43991c0,-30.57565 -14.94033,-45.51597 -61.84611,-61.84611c-38.91444,-13.89796 -41.69398,-14.59287 -43.43126,-11.46587z" fill="#000000"/><path d="M225.39762,112.92126c50.38024,17.02505 66.01556,31.96537 66.01556,61.84611c0,21.88939 -11.46587,31.96537 -32.66029,29.18583c-15.28778,-2.08471 -15.28778,-2.08471 -17.37251,9.38116c-5.55918,30.22819 -31.61792,39.95681 -50.72769,19.45722c-6.25407,-6.94898 -10.77097,-16.33014 -12.16079,-25.7113c-3.82198,-23.62658 9.72861,-102.84519 17.37251,-102.84519c2.08471,0 15.28778,3.82198 29.53328,8.68626z" fill="#ffffff"/><path d="M549.91598,110.83662c-43.0838,12.8557 -61.49866,24.32148 -68.79509,42.04144c-6.94898,17.37251 -6.94898,28.83838 -0.34746,41.34652c5.90662,11.46587 11.46587,14.24541 29.53328,14.24541c12.8557,0 13.89796,0.69491 17.37251,12.8557c6.94898,25.0164 20.84704,34.39755 41.34652,27.44857c19.10976,-6.25407 26.05875,-19.10976 27.79602,-50.03278c1.04237,-25.7113 -8.3388,-98.32839 -13.20315,-97.63348c-1.04237,0 -16.33014,4.51681 -33.70264,9.72861z" fill="#000000"/><path d="M586.7457,125.77695c6.60152,30.22819 8.68626,84.43041 3.47454,96.59111c-9.38116,22.23685 -34.39755,31.61792 -48.64306,17.37251c-3.82198,-3.82198 -8.3388,-13.55051 -10.42352,-21.54193c-3.82198,-14.94033 -3.82198,-14.94033 -18.41486,-13.89796c-22.23685,1.73727 -31.96537,-7.29643 -31.61792,-29.53328c0.34746,-29.88074 15.28778,-43.0838 67.40529,-58.71904c14.24541,-4.51681 27.79602,-7.99135 30.22819,-7.99135c2.08471,-0.34746 5.90662,7.99135 7.99135,17.71995z" fill="#ffffff"/><path d="M256.6681,360.30581c-28.14348,25.36384 -13.20315,74.0069 22.58422,74.0069c18.06741,0 30.9231,-9.38116 36.48227,-26.4062c13.55051,-40.30418 -29.18583,-74.35435 -59.06649,-47.6007z" fill="#000000"/><path d="M282.72685,361.34807c12.16079,13.20315 -5.90662,32.66029 -18.41486,20.15213c-6.25407,-6.25407 -5.21172,-19.10976 2.08471,-23.27913c8.3388,-4.86426 9.0337,-4.86426 16.33014,3.12708z" fill="#ffffff"/><path d="M259.10027,391.22881c2.77963,7.29643 -4.51681,14.59287 -9.72861,9.38116c-4.51681,-4.51681 -1.73727,-14.94033 3.82198,-14.94033c2.08471,0 4.51681,2.43217 5.90662,5.55918z" fill="#ffffff"/><path d="M469.30764,356.48381c-11.11843,7.64389 -18.06741,22.93167 -18.06741,39.60935c0,11.11843 2.43217,16.67759 11.46587,26.75365c9.72861,10.42352 13.89796,12.50824 26.4062,12.50824c39.60935,0 53.50732,-60.80375 17.71995,-79.21861c-12.8557,-6.60152 -27.79602,-6.60152 -37.52463,0.34746z" fill="#000000"/><path d="M496.40865,364.82261c5.21172,9.72861 -1.38981,20.84704 -12.16079,20.84704c-9.0337,0 -14.94033,-12.16079 -10.77097,-22.58422c2.77963,-7.64389 18.41486,-6.60152 22.93167,1.73727z" fill="#ffffff"/><path d="M470.00246,387.75429c2.43217,6.60152 -0.34746,11.81333 -6.60152,11.81333c-6.25407,0 -9.72861,-5.90662 -7.29643,-12.16079c2.43217,-6.94898 11.11843,-6.60152 13.89796,0.34746z" fill="#ffffff"/><path d="M211.1522,690.38341c-2.43217,6.60152 -2.08471,12.16079 0.69491,19.10976c6.60152,15.63524 23.97403,10.77097 23.97403,-6.94898c0,-20.84704 -17.71995,-29.88074 -24.66894,-12.16079z" fill="#000000"/><path d="M228.17725,688.64615c5.55918,5.55918 5.21172,18.41486 -1.04237,23.62658c-7.64389,6.25407 -12.16079,1.04237 -12.16079,-14.24541c0,-13.89796 4.86426,-17.71995 13.20315,-9.38116z" fill="#ffffff"/><path d="M197.60161,726.17068c-7.29643,13.89796 5.90662,30.9231 20.49959,26.05875c10.77097,-3.12708 11.11843,-11.11843 1.73727,-22.58422c-10.42352,-12.16079 -17.02505,-13.20315 -22.23685,-3.47454z" fill="#000000"/><path d="M218.44865,732.7723c5.55918,10.42352 4.16944,14.24541 -5.21172,14.24541c-8.68626,0 -15.98269,-9.0337 -13.20315,-16.67759c2.43217,-6.60152 14.24541,-4.86426 18.41486,2.43217z" fill="#ffffff"/><path d="M529.76394,685.17161c-7.64389,10.77097 -6.94898,21.1945 1.73727,29.18583c7.29643,6.60152 7.29643,6.25407 13.89796,-1.73727c7.29643,-9.0337 8.3388,-18.41486 3.12708,-28.49093c-4.86426,-8.68626 -12.16079,-8.3388 -18.76231,1.04237z" fill="#000000"/><path d="M548.52625,696.29003c0,15.98269 -15.63524,21.88939 -19.45722,7.29643c-2.77963,-11.46587 7.64389,-24.66894 14.94033,-18.76231c2.43217,2.08471 4.51681,7.29643 4.51681,11.46587z" fill="#ffffff"/><path d="M540.18746,726.86559c-11.11843,15.63524 -4.51681,26.75365 13.20315,22.23685c9.38116,-2.43217 14.24541,-12.16079 10.77097,-22.93167c-3.12708,-9.38116 -17.37251,-9.0337 -23.97403,0.69491z" fill="#000000"/><path d="M561.0344,727.5605c2.77963,7.29643 -4.86426,19.45722 -12.50824,19.45722c-9.72861,0 -11.81333,-6.25407 -5.55918,-15.63524c6.25407,-9.72861 15.28778,-11.46587 18.06741,-3.82198z" fill="#ffffff"/></g></g></g></g></g></g></g></g></g></g></g></g></g></g></g></g></g></g></g></g></g></g></g></svg>