<svg version="1.1" xmlns="http://www.w3.org/2000/svg" xmlns:xlink="http://www.w3.org/1999/xlink" width="833" height="888.79688"><defs><clipPath id="clip-1"><rect x="24.37025" y="0" transform="scale(3.43165,3.43165)" width="194" height="259" id="clip-1" fill="none"/></clipPath></defs><g fill="none" fill-rule="nonzero" stroke="none" stroke-width="1" stroke-linecap="butt" stroke-linejoin="miter" stroke-miterlimit="10" stroke-dasharray="" stroke-dashoffset="0" font-family="none" font-weight="none" font-size="none" text-anchor="none" style="mix-blend-mode: normal"><g><g><g><g><g><g><g><g><g><g><g><g><g><g><g><g><g><g><g clip-path="url(#clip-1)"><g><path d="M175.25328,67.6027c-1.37265,1.0295 -2.40215,8.57903 -2.40215,16.81488c0,7.8927 -5.49055,33.62976 -12.35383,56.96477c-17.15805,58.33734 -17.15805,79.61336 0,110.15464l12.697,22.64859l-7.54953,21.61918c-16.12855,48.72882 -30.19821,67.94585 -49.41515,67.94585c-14.06956,0 -2.40215,16.12855 51.47414,69.66168c38.43406,38.43406 63.4848,56.6216 120.79265,86.13339c2.05898,1.0295 -12.01067,36.37508 -17.84438,44.9541c-5.83371,8.92218 -6.8632,15.44223 -6.52003,51.47414l0.34317,41.52246l-12.697,-3.08848c-35.00242,-9.60852 -65.20063,22.64859 -65.20063,69.66168c0,37.40457 19.21703,70.34801 49.41515,84.41757c20.93286,9.60852 34.65926,10.29485 48.38574,2.05898c9.95168,-6.17687 10.29485,-6.17687 17.15805,2.05898c10.29485,12.01067 34.31609,14.06956 53.87629,4.46105c17.84438,-8.57903 35.68875,-9.26535 49.41515,-2.05898c5.49055,2.74532 18.18754,5.14738 28.13922,5.14738c14.7559,0 19.90336,-1.71582 26.76656,-8.57903c7.8927,-7.8927 9.26535,-8.23586 16.12855,-3.43165c8.23586,5.83371 31.91394,6.8632 44.9541,1.71582c24.02124,-8.92218 53.18996,-49.41515 53.53312,-73.77965c0,-14.41273 2.05898,-16.47171 28.82555,-29.16871c48.72882,-22.99176 88.53554,-76.86804 106.37992,-143.44133c7.20636,-26.42339 8.57903,-42.55195 10.63801,-106.03676l2.40215,-74.80906l-10.98118,21.61918c-14.7559,28.82555 -42.89512,58.6805 -67.94585,72.06383c-15.44223,8.23586 -30.54137,12.35383 -64.17113,17.84438c-48.72882,7.8927 -70.00485,15.44223 -86.47656,31.57077c-9.60852,9.26535 -11.32433,9.95168 -13.38324,4.80421c-2.74532,-6.8632 -5.14738,-4.80421 26.08023,-22.64859c60.39633,-34.65926 107.75257,-77.89753 125.59695,-114.95894c14.7559,-29.85504 14.7559,-32.60027 0,-32.60027c-17.50121,0 -31.57077,-13.7264 -38.43406,-36.71824c-6.8632,-23.67808 -4.80421,-44.9541 7.20636,-72.75016c19.5602,-45.98359 23.67808,-112.89995 9.60852,-154.42241c-8.57903,-25.73707 -13.04016,-27.79606 -40.83612,-18.18754c-97.45774,33.97293 -117.36109,46.32676 -125.25379,77.21121c-2.05898,8.92218 -4.46105,16.12855 -4.80421,16.12855c-0.68633,0 -9.26535,-3.7748 -19.5602,-8.57903c-21.61918,-10.29485 -39.12039,-10.63801 -64.5143,-1.71582c-22.99176,8.23586 -24.02124,8.23586 -24.02124,1.71582c0,-16.81488 -27.45289,-49.41515 -52.16047,-62.11215c-13.38324,-7.20636 -91.62403,-35.68875 -97.11457,-35.68875c-2.40215,0 -5.14738,1.0295 -6.17687,2.40215z" fill="#000000"/><path d="M227.07058,85.44706c65.54379,24.02124 94.02609,45.98359 98.83039,76.52488c1.37265,7.20636 2.74532,13.04016 3.43165,13.04016c0.68633,0 9.26535,-3.43165 19.21703,-7.20636c24.36441,-9.95168 51.47414,-9.95168 70.69117,0c8.23586,4.11797 17.15805,6.8632 19.5602,5.83371c2.74532,-1.0295 6.52003,-8.23586 8.57903,-16.47171c4.46105,-16.12855 16.81488,-31.22761 32.60027,-39.46356c21.96235,-11.6675 109.4684,-42.20879 115.3021,-40.49297c7.20636,2.40215 11.6675,14.7559 17.15805,47.69942c6.8632,39.80664 -1.0295,92.65343 -19.90336,132.46015c-10.29485,22.30543 -10.98118,43.58144 -2.40215,69.66168c7.20636,22.99176 16.47171,32.60027 34.65926,37.06141l14.41273,3.7748l-10.63801,21.27601c-14.7559,29.51188 -15.09906,29.85504 -27.10973,23.67808c-5.49055,-2.74532 -14.06956,-4.11797 -18.5307,-3.08848c-7.8927,2.05898 -7.8927,1.71582 -9.26535,-29.85504c-0.68633,-24.70758 -2.74532,-35.34559 -9.26535,-48.38574c-23.33492,-47.69942 -86.47656,-49.41515 -127.31277,-3.08848c-20.24653,22.99176 -30.54137,44.9541 -41.17929,88.53554c-5.14738,20.58969 -10.29485,35.34559 -11.32433,32.60027c-1.0295,-2.74532 -5.83371,-18.87386 -10.98118,-35.68875c-12.697,-42.20879 -26.76656,-70.69117 -44.61094,-90.59453c-32.25711,-36.03191 -77.21121,-42.20879 -105.69359,-15.09906c-17.84438,16.81488 -24.02124,33.62976 -25.73707,68.28902c-1.0295,23.33492 -2.74532,31.91394 -5.83371,31.91394c-2.74532,0 -9.60852,4.11797 -15.78539,9.26535l-10.98118,9.26535l-23.67808,-25.39391c-12.697,-14.06956 -23.33492,-27.45289 -23.33492,-29.16871c0,-2.05898 5.49055,-5.83371 12.01067,-8.23586c9.95168,-3.43165 13.7264,-8.23586 23.67808,-28.82555c6.52003,-13.7264 14.41273,-33.2866 17.50121,-43.92461l6.17687,-19.21703l-12.697,-22.30543c-16.47171,-29.51188 -16.81488,-52.50363 -1.71582,-100.88938c5.83371,-18.87386 11.32433,-42.55195 12.35383,-52.8468c1.71582,-18.5307 3.43165,-27.45289 5.14738,-27.45289c0.68633,0 21.61918,7.54953 46.66992,16.81488z" fill="#ffa500"/><path d="M287.12374,299.2364c18.5307,5.49055 47.01309,32.60027 59.71,56.6216c10.63801,19.5602 30.19821,73.77965 32.25711,89.90821c1.0295,6.8632 -1.0295,8.92218 -14.06956,13.7264c-22.30543,8.23586 -25.05074,18.5307 -9.95168,39.12039c13.04016,17.50121 26.08023,24.70758 38.77723,21.61918c9.95168,-2.40215 32.94344,-32.60027 32.94344,-42.89512c0,-7.8927 -17.84438,-20.93286 -28.13922,-20.93286c-7.8927,0 -7.8927,-4.46105 1.0295,-40.49297c21.27601,-88.19238 80.29968,-136.57804 133.48965,-109.81157c27.10973,13.7264 37.74774,37.40457 37.74774,83.73124v27.45289h16.12855c24.70758,-0.34317 23.33492,7.20636 -6.52003,32.25711c-64.17113,53.87629 -148.93187,96.08507 -193.88597,96.08507c-30.19821,0 -106.72309,-31.22761 -153.73618,-62.79848c-31.22761,-20.93286 -60.05316,-47.01309 -60.05316,-54.21945c0,-6.8632 9.60852,-13.38324 20.24653,-13.38324c6.52003,0 7.20636,-2.05898 7.20636,-26.76656c0,-35.00242 7.20636,-59.36683 22.30543,-74.46598c17.84438,-17.50121 38.77723,-22.30543 64.5143,-14.7559z" fill="#ffa500"/><path d="M716.41815,465.66948c-2.74532,80.29968 -3.43165,82.70184 -29.16871,102.26195c-14.41273,10.98118 -20.24653,13.7264 -19.21703,9.60852c1.0295,-3.43165 3.08848,-12.697 4.11797,-20.93286c2.05898,-13.38324 1.71582,-14.41273 -5.83371,-14.41273c-4.46105,0 -14.06956,3.08848 -21.61918,6.8632c-7.20636,3.7748 -13.7264,6.17687 -14.7559,5.49055c-0.68633,-1.0295 5.14738,-7.8927 12.697,-15.44223c16.12855,-16.12855 12.697,-17.50121 -15.78539,-7.8927l-17.50121,6.17687l3.08848,-8.23586c1.71582,-4.46105 3.08848,-14.06956 3.08848,-21.27601c0,-12.697 0.68633,-13.38324 22.30543,-23.67808c26.08023,-12.01067 54.21945,-37.40457 68.63218,-61.76898c5.83371,-9.60852 10.63801,-17.50121 11.32433,-17.50121c0.34317,0 -0.34317,27.45289 -1.37265,60.73949z" fill="#ee82ee"/><path d="M405.17117,472.18952c14.7559,4.11797 3.7748,8.23586 -21.27601,8.23586c-23.67808,0 -36.71824,-4.46105 -23.33492,-7.8927c9.26535,-2.40215 36.03191,-2.40215 44.61094,-0.34317z" fill="#ffffff"/><path d="M612.09721,507.19194c0,7.20636 -3.08848,18.87386 -6.8632,26.42339c-3.7748,7.54953 -6.8632,14.06956 -6.8632,14.41273c0,0.68633 5.83371,-1.71582 13.04016,-5.49055c6.8632,-3.43165 16.12855,-7.54953 20.58969,-8.92218c7.8927,-2.40215 7.8927,-2.05898 -2.40215,16.12855c-13.7264,24.02124 -13.38324,26.42339 1.37265,13.7264c9.95168,-8.92218 35.34559,-19.90336 38.43406,-16.81488c0.34317,0.68633 -1.37265,13.38324 -4.11797,28.13922c-3.08848,14.7559 -4.46105,27.45289 -3.43165,28.48238c1.0295,1.0295 1.71582,0 1.71582,-2.05898c0,-6.17687 20.58969,-27.79606 31.22761,-33.62976c12.01067,-6.17687 12.35383,-4.11797 1.37265,25.05074c-17.84438,47.35625 -54.90578,90.93769 -92.65343,109.12524c-25.39391,12.01067 -25.39391,12.01067 -32.25711,-7.8927c-10.98118,-31.22761 -27.79606,-43.58144 -57.30785,-41.17929l-18.18754,1.71582l2.05898,-32.94344c1.37265,-28.48238 0.68633,-35.34559 -5.49055,-51.13097c-9.60852,-24.02124 -9.26535,-28.48238 4.11797,-40.83612c16.47171,-15.78539 31.57077,-21.96235 69.31851,-28.48238c48.72882,-8.57903 46.32676,-8.92218 46.32676,6.17687z" fill="#b14ea9"/><path d="M313.89031,547.68499c-4.80421,13.38324 -5.49055,14.06956 -12.01067,9.60852c-3.7748,-2.74532 -9.95168,-4.80421 -13.38324,-4.80421c-6.52003,0 -6.17687,-2.40215 1.37265,-22.99176c2.74532,-7.20636 3.08848,-7.54953 16.12855,-1.71582l13.04016,5.49055z" fill="#ff0000"/><path d="M477.92123,537.73331c4.80421,17.50121 4.80421,19.21703 -1.71582,16.81488c-2.74532,-1.0295 -8.23586,-0.34317 -12.01067,1.37265c-3.43165,2.05898 -6.52003,3.08848 -6.52003,2.74532c0,-0.68633 -1.37265,-6.17687 -3.08848,-12.35383c-3.08848,-9.95168 -2.40215,-11.32433 5.83371,-16.12855c13.04016,-6.8632 13.7264,-6.52003 17.50121,7.54953z" fill="#ff0000"/><path d="M387.32679,549.40081c11.6675,0 29.16871,-3.08848 40.49297,-6.8632c16.81488,-5.83371 20.24653,-6.17687 21.27601,-2.05898c1.0295,2.74532 2.40215,7.54953 3.43165,10.63801c1.0295,3.08848 -2.05898,15.09906 -6.52003,26.76656c-8.57903,21.61918 -13.7264,52.16047 -18.87386,115.3021c-2.74532,31.57077 -3.7748,36.37508 -10.63801,41.17929c-4.46105,2.74532 -14.06956,10.98118 -21.61918,17.84438c-14.06956,13.7264 -14.06956,13.7264 -8.57903,45.64044c0.68633,5.14738 -1.0295,7.20636 -7.20636,7.8927c-6.8632,1.0295 -7.8927,0.34317 -5.83371,-5.14738c9.95168,-25.05074 3.43165,-43.92461 -19.90336,-57.65101c-17.50121,-10.29485 -17.15805,-8.92218 -22.64859,-81.32918c-2.05898,-27.79606 -6.52003,-55.93527 -10.29485,-68.63218c-8.23586,-25.73707 -8.23586,-30.54137 -2.05898,-45.64044l4.80421,-11.32433l21.96235,6.8632c12.01067,3.7748 30.88444,6.8632 42.20879,6.52003z" fill="#ffa500"/><path d="M302.90913,565.1862c10.29485,10.29485 18.87386,38.43406 22.64859,74.80906l2.40215,20.58969l-18.87386,-1.0295c-12.35383,-1.0295 -22.30543,0.68633 -29.16871,4.11797l-10.29485,5.14738l-2.40215,-39.12039c-2.74532,-43.23827 0.68633,-59.71 13.04016,-68.63218c9.95168,-6.8632 11.6675,-6.52003 22.64859,4.11797z" fill="#008000"/><path d="M484.78452,566.55886c9.26535,9.95168 11.6675,26.76656 8.92218,67.25953c-1.37265,19.5602 -3.08848,35.34559 -3.43165,35.34559c-0.34317,0 -6.8632,-2.40215 -14.06956,-5.49055c-8.92218,-3.7748 -18.18754,-4.80421 -27.79606,-3.43165c-17.15805,2.40215 -17.15805,2.40215 -9.95168,-39.12039c4.46105,-25.73707 12.35383,-48.38574 19.5602,-57.30785c5.83371,-6.8632 19.21703,-5.49055 26.76656,2.74532z" fill="#008000"/><path d="M261.04351,662.64394c6.52003,5.83371 5.49055,13.38324 -2.05898,13.38324c-7.20636,0 -10.63801,6.52003 -10.63801,20.58969c0,12.697 8.57903,19.90336 17.50121,14.41273c5.14738,-3.43165 6.8632,-3.43165 7.8927,0c0.68633,2.40215 3.08848,9.60852 5.14738,16.12855c2.05898,6.52003 3.7748,12.01067 3.7748,12.697c0,0.34317 -4.80421,-1.37265 -10.29485,-4.46105c-20.24653,-9.95168 -48.04259,7.54953 -48.04259,30.19821c0,18.18754 11.32433,30.54137 30.19821,32.94344c18.87386,2.40215 27.10973,-4.46105 30.54137,-26.08023c2.40215,-15.09906 2.40215,-15.44223 4.80421,-5.49055c5.14738,22.30543 3.43165,32.25711 -5.83371,38.43406c-19.21703,12.35383 -53.18996,2.05898 -73.09332,-21.96235c-33.2866,-40.49297 -25.39391,-104.6641 15.09906,-123.1948c10.98118,-5.14738 27.10973,-3.7748 35.00242,2.40215z" fill="#ffffff"/><path d="M548.95557,666.07549c14.7559,13.7264 21.96235,31.57077 21.96235,53.87629c0,47.01309 -28.13922,84.07441 -67.25953,88.53554c-29.16871,3.43165 -41.52246,-12.697 -32.60027,-43.23827c2.40215,-7.54953 2.74532,-6.8632 5.14738,6.52003c4.80421,26.08023 18.5307,33.2866 42.20879,21.96235c15.44223,-7.20636 23.67808,-23.67808 19.21703,-37.40457c-6.52003,-19.90336 -41.86562,-33.2866 -52.50363,-20.24653c-6.8632,8.23586 -7.20636,4.46105 -1.71582,-14.7559c4.80421,-15.78539 6.17687,-17.50121 11.6675,-13.7264c8.57903,5.14738 16.12855,1.71582 18.87386,-9.26535c2.74532,-11.32433 -6.17687,-27.10973 -13.7264,-24.36441c-7.20636,2.74532 -6.17687,-10.63801 1.37265,-15.09906c9.95168,-6.17687 37.40457,-2.05898 47.35625,7.20636z" fill="#ffffff"/><path d="M322.81249,665.046c2.40215,1.37265 5.49055,17.84438 7.54953,36.71824c2.40215,25.73707 4.80421,35.34559 9.26535,37.74774c33.62976,20.24653 41.52246,35.00242 30.88444,56.27844c-7.8927,15.09906 -19.90336,21.61918 -40.1498,21.61918c-22.30543,0 -33.97293,-9.60852 -33.97293,-28.13922c0,-6.8632 -5.49055,-31.57077 -12.01067,-55.24895c-15.09906,-54.56262 -15.44223,-60.39633 -0.68633,-66.5732c12.01067,-5.14738 32.60027,-6.52003 39.12039,-2.40215z" fill="#b14ea9"/><path d="M482.72553,670.87979c8.23586,3.43165 7.54953,11.6675 -6.17687,60.39633c-6.52003,23.33492 -12.01067,48.04259 -12.01067,54.56262c0,16.47171 -7.8927,26.76656 -22.30543,29.51188c-26.42339,4.80421 -50.10148,-8.23586 -54.90578,-29.85504c-3.43165,-15.78539 4.11797,-29.16871 22.30543,-40.49297c15.44223,-9.60852 16.81488,-11.6675 18.87386,-26.76656c5.83371,-48.38574 6.52003,-50.44465 15.44223,-52.50363c8.57903,-2.05898 27.45289,0.34317 38.77723,5.14738z" fill="#b14ea9"/><path d="M264.81831,683.5767c5.49055,5.49055 5.14738,18.18754 -0.34317,22.99176c-6.17687,5.14738 -12.697,-1.71582 -12.697,-13.38324c0,-13.38324 5.14738,-17.50121 13.04016,-9.60852z" fill="#ffffff"/><path d="M510.17843,687.00835c2.40215,8.92218 -2.74532,19.90336 -9.60852,19.90336c-5.49055,0 -10.29485,-14.41273 -7.20636,-22.30543c2.74532,-7.8927 14.7559,-6.17687 16.81488,2.40215z" fill="#ffffff"/><path d="M527.33647,748.43417c7.54953,8.23586 9.26535,12.697 7.54953,19.90336c-4.11797,17.50121 -26.08023,29.85504 -41.86562,24.02124c-13.38324,-4.80421 -17.50121,-38.77723 -6.17687,-51.13097c9.60852,-10.63801 27.79606,-7.20636 40.49297,7.20636z" fill="#ffffff"/><path d="M275.45624,742.60045c7.20636,8.57903 8.23586,27.45289 2.40215,41.17929c-5.49055,13.04016 -5.83371,13.04016 -19.5602,11.32433c-17.84438,-2.40215 -30.54137,-13.7264 -30.54137,-27.79606c0,-12.35383 2.05898,-15.78539 13.7264,-23.67808c10.29485,-7.20636 28.48238,-7.54953 33.97293,-1.0295z" fill="#ffffff"/><path d="M192.41133,98.48722c-3.7748,6.17687 -16.12855,77.89753 -16.12855,92.99659c0.34317,23.33492 9.95168,42.89512 25.39391,50.10148c18.87386,8.92218 29.16871,4.11797 39.80664,-17.84438c8.57903,-17.84438 8.57903,-17.84438 24.70758,-17.84438c21.27601,0 30.19821,-10.63801 30.19821,-35.00242c0,-30.19821 -14.7559,-44.9541 -61.08265,-61.08265c-38.43406,-13.7264 -41.17929,-14.41273 -42.89512,-11.32433z" fill="#000000"/><path d="M227.7569,111.5273c49.75832,16.81488 65.20063,31.57077 65.20063,61.08265c0,21.61918 -11.32433,31.57077 -32.25711,28.82555c-15.09906,-2.05898 -15.09906,-2.05898 -17.15805,9.26535c-5.49055,29.85504 -31.22761,39.46356 -50.10148,19.21703c-6.17687,-6.8632 -10.63801,-16.12855 -12.01067,-25.39391c-3.7748,-23.33492 9.60852,-101.57562 17.15805,-101.57562c2.05898,0 15.09906,3.7748 29.16871,8.57903z" fill="#ffffff"/><path d="M548.26924,109.4684c-42.55195,12.697 -60.73949,24.02124 -67.94585,41.52246c-6.8632,17.15805 -6.8632,28.48238 -0.34317,40.83612c5.83371,11.32433 11.32433,14.06956 29.16871,14.06956c12.697,0 13.7264,0.68633 17.15805,12.697c6.8632,24.70758 20.58969,33.97293 40.83612,27.10973c18.87386,-6.17687 25.73707,-18.87386 27.45289,-49.41515c1.0295,-25.39391 -8.23586,-97.11457 -13.04016,-96.42824c-1.0295,0 -16.12855,4.46105 -33.2866,9.60852z" fill="#000000"/><path d="M584.64432,124.2243c6.52003,29.85504 8.57903,83.38816 3.43165,95.39874c-9.26535,21.96235 -33.97293,31.22761 -48.04259,17.15805c-3.7748,-3.7748 -8.23586,-13.38324 -10.29485,-21.27601c-3.7748,-14.7559 -3.7748,-14.7559 -18.18754,-13.7264c-21.96235,1.71582 -31.57077,-7.20636 -31.22761,-29.16871c0.34317,-29.51188 15.09906,-42.55195 66.5732,-57.99418c14.06956,-4.46105 27.45289,-7.8927 29.85504,-7.8927c2.05898,-0.34317 5.83371,7.8927 7.8927,17.50121z" fill="#ffffff"/><path d="M258.64136,355.85801c-27.79606,25.05074 -13.04016,73.09332 22.30543,73.09332c17.84438,0 30.54137,-9.26535 36.03191,-26.08023c13.38324,-39.80664 -28.82555,-73.43648 -58.33734,-47.01309z" fill="#000000"/><path d="M284.37843,356.88741c12.01067,13.04016 -5.83371,32.25711 -18.18754,19.90336c-6.17687,-6.17687 -5.14738,-18.87386 2.05898,-22.99176c8.23586,-4.80421 8.92218,-4.80421 16.12855,3.08848z" fill="#ffffff"/><path d="M261.04351,386.39928c2.74532,7.20636 -4.46105,14.41273 -9.60852,9.26535c-4.46105,-4.46105 -1.71582,-14.7559 3.7748,-14.7559c2.05898,0 4.46105,2.40215 5.83371,5.49055z" fill="#ffffff"/><path d="M468.65597,352.08319c-10.98118,7.54953 -17.84438,22.64859 -17.84438,39.12039c0,10.98118 2.40215,16.47171 11.32433,26.42339c9.60852,10.29485 13.7264,12.35383 26.08023,12.35383c39.12039,0 52.8468,-60.05316 17.50121,-78.2407c-12.697,-6.52003 -27.45289,-6.52003 -37.06141,0.34317z" fill="#000000"/><path d="M495.42244,360.31905c5.14738,9.60852 -1.37265,20.58969 -12.01067,20.58969c-8.92218,0 -14.7559,-12.01067 -10.63801,-22.30543c2.74532,-7.54953 18.18754,-6.52003 22.64859,1.71582z" fill="#ffffff"/><path d="M469.34222,382.96765c2.40215,6.52003 -0.34317,11.6675 -6.52003,11.6675c-6.17687,0 -9.60852,-5.83371 -7.20636,-12.01067c2.40215,-6.8632 10.98118,-6.52003 13.7264,0.34317z" fill="#ffffff"/><path d="M213.68734,681.86097c-2.40215,6.52003 -2.05898,12.01067 0.68633,18.87386c6.52003,15.44223 23.67808,10.63801 23.67808,-6.8632c0,-20.58969 -17.50121,-29.51188 -24.36441,-12.01067z" fill="#000000"/><path d="M230.50222,680.14515c5.49055,5.49055 5.14738,18.18754 -1.0295,23.33492c-7.54953,6.17687 -12.01067,1.0295 -12.01067,-14.06956c0,-13.7264 4.80421,-17.50121 13.04016,-9.26535z" fill="#ffffff"/><path d="M200.30402,717.20646c-7.20636,13.7264 5.83371,30.54137 20.24653,25.73707c10.63801,-3.08848 10.98118,-10.98118 1.71582,-22.30543c-10.29485,-12.01067 -16.81488,-13.04016 -21.96235,-3.43165z" fill="#000000"/><path d="M220.89371,723.72659c5.49055,10.29485 4.11797,14.06956 -5.14738,14.06956c-8.57903,0 -15.78539,-8.92218 -13.04016,-16.47171c2.40215,-6.52003 14.06956,-4.80421 18.18754,2.40215z" fill="#ffffff"/><path d="M528.36597,676.7135c-7.54953,10.63801 -6.8632,20.93286 1.71582,28.82555c7.20636,6.52003 7.20636,6.17687 13.7264,-1.71582c7.20636,-8.92218 8.23586,-18.18754 3.08848,-28.13922c-4.80421,-8.57903 -12.01067,-8.23586 -18.5307,1.0295z" fill="#000000"/><path d="M546.89667,687.69467c0,15.78539 -15.44223,21.61918 -19.21703,7.20636c-2.74532,-11.32433 7.54953,-24.36441 14.7559,-18.5307c2.40215,2.05898 4.46105,7.20636 4.46105,11.32433z" fill="#ffffff"/><path d="M538.66082,717.89279c-10.98118,15.44223 -4.46105,26.42339 13.04016,21.96235c9.26535,-2.40215 14.06956,-12.01067 10.63801,-22.64859c-3.08848,-9.26535 -17.15805,-8.92218 -23.67808,0.68633z" fill="#000000"/><path d="M559.25041,718.57912c2.74532,7.20636 -4.80421,19.21703 -12.35383,19.21703c-9.60852,0 -11.6675,-6.17687 -5.49055,-15.44223c6.17687,-9.60852 15.09906,-11.32433 17.84438,-3.7748z" fill="#ffffff"/></g></g></g></g></g></g></g></g></g></g></g></g></g></g></g></g></g></g></g></g></g></svg>