<svg version="1.1" xmlns="http://www.w3.org/2000/svg" xmlns:xlink="http://www.w3.org/1999/xlink" width="768" height="819.1875"><defs><clipPath id="clip-1"><rect x="24.4081" y="0" transform="scale(3.16289,3.16289)" width="194" height="259" id="clip-1" fill="none"/></clipPath></defs><g fill="none" fill-rule="nonzero" stroke="none" stroke-width="1" stroke-linecap="butt" stroke-linejoin="miter" stroke-miterlimit="10" stroke-dasharray="" stroke-dashoffset="0" font-family="none" font-weight="none" font-size="none" text-anchor="none" style="mix-blend-mode: normal"><g><g><g><g><g><g><g><g><g><g><g><g><g><g><g><g><g clip-path="url(#clip-1)"><g><path d="M161.64759,62.30822c-1.26515,0.94887 -2.21402,7.90714 -2.21402,15.49798c0,7.27456 -5.06054,30.99596 -11.38631,52.50343c-15.81427,53.7685 -15.81427,73.37824 0,101.5276l11.7026,20.87481l-6.95827,19.92602c-14.8654,44.9125 -27.83316,62.6245 -45.54508,62.6245c-12.96767,0 -2.21402,14.8654 47.44281,64.20595c35.424,35.424 58.51283,52.18714 111.33247,79.38764c1.89773,0.94887 -11.07002,33.52627 -16.44685,41.43341c-5.37683,8.22342 -6.32569,14.23283 -6.0094,47.44281l0.31629,38.27052l-11.7026,-2.8466c-32.26112,-8.856 -60.09428,20.87481 -60.09428,64.20595c0,34.47514 17.712,64.83853 45.54508,77.8062c19.29345,8.856 31.94483,9.48858 44.59629,1.89773c9.17229,-5.69311 9.48858,-5.69311 15.81427,1.89773c9.48858,11.07002 31.62854,12.96767 49.65683,4.11167c16.44685,-7.90714 32.8937,-8.53971 45.54508,-1.89773c5.06054,2.53031 16.76314,4.74425 25.93543,4.74425c13.60025,0 18.34458,-1.58144 24.67027,-7.90714c7.27456,-7.27456 8.53971,-7.59085 14.8654,-3.16289c7.59085,5.37683 29.41452,6.32569 41.43341,1.58144c22.13996,-8.22342 49.02425,-45.54508 49.34054,-68.00141c0,-13.28396 1.89773,-15.18169 26.568,-26.88429c44.9125,-21.1911 81.60166,-70.84793 98.04851,-132.20736c6.64198,-24.35398 7.90714,-39.21939 9.80487,-97.73222l2.21402,-68.9502l-10.12116,19.92602c-13.60025,26.568 -39.53568,54.08479 -62.6245,66.41997c-14.23283,7.59085 -28.14945,11.38631 -59.14541,16.44685c-44.9125,7.27456 -64.52224,14.23283 -79.70393,29.09823c-8.856,8.53971 -10.43744,9.17229 -12.3351,4.42796c-2.53031,-6.32569 -4.74425,-4.42796 24.03769,-20.87481c55.66624,-31.94483 99.31366,-71.79679 115.76051,-105.95564c13.60025,-27.51687 13.60025,-30.0471 0,-30.0471c-16.13056,0 -29.09823,-12.65138 -35.424,-33.84256c-6.32569,-21.82367 -4.42796,-41.43341 6.64198,-67.05255c18.02829,-42.38227 21.82367,-104.05791 8.856,-142.32843c-7.90714,-23.72141 -12.01889,-25.61914 -37.63794,-16.76314c-89.82509,31.31225 -108.16966,42.69856 -115.44422,71.16422c-1.89773,8.22342 -4.11167,14.8654 -4.42796,14.8654c-0.63258,0 -8.53971,-3.47917 -18.02829,-7.90714c-19.92602,-9.48858 -36.05658,-9.80487 -59.4617,-1.58144c-21.1911,7.59085 -22.13996,7.59085 -22.13996,1.58144c0,-15.49798 -25.30285,-45.54508 -48.07539,-57.24768c-12.3351,-6.64198 -84.44826,-32.8937 -89.5088,-32.8937c-2.21402,0 -4.74425,0.94887 -5.69311,2.21402z" fill="#000000"/><path d="M209.40669,78.75506c60.41056,22.13996 86.6622,42.38227 91.09024,70.53164c1.26515,6.64198 2.53031,12.01889 3.16289,12.01889c0.63258,0 8.53971,-3.16289 17.712,-6.64198c22.45625,-9.17229 47.44281,-9.17229 65.15481,0c7.59085,3.79546 15.81427,6.32569 18.02829,5.37683c2.53031,-0.94887 6.0094,-7.59085 7.90714,-15.18169c4.11167,-14.8654 15.49798,-28.78194 30.0471,-36.37287c20.24231,-10.75373 100.89511,-38.9031 106.27193,-37.32166c6.64198,2.21402 10.75373,13.60025 15.81427,43.96372c6.32569,36.68908 -0.94887,85.39704 -18.34458,122.0862c-9.48858,20.55852 -10.12116,40.16825 -2.21402,64.20595c6.64198,21.1911 15.18169,30.0471 31.94483,34.15885l13.28396,3.47917l-9.80487,19.60973c-13.60025,27.20058 -13.91654,27.51687 -24.98656,21.82367c-5.06054,-2.53031 -12.96767,-3.79546 -17.07942,-2.8466c-7.27456,1.89773 -7.27456,1.58144 -8.53971,-27.51687c-0.63258,-22.77254 -2.53031,-32.57741 -8.53971,-44.59629c-21.50739,-43.96372 -79.70393,-45.54508 -117.34195,-2.8466c-18.66087,21.1911 -28.14945,41.43341 -37.95423,81.60166c-4.74425,18.97716 -9.48858,32.57741 -10.43744,30.0471c-0.94887,-2.53031 -5.37683,-17.39571 -10.12116,-32.8937c-11.7026,-38.9031 -24.67027,-65.15481 -41.11712,-83.49939c-29.73081,-33.20998 -71.16422,-38.9031 -97.41593,-13.91654c-16.44685,15.49798 -22.13996,30.99596 -23.72141,62.94079c-0.94887,21.50739 -2.53031,29.41452 -5.37683,29.41452c-2.53031,0 -8.856,3.79546 -14.54912,8.53971l-10.12116,8.53971l-21.82367,-23.40512c-11.7026,-12.96767 -21.50739,-25.30285 -21.50739,-26.88429c0,-1.89773 5.06054,-5.37683 11.07002,-7.59085c9.17229,-3.16289 12.65138,-7.59085 21.82367,-26.568c6.0094,-12.65138 13.28396,-30.67968 16.13056,-40.48454l5.69311,-17.712l-11.7026,-20.55852c-15.18169,-27.20058 -15.49798,-48.39168 -1.58144,-92.98797c5.37683,-17.39571 10.43744,-39.21939 11.38631,-48.70797c1.58144,-17.07942 3.16289,-25.30285 4.74425,-25.30285c0.63258,0 19.92602,6.95827 43.01485,15.49798z" fill="#ffa500"/><path d="M264.75663,275.80095c17.07942,5.06054 43.33114,30.0471 55.03366,52.18714c9.80487,18.02829 27.83316,68.00141 29.73081,82.86682c0.94887,6.32569 -0.94887,8.22342 -12.96767,12.65138c-20.55852,7.59085 -23.08883,17.07942 -9.17229,36.05658c12.01889,16.13056 24.03769,22.77254 35.74029,19.92602c9.17229,-2.21402 30.36339,-30.0471 30.36339,-39.53568c0,-7.27456 -16.44685,-19.29345 -25.93543,-19.29345c-7.27456,0 -7.27456,-4.11167 0.94887,-37.32166c19.60973,-81.28537 74.01081,-125.88159 123.03507,-101.2114c24.98656,12.65138 34.79143,34.47514 34.79143,77.17362v25.30285h14.8654c22.77254,-0.31629 21.50739,6.64198 -6.0094,29.73081c-59.14541,49.65683 -137.2679,88.55993 -178.7013,88.55993c-27.83316,0 -98.3648,-28.78194 -141.69594,-57.88026c-28.78194,-19.29345 -55.34995,-43.33114 -55.34995,-49.97312c0,-6.32569 8.856,-12.3351 18.66087,-12.3351c6.0094,0 6.64198,-1.89773 6.64198,-24.67027c0,-32.26112 6.64198,-54.71737 20.55852,-68.63399c16.44685,-16.13056 35.74029,-20.55852 59.4617,-13.60025z" fill="#ffa500"/><path d="M660.42977,429.1994c-2.53031,74.01081 -3.16289,76.22484 -26.88429,94.25305c-13.28396,10.12116 -18.66087,12.65138 -17.712,8.856c0.94887,-3.16289 2.8466,-11.7026 3.79546,-19.29345c1.89773,-12.3351 1.58144,-13.28396 -5.37683,-13.28396c-4.11167,0 -12.96767,2.8466 -19.92602,6.32569c-6.64198,3.47917 -12.65138,5.69311 -13.60025,5.06054c-0.63258,-0.94887 4.74425,-7.27456 11.7026,-14.23283c14.8654,-14.8654 11.7026,-16.13056 -14.54912,-7.27456l-16.13056,5.69311l2.8466,-7.59085c1.58144,-4.11167 2.8466,-12.96767 2.8466,-19.60973c0,-11.7026 0.63258,-12.3351 20.55852,-21.82367c24.03769,-11.07002 49.97312,-34.47514 63.25708,-56.93139c5.37683,-8.856 9.80487,-16.13056 10.43744,-16.13056c0.31629,0 -0.31629,25.30285 -1.26515,55.98252z" fill="#ee82ee"/><path d="M373.55888,435.20881c13.60025,3.79546 3.47917,7.59085 -19.60973,7.59085c-21.82367,0 -33.84256,-4.11167 -21.50739,-7.27456c8.53971,-2.21402 33.20998,-2.21402 41.11712,-0.31629z" fill="#ffffff"/><path d="M564.27899,467.46993c0,6.64198 -2.8466,17.39571 -6.32569,24.35398c-3.47917,6.95827 -6.32569,12.96767 -6.32569,13.28396c0,0.63258 5.37683,-1.58144 12.01889,-5.06054c6.32569,-3.16289 14.8654,-6.95827 18.97716,-8.22342c7.27456,-2.21402 7.27456,-1.89773 -2.21402,14.8654c-12.65138,22.13996 -12.3351,24.35398 1.26515,12.65138c9.17229,-8.22342 32.57741,-18.34458 35.424,-15.49798c0.31629,0.63258 -1.26515,12.3351 -3.79546,25.93543c-2.8466,13.60025 -4.11167,25.30285 -3.16289,26.25171c0.94887,0.94887 1.58144,0 1.58144,-1.89773c0,-5.69311 18.97716,-25.61914 28.78194,-30.99596c11.07002,-5.69311 11.38631,-3.79546 1.26515,23.08883c-16.44685,43.64743 -50.6057,83.81568 -85.39704,100.57882c-23.40512,11.07002 -23.40512,11.07002 -29.73081,-7.27456c-10.12116,-28.78194 -25.61914,-40.16825 -52.81964,-37.95423l-16.76314,1.58144l1.89773,-30.36339c1.26515,-26.25171 0.63258,-32.57741 -5.06054,-47.12652c-8.856,-22.13996 -8.53971,-26.25171 3.79546,-37.63794c15.18169,-14.54912 29.09823,-20.24231 63.88966,-26.25171c44.9125,-7.90714 42.69856,-8.22342 42.69856,5.69311z" fill="#b14ea9"/><path d="M289.42691,504.79166c-4.42796,12.3351 -5.06054,12.96767 -11.07002,8.856c-3.47917,-2.53031 -9.17229,-4.42796 -12.3351,-4.42796c-6.0094,0 -5.69311,-2.21402 1.26515,-21.1911c2.53031,-6.64198 2.8466,-6.95827 14.8654,-1.58144l12.01889,5.06054z" fill="#ffffff"/><path d="M440.61134,495.61937c4.42796,16.13056 4.42796,17.712 -1.58144,15.49798c-2.53031,-0.94887 -7.59085,-0.31629 -11.07002,1.26515c-3.16289,1.89773 -6.0094,2.8466 -6.0094,2.53031c0,-0.63258 -1.26515,-5.69311 -2.8466,-11.38631c-2.8466,-9.17229 -2.21402,-10.43744 5.37683,-14.8654c12.01889,-6.32569 12.65138,-6.0094 16.13056,6.95827z" fill="#ffffff"/><path d="M357.11203,506.3731c10.75373,0 26.88429,-2.8466 37.32166,-6.32569c15.49798,-5.37683 18.66087,-5.69311 19.60973,-1.89773c0.94887,2.53031 2.21402,6.95827 3.16289,9.80487c0.94887,2.8466 -1.89773,13.91654 -6.0094,24.67027c-7.90714,19.92602 -12.65138,48.07539 -17.39571,106.27193c-2.53031,29.09823 -3.47917,33.52627 -9.80487,37.95423c-4.11167,2.53031 -12.96767,10.12116 -19.92602,16.44685c-12.96767,12.65138 -12.96767,12.65138 -7.90714,42.06599c0.63258,4.74425 -0.94887,6.64198 -6.64198,7.27456c-6.32569,0.94887 -7.27456,0.31629 -5.37683,-4.74425c9.17229,-23.08883 3.16289,-40.48454 -18.34458,-53.13593c-16.13056,-9.48858 -15.81427,-8.22342 -20.87481,-74.95968c-1.89773,-25.61914 -6.0094,-51.55456 -9.48858,-63.25708c-7.59085,-23.72141 -7.59085,-28.14945 -1.89773,-42.06599l4.42796,-10.43744l20.24231,6.32569c11.07002,3.47917 28.46565,6.32569 38.9031,6.0094z" fill="#ffa500"/><path d="M279.30575,520.92222c9.48858,9.48858 17.39571,35.424 20.87481,68.9502l2.21402,18.97716l-17.39571,-0.94887c-11.38631,-0.94887 -20.55852,0.63258 -26.88429,3.79546l-9.48858,4.74425l-2.21402,-36.05658c-2.53031,-39.85196 0.63258,-55.03366 12.01889,-63.25708c9.17229,-6.32569 10.75373,-6.0094 20.87481,3.79546z" fill="#008000"/><path d="M446.93711,522.18738c8.53971,9.17229 10.75373,24.67027 8.22342,61.99193c-1.26515,18.02829 -2.8466,32.57741 -3.16289,32.57741c-0.31629,0 -6.32569,-2.21402 -12.96767,-5.06054c-8.22342,-3.47917 -16.76314,-4.42796 -25.61914,-3.16289c-15.81427,2.21402 -15.81427,2.21402 -9.17229,-36.05658c4.11167,-23.72141 11.38631,-44.59629 18.02829,-52.81964c5.37683,-6.32569 17.712,-5.06054 24.67027,2.53031z" fill="#008000"/><path d="M240.71894,610.74731c6.0094,5.37683 5.06054,12.3351 -1.89773,12.3351c-6.64198,0 -9.80487,6.0094 -9.80487,18.97716c0,11.7026 7.90714,18.34458 16.13056,13.28396c4.74425,-3.16289 6.32569,-3.16289 7.27456,0c0.63258,2.21402 2.8466,8.856 4.74425,14.8654c1.89773,6.0094 3.47917,11.07002 3.47917,11.7026c0,0.31629 -4.42796,-1.26515 -9.48858,-4.11167c-18.66087,-9.17229 -44.28001,6.95827 -44.28001,27.83316c0,16.76314 10.43744,28.14945 27.83316,30.36339c17.39571,2.21402 24.98656,-4.11167 28.14945,-24.03769c2.21402,-13.91654 2.21402,-14.23283 4.42796,-5.06054c4.74425,20.55852 3.16289,29.73081 -5.37683,35.424c-17.712,11.38631 -49.02425,1.89773 -67.36883,-20.24231c-30.67968,-37.32166 -23.40512,-96.46707 13.91654,-113.54649c10.12116,-4.74425 24.98656,-3.47917 32.26112,2.21402z" fill="#ffffff"/><path d="M506.08244,613.91011c13.60025,12.65138 20.24231,29.09823 20.24231,49.65683c0,43.33114 -25.93543,77.48991 -61.99193,81.60166c-26.88429,3.16289 -38.27052,-11.7026 -30.0471,-39.85196c2.21402,-6.95827 2.53031,-6.32569 4.74425,6.0094c4.42796,24.03769 17.07942,30.67968 38.9031,20.24231c14.23283,-6.64198 21.82367,-21.82367 17.712,-34.47514c-6.0094,-18.34458 -38.58681,-30.67968 -48.39168,-18.66087c-6.32569,7.59085 -6.64198,4.11167 -1.58144,-13.60025c4.42796,-14.54912 5.69311,-16.13056 10.75373,-12.65138c7.90714,4.74425 14.8654,1.58144 17.39571,-8.53971c2.53031,-10.43744 -5.69311,-24.98656 -12.65138,-22.45625c-6.64198,2.53031 -5.69311,-9.80487 1.26515,-13.91654c9.17229,-5.69311 34.47514,-1.89773 43.64743,6.64198z" fill="#ffffff"/><path d="M297.65033,612.96125c2.21402,1.26515 5.06054,16.44685 6.95827,33.84256c2.21402,23.72141 4.42796,32.57741 8.53971,34.79143c30.99596,18.66087 38.27052,32.26112 28.46565,51.87085c-7.27456,13.91654 -18.34458,19.92602 -37.00537,19.92602c-20.55852,0 -31.31225,-8.856 -31.31225,-25.93543c0,-6.32569 -5.06054,-29.09823 -11.07002,-50.92199c-13.91654,-50.28941 -14.23283,-55.66624 -0.63258,-61.35935c11.07002,-4.74425 30.0471,-6.0094 36.05658,-2.21402z" fill="#b14ea9"/><path d="M445.03938,618.33815c7.59085,3.16289 6.95827,10.75373 -5.69311,55.66624c-6.0094,21.50739 -11.07002,44.28001 -11.07002,50.28941c0,15.18169 -7.27456,24.67027 -20.55852,27.20058c-24.35398,4.42796 -46.17766,-7.59085 -50.6057,-27.51687c-3.16289,-14.54912 3.79546,-26.88429 20.55852,-37.32166c14.23283,-8.856 15.49798,-10.75373 17.39571,-24.67027c5.37683,-44.59629 6.0094,-46.49395 14.23283,-48.39168c7.90714,-1.89773 25.30285,0.31629 35.74029,4.74425z" fill="#b14ea9"/><path d="M244.19811,630.04067c5.06054,5.06054 4.74425,16.76314 -0.31629,21.1911c-5.69311,4.74425 -11.7026,-1.58144 -11.7026,-12.3351c0,-12.3351 4.74425,-16.13056 12.01889,-8.856z" fill="#ffffff"/><path d="M470.34223,633.20356c2.21402,8.22342 -2.53031,18.34458 -8.856,18.34458c-5.06054,0 -9.48858,-13.28396 -6.64198,-20.55852c2.53031,-7.27456 13.60025,-5.69311 15.49798,2.21402z" fill="#ffffff"/><path d="M486.1565,689.81866c6.95827,7.59085 8.53971,11.7026 6.95827,18.34458c-3.79546,16.13056 -24.03769,27.51687 -38.58681,22.13996c-12.3351,-4.42796 -16.13056,-35.74029 -5.69311,-47.12652c8.856,-9.80487 25.61914,-6.64198 37.32166,6.64198z" fill="#ffffff"/><path d="M254.0029,684.44183c6.64198,7.90714 7.59085,25.30285 2.21402,37.95423c-5.06054,12.01889 -5.37683,12.01889 -18.02829,10.43744c-16.44685,-2.21402 -28.14945,-12.65138 -28.14945,-25.61914c0,-11.38631 1.89773,-14.54912 12.65138,-21.82367c9.48858,-6.64198 26.25171,-6.95827 31.31225,-0.94887z" fill="#ffffff"/><path d="M177.46186,90.77395c-3.47917,5.69311 -14.8654,71.79679 -14.8654,85.71333c0.31629,21.50739 9.17229,39.53568 23.40512,46.17766c17.39571,8.22342 26.88429,3.79546 36.68908,-16.44685c7.90714,-16.44685 7.90714,-16.44685 22.77254,-16.44685c19.60973,0 27.83316,-9.80487 27.83316,-32.26112c0,-27.83316 -13.60025,-41.43341 -56.29881,-56.29881c-35.424,-12.65138 -37.95423,-13.28396 -39.53568,-10.43744z" fill="#000000"/><path d="M210.03926,102.79276c45.86137,15.49798 60.09428,29.09823 60.09428,56.29881c0,19.92602 -10.43744,29.09823 -29.73081,26.568c-13.91654,-1.89773 -13.91654,-1.89773 -15.81427,8.53971c-5.06054,27.51687 -28.78194,36.37287 -46.17766,17.712c-5.69311,-6.32569 -9.80487,-14.8654 -11.07002,-23.40512c-3.47917,-21.50739 8.856,-93.62047 15.81427,-93.62047c1.89773,0 13.91654,3.47917 26.88429,7.90714z" fill="#ffffff"/><path d="M505.44987,100.89511c-39.21939,11.7026 -55.98252,22.13996 -62.6245,38.27052c-6.32569,15.81427 -6.32569,26.25171 -0.31629,37.63794c5.37683,10.43744 10.43744,12.96767 26.88429,12.96767c11.7026,0 12.65138,0.63258 15.81427,11.7026c6.32569,22.77254 18.97716,31.31225 37.63794,24.98656c17.39571,-5.69311 23.72141,-17.39571 25.30285,-45.54508c0.94887,-23.40512 -7.59085,-89.5088 -12.01889,-88.87622c-0.94887,0 -14.8654,4.11167 -30.67968,8.856z" fill="#000000"/><path d="M538.97614,114.49536c6.0094,27.51687 7.90714,76.85741 3.16289,87.92735c-8.53971,20.24231 -31.31225,28.78194 -44.28001,15.81427c-3.47917,-3.47917 -7.59085,-12.3351 -9.48858,-19.60973c-3.47917,-13.60025 -3.47917,-13.60025 -16.76314,-12.65138c-20.24231,1.58144 -29.09823,-6.64198 -28.78194,-26.88429c0.31629,-27.20058 13.91654,-39.21939 61.35935,-53.45222c12.96767,-4.11167 25.30285,-7.27456 27.51687,-7.27456c1.89773,-0.31629 5.37683,7.27456 7.27456,16.13056z" fill="#ffffff"/><path d="M238.50492,327.98809c-25.61914,23.08883 -12.01889,67.36883 20.55852,67.36883c16.44685,0 28.14945,-8.53971 33.20998,-24.03769c12.3351,-36.68908 -26.568,-67.68512 -53.7685,-43.33114z" fill="#000000"/><path d="M262.22633,328.93687c11.07002,12.01889 -5.37683,29.73081 -16.76314,18.34458c-5.69311,-5.69311 -4.74425,-17.39571 1.89773,-21.1911c7.59085,-4.42796 8.22342,-4.42796 14.8654,2.8466z" fill="#ffffff"/><path d="M240.71894,356.13745c2.53031,6.64198 -4.11167,13.28396 -8.856,8.53971c-4.11167,-4.11167 -1.58144,-13.60025 3.47917,-13.60025c1.89773,0 4.11167,2.21402 5.37683,5.06054z" fill="#ffffff"/><path d="M432.07171,324.50891c-10.12116,6.95827 -16.44685,20.87481 -16.44685,36.05658c0,10.12116 2.21402,15.18169 10.43744,24.35398c8.856,9.48858 12.65138,11.38631 24.03769,11.38631c36.05658,0 48.70797,-55.34995 16.13056,-72.11308c-11.7026,-6.0094 -25.30285,-6.0094 -34.15885,0.31629z" fill="#000000"/><path d="M456.7419,332.09976c4.74425,8.856 -1.26515,18.97716 -11.07002,18.97716c-8.22342,0 -13.60025,-11.07002 -9.80487,-20.55852c2.53031,-6.95827 16.76314,-6.0094 20.87481,1.58144z" fill="#ffffff"/><path d="M432.70421,352.97457c2.21402,6.0094 -0.31629,10.75373 -6.0094,10.75373c-5.69311,0 -8.856,-5.37683 -6.64198,-11.07002c2.21402,-6.32569 10.12116,-6.0094 12.65138,0.31629z" fill="#ffffff"/><path d="M197.07159,628.45931c-2.21402,6.0094 -1.89773,11.07002 0.63258,17.39571c6.0094,14.23283 21.82367,9.80487 21.82367,-6.32569c0,-18.97716 -16.13056,-27.20058 -22.45625,-11.07002z" fill="#000000"/><path d="M212.56957,626.87787c5.06054,5.06054 4.74425,16.76314 -0.94887,21.50739c-6.95827,5.69311 -11.07002,0.94887 -11.07002,-12.96767c0,-12.65138 4.42796,-16.13056 12.01889,-8.53971z" fill="#ffffff"/><path d="M184.73642,661.03663c-6.64198,12.65138 5.37683,28.14945 18.66087,23.72141c9.80487,-2.8466 10.12116,-10.12116 1.58144,-20.55852c-9.48858,-11.07002 -15.49798,-12.01889 -20.24231,-3.16289z" fill="#000000"/><path d="M203.71357,667.04612c5.06054,9.48858 3.79546,12.96767 -4.74425,12.96767c-7.90714,0 -14.54912,-8.22342 -12.01889,-15.18169c2.21402,-6.0094 12.96767,-4.42796 16.76314,2.21402z" fill="#ffffff"/><path d="M487.10537,623.71498c-6.95827,9.80487 -6.32569,19.29345 1.58144,26.568c6.64198,6.0094 6.64198,5.69311 12.65138,-1.58144c6.64198,-8.22342 7.59085,-16.76314 2.8466,-25.93543c-4.42796,-7.90714 -11.07002,-7.59085 -17.07942,0.94887z" fill="#000000"/><path d="M504.18479,633.83613c0,14.54912 -14.23283,19.92602 -17.712,6.64198c-2.53031,-10.43744 6.95827,-22.45625 13.60025,-17.07942c2.21402,1.89773 4.11167,6.64198 4.11167,10.43744z" fill="#ffffff"/><path d="M496.59395,661.66921c-10.12116,14.23283 -4.11167,24.35398 12.01889,20.24231c8.53971,-2.21402 12.96767,-11.07002 9.80487,-20.87481c-2.8466,-8.53971 -15.81427,-8.22342 -21.82367,0.63258z" fill="#000000"/><path d="M515.57102,662.30179c2.53031,6.64198 -4.42796,17.712 -11.38631,17.712c-8.856,0 -10.75373,-5.69311 -5.06054,-14.23283c5.69311,-8.856 13.91654,-10.43744 16.44685,-3.47917z" fill="#ffffff"/></g></g></g></g></g></g></g></g></g></g></g></g></g></g></g></g></g></g></g></svg>