<?xml version="1.0" standalone="no"?>
<!DOCTYPE svg PUBLIC "-//W3C//DTD SVG 20010904//EN"
 "http://www.w3.org/TR/2001/REC-SVG-20010904/DTD/svg10.dtd">
<svg version="1.0" xmlns="http://www.w3.org/2000/svg"
 width="725.000000pt" height="1285.000000pt" viewBox="0 0 725.000000 1285.000000"
 preserveAspectRatio="xMidYMid meet">
<metadata>
Created by potrace 1.16, written by Peter Selinger 2001-2019
</metadata>
<g transform="translate(0.000000,1285.000000) scale(0.100000,-0.100000)"
fill="#000000" stroke="none">
<path fill="#000000" stroke="none" d="M51 12829 c10 -20 9 -21 -15 -17 -25 5
-26 4 -26 -42 l0 -47 88 -12 c49 -6 98 -11 110 -11 49 0 17 -18 -60 -35 l-82
-18 -28 34 -28 34 1 -107 1 -108 52 -29 c46 -27 70 -52 181 -191 l20 -25 -35
21 c-97 58 -211 124 -216 124 -3 0 -4 -12 -2 -26 3 -22 30 -42 174 -127 166
-99 174 -105 248 -194 42 -51 76 -94 76 -97 0 -4 -428 244 -465 270 -28 20
-37 17 -33 -12 3 -23 42 -49 298 -199 l295 -173 102 -124 c56 -68 103 -127
103 -131 0 -5 -12 0 -27 11 -34 24 -762 452 -768 452 -3 0 -5 -11 -5 -25 0
-15 9 -30 22 -38 13 -8 210 -124 438 -257 228 -134 426 -253 438 -264 13 -12
38 -38 55 -59 33 -43 30 -51 -29 -61 -31 -6 -168 70 -812 453 -57 33 -106 61
-109 61 -2 0 -3 -12 -1 -27 3 -24 48 -53 411 -267 345 -203 405 -241 386 -248
-12 -5 -53 -15 -90 -24 l-68 -15 -223 131 c-386 229 -405 240 -412 240 -3 0
-6 -11 -6 -24 0 -21 16 -34 98 -82 53 -31 129 -76 167 -99 39 -23 123 -73 188
-110 64 -37 117 -69 117 -70 0 -2 -40 -13 -89 -25 l-89 -22 -124 72 c-68 40
-143 84 -168 98 -25 14 -54 31 -65 38 -28 20 -35 17 -35 -10 0 -20 24 -38 156
-116 86 -50 153 -94 150 -97 -3 -3 -39 -13 -80 -23 l-75 -17 -76 43 -75 43 0
-28 c0 -22 9 -32 42 -51 l43 -25 -43 -9 c-41 -9 -42 -10 -42 -48 0 -22 6 -66
14 -97 28 -112 29 -117 15 -103 -23 21 -29 13 -29 -37 0 -30 5 -53 15 -61 12
-10 12 -15 -1 -35 -9 -14 -14 -39 -12 -62 l3 -38 30 47 c17 27 34 48 39 48 5
0 33 -14 62 -31 l54 -31 -96 -139 c-84 -123 -95 -143 -92 -177 l3 -37 31 45
c132 194 188 276 191 279 4 5 83 -37 100 -53 8 -8 -13 -47 -89 -156 -243 -350
-240 -345 -236 -386 3 -36 8 -30 183 226 99 144 183 268 187 274 5 7 25 2 63
-18 l55 -28 -77 -112 c-42 -61 -100 -145 -128 -186 -28 -41 -79 -116 -114
-166 l-62 -91 -42 8 c-71 14 -70 15 -62 -43 12 -95 17 -1629 5 -1673 -6 -22
-10 -62 -8 -89 l3 -48 46 35 c43 34 63 39 355 102 302 65 1819 391 1859 399
13 3 36 -10 69 -38 l49 -43 -69 -17 c-38 -9 -249 -54 -469 -101 -425 -91 -685
-147 -1392 -300 -243 -52 -445 -95 -448 -95 -3 0 -5 -11 -5 -25 0 -15 5 -23
12 -20 12 4 284 63 1787 386 332 71 610 129 619 129 9 0 36 -19 59 -42 l43
-42 -803 -172 c-1918 -412 -1717 -366 -1717 -392 0 -18 4 -22 18 -18 9 3 395
86 857 185 462 99 1030 221 1263 271 l423 91 44 -37 c25 -20 45 -39 45 -43 0
-4 -552 -125 -1227 -270 -676 -145 -1272 -273 -1326 -285 -89 -19 -97 -23 -97
-44 0 -18 4 -22 18 -18 9 3 269 59 577 125 308 66 908 195 1334 286 l774 166
43 -42 c24 -24 42 -45 40 -47 -3 -2 -55 -15 -118 -28 -148 -33 -1453 -313
-2108 -453 -283 -61 -525 -113 -537 -116 -23 -5 -34 -45 -13 -45 10 0 818 173
2326 498 l501 108 48 -42 c42 -36 46 -42 29 -47 -10 -4 -325 -72 -699 -152
-374 -81 -795 -171 -935 -201 -140 -30 -475 -102 -745 -160 -269 -58 -500
-107 -513 -111 -23 -6 -32 -43 -9 -43 7 0 233 47 502 105 270 58 740 159 1045
225 305 66 744 160 975 210 231 49 427 90 436 90 23 0 86 -68 68 -75 -8 -2
-518 -113 -1134 -245 -616 -132 -1235 -265 -1375 -296 -140 -30 -309 -66 -375
-80 -168 -35 -155 -28 -155 -80 l0 -45 45 7 c41 6 47 4 68 -22 31 -39 593
-751 625 -793 l26 -33 -27 -22 c-15 -12 -39 -29 -55 -38 l-29 -17 -88 112
c-49 62 -170 216 -269 342 -165 211 -264 335 -287 360 -5 5 -9 -5 -9 -26 0
-31 30 -73 232 -329 127 -162 258 -328 290 -368 33 -41 58 -76 56 -78 -8 -8
-193 27 -204 39 -6 7 -86 109 -179 227 -210 269 -195 253 -195 208 0 -36 27
-74 268 -377 23 -29 41 -55 40 -57 -2 -1 -44 3 -93 9 l-89 12 -63 78 -63 79 0
-37 c0 -24 9 -48 26 -71 l26 -34 -26 0 c-26 0 -27 -2 -24 -47 2 -32 8 -47 18
-48 8 -1 59 -8 113 -15 54 -7 96 -15 94 -17 -3 -2 -42 -13 -87 -24 l-83 -19
-28 32 -28 33 0 -105 -1 -105 51 -30 c42 -25 161 -150 193 -202 4 -7 -28 8
-71 34 -43 25 -99 59 -126 74 l-47 28 0 -27 c0 -26 14 -37 171 -128 169 -98
171 -100 250 -196 44 -54 78 -98 76 -98 -2 0 -67 37 -143 82 -76 44 -187 109
-247 144 l-107 62 0 -27 c0 -25 23 -40 298 -202 l298 -174 90 -109 c49 -60 96
-118 104 -130 14 -20 14 -20 -20 1 -19 11 -179 105 -355 208 -176 103 -341
200 -368 216 l-47 29 0 -28 c0 -27 25 -43 443 -288 243 -142 453 -270 466
-284 38 -41 74 -90 69 -95 -2 -3 -24 -8 -49 -11 -43 -6 -51 -2 -471 245 -234
138 -434 254 -443 257 -13 5 -16 1 -13 -20 3 -23 52 -55 412 -266 225 -132
403 -242 395 -244 -35 -12 -139 -36 -157 -36 -11 0 -141 71 -288 158 -148 87
-290 170 -316 185 l-48 28 0 -28 c0 -26 20 -40 284 -193 156 -91 282 -167 279
-170 -5 -6 -143 -39 -165 -40 -15 0 -350 189 -373 211 -17 17 -26 9 -23 -18 3
-23 22 -38 128 -101 69 -41 140 -83 159 -93 l33 -18 -38 -10 c-140 -36 -125
-37 -202 8 -39 23 -73 41 -76 41 -3 0 -6 -11 -6 -25 0 -19 10 -30 43 -47 l42
-22 -40 -11 c-37 -11 -40 -14 -43 -52 -3 -35 11 -105 34 -186 5 -16 3 -17 -15
-8 -20 11 -21 9 -21 -43 0 -40 4 -55 16 -60 15 -6 15 -8 0 -31 -9 -13 -16 -44
-16 -67 l0 -43 35 53 c20 28 37 52 40 52 4 0 106 -59 113 -65 1 -1 -40 -64
-93 -140 -82 -119 -95 -143 -95 -178 0 -23 4 -37 8 -31 5 5 57 80 116 167
l108 158 46 -27 c65 -37 68 -41 50 -61 -9 -10 -86 -121 -172 -246 -139 -203
-156 -232 -156 -269 0 -40 5 -34 185 228 102 148 189 272 194 277 9 9 101 -40
101 -54 0 -10 -113 -178 -289 -430 l-83 -120 -54 7 -54 6 0 -46 c0 -25 5 -46
10 -46 13 0 13 -1637 -1 -1645 -5 -4 -9 -33 -9 -66 l0 -59 48 38 c47 37 54 39
408 114 197 43 684 147 1081 233 398 85 730 155 739 155 23 0 108 -79 92 -85
-7 -2 -276 -61 -598 -130 -1925 -413 -1770 -377 -1770 -403 0 -18 4 -22 18
-18 9 3 40 10 67 15 28 6 333 71 680 146 347 75 861 185 1143 246 l513 110 27
-20 c37 -26 78 -71 65 -71 -6 0 -357 -74 -779 -165 -423 -91 -978 -211 -1234
-266 -256 -55 -473 -102 -482 -105 -18 -5 -26 -44 -10 -44 5 0 112 22 238 49
126 28 607 131 1069 231 462 99 932 200 1045 225 l204 45 41 -38 c22 -20 42
-38 44 -39 2 -2 2 -5 0 -8 -3 -2 -320 -72 -705 -155 -963 -208 -1170 -252
-1464 -316 -140 -31 -295 -64 -345 -75 -138 -29 -135 -28 -135 -49 0 -11 4
-20 9 -20 10 0 224 45 446 94 150 33 2047 442 2182 470 l62 13 48 -42 c26 -24
46 -45 43 -47 -3 -3 -75 -19 -160 -37 -85 -18 -204 -43 -265 -56 -60 -13 -238
-51 -395 -85 -157 -34 -334 -72 -395 -85 -60 -13 -227 -49 -370 -80 -143 -30
-278 -60 -300 -65 -22 -6 -105 -24 -185 -40 -203 -43 -594 -128 -660 -143 -45
-11 -56 -17 -58 -36 -3 -21 -1 -23 22 -17 15 4 329 72 699 152 369 80 710 154
757 164 173 38 1030 222 1193 256 l168 36 44 -41 c24 -22 41 -42 37 -45 -7 -4
-118 -28 -557 -122 -115 -25 -249 -54 -297 -65 -47 -10 -108 -23 -135 -29 -26
-5 -140 -29 -253 -54 -518 -112 -872 -189 -1065 -231 -194 -42 -420 -91 -555
-119 -46 -10 -56 -16 -58 -35 -3 -20 0 -23 20 -18 12 3 162 35 333 72 376 80
608 130 695 150 76 17 981 213 1180 255 74 16 271 58 438 94 l304 66 39 -32
c21 -17 39 -35 39 -38 0 -4 -12 -10 -27 -13 -58 -12 -929 -201 -1163 -252
-135 -29 -321 -69 -415 -90 -93 -20 -240 -51 -325 -70 -554 -121 -1089 -235
-1103 -235 -14 0 -17 -10 -17 -50 0 -27 3 -50 8 -50 4 0 24 4 44 9 l38 9 307
-391 c170 -215 313 -397 318 -405 6 -8 23 -12 39 -10 29 3 27 5 -90 153 -303
381 -509 647 -509 658 0 9 86 34 126 37 3 0 127 -153 275 -341 328 -415 354
-449 354 -458 0 -4 -15 -16 -32 -26 l-33 -20 82 -3 82 -3 69 46 69 46 336 -46
c292 -39 356 -45 479 -43 l143 3 -245 33 c-135 18 -336 45 -447 60 -112 14
-203 29 -203 32 1 12 162 110 182 110 67 0 1607 -213 1631 -225 34 -18 107
-20 107 -3 0 6 -91 257 -202 557 -110 300 -203 551 -205 557 -4 12 94 80 103
71 3 -3 91 -243 195 -534 254 -705 237 -663 260 -663 10 0 19 5 19 10 0 6 -97
279 -215 607 -118 328 -215 602 -215 609 0 12 97 80 105 73 5 -5 56 -144 160
-434 47 -132 135 -376 196 -542 60 -167 109 -307 109 -313 0 -5 11 -10 25 -10
14 0 25 2 25 5 0 2 -16 48 -36 102 -19 54 -80 222 -134 373 -201 560 -299 830
-305 839 -3 6 18 26 47 45 37 26 54 32 59 23 4 -6 86 -232 183 -502 97 -269
201 -555 230 -635 29 -80 61 -169 71 -197 14 -45 20 -53 41 -53 29 0 29 -3 3
62 -12 29 -41 109 -66 178 -82 230 -140 392 -282 785 -78 214 -141 393 -141
397 0 4 23 23 52 43 38 25 54 31 59 22 4 -6 71 -190 149 -407 174 -481 324
-895 382 -1052 9 -26 14 -28 65 -28 l55 0 851 663 c468 364 855 664 860 666 9
3 77 -58 77 -70 0 -7 -191 -158 -555 -440 -60 -47 -162 -126 -225 -175 -63
-50 -268 -209 -455 -353 -187 -145 -347 -269 -355 -277 -12 -12 14 -14 185
-13 l200 1 -94 17 c-52 9 -93 20 -91 26 2 6 31 31 64 56 l61 47 230 -39 c127
-21 245 -41 263 -44 27 -5 32 -10 32 -35 0 -29 1 -30 50 -30 l50 0 0 318 0
317 56 44 56 44 -8 -362 c-7 -356 -7 -361 13 -361 18 0 20 9 26 127 4 71 7
239 7 375 l0 246 48 39 c26 22 52 42 57 45 7 4 9 -48 8 -150 -2 -87 -4 -275
-5 -420 -3 -260 -3 -262 18 -262 21 0 21 3 27 437 l6 438 28 22 28 22 28 -27
29 -27 -7 -432 -8 -433 22 0 c19 0 21 6 22 68 1 37 5 218 8 401 l6 335 53 -64
54 -64 -4 -338 -3 -338 23 0 22 0 2 238 c2 130 3 267 2 304 0 38 3 68 6 68 4
0 30 -29 58 -65 l52 -64 0 -241 c0 -233 1 -240 20 -240 19 0 20 7 22 148 2 81
3 175 3 209 0 70 3 70 67 -10 l38 -49 0 -149 c0 -142 1 -149 20 -149 18 0 20
8 22 123 l3 122 53 -65 c49 -61 52 -68 52 -122 0 -56 1 -58 26 -58 23 0 26 3
22 25 -7 32 7 32 28 0 14 -22 23 -25 76 -25 57 0 59 1 45 20 -14 20 -157 195
-385 472 -68 83 -120 153 -115 157 4 4 32 13 62 20 44 9 57 9 67 -1 6 -7 89
-112 184 -233 366 -464 341 -435 372 -435 l29 0 -31 43 c-17 23 -139 177 -270
342 -144 183 -233 303 -226 306 6 4 38 12 71 19 l60 12 27 -33 c54 -68 494
-626 518 -658 19 -25 31 -32 52 -29 30 3 38 -8 -212 309 -58 74 -156 198 -218
276 -61 78 -108 144 -104 147 20 12 143 29 151 20 4 -5 100 -126 212 -269 410
-521 379 -485 411 -485 l30 0 -30 37 c-166 212 -496 631 -534 678 l-48 60 72
17 c57 14 75 15 84 5 6 -7 150 -189 319 -404 281 -358 311 -393 338 -393 22 0
27 3 20 13 -6 6 -77 97 -159 202 -82 104 -222 282 -311 395 -88 113 -160 207
-158 209 2 2 34 10 72 17 64 14 68 14 83 -5 8 -11 123 -157 255 -325 231 -294
240 -304 243 -271 3 32 -16 59 -224 324 -125 159 -227 293 -226 297 0 5 27 15
59 22 l57 13 21 -28 c30 -42 285 -366 301 -383 12 -12 14 -9 14 22 0 30 -11
51 -58 110 -252 318 -239 290 -156 304 l39 6 84 -106 c46 -58 86 -106 88 -106
1 0 3 15 3 34 0 26 -14 51 -60 109 -33 42 -60 78 -60 80 0 3 27 10 60 16 l60
12 0 48 0 48 -112 -24 c-381 -82 -1237 -267 -1313 -283 l-89 -18 -32 36 c-28
32 -30 38 -16 44 10 4 343 77 742 163 399 85 746 160 773 166 36 8 47 16 47
30 0 10 -6 19 -14 19 -8 0 -370 -77 -805 -171 l-791 -170 -28 32 c-43 51 -45
58 -20 64 55 12 323 70 713 154 231 50 515 111 630 136 116 25 234 51 263 57
44 9 52 14 52 33 0 17 -5 22 -17 19 -38 -8 -446 -97 -598 -129 -88 -19 -200
-43 -250 -54 -492 -107 -839 -181 -841 -178 -7 7 178 142 204 149 15 5 79 19
142 33 158 34 622 134 930 201 140 31 287 62 325 70 100 21 105 23 105 45 0
24 0 24 -134 -6 -61 -13 -311 -68 -556 -120 -245 -53 -506 -110 -580 -126 -74
-16 -141 -31 -147 -34 -17 -6 -16 5 1 19 8 6 48 37 89 69 l74 57 259 56 c143
30 311 66 374 80 63 14 176 38 250 54 131 28 302 65 348 75 23 6 32 45 10 45
-7 0 -128 -25 -268 -55 -140 -31 -307 -67 -370 -81 -63 -13 -204 -44 -312 -68
-109 -23 -198 -41 -198 -38 0 3 6 10 14 16 8 6 49 37 90 69 l76 59 242 53
c134 29 354 76 491 105 233 51 247 55 247 76 0 16 -5 21 -17 18 -77 -18 -857
-184 -865 -184 -13 0 148 128 177 141 11 5 173 42 360 82 316 68 340 75 343
95 2 12 1 22 -1 22 -3 0 -141 -29 -308 -65 -166 -36 -303 -64 -305 -63 -1 2
38 34 87 71 l89 68 220 47 c208 44 220 48 220 70 0 18 -4 21 -22 17 -129 -29
-306 -65 -317 -65 -7 0 36 38 95 85 100 77 114 85 177 96 60 11 67 15 67 36 0
20 -4 23 -27 18 l-28 -6 28 21 c24 19 27 28 27 82 l0 60 -39 -31 c-21 -17 -42
-31 -45 -31 -3 0 -6 218 -6 485 l0 485 45 -7 45 -6 0 46 0 46 -45 7 c-25 3
-45 8 -45 11 0 2 20 33 45 67 37 52 45 72 45 106 l0 43 -71 -104 c-39 -57 -72
-105 -73 -105 -5 -6 -116 20 -116 27 0 5 59 94 130 198 l130 189 0 80 0 80
-47 28 c-27 15 -49 27 -50 28 0 1 -36 143 -78 316 -42 173 -78 322 -81 331 -3
12 8 18 48 27 28 7 55 9 58 5 4 -5 38 -138 76 -296 l69 -289 3 89 c2 77 -3
113 -48 296 -27 114 -50 211 -50 216 0 5 21 13 48 17 l47 9 3 49 c3 46 2 48
-20 43 -13 -3 -50 -11 -83 -18 l-61 -12 -184 108 c-102 60 -282 165 -400 235
-118 69 -310 182 -427 250 l-212 124 21 36 c12 19 29 43 38 54 20 21 -80 76
853 -472 463 -272 477 -280 477 -252 0 25 -12 35 -142 111 -79 45 -332 193
-563 329 -231 136 -457 268 -503 294 l-82 48 16 27 c9 15 24 37 33 50 l17 22
539 -316 c297 -175 572 -337 612 -360 l71 -44 1 128 c1 119 0 128 -18 127 -18
-1 -104 91 -96 104 2 4 29 12 60 19 43 10 55 16 55 32 0 23 -7 23 -85 4 -33
-8 -62 -14 -65 -15 -8 0 -79 86 -82 100 -2 8 37 22 112 40 100 23 115 30 118
48 2 12 0 22 -3 22 -4 0 -66 -14 -138 -31 l-132 -30 -42 48 c-24 26 -43 51
-43 55 0 5 114 34 338 85 15 4 22 13 22 28 0 21 -2 22 -37 14 -21 -5 -111 -26
-199 -47 l-162 -39 -28 36 c-16 19 -37 45 -47 57 l-17 22 127 30 c71 17 181
42 246 57 106 25 117 30 117 50 0 21 -4 21 -261 -39 l-261 -60 -30 34 c-40 48
-61 80 -57 85 10 10 538 127 572 127 l37 -1 0 107 0 107 -256 325 c-140 179
-289 368 -331 420 l-75 95 69 16 c45 11 72 13 80 7 7 -6 77 -92 155 -192 394
-503 358 -461 358 -414 0 31 -27 70 -230 328 -127 161 -229 294 -228 295 2 2
29 10 60 18 l58 15 170 -215 c166 -210 170 -214 170 -176 0 34 -16 58 -140
215 -77 98 -140 180 -140 182 0 5 102 28 106 24 9 -10 143 -179 156 -199 l17
-24 0 40 c1 34 -8 51 -59 114 -59 74 -65 91 -32 91 9 0 34 5 55 11 36 10 37
12 37 54 0 25 -3 45 -7 45 -4 0 -344 -73 -757 -161 l-750 -161 -33 38 c-17 21
-31 40 -29 41 2 2 647 141 1366 295 187 40 205 46 208 66 2 12 1 22 -1 22 -3
0 -361 -76 -796 -170 -436 -93 -798 -170 -806 -170 -13 0 -81 77 -74 85 2 2
110 26 239 54 129 27 498 107 820 176 322 69 593 128 603 131 17 5 25 44 8 44
-5 0 -49 -9 -98 -20 -147 -33 -1525 -328 -1568 -336 -39 -7 -38 -5 53 66 52
40 108 76 125 81 18 4 361 78 762 164 402 86 731 158 733 160 2 2 2 12 0 22
-3 19 -8 18 -133 -9 -795 -171 -1297 -278 -1301 -278 -3 0 36 32 87 72 l93 71
625 135 c344 74 627 135 629 137 2 2 2 12 0 22 -3 18 -40 11 -573 -103 -313
-68 -574 -122 -579 -120 -5 1 8 15 30 31 21 16 61 47 88 69 l49 40 491 106
c462 99 491 107 494 128 2 12 2 22 0 22 -2 0 -201 -43 -443 -95 -241 -52 -440
-93 -442 -91 -3 3 147 123 172 138 6 4 159 38 340 77 182 39 340 73 353 76 23
6 32 45 10 45 -7 0 -146 -29 -308 -64 -162 -35 -296 -63 -298 -61 -2 1 39 34
90 72 l93 70 180 37 c253 53 255 53 255 76 0 23 -5 24 -63 10 -140 -32 -280
-61 -283 -57 -3 2 21 24 53 48 32 24 78 60 103 80 30 24 64 41 100 49 87 19
90 20 90 42 0 17 -5 19 -26 15 l-26 -5 26 25 c22 20 26 32 26 79 0 60 1 60
-57 16 l-33 -24 0 490 c0 389 3 491 13 488 6 -3 27 -7 45 -10 l32 -5 0 49 c0
48 -1 50 -27 51 -63 1 -65 9 -16 80 36 55 44 74 41 104 l-3 37 -69 -101 c-42
-61 -75 -101 -85 -100 -9 0 -37 6 -62 12 l-45 12 133 195 134 194 -3 80 -3 80
-45 26 -45 26 -76 304 c-41 168 -78 317 -82 332 -7 25 -4 28 34 38 22 6 48 10
57 8 13 -2 33 -68 88 -293 l72 -290 1 90 c1 76 -7 122 -49 295 -27 113 -50
208 -50 212 0 3 23 11 50 18 l50 12 0 48 0 47 -81 -19 -80 -19 -82 47 c-45 26
-190 111 -322 189 -132 78 -371 219 -532 314 l-292 173 36 53 c32 49 37 53 57
43 11 -6 118 -68 236 -138 510 -302 1052 -620 1056 -620 2 0 4 11 4 25 0 19
-10 32 -43 51 -146 86 -445 262 -797 468 -223 131 -415 244 -427 252 l-22 14
30 45 c17 25 34 45 39 45 5 0 82 -43 172 -96 90 -53 228 -135 308 -182 212
-124 407 -239 560 -329 74 -44 145 -85 157 -91 21 -12 21 -12 22 113 1 117 0
125 -18 125 -18 0 -107 98 -97 107 3 3 28 10 58 17 43 9 54 16 56 34 4 26 4
26 -73 7 -33 -8 -65 -14 -72 -15 -18 0 -98 101 -85 109 6 3 61 17 121 30 104
23 111 26 111 49 0 15 -5 22 -12 19 -7 -2 -70 -17 -140 -32 l-126 -28 -29 33
c-38 45 -56 71 -52 74 2 2 67 18 144 35 219 51 215 49 215 71 0 11 -6 20 -12
20 -7 -1 -96 -21 -198 -45 l-185 -43 -38 41 c-69 77 -80 68 156 122 285 65
277 62 277 85 0 11 -6 20 -12 20 -7 -1 -123 -27 -258 -59 l-245 -59 -47 52
c-26 28 -46 55 -45 61 5 14 526 135 570 132 l37 -3 0 102 c0 124 -3 134 -42
134 -30 0 -30 0 -13 -26 9 -14 15 -27 13 -28 -2 -1 -27 -17 -56 -35 -47 -30
-54 -32 -65 -18 -7 8 -28 36 -47 61 -27 34 -42 45 -63 46 -32 0 -31 -4 20 -67
19 -24 29 -43 22 -43 -6 0 -52 5 -101 12 -89 12 -90 12 -120 55 -25 33 -38 43
-60 43 -25 0 -27 -3 -19 -18 5 -10 17 -24 25 -32 30 -24 16 -26 -76 -13 -78
11 -96 17 -113 38 -13 16 -31 25 -48 25 -25 0 -27 -2 -16 -21 11 -20 9 -21
-22 -16 -19 4 -53 9 -77 13 -23 4 -45 11 -48 15 -3 5 -32 9 -66 9 l-60 0 26
-35 27 -35 -48 -75 c-26 -41 -52 -74 -57 -75 -5 0 -7 48 -4 110 l6 110 -24 0
-24 0 0 -147 0 -148 -54 -82 c-29 -45 -56 -80 -59 -77 -2 3 -2 106 0 229 5
219 5 225 -14 225 -17 0 -21 -9 -27 -61 -3 -34 -6 -154 -6 -267 l0 -206 -47
-73 c-27 -40 -51 -73 -55 -73 -4 0 -4 153 -1 340 6 335 6 340 -14 340 -19 0
-20 -9 -26 -197 -4 -108 -7 -278 -7 -377 l0 -181 -61 -90 -61 -90 6 468 6 467
-25 0 -24 0 -1 -337 c-1 -186 -3 -413 -5 -505 l-4 -168 -51 -75 c-28 -41 -53
-75 -57 -75 -3 0 -2 261 2 580 l7 580 -21 0 c-20 0 -21 -5 -22 -87 0 -49 -4
-327 -8 -620 l-8 -532 -53 -80 c-29 -45 -55 -81 -57 -81 -5 0 4 863 13 1188
l6 212 -26 0 -26 0 0 -193 c0 -107 -3 -438 -7 -736 l-6 -543 -55 -84 c-30 -47
-56 -83 -58 -82 -2 2 1 283 6 623 5 341 10 709 10 818 0 186 -1 197 -19 197
-20 0 -23 -80 -37 -1210 l-7 -505 -45 -67 c-25 -38 -48 -68 -51 -68 -3 0 -5
91 -3 202 1 112 6 528 10 926 l7 722 -47 0 -48 0 0 -35 c0 -19 -3 -35 -7 -35
-5 0 -102 16 -218 35 -166 27 -236 35 -335 34 l-125 -1 340 -57 340 -56 3 -70
3 -70 -420 70 c-231 38 -422 73 -426 76 -3 3 24 29 61 58 l67 51 -77 0 -77 0
-88 -70 c-49 -38 -92 -70 -96 -70 -5 0 -5 32 -1 70 l6 70 -56 0 c-37 0 -53 -4
-49 -11 10 -15 -6 -342 -15 -332 -5 4 -29 65 -54 135 -74 205 -75 208 -101
208 l-23 0 33 -87 c19 -49 58 -155 87 -238 l53 -150 -9 -148 c-5 -81 -11 -145
-14 -142 -5 5 -21 47 -73 195 -16 47 -69 193 -117 325 -78 213 -90 240 -111
243 -28 4 -43 52 131 -428 76 -212 140 -389 141 -394 2 -11 -66 -34 -103 -35
-22 -1 -28 7 -52 77 -14 42 -65 185 -113 317 -179 497 -166 465 -191 465 l-23
0 38 -107 c21 -60 89 -245 149 -413 61 -168 113 -317 117 -331 6 -24 3 -27
-40 -38 -26 -7 -50 -10 -52 -7 -5 5 -37 90 -247 659 l-88 237 -49 0 c-27 0
-49 -2 -49 -4 0 -2 9 -26 20 -52 12 -26 19 -53 18 -59 -2 -8 -109 3 -358 37
-195 26 -409 55 -475 63 -74 10 -173 15 -259 13 l-139 -3 479 -64 c263 -35
546 -74 629 -85 l150 -21 22 -62 c20 -58 21 -63 5 -63 -9 0 -217 27 -462 60
-245 33 -580 78 -745 101 -165 22 -361 48 -435 59 -74 10 -209 28 -300 40 -91
11 -173 25 -182 30 -26 14 -172 12 -186 -2 -9 -9 -15 -9 -24 0 -7 7 -25 12
-40 12 -28 0 -28 0 -12 -25 9 -14 15 -27 13 -29 -2 -1 -26 -18 -53 -36 l-49
-33 -26 29 c-14 16 -38 44 -52 62 -20 26 -32 33 -53 30 l-28 -3 43 -54 43 -54
-45 6 c-24 4 -68 10 -97 13 -47 6 -58 12 -90 50 -27 34 -43 44 -65 44 l-29 0
26 -34 c14 -19 26 -36 26 -39 0 -2 -42 3 -92 11 -77 11 -96 18 -111 38 -12 16
-29 24 -48 24 -27 0 -29 -2 -18 -21z"/>
<path fill="#ffffff" stroke="none" d="M2029 12655 c592 -80 1093 -148 1113
-151 34 -5 39 -10 58 -60 24 -67 25 -73 3 -68 -10 2 -166 25 -348 49 -181 25
-505 70 -720 99 -214 30 -595 82 -845 116 -250 34 -461 64 -469 66 -9 3 14 23
55 49 38 25 71 45 73 45 3 0 489 -65 1080 -145z"/>
<path fill="#ffffff" stroke="none" d="M6560 12709 c47 -7 88 -15 93 -19 4 -3
-29 -14 -74 -24 -78 -17 -82 -17 -101 1 -11 10 -24 26 -29 35 -12 22 -6 22
111 7z"/>
<path fill="#ffffff" stroke="none" d="M4507 12630 c235 -38 438 -72 451 -75
20 -5 22 -11 22 -71 l0 -66 -27 6 c-16 3 -246 42 -513 86 -267 44 -489 81
-494 83 -9 3 113 106 126 107 4 0 200 -31 435 -70z"/>
<path fill="#ffffff" stroke="none" d="M6423 12585 l32 -40 -35 21 c-19 12
-56 34 -82 49 -27 15 -48 29 -48 31 0 3 8 16 17 31 l17 26 33 -39 c19 -22 48
-57 66 -79z"/>
<path fill="#ffffff" stroke="none" d="M513 12656 c54 -8 100 -16 102 -18 2
-2 -98 -27 -223 -56 l-227 -53 -33 37 c-17 21 -30 39 -28 41 9 9 242 61 276
62 19 0 79 -6 133 -13z"/>
<path fill="#ffffff" stroke="none" d="M6942 12655 c56 -9 103 -17 104 -18 1
-1 -102 -26 -229 -55 l-231 -54 -18 24 c-38 47 -40 57 -16 63 13 3 66 16 118
29 116 29 143 30 272 11z"/>
<path fill="#ffffff" stroke="none" d="M943 12596 c92 -12 169 -25 172 -27 2
-3 -118 -33 -268 -67 -150 -35 -336 -78 -415 -96 l-142 -33 -40 46 c-21 26
-40 53 -42 61 -2 9 69 30 262 76 146 34 274 63 285 63 11 0 95 -10 188 -23z"/>
<path fill="#ffffff" stroke="none" d="M6411 12516 c125 -73 139 -85 208 -169
41 -49 70 -88 65 -85 -114 62 -464 273 -464 279 0 18 33 60 45 57 7 -2 72 -39
146 -82z"/>
<path fill="#ffffff" stroke="none" d="M1420 12530 c74 -11 149 -20 165 -21
26 0 27 -2 10 -9 -11 -6 -274 -68 -585 -140 -311 -72 -572 -133 -581 -136 -11
-3 -31 14 -59 51 -24 31 -41 57 -39 59 2 2 103 27 224 55 121 28 321 76 445
105 124 30 239 54 255 55 17 0 91 -8 165 -19z"/>
<path fill="#ffffff" stroke="none" d="M4453 12463 l527 -86 0 -69 c0 -37 -3
-68 -7 -68 -28 1 -1064 177 -1068 182 -8 8 6 128 14 128 3 0 243 -39 534 -87z"/>
<path fill="#ffffff" stroke="none" d="M6495 12317 l280 -164 78 -93 c43 -51
76 -94 74 -96 -4 -4 -765 440 -780 455 -5 5 2 25 14 44 17 26 28 33 39 27 8
-5 141 -83 295 -173z"/>
<path fill="#ffffff" stroke="none" d="M1932 12459 c79 -11 144 -22 145 -23 2
-1 -30 -10 -70 -19 -39 -9 -382 -89 -761 -177 -379 -89 -696 -160 -704 -158
-15 3 -98 95 -91 101 2 2 204 50 449 107 245 56 526 122 625 146 99 23 199 43
222 43 23 1 106 -8 185 -20z"/>
<path fill="#ffffff" stroke="none" d="M2395 12396 c88 -13 153 -26 145 -29
-8 -4 -150 -38 -315 -76 -165 -39 -572 -133 -905 -211 -333 -78 -619 -144
-635 -146 -27 -5 -35 0 -74 46 -24 28 -41 53 -39 55 4 5 104 28 958 227 239
55 487 113 550 128 63 16 124 28 135 28 11 0 92 -10 180 -22z"/>
<path fill="#ffffff" stroke="none" d="M6338 12249 c114 -67 272 -160 351
-206 365 -214 340 -196 446 -326 54 -65 96 -120 94 -122 -4 -3 -4 -4 -794 460
-104 62 -234 137 -287 169 -54 31 -98 59 -98 63 0 19 57 92 68 88 8 -3 107
-60 220 -126z"/>
<path fill="#ffffff" stroke="none" d="M4485 12277 l490 -82 3 -67 c2 -60 0
-68 -15 -67 -10 0 -254 40 -543 88 -516 85 -525 87 -528 110 -2 13 -1 44 3 68
l6 45 47 -7 c26 -4 268 -43 537 -88z"/>
<path fill="#ffffff" stroke="none" d="M2882 12329 c87 -12 157 -23 155 -25
-2 -2 -334 -80 -738 -174 -404 -94 -907 -211 -1119 -261 -212 -49 -390 -88
-396 -87 -13 3 -95 100 -90 105 8 9 1964 461 1995 462 19 1 106 -9 193 -20z"/>
<path fill="#ffffff" stroke="none" d="M3240 12280 c18 0 57 -76 45 -88 -5 -5
-197 -50 -1050 -248 -203 -47 -415 -96 -470 -109 -430 -102 -836 -195 -853
-195 -12 0 -36 18 -58 46 -44 53 -42 56 50 74 33 7 122 28 196 45 74 18 389
92 700 164 311 72 745 174 965 225 225 53 413 93 429 90 16 -2 36 -4 46 -4z"/>
<path fill="#ffffff" stroke="none" d="M4457 12099 l513 -84 0 -57 c0 -49 -3
-58 -17 -57 -10 0 -254 39 -543 87 l-525 87 -3 34 c-2 19 -1 45 3 58 5 21 11
24 33 21 15 -2 258 -42 539 -89z"/>
<path fill="#ffffff" stroke="none" d="M3325 12104 c9 -25 13 -49 9 -53 -5 -4
-151 -40 -324 -80 -276 -64 -507 -118 -1100 -256 -80 -18 -310 -72 -512 -119
-201 -47 -374 -86 -383 -86 -14 0 -67 52 -76 74 -2 5 10 13 26 18 38 10 1289
302 1750 409 72 16 231 54 355 83 124 30 228 54 231 55 4 1 14 -20 24 -45z"/>
<path fill="#ffffff" stroke="none" d="M4413 11945 c281 -47 522 -87 535 -90
20 -5 22 -11 22 -65 0 -33 -4 -60 -8 -60 -5 0 -33 5 -63 10 -61 12 -1017 170
-1025 170 -4 0 0 93 5 118 2 5 36 -1 534 -83z"/>
<path fill="#ffffff" stroke="none" d="M3382 11929 c-4 -4 -88 -26 -187 -49
-99 -23 -331 -77 -515 -121 -184 -44 -375 -89 -425 -100 -49 -12 -182 -44
-295 -71 -113 -27 -270 -64 -350 -83 -80 -19 -223 -52 -318 -74 -95 -23 -178
-41 -185 -41 -12 0 -72 68 -65 75 2 2 164 41 843 200 55 13 237 55 405 94 168
39 476 111 685 160 l380 89 17 -36 c9 -21 14 -40 10 -43z"/>
<path fill="#ffffff" stroke="none" d="M6101 11799 c151 -89 360 -212 464
-274 105 -62 246 -145 314 -185 83 -49 119 -75 110 -80 -8 -4 -48 -15 -89 -24
l-76 -17 -159 94 c-88 52 -326 192 -530 312 -203 119 -373 219 -377 222 -6 3
59 113 67 113 2 0 126 -73 276 -161z"/>
<path fill="#ffffff" stroke="none" d="M3772 11847 c-4 -74 47 24 -528 -1024
-86 -158 -155 -273 -163 -273 -33 0 -141 23 -141 30 0 4 19 43 43 86 24 44 60
108 79 144 19 36 116 211 214 390 98 179 224 408 279 510 l101 184 45 12 c72
20 74 18 71 -59z"/>
<path fill="#ffffff" stroke="none" d="M3585 11863 c-3 -10 -49 -97 -102 -193
-53 -96 -208 -379 -344 -629 -136 -249 -250 -455 -252 -457 -8 -9 -142 23
-140 33 1 6 36 71 76 145 41 73 93 169 117 213 24 44 75 139 115 210 39 72
134 244 210 382 75 139 143 257 151 264 10 8 131 43 168 48 4 1 5 -7 1 -16z"/>
<path fill="#ffffff" stroke="none" d="M4433 11774 l537 -89 0 -61 0 -61 -87
14 c-49 8 -297 49 -553 91 l-465 77 -3 39 c-4 50 6 89 21 83 7 -2 254 -44 550
-93z"/>
<path fill="#ffffff" stroke="none" d="M3304 11733 c-26 -49 -55 -101 -64
-118 -10 -16 -31 -55 -47 -85 -206 -378 -354 -649 -388 -710 -23 -41 -58 -105
-78 -141 l-37 -67 -37 8 c-21 4 -54 11 -74 14 l-37 6 305 558 c167 306 310
563 317 570 11 11 136 48 174 51 8 1 -6 -34 -34 -86z"/>
<path fill="#ffffff" stroke="none" d="M5997 11652 c147 -87 374 -221 503
-296 129 -76 239 -141 243 -146 5 -4 -28 -16 -73 -28 l-82 -20 -451 265 c-249
146 -458 271 -465 278 -11 10 -8 20 18 59 17 25 33 46 35 46 2 0 125 -71 272
-158z"/>
<path fill="#ffffff" stroke="none" d="M3100 11756 c0 -6 -592 -1090 -600
-1099 -7 -8 -160 11 -160 20 0 2 84 158 187 346 103 188 230 421 282 517 l96
175 85 22 c86 22 110 26 110 19z"/>
<path fill="#ffffff" stroke="none" d="M2840 11694 c0 -3 -56 -108 -124 -232
-68 -125 -190 -348 -270 -497 -81 -148 -151 -273 -154 -277 -7 -7 -138 15
-148 25 -3 3 14 40 39 84 24 43 57 103 73 133 17 30 113 207 214 392 l184 337
80 19 c92 22 106 24 106 16z"/>
<path fill="#ffffff" stroke="none" d="M4108 11660 c130 -21 251 -42 267 -45
57 -10 580 -95 588 -95 4 0 7 -26 5 -57 -2 -45 -6 -58 -18 -56 -38 5 -1058
174 -1077 178 -20 5 -23 12 -23 60 0 32 4 55 11 55 6 0 117 -18 247 -40z"/>
<path fill="#ffffff" stroke="none" d="M6074 11410 c240 -140 436 -258 436
-261 0 -3 -32 -13 -71 -22 l-72 -17 -151 88 c-460 269 -622 366 -633 376 -10
8 -6 21 15 53 15 24 30 42 34 40 4 -1 203 -117 442 -257z"/>
<path fill="#ffffff" stroke="none" d="M3749 11491 l-11 -161 -132 -242 c-73
-134 -169 -308 -213 -388 -44 -80 -85 -154 -91 -166 -11 -20 -14 -21 -82 -9
-39 7 -72 14 -75 17 -2 2 22 51 54 109 86 154 516 939 535 977 10 19 20 32 22
29 3 -2 0 -77 -7 -166z"/>
<path fill="#ffffff" stroke="none" d="M2590 11637 c0 -7 -491 -902 -499 -910
-7 -7 -161 10 -161 18 0 3 384 705 432 789 l33 60 85 22 c83 22 110 27 110 21z"/>
<path fill="#ffffff" stroke="none" d="M2330 11575 c0 -9 -433 -800 -444 -812
-8 -8 -28 -8 -76 -1 -36 6 -67 12 -68 14 -2 1 98 176 223 388 l226 385 62 15
c73 17 77 17 77 11z"/>
<path fill="#ffffff" stroke="none" d="M4419 11450 c298 -49 543 -90 546 -90
3 0 5 -29 5 -63 l0 -64 -82 14 c-288 46 -998 164 -1020 169 -27 5 -28 8 -28
65 0 52 2 59 20 59 10 0 262 -40 559 -90z"/>
<path fill="#ffffff" stroke="none" d="M5955 11297 c176 -103 324 -192 328
-196 8 -8 -66 -31 -108 -33 -11 -1 -103 47 -205 106 -267 156 -453 265 -469
275 -12 8 -10 16 12 50 l28 41 47 -27 c26 -15 191 -112 367 -216z"/>
<path fill="#ffffff" stroke="none" d="M2024 11446 c-21 -36 -41 -62 -45 -58
-8 9 -29 95 -24 100 5 5 99 29 103 26 2 -1 -13 -32 -34 -68z"/>
<path fill="#ffffff" stroke="none" d="M1925 11399 l19 -82 -34 -63 c-19 -35
-36 -64 -39 -64 -5 0 -59 215 -65 255 -1 8 61 32 90 34 6 1 19 -36 29 -80z"/>
<path fill="#ffffff" stroke="none" d="M1795 11289 c20 -83 34 -161 31 -172
-3 -12 -21 -46 -40 -76 l-33 -54 -52 213 c-28 117 -50 214 -49 216 5 4 73 22
90 23 13 1 24 -29 53 -150z"/>
<path fill="#ffffff" stroke="none" d="M1662 11165 l57 -235 -35 -61 c-20 -33
-38 -59 -40 -57 -4 4 -129 515 -136 553 -2 16 5 22 42 31 25 6 47 9 49 7 3 -2
31 -109 63 -238z"/>
<path fill="#ffffff" stroke="none" d="M4903 11200 l67 -12 0 -58 c0 -32 -4
-61 -8 -64 -5 -3 -182 24 -393 59 -211 35 -463 77 -559 92 l-175 29 -3 53 c-2
30 -1 59 1 65 4 11 286 -33 1070 -164z"/>
<path fill="#ffffff" stroke="none" d="M5513 11333 l37 -23 -53 -78 c-64 -92
-100 -145 -400 -582 -127 -184 -240 -349 -253 -366 l-22 -30 -61 10 c-34 5
-61 14 -61 19 0 8 126 197 583 874 167 247 144 230 230 176z"/>
<path fill="#ffffff" stroke="none" d="M1475 11298 c9 -40 43 -181 76 -312
l58 -239 -35 -64 c-20 -34 -39 -65 -43 -68 -5 -2 -13 19 -19 48 -6 28 -45 191
-87 360 -41 170 -75 313 -75 317 0 8 60 27 91 29 12 1 21 -18 34 -71z"/>
<path fill="#ffffff" stroke="none" d="M1313 11285 c5 -22 47 -194 93 -382 46
-188 84 -347 84 -353 0 -14 -73 -140 -80 -140 -3 0 -14 35 -24 78 -10 42 -58
240 -107 439 -49 200 -89 367 -89 373 0 12 57 29 90 27 20 -2 26 -9 33 -42z"/>
<path fill="#ffffff" stroke="none" d="M1153 11243 c8 -32 61 -247 118 -477
l102 -419 -34 -64 c-19 -34 -37 -63 -41 -63 -3 0 -21 60 -38 133 -18 72 -74
304 -126 515 -52 210 -94 388 -94 396 0 11 34 24 91 35 4 0 13 -25 22 -56z"/>
<path fill="#ffffff" stroke="none" d="M5656 11249 l54 -30 -73 -105 c-39 -57
-105 -152 -145 -212 -178 -261 -455 -664 -467 -680 -3 -3 -137 19 -143 24 -3
2 164 248 499 736 41 59 103 150 139 203 36 52 69 95 74 95 5 0 33 -14 62 -31z"/>
<path fill="#ffffff" stroke="none" d="M999 11223 c6 -21 21 -85 35 -143 39
-164 195 -801 206 -841 5 -20 10 -40 10 -43 0 -8 -107 50 -128 68 -7 7 -19 39
-27 72 -156 635 -215 879 -215 890 0 11 53 29 97 33 7 1 17 -16 22 -36z"/>
<path fill="#ffffff" stroke="none" d="M839 11183 c38 -140 211 -866 208 -870
-2 -2 -35 14 -72 36 l-68 39 -98 399 c-54 219 -98 401 -99 405 0 7 65 25 97
27 18 1 24 -7 32 -36z"/>
<path fill="#ffffff" stroke="none" d="M3721 11047 l-10 -144 -111 -204 c-62
-112 -115 -207 -118 -210 -6 -6 -131 9 -140 17 -2 1 35 74 83 161 48 87 135
245 193 352 58 107 108 189 110 183 2 -6 -1 -76 -7 -155z"/>
<path fill="#ffffff" stroke="none" d="M4415 11107 l550 -92 -3 -60 c-2 -33
-5 -61 -6 -62 -2 -2 -1061 173 -1108 183 -27 5 -28 8 -28 65 0 55 2 59 23 58
12 0 270 -42 572 -92z"/>
<path fill="#ffffff" stroke="none" d="M5807 11163 c36 -19 51 -33 48 -42 -6
-16 -611 -899 -630 -919 -9 -11 -25 -11 -78 -2 -37 7 -67 13 -67 15 0 3 326
480 523 765 43 63 93 136 111 162 17 26 33 48 36 48 3 0 28 -12 57 -27z"/>
<path fill="#ffffff" stroke="none" d="M704 11023 c21 -87 62 -257 92 -377 29
-121 53 -221 51 -222 -1 -1 -31 15 -67 37 l-65 39 -81 327 -81 328 36 12 c77
25 73 29 115 -144z"/>
<path fill="#ffffff" stroke="none" d="M574 10873 c37 -153 71 -290 76 -305
12 -37 -1 -36 -75 10 l-59 37 -62 253 -61 252 41 11 c23 5 46 12 51 14 6 2 13
4 16 4 4 1 37 -124 73 -276z"/>
<path fill="#ffffff" stroke="none" d="M6969 11013 c18 -75 52 -215 76 -310
l42 -173 -57 31 c-31 18 -63 37 -72 43 -12 9 -128 452 -132 505 -1 12 30 24
105 40 3 0 20 -61 38 -136z"/>
<path fill="#ffffff" stroke="none" d="M403 10883 c30 -126 54 -230 52 -231
-2 -2 -35 15 -73 37 l-69 41 -42 176 c-24 96 -41 177 -40 178 4 3 88 23 105
25 7 0 35 -95 67 -226z"/>
<path fill="#ffffff" stroke="none" d="M6832 10883 c30 -126 54 -229 53 -231
-4 -4 -134 69 -140 78 -7 12 -85 327 -85 344 0 12 57 31 101 35 12 1 27 -48
71 -226z"/>
<path fill="#ffffff" stroke="none" d="M5961 11073 c32 -18 48 -33 46 -43 -3
-13 -101 -157 -294 -435 -19 -27 -95 -138 -169 -246 l-134 -196 -65 12 c-37 7
-68 14 -69 16 -5 5 623 919 631 919 3 0 27 -12 54 -27z"/>
<path fill="#ffffff" stroke="none" d="M217 10930 c18 -74 32 -141 33 -148 0
-9 -24 -1 -67 24 -38 20 -70 38 -71 40 -5 4 -53 196 -50 199 7 5 94 23 108 21
10 -1 24 -41 47 -136z"/>
<path fill="#ffffff" stroke="none" d="M6619 11033 c27 -101 61 -256 57 -260
-2 -3 -35 14 -73 36 l-69 41 -23 96 c-13 52 -22 97 -20 99 4 3 86 22 106 24 7
1 17 -16 22 -36z"/>
<path fill="#ffffff" stroke="none" d="M4402 10939 c304 -50 554 -92 556 -94
2 -2 -10 -22 -27 -45 -16 -23 -31 -46 -34 -53 -2 -8 -164 15 -545 78 l-542 89
0 58 c0 51 2 58 20 58 11 0 268 -41 572 -91z"/>
<path fill="#ffffff" stroke="none" d="M6461 10955 c10 -38 17 -70 16 -71 -3
-3 -169 96 -181 106 -8 8 107 40 133 37 9 -1 21 -28 32 -72z"/>
<path fill="#ffffff" stroke="none" d="M6123 10979 l48 -30 -44 -62 c-24 -34
-77 -111 -118 -170 -41 -60 -81 -119 -89 -130 -8 -12 -79 -116 -158 -232 -80
-115 -149 -215 -156 -221 -14 -15 -138 5 -134 21 6 22 583 855 593 855 6 0 32
-14 58 -31z"/>
<path fill="#ffffff" stroke="none" d="M6271 10895 c32 -17 47 -30 43 -38 -4
-7 -42 -61 -84 -122 -69 -99 -248 -360 -391 -568 -43 -63 -57 -77 -74 -73 -11
3 -39 8 -63 12 -23 4 -41 11 -39 17 6 20 542 796 550 797 4 0 30 -11 58 -25z"/>
<path fill="#ffffff" stroke="none" d="M4362 10779 l497 -82 -17 -29 c-9 -15
-26 -40 -38 -55 l-21 -27 -469 78 c-258 43 -479 80 -491 83 -21 5 -23 11 -23
65 l0 60 33 -5 c17 -4 256 -43 529 -88z"/>
<path fill="#ffffff" stroke="none" d="M6422 10806 l47 -27 -62 -89 c-34 -49
-145 -211 -247 -360 l-185 -270 -45 7 c-103 14 -107 -4 47 218 76 110 183 265
237 345 121 177 146 211 155 206 3 -2 27 -15 53 -30z"/>
<path fill="#ffffff" stroke="none" d="M3703 10748 c-2 -18 -7 -90 -11 -160
-5 -70 -11 -131 -15 -134 -6 -6 -147 15 -147 22 0 10 164 304 170 304 3 0 5
-15 3 -32z"/>
<path fill="#ffffff" stroke="none" d="M6570 10721 c25 -15 44 -34 44 -42 -1
-8 -100 -157 -220 -332 l-219 -319 -50 7 c-67 8 -96 16 -93 24 13 30 475 691
483 690 6 0 30 -13 55 -28z"/>
<path fill="#ffffff" stroke="none" d="M4285 10625 c253 -42 463 -77 467 -78
11 -3 -65 -117 -79 -117 -28 0 -879 142 -884 148 -3 4 -3 35 -1 68 3 51 6 61
20 58 9 -2 224 -38 477 -79z"/>
<path fill="#ffffff" stroke="none" d="M2349 10579 l656 -111 58 -56 c31 -31
53 -58 48 -60 -8 -3 -309 52 -1091 198 -314 58 -361 68 -366 72 -5 5 27 68 35
68 2 0 299 -50 660 -111z"/>
<path fill="#ffffff" stroke="none" d="M6726 10630 l53 -31 -123 -177 c-67
-97 -160 -233 -206 -301 l-84 -123 -61 7 c-33 3 -63 10 -68 14 -7 7 33 68 267
406 61 88 122 177 136 198 14 20 27 37 29 37 2 0 27 -14 57 -30z"/>
<path fill="#ffffff" stroke="none" d="M1860 10535 c107 -20 245 -45 305 -56
61 -11 315 -58 565 -105 l455 -84 70 -71 c65 -66 68 -70 40 -65 -16 3 -250 46
-520 96 -608 112 -945 175 -1097 203 l-117 22 31 53 c25 44 34 53 52 48 11 -3
109 -21 216 -41z"/>
<path fill="#ffffff" stroke="none" d="M6920 10513 c0 -7 -340 -505 -362 -529
-17 -19 -23 -20 -78 -11 -33 5 -60 13 -60 17 0 4 39 64 88 133 48 70 138 201
200 291 l113 165 49 -30 c28 -17 50 -33 50 -36z"/>
<path fill="#ffffff" stroke="none" d="M4218 10459 c235 -39 429 -72 430 -74
2 -2 -10 -24 -27 -48 l-30 -44 -408 69 c-224 38 -408 70 -408 71 -3 5 8 97 11
97 2 0 196 -32 432 -71z"/>
<path fill="#ffffff" stroke="none" d="M596 10459 l54 -31 -18 -26 c-11 -15
-88 -127 -172 -250 -143 -209 -154 -223 -179 -218 -14 3 -43 8 -64 12 -22 4
-37 11 -35 18 3 14 351 525 357 526 2 0 28 -14 57 -31z"/>
<path fill="#ffffff" stroke="none" d="M7027 10456 l52 -29 -43 -61 c-23 -33
-98 -142 -166 -241 -67 -99 -126 -183 -129 -187 -8 -9 -143 12 -139 22 9 21
364 529 368 527 3 -1 29 -15 57 -31z"/>
<path fill="#ffffff" stroke="none" d="M3289 10420 c91 -15 118 -24 134 -42
11 -13 66 -70 121 -128 56 -58 144 -150 196 -205 52 -56 142 -150 199 -210 58
-61 137 -144 176 -185 39 -41 156 -165 260 -275 105 -110 260 -274 345 -365
199 -212 315 -334 468 -494 72 -74 121 -134 118 -141 -3 -8 -8 -30 -12 -49 -3
-20 -10 -38 -13 -41 -4 -2 -73 62 -152 143 -176 179 -807 828 -873 897 -27 28
-138 142 -249 255 -197 200 -453 462 -712 728 -71 72 -127 132 -125 132 3 0
56 -9 119 -20z"/>
<path fill="#ffffff" stroke="none" d="M2460 10264 l905 -167 63 -61 c34 -33
58 -62 54 -64 -11 -3 -1960 356 -1984 366 -16 6 -15 11 10 49 15 24 32 43 37
43 6 0 417 -74 915 -166z"/>
<path fill="#ffffff" stroke="none" d="M744 10374 c25 -14 46 -29 46 -33 0 -5
-63 -100 -141 -212 -77 -112 -144 -210 -148 -217 -6 -11 -20 -11 -74 -2 l-66
12 111 161 c60 89 133 197 162 239 28 43 54 78 57 78 4 0 27 -12 53 -26z"/>
<path fill="#ffffff" stroke="none" d="M7172 10373 c27 -15 47 -32 44 -39 -2
-6 -51 -79 -107 -160 -57 -82 -122 -176 -145 -209 -40 -58 -42 -60 -81 -57
-22 2 -52 6 -67 10 -26 7 -25 9 112 207 75 110 148 217 162 238 14 20 27 37
29 37 2 0 25 -12 53 -27z"/>
<path fill="#ffffff" stroke="none" d="M3609 10365 c52 -9 102 -22 111 -28 8
-7 143 -147 300 -312 355 -375 443 -468 545 -575 44 -47 157 -166 250 -265 94
-99 254 -269 358 -377 103 -109 187 -203 187 -209 0 -11 -26 -121 -35 -146 -2
-7 -41 27 -87 75 -45 48 -116 123 -158 167 -42 44 -123 130 -180 190 -163 171
-248 261 -361 380 -89 95 -394 417 -424 449 -11 12 -104 110 -396 416 -225
237 -249 265 -224 257 11 -3 62 -13 114 -22z"/>
<path fill="#ffffff" stroke="none" d="M4473 9821 c248 -262 490 -516 537
-566 47 -49 130 -137 185 -195 55 -58 128 -134 162 -170 l62 -65 -21 -84 -21
-84 -75 79 c-41 43 -114 120 -161 169 -47 50 -158 167 -247 260 -88 94 -369
391 -624 660 -255 270 -468 492 -472 493 -4 2 -8 7 -8 11 0 4 52 -2 116 -13
l117 -20 450 -475z"/>
<path fill="#ffffff" stroke="none" d="M885 10293 c25 -16 45 -32 45 -36 0 -5
-29 -50 -63 -101 -35 -50 -92 -133 -127 -184 -35 -51 -67 -95 -71 -97 -7 -5
-109 12 -116 19 -3 2 41 71 97 153 56 81 121 176 144 210 22 35 42 63 43 63 1
0 23 -12 48 -27z"/>
<path fill="#ffffff" stroke="none" d="M1880 10220 c212 -39 504 -93 650 -120
146 -27 436 -81 645 -120 l380 -71 57 -56 c32 -31 56 -58 54 -60 -1 -2 -72 10
-157 26 -85 17 -545 102 -1024 191 -1069 198 -1065 197 -1072 203 -2 3 6 24
19 46 17 32 28 40 43 37 11 -3 193 -37 405 -76z"/>
<path fill="#ffffff" stroke="none" d="M4223 10261 c60 -10 114 -24 121 -32 7
-8 102 -108 212 -224 321 -339 568 -599 579 -611 25 -28 176 -187 253 -266
l85 -86 -18 -74 c-10 -40 -21 -77 -25 -81 -3 -4 -28 16 -55 45 -27 29 -80 87
-120 128 -39 41 -280 296 -535 565 -254 270 -499 527 -544 573 -44 45 -76 82
-71 82 6 0 59 -9 118 -19z"/>
<path fill="#ffffff" stroke="none" d="M1033 10207 l38 -23 -103 -150 c-57
-83 -110 -160 -118 -171 -14 -19 -20 -20 -72 -11 l-57 10 91 131 c49 73 106
156 126 185 19 28 40 52 46 52 6 0 28 -10 49 -23z"/>
<path fill="#ffffff" stroke="none" d="M4537 10209 c81 -12 83 -13 136 -68
214 -225 780 -824 811 -858 l38 -42 -18 -77 -18 -76 -56 59 c-30 32 -138 146
-240 253 -102 107 -221 233 -265 279 -128 137 -271 288 -380 401 -55 58 -109
116 -120 129 l-20 24 25 -6 c14 -3 62 -11 107 -18z"/>
<path fill="#ffffff" stroke="none" d="M4844 10156 c72 -12 82 -17 121 -57 23
-24 169 -178 325 -342 l282 -298 -7 -42 c-4 -23 -12 -60 -19 -81 l-11 -40
-364 385 c-201 211 -389 410 -420 442 l-56 58 35 -6 c19 -3 70 -12 114 -19z"/>
<path fill="#ffffff" stroke="none" d="M1572 10135 c100 -19 608 -113 1128
-209 520 -97 961 -178 980 -182 24 -5 55 -26 98 -67 63 -59 63 -60 30 -54 -18
3 -537 94 -1153 202 l-1119 198 -86 50 c-47 27 -86 51 -88 53 -4 3 17 44 22
44 2 0 87 -16 188 -35z"/>
<path fill="#ffffff" stroke="none" d="M1199 10112 c11 -8 -1 -30 -54 -108
-138 -201 -131 -193 -173 -187 -91 15 -92 5 4 143 47 69 97 142 111 162 l25
37 37 -19 c20 -11 42 -23 50 -28z"/>
<path fill="#ffffff" stroke="none" d="M5145 10106 l80 -14 75 -80 c41 -44
132 -141 202 -214 l126 -133 -17 -72 c-9 -40 -19 -75 -23 -78 -3 -3 -21 12
-39 33 -19 22 -151 162 -293 311 -235 247 -256 272 -225 266 19 -3 70 -12 114
-19z"/>
<path fill="#ffffff" stroke="none" d="M1312 10045 l48 -27 -77 -111 c-42 -62
-79 -115 -83 -120 -5 -6 -120 10 -128 18 -6 5 180 275 187 271 3 -2 27 -15 53
-31z"/>
<path fill="#ffffff" stroke="none" d="M5422 10059 l67 -11 94 -98 94 -98 -16
-61 c-8 -34 -18 -61 -22 -61 -4 0 -82 79 -175 176 -143 150 -164 176 -139 171
17 -4 60 -12 97 -18z"/>
<path fill="#ffffff" stroke="none" d="M5662 10019 l55 -11 -10 -42 c-5 -22
-13 -44 -17 -49 -6 -7 -31 18 -94 91 -23 26 -16 27 66 11z"/>
<path fill="#ffffff" stroke="none" d="M1449 9968 c20 -12 38 -23 40 -25 5 -3
-59 -102 -100 -154 l-29 -36 -52 9 c-29 5 -54 11 -56 13 -5 5 143 214 152 215
5 0 25 -10 45 -22z"/>
<path fill="#ffffff" stroke="none" d="M5923 9974 l27 -6 0 -1058 0 -1058 -52
-39 c-29 -22 -59 -43 -65 -47 -10 -6 -13 219 -13 1110 l0 1116 38 -6 c20 -4
49 -9 65 -12z"/>
<path fill="#ffffff" stroke="none" d="M2350 9835 c360 -63 831 -146 1045
-184 215 -38 413 -73 440 -77 44 -6 58 -15 115 -70 36 -34 63 -65 60 -67 -3
-3 -50 3 -105 13 -131 25 -347 63 -1240 220 l-740 131 -132 75 c-127 72 -155
92 -115 80 9 -3 312 -57 672 -121z"/>
<path fill="#ffffff" stroke="none" d="M6108 9943 l22 -5 0 -973 0 -973 -35
-26 c-19 -14 -51 -38 -70 -52 l-35 -26 0 1037 0 1037 48 -7 c26 -3 57 -9 70
-12z"/>
<path fill="#ffffff" stroke="none" d="M6278 9915 c9 -4 12 -192 12 -902 l-1
-898 -46 -35 c-26 -19 -53 -39 -60 -43 -11 -7 -13 166 -13 943 l0 951 48 -6
c26 -4 53 -8 60 -10z"/>
<path fill="#ffffff" stroke="none" d="M1589 9888 c20 -12 38 -23 39 -24 5 -3
-54 -92 -80 -120 -17 -19 -23 -20 -71 -11 -29 5 -53 11 -55 12 -6 5 110 165
120 165 6 0 27 -10 47 -22z"/>
<path fill="#ffffff" stroke="none" d="M6433 9890 c16 0 17 -46 17 -823 l0
-824 -42 -33 c-24 -18 -49 -38 -55 -43 -10 -8 -13 167 -13 863 l0 873 38 -7
c20 -3 45 -6 55 -6z"/>
<path fill="#ffffff" stroke="none" d="M190 9115 l0 -743 -48 -38 c-26 -20
-53 -42 -59 -47 -10 -8 -13 152 -13 790 l0 800 60 -10 60 -10 0 -742z"/>
<path fill="#ffffff" stroke="none" d="M6620 9115 l0 -742 -60 -46 c-33 -26
-61 -47 -63 -47 -1 0 -1 357 1 792 1 436 2 796 2 799 0 3 27 1 60 -4 l60 -10
0 -742z"/>
<path fill="#ffffff" stroke="none" d="M5780 8811 l0 -1050 -55 58 -55 58 0
783 0 783 52 208 c29 115 53 209 55 209 2 0 3 -472 3 -1049z"/>
<path fill="#ffffff" stroke="none" d="M320 9834 l30 -6 0 -666 0 -667 -54
-43 c-30 -23 -57 -42 -60 -42 -3 0 -6 324 -6 721 l0 721 30 -6 c17 -3 44 -9
60 -12z"/>
<path fill="#ffffff" stroke="none" d="M6750 9834 l30 -6 0 -663 0 -663 -42
-37 c-86 -74 -78 -147 -78 665 l0 722 30 -6 c17 -3 44 -9 60 -12z"/>
<path fill="#ffffff" stroke="none" d="M1779 9775 c1 -2 -10 -21 -25 -42 -16
-21 -29 -39 -29 -40 -1 -3 -129 18 -133 22 -1 1 16 30 39 63 l41 60 52 -30
c28 -17 53 -32 55 -33z"/>
<path fill="#ffffff" stroke="none" d="M503 9803 c4 -2 7 -269 7 -592 l0 -589
-47 -38 c-27 -20 -54 -42 -60 -47 -10 -8 -13 122 -13 638 l0 647 53 -7 c28 -4
55 -9 60 -12z"/>
<path fill="#ffffff" stroke="none" d="M6928 9805 c9 -4 12 -131 12 -593 l0
-589 -60 -47 -60 -47 0 646 0 646 48 -6 c26 -4 53 -8 60 -10z"/>
<path fill="#ffffff" stroke="none" d="M634 9784 l46 -7 0 -513 0 -513 -60
-46 -60 -46 0 565 c0 471 2 566 14 566 7 0 34 -3 60 -6z"/>
<path fill="#ffffff" stroke="none" d="M7103 9773 c4 -2 7 -232 7 -511 l0
-507 -60 -47 c-32 -27 -62 -48 -65 -48 -3 0 -5 255 -5 566 l0 566 58 -7 c31
-4 60 -9 65 -12z"/>
<path fill="#ffffff" stroke="none" d="M798 9755 l42 -7 0 -436 -1 -437 -46
-35 c-25 -19 -52 -39 -59 -43 -12 -7 -14 71 -14 483 0 463 1 491 18 486 9 -2
36 -8 60 -11z"/>
<path fill="#ffffff" stroke="none" d="M1975 9663 c14 -9 15 -13 5 -13 -20 0
-194 31 -198 35 -2 2 6 17 19 34 l22 30 66 -36 c36 -20 75 -42 86 -50z"/>
<path fill="#ffffff" stroke="none" d="M970 9724 l29 -5 1 -359 0 -359 -53
-41 c-30 -22 -57 -40 -60 -40 -4 0 -7 185 -7 411 l0 411 30 -6 c17 -3 43 -9
60 -12z"/>
<path fill="#ffffff" stroke="none" d="M3075 9554 l1000 -177 43 -45 c23 -24
41 -46 39 -48 -2 -2 -134 19 -293 46 -276 46 -1228 208 -1476 249 -109 18
-124 24 -225 82 -124 71 -121 69 -102 69 8 0 464 -79 1014 -176z"/>
<path fill="#ffffff" stroke="none" d="M1153 9693 c4 -2 7 -131 7 -286 l0
-282 -55 -42 c-30 -24 -57 -43 -60 -43 -3 0 -5 151 -5 336 l0 336 53 -7 c28
-4 55 -9 60 -12z"/>
<path fill="#ffffff" stroke="none" d="M1279 9674 l31 -6 0 -213 0 -212 -47
-37 c-25 -20 -49 -36 -53 -36 -4 0 -8 115 -9 255 l-2 255 24 0 c14 0 39 -3 56
-6z"/>
<path fill="#ffffff" stroke="none" d="M1448 9645 c9 -3 12 -41 12 -144 l0
-139 -50 -42 -50 -42 0 192 0 191 38 -6 c20 -4 43 -8 50 -10z"/>
<path fill="#ffffff" stroke="none" d="M1590 9609 c5 -7 7 -42 5 -78 -3 -64
-3 -66 -49 -104 l-46 -39 0 122 0 123 41 -6 c23 -3 45 -11 49 -18z"/>
<path fill="#ffffff" stroke="none" d="M1726 9600 c36 0 30 -11 -31 -58 l-55
-43 0 57 0 57 31 -7 c17 -3 42 -6 55 -6z"/>
<path fill="#ffffff" stroke="none" d="M2015 9549 c44 -6 89 -16 100 -22 16
-8 470 -402 635 -551 25 -23 74 -66 110 -97 67 -59 424 -371 614 -538 l108
-95 -27 -22 c-70 -56 -59 -60 -227 87 -325 286 -635 557 -712 624 -45 38 -160
140 -256 225 -96 85 -239 211 -318 279 -78 68 -142 126 -142 128 0 2 8 2 18
-1 9 -2 53 -10 97 -17z"/>
<path fill="#ffffff" stroke="none" d="M1897 9508 c46 -40 102 -90 163 -144
48 -44 1026 -900 1248 -1093 72 -63 132 -118 132 -121 0 -3 -23 -20 -51 -38
-44 -29 -53 -32 -67 -20 -10 8 -52 44 -95 82 -42 37 -97 84 -120 104 -42 36
-440 384 -617 541 -47 42 -115 101 -150 132 -126 109 -235 204 -270 235 -19
18 -96 86 -170 151 -74 66 -135 124 -135 130 0 12 72 73 86 73 5 0 25 -15 46
-32z"/>
<path fill="#ffffff" stroke="none" d="M2477 9424 c37 -33 77 -67 88 -77 11
-10 275 -242 588 -515 l567 -497 -26 -22 c-60 -48 -69 -49 -111 -10 -37 34
-127 113 -966 847 -223 195 -406 357 -406 360 -1 3 44 -2 99 -11 98 -16 100
-17 167 -75z"/>
<path fill="#ffffff" stroke="none" d="M2789 9371 c36 -31 140 -122 231 -202
91 -80 316 -277 500 -438 184 -161 336 -297 338 -301 1 -4 -20 -22 -48 -40
l-51 -33 -27 25 c-15 14 -175 155 -357 314 -709 619 -875 765 -875 768 0 2 50
-6 112 -16 l111 -19 66 -58z"/>
<path fill="#ffffff" stroke="none" d="M2046 9150 c153 -135 314 -276 358
-314 45 -39 83 -73 86 -76 3 -3 184 -162 403 -353 218 -191 397 -351 397 -356
0 -4 -22 -22 -48 -38 l-49 -30 -409 364 c-225 201 -445 398 -489 438 -44 40
-106 95 -137 121 -167 144 -517 460 -517 469 0 6 16 22 36 37 l36 27 27 -22
c15 -12 153 -132 306 -267z"/>
<path fill="#ffffff" stroke="none" d="M2948 9390 l114 -19 76 -67 c42 -37
247 -216 455 -398 l377 -331 0 -40 c-1 -34 -6 -43 -34 -61 l-32 -21 -235 206
c-130 113 -373 327 -542 475 -169 148 -307 270 -307 272 0 6 8 5 128 -16z"/>
<path fill="#ffffff" stroke="none" d="M3680 9050 l308 -270 -5 -67 c-3 -38
-5 -71 -6 -76 -1 -4 -31 18 -67 49 -163 142 -760 667 -760 669 0 1 50 -7 111
-17 l112 -19 307 -269z"/>
<path fill="#ffffff" stroke="none" d="M1648 9235 l32 -29 -142 -32 c-79 -17
-161 -34 -183 -38 l-40 -6 29 22 c16 12 70 54 120 94 l91 71 30 -26 c17 -14
45 -39 63 -56z"/>
<path fill="#ffffff" stroke="none" d="M3598 9280 c99 -17 118 -23 150 -51 20
-18 85 -75 145 -127 l107 -95 -1 -56 c-3 -129 15 -136 -249 95 -262 229 -289
254 -275 254 6 0 61 -9 123 -20z"/>
<path fill="#ffffff" stroke="none" d="M5630 8588 l0 -672 -60 59 -60 59 0
386 0 385 57 228 c31 125 58 227 60 227 2 0 3 -302 3 -672z"/>
<path fill="#ffffff" stroke="none" d="M4008 9210 c1 0 2 -32 2 -71 0 -40 -4
-69 -9 -67 -16 5 -191 159 -191 167 0 4 44 -1 98 -10 53 -10 98 -18 100 -19z"/>
<path fill="#ffffff" stroke="none" d="M4233 9171 c15 -6 5 -17 -55 -63 l-73
-57 -3 56 c-5 82 -1 86 61 78 28 -4 60 -11 70 -14z"/>
<path fill="#ffffff" stroke="none" d="M1780 9120 c59 -53 60 -52 -30 -69 -30
-5 -203 -42 -384 -81 -180 -39 -330 -69 -333 -67 -2 2 42 39 97 82 l101 77
202 44 c111 25 218 48 237 53 52 13 51 14 110 -39z"/>
<path fill="#ffffff" stroke="none" d="M4357 9088 c29 -29 53 -55 53 -59 0 -4
-53 -49 -117 -100 -65 -51 -139 -110 -165 -131 l-48 -39 1 48 c1 26 4 76 8
111 l6 62 100 79 c55 44 102 80 105 80 2 1 28 -22 57 -51z"/>
<path fill="#ffffff" stroke="none" d="M1920 8994 c22 -20 38 -39 36 -41 -4
-4 -121 -30 -326 -73 -91 -19 -739 -159 -801 -174 -35 -8 -65 -13 -66 -12 -2
2 33 31 78 65 92 72 49 59 509 158 168 36 350 76 405 88 55 12 106 23 112 24
7 0 31 -15 53 -35z"/>
<path fill="#ffffff" stroke="none" d="M4501 8938 l46 -53 -241 -187 c-132
-103 -241 -186 -242 -185 0 1 1 44 4 95 l4 93 186 145 c102 79 188 144 192
144 3 0 27 -24 51 -52z"/>
<path fill="#ffffff" stroke="none" d="M2110 8818 c0 -4 -3 -8 -6 -8 -3 0
-373 -79 -821 -176 -448 -96 -817 -174 -819 -172 -2 3 126 105 195 155 9 7
248 62 531 123 283 62 556 120 605 131 50 11 117 26 150 33 l60 12 53 -45 c28
-25 52 -48 52 -53z"/>
<path fill="#ffffff" stroke="none" d="M4645 8789 l60 -61 -25 -16 c-13 -10
-38 -28 -55 -43 -16 -14 -100 -79 -185 -145 -85 -66 -208 -162 -272 -212 -65
-51 -119 -92 -122 -92 -4 0 1 89 10 178 6 53 6 53 97 126 51 40 126 98 167
130 41 32 99 76 129 99 88 68 126 96 131 97 3 0 32 -27 65 -61z"/>
<path fill="#ffffff" stroke="none" d="M2209 8736 l43 -43 -39 -7 c-21 -4
-128 -27 -238 -51 -110 -24 -400 -87 -645 -139 -245 -53 -600 -129 -790 -170
-190 -41 -346 -73 -347 -72 -1 1 38 33 88 71 l90 69 527 113 c290 63 689 149
887 192 198 44 365 79 370 80 6 1 30 -19 54 -43z"/>
<path fill="#ffffff" stroke="none" d="M4850 8580 c0 -3 -153 -125 -341 -270
-187 -146 -370 -289 -407 -317 -37 -29 -69 -53 -72 -53 -3 0 -2 37 2 83 3 45
7 94 7 109 1 22 43 59 289 249 158 123 314 245 347 271 l59 48 58 -57 c32 -32
58 -60 58 -63z"/>
<path fill="#ffffff" stroke="none" d="M5460 8339 l0 -251 -41 39 c-66 62 -66
54 -13 269 27 107 50 194 51 194 2 0 3 -113 3 -251z"/>
<path fill="#ffffff" stroke="none" d="M4934 8491 l48 -49 -156 -121 c-492
-385 -811 -630 -814 -626 -2 2 0 43 3 92 l7 88 427 332 c234 183 428 332 431
333 3 0 27 -22 54 -49z"/>
<path fill="#ffffff" stroke="none" d="M5098 8304 c-12 -10 -675 -527 -958
-746 -69 -53 -129 -98 -134 -100 -12 -4 -8 125 4 157 7 17 399 332 649 520 14
11 100 77 190 148 l164 128 49 -48 c38 -37 45 -50 36 -59z"/>
<path fill="#ffffff" stroke="none" d="M3956 8303 c-3 -38 -6 -93 -6 -122 0
-67 -10 -59 -43 34 -14 39 -28 77 -31 86 -5 10 5 24 31 42 21 15 42 27 47 27
5 0 6 -30 2 -67z"/>
<path fill="#ffffff" stroke="none" d="M3885 8147 c48 -137 49 -145 46 -237
-2 -51 -6 -103 -10 -114 -6 -14 -30 44 -89 208 -45 125 -82 229 -82 231 0 5
73 55 80 55 3 0 27 -64 55 -143z"/>
<path fill="#ffffff" stroke="none" d="M5188 8237 c23 -23 42 -47 41 -52 0
-11 -1241 -976 -1247 -971 -2 2 0 42 4 89 l7 84 434 339 c240 187 463 360 497
386 33 26 95 74 136 107 41 33 77 60 80 60 3 1 25 -18 48 -42z"/>
<path fill="#ffffff" stroke="none" d="M3814 7925 c90 -251 96 -275 95 -340
-2 -107 -14 -222 -21 -205 -6 14 -143 395 -239 662 l-38 106 47 31 c26 17 49
27 53 23 3 -4 50 -128 103 -277z"/>
<path fill="#ffffff" stroke="none" d="M5317 8101 l42 -47 -616 -479 c-339
-264 -652 -508 -695 -542 -43 -35 -78 -59 -79 -55 -6 57 5 151 19 170 17 23
1272 1003 1282 1001 3 -1 24 -22 47 -48z"/>
<path fill="#ffffff" stroke="none" d="M3592 8073 c9 -27 79 -223 157 -437
l141 -388 -11 -152 c-6 -83 -12 -152 -13 -154 -4 -3 -50 122 -141 378 -36 102
-72 201 -80 220 -20 48 -173 477 -177 495 -2 12 83 83 103 84 3 1 12 -20 21
-46z"/>
<path fill="#ffffff" stroke="none" d="M3444 7968 c24 -70 257 -714 306 -848
21 -58 55 -150 74 -205 l37 -100 -7 -125 c-11 -191 -13 -193 -63 -54 -24 65
-81 223 -127 349 -202 557 -344 953 -344 961 0 8 88 72 100 73 3 1 14 -23 24
-51z"/>
<path fill="#ffffff" stroke="none" d="M5445 7970 c47 -48 49 -51 30 -64 -11
-8 -357 -277 -770 -599 l-750 -584 -3 36 c-1 20 1 63 5 95 l8 59 710 553 c391
305 712 554 715 554 3 0 28 -23 55 -50z"/>
<path fill="#ffffff" stroke="none" d="M3402 7585 c65 -182 134 -373 153 -425
18 -52 88 -246 155 -430 l121 -335 -6 -157 c-4 -87 -10 -158 -14 -158 -3 0
-37 87 -75 193 -38 105 -81 226 -97 267 -15 41 -68 188 -118 325 -49 138 -146
406 -215 597 -69 190 -128 357 -131 370 -4 19 3 28 42 55 27 17 52 31 57 29 4
-1 62 -150 128 -331z"/>
<path fill="#ffffff" stroke="none" d="M5609 7795 c0 -5 -111 -96 -247 -200
-136 -105 -511 -397 -834 -648 -322 -251 -588 -457 -591 -457 -3 0 -4 8 -2 18
2 9 4 47 4 83 l1 65 282 220 c155 120 352 273 437 340 86 66 316 245 511 397
l354 277 43 -42 c24 -23 43 -47 42 -53z"/>
<path fill="#ffffff" stroke="none" d="M2980 7840 c-52 -40 -69 -45 -87 -27
-19 19 -16 20 52 36 59 13 62 12 35 -9z"/>
<path fill="#ffffff" stroke="none" d="M2849 7793 l21 -26 -41 -28 -42 -27
-21 26 c-51 64 -51 60 -4 70 64 14 65 14 87 -15z"/>
<path fill="#ffffff" stroke="none" d="M3246 7500 c62 -173 131 -364 153 -425
22 -60 108 -299 191 -530 84 -231 167 -460 184 -510 31 -86 32 -94 25 -185 -4
-52 -8 -117 -8 -144 -1 -59 -10 -52 -39 29 -11 33 -80 224 -153 425 -153 425
-293 813 -447 1240 -61 168 -115 317 -120 331 -10 25 -8 29 36 57 26 17 51 29
56 28 5 -1 60 -143 122 -316z"/>
<path fill="#ffffff" stroke="none" d="M2703 7741 c20 -26 37 -51 37 -54 0 -9
-79 -61 -84 -56 -17 17 -96 124 -96 129 0 4 24 12 53 17 28 6 52 11 52 12 1 0
18 -21 38 -48z"/>
<path fill="#ffffff" stroke="none" d="M5689 7719 c18 -22 31 -42 28 -45 -2
-3 -38 -31 -79 -62 -95 -73 -300 -231 -605 -469 -133 -103 -295 -229 -360
-280 -65 -50 -260 -202 -433 -337 l-315 -245 -3 32 c-1 18 1 51 5 74 8 42 13
46 863 708 470 366 857 665 860 665 3 0 20 -19 39 -41z"/>
<path fill="#ffffff" stroke="none" d="M2520 7728 c10 -13 36 -46 59 -75 l42
-52 -45 -31 -45 -31 -68 87 c-37 47 -69 89 -71 94 -2 6 62 26 97 29 7 0 21 -9
31 -21z"/>
<path fill="#ffffff" stroke="none" d="M3133 7323 c80 -225 252 -700 382
-1058 129 -357 236 -656 238 -664 2 -14 -83 -44 -111 -38 -13 2 -49 97 -282
742 -395 1098 -479 1331 -482 1342 -3 10 85 81 103 82 3 1 71 -182 152 -406z"/>
<path fill="#ffffff" stroke="none" d="M2411 7615 c41 -53 72 -99 69 -103 -2
-4 -22 -19 -44 -33 l-39 -27 -92 117 -93 116 36 12 c76 24 83 21 163 -82z"/>
<path fill="#ffffff" stroke="none" d="M2262 7555 l97 -124 -41 -30 c-23 -17
-46 -31 -50 -31 -10 0 -221 265 -219 277 1 7 76 29 106 31 6 1 54 -55 107
-123z"/>
<path fill="#ffffff" stroke="none" d="M2100 7495 c63 -80 115 -149 115 -154
0 -5 -23 -25 -52 -45 l-52 -36 -48 63 c-26 34 -83 107 -127 162 -44 55 -83
105 -88 111 -6 8 9 16 49 26 32 9 65 16 73 17 9 0 65 -61 130 -144z"/>
<path fill="#ffffff" stroke="none" d="M2935 7358 c54 -150 183 -509 287 -798
105 -289 203 -561 218 -605 15 -44 53 -149 84 -233 31 -84 56 -158 56 -166 0
-10 -89 -40 -97 -32 -3 3 -61 158 -293 786 -466 1264 -462 1253 -448 1261 7 4
29 19 48 33 19 14 38 25 41 26 3 0 50 -123 104 -272z"/>
<path fill="#ffffff" stroke="none" d="M1931 7416 l142 -180 -23 -15 c-13 -9
-40 -26 -61 -39 l-38 -22 -155 197 c-86 109 -156 200 -156 204 0 6 128 38 142
35 4 0 71 -82 149 -180z"/>
<path fill="#ffffff" stroke="none" d="M1722 7375 c73 -93 146 -187 162 -207
l27 -37 -56 -37 c-48 -32 -58 -35 -69 -23 -63 68 -346 443 -339 449 11 11 92
29 119 27 15 -1 63 -55 156 -172z"/>
<path fill="#ffffff" stroke="none" d="M1396 7493 c14 -22 271 -349 326 -415
l39 -47 -53 -35 c-41 -28 -55 -33 -64 -23 -52 56 -394 501 -389 506 7 6 89 28
115 30 8 0 20 -7 26 -16z"/>
<path fill="#ffffff" stroke="none" d="M2668 7458 c39 -105 47 -96 -73 -80
-58 8 -105 18 -105 21 0 4 144 106 157 110 1 1 10 -23 21 -51z"/>
<path fill="#ffffff" stroke="none" d="M1292 7341 c228 -286 313 -394 316
-402 3 -7 -87 -74 -92 -67 -1 1 -70 89 -152 193 -82 105 -180 228 -216 275
-37 47 -69 89 -70 95 -2 8 60 28 104 34 4 1 54 -57 110 -128z"/>
<path fill="#ffffff" stroke="none" d="M1211 7184 c107 -135 211 -268 231
-294 l38 -48 -50 -32 c-27 -17 -54 -29 -60 -25 -15 9 -478 598 -479 610 -1 9
70 31 110 34 10 1 92 -95 210 -245z"/>
<path fill="#ffffff" stroke="none" d="M945 7243 c275 -350 385 -491 385 -496
0 -12 -102 -69 -109 -61 -5 5 -95 119 -202 254 -106 135 -223 283 -260 330
-37 47 -66 87 -64 89 5 4 103 29 122 30 6 1 64 -65 128 -146z"/>
<path fill="#ffffff" stroke="none" d="M2594 7335 c60 -8 113 -15 117 -15 10
0 43 -89 36 -97 -7 -7 -437 49 -437 57 0 3 26 22 58 42 44 29 64 37 87 33 17
-3 79 -12 139 -20z"/>
<path fill="#ffffff" stroke="none" d="M915 6997 l274 -347 -39 -26 c-21 -14
-43 -23 -49 -20 -10 6 -550 688 -564 713 -5 8 7 15 35 21 24 6 49 9 56 9 6 -1
136 -158 287 -350z"/>
<path fill="#ffffff" stroke="none" d="M5479 7310 l22 -30 -14 -1048 -14
-1047 -56 -85 -57 -85 0 80 c0 44 7 558 15 1143 l14 1063 23 19 c31 26 41 25
67 -10z"/>
<path fill="#ffffff" stroke="none" d="M741 6978 c327 -416 319 -405 319 -411
0 -10 -83 -58 -94 -54 -9 4 -344 425 -608 764 -7 8 3 14 34 21 86 20 66 38
349 -320z"/>
<path fill="#ffffff" stroke="none" d="M605 6886 c169 -214 309 -395 312 -402
2 -7 -17 -27 -43 -45 -36 -24 -51 -30 -63 -22 -9 6 -161 194 -338 419 l-322
409 67 16 c37 9 70 16 74 15 3 0 144 -176 313 -390z"/>
<path fill="#ffffff" stroke="none" d="M5332 6108 l-14 -1153 -59 -90 -60 -90
6 320 c8 443 25 1769 25 1942 l0 142 53 40 c28 23 54 41 57 41 3 0 -1 -519 -8
-1152z"/>
<path fill="#ffffff" stroke="none" d="M2513 7204 c144 -19 262 -36 263 -37
13 -27 35 -100 30 -104 -5 -5 -100 7 -539 67 -77 10 -141 20 -143 23 -4 4 115
87 124 87 2 0 121 -16 265 -36z"/>
<path fill="#ffffff" stroke="none" d="M5604 7158 l48 -58 -6 -632 c-4 -348
-9 -727 -12 -843 l-4 -210 -53 -76 -52 -77 -3 62 c-2 33 1 414 7 846 6 432 11
848 11 925 0 76 4 135 8 130 5 -6 30 -36 56 -67z"/>
<path fill="#ffffff" stroke="none" d="M6606 7133 c253 -319 578 -733 586
-747 5 -9 -10 -25 -47 -50 l-54 -36 -54 68 c-91 115 -418 530 -535 680 -62 78
-112 146 -112 151 0 9 74 27 117 30 16 1 41 -24 99 -96z"/>
<path fill="#ffffff" stroke="none" d="M6417 7078 c285 -358 585 -743 590
-755 4 -11 1 -14 -13 -10 -10 3 -41 8 -69 12 -104 13 -97 7 -229 173 -347 438
-515 656 -512 660 6 5 105 29 127 31 10 1 54 -46 106 -111z"/>
<path fill="#ffffff" stroke="none" d="M6160 7103 c19 -26 160 -204 312 -397
152 -193 276 -352 274 -354 -2 -1 -44 3 -93 9 l-90 12 -40 51 c-22 28 -153
194 -292 370 -138 175 -250 320 -248 322 3 3 115 30 137 33 3 0 21 -21 40 -46z"/>
<path fill="#ffffff" stroke="none" d="M5186 6838 c-3 -167 -11 -712 -17
-1213 l-11 -910 -44 -67 c-24 -37 -47 -69 -51 -71 -5 -3 -5 263 -1 591 4 329
10 890 14 1247 l7 650 46 37 c25 20 50 37 55 37 5 1 6 -131 2 -301z"/>
<path fill="#ffffff" stroke="none" d="M2461 7060 c205 -28 374 -52 374 -53 6
-9 45 -126 45 -132 0 -4 -24 -5 -52 -2 -70 8 -863 115 -907 123 l-34 5 79 54
c44 30 89 54 101 54 11 1 189 -22 394 -49z"/>
<path fill="#ffffff" stroke="none" d="M6212 6742 c153 -194 278 -354 278
-355 0 -2 -33 2 -74 8 l-74 10 -276 335 -275 335 47 12 c90 22 71 39 374 -345z"/>
<path fill="#ffffff" stroke="none" d="M5772 6953 l41 -54 -7 -616 -7 -616
-51 -76 c-28 -42 -55 -80 -60 -86 -6 -6 -7 244 -2 690 5 385 8 732 9 772 0 83
2 82 77 -14z"/>
<path fill="#ffffff" stroke="none" d="M4990 6919 l0 -71 -67 7 c-38 4 -72 10
-76 14 -6 6 126 119 141 121 1 0 2 -32 2 -71z"/>
<path fill="#ffffff" stroke="none" d="M2152 6920 c161 -21 394 -53 517 -70
124 -16 228 -33 232 -37 9 -9 49 -114 49 -127 0 -4 -10 -6 -22 -3 -13 3 -297
42 -633 88 -335 45 -612 84 -615 86 -3 2 2 8 10 13 8 5 40 26 70 48 30 22 65
41 77 41 12 1 154 -17 315 -39z"/>
<path fill="#ffffff" stroke="none" d="M5923 6767 l39 -46 -7 -418 -7 -418
-46 -65 c-25 -36 -48 -69 -52 -73 -9 -10 -3 773 6 973 5 96 9 121 18 109 6 -8
28 -36 49 -62z"/>
<path fill="#ffffff" stroke="none" d="M4895 6816 c39 -7 76 -16 83 -20 7 -4
12 -29 12 -57 0 -59 8 -57 -164 -29 -173 30 -167 25 -100 76 62 48 66 49 169
30z"/>
<path fill="#ffffff" stroke="none" d="M1935 6775 c149 -20 443 -59 654 -88
l383 -52 24 -65 c13 -36 24 -67 24 -70 0 -6 -120 10 -890 114 -228 31 -469 64
-535 72 -66 9 -126 18 -133 20 -8 2 22 28 65 58 61 42 85 54 108 51 17 -2 152
-20 300 -40z"/>
<path fill="#ffffff" stroke="none" d="M4803 6671 c92 -15 173 -33 178 -38 7
-7 8 -29 4 -57 -7 -44 -9 -47 -34 -42 -14 3 -111 20 -216 36 -104 17 -199 35
-209 39 -17 6 -13 13 35 49 30 23 59 42 64 42 6 0 86 -13 178 -29z"/>
<path fill="#ffffff" stroke="none" d="M1773 6620 c205 -28 503 -69 662 -90
160 -22 344 -47 410 -56 212 -27 194 -20 221 -93 13 -35 24 -68 24 -73 0 -6
-19 -7 -47 -4 -331 43 -1818 248 -1821 251 -5 4 159 115 171 115 5 0 176 -23
380 -50z"/>
<path fill="#ffffff" stroke="none" d="M6063 6600 l47 -58 0 -206 0 -206 -52
-80 c-29 -44 -57 -80 -62 -80 -5 0 -6 45 -3 107 4 58 7 213 7 345 0 131 3 238
8 237 4 0 28 -26 55 -59z"/>
<path fill="#ffffff" stroke="none" d="M4723 6528 l257 -42 0 -68 c0 -66 -1
-68 -22 -63 -13 3 -160 28 -328 56 -167 27 -306 51 -308 54 -5 5 121 104 133
105 6 0 126 -19 268 -42z"/>
<path fill="#ffffff" stroke="none" d="M2150 6381 c41 -6 125 -17 185 -25 61
-9 260 -36 444 -61 184 -25 335 -46 336 -48 8 -13 45 -121 42 -124 -2 -2 -37
1 -78 7 -1249 169 -2064 282 -2067 285 -2 2 29 26 70 53 l75 48 459 -63 c252
-34 493 -67 534 -72z"/>
<path fill="#ffffff" stroke="none" d="M6253 6364 c7 -12 -77 -146 -95 -153
-8 -2 -6 194 2 267 0 3 83 -98 93 -114z"/>
<path fill="#ffffff" stroke="none" d="M4973 6310 c4 0 7 -31 7 -70 0 -38 -2
-70 -4 -70 -8 0 -789 130 -818 136 -16 3 -28 9 -28 13 0 4 31 30 70 58 l69 50
348 -58 c191 -33 351 -59 356 -59z"/>
<path fill="#ffffff" stroke="none" d="M2130 6215 c267 -36 604 -82 750 -101
146 -19 274 -39 285 -43 19 -8 63 -107 52 -117 -4 -4 -472 58 -1207 161 -135
19 -443 61 -685 95 -242 33 -458 63 -480 67 l-40 8 71 46 71 45 349 -48 c192
-26 567 -77 834 -113z"/>
<path fill="#ffffff" stroke="none" d="M6572 6280 c49 -7 85 -16 82 -21 -3 -5
-15 -9 -27 -9 -12 0 -47 -7 -77 -15 l-55 -15 -27 32 c-34 39 -35 48 -5 43 12
-2 61 -9 109 -15z"/>
<path fill="#ffffff" stroke="none" d="M4980 6063 c0 -44 -4 -63 -12 -64 -28
-1 -1028 166 -1028 172 0 3 29 29 65 56 l65 50 455 -76 455 -76 0 -62z"/>
<path fill="#ffffff" stroke="none" d="M6389 6202 c30 -34 52 -64 50 -66 -6
-6 -149 78 -149 87 0 16 33 58 40 50 3 -4 30 -36 59 -71z"/>
<path fill="#ffffff" stroke="none" d="M513 6229 c53 -7 97 -15 97 -18 0 -3
-100 -29 -223 -58 l-222 -52 -32 37 c-18 20 -32 39 -33 42 0 9 264 68 290 65
14 -2 69 -9 123 -16z"/>
<path fill="#ffffff" stroke="none" d="M6943 6229 c53 -7 97 -15 97 -18 0 -3
-100 -29 -223 -57 l-222 -52 -32 36 c-37 40 -41 52 -15 52 9 1 69 14 132 30
63 16 126 28 140 25 14 -2 69 -9 123 -16z"/>
<path fill="#ffffff" stroke="none" d="M948 6169 c89 -12 162 -25 162 -29 0
-3 -35 -13 -77 -22 -43 -10 -223 -51 -401 -93 -178 -41 -329 -75 -335 -75 -12
0 -102 108 -96 114 9 8 518 124 549 125 19 1 108 -8 198 -20z"/>
<path fill="#ffffff" stroke="none" d="M6397 6099 c137 -80 159 -98 250 -214
35 -44 41 -56 23 -44 -14 9 -119 71 -235 139 -115 67 -212 125 -215 127 -4 4
30 73 36 73 2 0 65 -36 141 -81z"/>
<path fill="#ffffff" stroke="none" d="M1448 6099 c89 -12 161 -23 160 -25 -2
-1 -109 -27 -238 -57 -755 -177 -941 -219 -953 -214 -7 3 -32 27 -55 55 l-42
50 93 21 c50 12 261 61 467 110 206 49 382 87 390 86 8 -2 88 -14 178 -26z"/>
<path fill="#ffffff" stroke="none" d="M4435 6040 c270 -44 502 -83 518 -86
26 -5 27 -7 27 -75 0 -67 -1 -69 -22 -64 -13 3 -254 43 -537 90 -283 47 -516
87 -518 89 -2 2 -1 33 3 68 5 53 10 65 23 62 9 -2 237 -40 506 -84z"/>
<path fill="#ffffff" stroke="none" d="M6272 6022 c142 -83 482 -284 499 -296
20 -14 162 -186 158 -191 -6 -5 -784 454 -787 465 -3 9 35 70 43 70 2 0 41
-22 87 -48z"/>
<path fill="#ffffff" stroke="none" d="M1920 6034 c122 -15 198 -33 147 -34
-10 0 -359 -79 -775 -176 l-756 -176 -34 38 c-62 73 -63 70 41 94 50 11 340
79 642 150 303 71 561 128 575 126 14 -3 86 -12 160 -22z"/>
<path fill="#ffffff" stroke="none" d="M2385 5970 c77 -11 146 -20 154 -20 23
0 6 -11 -31 -20 -49 -12 -378 -88 -773 -180 -192 -44 -406 -94 -475 -110 -69
-17 -233 -55 -364 -86 l-239 -55 -24 28 c-13 15 -32 40 -43 55 l-21 27 38 10
c21 6 369 87 773 181 404 94 749 175 765 180 47 13 90 11 240 -10z"/>
<path fill="#ffffff" stroke="none" d="M4908 5780 l72 -12 0 -63 c0 -35 -3
-66 -7 -68 -6 -4 -881 137 -1050 168 -29 5 -33 10 -33 38 0 18 3 48 6 68 l6
35 466 -77 c257 -42 500 -82 540 -89z"/>
<path fill="#ffffff" stroke="none" d="M6263 5867 c78 -46 221 -130 317 -187
497 -291 444 -255 552 -386 54 -65 95 -120 93 -122 -3 -4 -138 75 -877 508
-164 96 -298 178 -298 183 0 14 50 87 60 87 6 0 75 -38 153 -83z"/>
<path fill="#ffffff" stroke="none" d="M2889 5900 c79 -11 146 -21 147 -23 2
-2 -340 -82 -759 -180 -419 -97 -928 -215 -1131 -262 -202 -47 -369 -85 -370
-83 -1 2 -21 27 -45 55 -30 37 -39 54 -29 58 7 2 148 35 313 73 370 86 903
210 1340 312 182 43 344 76 360 74 17 -2 95 -13 174 -24z"/>
<path fill="#ffffff" stroke="none" d="M3239 5851 c16 -4 28 -19 38 -45 7 -22
12 -40 10 -42 -1 -2 -539 -127 -1195 -280 l-1193 -277 -44 49 c-27 31 -39 51
-31 55 6 4 391 95 856 203 465 108 987 230 1160 270 311 74 352 80 399 67z"/>
<path fill="#ffffff" stroke="none" d="M4955 5589 c17 -4 19 -11 16 -59 -1
-30 -4 -56 -5 -57 -2 -2 -1009 162 -1058 173 -25 5 -28 10 -28 49 0 24 2 50 5
57 5 12 100 -1 528 -72 287 -48 531 -89 542 -91z"/>
<path fill="#ffffff" stroke="none" d="M3326 5675 c9 -25 15 -48 12 -50 -2 -3
-364 -88 -804 -191 -439 -102 -963 -223 -1164 -270 l-365 -85 -37 42 c-20 24
-35 45 -33 47 2 2 117 30 257 62 993 231 2029 471 2058 479 56 14 57 13 76
-34z"/>
<path fill="#ffffff" stroke="none" d="M4828 5450 l142 -23 0 -62 0 -61 -442
72 c-244 40 -491 81 -550 91 l-108 17 0 47 c0 84 -33 83 413 9 221 -37 466
-78 545 -90z"/>
<path fill="#ffffff" stroke="none" d="M3375 5543 c8 -20 13 -38 11 -41 -3 -2
-519 -125 -1146 -273 l-1142 -269 -26 32 c-15 18 -27 36 -27 42 0 5 394 101
875 213 481 112 997 232 1145 267 149 35 276 65 282 65 7 1 20 -15 28 -36z"/>
<path fill="#ffffff" stroke="none" d="M6423 5184 c317 -186 577 -341 577
-344 0 -9 -168 -43 -184 -37 -8 3 -108 61 -223 128 -331 194 -838 492 -841
494 -2 2 12 26 30 54 21 33 39 50 49 48 8 -2 275 -157 592 -343z"/>
<path fill="#ffffff" stroke="none" d="M3773 5423 c-5 -73 -3 -67 -218 -458
-39 -71 -154 -281 -254 -465 -101 -184 -189 -345 -196 -356 -13 -20 -17 -21
-85 -9 -39 7 -73 15 -76 18 -3 3 117 230 267 504 150 274 311 569 358 655 84
154 87 158 126 167 84 19 83 19 78 -56z"/>
<path fill="#ffffff" stroke="none" d="M3576 5413 c-13 -21 -93 -166 -179
-323 -86 -157 -234 -429 -331 -605 l-175 -320 -48 3 c-26 1 -60 6 -75 10 l-27
7 93 170 c620 1139 570 1053 614 1064 163 41 159 41 128 -6z"/>
<path fill="#ffffff" stroke="none" d="M4392 5355 c282 -47 528 -87 546 -90
32 -6 32 -6 32 -65 0 -33 -4 -60 -10 -60 -11 0 -1032 167 -1072 176 -25 5 -28
10 -28 49 0 40 7 75 16 75 2 0 234 -38 516 -85z"/>
<path fill="#ffffff" stroke="none" d="M3327 5349 c-76 -138 -470 -859 -560
-1024 -39 -71 -71 -131 -72 -133 -5 -6 -145 23 -145 31 0 5 26 57 59 115 32
59 97 177 144 262 46 85 156 286 242 445 87 160 161 294 165 299 7 7 181 54
188 50 2 -1 -8 -21 -21 -45z"/>
<path fill="#ffffff" stroke="none" d="M6136 5145 c214 -126 421 -247 459
-270 39 -23 89 -52 113 -65 23 -13 39 -27 35 -31 -5 -4 -42 -14 -83 -23 l-76
-16 -359 211 c-198 116 -406 238 -462 271 -57 33 -103 63 -103 66 0 3 12 25
28 49 18 29 33 42 43 40 9 -3 191 -107 405 -232z"/>
<path fill="#ffffff" stroke="none" d="M2799 4777 l-302 -554 -76 14 c-42 8
-77 16 -78 17 -2 2 555 1027 562 1034 4 5 190 49 193 46 2 -1 -133 -252 -299
-557z"/>
<path fill="#ffffff" stroke="none" d="M4410 5185 c283 -47 525 -87 538 -90
20 -5 22 -12 22 -61 0 -56 0 -56 -27 -51 -16 3 -268 45 -560 93 l-533 88 0 51
c0 57 3 65 28 59 9 -2 249 -42 532 -89z"/>
<path fill="#ffffff" stroke="none" d="M2840 5266 c0 -2 -48 -91 -106 -197
-121 -220 -257 -471 -364 -669 -40 -74 -74 -137 -76 -139 -3 -3 -146 20 -153
25 -2 2 112 215 254 473 252 462 258 471 293 481 95 25 152 35 152 26z"/>
<path fill="#ffffff" stroke="none" d="M5807 5141 c92 -54 285 -167 428 -250
143 -84 264 -156 268 -161 5 -4 -24 -16 -65 -25 l-74 -18 -390 228 c-214 125
-393 231 -397 235 -9 8 40 90 54 90 4 0 83 -44 176 -99z"/>
<path fill="#ffffff" stroke="none" d="M3750 5064 l-11 -159 -178 -325 c-98
-179 -195 -356 -216 -395 -54 -100 -52 -99 -121 -85 -33 6 -64 13 -71 15 -7 2
28 76 91 192 171 312 277 506 301 548 12 22 63 116 114 208 51 93 95 166 97
164 3 -3 0 -76 -6 -163z"/>
<path fill="#ffffff" stroke="none" d="M2345 4758 c-136 -249 -249 -456 -251
-459 -2 -4 -66 4 -162 20 -2 1 11 27 29 59 17 31 119 219 227 417 107 198 198
364 202 368 7 8 192 56 199 51 1 -2 -108 -207 -244 -456z"/>
<path fill="#ffffff" stroke="none" d="M2287 5068 c-87 -162 -399 -733 -402
-737 -4 -4 -145 19 -145 24 0 1 86 148 191 326 105 178 204 348 221 376 16 29
35 56 41 60 17 11 88 31 115 32 23 1 22 -2 -21 -81z"/>
<path fill="#ffffff" stroke="none" d="M4415 5027 l550 -92 3 -64 c3 -62 3
-63 -21 -59 -13 3 -268 45 -565 94 l-542 89 0 63 c0 43 4 62 13 61 6 0 260
-42 562 -92z"/>
<path fill="#ffffff" stroke="none" d="M5920 4893 c217 -127 365 -220 358
-224 -7 -3 -36 -12 -63 -18 l-51 -12 -274 159 c-151 87 -305 175 -342 196
l-67 37 27 39 c15 22 30 39 35 40 4 0 174 -98 377 -217z"/>
<path fill="#ffffff" stroke="none" d="M2060 5086 c0 -13 -79 -136 -83 -129
-2 4 -7 25 -11 46 -4 21 -9 44 -12 51 -3 9 10 17 38 23 50 12 68 15 68 9z"/>
<path fill="#ffffff" stroke="none" d="M1923 4978 c10 -40 17 -79 17 -86 0
-16 -62 -122 -71 -122 -3 0 -16 46 -30 103 -13 56 -26 114 -30 130 -6 24 -3
28 25 36 67 20 71 17 89 -61z"/>
<path fill="#ffffff" stroke="none" d="M1793 4868 c21 -84 37 -158 37 -165 0
-13 -71 -135 -76 -131 -4 4 -104 405 -104 416 0 8 59 27 95 31 6 0 27 -68 48
-151z"/>
<path fill="#ffffff" stroke="none" d="M1662 4740 l57 -235 -36 -62 c-20 -34
-38 -61 -39 -60 -2 2 -33 124 -69 272 -36 149 -68 278 -71 287 -4 13 3 20 28
27 71 21 67 29 130 -229z"/>
<path fill="#ffffff" stroke="none" d="M1533 4634 l77 -316 -38 -64 c-20 -35
-39 -64 -42 -64 -6 0 -180 705 -180 726 0 7 21 16 48 22 26 5 49 10 52 11 3 0
40 -141 83 -315z"/>
<path fill="#ffffff" stroke="none" d="M4400 4859 c306 -50 558 -96 562 -103
13 -20 9 -116 -4 -116 -7 0 -264 41 -570 92 l-558 92 0 63 c0 35 3 63 8 63 4
0 257 -41 562 -91z"/>
<path fill="#ffffff" stroke="none" d="M5497 4917 l52 -32 -175 -255 c-97
-140 -259 -378 -362 -528 l-186 -273 -46 7 c-67 9 -82 14 -76 29 6 16 693
1043 714 1068 19 22 18 22 79 -16z"/>
<path fill="#ffffff" stroke="none" d="M1304 4893 c8 -27 154 -627 172 -705
l16 -68 -38 -65 c-21 -36 -41 -65 -44 -65 -5 0 -201 785 -216 867 -6 30 -5 32
37 41 63 14 67 14 73 -5z"/>
<path fill="#ffffff" stroke="none" d="M1149 4833 c6 -21 44 -177 86 -348 41
-170 89 -366 107 -435 l32 -126 -39 -69 c-39 -70 -39 -70 -47 -40 -54 203
-248 1020 -244 1030 4 12 27 19 78 24 12 1 20 -11 27 -36z"/>
<path fill="#ffffff" stroke="none" d="M5697 4794 c3 -9 -166 -263 -432 -646
-33 -48 -100 -146 -149 -219 l-90 -131 -52 6 c-104 12 -103 9 -26 121 308 450
470 687 537 785 112 165 98 155 158 123 27 -15 51 -33 54 -39z"/>
<path fill="#ffffff" stroke="none" d="M1080 4463 c51 -208 110 -448 131 -532
21 -85 37 -157 35 -159 -3 -2 -34 13 -70 34 l-65 38 -55 225 c-135 553 -176
723 -176 735 0 11 22 18 102 35 3 0 48 -169 98 -376z"/>
<path fill="#ffffff" stroke="none" d="M835 4778 c3 -13 50 -205 104 -428 54
-223 102 -420 106 -438 l7 -34 -53 31 c-101 57 -88 28 -188 443 -50 208 -92
387 -94 399 -2 19 6 25 43 35 64 17 69 17 75 -8z"/>
<path fill="#ffffff" stroke="none" d="M3721 4618 l-10 -143 -112 -205 c-62
-113 -113 -207 -115 -209 -4 -5 -144 20 -144 26 0 3 15 31 34 62 18 31 91 162
161 291 174 321 188 346 192 333 3 -7 0 -76 -6 -155z"/>
<path fill="#ffffff" stroke="none" d="M4410 4684 c294 -48 540 -92 547 -98 7
-7 9 -30 6 -64 -5 -51 -7 -54 -32 -50 -14 2 -270 44 -568 94 l-543 89 0 56 c0
62 5 72 35 65 11 -2 261 -44 555 -92z"/>
<path fill="#ffffff" stroke="none" d="M5854 4709 c8 -7 -32 -68 -339 -514
-83 -121 -184 -268 -225 -328 -52 -76 -78 -106 -89 -103 -9 3 -37 8 -64 12
-26 3 -49 10 -52 14 -2 4 33 60 78 126 46 65 177 256 292 424 114 168 228 333
253 367 l44 63 46 -27 c26 -14 51 -30 56 -34z"/>
<path fill="#ffffff" stroke="none" d="M757 4382 c50 -207 90 -378 88 -380 -3
-4 -124 68 -130 78 -3 4 -39 148 -81 320 -42 172 -78 319 -80 325 -5 11 52 31
96 34 12 1 36 -84 107 -377z"/>
<path fill="#ffffff" stroke="none" d="M515 4698 c3 -13 36 -150 74 -305 37
-156 67 -283 65 -283 -1 0 -33 18 -70 39 l-68 39 -62 254 -62 253 37 12 c58
18 80 16 86 -9z"/>
<path fill="#ffffff" stroke="none" d="M6940 4713 c0 -5 32 -138 70 -297 39
-159 69 -292 68 -297 -2 -4 -32 10 -68 31 l-65 38 -62 253 c-34 139 -60 255
-58 257 14 14 115 27 115 15z"/>
<path fill="#ffffff" stroke="none" d="M399 4473 c29 -120 55 -226 57 -235 4
-13 -14 -6 -69 25 l-74 41 -43 174 c-23 95 -40 175 -37 178 4 5 86 30 107 33
3 1 30 -97 59 -216z"/>
<path fill="#ffffff" stroke="none" d="M6832 4453 c31 -123 52 -223 48 -223
-4 0 -37 17 -74 38 l-65 37 -41 168 c-23 93 -39 174 -37 180 4 13 99 37 108
28 3 -3 31 -106 61 -228z"/>
<path fill="#ffffff" stroke="none" d="M5955 4654 c25 -15 49 -32 51 -39 3 -7
-85 -145 -196 -306 -111 -162 -245 -358 -298 -436 l-97 -142 -50 6 c-108 13
-124 -24 163 393 141 206 284 414 316 463 33 48 60 87 62 87 1 0 23 -12 49
-26z"/>
<path fill="#ffffff" stroke="none" d="M189 4613 c39 -149 63 -255 58 -260 -4
-3 -37 13 -74 35 l-68 40 -23 93 c-12 50 -21 94 -18 96 4 4 91 30 108 32 4 1
12 -16 17 -36z"/>
<path fill="#ffffff" stroke="none" d="M6616 4623 c3 -16 19 -81 36 -147 16
-65 28 -122 26 -126 -2 -4 -35 11 -74 34 l-71 41 -23 93 c-12 51 -20 96 -17
98 5 5 91 31 109 33 4 1 10 -11 14 -26z"/>
<path fill="#ffffff" stroke="none" d="M4390 4518 c311 -50 567 -93 569 -95 2
-1 -13 -27 -33 -56 -29 -42 -42 -53 -59 -50 -12 2 -240 39 -507 83 -267 44
-500 82 -517 85 -33 6 -33 6 -33 65 0 33 3 60 8 60 4 0 261 -41 572 -92z"/>
<path fill="#ffffff" stroke="none" d="M6450 4568 c6 -24 15 -58 20 -76 5 -18
6 -32 2 -30 -27 12 -182 104 -182 108 0 4 98 31 142 39 4 0 12 -18 18 -41z"/>
<path fill="#ffffff" stroke="none" d="M6163 4530 c5 -5 -523 -789 -558 -828
-5 -6 -111 9 -125 18 -12 7 10 42 225 352 33 48 114 166 180 263 66 97 133
194 149 216 l28 40 47 -27 c25 -15 50 -30 54 -34z"/>
<path fill="#ffffff" stroke="none" d="M6280 4465 l41 -26 -34 -47 c-19 -26
-88 -126 -154 -222 -66 -96 -170 -247 -230 -335 l-111 -160 -51 2 c-29 1 -59
6 -67 11 -12 7 34 80 232 368 313 455 306 446 320 440 7 -3 31 -17 54 -31z"/>
<path fill="#ffffff" stroke="none" d="M4334 4360 c268 -44 497 -80 507 -80
10 0 19 -2 19 -5 0 -15 -75 -115 -84 -112 -6 2 -228 39 -493 83 l-483 79 0 64
c0 61 1 63 23 58 12 -3 242 -42 511 -87z"/>
<path fill="#ffffff" stroke="none" d="M6457 4338 c-202 -295 -429 -624 -454
-659 l-33 -46 -62 11 c-35 6 -62 16 -60 21 1 6 117 177 258 382 l255 371 54
-31 c47 -28 52 -34 42 -49z"/>
<path fill="#ffffff" stroke="none" d="M3696 4218 c-4 -79 -9 -155 -12 -169
l-5 -26 -70 12 c-38 7 -71 14 -74 16 -4 5 157 308 164 309 2 0 1 -64 -3 -142z"/>
<path fill="#ffffff" stroke="none" d="M6614 4256 c-1 -8 -64 -106 -141 -218
-77 -111 -170 -248 -208 -303 -98 -144 -88 -137 -165 -124 -36 7 -67 13 -69
15 -2 2 24 45 59 96 245 359 395 576 408 590 14 17 18 16 66 -12 28 -16 50
-36 50 -44z"/>
<path fill="#ffffff" stroke="none" d="M4270 4204 c256 -41 471 -77 478 -80
21 -6 -63 -123 -85 -118 -10 2 -211 35 -447 74 -237 39 -431 72 -432 73 -4 6
9 127 15 127 3 0 215 -34 471 -76z"/>
<path fill="#ffffff" stroke="none" d="M2548 4121 l464 -78 56 -56 c31 -31 54
-58 52 -61 -3 -2 -252 42 -555 99 -302 56 -632 118 -732 136 -101 19 -183 36
-183 39 0 3 9 19 19 36 l19 31 198 -33 c110 -19 408 -69 662 -113z"/>
<path fill="#ffffff" stroke="none" d="M6726 4207 l52 -32 -102 -147 c-55 -81
-148 -216 -205 -300 -58 -84 -106 -155 -107 -157 -4 -4 -125 17 -131 23 -5 5
429 645 437 645 3 0 28 -14 56 -32z"/>
<path fill="#ffffff" stroke="none" d="M2060 4074 c223 -41 439 -81 480 -89
41 -8 147 -27 235 -44 88 -16 217 -41 286 -54 l127 -23 58 -63 c33 -35 60 -67
62 -70 1 -4 -305 50 -680 121 -376 70 -759 141 -853 158 -238 44 -220 35 -183
96 21 34 37 50 47 47 9 -2 198 -37 421 -79z"/>
<path fill="#ffffff" stroke="none" d="M6872 4123 c33 -18 47 -31 43 -41 -3
-8 -87 -133 -187 -279 l-182 -265 -56 7 c-30 4 -59 10 -64 15 -6 7 380 588
393 590 2 0 25 -12 53 -27z"/>
<path fill="#ffffff" stroke="none" d="M4628 3970 c12 0 22 -3 22 -6 0 -11
-55 -94 -62 -94 -3 0 -140 23 -305 51 -164 28 -345 58 -403 68 l-105 17 4 44
c1 25 5 48 7 51 2 3 187 -25 411 -62 224 -38 418 -69 431 -69z"/>
<path fill="#ffffff" stroke="none" d="M601 4033 c27 -16 48 -31 46 -34 -1 -3
-78 -116 -170 -251 l-169 -245 -46 8 c-101 18 -110 -10 91 284 99 146 185 265
190 265 5 0 31 -12 58 -27z"/>
<path fill="#ffffff" stroke="none" d="M7026 4034 c24 -14 44 -30 44 -35 0 -4
-74 -115 -163 -246 l-164 -238 -63 3 c-35 1 -67 5 -72 10 -6 6 27 57 223 342
36 52 80 116 98 143 17 26 37 47 42 47 6 0 30 -12 55 -26z"/>
<path fill="#ffffff" stroke="none" d="M3323 3989 l78 -12 167 -176 c92 -97
495 -523 896 -946 401 -424 756 -797 788 -831 l60 -61 -12 -44 c-6 -24 -13
-50 -15 -57 -3 -9 -799 800 -2043 2077 -34 35 -62 68 -62 72 0 4 15 4 33 -1
17 -5 67 -14 110 -21z"/>
<path fill="#ffffff" stroke="none" d="M1726 3975 c104 -19 335 -62 514 -95
179 -34 417 -78 530 -99 113 -21 296 -56 407 -77 l202 -37 63 -64 63 -64 -40
6 c-42 7 -802 148 -1160 215 -115 22 -345 65 -509 95 -165 31 -303 58 -307 61
-6 3 40 94 47 94 0 0 86 -16 190 -35z"/>
<path fill="#ffffff" stroke="none" d="M790 3916 c0 -9 -275 -414 -294 -432
-8 -7 -29 -7 -74 0 l-62 11 166 242 166 242 49 -27 c27 -15 49 -31 49 -36z"/>
<path fill="#ffffff" stroke="none" d="M7215 3914 c0 -5 -65 -105 -145 -222
l-145 -213 -65 6 c-35 3 -66 8 -68 10 -2 2 25 46 60 97 36 51 111 159 167 240
l101 147 48 -28 c26 -15 47 -32 47 -37z"/>
<path fill="#ffffff" stroke="none" d="M3625 3939 c33 -6 66 -12 73 -13 7 -1
326 -333 709 -737 382 -404 734 -774 781 -824 47 -49 106 -111 131 -137 l44
-47 -18 -81 c-10 -44 -22 -79 -26 -78 -4 2 -385 401 -846 888 -461 486 -874
922 -918 968 l-79 84 44 -6 c25 -3 72 -11 105 -17z"/>
<path fill="#ffffff" stroke="none" d="M3909 3890 l112 -21 113 -117 c61 -64
238 -250 391 -412 153 -162 315 -333 359 -380 45 -46 124 -130 176 -185 52
-55 138 -145 192 -200 141 -147 168 -178 163 -195 -2 -8 -12 -46 -21 -83 l-17
-69 -22 24 c-12 12 -150 158 -305 323 -156 165 -320 338 -365 385 -63 66 -475
501 -864 913 -19 20 -33 37 -30 37 3 0 56 -9 118 -20z"/>
<path fill="#ffffff" stroke="none" d="M891 3864 c28 -17 39 -30 35 -41 -4 -8
-63 -97 -132 -197 l-125 -182 -60 9 c-43 7 -59 14 -55 23 9 24 281 414 289
414 4 0 26 -12 48 -26z"/>
<path fill="#ffffff" stroke="none" d="M1640 3840 c91 -17 455 -85 810 -151
355 -66 750 -140 878 -164 l234 -43 48 -54 c27 -29 49 -56 50 -59 0 -3 -28 0
-62 7 -35 8 -236 46 -448 85 -212 39 -610 113 -885 164 -275 51 -580 108 -677
126 -98 18 -178 36 -178 40 0 16 42 79 53 79 7 0 86 -14 177 -30z"/>
<path fill="#ffffff" stroke="none" d="M4395 3747 c39 -39 271 -283 515 -542
245 -258 471 -498 504 -532 l58 -62 -17 -73 c-10 -40 -19 -76 -21 -80 -2 -3
-46 37 -96 90 -51 54 -129 135 -173 181 -44 46 -89 94 -100 106 -20 22 -108
114 -290 306 -55 57 -136 143 -180 190 -44 46 -159 168 -256 269 -204 215
-229 243 -229 251 0 3 48 -3 108 -13 l107 -18 70 -73z"/>
<path fill="#ffffff" stroke="none" d="M1025 3786 c22 -12 39 -28 38 -34 -2
-7 -53 -84 -114 -172 -118 -171 -112 -167 -192 -152 l-37 7 127 187 c71 103
130 187 133 187 3 1 23 -10 45 -23z"/>
<path fill="#ffffff" stroke="none" d="M4524 3785 l98 -15 81 -87 c144 -154
466 -493 646 -681 l174 -183 -17 -75 c-10 -41 -21 -74 -25 -72 -4 2 -61 59
-126 128 -65 69 -162 170 -214 225 -53 55 -168 177 -257 270 -88 94 -230 243
-315 333 -138 146 -181 197 -152 179 5 -3 53 -13 107 -22z"/>
<path fill="#ffffff" stroke="none" d="M4988 3646 c120 -125 275 -288 367
-386 49 -52 118 -124 153 -160 60 -62 63 -67 58 -105 -3 -22 -11 -60 -18 -83
l-13 -44 -159 169 c-265 280 -506 533 -593 624 -46 47 -83 88 -83 90 0 3 50
-3 110 -14 l110 -19 68 -72z"/>
<path fill="#ffffff" stroke="none" d="M2105 3610 c330 -62 744 -139 920 -171
176 -33 405 -76 510 -95 l190 -34 57 -57 c32 -31 56 -58 54 -60 -2 -2 -39 3
-82 11 -44 9 -322 58 -619 111 -297 52 -720 126 -940 165 -220 39 -458 81
-530 94 -120 21 -137 27 -217 75 -49 29 -88 54 -88 57 0 3 4 14 10 24 9 17 14
17 72 4 35 -7 333 -63 663 -124z"/>
<path fill="#ffffff" stroke="none" d="M1167 3704 c30 -17 41 -29 36 -38 -5
-8 -48 -73 -98 -145 l-90 -132 -55 6 c-30 4 -58 9 -63 12 -9 6 207 323 220
323 4 0 26 -11 50 -26z"/>
<path fill="#ffffff" stroke="none" d="M5156 3678 c68 -11 40 14 382 -340 l93
-96 -10 -41 c-6 -23 -16 -59 -21 -80 l-10 -39 -77 81 c-43 45 -154 163 -248
262 -95 99 -191 202 -216 229 l-44 49 45 -7 c25 -4 73 -12 106 -18z"/>
<path fill="#ffffff" stroke="none" d="M1306 3624 c24 -14 44 -30 44 -34 0 -5
-36 -60 -79 -123 l-79 -113 -61 10 c-34 5 -61 14 -61 19 0 4 11 23 23 40 13
18 54 76 91 130 37 53 69 97 72 97 3 0 25 -12 50 -26z"/>
<path fill="#ffffff" stroke="none" d="M5410 3635 c47 -8 86 -15 87 -15 1 0
43 -45 93 -100 72 -80 89 -104 81 -118 -5 -9 -12 -36 -16 -59 -4 -24 -9 -43
-11 -43 -5 0 -130 130 -278 288 -33 34 -55 62 -50 62 5 0 47 -7 94 -15z"/>
<path fill="#ffffff" stroke="none" d="M5707 3585 c9 -3 10 -12 2 -37 -6 -18
-13 -39 -15 -47 -3 -10 -22 2 -59 39 -30 30 -55 57 -55 61 0 5 97 -7 127 -16z"/>
<path fill="#ffffff" stroke="none" d="M1490 3514 c0 -2 -28 -45 -62 -95 l-63
-91 -55 7 c-30 4 -57 9 -59 11 -4 4 107 171 136 205 13 16 18 15 59 -8 24 -14
44 -27 44 -29z"/>
<path fill="#ffffff" stroke="none" d="M5943 3543 c4 -2 7 -479 7 -1058 l0
-1055 -57 -45 c-32 -25 -61 -45 -65 -45 -5 0 -8 500 -8 1111 l0 1111 58 -7
c31 -4 60 -9 65 -12z"/>
<path fill="#ffffff" stroke="none" d="M2545 3374 c451 -79 934 -165 1073
-189 139 -25 257 -45 263 -45 14 0 133 -119 126 -127 -3 -3 -473 77 -1044 178
l-1038 183 -130 74 c-71 41 -132 77 -135 80 -3 3 11 2 30 -2 19 -4 404 -72
855 -152z"/>
<path fill="#ffffff" stroke="none" d="M6122 3514 c4 -3 8 -441 8 -975 l0
-969 -61 -48 c-33 -26 -65 -48 -70 -50 -5 -2 -9 414 -9 1028 l0 1033 62 -7
c34 -4 66 -10 70 -12z"/>
<path fill="#ffffff" stroke="none" d="M6287 3486 c1 -1 3 -405 3 -897 l1
-894 -53 -42 c-29 -23 -56 -42 -60 -43 -5 0 -8 426 -8 946 l0 947 57 -7 c31
-4 58 -8 60 -10z"/>
<path fill="#ffffff" stroke="none" d="M1584 3462 l44 -27 -45 -69 -46 -68
-51 7 c-28 3 -54 10 -59 14 -6 6 99 171 110 171 2 0 23 -12 47 -28z"/>
<path fill="#ffffff" stroke="none" d="M6413 3464 l37 -6 -1 -822 0 -821 -55
-43 -54 -42 0 876 c0 829 1 875 18 870 9 -3 34 -8 55 -12z"/>
<path fill="#ffffff" stroke="none" d="M168 3434 l22 -4 0 -743 -1 -742 -46
-35 c-26 -19 -53 -39 -60 -43 -11 -7 -13 138 -13 788 l0 796 38 -6 c20 -3 47
-8 60 -11z"/>
<path fill="#ffffff" stroke="none" d="M6593 3434 l27 -6 0 -739 0 -739 -57
-45 c-32 -25 -60 -45 -63 -45 -3 0 -5 358 -5 796 l0 795 35 -6 c19 -3 47 -8
63 -11z"/>
<path fill="#ffffff" stroke="none" d="M5780 2388 l0 -1052 -55 54 -55 54 0
786 0 785 52 213 c29 116 54 212 55 212 2 0 3 -473 3 -1052z"/>
<path fill="#ffffff" stroke="none" d="M343 3403 c4 -2 7 -303 7 -667 l0 -664
-53 -41 c-30 -22 -57 -41 -60 -41 -4 0 -7 322 -7 716 l0 716 53 -7 c28 -4 55
-9 60 -12z"/>
<path fill="#ffffff" stroke="none" d="M6773 3403 c4 -2 7 -302 7 -666 l0
-662 -54 -43 c-30 -23 -57 -42 -60 -42 -3 0 -6 322 -6 716 l0 716 53 -7 c28
-4 55 -9 60 -12z"/>
<path fill="#ffffff" stroke="none" d="M1763 3358 c16 -12 16 -15 -10 -52
l-28 -38 -60 7 c-33 3 -63 10 -68 14 -4 4 11 33 33 64 l41 57 37 -19 c20 -11
45 -25 55 -33z"/>
<path fill="#ffffff" stroke="none" d="M510 2786 l-1 -591 -46 -35 c-25 -19
-52 -39 -59 -43 -12 -7 -14 94 -14 636 l0 644 60 -10 60 -10 0 -591z"/>
<path fill="#ffffff" stroke="none" d="M6940 2786 l-1 -591 -46 -35 c-26 -19
-53 -39 -60 -43 -11 -7 -13 111 -13 636 l0 644 60 -10 60 -10 0 -591z"/>
<path fill="#ffffff" stroke="none" d="M638 3355 l42 -7 0 -511 -1 -512 -46
-35 c-26 -19 -53 -39 -60 -43 -11 -7 -13 97 -13 558 0 535 1 566 18 561 9 -2
36 -8 60 -11z"/>
<path fill="#ffffff" stroke="none" d="M7110 2839 l0 -507 -57 -46 c-32 -25
-61 -46 -65 -46 -9 0 -11 1113 -3 1122 3 2 32 0 65 -5 l60 -10 0 -508z"/>
<path fill="#ffffff" stroke="none" d="M818 3324 l22 -4 0 -434 0 -434 -53
-41 c-30 -22 -57 -41 -60 -41 -4 0 -7 218 -7 485 l0 486 38 -6 c20 -3 47 -8
60 -11z"/>
<path fill="#ffffff" stroke="none" d="M1911 3274 c44 -26 78 -48 77 -50 -4
-3 -200 27 -207 32 -4 3 38 64 45 64 3 0 41 -21 85 -46z"/>
<path fill="#ffffff" stroke="none" d="M993 3293 c4 -2 7 -165 7 -362 l0 -358
-47 -34 c-26 -19 -53 -38 -60 -42 -11 -7 -13 66 -13 403 l0 412 53 -7 c28 -4
55 -9 60 -12z"/>
<path fill="#ffffff" stroke="none" d="M3084 3125 l990 -174 48 -48 c26 -26
47 -48 45 -49 -3 -2 68 -14 -997 166 l-895 151 -115 66 c-133 76 -135 77 -95
69 17 -4 475 -85 1019 -181z"/>
<path fill="#ffffff" stroke="none" d="M1123 3274 l37 -7 0 -282 0 -283 -47
-38 c-27 -20 -54 -42 -60 -47 -10 -8 -13 59 -13 327 l0 336 23 0 c12 0 39 -3
60 -6z"/>
<path fill="#ffffff" stroke="none" d="M1285 3245 l25 -5 0 -213 -1 -212 -47
-35 c-25 -19 -49 -36 -53 -38 -8 -4 -12 495 -4 508 3 6 17 8 31 5 13 -3 35 -7
49 -10z"/>
<path fill="#ffffff" stroke="none" d="M1453 3211 c4 -4 6 -69 5 -145 l-3
-138 -47 -35 -48 -35 0 187 0 188 43 -7 c23 -4 46 -11 50 -15z"/>
<path fill="#ffffff" stroke="none" d="M1574 3195 c22 -5 24 -9 23 -77 0 -67
-2 -74 -31 -101 -66 -61 -66 -62 -66 73 l0 120 25 -5 c14 -3 36 -7 49 -10z"/>
<path fill="#ffffff" stroke="none" d="M1750 3161 c0 -5 -64 -54 -97 -74 -10
-6 -13 4 -13 46 l0 54 55 -10 c30 -6 55 -13 55 -16z"/>
<path fill="#ffffff" stroke="none" d="M2023 3121 c75 -13 104 -23 125 -43 27
-25 410 -361 488 -428 272 -235 939 -825 939 -832 0 -4 -20 -21 -44 -38 -37
-24 -48 -27 -60 -17 -9 7 -270 235 -581 507 -507 444 -959 839 -984 862 -14
11 4 10 117 -11z"/>
<path fill="#ffffff" stroke="none" d="M2190 2824 c1071 -938 1250 -1095 1250
-1099 0 -2 -23 -20 -51 -39 l-51 -34 -682 597 c-374 328 -729 639 -788 691
-60 52 -108 97 -108 101 0 5 21 24 47 44 l46 35 26 -23 c14 -13 154 -136 311
-273z"/>
<path fill="#ffffff" stroke="none" d="M2326 3069 c91 -14 68 3 334 -233 63
-56 151 -133 196 -172 44 -38 257 -224 473 -413 l392 -344 -45 -30 c-25 -16
-51 -27 -58 -24 -14 6 -1335 1161 -1383 1209 -24 24 -26 29 -10 25 11 -3 57
-11 101 -18z"/>
<path fill="#ffffff" stroke="none" d="M2625 3020 c44 -7 90 -18 102 -26 20
-13 1049 -909 1107 -964 l28 -28 -45 -31 c-25 -17 -50 -31 -56 -31 -8 0 -458
390 -1006 871 -16 15 -70 62 -120 105 -49 44 -101 90 -115 103 l-25 23 25 -5
c14 -3 61 -11 105 -17z"/>
<path fill="#ffffff" stroke="none" d="M2363 2448 c353 -310 706 -619 785
-687 78 -69 142 -128 142 -133 0 -4 -21 -21 -46 -38 -40 -28 -47 -30 -62 -18
-26 22 -553 491 -754 671 -98 87 -178 162 -178 167 0 5 -6 10 -14 12 -11 2
-407 349 -566 496 l-35 32 35 30 c19 16 39 30 43 30 4 0 297 -253 650 -562z"/>
<path fill="#ffffff" stroke="none" d="M3267 2765 c113 -99 220 -192 237 -207
17 -15 128 -112 246 -215 l215 -189 0 -42 c0 -37 -4 -45 -32 -63 l-31 -20
-289 253 c-158 139 -400 351 -538 471 -137 120 -251 222 -253 226 -1 4 52 -2
118 -14 l121 -20 206 -180z"/>
<path fill="#ffffff" stroke="none" d="M3275 2910 c44 -7 91 -20 105 -28 19
-12 397 -338 420 -362 3 -3 46 -41 97 -84 l92 -79 -6 -71 c-3 -39 -7 -73 -9
-75 -1 -2 -126 104 -276 236 -150 132 -322 282 -382 334 -60 52 -123 107 -140
122 -30 28 -30 28 -6 23 14 -2 61 -10 105 -16z"/>
<path fill="#ffffff" stroke="none" d="M1624 2835 c57 -53 58 -54 33 -60 -74
-19 -332 -72 -335 -70 -2 2 20 21 50 43 29 22 82 63 118 91 36 28 67 51 70 50
3 0 31 -24 64 -54z"/>
<path fill="#ffffff" stroke="none" d="M3856 2710 l144 -125 -1 -55 c-1 -30
-4 -68 -8 -85 l-6 -29 -45 39 c-25 22 -50 45 -56 50 -6 6 -58 51 -115 100 -56
50 -128 113 -158 140 -31 28 -75 66 -98 84 -24 19 -43 37 -43 41 0 4 55 -2
121 -14 l121 -21 144 -125z"/>
<path fill="#ffffff" stroke="none" d="M5630 2168 l0 -672 -60 59 -60 59 0
381 0 380 57 233 c32 127 59 232 60 232 2 0 3 -302 3 -672z"/>
<path fill="#ffffff" stroke="none" d="M3928 2799 l83 -13 -2 -73 c-2 -66 -4
-72 -18 -60 -22 18 -174 149 -186 160 -6 6 -1 8 15 4 14 -3 62 -11 108 -18z"/>
<path fill="#ffffff" stroke="none" d="M4196 2754 c30 -4 54 -10 54 -13 -1 -3
-34 -32 -75 -64 l-75 -57 0 68 c0 72 5 86 28 77 7 -3 38 -8 68 -11z"/>
<path fill="#ffffff" stroke="none" d="M1782 2692 l50 -47 -404 -87 c-221 -48
-404 -85 -405 -84 -1 1 45 39 104 84 88 67 116 83 162 93 31 6 133 28 226 49
94 21 180 38 193 39 15 1 41 -16 74 -47z"/>
<path fill="#ffffff" stroke="none" d="M4360 2659 c28 -28 50 -55 48 -60 -2
-5 -75 -65 -163 -133 -182 -142 -172 -143 -158 9 l8 79 100 78 c55 43 103 78
107 78 3 0 30 -23 58 -51z"/>
<path fill="#ffffff" stroke="none" d="M1925 2566 c30 -26 36 -36 25 -40 -8
-3 -269 -60 -580 -126 -311 -67 -576 -124 -590 -127 -16 -4 4 17 59 61 47 37
94 69 105 71 267 60 898 194 916 194 15 0 42 -13 65 -33z"/>
<path fill="#ffffff" stroke="none" d="M4504 2511 l48 -48 -64 -49 c-34 -26
-143 -111 -241 -187 -98 -77 -179 -137 -181 -136 -1 2 0 45 3 96 l6 92 180
140 c99 77 185 140 190 140 6 1 32 -21 59 -48z"/>
<path fill="#ffffff" stroke="none" d="M2068 2440 c29 -28 51 -50 49 -50 -3 0
-87 -18 -188 -40 -1121 -241 -1445 -310 -1453 -307 -8 3 130 116 184 149 14 9
122 37 240 62 118 26 409 89 645 140 237 52 439 94 450 95 11 0 44 -22 73 -49z"/>
<path fill="#ffffff" stroke="none" d="M4645 2370 c37 -38 56 -63 50 -69 -19
-18 -640 -501 -645 -501 -8 0 7 220 15 228 13 14 510 401 515 401 3 1 32 -26
65 -59z"/>
<path fill="#ffffff" stroke="none" d="M2210 2311 c44 -39 45 -39 20 -45 -14
-3 -320 -69 -680 -147 -360 -77 -811 -174 -1001 -215 -191 -40 -350 -74 -354
-74 -4 0 34 31 84 70 l90 70 653 140 c359 77 685 147 723 156 39 8 138 30 220
49 83 18 161 33 175 34 16 1 42 -14 70 -38z"/>
<path fill="#ffffff" stroke="none" d="M4758 2252 c9 -11 34 -37 55 -59 l38
-40 -363 -283 c-200 -155 -384 -300 -410 -322 l-48 -39 1 68 c0 37 4 89 7 115
l7 46 340 266 c187 145 343 265 348 265 4 1 15 -7 25 -17z"/>
<path fill="#ffffff" stroke="none" d="M5462 1670 c-1 -2 -26 19 -54 47 l-50
51 48 198 49 199 5 -245 c3 -135 4 -247 2 -250z"/>
<path fill="#ffffff" stroke="none" d="M4935 2070 c31 -31 46 -53 39 -58 -12
-8 -530 -411 -787 -612 -93 -73 -170 -130 -173 -127 -2 2 -1 43 2 91 l7 88 92
71 c51 40 188 146 305 237 117 91 267 209 334 262 67 53 123 97 126 97 3 1 28
-22 55 -49z"/>
<path fill="#ffffff" stroke="none" d="M5088 1874 c-37 -34 -1070 -835 -1086
-841 -10 -5 -13 -1 -9 13 4 10 7 50 8 87 l2 68 506 394 506 394 47 -46 48 -47
-22 -22z"/>
<path fill="#ffffff" stroke="none" d="M3953 1821 c-3 -67 -9 -118 -13 -114
-8 10 -71 185 -68 188 30 21 83 54 85 51 2 -1 0 -58 -4 -125z"/>
<path fill="#ffffff" stroke="none" d="M3886 1720 c48 -132 48 -137 45 -234
-4 -149 -12 -156 -50 -45 -18 52 -55 156 -83 232 -48 133 -49 139 -32 152 11
7 28 20 39 29 11 8 23 12 26 8 3 -4 28 -68 55 -142z"/>
<path fill="#ffffff" stroke="none" d="M5194 1804 c21 -25 35 -49 30 -53 -35
-29 -208 -164 -579 -453 -236 -183 -481 -374 -543 -422 -62 -49 -115 -86 -118
-83 -3 3 -2 42 2 87 l7 82 106 84 c629 494 1029 802 1041 803 8 0 32 -20 54
-45z"/>
<path fill="#ffffff" stroke="none" d="M3767 1625 c94 -256 142 -390 144 -400
6 -23 -14 -276 -20 -269 -4 5 -58 151 -121 324 -62 173 -123 343 -136 378
l-23 62 41 30 c23 17 46 29 51 27 5 -1 34 -70 64 -152z"/>
<path fill="#ffffff" stroke="none" d="M5350 1625 c-11 -13 -1367 -1069 -1378
-1073 -11 -3 1 166 13 176 16 16 416 326 600 466 22 17 42 33 45 37 3 3 64 50
135 106 72 55 213 166 315 246 l185 145 47 -46 c31 -30 44 -49 38 -57z"/>
<path fill="#ffffff" stroke="none" d="M3694 1363 c66 -181 136 -377 157 -437
l39 -110 -11 -150 c-6 -83 -12 -152 -13 -153 -2 -2 -85 225 -186 505 -100 279
-191 528 -201 555 l-19 47 48 35 c26 19 52 35 57 35 6 0 64 -147 129 -327z"/>
<path fill="#ffffff" stroke="none" d="M5481 1508 c7 -14 -113 -112 -734 -594
-408 -317 -754 -588 -769 -602 l-28 -26 1 55 c0 30 4 75 7 101 l7 46 280 217
c154 119 298 231 320 249 22 17 153 119 290 226 138 106 291 226 340 265 50
39 114 90 144 113 l54 43 40 -38 c21 -21 43 -46 48 -55z"/>
<path fill="#ffffff" stroke="none" d="M3436 1568 c3 -13 63 -178 131 -368 69
-190 163 -451 210 -580 l85 -235 -7 -100 c-3 -55 -8 -122 -12 -150 l-6 -50
-13 35 c-7 19 -59 166 -117 325 -57 160 -168 467 -247 683 -78 216 -140 395
-137 398 19 19 84 63 94 64 6 0 15 -10 19 -22z"/>
<path fill="#ffffff" stroke="none" d="M5573 1416 c20 -25 37 -47 37 -49 0 -4
-495 -393 -761 -597 -181 -139 -804 -625 -857 -668 -30 -24 -55 -42 -57 -40
-1 2 0 40 3 86 l5 83 496 386 c742 579 734 572 911 712 91 71 170 130 175 130
6 1 27 -19 48 -43z"/>
<path fill="#ffffff" stroke="none" d="M3000 1433 c0 -5 -21 -21 -46 -37 -43
-27 -45 -28 -59 -10 -15 21 -17 20 55 40 25 7 46 13 48 13 1 1 2 -2 2 -6z"/>
<path fill="#ffffff" stroke="none" d="M2848 1370 l22 -30 -40 -26 -40 -27
-35 39 c-19 21 -34 42 -35 45 0 3 21 10 48 16 26 6 50 11 53 12 3 0 15 -12 27
-29z"/>
<path fill="#ffffff" stroke="none" d="M2704 1316 c20 -23 36 -47 36 -53 0 -5
-18 -21 -39 -35 l-39 -26 -52 65 c-29 35 -51 66 -48 68 4 5 74 22 95 24 6 1
28 -19 47 -43z"/>
<path fill="#ffffff" stroke="none" d="M2559 1253 l59 -76 -39 -29 c-22 -16
-44 -28 -49 -26 -11 4 -140 167 -140 177 0 5 24 13 53 18 28 6 53 11 54 12 1
0 29 -33 62 -76z"/>
<path fill="#ffffff" stroke="none" d="M2410 1193 c41 -54 76 -99 77 -102 2
-4 -18 -19 -43 -35 -38 -24 -47 -27 -58 -15 -64 69 -174 220 -164 224 31 10
84 23 98 24 8 0 49 -43 90 -96z"/>
<path fill="#ffffff" stroke="none" d="M2206 1198 c23 -29 67 -85 98 -125 l56
-71 -48 -32 -47 -31 -20 24 c-35 42 -200 251 -203 259 -3 7 66 25 103 27 13 1
35 -17 61 -51z"/>
<path fill="#ffffff" stroke="none" d="M2099 1070 c62 -77 114 -145 116 -152
4 -12 -102 -85 -109 -77 -106 127 -263 341 -254 344 23 9 93 23 115 24 16 1
48 -33 132 -139z"/>
<path fill="#ffffff" stroke="none" d="M1930 989 c78 -99 141 -181 139 -182
-2 -2 -29 -19 -60 -39 l-57 -37 -88 112 c-48 62 -119 152 -157 200 -39 48 -67
90 -64 94 7 7 103 31 128 32 10 1 73 -70 159 -180z"/>
<path fill="#ffffff" stroke="none" d="M1744 920 c91 -116 166 -212 166 -214
0 -2 -25 -20 -56 -40 -53 -36 -57 -37 -69 -19 -7 10 -88 112 -179 228 -91 115
-166 212 -166 215 0 5 93 32 132 39 3 0 81 -94 172 -209z"/>
<path fill="#ffffff" stroke="none" d="M1532 893 c80 -104 164 -211 187 -239
l41 -52 -48 -31 c-27 -17 -51 -31 -55 -31 -3 0 -72 84 -154 188 -236 297 -256
323 -252 326 2 2 22 8 44 14 86 22 78 28 237 -175z"/>
<path fill="#ffffff" stroke="none" d="M2679 1006 c12 -32 20 -61 17 -63 -2
-3 -37 0 -78 6 -40 6 -85 12 -100 13 -16 1 -28 5 -28 9 0 11 154 109 161 101
4 -4 16 -33 28 -66z"/>
<path fill="#ffffff" stroke="none" d="M1312 893 c64 -82 157 -200 207 -263
50 -63 91 -118 91 -121 0 -10 -80 -61 -90 -57 -5 2 -108 129 -229 283 l-221
280 43 12 c79 21 75 24 199 -134z"/>
<path fill="#ffffff" stroke="none" d="M1253 708 l227 -291 -51 -34 c-42 -28
-55 -32 -64 -21 -14 15 -370 466 -400 507 -10 14 -34 44 -53 66 l-33 40 48 12
c97 23 76 40 326 -279z"/>
<path fill="#ffffff" stroke="none" d="M854 933 c23 -28 216 -272 388 -490 48
-62 88 -116 88 -120 0 -8 -101 -76 -105 -71 -3 5 -282 361 -408 521 -64 81
-117 152 -117 157 0 9 67 27 108 29 14 1 32 -10 46 -26z"/>
<path fill="#ffffff" stroke="none" d="M2579 911 c73 -11 137 -23 141 -28 4
-4 14 -27 23 -50 13 -32 14 -43 4 -43 -29 1 -428 58 -433 62 -6 7 98 77 116
77 8 0 75 -8 149 -18z"/>
<path fill="#ffffff" stroke="none" d="M777 746 c152 -191 272 -343 356 -451
l55 -71 -32 -21 c-17 -11 -36 -23 -43 -27 -7 -4 -45 37 -95 100 -45 58 -174
222 -285 363 -111 141 -200 258 -198 260 5 5 66 19 87 20 12 1 67 -61 155
-173z"/>
<path fill="#ffffff" stroke="none" d="M505 852 c16 -20 111 -140 210 -267
100 -126 218 -276 263 -333 45 -57 82 -105 82 -107 0 -2 -21 -18 -47 -36 -39
-27 -48 -30 -57 -18 -6 8 -60 77 -121 154 -152 192 -328 414 -407 515 -37 47
-68 90 -68 95 -1 6 23 15 52 21 29 7 55 12 58 13 3 0 18 -16 35 -37z"/>
<path fill="#ffffff" stroke="none" d="M2498 780 c306 -41 278 -32 297 -91 10
-28 15 -52 13 -55 -2 -2 -155 16 -339 41 -184 25 -338 45 -344 45 -26 0 101
89 128 90 10 0 120 -14 245 -30z"/>
<path fill="#ffffff" stroke="none" d="M2445 635 c187 -25 352 -48 366 -51 21
-4 30 -16 49 -70 12 -36 20 -67 18 -70 -4 -3 -956 121 -981 129 -5 1 28 28 73
59 63 43 89 56 109 52 14 -2 179 -24 366 -49z"/>
<path fill="#ffffff" stroke="none" d="M4990 489 l0 -71 -51 7 c-112 16 -111
14 -29 78 40 31 75 57 77 57 2 0 3 -32 3 -71z"/>
<path fill="#ffffff" stroke="none" d="M2365 465 c270 -36 502 -68 516 -71 20
-4 29 -16 47 -66 12 -34 20 -63 17 -66 -3 -3 -161 16 -352 42 -192 26 -473 64
-625 84 -152 20 -280 40 -283 44 -13 12 145 108 169 103 11 -3 242 -34 511
-70z"/>
<path fill="#ffffff" stroke="none" d="M4988 317 c2 -31 -1 -57 -5 -57 -22 1
-306 50 -310 53 -2 3 23 25 56 49 l60 45 98 -16 98 -16 3 -58z"/>
<path fill="#ffffff" stroke="none" d="M2299 300 c366 -49 668 -93 672 -97 10
-12 50 -125 46 -130 -2 -2 -173 19 -378 47 -206 28 -525 71 -709 95 -386 52
-473 65 -477 69 -6 6 152 106 167 106 8 0 314 -41 679 -90z"/>
<path fill="#ffffff" stroke="none" d="M4810 244 c91 -15 169 -30 173 -34 4
-4 5 -29 2 -56 l-7 -49 -226 37 c-125 21 -233 39 -240 40 -18 4 89 87 113 88
11 0 94 -12 185 -26z"/>
<path fill="#000000" stroke="none" d="M10 666 c0 -33 20 -63 198 -289 109
-139 220 -280 246 -315 41 -51 54 -62 79 -62 22 0 27 3 20 13 -33 42 -134 172
-178 227 -28 36 -118 151 -200 255 -81 105 -152 194 -156 200 -5 5 -9 -7 -9
-29z"/>
<path fill="#000000" stroke="none" d="M10 365 c0 -38 3 -42 191 -282 52 -68
69 -83 92 -83 15 0 27 2 27 4 0 3 -70 93 -155 201 -150 190 -155 196 -155 160z"/>
<path fill="#000000" stroke="none" d="M10 72 c0 -49 16 -72 51 -72 34 0 31 9
-20 70 l-30 35 -1 -33z"/>

</g>
</svg>
