<svg version="1.1" xmlns="http://www.w3.org/2000/svg" xmlns:xlink="http://www.w3.org/1999/xlink" width="768" height="829.4375"><defs><clipPath id="clip-1"><rect x="27.0755" y="0" transform="scale(0.81,0.81)" width="894" height="1024" id="clip-1" fill="none"/></clipPath></defs><g fill="none" fill-rule="nonzero" stroke="none" stroke-width="1" stroke-linecap="butt" stroke-linejoin="miter" stroke-miterlimit="10" stroke-dasharray="" stroke-dashoffset="0" font-family="none" font-weight="none" font-size="none" text-anchor="none" style="mix-blend-mode: normal"><g><g><g clip-path="url(#clip-1)"><g><path d="M478.36328,1.215c-27.45884,3.23998 -55.32266,10.04394 -76.54454,18.79188c-37.34078,15.4709 -76.38254,44.54974 -117.0443,87.39848c-28.75482,30.29382 -35.23478,36.53078 -39.28476,37.58378c-4.85998,1.296 -28.75482,0.567 -38.47476,-1.134c-11.01594,-2.02498 -19.76388,-4.37398 -24.46186,-6.64196c-5.34596,-2.59198 -12.39292,-10.20594 -15.5519,-16.7669c-7.93796,-16.7669 -7.93796,-26.40584 0.162,-42.20074c4.37398,-8.58594 4.94098,-14.17492 1.94398,-19.27788c-3.56398,-6.15596 -9.39594,-9.15294 -19.11588,-10.04394c-13.28392,-1.215 -28.75482,5.50796 -44.30674,19.27788c-12.47392,11.09694 -21.54588,25.91984 -26.00084,42.36274c-2.02498,7.61396 -2.18698,9.23394 -2.18698,25.91984c-0.081,20.16888 0.81,25.91984 6.80396,43.73974c3.56398,10.69194 2.42998,11.17794 -2.67298,1.377c-4.29298,-8.09996 -5.99396,-13.04092 -7.85696,-22.19386c-0.972,-4.61698 -2.42998,-9.88194 -3.23998,-11.74492c-4.53598,-10.20594 -16.1189,-8.34294 -29.24082,4.61698c-5.18396,5.10296 -6.80396,7.37096 -10.28694,14.57992c-5.58896,11.58294 -8.26196,22.51786 -8.82894,36.04478c-0.729,16.9289 2.59198,31.34682 11.17794,48.2757c12.14992,24.29986 29.07882,41.95774 50.3007,52.64968l7.85696,3.96898l3.48298,6.64196c7.77596,14.9849 21.14088,23.73286 41.39076,26.97284c13.52692,2.18698 24.94784,1.134 36.85478,-3.32098c2.83498,-1.053 5.34596,-1.94398 5.58896,-1.94398c0.162,0 -2.67298,3.40198 -6.39896,7.45196c-13.44592,14.9849 -16.2809,19.76388 -14.90392,25.27184c0.648,2.67298 4.85998,7.45196 8.66694,9.80094c11.42094,7.28996 32.2378,5.34596 49.1667,-4.53598c6.23696,-3.72598 19.03488,-16.6859 24.46186,-24.78586c2.42998,-3.64498 4.77898,-6.56096 5.18396,-6.47996c0.891,0.324 6.88496,16.4429 6.88496,18.87288c0.081,0.891 -1.215,4.21198 -2.75398,7.28996c-4.45498,9.15294 -6.39896,17.2529 -6.39896,27.05384c0,14.01292 2.67298,19.43988 9.63894,19.43988c2.02498,0 4.94098,-0.567 6.47996,-1.134c1.539,-0.648 2.83498,-0.972 2.83498,-0.648c-0.243,19.03488 2.34898,33.3718 7.93796,44.63074c10.69194,21.38388 24.70486,32.9668 34.0198,28.10684c4.13098,-2.18698 9.88194,-10.20594 9.88194,-13.85092c0,-0.648 0.243,-1.215 0.648,-1.215c0.486,0 14.57992,11.50194 21.78886,17.8199c4.21198,3.72598 4.45498,4.85998 2.67298,10.69194c-2.99698,9.63894 -6.64196,12.95992 -18.54888,17.2529c-14.90392,5.42696 -22.03186,13.68892 -25.02884,29.07882c-0.648,3.64498 -1.78198,7.20896 -2.51098,8.09996c-0.729,0.81 -4.85998,3.23998 -9.15294,5.42696c-13.36492,6.72296 -16.2809,10.28694 -16.3619,20.16888c-0.081,3.32098 -0.405,6.47996 -0.729,7.04696c-0.324,0.486 -3.15898,1.86298 -6.23696,3.07798c-3.40198,1.296 -7.12796,3.48298 -9.47694,5.66996c-5.83196,5.18396 -7.69496,9.63894 -9.55794,22.51786c-0.567,3.80698 -2.34898,4.94098 -10.12494,6.56096c-31.10382,6.31796 -57.26666,1.70098 -80.59452,-14.09392c-9.55794,-6.47996 -18.71088,-15.0659 -23.08486,-21.54588c-5.99396,-9.07194 -8.74794,-18.87288 -10.20594,-37.17878c-0.729,-9.15294 -1.539,-10.12494 -8.01896,-10.12494c-7.69496,0 -17.0099,1.458 -24.21886,3.88798c-31.8328,10.44894 -54.51268,56.61866 -43.49674,88.61346c1.86298,5.42696 4.45498,10.52994 9.71994,19.19688l4.13098,6.80396v7.45196c0,4.77898 0.567,9.71994 1.62,13.68892c4.53598,17.9009 20.81688,37.50278 39.20376,47.38472c8.90994,4.69798 16.2809,9.47694 20.65488,13.44592c7.20896,6.39896 18.46788,12.79792 28.83582,16.3619c12.87892,4.37398 30.94182,5.42696 48.1137,2.75398l9.15294,-1.377l-0.648,4.04998c-0.405,2.26798 -0.729,6.88496 -0.729,10.20594c0,9.71994 3.80698,15.8759 15.0659,24.38086c2.10598,1.62 3.07798,3.15898 3.80698,6.23696c1.377,5.18396 5.34596,9.80094 12.55492,14.66092c3.07798,2.02498 7.69496,5.10296 10.20594,6.72296l4.53598,3.07798h17.9819h17.9819l7.53296,-4.37398c36.61178,-21.05988 44.14474,-24.78586 54.18868,-27.13484c10.36794,-2.42998 24.78586,-3.64498 37.74578,-3.07798c17.8199,0.729 26.08184,-1.78198 33.9388,-10.12494c8.26196,-8.82894 11.01594,-21.30288 7.93796,-36.04478c-2.99698,-14.41792 -10.20594,-21.62686 -21.78886,-21.62686c-6.72296,0.081 -9.63894,1.134 -18.79188,7.28996c-3.64498,2.51098 -7.04696,4.29298 -7.53296,3.96898c-1.539,-0.972 -0.891,-7.93796 1.134,-12.31192c2.26798,-4.77898 3.32098,-5.58896 12.39292,-9.47694c8.90994,-3.80698 14.33692,-7.37096 21.54588,-14.17492c3.23998,-3.15898 6.88496,-5.99396 7.93796,-6.47996c2.34898,-0.891 22.11286,-2.51098 33.1288,-2.75398l7.69496,-0.162l8.34294,5.50796c4.61698,2.99698 10.52994,6.56096 13.12192,7.85696c6.23696,3.15898 7.28996,5.10296 7.53296,14.66092c0.162,7.20896 0.081,7.45196 -2.10598,9.07194l-2.18698,1.70098l-10.36794,-4.29298c-16.1999,-6.80396 -18.54888,-7.53296 -24.13786,-7.20896c-10.77294,0.648 -16.4429,9.07194 -16.5239,24.29986c0,13.52692 5.02196,26.08184 14.09392,35.15378c10.04394,10.04394 16.6049,11.25894 40.17576,7.37096c21.70786,-3.64498 36.12578,-5.02196 40.82376,-4.04998c2.26798,0.486 9.88194,3.23998 16.8479,6.15596c15.2279,6.39896 29.56482,11.09694 41.63374,13.60792c11.82592,2.51098 35.63978,2.75398 44.46874,0.486c13.20292,-3.48298 27.45884,-12.63592 31.26582,-20.24988c0.972,-1.78198 1.94398,-5.50796 2.18698,-8.09996c0.405,-4.85998 0.486,-4.94098 6.80396,-11.01594c7.53296,-7.20896 10.28694,-11.42094 10.93494,-16.9289c0.567,-4.85998 -0.567,-8.58594 -4.69798,-15.7139c-7.12796,-12.23092 -22.76086,-24.29986 -46.00772,-35.72078c-11.33994,-5.50796 -14.25592,-6.56096 -18.46788,-6.88496c-3.96898,-0.243 -5.75096,0 -8.50494,1.377c-3.64498,1.70098 -22.67986,20.41188 -32.5618,31.8328c-9.07194,10.52994 -14.9849,11.90692 -27.37784,6.07496c-7.85696,-3.56398 -13.44592,-8.99094 -15.4709,-14.90392c-1.86298,-5.18396 -1.377,-6.23696 4.69798,-10.85394c9.88194,-7.45196 15.3089,-17.9009 17.0099,-33.1288c0.567,-4.29298 2.10598,-7.93796 3.96898,-9.07194c0.486,-0.243 4.69798,-3.32098 9.39594,-6.80396c15.2279,-11.33994 30.94182,-28.91682 40.25676,-44.95472c2.02498,-3.56398 4.04998,-6.64196 4.37398,-6.88496c0.324,-0.162 1.62,1.539 2.75398,3.88798c7.77596,15.6329 22.92286,16.7669 36.44978,2.67298c8.42394,-8.66694 14.49892,-22.51786 15.5519,-35.23478c0.648,-8.66694 1.62,-10.61094 7.04696,-13.68892c7.53296,-4.21198 11.50194,-12.31192 13.52692,-27.37784c2.59198,-19.27788 -2.18698,-36.85478 -14.49892,-53.45968c-7.53296,-10.12494 -14.41792,-14.66092 -30.61782,-20.16888c-12.31192,-4.13098 -18.0629,-6.96596 -22.92286,-11.33994c-4.13098,-3.72598 -9.47694,-10.61094 -8.74794,-11.33994c0.162,-0.162 3.88798,-1.296 8.18096,-2.42998c29.64582,-7.69496 51.3537,-25.51484 64.39462,-52.81168c2.83498,-5.91296 3.96898,-6.80396 5.66996,-4.69798c1.94398,2.26798 8.09996,4.53598 12.55492,4.53598c9.80094,0 24.54286,-11.25894 32.3188,-24.62386c14.9849,-25.83884 18.2249,-66.9056 8.34294,-106.10936c-10.36794,-40.98576 -31.7518,-72.49456 -63.26062,-93.23044c-6.72296,-4.37398 -12.55492,-8.58594 -13.04092,-9.23394c-0.648,-0.81 -1.134,-7.77596 -1.377,-19.52088c-0.405,-18.95388 -1.296,-24.70486 -5.34596,-37.25978c-2.83498,-8.50494 -10.20594,-22.59886 -15.7949,-30.05082c-21.54588,-28.59282 -63.09862,-50.7057 -109.02534,-57.83366c-11.74492,-1.86298 -41.14776,-2.26798 -53.86468,-0.81z" fill="#000000"/><path d="M537.49292,16.1189c29.32182,5.58896 55.16066,17.4149 78.40752,35.96378c24.62386,19.68288 35.31578,42.52474 36.77378,78.65052l0.486,12.06892l-1.94398,-0.567c-1.053,-0.324 -5.83196,-0.81 -10.52994,-1.053c-13.20292,-0.648 -20.73588,2.10598 -29.24082,10.85394c-7.69496,7.93796 -20.08788,29.88882 -23.81386,41.95774c-1.215,3.96898 -2.26798,6.88496 -2.42998,6.47996c-0.162,-0.486 -1.215,-5.18396 -2.34898,-10.52994c-7.20896,-32.7238 -20.97888,-53.37868 -47.87072,-71.52256c-24.62386,-16.5239 -52.40668,-27.78284 -81.7285,-33.0478c-11.66392,-2.10598 -45.68372,-2.18698 -58.31964,-0.081c-28.91682,4.85998 -52.16368,13.93192 -76.54454,30.13182c-12.14992,8.09996 -21.78886,16.0379 -40.09476,33.1288c-28.34982,26.56784 -32.2378,29.64582 -37.25978,29.64582c-1.70098,0 -2.02498,-0.405 -2.02498,-2.26798c0,-1.215 0.648,-3.40198 1.458,-4.77898c5.58896,-10.44894 49.6527,-55.32266 79.86552,-81.4855c36.44978,-31.6708 56.94266,-45.35972 82.7005,-55.24166c11.58294,-4.45498 16.5239,-5.91296 38.47476,-11.25894c35.15378,-8.58594 41.22876,-9.39594 67.2296,-9.07194c16.0379,0.243 21.54588,0.567 28.75482,2.02498z" fill="#ffc800"/><path d="M153.96023,59.53464c5.50796,1.134 8.09996,3.15898 8.09996,6.31796c0,0.972 -2.02498,5.91296 -4.45498,11.09694c-5.50796,11.58294 -6.80396,18.1439 -5.50796,27.37784c2.51098,17.0909 11.66392,32.7238 23.24686,39.44676c9.71994,5.66996 17.9009,7.37096 48.1947,10.12494c10.04394,0.891 18.30588,1.78198 18.46788,1.94398c0.162,0.162 -1.86298,3.56398 -4.61698,7.53296c-4.61698,6.88496 -4.85998,7.53296 -4.85998,12.06892c0,2.99698 0.486,5.50796 1.215,6.56096c1.70098,2.42998 7.12796,3.88798 10.28694,2.75398c5.83196,-2.02498 14.74192,-9.23394 29.40282,-23.81386c24.29986,-24.13786 43.57774,-38.79876 66.3386,-50.3817c39.04176,-19.84488 80.43252,-25.75784 120.28428,-17.2529c40.09476,8.50494 82.9435,33.1288 99.8724,57.34766c10.44894,14.82292 17.0099,34.5058 19.19688,57.50966c1.215,12.87892 1.62,23.00386 2.18698,62.77462c0.567,40.25676 0.486,41.63374 -4.53598,51.83968c-8.01896,16.5239 -29.07882,29.80782 -45.19772,28.51182c-2.83498,-0.243 -5.34596,-0.567 -5.58896,-0.81c-0.243,-0.243 0.648,-3.15898 2.02498,-6.39896c2.83498,-6.88496 3.80698,-12.31192 2.99698,-16.6049l-0.567,-3.07798l-3.07798,6.47996c-5.99396,12.79792 -13.76992,20.73588 -24.21886,24.46186c-4.37398,1.62 -6.80396,1.94398 -13.44592,1.94398c-4.45498,-0.081 -8.66694,-0.162 -9.31494,-0.243c-2.67298,-0.486 -1.78198,1.377 1.62,3.48298c4.13098,2.59198 11.74492,4.77898 16.2809,4.77898c4.29298,0 11.74492,-2.51098 16.4429,-5.50796c4.85998,-3.07798 9.96294,-3.48298 14.01292,-0.972c3.23998,1.94398 3.96898,3.40198 5.99396,11.17794c2.67298,10.20594 6.23696,18.38688 11.25894,25.91984c9.88194,14.90392 21.95086,24.54286 41.39076,33.0478c4.61698,2.02498 9.07194,4.29298 9.88194,5.02196c0.81,0.729 2.59198,3.64498 3.96898,6.56096c3.23998,6.96596 11.17794,14.82292 18.87288,18.87288c3.15898,1.62 10.61094,4.61698 16.6049,6.72296c12.55492,4.37398 18.0629,7.45196 24.13786,13.52692c8.26196,8.18096 13.85092,20.89788 15.7139,35.80178c0.891,7.12796 0.81,8.66694 -0.81,17.7389c-1.62,8.82894 -2.18698,10.44894 -5.26496,14.90392c-2.10598,3.15898 -3.56398,4.69798 -3.88798,4.04998c-0.486,-0.891 -2.51098,-7.93796 -5.26496,-18.38688c-2.83498,-10.61094 -3.72598,-12.95992 -4.85998,-12.95992c-1.539,0 -1.458,0.567 1.053,11.33994c1.94398,8.18096 2.18698,10.93494 2.18698,22.67986c0,12.23092 -0.162,14.01292 -2.18698,20.49288c-4.21198,13.60792 -10.12494,22.67986 -19.19688,29.32182c-2.18698,1.62 -5.18396,3.15898 -6.72296,3.40198c-3.56398,0.567 -7.45196,-1.458 -9.07194,-4.61698c-1.94398,-3.72598 -3.07798,-15.3089 -2.67298,-27.29684c0.162,-7.28996 0,-10.77294 -0.567,-10.77294c-0.486,0 -3.72598,6.07496 -7.28996,13.52692c-11.42094,24.05686 -21.78886,39.52776 -34.5058,51.67768c-28.67382,27.37784 -67.2296,43.33474 -118.58328,49.0047c-9.15294,1.053 -32.8858,2.26798 -33.8578,1.78198c-0.324,-0.162 -0.405,-2.10598 -0.081,-4.29298c0.81,-5.83196 -0.729,-5.02196 -4.45498,2.34898c-7.37096,14.66092 -18.2249,23.73286 -35.15378,29.48382c-8.66694,2.91598 -20.57388,3.88798 -28.18784,2.34898c-14.33692,-2.99698 -27.21584,-14.74192 -32.3188,-29.48382c-1.94398,-5.50796 -2.99698,-17.3339 -1.70098,-19.11588c0.567,-0.972 4.29298,-1.296 16.6859,-1.78198c43.01074,-1.70098 84.64448,-9.80094 103.27438,-20.00688c21.38388,-11.66392 36.44978,-31.10382 49.3287,-63.50362c3.32098,-8.26196 4.13098,-11.25894 4.13098,-15.0659c0,-5.18396 0.891,-6.64196 4.04998,-6.64196c3.56398,0 11.42094,-2.34898 16.5239,-4.94098c4.61698,-2.34898 13.04092,-8.66694 12.39292,-9.31494c-0.162,-0.162 -2.10598,0.567 -4.29298,1.62c-12.14992,5.83196 -26.56784,7.61396 -38.31276,4.61698c-17.0909,-4.29298 -33.3718,-14.57992 -43.65874,-27.53984c-4.13098,-5.26496 -5.83196,-6.39896 -5.83196,-3.88798c0,0.567 2.59198,4.94098 5.66996,9.63894c8.74794,13.44592 19.84488,21.95086 35.15378,27.37784c4.04998,1.377 7.77596,2.91598 8.42394,3.48298c0.891,0.729 1.053,2.34898 0.729,7.04696c-0.324,5.02196 -1.134,7.85696 -4.77898,16.1999c-13.76992,31.9948 -34.1008,52.48768 -59.77764,60.18264c-12.55492,3.80698 -38.55576,8.58594 -60.34464,11.25894c-11.98792,1.377 -50.9487,1.377 -61.15464,0c-13.20292,-1.86298 -20.97888,-4.13098 -30.37482,-8.66694c-10.36794,-5.10296 -17.1719,-10.69194 -19.84488,-16.3619c-1.539,-3.32098 -1.78198,-4.85998 -1.458,-10.52994c0.486,-9.15294 2.99698,-13.36492 10.36794,-17.0099c8.90994,-4.45498 8.82894,-4.45498 15.4709,2.10598c8.82894,8.74794 20.16888,13.76992 40.74276,17.9819c8.82894,1.78198 22.84186,2.18698 29.15982,0.729c3.07798,-0.648 4.85998,-0.567 9.96294,0.81c3.40198,0.891 7.53296,1.62 9.07194,1.62c2.83498,-0.081 2.83498,-0.081 -1.70098,-1.94398c-18.79188,-7.85696 -29.80782,-24.94784 -30.05082,-47.06072c-0.081,-4.04998 0.405,-9.31494 0.972,-11.74492c2.26798,-9.23394 8.74794,-18.87288 17.0909,-25.27184l2.83498,-2.18698l-2.34898,-0.081c-3.80698,0 -12.23092,4.53598 -15.7949,8.66694c-4.53598,5.02196 -8.58594,13.52692 -10.36794,21.30288c-1.053,4.53598 -1.78198,6.47996 -2.67298,6.47996c-2.26798,0 -9.88194,-4.37398 -13.12192,-7.53296c-4.04998,-3.88798 -5.50796,-7.37096 -5.50796,-12.95992c0,-6.80396 2.10598,-11.66392 7.20896,-16.8479c3.40198,-3.32098 5.83196,-4.94098 9.80094,-6.39896c7.93796,-2.83498 14.25592,-6.23696 17.7389,-9.31494c3.40198,-3.07798 7.20896,-9.80094 9.39594,-16.5239l1.377,-4.29298l4.21198,0.567c17.4959,2.26798 25.02884,2.51098 36.53078,1.134c17.6579,-2.18698 36.44978,-10.77294 45.60272,-20.89788c3.23998,-3.56398 6.07496,-7.37096 5.50796,-7.37096c-0.243,0 -5.50796,2.51098 -11.58294,5.58896c-19.60188,9.88194 -30.45582,12.55492 -50.8677,12.55492c-12.06892,0 -14.90392,-0.243 -22.84186,-2.10598c-12.23092,-2.91598 -19.19688,-6.64196 -26.72984,-14.17492c-5.10296,-5.18396 -6.56096,-7.28996 -11.33994,-17.2529c-2.99698,-6.23696 -5.75096,-11.33994 -6.07496,-11.33994c-0.243,0 -0.729,1.94398 -1.053,4.21198c-2.02498,16.5239 -3.40198,21.14088 -8.66694,28.83582l-2.42998,3.48298l-4.53598,-2.59198c-5.99396,-3.32098 -9.15294,-6.31796 -13.85092,-13.36492c-8.18096,-12.23092 -11.66392,-24.21886 -11.66392,-40.41876c0,-11.09694 0.891,-17.3339 5.18396,-34.8298c1.296,-5.34596 2.34898,-10.04394 2.34898,-10.36794c0,-1.70098 -3.07798,2.10598 -9.80094,11.98792c-7.04696,10.52994 -12.71692,17.4149 -14.33692,17.4149c-1.215,0 -2.10598,-11.25894 -1.458,-19.11588c1.377,-16.7669 8.18096,-31.18482 22.43686,-47.30372c3.56398,-3.96898 6.23696,-7.28996 5.99396,-7.28996c-1.86298,0 -6.72296,3.64498 -12.71692,9.55794l-7.12796,6.88496l-1.94398,-4.37398c-2.67298,-5.91296 -4.29298,-14.49892 -4.94098,-26.64884c-0.324,-5.58896 -0.648,-10.20594 -0.729,-10.36794c-0.162,-0.081 -1.296,2.26798 -2.51098,5.26496c-8.42394,20.00688 -15.5519,32.1568 -24.38086,41.55274c-15.5519,16.4429 -34.7488,23.57086 -50.3817,18.71088c-7.28996,-2.26798 -9.88194,-4.37398 -9.88194,-8.01896c0,-3.64498 0.81,-4.85998 13.04092,-18.95388c15.5519,-17.9009 31.6708,-37.42178 32.5618,-39.36576c0.486,-0.972 0.648,-2.02498 0.405,-2.26798c-0.243,-0.243 -6.80396,3.88798 -14.49892,9.07194c-19.43988,13.12192 -28.99782,17.2529 -43.41574,18.87288c-17.0909,1.86298 -32.7238,-3.32098 -44.14474,-14.57992c-3.07798,-2.99698 -5.50796,-5.99396 -5.50796,-6.80396c0,-1.215 0.567,-1.377 4.04998,-0.972c6.23696,0.729 22.59886,-0.891 31.34682,-3.07798c15.5519,-3.96898 34.3438,-15.2279 44.63074,-26.81084c5.99396,-6.72296 5.75096,-9.23394 -0.405,-3.96898c-1.78198,1.539 -6.15596,4.53598 -9.63894,6.72296c-19.43988,11.90692 -39.04176,17.9819 -58.23864,17.9819c-18.54888,0 -35.55878,-8.50494 -54.02668,-27.13484c-20.00688,-20.00688 -30.61782,-45.27872 -30.61782,-72.65656c0,-14.49892 3.23998,-26.32484 10.20594,-36.69278c7.93796,-11.98792 20.41188,-20.00688 22.51786,-14.41792c0.324,0.729 1.377,5.42696 2.42998,10.28694c4.85998,23.00386 14.41792,37.17878 33.6958,50.0577c20.73588,13.85092 40.98576,19.92588 62.77462,18.95388c12.79792,-0.567 22.92286,-2.51098 21.38388,-4.13098c-0.243,-0.162 -2.75398,0 -5.58896,0.405c-7.85696,1.134 -22.92286,0.972 -31.18482,-0.405c-31.6708,-5.10296 -53.29768,-25.75784 -60.42564,-57.50966c-3.32098,-14.9849 -4.13098,-33.6148 -1.94398,-46.25072c5.18396,-29.96982 22.11286,-51.2727 49.2477,-61.96462c6.64196,-2.59198 11.82592,-2.91598 20.00688,-1.134z" fill="#ffc800"/><path d="M650.16324,152.11708c13.28392,4.69798 29.72682,15.2279 41.22876,26.48684c22.67986,22.27486 37.66478,52.24468 43.33474,86.66948c5.18396,31.6708 2.75398,60.26364 -6.80396,79.86552c-6.39896,12.95992 -21.86986,27.45884 -29.40282,27.45884c-3.72598,0 -6.72296,-2.42998 -14.09392,-11.42094c-11.25894,-13.76992 -17.6579,-17.3339 -29.56482,-16.7669c-9.96294,0.486 -15.1469,3.80698 -33.5338,21.30288c-9.23394,8.74794 -14.74192,12.06892 -22.35586,13.44592c-7.28996,1.377 -20.41188,-1.377 -27.45884,-5.75096c-5.99396,-3.72598 -13.76992,-14.82292 -13.20292,-18.87288c0.162,-0.972 1.86298,-2.91598 3.88798,-4.45498c7.93796,-5.83196 10.28694,-7.93796 14.17492,-12.39292c4.85998,-5.66996 9.47694,-14.49892 11.42094,-21.78886c2.10598,-8.01896 2.42998,-24.38086 0.729,-39.52776c-2.02498,-17.9009 -1.377,-40.01376 1.539,-55.48466c4.37398,-22.84186 14.74192,-48.3567 23.65186,-57.99566c11.90692,-12.87892 21.86986,-15.7949 36.44978,-10.77294z" fill="#ffc800"/><path d="M666.93014,354.21086c1.94398,1.134 4.94098,3.64498 6.56096,5.50796c2.91598,3.15898 3.07798,3.64498 2.75398,7.53296c-0.891,9.07194 -7.85696,21.46488 -17.9819,31.9138c-10.04394,10.44894 -21.95086,18.0629 -34.91078,22.51786c-5.58896,1.94398 -7.77596,2.26798 -15.7949,2.26798c-11.01594,0.081 -16.7669,-1.296 -26.48684,-5.99396c-11.42094,-5.66996 -22.11286,-15.2279 -29.72682,-26.81084c-2.99698,-4.61698 -12.63592,-27.37784 -12.63592,-29.96982c0,-1.78198 1.377,-2.83498 4.53598,-3.40198c1.458,-0.243 3.48298,-0.729 4.61698,-0.972c1.86298,-0.486 2.26798,0 5.42696,5.99396c9.88194,18.95388 32.8858,28.02584 53.45968,21.14088c7.37096,-2.42998 12.14992,-5.83196 21.86986,-15.4709c13.68892,-13.60792 19.92588,-17.1719 29.32182,-16.6859c3.96898,0.243 6.31796,0.891 8.99094,2.42998z" fill="#ffffff"/><path d="M108.19551,550.31068c1.215,0.81 1.62,2.67298 2.10598,9.88194c1.053,14.09392 5.42696,25.59584 14.25592,37.34078c12.79792,17.0909 34.1818,29.64582 60.58764,35.63978c5.10296,1.134 9.80094,1.458 21.86986,1.458c13.85092,-0.081 16.3619,-0.324 24.78586,-2.26798c5.18396,-1.215 9.96294,-2.02498 10.52994,-1.78198c0.648,0.243 3.23998,2.75398 5.83196,5.58896c11.25894,12.63592 26.48684,19.19688 54.51268,23.57086l8.99094,1.458l0.405,8.58594c0.486,9.63894 3.07798,18.71088 7.12796,25.43384c1.377,2.18698 2.42998,4.13098 2.42998,4.45498c0,0.567 -3.88798,2.83498 -29.72682,17.3339c-14.17492,7.85696 -12.95992,7.69496 -22.76086,2.75398c-8.50494,-4.29298 -14.57992,-5.66996 -19.76388,-4.53598c-9.23394,1.94398 -20.24988,10.12494 -32.6428,24.13786c-4.04998,4.61698 -8.42394,8.99094 -9.71994,9.80094c-2.67298,1.70098 -17.3339,3.72598 -32.3998,4.61698c-14.74192,0.81 -27.05384,-2.10598 -39.28476,-9.31494c-2.99698,-1.78198 -5.91296,-3.88798 -6.56096,-4.61698c-1.053,-1.296 -0.81,-1.377 3.07798,-0.891c2.26798,0.243 8.34294,0.162 13.52692,-0.243c24.21886,-1.78198 49.8957,-10.28694 68.28258,-22.59886c6.31796,-4.21198 11.01594,-8.18096 9.80094,-8.18096c-0.243,0 -4.94098,2.18698 -10.44894,4.85998c-29.24082,14.01292 -66.5816,20.24988 -91.28644,14.9849c-21.70786,-4.53598 -37.50278,-15.8759 -49.4907,-35.55878c-3.23998,-5.18396 -7.85696,-17.4149 -7.20896,-19.03488c0.081,-0.405 3.80698,1.377 8.18096,3.96898c14.57992,8.66694 30.61782,14.09392 47.78972,16.1999c11.01594,1.377 36.69278,0.567 50.7867,-1.539c25.02884,-3.80698 48.3567,-11.74492 61.88362,-21.05988c6.15596,-4.29298 5.02196,-4.21198 -5.75096,0.243c-24.70486,10.20594 -45.19772,14.66092 -71.92756,15.6329c-19.76388,0.648 -35.96378,-1.377 -53.62168,-6.72296c-23.89486,-7.20896 -39.28476,-20.49288 -48.6807,-42.11974c-6.72296,-15.4709 -7.28996,-26.08184 -2.10598,-41.55274c8.26196,-24.70486 23.65186,-40.01376 45.68372,-45.44072c7.45196,-1.86298 8.99094,-1.94398 10.93494,-0.486z" fill="#ffffff"/><path d="M301.94634,567.56358c2.10598,1.62 6.96596,4.94098 10.77294,7.37096c10.61094,6.72296 11.66392,8.09996 18.71088,22.43686c3.48298,7.12796 6.39896,13.20292 6.39896,13.52692c0,1.053 -11.33994,0.729 -19.03488,-0.567c-14.74192,-2.34898 -29.32182,-8.42394 -35.47778,-14.66092c-11.50194,-11.66392 -10.12494,-21.54588 3.88798,-28.59282c6.64196,-3.40198 9.80094,-3.32098 14.74192,0.486z" fill="#ffffff"/><path d="M540.1659,674.64494c-0.81,8.18096 -7.53296,18.0629 -15.1469,22.19386c-11.58294,6.31796 -31.02282,5.99396 -44.63074,-0.81c-3.32098,-1.70098 -6.07496,-3.40198 -6.07496,-3.88798c0,-0.567 62.53162,-20.97888 65.5286,-21.38388c0.405,-0.081 0.486,1.70098 0.324,3.88798z" fill="#ffffff"/><path d="M629.50837,703.23776c12.47392,6.15596 18.95388,10.20594 27.21584,17.0909c9.88194,8.09996 17.9819,19.27788 18.0629,24.78586c0,3.48298 -3.23998,8.90994 -7.12796,11.90692l-3.72598,2.83498l-13.36492,-13.68892c-12.55492,-12.71692 -13.93192,-13.93192 -20.65488,-17.2529c-6.64196,-3.23998 -7.69496,-3.56398 -13.36492,-3.48298c-7.85696,0 -11.09694,1.539 -21.46488,10.20594c-5.66996,4.69798 -7.61396,6.80396 -6.96596,7.45196c0.567,0.567 1.215,0.567 2.26798,-0.081c21.14088,-13.52692 25.75784,-14.74192 36.61178,-9.39594c5.26496,2.67298 23.57086,20.41188 26.97284,26.16284c7.12796,12.23092 6.23696,20.16888 -3.15898,27.45884c-9.80094,7.61396 -21.46488,10.93494 -38.39376,10.93494c-19.52088,-0.081 -37.42178,-4.61698 -63.09862,-16.0379c-21.46488,-9.55794 -27.13484,-9.80094 -63.66562,-3.15898c-7.85696,1.377 -13.04092,1.94398 -17.0099,1.70098c-15.7139,-1.053 -24.21886,-12.79792 -26.00084,-35.55878c-0.648,-8.18096 0.324,-11.90692 3.80698,-14.90392c2.02498,-1.70098 3.32098,-2.02498 7.28996,-2.02498c4.29298,0 5.83196,0.567 15.7949,5.66996c8.99094,4.61698 11.82592,5.66996 14.82292,5.66996c4.85998,0 8.90994,-2.18698 11.25894,-6.15596c1.70098,-2.91598 1.86298,-3.96898 1.62,-12.55492l-0.243,-9.47694l5.26496,-0.486c2.91598,-0.243 8.01896,-0.486 11.33994,-0.486l6.07496,0.081l3.15898,6.64196c6.64196,14.09392 20.73588,23.24686 35.80178,23.24686c7.93796,0 11.90692,-2.51098 21.62686,-13.68892c11.82592,-13.44592 22.27486,-24.13786 26.48684,-26.97284c5.50796,-3.64498 9.15294,-3.07798 22.76086,3.56398z" fill="#008000"/><path d="M331.59216,709.39372c2.83498,2.51098 3.07798,3.80698 1.78198,9.80094c-0.648,3.15898 -1.70098,6.96596 -2.34898,8.42394c-2.91598,7.04696 -10.36794,11.74492 -19.60188,12.55492c-6.23696,0.486 -9.55794,-0.648 -17.2529,-5.58896l-5.99396,-3.80698l5.99396,-3.88798c3.32098,-2.10598 10.04394,-6.31796 14.90392,-9.47694c4.94098,-3.07798 10.52994,-6.72296 12.55492,-8.01896c3.96898,-2.59198 7.12796,-2.59198 9.96294,0z" fill="#ffffff"/><path d="M357.674,720.97666c6.23696,0.972 11.50194,1.86298 11.66392,2.02498c0.162,0.162 -0.324,2.67298 -1.053,5.58896c-2.02498,8.01896 -0.486,14.90392 3.64498,16.6049c1.296,0.567 4.29298,0.891 6.64196,0.648c3.48298,-0.243 5.34596,-1.134 10.28694,-4.53598c3.40198,-2.26798 7.12796,-4.53598 8.42394,-4.94098c3.64498,-1.458 9.47694,-1.053 12.47392,0.729c7.61396,4.61698 10.85394,25.10984 5.58896,35.31578c-2.83498,5.58896 -9.31494,11.33994 -14.57992,12.87892c-2.91598,0.891 -10.28694,1.539 -23.24686,2.10598c-10.52994,0.405 -23.32786,1.215 -28.51182,1.86298c-10.69194,1.215 -16.1999,3.32098 -26.97284,10.61094c-28.59282,19.11588 -55.64666,24.86686 -78.16452,16.6049c-18.62988,-6.72296 -21.54588,-14.9849 -12.14992,-34.6678c7.04696,-14.74192 17.9009,-26.32484 26.48684,-28.10684c3.56398,-0.729 11.01594,1.296 18.71088,5.18396c3.56398,1.78198 6.64196,2.99698 6.96596,2.75398c1.78198,-1.78198 -0.162,-3.48298 -9.80094,-8.34294c-16.8479,-8.42394 -21.70786,-7.69496 -33.9388,5.02196c-7.20896,7.61396 -10.93494,13.12192 -15.7139,23.65186c-2.02498,4.29298 -3.88798,7.77596 -4.29298,7.77596c-1.296,0 -7.77596,-6.64196 -8.99094,-9.23394c-5.50796,-11.66392 6.47996,-34.1818 25.83884,-48.6807c7.85696,-5.91296 11.74492,-7.69496 16.5239,-7.69496c4.53598,0 7.12796,1.215 26.40584,12.63592c17.9819,10.61094 20.57388,11.74492 27.86384,12.23092c16.6859,1.134 28.91682,-8.09996 33.8578,-25.67684c1.134,-4.29298 1.539,-4.94098 2.99698,-4.53598c0.972,0.162 6.80396,1.134 13.04092,2.18698z" fill="#008000"/><path d="M388.04882,166.535c-9.71994,1.70098 -12.39292,2.34898 -17.0099,4.29298c-10.61094,4.45498 -21.46488,13.44592 -28.34982,23.57086c-4.29298,6.31796 -7.93796,14.17492 -11.33994,24.62386c-2.75398,8.26196 -5.10296,11.82592 -7.93796,11.82592c-0.891,0 -3.96898,-0.729 -6.80396,-1.62c-7.12796,-2.18698 -11.74492,-6.39896 -15.7949,-14.17492c-1.70098,-3.32098 -3.40198,-6.07496 -3.80698,-6.07496c-0.324,0 -0.405,2.10598 -0.081,4.61698c1.458,11.50194 7.12796,19.60188 16.3619,23.32786c11.25894,4.45498 13.44592,7.93796 13.04092,20.97888c-0.243,7.69496 -0.324,8.09996 -2.51098,9.71994c-1.94398,1.458 -3.48298,1.70098 -9.71994,1.70098c-8.58594,0 -13.85092,-1.458 -20.00688,-5.75096c-5.02196,-3.48298 -5.99396,-2.26798 -2.02498,2.51098c5.75096,7.12796 13.85092,11.33994 23.08486,12.14992c11.33994,1.053 15.4709,4.69798 15.7139,13.85092c0.081,4.94098 -1.134,6.64196 -6.64196,9.23394c-3.15898,1.539 -4.69798,1.70098 -10.20594,1.377c-3.64498,-0.243 -7.85696,-0.729 -9.39594,-1.053c-2.51098,-0.486 -2.67298,-0.405 -1.78198,0.648c0.567,0.729 3.23998,2.26798 6.07496,3.48298c6.56096,2.99698 14.33692,3.48298 21.62686,1.458l5.26496,-1.539l5.34596,8.18096c7.04696,10.69194 14.17492,18.2249 24.78586,26.16284c11.17794,8.34294 17.0909,11.66392 25.02884,14.41792c6.07496,2.10598 7.12796,2.26798 22.19386,2.26798c16.8479,0 23.97586,-0.891 38.79876,-4.85998c27.37784,-7.37096 40.90476,-17.3339 46.00772,-33.9388c2.18698,-7.20896 1.94398,-34.3438 -0.405,-47.54672c-3.40198,-18.87288 -10.36794,-36.12578 -20.57388,-51.1107c-15.3899,-22.43686 -45.19772,-44.87372 -67.3916,-50.7057c-6.07496,-1.62 -17.7389,-2.67298 -21.54588,-2.02498z" fill="#000000"/><path d="M410.32369,180.9529c14.25592,7.04696 29.40282,19.68288 39.12276,32.4808c8.99094,11.98792 16.6049,30.53682 19.19688,46.97972c5.02196,31.9138 0,49.4907 -17.1719,60.42564c-11.09694,6.96596 -22.43686,9.88194 -38.71776,9.96294c-11.90692,0 -16.8479,-0.729 -27.45884,-4.04998c-17.2529,-5.50796 -32.5618,-17.4149 -39.68976,-31.10382c-3.48298,-6.56096 -3.48298,-8.18096 -0.081,-3.23998c10.85394,15.6329 35.88278,26.32484 58.23864,24.86686c15.2279,-1.053 27.70184,-5.83196 35.39678,-13.52692c8.26196,-8.18096 11.33994,-17.5769 11.42094,-34.0198c0.081,-16.6859 -3.32098,-31.9138 -10.69194,-47.54672c-9.39594,-19.84488 -21.78886,-32.8858 -39.77076,-41.55274c-3.64498,-1.78198 -6.88496,-3.40198 -7.12796,-3.72598c-0.243,-0.324 1.86298,-0.324 4.69798,-0.081c3.96898,0.324 7.04696,1.296 12.63592,4.13098z" fill="#ffffff"/><path d="M417.61364,205.25276c8.58594,5.02196 12.79792,18.79188 8.50494,27.70184c-1.94398,3.88798 -6.39896,6.31796 -10.44894,5.50796c-6.56096,-1.296 -13.36492,-11.98792 -13.36492,-20.89788c0,-5.99396 2.02498,-10.61094 5.50796,-12.71692c3.32098,-2.02498 5.75096,-1.94398 9.80094,0.405z" fill="#ffffff"/><path d="M459.73339,212.38072c9.88194,10.69194 17.0099,21.46488 21.78886,33.1288c6.31796,15.3899 9.88194,31.5898 10.77294,49.3287c1.377,28.51182 -7.45196,39.85176 -37.98878,48.5187c-17.2529,4.94098 -34.8298,7.04696 -48.2757,5.75096c-15.0659,-1.377 -33.0478,-11.50194 -45.52172,-25.51484l-2.02498,-2.26798l3.64498,2.18698c8.01896,4.85998 20.24988,9.80094 29.24082,11.74492c8.09996,1.78198 21.46488,2.51098 29.80782,1.70098c24.29986,-2.51098 42.76774,-13.04092 50.3007,-28.67382c1.70098,-3.64498 3.56398,-8.74794 4.13098,-11.42094c1.539,-7.45196 1.296,-29.96982 -0.486,-39.28476c-3.32098,-17.6579 -11.33994,-35.47778 -22.19386,-49.1667c-1.78198,-2.34898 -3.32098,-4.45498 -3.32098,-4.69798c0,-1.134 5.10296,3.23998 10.12494,8.66694z" fill="#ffffff"/></g></g></g></g></g></svg>