<svg version="1.1" xmlns="http://www.w3.org/2000/svg" xmlns:xlink="http://www.w3.org/1999/xlink" width="768" height="829.4375"><defs><clipPath id="clip-1"><rect x="27.0755" y="0" transform="scale(0.81,0.81)" width="894" height="1024" fill="none"/></clipPath></defs><g fill="none" fill-rule="nonzero" stroke="none" stroke-width="1" stroke-linecap="butt" stroke-linejoin="miter" stroke-miterlimit="10" stroke-dasharray="" stroke-dashoffset="0" font-family="none" font-weight="none" font-size="none" text-anchor="none" style="mix-blend-mode: normal"><g clip-path="url(#clip-1)"><g><path d="M478.36472,1.215c-27.45892,3.23999 -55.32283,10.04397 -76.54477,18.79194c-37.34089,15.47095 -76.38277,44.54987 -117.04465,87.39874c-28.75491,30.29391 -35.23489,36.53089 -39.28488,37.58389c-4.85999,1.296 -28.75491,0.567 -38.47488,-1.134c-11.01597,-2.02499 -19.76394,-4.37399 -24.46193,-6.64198c-5.34598,-2.59199 -12.39296,-10.20597 -15.55195,-16.76695c-7.93798,-16.76695 -7.93798,-26.40592 0.162,-42.20087c4.37399,-8.58597 4.94099,-14.17496 1.94399,-19.27794c-3.56399,-6.15598 -9.39597,-9.15297 -19.11594,-10.04397c-13.28396,-1.215 -28.75491,5.50798 -44.30687,19.27794c-12.47396,11.09697 -21.54594,25.91992 -26.00092,42.36287c-2.02499,7.61398 -2.18699,9.23397 -2.18699,25.91992c-0.081,20.16894 0.81,25.91992 6.80398,43.73987c3.56399,10.69197 2.42999,11.17797 -2.67299,1.377c-4.29299,-8.09998 -5.99398,-13.04096 -7.85698,-22.19393c-0.972,-4.61699 -2.42999,-9.88197 -3.23999,-11.74496c-4.53599,-10.20597 -16.11895,-8.34297 -29.24091,4.61699c-5.18398,5.10298 -6.80398,7.37098 -10.28697,14.57996c-5.58898,11.58297 -8.26198,22.51793 -8.82897,36.04489c-0.729,16.92895 2.59199,31.34691 11.17797,48.27585c12.14996,24.29993 29.07891,41.95787 50.30085,52.64984l7.85698,3.96899l3.48299,6.64198c7.77598,14.98495 21.14094,23.73293 41.39088,26.97292c13.52696,2.18699 24.94792,1.134 36.85489,-3.32099c2.83499,-1.053 5.34598,-1.94399 5.58898,-1.94399c0.162,0 -2.67299,3.40199 -6.39898,7.45198c-13.44596,14.98495 -16.28095,19.76394 -14.90396,25.27192c0.648,2.67299 4.85999,7.45198 8.66697,9.80097c11.42097,7.28998 32.2379,5.34598 49.16685,-4.53599c6.23698,-3.72599 19.03494,-16.68595 24.46193,-24.78593c2.42999,-3.64499 4.77899,-6.56098 5.18398,-6.47998c0.891,0.324 6.88498,16.44295 6.88498,18.87294c0.081,0.891 -1.215,4.21199 -2.75399,7.28998c-4.45499,9.15297 -6.39898,17.25295 -6.39898,27.05392c0,14.01296 2.67299,19.43994 9.63897,19.43994c2.02499,0 4.94099,-0.567 6.47998,-1.134c1.539,-0.648 2.83499,-0.972 2.83499,-0.648c-0.243,19.03494 2.34899,33.3719 7.93798,44.63087c10.69197,21.38394 24.70493,32.9669 34.0199,28.10692c4.13099,-2.18699 9.88197,-10.20597 9.88197,-13.85096c0,-0.648 0.243,-1.215 0.648,-1.215c0.486,0 14.57996,11.50197 21.78893,17.81995c4.21199,3.72599 4.45499,4.85999 2.67299,10.69197c-2.99699,9.63897 -6.64198,12.95996 -18.54894,17.25295c-14.90396,5.42698 -22.03193,13.68896 -25.02892,29.07891c-0.648,3.64499 -1.78199,7.20898 -2.51099,8.09998c-0.729,0.81 -4.85999,3.23999 -9.15297,5.42698c-13.36496,6.72298 -16.28095,10.28697 -16.36195,20.16894c-0.081,3.32099 -0.405,6.47998 -0.729,7.04698c-0.324,0.486 -3.15899,1.86299 -6.23698,3.07799c-3.40199,1.296 -7.12798,3.48299 -9.47697,5.66998c-5.83198,5.18398 -7.69498,9.63897 -9.55797,22.51793c-0.567,3.80699 -2.34899,4.94099 -10.12497,6.56098c-31.10391,6.31798 -57.26683,1.70099 -80.59476,-14.09396c-9.55797,-6.47998 -18.71094,-15.06595 -23.08493,-21.54594c-5.99398,-9.07197 -8.74797,-18.87294 -10.20597,-37.17889c-0.729,-9.15297 -1.539,-10.12497 -8.01898,-10.12497c-7.69498,0 -17.00995,1.458 -24.21893,3.88799c-31.8329,10.44897 -54.51284,56.61883 -43.49687,88.61373c1.86299,5.42698 4.45499,10.52997 9.71997,19.19694l4.13099,6.80398v7.45198c0,4.77899 0.567,9.71997 1.62,13.68896c4.53599,17.90095 20.81694,37.50289 39.20388,47.38486c8.90997,4.69799 16.28095,9.47697 20.65494,13.44596c7.20898,6.39898 18.46794,12.79796 28.83591,16.36195c12.87896,4.37399 30.94191,5.42698 48.11385,2.75399l9.15297,-1.377l-0.648,4.04999c-0.405,2.26799 -0.729,6.88498 -0.729,10.20597c0,9.71997 3.80699,15.87595 15.06595,24.38093c2.10599,1.62 3.07799,3.15899 3.80699,6.23698c1.377,5.18398 5.34598,9.80097 12.55496,14.66096c3.07799,2.02499 7.69498,5.10298 10.20597,6.72298l4.53599,3.07799h17.98195h17.98195l7.53298,-4.37399c36.61189,-21.05994 44.14487,-24.78593 54.18884,-27.13492c10.36797,-2.42999 24.78593,-3.64499 37.74589,-3.07799c17.81995,0.729 26.08192,-1.78199 33.9389,-10.12497c8.26198,-8.82897 11.01597,-21.30294 7.93798,-36.04489c-2.99699,-14.41796 -10.20597,-21.62693 -21.78893,-21.62693c-6.72298,0.081 -9.63897,1.134 -18.79194,7.28998c-3.64499,2.51099 -7.04698,4.29299 -7.53298,3.96899c-1.539,-0.972 -0.891,-7.93798 1.134,-12.31196c2.26799,-4.77899 3.32099,-5.58898 12.39296,-9.47697c8.90997,-3.80699 14.33696,-7.37098 21.54594,-14.17496c3.23999,-3.15899 6.88498,-5.99398 7.93798,-6.47998c2.34899,-0.891 22.11293,-2.51099 33.1289,-2.75399l7.69498,-0.162l8.34297,5.50798c4.61699,2.99699 10.52997,6.56098 13.12196,7.85698c6.23698,3.15899 7.28998,5.10298 7.53298,14.66096c0.162,7.20898 0.081,7.45198 -2.10599,9.07197l-2.18699,1.70099l-10.36797,-4.29299c-16.19995,-6.80398 -18.54894,-7.53298 -24.13793,-7.20898c-10.77297,0.648 -16.44295,9.07197 -16.52395,24.29993c0,13.52696 5.02198,26.08192 14.09396,35.15389c10.04397,10.04397 16.60495,11.25897 40.17588,7.37098c21.70793,-3.64499 36.12589,-5.02198 40.82388,-4.04999c2.26799,0.486 9.88197,3.23999 16.84795,6.15598c15.22795,6.39898 29.56491,11.09697 41.63387,13.60796c11.82596,2.51099 35.63989,2.75399 44.46887,0.486c13.20296,-3.48299 27.45892,-12.63596 31.26591,-20.24994c0.972,-1.78199 1.94399,-5.50798 2.18699,-8.09998c0.405,-4.85999 0.486,-4.94099 6.80398,-11.01597c7.53298,-7.20898 10.28697,-11.42097 10.93497,-16.92895c0.567,-4.85999 -0.567,-8.58597 -4.69799,-15.71395c-7.12798,-12.23096 -22.76093,-24.29993 -46.00786,-35.72089c-11.33997,-5.50798 -14.25596,-6.56098 -18.46794,-6.88498c-3.96899,-0.243 -5.75098,0 -8.50497,1.377c-3.64499,1.70099 -22.67993,20.41194 -32.5619,31.8329c-9.07197,10.52997 -14.98495,11.90696 -27.37792,6.07498c-7.85698,-3.56399 -13.44596,-8.99097 -15.47095,-14.90396c-1.86299,-5.18398 -1.377,-6.23698 4.69799,-10.85397c9.88197,-7.45198 15.30895,-17.90095 17.00995,-33.1289c0.567,-4.29299 2.10599,-7.93798 3.96899,-9.07197c0.486,-0.243 4.69799,-3.32099 9.39597,-6.80398c15.22795,-11.33997 30.94191,-28.91691 40.25688,-44.95486c2.02499,-3.56399 4.04999,-6.64198 4.37399,-6.88498c0.324,-0.162 1.62,1.539 2.75399,3.88799c7.77598,15.63295 22.92293,16.76695 36.44989,2.67299c8.42397,-8.66697 14.49896,-22.51793 15.55195,-35.23489c0.648,-8.66697 1.62,-10.61097 7.04698,-13.68896c7.53298,-4.21199 11.50197,-12.31196 13.52696,-27.37792c2.59199,-19.27794 -2.18699,-36.85489 -14.49896,-53.45984c-7.53298,-10.12497 -14.41796,-14.66096 -30.61791,-20.16894c-12.31196,-4.13099 -18.06295,-6.96598 -22.92293,-11.33997c-4.13099,-3.72599 -9.47697,-10.61097 -8.74797,-11.33997c0.162,-0.162 3.88799,-1.296 8.18098,-2.42999c29.64591,-7.69498 51.35385,-25.51492 64.39481,-52.81184c2.83499,-5.91298 3.96899,-6.80398 5.66998,-4.69799c1.94399,2.26799 8.09998,4.53599 12.55496,4.53599c9.80097,0 24.54293,-11.25897 32.3189,-24.62393c14.98495,-25.83892 18.22495,-66.9058 8.34297,-106.10968c-10.36797,-40.98588 -31.7519,-72.49478 -63.26081,-93.23072c-6.72298,-4.37399 -12.55496,-8.58597 -13.04096,-9.23397c-0.648,-0.81 -1.134,-7.77598 -1.377,-19.52094c-0.405,-18.95394 -1.296,-24.70493 -5.34598,-37.25989c-2.83499,-8.50497 -10.20597,-22.59893 -15.79495,-30.05091c-21.54594,-28.59291 -63.09881,-50.70585 -109.02567,-57.83383c-11.74496,-1.86299 -41.14788,-2.26799 -53.86484,-0.81z" fill="#000000"/><path d="M537.49454,16.11895c29.32191,5.58898 55.16083,17.41495 78.40776,35.96389c24.62393,19.68294 35.31589,42.52487 36.77389,78.65076l0.486,12.06896l-1.94399,-0.567c-1.053,-0.324 -5.83198,-0.81 -10.52997,-1.053c-13.20296,-0.648 -20.73594,2.10599 -29.24091,10.85397c-7.69498,7.93798 -20.08794,29.88891 -23.81393,41.95787c-1.215,3.96899 -2.26799,6.88498 -2.42999,6.47998c-0.162,-0.486 -1.215,-5.18398 -2.34899,-10.52997c-7.20898,-32.7239 -20.97894,-53.37884 -47.87086,-71.52278c-24.62393,-16.52395 -52.40684,-27.78292 -81.72875,-33.0479c-11.66396,-2.10599 -45.68386,-2.18699 -58.31982,-0.081c-28.91691,4.85999 -52.16384,13.93196 -76.54477,30.13191c-12.14996,8.09998 -21.78893,16.03795 -40.09488,33.1289c-28.34991,26.56792 -32.2379,29.64591 -37.25989,29.64591c-1.70099,0 -2.02499,-0.405 -2.02499,-2.26799c0,-1.215 0.648,-3.40199 1.458,-4.77899c5.58898,-10.44897 49.65285,-55.32283 79.86576,-81.48575c36.44989,-31.6709 56.94283,-45.35986 82.70075,-55.24183c11.58297,-4.45499 16.52395,-5.91298 38.47488,-11.25897c35.15389,-8.58597 41.22888,-9.39597 67.2298,-9.07197c16.03795,0.243 21.54594,0.567 28.75491,2.02499z" fill="#ffc800"/><path d="M153.96069,59.53482c5.50798,1.134 8.09998,3.15899 8.09998,6.31798c0,0.972 -2.02499,5.91298 -4.45499,11.09697c-5.50798,11.58297 -6.80398,18.14395 -5.50798,27.37792c2.51099,17.09095 11.66396,32.7239 23.24693,39.44688c9.71997,5.66998 17.90095,7.37098 48.19485,10.12497c10.04397,0.891 18.30594,1.78199 18.46794,1.94399c0.162,0.162 -1.86299,3.56399 -4.61699,7.53298c-4.61699,6.88498 -4.85999,7.53298 -4.85999,12.06896c0,2.99699 0.486,5.50798 1.215,6.56098c1.70099,2.42999 7.12798,3.88799 10.28697,2.75399c5.83198,-2.02499 14.74196,-9.23397 29.40291,-23.81393c24.29993,-24.13793 43.57787,-38.79888 66.3388,-50.38185c39.04188,-19.84494 80.43276,-25.75792 120.28464,-17.25295c40.09488,8.50497 82.94375,33.1289 99.8727,57.34783c10.44897,14.82296 17.00995,34.5059 19.19694,57.50983c1.215,12.87896 1.62,23.00393 2.18699,62.77481c0.567,40.25688 0.486,41.63387 -4.53599,51.83984c-8.01898,16.52395 -29.07891,29.80791 -45.19786,28.51191c-2.83499,-0.243 -5.34598,-0.567 -5.58898,-0.81c-0.243,-0.243 0.648,-3.15899 2.02499,-6.39898c2.83499,-6.88498 3.80699,-12.31196 2.99699,-16.60495l-0.567,-3.07799l-3.07799,6.47998c-5.99398,12.79796 -13.76996,20.73594 -24.21893,24.46193c-4.37399,1.62 -6.80398,1.94399 -13.44596,1.94399c-4.45499,-0.081 -8.66697,-0.162 -9.31497,-0.243c-2.67299,-0.486 -1.78199,1.377 1.62,3.48299c4.13099,2.59199 11.74496,4.77899 16.28095,4.77899c4.29299,0 11.74496,-2.51099 16.44295,-5.50798c4.85999,-3.07799 9.96297,-3.48299 14.01296,-0.972c3.23999,1.94399 3.96899,3.40199 5.99398,11.17797c2.67299,10.20597 6.23698,18.38694 11.25897,25.91992c9.88197,14.90396 21.95093,24.54293 41.39088,33.0479c4.61699,2.02499 9.07197,4.29299 9.88197,5.02198c0.81,0.729 2.59199,3.64499 3.96899,6.56098c3.23999,6.96598 11.17797,14.82296 18.87294,18.87294c3.15899,1.62 10.61097,4.61699 16.60495,6.72298c12.55496,4.37399 18.06295,7.45198 24.13793,13.52696c8.26198,8.18098 13.85096,20.89794 15.71395,35.80189c0.891,7.12798 0.81,8.66697 -0.81,17.73895c-1.62,8.82897 -2.18699,10.44897 -5.26498,14.90396c-2.10599,3.15899 -3.56399,4.69799 -3.88799,4.04999c-0.486,-0.891 -2.51099,-7.93798 -5.26498,-18.38694c-2.83499,-10.61097 -3.72599,-12.95996 -4.85999,-12.95996c-1.539,0 -1.458,0.567 1.053,11.33997c1.94399,8.18098 2.18699,10.93497 2.18699,22.67993c0,12.23096 -0.162,14.01296 -2.18699,20.49294c-4.21199,13.60796 -10.12497,22.67993 -19.19694,29.32191c-2.18699,1.62 -5.18398,3.15899 -6.72298,3.40199c-3.56399,0.567 -7.45198,-1.458 -9.07197,-4.61699c-1.94399,-3.72599 -3.07799,-15.30895 -2.67299,-27.29692c0.162,-7.28998 0,-10.77297 -0.567,-10.77297c-0.486,0 -3.72599,6.07498 -7.28998,13.52696c-11.42097,24.05693 -21.78893,39.52788 -34.5059,51.67784c-28.67391,27.37792 -67.2298,43.33487 -118.58364,49.00485c-9.15297,1.053 -32.8859,2.26799 -33.8579,1.78199c-0.324,-0.162 -0.405,-2.10599 -0.081,-4.29299c0.81,-5.83198 -0.729,-5.02198 -4.45499,2.34899c-7.37098,14.66096 -18.22495,23.73293 -35.15389,29.48391c-8.66697,2.91599 -20.57394,3.88799 -28.18792,2.34899c-14.33696,-2.99699 -27.21592,-14.74196 -32.3189,-29.48391c-1.94399,-5.50798 -2.99699,-17.33395 -1.70099,-19.11594c0.567,-0.972 4.29299,-1.296 16.68595,-1.78199c43.01087,-1.70099 84.64474,-9.80097 103.27469,-20.00694c21.38394,-11.66396 36.44989,-31.10391 49.32885,-63.50381c3.32099,-8.26198 4.13099,-11.25897 4.13099,-15.06595c0,-5.18398 0.891,-6.64198 4.04999,-6.64198c3.56399,0 11.42097,-2.34899 16.52395,-4.94099c4.61699,-2.34899 13.04096,-8.66697 12.39296,-9.31497c-0.162,-0.162 -2.10599,0.567 -4.29299,1.62c-12.14996,5.83198 -26.56792,7.61398 -38.31288,4.61699c-17.09095,-4.29299 -33.3719,-14.57996 -43.65887,-27.53992c-4.13099,-5.26498 -5.83198,-6.39898 -5.83198,-3.88799c0,0.567 2.59199,4.94099 5.66998,9.63897c8.74797,13.44596 19.84494,21.95093 35.15389,27.37792c4.04999,1.377 7.77598,2.91599 8.42397,3.48299c0.891,0.729 1.053,2.34899 0.729,7.04698c-0.324,5.02198 -1.134,7.85698 -4.77899,16.19995c-13.76996,31.9949 -34.1009,52.48784 -59.77782,60.18282c-12.55496,3.80699 -38.55588,8.58597 -60.34482,11.25897c-11.98796,1.377 -50.94885,1.377 -61.15482,0c-13.20296,-1.86299 -20.97894,-4.13099 -30.37491,-8.66697c-10.36797,-5.10298 -17.17195,-10.69197 -19.84494,-16.36195c-1.539,-3.32099 -1.78199,-4.85999 -1.458,-10.52997c0.486,-9.15297 2.99699,-13.36496 10.36797,-17.00995c8.90997,-4.45499 8.82897,-4.45499 15.47095,2.10599c8.82897,8.74797 20.16894,13.76996 40.74288,17.98195c8.82897,1.78199 22.84193,2.18699 29.15991,0.729c3.07799,-0.648 4.85999,-0.567 9.96297,0.81c3.40199,0.891 7.53298,1.62 9.07197,1.62c2.83499,-0.081 2.83499,-0.081 -1.70099,-1.94399c-18.79194,-7.85698 -29.80791,-24.94792 -30.05091,-47.06086c-0.081,-4.04999 0.405,-9.31497 0.972,-11.74496c2.26799,-9.23397 8.74797,-18.87294 17.09095,-25.27192l2.83499,-2.18699l-2.34899,-0.081c-3.80699,0 -12.23096,4.53599 -15.79495,8.66697c-4.53599,5.02198 -8.58597,13.52696 -10.36797,21.30294c-1.053,4.53599 -1.78199,6.47998 -2.67299,6.47998c-2.26799,0 -9.88197,-4.37399 -13.12196,-7.53298c-4.04999,-3.88799 -5.50798,-7.37098 -5.50798,-12.95996c0,-6.80398 2.10599,-11.66396 7.20898,-16.84795c3.40199,-3.32099 5.83198,-4.94099 9.80097,-6.39898c7.93798,-2.83499 14.25596,-6.23698 17.73895,-9.31497c3.40199,-3.07799 7.20898,-9.80097 9.39597,-16.52395l1.377,-4.29299l4.21199,0.567c17.49595,2.26799 25.02892,2.51099 36.53089,1.134c17.65795,-2.18699 36.44989,-10.77297 45.60286,-20.89794c3.23999,-3.56399 6.07498,-7.37098 5.50798,-7.37098c-0.243,0 -5.50798,2.51099 -11.58297,5.58898c-19.60194,9.88197 -30.45591,12.55496 -50.86785,12.55496c-12.06896,0 -14.90396,-0.243 -22.84193,-2.10599c-12.23096,-2.91599 -19.19694,-6.64198 -26.72992,-14.17496c-5.10298,-5.18398 -6.56098,-7.28998 -11.33997,-17.25295c-2.99699,-6.23698 -5.75098,-11.33997 -6.07498,-11.33997c-0.243,0 -0.729,1.94399 -1.053,4.21199c-2.02499,16.52395 -3.40199,21.14094 -8.66697,28.83591l-2.42999,3.48299l-4.53599,-2.59199c-5.99398,-3.32099 -9.15297,-6.31798 -13.85096,-13.36496c-8.18098,-12.23096 -11.66396,-24.21893 -11.66396,-40.41888c0,-11.09697 0.891,-17.33395 5.18398,-34.8299c1.296,-5.34598 2.34899,-10.04397 2.34899,-10.36797c0,-1.70099 -3.07799,2.10599 -9.80097,11.98796c-7.04698,10.52997 -12.71696,17.41495 -14.33696,17.41495c-1.215,0 -2.10599,-11.25897 -1.458,-19.11594c1.377,-16.76695 8.18098,-31.18491 22.43693,-47.30386c3.56399,-3.96899 6.23698,-7.28998 5.99398,-7.28998c-1.86299,0 -6.72298,3.64499 -12.71696,9.55797l-7.12798,6.88498l-1.94399,-4.37399c-2.67299,-5.91298 -4.29299,-14.49896 -4.94099,-26.64892c-0.324,-5.58898 -0.648,-10.20597 -0.729,-10.36797c-0.162,-0.081 -1.296,2.26799 -2.51099,5.26498c-8.42397,20.00694 -15.55195,32.1569 -24.38093,41.55287c-15.55195,16.44295 -34.7489,23.57093 -50.38185,18.71094c-7.28998,-2.26799 -9.88197,-4.37399 -9.88197,-8.01898c0,-3.64499 0.81,-4.85999 13.04096,-18.95394c15.55195,-17.90095 31.6709,-37.42189 32.5619,-39.36588c0.486,-0.972 0.648,-2.02499 0.405,-2.26799c-0.243,-0.243 -6.80398,3.88799 -14.49896,9.07197c-19.43994,13.12196 -28.99791,17.25295 -43.41587,18.87294c-17.09095,1.86299 -32.7239,-3.32099 -44.14487,-14.57996c-3.07799,-2.99699 -5.50798,-5.99398 -5.50798,-6.80398c0,-1.215 0.567,-1.377 4.04999,-0.972c6.23698,0.729 22.59893,-0.891 31.34691,-3.07799c15.55195,-3.96899 34.3439,-15.22795 44.63087,-26.81092c5.99398,-6.72298 5.75098,-9.23397 -0.405,-3.96899c-1.78199,1.539 -6.15598,4.53599 -9.63897,6.72298c-19.43994,11.90696 -39.04188,17.98195 -58.23882,17.98195c-18.54894,0 -35.55889,-8.50497 -54.02684,-27.13492c-20.00694,-20.00694 -30.61791,-45.27886 -30.61791,-72.65678c0,-14.49896 3.23999,-26.32492 10.20597,-36.69289c7.93798,-11.98796 20.41194,-20.00694 22.51793,-14.41796c0.324,0.729 1.377,5.42698 2.42999,10.28697c4.85999,23.00393 14.41796,37.17889 33.6959,50.05785c20.73594,13.85096 40.98588,19.92594 62.77481,18.95394c12.79796,-0.567 22.92293,-2.51099 21.38394,-4.13099c-0.243,-0.162 -2.75399,0 -5.58898,0.405c-7.85698,1.134 -22.92293,0.972 -31.18491,-0.405c-31.6709,-5.10298 -53.29784,-25.75792 -60.42582,-57.50983c-3.32099,-14.98495 -4.13099,-33.6149 -1.94399,-46.25086c5.18398,-29.96991 22.11293,-51.27285 49.24785,-61.96481c6.64198,-2.59199 11.82596,-2.91599 20.00694,-1.134z" fill="#ffc800"/><path d="M650.1652,152.11754c13.28396,4.69799 29.72691,15.22795 41.22888,26.48692c22.67993,22.27493 37.66489,52.24484 43.33487,86.66974c5.18398,31.6709 2.75399,60.26382 -6.80398,79.86576c-6.39898,12.95996 -21.86993,27.45892 -29.40291,27.45892c-3.72599,0 -6.72298,-2.42999 -14.09396,-11.42097c-11.25897,-13.76996 -17.65795,-17.33395 -29.56491,-16.76695c-9.96297,0.486 -15.14695,3.80699 -33.5339,21.30294c-9.23397,8.74797 -14.74196,12.06896 -22.35593,13.44596c-7.28998,1.377 -20.41194,-1.377 -27.45892,-5.75098c-5.99398,-3.72599 -13.76996,-14.82296 -13.20296,-18.87294c0.162,-0.972 1.86299,-2.91599 3.88799,-4.45499c7.93798,-5.83198 10.28697,-7.93798 14.17496,-12.39296c4.85999,-5.66998 9.47697,-14.49896 11.42097,-21.78893c2.10599,-8.01898 2.42999,-24.38093 0.729,-39.52788c-2.02499,-17.90095 -1.377,-40.01388 1.539,-55.48483c4.37399,-22.84193 14.74196,-48.35685 23.65193,-57.99583c11.90696,-12.87896 21.86993,-15.79495 36.44989,-10.77297z" fill="#ffc800"/><path d="M666.93215,354.21193c1.94399,1.134 4.94099,3.64499 6.56098,5.50798c2.91599,3.15899 3.07799,3.64499 2.75399,7.53298c-0.891,9.07197 -7.85698,21.46494 -17.98195,31.9139c-10.04397,10.44897 -21.95093,18.06295 -34.91089,22.51793c-5.58898,1.94399 -7.77598,2.26799 -15.79495,2.26799c-11.01597,0.081 -16.76695,-1.296 -26.48692,-5.99398c-11.42097,-5.66998 -22.11293,-15.22795 -29.72691,-26.81092c-2.99699,-4.61699 -12.63596,-27.37792 -12.63596,-29.96991c0,-1.78199 1.377,-2.83499 4.53599,-3.40199c1.458,-0.243 3.48299,-0.729 4.61699,-0.972c1.86299,-0.486 2.26799,0 5.42698,5.99398c9.88197,18.95394 32.8859,28.02592 53.45984,21.14094c7.37098,-2.42999 12.14996,-5.83198 21.86993,-15.47095c13.68896,-13.60796 19.92594,-17.17195 29.32191,-16.68595c3.96899,0.243 6.31798,0.891 8.99097,2.42999z" fill="#ffffff"/><path d="M108.19583,550.31234c1.215,0.81 1.62,2.67299 2.10599,9.88197c1.053,14.09396 5.42698,25.59592 14.25596,37.34089c12.79796,17.09095 34.1819,29.64591 60.58782,35.63989c5.10298,1.134 9.80097,1.458 21.86993,1.458c13.85096,-0.081 16.36195,-0.324 24.78593,-2.26799c5.18398,-1.215 9.96297,-2.02499 10.52997,-1.78199c0.648,0.243 3.23999,2.75399 5.83198,5.58898c11.25897,12.63596 26.48692,19.19694 54.51284,23.57093l8.99097,1.458l0.405,8.58597c0.486,9.63897 3.07799,18.71094 7.12798,25.43392c1.377,2.18699 2.42999,4.13099 2.42999,4.45499c0,0.567 -3.88799,2.83499 -29.72691,17.33395c-14.17496,7.85698 -12.95996,7.69498 -22.76093,2.75399c-8.50497,-4.29299 -14.57996,-5.66998 -19.76394,-4.53599c-9.23397,1.94399 -20.24994,10.12497 -32.6429,24.13793c-4.04999,4.61699 -8.42397,8.99097 -9.71997,9.80097c-2.67299,1.70099 -17.33395,3.72599 -32.3999,4.61699c-14.74196,0.81 -27.05392,-2.10599 -39.28488,-9.31497c-2.99699,-1.78199 -5.91298,-3.88799 -6.56098,-4.61699c-1.053,-1.296 -0.81,-1.377 3.07799,-0.891c2.26799,0.243 8.34297,0.162 13.52696,-0.243c24.21893,-1.78199 49.89585,-10.28697 68.28279,-22.59893c6.31798,-4.21199 11.01597,-8.18098 9.80097,-8.18098c-0.243,0 -4.94099,2.18699 -10.44897,4.85999c-29.24091,14.01296 -66.5818,20.24994 -91.28672,14.98495c-21.70793,-4.53599 -37.50289,-15.87595 -49.49085,-35.55889c-3.23999,-5.18398 -7.85698,-17.41495 -7.20898,-19.03494c0.081,-0.405 3.80699,1.377 8.18098,3.96899c14.57996,8.66697 30.61791,14.09396 47.78986,16.19995c11.01597,1.377 36.69289,0.567 50.78685,-1.539c25.02892,-3.80699 48.35685,-11.74496 61.88381,-21.05994c6.15598,-4.29299 5.02198,-4.21199 -5.75098,0.243c-24.70493,10.20597 -45.19786,14.66096 -71.92778,15.63295c-19.76394,0.648 -35.96389,-1.377 -53.62184,-6.72298c-23.89493,-7.20898 -39.28488,-20.49294 -48.68085,-42.11987c-6.72298,-15.47095 -7.28998,-26.08192 -2.10599,-41.55287c8.26198,-24.70493 23.65193,-40.01388 45.68386,-45.44086c7.45198,-1.86299 8.99097,-1.94399 10.93497,-0.486z" fill="#ffffff"/><path d="M301.94725,567.56529c2.10599,1.62 6.96598,4.94099 10.77297,7.37098c10.61097,6.72298 11.66396,8.09998 18.71094,22.43693c3.48299,7.12798 6.39898,13.20296 6.39898,13.52696c0,1.053 -11.33997,0.729 -19.03494,-0.567c-14.74196,-2.34899 -29.32191,-8.42397 -35.47789,-14.66096c-11.50197,-11.66396 -10.12497,-21.54594 3.88799,-28.59291c6.64198,-3.40199 9.80097,-3.32099 14.74196,0.486z" fill="#ffffff"/><path d="M540.16753,674.64697c-0.81,8.18098 -7.53298,18.06295 -15.14695,22.19393c-11.58297,6.31798 -31.02291,5.99398 -44.63087,-0.81c-3.32099,-1.70099 -6.07498,-3.40199 -6.07498,-3.88799c0,-0.567 62.53181,-20.97894 65.5288,-21.38394c0.405,-0.081 0.486,1.70099 0.324,3.88799z" fill="#ffffff"/><path d="M629.51026,703.23988c12.47396,6.15598 18.95394,10.20597 27.21592,17.09095c9.88197,8.09998 17.98195,19.27794 18.06295,24.78593c0,3.48299 -3.23999,8.90997 -7.12798,11.90696l-3.72599,2.83499l-13.36496,-13.68896c-12.55496,-12.71696 -13.93196,-13.93196 -20.65494,-17.25295c-6.64198,-3.23999 -7.69498,-3.56399 -13.36496,-3.48299c-7.85698,0 -11.09697,1.539 -21.46494,10.20597c-5.66998,4.69799 -7.61398,6.80398 -6.96598,7.45198c0.567,0.567 1.215,0.567 2.26799,-0.081c21.14094,-13.52696 25.75792,-14.74196 36.61189,-9.39597c5.26498,2.67299 23.57093,20.41194 26.97292,26.16292c7.12798,12.23096 6.23698,20.16894 -3.15899,27.45892c-9.80097,7.61398 -21.46494,10.93497 -38.39388,10.93497c-19.52094,-0.081 -37.42189,-4.61699 -63.09881,-16.03795c-21.46494,-9.55797 -27.13492,-9.80097 -63.66581,-3.15899c-7.85698,1.377 -13.04096,1.94399 -17.00995,1.70099c-15.71395,-1.053 -24.21893,-12.79796 -26.00092,-35.55889c-0.648,-8.18098 0.324,-11.90696 3.80699,-14.90396c2.02499,-1.70099 3.32099,-2.02499 7.28998,-2.02499c4.29299,0 5.83198,0.567 15.79495,5.66998c8.99097,4.61699 11.82596,5.66998 14.82296,5.66998c4.85999,0 8.90997,-2.18699 11.25897,-6.15598c1.70099,-2.91599 1.86299,-3.96899 1.62,-12.55496l-0.243,-9.47697l5.26498,-0.486c2.91599,-0.243 8.01898,-0.486 11.33997,-0.486l6.07498,0.081l3.15899,6.64198c6.64198,14.09396 20.73594,23.24693 35.80189,23.24693c7.93798,0 11.90696,-2.51099 21.62693,-13.68896c11.82596,-13.44596 22.27493,-24.13793 26.48692,-26.97292c5.50798,-3.64499 9.15297,-3.07799 22.76093,3.56399z" fill="#ffffff"/><path d="M331.59316,709.39586c2.83499,2.51099 3.07799,3.80699 1.78199,9.80097c-0.648,3.15899 -1.70099,6.96598 -2.34899,8.42397c-2.91599,7.04698 -10.36797,11.74496 -19.60194,12.55496c-6.23698,0.486 -9.55797,-0.648 -17.25295,-5.58898l-5.99398,-3.80699l5.99398,-3.88799c3.32099,-2.10599 10.04397,-6.31798 14.90396,-9.47697c4.94099,-3.07799 10.52997,-6.72298 12.55496,-8.01898c3.96899,-2.59199 7.12798,-2.59199 9.96297,0z" fill="#ffffff"/><path d="M357.67508,720.97883c6.23698,0.972 11.50197,1.86299 11.66396,2.02499c0.162,0.162 -0.324,2.67299 -1.053,5.58898c-2.02499,8.01898 -0.486,14.90396 3.64499,16.60495c1.296,0.567 4.29299,0.891 6.64198,0.648c3.48299,-0.243 5.34598,-1.134 10.28697,-4.53599c3.40199,-2.26799 7.12798,-4.53599 8.42397,-4.94099c3.64499,-1.458 9.47697,-1.053 12.47396,0.729c7.61398,4.61699 10.85397,25.10992 5.58898,35.31589c-2.83499,5.58898 -9.31497,11.33997 -14.57996,12.87896c-2.91599,0.891 -10.28697,1.539 -23.24693,2.10599c-10.52997,0.405 -23.32793,1.215 -28.51191,1.86299c-10.69197,1.215 -16.19995,3.32099 -26.97292,10.61097c-28.59291,19.11594 -55.64683,24.86693 -78.16476,16.60495c-18.62994,-6.72298 -21.54594,-14.98495 -12.14996,-34.6679c7.04698,-14.74196 17.90095,-26.32492 26.48692,-28.10692c3.56399,-0.729 11.01597,1.296 18.71094,5.18398c3.56399,1.78199 6.64198,2.99699 6.96598,2.75399c1.78199,-1.78199 -0.162,-3.48299 -9.80097,-8.34297c-16.84795,-8.42397 -21.70793,-7.69498 -33.9389,5.02198c-7.20898,7.61398 -10.93497,13.12196 -15.71395,23.65193c-2.02499,4.29299 -3.88799,7.77598 -4.29299,7.77598c-1.296,0 -7.77598,-6.64198 -8.99097,-9.23397c-5.50798,-11.66396 6.47998,-34.1819 25.83892,-48.68085c7.85698,-5.91298 11.74496,-7.69498 16.52395,-7.69498c4.53599,0 7.12798,1.215 26.40592,12.63596c17.98195,10.61097 20.57394,11.74496 27.86392,12.23096c16.68595,1.134 28.91691,-8.09998 33.8579,-25.67692c1.134,-4.29299 1.539,-4.94099 2.99699,-4.53599c0.972,0.162 6.80398,1.134 13.04096,2.18699z" fill="#ffffff"/><path d="M388.04999,166.5355c-9.71997,1.70099 -12.39296,2.34899 -17.00995,4.29299c-10.61097,4.45499 -21.46494,13.44596 -28.34991,23.57093c-4.29299,6.31798 -7.93798,14.17496 -11.33997,24.62393c-2.75399,8.26198 -5.10298,11.82596 -7.93798,11.82596c-0.891,0 -3.96899,-0.729 -6.80398,-1.62c-7.12798,-2.18699 -11.74496,-6.39898 -15.79495,-14.17496c-1.70099,-3.32099 -3.40199,-6.07498 -3.80699,-6.07498c-0.324,0 -0.405,2.10599 -0.081,4.61699c1.458,11.50197 7.12798,19.60194 16.36195,23.32793c11.25897,4.45499 13.44596,7.93798 13.04096,20.97894c-0.243,7.69498 -0.324,8.09998 -2.51099,9.71997c-1.94399,1.458 -3.48299,1.70099 -9.71997,1.70099c-8.58597,0 -13.85096,-1.458 -20.00694,-5.75098c-5.02198,-3.48299 -5.99398,-2.26799 -2.02499,2.51099c5.75098,7.12798 13.85096,11.33997 23.08493,12.14996c11.33997,1.053 15.47095,4.69799 15.71395,13.85096c0.081,4.94099 -1.134,6.64198 -6.64198,9.23397c-3.15899,1.539 -4.69799,1.70099 -10.20597,1.377c-3.64499,-0.243 -7.85698,-0.729 -9.39597,-1.053c-2.51099,-0.486 -2.67299,-0.405 -1.78199,0.648c0.567,0.729 3.23999,2.26799 6.07498,3.48299c6.56098,2.99699 14.33696,3.48299 21.62693,1.458l5.26498,-1.539l5.34598,8.18098c7.04698,10.69197 14.17496,18.22495 24.78593,26.16292c11.17797,8.34297 17.09095,11.66396 25.02892,14.41796c6.07498,2.10599 7.12798,2.26799 22.19393,2.26799c16.84795,0 23.97593,-0.891 38.79888,-4.85999c27.37792,-7.37098 40.90488,-17.33395 46.00786,-33.9389c2.18699,-7.20898 1.94399,-34.3439 -0.405,-47.54686c-3.40199,-18.87294 -10.36797,-36.12589 -20.57394,-51.11085c-15.38995,-22.43693 -45.19786,-44.87386 -67.3918,-50.70585c-6.07498,-1.62 -17.73895,-2.67299 -21.54594,-2.02499z" fill="#000000"/><path d="M410.32492,180.95345c14.25596,7.04698 29.40291,19.68294 39.12288,32.4809c8.99097,11.98796 16.60495,30.53691 19.19694,46.97986c5.02198,31.9139 0,49.49085 -17.17195,60.42582c-11.09697,6.96598 -22.43693,9.88197 -38.71788,9.96297c-11.90696,0 -16.84795,-0.729 -27.45892,-4.04999c-17.25295,-5.50798 -32.5619,-17.41495 -39.68988,-31.10391c-3.48299,-6.56098 -3.48299,-8.18098 -0.081,-3.23999c10.85397,15.63295 35.88289,26.32492 58.23882,24.86693c15.22795,-1.053 27.70192,-5.83198 35.39689,-13.52696c8.26198,-8.18098 11.33997,-17.57695 11.42097,-34.0199c0.081,-16.68595 -3.32099,-31.9139 -10.69197,-47.54686c-9.39597,-19.84494 -21.78893,-32.8859 -39.77088,-41.55287c-3.64499,-1.78199 -6.88498,-3.40199 -7.12798,-3.72599c-0.243,-0.324 1.86299,-0.324 4.69799,-0.081c3.96899,0.324 7.04698,1.296 12.63596,4.13099z" fill="#ffffff"/><path d="M417.6149,205.25338c8.58597,5.02198 12.79796,18.79194 8.50497,27.70192c-1.94399,3.88799 -6.39898,6.31798 -10.44897,5.50798c-6.56098,-1.296 -13.36496,-11.98796 -13.36496,-20.89794c0,-5.99398 2.02499,-10.61097 5.50798,-12.71696c3.32099,-2.02499 5.75098,-1.94399 9.80097,0.405z" fill="#ffffff"/><path d="M459.73477,212.38136c9.88197,10.69197 17.00995,21.46494 21.78893,33.1289c6.31798,15.38995 9.88197,31.5899 10.77297,49.32885c1.377,28.51191 -7.45198,39.85188 -37.98889,48.51885c-17.25295,4.94099 -34.8299,7.04698 -48.27585,5.75098c-15.06595,-1.377 -33.0479,-11.50197 -45.52186,-25.51492l-2.02499,-2.26799l3.64499,2.18699c8.01898,4.85999 20.24994,9.80097 29.24091,11.74496c8.09998,1.78199 21.46494,2.51099 29.80791,1.70099c24.29993,-2.51099 42.76787,-13.04096 50.30085,-28.67391c1.70099,-3.64499 3.56399,-8.74797 4.13099,-11.42097c1.539,-7.45198 1.296,-29.96991 -0.486,-39.28488c-3.32099,-17.65795 -11.33997,-35.47789 -22.19393,-49.16685c-1.78199,-2.34899 -3.32099,-4.45499 -3.32099,-4.69799c0,-1.134 5.10298,3.23999 10.12497,8.66697z" fill="#ffffff"/></g></g></g></svg>