<svg version="1.1" xmlns="http://www.w3.org/2000/svg" xmlns:xlink="http://www.w3.org/1999/xlink" width="768" height="819.1875"><defs><clipPath id="clip-1"><rect x="33.00732" y="0" transform="scale(0.79999,0.79999)" width="894" height="1024" id="clip-1" fill="none"/></clipPath></defs><g fill="none" fill-rule="nonzero" stroke="none" stroke-width="1" stroke-linecap="butt" stroke-linejoin="miter" stroke-miterlimit="10" stroke-dasharray="" stroke-dashoffset="0" font-family="none" font-weight="none" font-size="none" text-anchor="none" style="mix-blend-mode: normal"><g><g><g><g><g><g><g><g><g><g><g><g><g clip-path="url(#clip-1)"><g><path d="M477.19072,1.19998c-27.11917,3.19989 -54.63827,9.91967 -75.59759,18.55942c-36.87884,15.27953 -75.43759,43.99861 -115.59632,86.31724c-28.39909,29.91906 -34.79887,36.07885 -38.79875,37.11883c-4.79987,1.27998 -28.39909,0.55999 -37.99882,-1.11998c-10.87965,-1.99991 -19.5194,-4.31987 -24.15921,-6.55978c-5.27986,-2.5599 -12.23963,-10.07967 -15.35953,-16.55945c-7.83976,-16.55945 -7.83976,-26.07918 0.16,-41.6787c4.31987,-8.47975 4.87987,-13.99955 1.91991,-19.03941c-3.51989,-6.07979 -9.27968,-9.03974 -18.87941,-9.91967c-13.11956,-1.19998 -28.39909,5.4398 -43.75861,19.03941c-12.31963,10.95965 -21.27932,25.59919 -25.67919,41.83864c-1.99991,7.51977 -2.15991,9.11968 -2.15991,25.59919c-0.08,19.9194 0.79999,25.59919 6.71978,43.19862c3.51989,10.55966 2.3999,11.03965 -2.6399,1.35998c-4.23988,-7.99976 -5.91979,-12.87956 -7.75976,-21.91931c-0.95999,-4.55987 -2.3999,-9.75967 -3.19989,-11.59964c-4.47987,-10.07967 -15.91952,-8.23975 -28.87908,4.55987c-5.11986,5.03986 -6.71978,7.27977 -10.15966,14.39954c-5.5198,11.43965 -8.15976,22.2393 -8.71975,35.59886c-0.71999,16.71944 2.5599,30.95899 11.03965,47.67849c11.99964,23.99921 28.71908,41.43871 49.6784,51.99837l7.75976,3.91988l3.43989,6.55978c7.67976,14.79953 20.87932,23.43928 40.87872,26.63917c13.35956,2.15991 24.6392,1.11998 36.39884,-3.27989c2.7999,-1.03998 5.27986,-1.91991 5.5198,-1.91991c0.16,0 -2.6399,3.35989 -6.31978,7.35977c-13.27956,14.79953 -16.07951,19.5194 -14.71954,24.9592c0.63999,2.6399 4.79987,7.35977 8.55975,9.67967c11.27965,7.19977 31.83897,5.27986 48.55848,-4.47987c6.15979,-3.67988 18.79941,-16.47945 24.15921,-24.47921c2.3999,-3.59989 4.71987,-6.47978 5.11986,-6.39978c0.87999,0.32 6.79978,16.23951 6.79978,18.63942c0.08,0.87999 -1.19998,4.15988 -2.7199,7.19977c-4.39987,9.03974 -6.31978,17.03944 -6.31978,26.71917c0,13.83955 2.6399,19.19941 9.51967,19.19941c1.99991,0 4.87987,-0.55999 6.39978,-1.11998c1.51998,-0.63999 2.7999,-0.95999 2.7999,-0.63999c-0.24,18.79941 2.3199,32.95896 7.83976,44.07861c10.55966,21.11932 24.39921,32.55896 33.59895,27.7591c4.07988,-2.15991 9.75967,-10.07967 9.75967,-13.67955c0,-0.63999 0.24,-1.19998 0.63999,-1.19998c0.47999,0 14.39954,11.35965 21.51931,17.59943c4.15988,3.67988 4.39987,4.79987 2.6399,10.55966c-2.95989,9.51967 -6.55978,12.79956 -18.31942,17.03944c-14.71954,5.35986 -21.75931,13.51955 -24.7192,28.71908c-0.63999,3.59989 -1.75997,7.11977 -2.4799,7.99976c-0.71999,0.79999 -4.79987,3.19989 -9.03974,5.35986c-13.19956,6.63978 -16.07951,10.15966 -16.15951,19.9194c-0.08,3.27989 -0.39999,6.39978 -0.71999,6.95977c-0.32,0.47999 -3.11989,1.83991 -6.15979,3.03989c-3.35989,1.27998 -7.03977,3.43989 -9.35968,5.59979c-5.75979,5.11986 -7.59976,9.51967 -9.43968,22.2393c-0.55999,3.75988 -2.3199,4.87987 -9.99967,6.47978c-30.71905,6.23978 -56.55818,1.67997 -79.59747,-13.91955c-9.43968,-6.39978 -18.47942,-14.87953 -22.79929,-21.27932c-5.91979,-8.95974 -8.63975,-18.63942 -10.07967,-36.71884c-0.71999,-9.03974 -1.51998,-9.99967 -7.91976,-9.99967c-7.59976,0 -16.79944,1.43998 -23.91922,3.83988c-31.43898,10.31966 -53.83828,55.91825 -42.95862,87.51722c1.83991,5.35986 4.39987,10.39966 9.59967,18.95941l4.07988,6.71978v7.35977c0,4.71987 0.55999,9.59967 1.59998,13.51955c4.47987,17.67943 20.55933,37.03883 38.71875,46.79851c8.79975,4.63987 16.07951,9.35968 20.39933,13.27956c7.11977,6.31978 18.23942,12.63963 28.47909,16.15951c12.71957,4.31987 30.55905,5.35986 47.51849,2.7199l9.03974,-1.35998l-0.63999,3.99988c-0.39999,2.23991 -0.71999,6.79978 -0.71999,10.07967c0,9.59967 3.75988,15.67952 14.87953,24.07921c2.07991,1.59998 3.03989,3.11989 3.75988,6.15979c1.35998,5.11986 5.27986,9.67967 12.39963,14.47954c3.03989,1.99991 7.59976,5.03986 10.07967,6.63978l4.47987,3.03989h17.75943h17.75943l7.43977,-4.31987c36.15885,-20.79932 43.59861,-24.47921 53.51828,-26.79917c10.23966,-2.3999 24.47921,-3.59989 37.27883,-3.03989c17.59943,0.71999 25.75919,-1.75997 33.51895,-9.99967c8.15976,-8.71975 10.87965,-21.03932 7.83976,-35.59886c-2.95989,-14.23954 -10.07967,-21.35931 -21.51931,-21.35931c-6.63978,0.08 -9.51967,1.11998 -18.55942,7.19977c-3.59989,2.4799 -6.95977,4.23988 -7.43977,3.91988c-1.51998,-0.95999 -0.87999,-7.83976 1.11998,-12.15963c2.23991,-4.71987 3.27989,-5.5198 12.23963,-9.35968c8.79975,-3.75988 14.15954,-7.27977 21.27932,-13.99955c3.19989,-3.11989 6.79978,-5.91979 7.83976,-6.39978c2.3199,-0.87999 21.83931,-2.4799 32.71896,-2.7199l7.59976,-0.16l8.23975,5.4398c4.55987,2.95989 10.39966,6.47978 12.95956,7.75976c6.15979,3.11989 7.19977,5.03986 7.43977,14.47954c0.16,7.11977 0.08,7.35977 -2.07991,8.95974l-2.15991,1.67997l-10.23966,-4.23988c-15.99952,-6.71978 -18.31942,-7.43977 -23.83922,-7.11977c-10.63966,0.63999 -16.23951,8.95974 -16.31945,23.99921c0,13.35956 4.95986,25.75919 13.91955,34.71887c9.91967,9.91967 16.39945,11.11965 39.67873,7.27977c21.43931,-3.59989 35.67886,-4.95986 40.31872,-3.99988c2.23991,0.47999 9.75967,3.19989 16.63945,6.07979c15.03953,6.31978 29.19907,10.95965 41.11871,13.43955c11.67964,2.4799 35.19886,2.7199 43.91861,0.47999c13.03956,-3.43989 27.11917,-12.47963 30.87899,-19.99933c0.95999,-1.75997 1.91991,-5.4398 2.15991,-7.99976c0.39999,-4.79987 0.47999,-4.87987 6.71978,-10.87965c7.43977,-7.11977 10.15966,-11.27965 10.79966,-16.71944c0.55999,-4.79987 -0.55999,-8.47975 -4.63987,-15.51952c-7.03977,-12.07964 -22.4793,-23.99921 -45.43853,-35.27886c-11.19965,-5.4398 -14.07955,-6.47978 -18.23942,-6.79978c-3.91988,-0.24 -5.67979,0 -8.39975,1.35998c-3.59989,1.67997 -22.3993,20.15933 -32.15897,31.43898c-8.95974,10.39966 -14.79953,11.75964 -27.03917,5.99979c-7.75976,-3.51989 -13.27956,-8.87974 -15.27953,-14.71954c-1.83991,-5.11986 -1.35998,-6.15979 4.63987,-10.71966c9.75967,-7.35977 15.11953,-17.67943 16.79944,-32.71896c0.55999,-4.23988 2.07991,-7.83976 3.91988,-8.95974c0.47999,-0.24 4.63987,-3.27989 9.27968,-6.71978c15.03953,-11.19965 30.55905,-28.55908 39.75873,-44.3986c1.99991,-3.51989 3.99988,-6.55978 4.31987,-6.79978c0.32,-0.16 1.59998,1.51998 2.7199,3.83988c7.67976,15.43952 22.63929,16.55945 35.99885,2.6399c8.31975,-8.55975 14.31954,-22.2393 15.35953,-34.79887c0.63999,-8.55975 1.59998,-10.47966 6.95977,-13.51955c7.43977,-4.15988 11.35965,-12.15963 13.35956,-27.03917c2.5599,-19.03941 -2.15991,-36.39884 -14.31954,-52.79829c-7.43977,-9.99967 -14.23954,-14.47954 -30.23906,-19.9194c-12.15963,-4.07988 -17.83943,-6.87978 -22.63929,-11.19965c-4.07988,-3.67988 -9.35968,-10.47966 -8.63975,-11.19965c0.16,-0.16 3.83988,-1.27998 8.07976,-2.3999c29.27907,-7.59976 50.71839,-25.1992 63.59795,-52.15836c2.7999,-5.83979 3.91988,-6.71978 5.59979,-4.63987c1.91991,2.23991 7.99976,4.47987 12.39963,4.47987c9.67967,0 24.23921,-11.11965 31.91897,-24.31921c14.79953,-25.51919 17.99943,-66.07791 8.23975,-104.79666c-10.23966,-40.47872 -31.35898,-71.59771 -62.47803,-92.07709c-6.63978,-4.31987 -12.39963,-8.47975 -12.87956,-9.11968c-0.63999,-0.79999 -1.11998,-7.67976 -1.35998,-19.27941c-0.39999,-18.71941 -1.27998,-24.39921 -5.27986,-36.79884c-2.7999,-8.39975 -10.07967,-22.3193 -15.59952,-29.67907c-21.27932,-28.23909 -62.31803,-50.0784 -107.67656,-57.11817c-11.59964,-1.83991 -40.63872,-2.23991 -53.19829,-0.79999z" fill="#000000"/><path d="M535.58887,15.91952c28.95908,5.5198 54.47827,17.19944 77.43756,35.51886c24.31921,19.4394 34.87887,41.99864 36.31885,77.67755l0.47999,11.91964l-1.91991,-0.55999c-1.03998,-0.32 -5.75979,-0.79999 -10.39966,-1.03998c-13.03956,-0.63999 -20.47933,2.07991 -28.87908,10.71966c-7.59976,7.83976 -19.8394,29.51907 -23.51928,41.43871c-1.19998,3.91988 -2.23991,6.79978 -2.3999,6.39978c-0.16,-0.47999 -1.19998,-5.11986 -2.3199,-10.39966c-7.11977,-32.31897 -20.71932,-52.7183 -47.2785,-70.63778c-24.31921,-16.31945 -51.75837,-27.4391 -80.71745,-32.63896c-11.51964,-2.07991 -45.11859,-2.15991 -57.59816,-0.08c-28.55908,4.79987 -51.51837,13.75955 -75.59759,29.75907c-11.99964,7.99976 -21.51931,15.83952 -39.59874,32.71896c-27.99909,26.23918 -31.83897,29.27907 -36.79884,29.27907c-1.67997,0 -1.99991,-0.39999 -1.99991,-2.23991c0,-1.19998 0.63999,-3.35989 1.43998,-4.71987c5.5198,-10.31966 49.03841,-54.63827 78.87748,-80.47745c35.99885,-31.27898 56.23818,-44.7986 81.67737,-54.55827c11.43965,-4.39987 16.31945,-5.83979 37.99882,-11.11965c34.71887,-8.47975 40.71872,-9.27968 66.39791,-8.95974c15.83952,0.24 21.27932,0.55999 28.39909,1.99991z" fill="#ff0000"/><path d="M156.80089,58.79814c5.4398,1.11998 7.99976,3.11989 7.99976,6.23978c0,0.95999 -1.99991,5.83979 -4.39987,10.95965c-5.4398,11.43965 -6.71978,17.91943 -5.4398,27.03917c2.4799,16.87944 11.51964,32.31897 22.95929,38.95875c9.59967,5.59979 17.67943,7.27977 47.59849,9.99967c9.91967,0.87999 18.07942,1.75997 18.23942,1.91991c0.16,0.16 -1.83991,3.51989 -4.55987,7.43977c-4.55987,6.79978 -4.79987,7.43977 -4.79987,11.91964c0,2.95989 0.47999,5.4398 1.19998,6.47978c1.67997,2.3999 7.03977,3.83988 10.15966,2.7199c5.75979,-1.99991 14.55954,-9.11968 29.03908,-23.51928c23.99921,-23.83922 43.03862,-38.31876 65.51792,-49.7584c38.55875,-19.5994 79.43747,-25.43919 118.79621,-17.03944c39.59874,8.39975 81.91737,32.71896 98.63687,56.63818c10.31966,14.63954 16.79944,34.07894 18.95941,56.79817c1.19998,12.71957 1.59998,22.71929 2.15991,61.99803c0.55999,39.75873 0.47999,41.11871 -4.47987,51.19838c-7.91976,16.31945 -28.71908,29.43907 -44.6386,28.15909c-2.7999,-0.24 -5.27986,-0.55999 -5.5198,-0.79999c-0.24,-0.24 0.63999,-3.11989 1.99991,-6.31978c2.7999,-6.79978 3.75988,-12.15963 2.95989,-16.39945l-0.55999,-3.03989l-3.03989,6.39978c-5.91979,12.63963 -13.59955,20.47933 -23.91922,24.15921c-4.31987,1.59998 -6.71978,1.91991 -13.27956,1.91991c-4.39987,-0.08 -8.55975,-0.16 -9.19968,-0.24c-2.6399,-0.47999 -1.75997,1.35998 1.59998,3.43989c4.07988,2.5599 11.59964,4.71987 16.07951,4.71987c4.23988,0 11.59964,-2.4799 16.23951,-5.4398c4.79987,-3.03989 9.83967,-3.43989 13.83955,-0.95999c3.19989,1.91991 3.91988,3.35989 5.91979,11.03965c2.6399,10.07967 6.15979,18.15942 11.11965,25.59919c9.75967,14.71954 21.67931,24.23921 40.87872,32.63896c4.55987,1.99991 8.95974,4.23988 9.75967,4.95986c0.79999,0.71999 2.5599,3.59989 3.91988,6.47978c3.19989,6.87978 11.03965,14.63954 18.63942,18.63942c3.11989,1.59998 10.47966,4.55987 16.39945,6.63978c12.39963,4.31987 17.83943,7.35977 23.83922,13.35956c8.15976,8.07976 13.67955,20.63933 15.51952,35.35886c0.87999,7.03977 0.79999,8.55975 -0.79999,17.51943c-1.59998,8.71975 -2.15991,10.31966 -5.19986,14.71954c-2.07991,3.11989 -3.51989,4.63987 -3.83988,3.99988c-0.47999,-0.87999 -2.4799,-7.83976 -5.19986,-18.15942c-2.7999,-10.47966 -3.67988,-12.79956 -4.79987,-12.79956c-1.51998,0 -1.43998,0.55999 1.03998,11.19965c1.91991,8.07976 2.15991,10.79966 2.15991,22.3993c0,12.07964 -0.16,13.83955 -2.15991,20.23933c-4.15988,13.43955 -9.99967,22.3993 -18.95941,28.95908c-2.15991,1.59998 -5.11986,3.11989 -6.63978,3.35989c-3.51989,0.55999 -7.35977,-1.43998 -8.95974,-4.55987c-1.91991,-3.67988 -3.03989,-15.11953 -2.6399,-26.95917c0.16,-7.19977 0,-10.63966 -0.55999,-10.63966c-0.47999,0 -3.67988,5.99979 -7.19977,13.35956c-11.27965,23.75922 -21.51931,39.03874 -34.07894,51.03838c-28.31909,27.03917 -66.39791,42.79863 -117.11629,48.39848c-9.03974,1.03998 -32.47896,2.23991 -33.43895,1.75997c-0.32,-0.16 -0.39999,-2.07991 -0.08,-4.23988c0.79999,-5.75979 -0.71999,-4.95986 -4.39987,2.3199c-7.27977,14.47954 -17.99943,23.43928 -34.71887,29.11908c-8.55975,2.8799 -20.31933,3.83988 -27.8391,2.3199c-14.15954,-2.95989 -26.87917,-14.55954 -31.91897,-29.11908c-1.91991,-5.4398 -2.95989,-17.11944 -1.67997,-18.87941c0.55999,-0.95999 4.23988,-1.27998 16.47945,-1.75997c42.47863,-1.67997 83.59734,-9.67967 101.99676,-19.7594c21.11932,-11.51964 35.99885,-30.71905 48.71848,-62.71802c3.27989,-8.15976 4.07988,-11.11965 4.07988,-14.87953c0,-5.11986 0.87999,-6.55978 3.99988,-6.55978c3.51989,0 11.27965,-2.3199 16.31945,-4.87987c4.55987,-2.3199 12.87956,-8.55975 12.23963,-9.19968c-0.16,-0.16 -2.07991,0.55999 -4.23988,1.59998c-11.99964,5.75979 -26.23918,7.51977 -37.83882,4.55987c-16.87944,-4.23988 -32.95896,-14.39954 -43.11862,-27.1991c-4.07988,-5.19986 -5.75979,-6.31978 -5.75979,-3.83988c0,0.55999 2.5599,4.87987 5.59979,9.51967c8.63975,13.27956 19.5994,21.67931 34.71887,27.03917c3.99988,1.35998 7.67976,2.8799 8.31975,3.43989c0.87999,0.71999 1.03998,2.3199 0.71999,6.95977c-0.32,4.95986 -1.11998,7.75976 -4.71987,15.99952c-13.59955,31.59898 -33.67895,51.83837 -59.03814,59.43813c-12.39963,3.75988 -38.07876,8.47975 -59.59813,11.11965c-11.83964,1.35998 -50.31839,1.35998 -60.39806,0c-13.03956,-1.83991 -20.71932,-4.07988 -29.99906,-8.55975c-10.23966,-5.03986 -16.95944,-10.55966 -19.5994,-16.15951c-1.51998,-3.27989 -1.75997,-4.79987 -1.43998,-10.39966c0.47999,-9.03974 2.95989,-13.19956 10.23966,-16.79944c8.79975,-4.39987 8.71975,-4.39987 15.27953,2.07991c8.71975,8.63975 19.9194,13.59955 40.23873,17.75943c8.71975,1.75997 22.5593,2.15991 28.79908,0.71999c3.03989,-0.63999 4.79987,-0.55999 9.83967,0.79999c3.35989,0.87999 7.43977,1.59998 8.95974,1.59998c2.7999,-0.08 2.7999,-0.08 -1.67997,-1.91991c-18.55942,-7.75976 -29.43907,-24.6392 -29.67907,-46.47851c-0.08,-3.99988 0.39999,-9.19968 0.95999,-11.59964c2.23991,-9.11968 8.63975,-18.63942 16.87944,-24.9592l2.7999,-2.15991l-2.3199,-0.08c-3.75988,0 -12.07964,4.47987 -15.59952,8.55975c-4.47987,4.95986 -8.47975,13.35956 -10.23966,21.03932c-1.03998,4.47987 -1.75997,6.39978 -2.6399,6.39978c-2.23991,0 -9.75967,-4.31987 -12.95956,-7.43977c-3.99988,-3.83988 -5.4398,-7.27977 -5.4398,-12.79956c0,-6.71978 2.07991,-11.51964 7.11977,-16.63945c3.35989,-3.27989 5.75979,-4.87987 9.67967,-6.31978c7.83976,-2.7999 14.07955,-6.15979 17.51943,-9.19968c3.35989,-3.03989 7.11977,-9.67967 9.27968,-16.31945l1.35998,-4.23988l4.15988,0.55999c17.27944,2.23991 24.7192,2.4799 36.07885,1.11998c17.43943,-2.15991 35.99885,-10.63966 45.03859,-20.63933c3.19989,-3.51989 5.99979,-7.27977 5.4398,-7.27977c-0.24,0 -5.4398,2.4799 -11.43965,5.5198c-19.3594,9.75967 -30.07906,12.39963 -50.23839,12.39963c-11.91964,0 -14.71954,-0.24 -22.5593,-2.07991c-12.07964,-2.8799 -18.95941,-6.55978 -26.39918,-13.99955c-5.03986,-5.11986 -6.47978,-7.19977 -11.19965,-17.03944c-2.95989,-6.15979 -5.67979,-11.19965 -5.99979,-11.19965c-0.24,0 -0.71999,1.91991 -1.03998,4.15988c-1.99991,16.31945 -3.35989,20.87932 -8.55975,28.47909l-2.3999,3.43989l-4.47987,-2.5599c-5.91979,-3.27989 -9.03974,-6.23978 -13.67955,-13.19956c-8.07976,-12.07964 -11.51964,-23.91922 -11.51964,-39.91873c0,-10.95965 0.87999,-17.11944 5.11986,-34.39894c1.27998,-5.27986 2.3199,-9.91967 2.3199,-10.23966c0,-1.67997 -3.03989,2.07991 -9.67967,11.83964c-6.95977,10.39966 -12.55963,17.19944 -14.15954,17.19944c-1.19998,0 -2.07991,-11.11965 -1.43998,-18.87941c1.35998,-16.55945 8.07976,-30.79905 22.1593,-46.71851c3.51989,-3.91988 6.15979,-7.19977 5.91979,-7.19977c-1.83991,0 -6.63978,3.59989 -12.55963,9.43968l-7.03977,6.79978l-1.91991,-4.31987c-2.6399,-5.83979 -4.23988,-14.31954 -4.87987,-26.31918c-0.32,-5.5198 -0.63999,-10.07967 -0.71999,-10.23966c-0.16,-0.08 -1.27998,2.23991 -2.4799,5.19986c-8.31975,19.7594 -15.35953,31.75898 -24.07921,41.03871c-15.35953,16.23951 -34.31894,23.27928 -49.7584,18.47942c-7.19977,-2.23991 -9.75967,-4.31987 -9.75967,-7.91976c0,-3.59989 0.79999,-4.79987 12.87956,-18.71941c15.35953,-17.67943 31.27898,-36.95884 32.15897,-38.87875c0.47999,-0.95999 0.63999,-1.99991 0.39999,-2.23991c-0.24,-0.24 -6.71978,3.83988 -14.31954,8.95974c-19.19941,12.95956 -28.63908,17.03944 -42.87863,18.63942c-16.87944,1.83991 -32.31897,-3.27989 -43.59861,-14.39954c-3.03989,-2.95989 -5.4398,-5.91979 -5.4398,-6.71978c0,-1.19998 0.55999,-1.35998 3.99988,-0.95999c6.15979,0.71999 22.3193,-0.87999 30.95899,-3.03989c15.35953,-3.91988 33.91894,-15.03953 44.07861,-26.47918c5.91979,-6.63978 5.67979,-9.11968 -0.39999,-3.91988c-1.75997,1.51998 -6.07979,4.47987 -9.51967,6.63978c-19.19941,11.75964 -38.55875,17.75943 -57.51816,17.75943c-18.31942,0 -35.11886,-8.39975 -53.35829,-26.79917c-19.7594,-19.7594 -30.23906,-44.7186 -30.23906,-71.75771c0,-14.31954 3.19989,-25.99918 10.07967,-36.23885c7.83976,-11.83964 20.15933,-19.7594 22.2393,-14.23954c0.32,0.71999 1.35998,5.35986 2.3999,10.15966c4.79987,22.71929 14.23954,36.71884 33.27895,49.43841c20.47933,13.67955 40.47872,19.6794 61.99803,18.71941c12.63963,-0.55999 22.63929,-2.4799 21.11932,-4.07988c-0.24,-0.16 -2.7199,0 -5.5198,0.39999c-7.75976,1.11998 -22.63929,0.95999 -30.79905,-0.39999c-31.27898,-5.03986 -52.6383,-25.43919 -59.67813,-56.79817c-3.27989,-14.79953 -4.07988,-33.19895 -1.91991,-45.67852c5.11986,-29.59907 21.83931,-50.63839 48.63848,-61.19805c6.55978,-2.5599 11.67964,-2.8799 19.7594,-1.11998z" fill="#ff0000"/><path d="M646.86531,150.23525c13.11956,4.63987 29.35907,15.03953 40.71872,26.15918c22.3993,21.9993 37.19883,51.59837 42.79863,85.59725c5.11986,31.27898 2.7199,59.51813 -6.71978,78.87748c-6.31978,12.79956 -21.59931,27.11917 -29.03908,27.11917c-3.67988,0 -6.63978,-2.3999 -13.91955,-11.27965c-11.11965,-13.59955 -17.43943,-17.11944 -29.19907,-16.55945c-9.83967,0.47999 -14.95953,3.75988 -33.11895,21.03932c-9.11968,8.63975 -14.55954,11.91964 -22.0793,13.27956c-7.19977,1.35998 -20.15933,-1.35998 -27.11917,-5.67979c-5.91979,-3.67988 -13.59955,-14.63954 -13.03956,-18.63942c0.16,-0.95999 1.83991,-2.8799 3.83988,-4.39987c7.83976,-5.75979 10.15966,-7.83976 13.99955,-12.23963c4.79987,-5.59979 9.35968,-14.31954 11.27965,-21.51931c2.07991,-7.91976 2.3999,-24.07921 0.71999,-39.03874c-1.99991,-17.67943 -1.35998,-39.51874 1.51998,-54.79826c4.31987,-22.5593 14.55954,-47.75849 23.35928,-57.27817c11.75964,-12.71957 21.59931,-15.59952 35.99885,-10.63966z" fill="#ff0000"/><path d="M663.42476,349.82884c1.91991,1.11998 4.87987,3.59989 6.47978,5.4398c2.8799,3.11989 3.03989,3.59989 2.7199,7.43977c-0.87999,8.95974 -7.75976,21.19932 -17.75943,31.51898c-9.91967,10.31966 -21.67931,17.83943 -34.47887,22.2393c-5.5198,1.91991 -7.67976,2.23991 -15.59952,2.23991c-10.87965,0.08 -16.55945,-1.27998 -26.15918,-5.91979c-11.27965,-5.59979 -21.83931,-15.03953 -29.35907,-26.47918c-2.95989,-4.55987 -12.47963,-27.03917 -12.47963,-29.59907c0,-1.75997 1.35998,-2.7999 4.47987,-3.35989c1.43998,-0.24 3.43989,-0.71999 4.55987,-0.95999c1.83991,-0.47999 2.23991,0 5.35986,5.91979c9.75967,18.71941 32.47896,27.6791 52.79829,20.87932c7.27977,-2.3999 11.99964,-5.75979 21.59931,-15.27953c13.51955,-13.43955 19.6794,-16.95944 28.95908,-16.47945c3.91988,0.24 6.23978,0.87999 8.87974,2.3999z" fill="#ffb3b3"/><path d="M111.60236,543.50271c1.19998,0.79999 1.59998,2.6399 2.07991,9.75967c1.03998,13.91955 5.35986,25.27919 14.07955,36.87884c12.63963,16.87944 33.75894,29.27907 59.83807,35.19886c5.03986,1.11998 9.67967,1.43998 21.59931,1.43998c13.67955,-0.08 16.15951,-0.32 24.47921,-2.23991c5.11986,-1.19998 9.83967,-1.99991 10.39966,-1.75997c0.63999,0.24 3.19989,2.7199 5.75979,5.5198c11.11965,12.47963 26.15918,18.95941 53.83828,23.27928l8.87974,1.43998l0.39999,8.47975c0.47999,9.51967 3.03989,18.47942 7.03977,25.1192c1.35998,2.15991 2.3999,4.07988 2.3999,4.39987c0,0.55999 -3.83988,2.7999 -29.35907,17.11944c-13.99955,7.75976 -12.79956,7.59976 -22.4793,2.7199c-8.39975,-4.23988 -14.39954,-5.59979 -19.5194,-4.47987c-9.11968,1.91991 -19.99933,9.99967 -32.23897,23.83922c-3.99988,4.55987 -8.31975,8.87974 -9.59967,9.67967c-2.6399,1.67997 -17.11944,3.67988 -31.99897,4.55987c-14.55954,0.79999 -26.71917,-2.07991 -38.79875,-9.19968c-2.95989,-1.75997 -5.83979,-3.83988 -6.47978,-4.55987c-1.03998,-1.27998 -0.79999,-1.35998 3.03989,-0.87999c2.23991,0.24 8.23975,0.16 13.35956,-0.24c23.91922,-1.75997 49.27841,-10.15966 67.43783,-22.3193c6.23978,-4.15988 10.87965,-8.07976 9.67967,-8.07976c-0.24,0 -4.87987,2.15991 -10.31966,4.79987c-28.87908,13.83955 -65.75792,19.99933 -90.15712,14.79953c-21.43931,-4.47987 -37.03883,-15.67952 -48.87847,-35.11886c-3.19989,-5.11986 -7.75976,-17.19944 -7.11977,-18.79941c0.08,-0.39999 3.75988,1.35998 8.07976,3.91988c14.39954,8.55975 30.23906,13.91955 47.1985,15.99952c10.87965,1.35998 36.23885,0.55999 50.15839,-1.51998c24.7192,-3.75988 47.75849,-11.59964 61.11805,-20.79932c6.07979,-4.23988 4.95986,-4.15988 -5.67979,0.24c-24.39921,10.07967 -44.6386,14.47954 -71.03772,15.43952c-19.5194,0.63999 -35.51886,-1.35998 -52.95829,-6.63978c-23.59922,-7.11977 -38.79875,-20.23933 -48.07849,-41.59871c-6.63978,-15.27953 -7.19977,-25.75919 -2.07991,-41.03871c8.15976,-24.39921 23.35928,-39.51874 45.11859,-44.8786c7.35977,-1.83991 8.87974,-1.91991 10.79966,-0.47999z" fill="#ffb3b3"/><path d="M302.95626,560.54215c2.07991,1.59998 6.87978,4.87987 10.63966,7.27977c10.47966,6.63978 11.51964,7.99976 18.47942,22.1593c3.43989,7.03977 6.31978,13.03956 6.31978,13.35956c0,1.03998 -11.19965,0.71999 -18.79941,-0.55999c-14.55954,-2.3199 -28.95908,-8.31975 -35.03887,-14.47954c-11.35965,-11.51964 -9.99967,-21.27932 3.83988,-28.23909c6.55978,-3.35989 9.67967,-3.27989 14.55954,0.47999z" fill="#ffffff"/><path d="M538.22877,666.29879c-0.79999,8.07976 -7.43977,17.83943 -14.95953,21.91931c-11.43965,6.23978 -30.63905,5.91979 -44.07861,-0.79999c-3.27989,-1.67997 -5.99979,-3.35989 -5.99979,-3.83988c0,-0.55999 61.75804,-20.71932 64.71793,-21.11932c0.39999,-0.08 0.47999,1.67997 0.32,3.83988z" fill="#ffffff"/><path d="M626.46598,694.53788c12.31963,6.07979 18.71941,10.07967 26.87917,16.87944c9.75967,7.99976 17.75943,19.03941 17.83943,24.47921c0,3.43989 -3.19989,8.79975 -7.03977,11.75964l-3.67988,2.7999l-13.19956,-13.51955c-12.39963,-12.55963 -13.75955,-13.75955 -20.39933,-17.03944c-6.55978,-3.19989 -7.59976,-3.51989 -13.19956,-3.43989c-7.75976,0 -10.95965,1.51998 -21.19932,10.07967c-5.59979,4.63987 -7.51977,6.71978 -6.87978,7.35977c0.55999,0.55999 1.19998,0.55999 2.23991,-0.08c20.87932,-13.35956 25.43919,-14.55954 36.15885,-9.27968c5.19986,2.6399 23.27928,20.15933 26.63917,25.83919c7.03977,12.07964 6.15979,19.9194 -3.11989,27.11917c-9.67967,7.51977 -21.19932,10.79966 -37.91882,10.79966c-19.27941,-0.08 -36.95884,-4.55987 -62.31803,-15.83952c-21.19932,-9.43968 -26.79917,-9.67967 -62.87802,-3.11989c-7.75976,1.35998 -12.87956,1.91991 -16.79944,1.67997c-15.51952,-1.03998 -23.91922,-12.63963 -25.67919,-35.11886c-0.63999,-8.07976 0.32,-11.75964 3.75988,-14.71954c1.99991,-1.67997 3.27989,-1.99991 7.19977,-1.99991c4.23988,0 5.75979,0.55999 15.59952,5.59979c8.87974,4.55987 11.67964,5.59979 14.63954,5.59979c4.79987,0 8.79975,-2.15991 11.11965,-6.07979c1.67997,-2.8799 1.83991,-3.91988 1.59998,-12.39963l-0.24,-9.35968l5.19986,-0.47999c2.8799,-0.24 7.91976,-0.47999 11.19965,-0.47999l5.99979,0.08l3.11989,6.55978c6.55978,13.91955 20.47933,22.95929 35.35886,22.95929c7.83976,0 11.75964,-2.4799 21.35931,-13.51955c11.67964,-13.27956 21.9993,-23.83922 26.15918,-26.63917c5.4398,-3.59989 9.03974,-3.03989 22.4793,3.51989z" fill="#889ddd"/><path d="M332.23533,700.61773c2.7999,2.4799 3.03989,3.75988 1.75997,9.67967c-0.63999,3.11989 -1.67997,6.87978 -2.3199,8.31975c-2.8799,6.95977 -10.23966,11.59964 -19.3594,12.39963c-6.15979,0.47999 -9.43968,-0.63999 -17.03944,-5.5198l-5.91979,-3.75988l5.91979,-3.83988c3.27989,-2.07991 9.91967,-6.23978 14.71954,-9.35968c4.87987,-3.03989 10.39966,-6.63978 12.39963,-7.91976c3.91988,-2.5599 7.03977,-2.5599 9.83967,0z" fill="#ffffff"/><path d="M357.99452,712.05737c6.15979,0.95999 11.35965,1.83991 11.51964,1.99991c0.16,0.16 -0.32,2.6399 -1.03998,5.5198c-1.99991,7.91976 -0.47999,14.71954 3.59989,16.39945c1.27998,0.55999 4.23988,0.87999 6.55978,0.63999c3.43989,-0.24 5.27986,-1.11998 10.15966,-4.47987c3.35989,-2.23991 7.03977,-4.47987 8.31975,-4.87987c3.59989,-1.43998 9.35968,-1.03998 12.31963,0.71999c7.51977,4.55987 10.71966,24.7992 5.5198,34.87887c-2.7999,5.5198 -9.19968,11.19965 -14.39954,12.71957c-2.8799,0.87999 -10.15966,1.51998 -22.95929,2.07991c-10.39966,0.39999 -23.03929,1.19998 -28.15909,1.83991c-10.55966,1.19998 -15.99952,3.27989 -26.63917,10.47966c-28.23909,18.87941 -54.95826,24.55921 -77.19756,16.39945c-18.39942,-6.63978 -21.27932,-14.79953 -11.99964,-34.23894c6.95977,-14.55954 17.67943,-25.99918 26.15918,-27.7591c3.51989,-0.71999 10.87965,1.27998 18.47942,5.11986c3.51989,1.75997 6.55978,2.95989 6.87978,2.7199c1.75997,-1.75997 -0.16,-3.43989 -9.67967,-8.23975c-16.63945,-8.31975 -21.43931,-7.59976 -33.51895,4.95986c-7.11977,7.51977 -10.79966,12.95956 -15.51952,23.35928c-1.99991,4.23988 -3.83988,7.67976 -4.23988,7.67976c-1.27998,0 -7.67976,-6.55978 -8.87974,-9.11968c-5.4398,-11.51964 6.39978,-33.75894 25.51919,-48.07849c7.75976,-5.83979 11.59964,-7.59976 16.31945,-7.59976c4.47987,0 7.03977,1.19998 26.07918,12.47963c17.75943,10.47966 20.31933,11.59964 27.5191,12.07964c16.47945,1.11998 28.55908,-7.99976 33.43895,-25.35919c1.11998,-4.23988 1.51998,-4.87987 2.95989,-4.47987c0.95999,0.16 6.71978,1.11998 12.87956,2.15991z" fill="#ffb3b3"/><path d="M387.99352,164.47479c-9.59967,1.67997 -12.23963,2.3199 -16.79944,4.23988c-10.47966,4.39987 -21.19932,13.27956 -27.99909,23.27928c-4.23988,6.23978 -7.83976,13.99955 -11.19965,24.31921c-2.7199,8.15976 -5.03986,11.67964 -7.83976,11.67964c-0.87999,0 -3.91988,-0.71999 -6.71978,-1.59998c-7.03977,-2.15991 -11.59964,-6.31978 -15.59952,-13.99955c-1.67997,-3.27989 -3.35989,-5.99979 -3.75988,-5.99979c-0.32,0 -0.39999,2.07991 -0.08,4.55987c1.43998,11.35965 7.03977,19.3594 16.15951,23.03929c11.11965,4.39987 13.27956,7.83976 12.87956,20.71932c-0.24,7.59976 -0.32,7.99976 -2.4799,9.59967c-1.91991,1.43998 -3.43989,1.67997 -9.59967,1.67997c-8.47975,0 -13.67955,-1.43998 -19.7594,-5.67979c-4.95986,-3.43989 -5.91979,-2.23991 -1.99991,2.4799c5.67979,7.03977 13.67955,11.19965 22.79929,11.99964c11.19965,1.03998 15.27953,4.63987 15.51952,13.67955c0.08,4.87987 -1.11998,6.55978 -6.55978,9.11968c-3.11989,1.51998 -4.63987,1.67997 -10.07967,1.35998c-3.59989,-0.24 -7.75976,-0.71999 -9.27968,-1.03998c-2.4799,-0.47999 -2.6399,-0.39999 -1.75997,0.63999c0.55999,0.71999 3.19989,2.23991 5.99979,3.43989c6.47978,2.95989 14.15954,3.43989 21.35931,1.43998l5.19986,-1.51998l5.27986,8.07976c6.95977,10.55966 13.99955,17.99943 24.47921,25.83919c11.03965,8.23975 16.87944,11.51964 24.7192,14.23954c5.99979,2.07991 7.03977,2.23991 21.91931,2.23991c16.63945,0 23.67922,-0.87999 38.31876,-4.79987c27.03917,-7.27977 40.39872,-17.11944 45.43853,-33.51895c2.15991,-7.11977 1.91991,-33.91894 -0.39999,-46.9585c-3.35989,-18.63942 -10.23966,-35.67886 -20.31933,-50.47839c-15.19953,-22.1593 -44.6386,-44.3186 -66.5579,-50.0784c-5.99979,-1.59998 -17.51943,-2.6399 -21.27932,-1.99991z" fill="#000000"/><path d="M409.99282,178.71433c14.07955,6.95977 29.03908,19.4394 38.63875,32.07897c8.87974,11.83964 16.39945,30.15906 18.95941,46.39851c4.95986,31.51898 0,48.87847 -16.95944,59.67813c-10.95965,6.87978 -22.1593,9.75967 -38.23876,9.83967c-11.75964,0 -16.63945,-0.71999 -27.11917,-3.99988c-17.03944,-5.4398 -32.15897,-17.19944 -39.19874,-30.71905c-3.43989,-6.47978 -3.43989,-8.07976 -0.08,-3.19989c10.71966,15.43952 35.43886,25.99918 57.51816,24.55921c15.03953,-1.03998 27.3591,-5.75979 34.95887,-13.35956c8.15976,-8.07976 11.19965,-17.35944 11.27965,-33.59895c0.08,-16.47945 -3.27989,-31.51898 -10.55966,-46.9585c-9.27968,-19.5994 -21.51931,-32.47896 -39.27874,-41.03871c-3.59989,-1.75997 -6.79978,-3.35989 -7.03977,-3.67988c-0.24,-0.32 1.83991,-0.32 4.63987,-0.08c3.91988,0.32 6.95977,1.27998 12.47963,4.07988z" fill="#008000"/><path d="M417.19259,202.71355c8.47975,4.95986 12.63963,18.55942 8.39975,27.3591c-1.91991,3.83988 -6.31978,6.23978 -10.31966,5.4398c-6.47978,-1.27998 -13.19956,-11.83964 -13.19956,-20.63933c0,-5.91979 1.99991,-10.47966 5.4398,-12.55963c3.27989,-1.99991 5.67979,-1.91991 9.67967,0.39999z" fill="#ffffff"/><path d="M458.7913,209.75332c9.75967,10.55966 16.79944,21.19932 21.51931,32.71896c6.23978,15.19953 9.75967,31.19898 10.63966,48.71848c1.35998,28.15909 -7.35977,39.35874 -37.51883,47.91849c-17.03944,4.87987 -34.39894,6.95977 -47.67849,5.67979c-14.87953,-1.35998 -32.63896,-11.35965 -44.95859,-25.1992l-1.99991,-2.23991l3.59989,2.15991c7.91976,4.79987 19.99933,9.67967 28.87908,11.59964c7.99976,1.75997 21.19932,2.4799 29.43907,1.67997c23.99921,-2.4799 42.23864,-12.87956 49.6784,-28.31909c1.67997,-3.59989 3.51989,-8.63975 4.07988,-11.27965c1.51998,-7.35977 1.27998,-29.59907 -0.47999,-38.79875c-3.27989,-17.43943 -11.19965,-35.03887 -21.91931,-48.55848c-1.75997,-2.3199 -3.27989,-4.39987 -3.27989,-4.63987c0,-1.11998 5.03986,3.19989 9.99967,8.55975z" fill="#008000"/></g></g></g></g></g></g></g></g></g></g></g></g></g></g></g></svg>