<?xml version="1.0" standalone="no"?>
<!DOCTYPE svg PUBLIC "-//W3C//DTD SVG 20010904//EN"
 "http://www.w3.org/TR/2001/REC-SVG-20010904/DTD/svg10.dtd">
<svg version="1.0" xmlns="http://www.w3.org/2000/svg"
 width="612.000000pt" height="612.000000pt" viewBox="0 0 612.000000 612.000000"
 preserveAspectRatio="xMidYMid meet">
<metadata>
Created by potrace 1.14, written by Peter Selinger 2001-2017
</metadata>
<g transform="translate(0.000000,612.000000) scale(0.100000,-0.100000)"
fill="#000000" stroke="none">
<path fill="#000000" stroke="none" d="M1440 5647 c-31 -16 -50 -36 -69 -72
-14 -28 -27 -52 -28 -54 -2 -2 -14 8 -28 23 -100 108 -295 45 -319 -104 l-6
-40 -53 0 c-146 0 -226 -177 -131 -290 15 -17 40 -38 56 -46 40 -21 116 -21
155 -1 l32 17 19 -44 c37 -81 136 -130 220 -107 23 7 58 26 78 43 l35 31 32
-30 c18 -17 42 -36 54 -42 30 -15 117 -14 156 3 39 16 94 76 103 112 l7 25 31
-29 c138 -130 360 4 315 191 -13 55 -70 122 -114 133 -19 5 -25 13 -25 33 -1
43 -35 106 -76 137 -33 26 -46 29 -112 30 -70 1 -76 3 -89 27 -37 71 -160 98
-243 54z"/>
<path fill="#ffffff" stroke="none" d="M1582 5634 c25 -5 90 -66 99 -91 3 -8
20 -7 56 0 47 10 56 8 100 -14 54 -27 93 -89 93 -145 0 -28 4 -33 29 -39 35
-7 98 -73 107 -110 10 -41 -2 -115 -23 -143 -37 -49 -70 -66 -139 -70 l-65 -4
-47 48 -48 49 -32 -32 c-67 -67 -173 -69 -242 -4 -29 27 -41 48 -46 79 l-6 42
-31 -22 c-44 -31 -131 -36 -174 -9 -65 41 -89 151 -47 209 40 53 83 74 144 70
l56 -4 1 43 c2 49 32 105 69 130 28 18 82 32 104 27 8 -2 27 -6 42 -10z"/>
<path fill="#ffffff" stroke="none" d="M1259 5555 c16 -8 41 -29 56 -47 l28
-33 -54 -5 c-71 -7 -117 -35 -146 -89 -53 -101 -7 -217 100 -251 42 -13 99 -7
133 15 19 12 22 11 38 -25 45 -102 178 -149 264 -93 32 20 37 12 11 -21 -66
-84 -212 -76 -266 15 l-17 29 -28 -34 c-55 -67 -149 -81 -226 -34 -36 22 -72
83 -72 122 l0 25 -36 -24 c-69 -47 -144 -42 -199 13 -52 52 -60 120 -20 187
33 57 81 79 152 71 51 -6 54 -5 48 13 -8 27 10 92 35 123 42 54 139 75 199 43z"/>
<path fill="#000000" stroke="none" d="M4684 5645 c-27 -16 -49 -40 -65 -72
-13 -26 -25 -50 -27 -52 -1 -3 -17 9 -35 27 -55 53 -123 66 -195 37 -66 -28
-103 -75 -116 -146 -6 -37 -7 -37 -65 -41 -90 -6 -148 -58 -165 -147 -13 -69
30 -153 97 -187 38 -20 117 -20 156 0 l30 16 19 -44 c54 -121 211 -149 310
-56 l24 22 31 -30 c18 -17 45 -36 60 -41 39 -15 111 -14 150 3 39 16 94 76
103 112 l7 25 26 -25 c59 -57 145 -71 217 -35 131 63 146 250 27 332 -22 15
-44 27 -51 27 -7 0 -12 12 -12 28 -1 36 -31 102 -61 129 -36 32 -77 45 -142
42 -54 -2 -60 -1 -77 26 -49 75 -165 99 -246 50z"/>
<path fill="#ffffff" stroke="none" d="M4832 5634 c26 -6 91 -67 99 -93 3 -9
15 -9 51 0 93 25 183 -41 195 -143 5 -40 9 -45 54 -66 111 -53 120 -208 17
-285 -65 -48 -188 -27 -229 40 l-21 33 -28 -30 c-98 -104 -275 -62 -296 71
l-6 39 -31 -22 c-45 -32 -131 -36 -175 -8 -74 46 -90 158 -31 225 38 43 78 59
138 53 l48 -5 1 43 c0 50 29 103 69 130 31 20 80 33 103 28 8 -2 27 -6 42 -10z"/>
<path fill="#ffffff" stroke="none" d="M4509 5555 c16 -8 41 -29 56 -47 l28
-33 -60 -6 c-38 -4 -71 -14 -91 -27 -61 -44 -91 -157 -57 -221 45 -87 165
-125 242 -75 20 13 22 12 33 -21 6 -18 29 -49 50 -69 65 -59 140 -69 214 -31
37 20 41 15 15 -19 -64 -82 -204 -76 -263 11 l-23 34 -26 -35 c-33 -42 -102
-71 -152 -63 -77 13 -145 84 -145 153 0 25 -1 26 -17 12 -30 -26 -81 -48 -110
-48 -52 1 -110 35 -132 79 -60 117 24 241 153 228 l51 -5 1 44 c2 55 39 114
85 137 42 21 111 22 148 2z"/>
<path fill="#000000" stroke="none" d="M2310 4808 c-47 -32 -62 -63 -56 -115
3 -24 2 -43 -3 -43 -5 0 -23 -14 -40 -31 -26 -26 -31 -38 -31 -78 0 -70 31
-101 114 -113 13 -2 20 -13 23 -33 5 -46 63 -95 111 -95 21 0 47 7 58 15 10 8
22 15 27 15 4 0 58 -78 121 -172 l114 -173 -28 -32 c-80 -90 -115 -196 -107
-322 6 -100 29 -169 83 -242 33 -45 99 -105 148 -134 10 -6 20 -28 23 -54 6
-42 5 -43 -18 -36 -63 19 -139 65 -195 120 -79 78 -142 175 -215 337 -88 192
-132 263 -223 354 -156 155 -351 234 -580 234 -310 0 -579 -161 -691 -413 -66
-151 -74 -379 -18 -540 41 -116 83 -184 175 -282 170 -181 379 -282 669 -323
l120 -18 -53 -24 c-70 -33 -196 -128 -240 -182 -119 -146 -172 -318 -149 -484
52 -370 492 -625 896 -519 188 49 377 191 472 353 19 32 28 40 34 30 4 -8 44
-113 89 -234 92 -251 106 -284 119 -284 15 0 24 20 110 252 43 117 85 228 93
247 l14 35 24 -40 c103 -170 262 -294 460 -355 97 -31 298 -33 399 -5 187 51
360 176 444 318 70 120 92 302 53 432 -56 188 -186 341 -363 428 -62 30 -66
33 -38 36 76 6 221 34 301 57 183 53 331 142 457 274 87 92 145 185 183 296
53 155 43 385 -22 534 -205 463 -908 556 -1280 169 -81 -84 -122 -150 -203
-327 -105 -229 -182 -337 -293 -413 -48 -32 -124 -68 -146 -68 -13 0 8 86 24
95 48 28 118 91 149 133 80 109 107 277 65 402 -22 68 -56 127 -97 171 l-24
27 107 163 c58 90 110 168 114 172 4 5 21 2 38 -7 39 -20 91 -20 120 0 26 18
52 65 52 94 0 16 6 20 35 20 24 0 45 9 67 29 29 26 33 36 33 79 0 39 -5 56
-24 76 -13 14 -32 28 -41 31 -14 4 -16 15 -12 55 5 58 -11 91 -59 116 -38 19
-85 13 -123 -17 -24 -18 -27 -19 -55 -4 -51 26 -98 20 -137 -19 -37 -37 -45
-86 -23 -128 9 -18 8 -24 -6 -35 -30 -21 -55 -66 -55 -98 0 -38 32 -91 60
-100 12 -4 20 -10 18 -15 -2 -5 -50 -81 -108 -170 -87 -133 -108 -160 -125
-156 -152 34 -174 37 -230 31 -33 -4 -82 -16 -109 -26 -28 -10 -51 -18 -51
-16 -14 18 -215 329 -215 332 0 1 16 19 35 38 30 30 35 42 35 82 0 40 -5 52
-33 80 -32 32 -32 34 -18 64 12 25 12 38 2 71 -21 71 -106 102 -172 63 -27
-16 -29 -16 -52 5 -37 35 -85 38 -127 10z"/>
<path fill="#ffffff" stroke="none" d="M2415 4765 c14 -13 25 -31 25 -40 0 -8
9 -15 20 -15 11 0 20 5 20 12 0 25 34 48 71 48 29 0 42 -6 58 -26 30 -38 26
-71 -10 -105 -33 -31 -31 -49 4 -49 56 0 89 -58 63 -109 -16 -30 -34 -41 -67
-41 -10 0 -19 -3 -19 -6 0 -3 56 -92 125 -197 l126 -191 -23 -18 c-13 -10 -27
-18 -33 -18 -9 0 -184 262 -239 356 -21 36 -36 44 -36 20 0 -22 -40 -46 -76
-46 -23 0 -39 8 -54 27 -21 27 -21 37 -4 92 7 23 6 24 -27 16 -19 -4 -45 -8
-59 -7 -28 0 -70 44 -70 73 0 32 53 79 89 79 36 0 39 12 11 42 -11 12 -20 35
-20 50 0 36 40 78 75 78 14 0 37 -11 50 -25z"/>
<path fill="#ffffff" stroke="none" d="M3783 4781 c45 -17 57 -101 18 -126
-23 -14 -10 -33 28 -39 65 -10 93 -77 53 -126 -20 -24 -57 -30 -105 -16 l-28
8 7 -50 c5 -43 3 -53 -15 -71 -37 -37 -103 -25 -128 22 -8 15 -31 -15 -137
-177 -70 -108 -131 -196 -134 -196 -4 0 -18 9 -31 19 l-25 19 127 193 c125
191 126 194 99 197 -37 5 -72 40 -72 72 0 37 36 80 66 80 36 0 41 27 10 51
-19 15 -26 30 -26 56 0 49 24 73 71 73 31 0 43 -6 61 -30 28 -38 42 -38 58 0
19 47 52 60 103 41z"/>
<path fill="#ffffff" stroke="none" d="M1885 4136 c107 -37 180 -77 260 -143
95 -78 146 -153 247 -363 106 -219 156 -297 242 -378 56 -52 143 -104 209
-126 16 -5 16 -8 2 -43 -9 -21 -38 -75 -65 -119 -53 -86 -100 -185 -100 -209
0 -17 -8 -19 -145 -39 -309 -47 -544 -56 -738 -31 -371 49 -661 228 -791 488
-61 121 -79 197 -80 327 0 124 13 187 64 295 62 134 154 225 295 296 132 65
205 80 375 76 126 -3 155 -7 225 -31z"/>
<path fill="#ffffff" stroke="none" d="M4676 4150 c149 -38 299 -129 382 -232
40 -50 105 -183 120 -248 21 -85 24 -201 9 -286 -46 -255 -210 -457 -472 -584
-280 -137 -585 -161 -1095 -89 -170 24 -180 26 -180 44 0 24 -40 108 -95 200
-30 50 -61 107 -70 128 -14 35 -14 38 2 43 64 21 152 74 204 122 89 82 136
154 247 382 72 147 116 224 155 271 99 118 241 207 397 248 105 28 288 28 396
1z"/>
<path fill="#ffffff" stroke="none" d="M3149 4059 c261 -60 398 -348 280 -587
-124 -252 -463 -309 -659 -110 -28 28 -65 81 -83 117 -30 62 -32 72 -32 176 0
105 2 114 33 178 86 174 278 269 461 226z"/>
<path fill="#ffffff" stroke="none" d="M3001 3208 c65 -11 147 -4 203 18 16 6
18 4 14 -13 -10 -36 10 -122 42 -184 l31 -62 -44 -42 c-105 -100 -272 -99
-375 4 -35 35 -39 56 -19 86 27 40 48 109 48 162 1 45 4 53 17 48 8 -3 46 -11
83 -17z"/>
<path fill="#ffffff" stroke="none" d="M2924 2842 c44 -23 63 -27 136 -27 73
0 92 4 135 27 28 14 65 41 83 59 20 21 36 29 41 23 17 -16 68 -127 87 -187
l18 -57 -38 -39 c-132 -135 -395 -160 -581 -56 -33 18 -71 45 -84 59 -23 25
-24 29 -13 77 11 47 71 178 94 206 7 9 18 3 40 -23 17 -19 54 -47 82 -62z"/>
<path fill="#ffffff" stroke="none" d="M3940 2640 c194 -13 238 -24 355 -84
101 -51 226 -171 273 -263 40 -76 72 -198 72 -272 -1 -318 -308 -582 -677
-581 -239 1 -468 122 -603 320 -76 113 -76 92 -3 290 96 262 116 355 111 515
l-3 131 150 -23 c82 -12 229 -27 325 -33z"/>
<path fill="#ffffff" stroke="none" d="M2651 2565 c-4 -170 14 -249 142 -597
l35 -96 -36 -63 c-48 -83 -189 -224 -272 -272 -282 -163 -653 -116 -879 112
-141 141 -190 316 -141 505 38 151 132 279 271 372 120 80 170 95 371 110 164
12 420 40 443 49 6 2 24 4 40 4 l30 1 -4 -125z"/>
<path fill="#ffffff" stroke="none" d="M2810 2540 c61 -31 184 -60 252 -60
107 1 246 48 322 109 36 28 41 30 49 15 22 -39 -17 -300 -50 -336 -25 -28 -93
-64 -163 -88 -79 -27 -208 -31 -292 -8 -59 16 -176 76 -196 101 -27 32 -60
248 -48 312 l7 36 31 -26 c17 -14 56 -39 88 -55z"/>
<path fill="#ffffff" stroke="none" d="M2924 2134 c68 -18 208 -18 279 1 32 8
80 26 108 41 28 14 53 24 55 22 5 -6 -115 -330 -129 -347 -39 -47 -175 -69
-268 -42 -78 22 -92 41 -152 206 -80 220 -80 201 -7 164 34 -17 85 -38 114
-45z"/>
<path fill="#ffffff" stroke="none" d="M2950 1775 c54 -19 180 -19 225 -1 26
11 35 12 35 3 0 -17 -144 -407 -150 -407 -3 0 -29 66 -59 148 -30 81 -64 175
-77 210 -13 34 -22 62 -20 62 2 0 23 -7 46 -15z"/>
<path fill="#000000" stroke="none" d="M1627 4106 c-127 -47 -185 -178 -134
-305 71 -176 375 -439 663 -572 213 -99 344 -124 400 -76 23 20 25 26 15 45
-6 12 -30 35 -54 51 -93 64 -128 114 -249 344 -106 202 -157 277 -255 374
-124 123 -279 179 -386 139z"/>
<path fill="#ffffff" stroke="none" d="M1856 4045 c137 -67 259 -215 384 -465
34 -69 78 -150 97 -180 40 -64 123 -152 171 -181 93 -59 -24 -80 -171 -32
-121 41 -327 148 -446 233 -153 109 -309 267 -352 354 -70 145 -29 262 109
307 50 16 132 2 208 -36z"/>
<path fill="#000000" stroke="none" d="M1235 4006 c-17 -7 -44 -28 -59 -47
-25 -30 -28 -39 -24 -92 4 -54 8 -63 41 -93 35 -33 58 -39 117 -34 58 5 120
74 120 134 0 49 -38 106 -83 127 -49 22 -71 23 -112 5z"/>
<path fill="#ffffff" stroke="none" d="M1337 3973 c65 -30 81 -123 29 -172
-73 -69 -186 -26 -186 71 0 50 13 74 53 98 39 24 59 25 104 3z"/>
<path fill="#000000" stroke="none" d="M1121 3684 c-18 -10 -45 -35 -60 -58
-22 -33 -26 -50 -26 -105 1 -119 70 -216 197 -279 125 -61 330 -90 510 -72
118 12 154 23 164 52 8 26 -21 66 -54 74 -82 18 -105 28 -154 60 -29 19 -107
90 -173 158 -141 143 -195 176 -303 183 -50 3 -76 -1 -101 -13z"/>
<path fill="#ffffff" stroke="none" d="M1340 3634 c32 -18 105 -81 189 -165
139 -140 195 -179 276 -194 46 -8 75 -22 75 -35 0 -34 -193 -57 -348 -41 -130
13 -207 32 -289 72 -104 50 -183 160 -183 253 1 50 33 110 71 130 50 25 142
17 209 -20z"/>
<path fill="#000000" stroke="none" d="M1325 3126 c-175 -65 -63 -255 156
-265 90 -4 141 15 170 63 43 71 7 154 -84 191 -58 24 -191 30 -242 11z"/>
<path fill="#ffffff" stroke="none" d="M1530 3094 c70 -21 110 -60 110 -109 0
-69 -65 -103 -179 -92 -116 10 -204 82 -187 152 15 57 144 82 256 49z"/>
<path fill="#000000" stroke="none" d="M1885 3097 c-90 -36 -145 -101 -145
-169 0 -42 33 -94 79 -125 59 -40 128 -55 266 -60 107 -4 147 -1 224 16 128
28 248 88 322 159 59 59 76 93 65 137 -8 32 -37 33 -102 3 -73 -33 -175 -29
-339 12 -146 37 -315 50 -370 27z"/>
<path fill="#ffffff" stroke="none" d="M2234 3044 c190 -46 284 -50 368 -15
32 14 61 22 64 18 15 -15 -11 -65 -56 -109 -133 -128 -422 -198 -645 -157
-148 27 -225 112 -181 197 57 110 188 129 450 66z"/>
<path fill="#000000" stroke="none" d="M4335 4111 c-89 -24 -170 -76 -258
-164 -78 -80 -139 -173 -233 -353 -117 -225 -150 -271 -250 -345 -62 -46 -72
-71 -37 -99 38 -30 116 -26 227 10 394 131 818 483 852 706 13 89 -36 183
-119 225 -44 23 -134 33 -182 20z"/>
<path fill="#ffffff" stroke="none" d="M4506 4063 c21 -11 53 -39 69 -62 43
-61 42 -141 -3 -229 -56 -109 -226 -269 -422 -399 -162 -107 -412 -213 -503
-213 -86 0 -100 22 -39 62 93 63 153 145 264 359 93 182 135 245 221 336 146
154 296 207 413 146z"/>
<path fill="#000000" stroke="none" d="M4797 3681 c-68 -27 -132 -79 -236
-191 -108 -116 -176 -164 -263 -185 -100 -23 -129 -78 -61 -114 41 -21 231
-33 344 -21 199 20 325 67 410 152 109 108 117 278 18 349 -46 32 -144 37
-212 10z"/>
<path fill="#ffffff" stroke="none" d="M4985 3650 c92 -57 82 -214 -22 -315
-105 -102 -353 -160 -586 -136 -116 12 -150 23 -141 46 6 13 61 35 92 35 43 0
128 63 262 195 172 169 210 192 314 194 32 1 59 -6 81 -19z"/>
<path fill="#000000" stroke="none" d="M4587 3129 c-156 -37 -201 -186 -75
-250 93 -48 279 -3 335 80 81 119 -67 216 -260 170z"/>
<path fill="#ffffff" stroke="none" d="M4790 3088 c40 -20 45 -27 48 -60 6
-74 -99 -138 -226 -138 -92 0 -142 37 -142 105 0 89 208 149 320 93z"/>
<path fill="#000000" stroke="none" d="M4005 3103 c-11 -2 -78 -18 -150 -35
-163 -39 -267 -42 -338 -10 -66 30 -95 29 -103 -3 -11 -43 5 -76 64 -135 41
-40 83 -69 142 -98 135 -64 200 -77 385 -77 143 1 166 3 218 24 127 50 175
134 131 226 -18 39 -72 83 -123 101 -34 12 -182 17 -226 7z"/>
<path fill="#ffffff" stroke="none" d="M4215 3069 c24 -7 57 -29 82 -54 37
-37 43 -48 43 -85 0 -37 -6 -48 -38 -80 -62 -58 -129 -75 -302 -75 -150 1
-202 10 -321 55 -118 43 -239 146 -239 202 0 24 22 23 73 -4 66 -34 194 -29
367 16 145 37 259 46 335 25z"/>
<path fill="#000000" stroke="none" d="M2827 3740 c-34 -27 -37 -80 -7 -110
28 -28 81 -26 108 3 63 67 -29 164 -101 107z"/>
<path fill="#ffffff" stroke="none" d="M2860 3704 c0 -8 -9 -14 -20 -14 -22 0
-28 26 -7 33 16 6 27 -1 27 -19z"/>
<path fill="#000000" stroke="none" d="M3195 3735 c-30 -30 -32 -64 -4 -99 26
-33 79 -36 109 -6 30 30 27 83 -6 109 -35 28 -69 26 -99 -4z"/>
<path fill="#ffffff" stroke="none" d="M3230 3704 c0 -9 -7 -14 -17 -12 -25 5
-28 28 -4 28 12 0 21 -6 21 -16z"/>
<path fill="#000000" stroke="none" d="M2900 3460 c0 -19 83 -69 124 -75 54
-8 116 8 156 41 43 37 37 47 -12 22 -65 -34 -144 -36 -212 -5 -31 14 -56 22
-56 17z"/>
<path fill="#000000" stroke="none" d="M3864 2580 c-57 -12 -114 -41 -131 -66
-12 -19 -12 -24 2 -37 9 -9 32 -19 53 -22 20 -4 42 -8 49 -10 6 -2 35 -38 63
-80 35 -52 67 -86 103 -110 171 -112 387 -68 387 79 0 126 -184 243 -394 251
-50 2 -109 0 -132 -5z"/>
<path fill="#ffffff" stroke="none" d="M4144 2531 c130 -46 205 -111 213 -186
5 -41 2 -50 -23 -76 -96 -100 -310 -41 -410 114 -43 67 -77 97 -110 97 -29 0
-54 10 -54 21 0 13 55 39 103 49 66 14 214 4 281 -19z"/>
<path fill="#000000" stroke="none" d="M3554 2534 c-22 -33 -9 -74 30 -93 25
-12 31 -11 55 6 32 24 38 56 17 89 -23 35 -79 34 -102 -2z"/>
<path fill="#ffffff" stroke="none" d="M3642 2515 c8 -19 8 -28 -2 -40 -32
-38 -94 1 -70 45 16 29 58 26 72 -5z"/>
<path fill="#000000" stroke="none" d="M3543 2365 c-43 -30 -103 -225 -103
-334 0 -89 21 -143 69 -184 85 -71 212 -38 243 64 16 54 4 84 -57 148 -30 31
-59 69 -65 85 -6 16 -9 69 -8 117 1 49 -2 93 -7 98 -20 18 -51 21 -72 6z"/>
<path fill="#ffffff" stroke="none" d="M3591 2247 c-1 -45 2 -95 8 -109 6 -15
35 -54 65 -87 62 -68 74 -98 56 -142 -19 -44 -56 -69 -104 -69 -54 0 -100 29
-127 81 -18 37 -21 54 -17 128 6 96 45 231 79 275 32 41 43 20 40 -77z"/>
<path fill="#000000" stroke="none" d="M3697 2333 c-25 -24 16 -114 124 -273
138 -203 292 -310 446 -310 103 0 172 53 181 138 6 62 -9 108 -49 150 -47 50
-101 72 -258 104 -176 35 -248 66 -327 142 -56 53 -97 70 -117 49z"/>
<path fill="#ffffff" stroke="none" d="M3800 2256 c85 -81 163 -114 365 -151
180 -33 255 -91 255 -199 0 -86 -69 -133 -184 -124 -154 13 -292 133 -455 395
-86 140 -79 172 19 79z"/>
<path fill="#000000" stroke="none" d="M4465 2195 c-30 -29 -32 -58 -5 -85 40
-40 110 -11 110 45 0 30 -32 65 -60 65 -12 0 -32 -11 -45 -25z"/>
<path fill="#ffffff" stroke="none" d="M4548 2158 c4 -20 -26 -50 -46 -46 -8
2 -21 13 -29 25 -13 19 -12 24 7 43 19 19 24 20 43 7 12 -8 23 -21 25 -29z"/>
<path fill="#000000" stroke="none" d="M3827 1780 c-35 -41 -50 -93 -45 -151
9 -86 69 -129 181 -129 153 0 192 111 81 230 -53 57 -97 80 -152 80 -32 0 -45
-6 -65 -30z"/>
<path fill="#ffffff" stroke="none" d="M3945 1771 c46 -21 121 -98 130 -134
11 -40 2 -69 -27 -90 -57 -43 -211 -16 -232 39 -11 28 -6 104 8 138 13 32 50
66 71 66 5 0 28 -9 50 -19z"/>
<path fill="#000000" stroke="none" d="M3582 1724 c-46 -32 -18 -114 39 -114
28 0 62 34 62 63 0 56 -54 84 -101 51z"/>
<path fill="#ffffff" stroke="none" d="M3648 1708 c34 -34 -6 -90 -48 -68 -25
13 -26 55 -2 69 23 14 36 13 50 -1z"/>
<path fill="#000000" stroke="none" d="M4251 1694 c-12 -15 -21 -33 -21 -41 0
-21 46 -63 70 -63 53 0 81 84 38 114 -33 23 -64 19 -87 -10z"/>
<path fill="#ffffff" stroke="none" d="M4328 1688 c34 -34 -6 -90 -48 -68 -35
19 -20 80 20 80 9 0 21 -5 28 -12z"/>
<path fill="#000000" stroke="none" d="M2024 2576 c-67 -16 -173 -65 -219
-103 -99 -83 -100 -198 -1 -255 34 -19 55 -23 121 -23 131 1 223 55 301 177
32 49 51 69 71 74 62 13 95 27 100 41 8 21 -34 60 -86 78 -63 23 -211 28 -287
11z"/>
<path fill="#ffffff" stroke="none" d="M2314 2531 c25 -11 46 -24 46 -29 0
-12 -25 -22 -54 -22 -32 0 -73 -34 -97 -81 -81 -160 -333 -236 -423 -128 -76
91 28 216 225 269 95 26 234 22 303 -9z"/>
<path fill="#000000" stroke="none" d="M2464 2535 c-21 -33 -10 -74 25 -91 31
-16 62 -4 81 30 13 23 13 29 0 54 -23 40 -82 44 -106 7z"/>
<path fill="#ffffff" stroke="none" d="M2552 2515 c8 -19 8 -28 -2 -40 -18
-21 -57 -19 -70 4 -13 25 -13 27 6 45 23 24 53 20 66 -9z"/>
<path fill="#000000" stroke="none" d="M2515 2360 c-14 -16 -17 -35 -16 -103
2 -104 -7 -127 -74 -198 -65 -68 -77 -110 -48 -166 50 -97 176 -113 249 -31
43 47 57 89 57 168 -1 118 -66 315 -112 340 -27 14 -35 13 -56 -10z"/>
<path fill="#ffffff" stroke="none" d="M2588 2292 c67 -156 84 -294 46 -367
-57 -110 -199 -115 -234 -9 -16 46 0 84 52 128 62 53 78 95 78 201 0 51 3 94
6 98 13 13 33 -7 52 -51z"/>
<path fill="#000000" stroke="none" d="M2312 2288 c-31 -30 -68 -61 -82 -69
-48 -30 -137 -58 -255 -79 -143 -25 -204 -50 -250 -102 -43 -47 -55 -76 -55
-132 0 -48 27 -96 73 -130 24 -18 43 -21 116 -21 81 0 93 3 165 38 126 63 275
232 381 432 34 65 31 109 -8 113 -21 3 -39 -8 -85 -50z"/>
<path fill="#ffffff" stroke="none" d="M2395 2283 c-7 -30 -83 -158 -140 -238
-147 -204 -344 -307 -480 -251 -78 33 -97 137 -40 212 38 50 105 78 265 109
169 33 249 68 321 141 60 61 85 70 74 27z"/>
<path fill="#000000" stroke="none" d="M1585 2208 c-26 -15 -35 -28 -35 -55 0
-30 34 -63 65 -63 57 0 85 71 43 110 -24 22 -44 25 -73 8z"/>
<path fill="#ffffff" stroke="none" d="M1644 2181 c20 -22 14 -56 -11 -65 -47
-18 -81 35 -43 66 28 23 33 22 54 -1z"/>
<path fill="#000000" stroke="none" d="M2152 1793 c-46 -22 -120 -107 -134
-154 -15 -52 -3 -87 41 -116 72 -49 231 -20 266 48 22 42 18 116 -9 175 -13
28 -31 54 -41 57 -30 12 -89 7 -123 -10z"/>
<path fill="#ffffff" stroke="none" d="M2258 1774 c33 -23 52 -67 53 -122 2
-59 -12 -87 -53 -108 -45 -23 -146 -24 -181 -1 -16 10 -31 25 -34 33 -19 50
55 160 132 195 49 23 55 23 83 3z"/>
<path fill="#000000" stroke="none" d="M2462 1724 c-46 -32 -18 -114 39 -114
29 0 62 34 62 65 0 31 -33 65 -62 65 -9 0 -27 -7 -39 -16z"/>
<path fill="#ffffff" stroke="none" d="M2528 1708 c34 -34 -6 -90 -48 -68 -25
13 -26 55 -2 69 23 14 36 13 50 -1z"/>
<path fill="#000000" stroke="none" d="M1780 1700 c-11 -11 -20 -31 -20 -45 0
-30 32 -65 60 -65 26 0 70 43 70 68 0 27 -37 62 -65 62 -14 0 -34 -9 -45 -20z"/>
<path fill="#ffffff" stroke="none" d="M1857 1673 c13 -19 12 -24 -6 -42 -25
-25 -35 -26 -55 -5 -20 20 -20 38 0 59 21 20 43 16 61 -12z"/>
<path fill="#000000" stroke="none" d="M1025 1181 c-39 -23 -83 -75 -91 -107
-8 -30 -13 -30 -44 3 -52 54 -132 67 -206 34 -51 -23 -89 -71 -104 -133 l-12
-48 -45 0 c-86 0 -149 -51 -172 -137 -21 -76 19 -162 92 -200 39 -20 115 -20
154 1 l31 16 22 -45 c56 -116 201 -147 296 -63 l35 31 32 -30 c45 -43 69 -53
126 -53 86 0 146 37 181 112 l17 38 24 -26 c128 -137 363 2 318 189 -13 55
-70 122 -114 133 -19 5 -25 13 -25 33 -1 40 -33 104 -69 134 -36 30 -84 42
-145 35 -39 -5 -44 -3 -64 28 -45 69 -169 97 -237 55z"/>
<path fill="#ffffff" stroke="none" d="M1186 1153 c17 -7 41 -31 55 -53 15
-25 29 -38 39 -34 83 30 170 -2 208 -76 12 -24 22 -59 22 -76 0 -27 4 -33 29
-39 37 -8 87 -58 102 -102 36 -111 -32 -212 -151 -221 -51 -4 -65 -1 -94 19
-19 13 -42 36 -51 51 l-16 29 -29 -31 c-56 -60 -140 -76 -209 -40 -50 25 -80
63 -87 111 l-6 38 -37 -24 c-69 -48 -180 -26 -214 42 -24 47 -28 83 -16 122
24 75 84 116 164 109 l52 -4 1 43 c1 72 54 137 127 153 34 8 67 4 111 -17z"/>
<path fill="#ffffff" stroke="none" d="M839 1085 c16 -8 41 -29 56 -47 l28
-33 -54 -5 c-71 -7 -117 -35 -146 -89 -39 -74 -28 -148 30 -209 50 -52 126
-66 189 -34 l36 19 16 -38 c45 -101 179 -148 264 -92 34 21 40 8 11 -23 -77
-83 -209 -74 -266 16 l-19 30 -23 -31 c-26 -35 -92 -68 -135 -69 -51 0 -114
38 -141 84 -14 24 -25 55 -25 71 0 26 -1 27 -17 13 -29 -25 -80 -48 -107 -48
-116 0 -190 124 -137 228 29 57 86 86 155 79 l51 -5 1 44 c1 54 39 114 85 137
42 21 111 22 148 2z"/>
<path fill="#000000" stroke="none" d="M5105 1174 c-48 -32 -72 -62 -80 -96
-8 -35 -15 -35 -46 -2 -100 109 -285 46 -313 -107 l-6 -37 -60 -4 c-66 -5
-101 -24 -136 -76 -48 -70 -38 -161 25 -223 57 -57 136 -69 208 -31 19 11 23
8 43 -33 57 -117 200 -147 296 -63 l35 31 32 -31 c18 -17 45 -36 60 -41 39
-15 111 -14 150 3 39 16 94 76 103 112 l7 25 26 -24 c94 -88 228 -71 295 36
59 95 25 224 -71 271 -32 16 -42 27 -43 46 -1 43 -36 106 -76 136 -33 26 -46
29 -112 30 -70 1 -76 3 -89 27 -38 73 -174 101 -248 51z"/>
<path fill="#ffffff" stroke="none" d="M5265 1160 c26 -10 73 -57 81 -82 5
-16 11 -18 32 -12 52 16 108 10 146 -16 41 -28 76 -91 76 -137 0 -24 5 -32 25
-37 38 -10 92 -63 106 -103 26 -80 -15 -179 -87 -209 -76 -32 -167 -8 -204 52
l-21 33 -35 -34 c-43 -43 -97 -60 -160 -50 -64 9 -120 63 -130 123 l-6 41 -37
-24 c-46 -32 -121 -34 -169 -5 -74 45 -90 158 -31 225 38 43 78 59 137 53 l47
-5 1 42 c2 117 114 187 229 145z"/>
<path fill="#ffffff" stroke="none" d="M4929 1085 c16 -8 41 -29 56 -47 l28
-33 -60 -6 c-73 -7 -113 -33 -142 -92 -37 -77 -22 -159 38 -210 59 -49 122
-56 203 -22 12 5 21 -2 33 -29 47 -99 179 -144 263 -89 38 24 38 7 0 -31 -76
-76 -200 -63 -256 25 l-19 30 -26 -35 c-33 -42 -102 -71 -152 -63 -77 13 -145
84 -145 153 0 25 -1 26 -17 12 -59 -51 -126 -60 -187 -25 -74 42 -97 135 -53
211 31 55 78 78 147 73 l55 -5 1 42 c3 89 70 156 157 156 26 0 61 -7 76 -15z"/>
</g>
</svg>
